<svg width="185" height="47" viewBox="0 0 185 47" fill="none" xmlns="http://www.w3.org/2000/svg">
<path d="M53.656 26V3.6H63.832C66.264 3.6 68.408 4.06933 70.264 5.008C72.12 5.92533 73.5707 7.216 74.616 8.88C75.6613 10.544 76.184 12.5173 76.184 14.8C76.184 17.0613 75.6613 19.0347 74.616 20.72C73.5707 22.384 72.12 23.6853 70.264 24.624C68.408 25.5413 66.264 26 63.832 26H53.656ZM58.84 21.744H63.576C65.0693 21.744 66.36 21.4667 67.448 20.912C68.5573 20.336 69.4107 19.5253 70.008 18.48C70.6267 17.4347 70.936 16.208 70.936 14.8C70.936 13.3707 70.6267 12.144 70.008 11.12C69.4107 10.0747 68.5573 9.27467 67.448 8.72C66.36 8.144 65.0693 7.856 63.576 7.856H58.84V21.744ZM87.9335 26.256C86.0988 26.256 84.4668 25.872 83.0375 25.104C81.6295 24.336 80.5095 23.2907 79.6775 21.968C78.8668 20.624 78.4615 19.0987 78.4615 17.392C78.4615 15.664 78.8668 14.1387 79.6775 12.816C80.5095 11.472 81.6295 10.4267 83.0375 9.68C84.4668 8.912 86.0988 8.528 87.9335 8.528C89.7468 8.528 91.3682 8.912 92.7975 9.68C94.2268 10.4267 95.3468 11.4613 96.1575 12.784C96.9682 14.1067 97.3735 15.6427 97.3735 17.392C97.3735 19.0987 96.9682 20.624 96.1575 21.968C95.3468 23.2907 94.2268 24.336 92.7975 25.104C91.3682 25.872 89.7468 26.256 87.9335 26.256ZM87.9335 22.16C88.7655 22.16 89.5122 21.968 90.1735 21.584C90.8348 21.2 91.3575 20.656 91.7415 19.952C92.1255 19.2267 92.3175 18.3733 92.3175 17.392C92.3175 16.3893 92.1255 15.536 91.7415 14.832C91.3575 14.128 90.8348 13.584 90.1735 13.2C89.5122 12.816 88.7655 12.624 87.9335 12.624C87.1015 12.624 86.3548 12.816 85.6935 13.2C85.0322 13.584 84.4988 14.128 84.0935 14.832C83.7095 15.536 83.5175 16.3893 83.5175 17.392C83.5175 18.3733 83.7095 19.2267 84.0935 19.952C84.4988 20.656 85.0322 21.2 85.6935 21.584C86.3548 21.968 87.1015 22.16 87.9335 22.16ZM109.03 26.256C107.174 26.256 105.521 25.8827 104.07 25.136C102.62 24.368 101.478 23.312 100.646 21.968C99.8356 20.624 99.4303 19.0987 99.4303 17.392C99.4303 15.664 99.8356 14.1387 100.646 12.816C101.478 11.472 102.62 10.4267 104.07 9.68C105.521 8.912 107.174 8.528 109.03 8.528C110.844 8.528 112.422 8.912 113.766 9.68C115.11 10.4267 116.102 11.504 116.742 12.912L112.87 14.992C112.422 14.1813 111.857 13.584 111.174 13.2C110.513 12.816 109.788 12.624 108.998 12.624C108.145 12.624 107.377 12.816 106.694 13.2C106.012 13.584 105.468 14.128 105.062 14.832C104.678 15.536 104.486 16.3893 104.486 17.392C104.486 18.3947 104.678 19.248 105.062 19.952C105.468 20.656 106.012 21.2 106.694 21.584C107.377 21.968 108.145 22.16 108.998 22.16C109.788 22.16 110.513 21.9787 111.174 21.616C111.857 21.232 112.422 20.624 112.87 19.792L116.742 21.904C116.102 23.2907 115.11 24.368 113.766 25.136C112.422 25.8827 110.844 26.256 109.03 26.256ZM120.475 26V8.4C120.475 6.45867 121.051 4.912 122.203 3.76C123.355 2.58666 124.997 2 127.131 2C127.856 2 128.549 2.07467 129.211 2.224C129.893 2.37333 130.469 2.608 130.939 2.928L129.627 6.544C129.349 6.352 129.04 6.20267 128.699 6.096C128.357 5.98933 127.995 5.936 127.611 5.936C126.885 5.936 126.32 6.14933 125.915 6.576C125.531 6.98133 125.339 7.6 125.339 8.432V10.032L125.467 12.176V26H120.475ZM117.819 13.008V9.168H129.755V13.008H117.819ZM132.571 26V8.784H137.562V26H132.571ZM135.067 6.384C134.149 6.384 133.403 6.11733 132.827 5.584C132.251 5.05067 131.963 4.38933 131.963 3.6C131.963 2.81067 132.251 2.14933 132.827 1.616C133.403 1.08267 134.149 0.815998 135.067 0.815998C135.984 0.815998 136.731 1.072 137.307 1.584C137.883 2.07467 138.171 2.71467 138.171 3.504C138.171 4.336 137.883 5.02933 137.307 5.584C136.752 6.11733 136.005 6.384 135.067 6.384ZM152.643 8.528C154.008 8.528 155.224 8.80533 156.291 9.36C157.379 9.89333 158.232 10.7253 158.851 11.856C159.47 12.9653 159.779 14.3947 159.779 16.144V26H154.787V16.912C154.787 15.5253 154.478 14.5013 153.859 13.84C153.262 13.1787 152.408 12.848 151.299 12.848C150.51 12.848 149.795 13.0187 149.155 13.36C148.536 13.68 148.046 14.1813 147.683 14.864C147.342 15.5467 147.171 16.4213 147.171 17.488V26H142.179V8.784H146.947V13.552L146.051 12.112C146.67 10.96 147.555 10.0747 148.707 9.456C149.859 8.83733 151.171 8.528 152.643 8.528ZM171.821 26.256C170.2 26.256 168.738 25.8933 167.437 25.168C166.136 24.4213 165.101 23.3867 164.333 22.064C163.586 20.7413 163.213 19.184 163.213 17.392C163.213 15.5787 163.586 14.0107 164.333 12.688C165.101 11.3653 166.136 10.3413 167.437 9.616C168.738 8.89067 170.2 8.528 171.821 8.528C173.272 8.528 174.541 8.848 175.629 9.488C176.717 10.128 177.56 11.0987 178.157 12.4C178.754 13.7013 179.053 15.3653 179.053 17.392C179.053 19.3973 178.765 21.0613 178.189 22.384C177.613 23.6853 176.781 24.656 175.693 25.296C174.626 25.936 173.336 26.256 171.821 26.256ZM172.685 22.16C173.496 22.16 174.232 21.968 174.893 21.584C175.554 21.2 176.077 20.656 176.461 19.952C176.866 19.2267 177.069 18.3733 177.069 17.392C177.069 16.3893 176.866 15.536 176.461 14.832C176.077 14.128 175.554 13.584 174.893 13.2C174.232 12.816 173.496 12.624 172.685 12.624C171.853 12.624 171.106 12.816 170.445 13.2C169.784 13.584 169.25 14.128 168.845 14.832C168.461 15.536 168.269 16.3893 168.269 17.392C168.269 18.3733 168.461 19.2267 168.845 19.952C169.25 20.656 169.784 21.2 170.445 21.584C171.106 21.968 171.853 22.16 172.685 22.16ZM177.197 26V22.48L177.293 17.36L176.973 12.272V2.256H181.965V26H177.197Z" fill="#120745"/>
<path d="M56.852 44.112C56.1053 44.112 55.4147 43.9907 54.78 43.748C54.1547 43.496 53.6087 43.146 53.142 42.698C52.6847 42.2407 52.3253 41.7087 52.064 41.102C51.8027 40.4953 51.672 39.828 51.672 39.1C51.672 38.372 51.8027 37.7047 52.064 37.098C52.3253 36.4913 52.6893 35.964 53.156 35.516C53.6227 35.0587 54.1687 34.7087 54.794 34.466C55.4287 34.214 56.1193 34.088 56.866 34.088C57.622 34.088 58.3173 34.2187 58.952 34.48C59.596 34.732 60.142 35.11 60.59 35.614L59.68 36.496C59.3067 36.104 58.8867 35.8147 58.42 35.628C57.9533 35.432 57.454 35.334 56.922 35.334C56.3713 35.334 55.858 35.4273 55.382 35.614C54.9153 35.8007 54.5093 36.062 54.164 36.398C53.8187 36.734 53.548 37.1353 53.352 37.602C53.1653 38.0593 53.072 38.5587 53.072 39.1C53.072 39.6413 53.1653 40.1453 53.352 40.612C53.548 41.0693 53.8187 41.466 54.164 41.802C54.5093 42.138 54.9153 42.3993 55.382 42.586C55.858 42.7727 56.3713 42.866 56.922 42.866C57.454 42.866 57.9533 42.7727 58.42 42.586C58.8867 42.39 59.3067 42.0913 59.68 41.69L60.59 42.572C60.142 43.076 59.596 43.4587 58.952 43.72C58.3173 43.9813 57.6173 44.112 56.852 44.112ZM63.2312 44V33.612H64.5752V44H63.2312ZM72.5873 44V42.432L72.5173 42.138V39.464C72.5173 38.8947 72.3493 38.456 72.0133 38.148C71.6867 37.8307 71.192 37.672 70.5293 37.672C70.0907 37.672 69.6613 37.7467 69.2413 37.896C68.8213 38.036 68.4667 38.2273 68.1773 38.47L67.6173 37.462C68 37.154 68.4573 36.9207 68.9893 36.762C69.5307 36.594 70.0953 36.51 70.6833 36.51C71.7007 36.51 72.4847 36.7573 73.0353 37.252C73.586 37.7467 73.8613 38.5027 73.8613 39.52V44H72.5873ZM70.1513 44.084C69.6007 44.084 69.1153 43.9907 68.6953 43.804C68.2847 43.6173 67.9673 43.3607 67.7433 43.034C67.5193 42.698 67.4073 42.32 67.4073 41.9C67.4073 41.4987 67.5007 41.1347 67.6873 40.808C67.8833 40.4813 68.196 40.22 68.6253 40.024C69.064 39.828 69.652 39.73 70.3893 39.73H72.7413V40.696H70.4453C69.7733 40.696 69.3207 40.808 69.0873 41.032C68.854 41.256 68.7373 41.5267 68.7373 41.844C68.7373 42.208 68.882 42.502 69.1713 42.726C69.4607 42.9407 69.862 43.048 70.3753 43.048C70.8793 43.048 71.318 42.936 71.6913 42.712C72.074 42.488 72.3493 42.1613 72.5173 41.732L72.7833 42.656C72.606 43.0947 72.2933 43.4447 71.8453 43.706C71.3973 43.958 70.8327 44.084 70.1513 44.084ZM79.3165 44.084C78.7005 44.084 78.1125 44 77.5525 43.832C77.0019 43.664 76.5679 43.4587 76.2505 43.216L76.8105 42.152C77.1279 42.3667 77.5199 42.5487 77.9865 42.698C78.4532 42.8473 78.9292 42.922 79.4145 42.922C80.0399 42.922 80.4879 42.8333 80.7585 42.656C81.0385 42.4787 81.1785 42.2313 81.1785 41.914C81.1785 41.6807 81.0945 41.4987 80.9265 41.368C80.7585 41.2373 80.5345 41.1393 80.2545 41.074C79.9839 41.0087 79.6805 40.9527 79.3445 40.906C79.0085 40.85 78.6725 40.7847 78.3365 40.71C78.0005 40.626 77.6925 40.514 77.4125 40.374C77.1325 40.2247 76.9085 40.024 76.7405 39.772C76.5725 39.5107 76.4885 39.1653 76.4885 38.736C76.4885 38.288 76.6145 37.896 76.8665 37.56C77.1185 37.224 77.4732 36.9673 77.9305 36.79C78.3972 36.6033 78.9479 36.51 79.5825 36.51C80.0679 36.51 80.5579 36.5707 81.0525 36.692C81.5565 36.804 81.9672 36.9673 82.2845 37.182L81.7105 38.246C81.3745 38.022 81.0245 37.868 80.6605 37.784C80.2965 37.7 79.9325 37.658 79.5685 37.658C78.9805 37.658 78.5419 37.756 78.2525 37.952C77.9632 38.1387 77.8185 38.3813 77.8185 38.68C77.8185 38.932 77.9025 39.128 78.0705 39.268C78.2479 39.3987 78.4719 39.5013 78.7425 39.576C79.0225 39.6507 79.3305 39.716 79.6665 39.772C80.0025 39.8187 80.3385 39.884 80.6745 39.968C81.0105 40.0427 81.3139 40.15 81.5845 40.29C81.8645 40.43 82.0885 40.626 82.2565 40.878C82.4339 41.13 82.5225 41.466 82.5225 41.886C82.5225 42.334 82.3919 42.7213 82.1305 43.048C81.8692 43.3747 81.5005 43.6313 81.0245 43.818C80.5485 43.9953 79.9792 44.084 79.3165 44.084ZM87.1702 44.084C86.5542 44.084 85.9662 44 85.4062 43.832C84.8555 43.664 84.4215 43.4587 84.1042 43.216L84.6642 42.152C84.9815 42.3667 85.3735 42.5487 85.8402 42.698C86.3069 42.8473 86.7829 42.922 87.2682 42.922C87.8935 42.922 88.3415 42.8333 88.6122 42.656C88.8922 42.4787 89.0322 42.2313 89.0322 41.914C89.0322 41.6807 88.9482 41.4987 88.7802 41.368C88.6122 41.2373 88.3882 41.1393 88.1082 41.074C87.8375 41.0087 87.5342 40.9527 87.1982 40.906C86.8622 40.85 86.5262 40.7847 86.1902 40.71C85.8542 40.626 85.5462 40.514 85.2662 40.374C84.9862 40.2247 84.7622 40.024 84.5942 39.772C84.4262 39.5107 84.3422 39.1653 84.3422 38.736C84.3422 38.288 84.4682 37.896 84.7202 37.56C84.9722 37.224 85.3269 36.9673 85.7842 36.79C86.2509 36.6033 86.8015 36.51 87.4362 36.51C87.9215 36.51 88.4115 36.5707 88.9062 36.692C89.4102 36.804 89.8209 36.9673 90.1382 37.182L89.5642 38.246C89.2282 38.022 88.8782 37.868 88.5142 37.784C88.1502 37.7 87.7862 37.658 87.4222 37.658C86.8342 37.658 86.3955 37.756 86.1062 37.952C85.8169 38.1387 85.6722 38.3813 85.6722 38.68C85.6722 38.932 85.7562 39.128 85.9242 39.268C86.1015 39.3987 86.3255 39.5013 86.5962 39.576C86.8762 39.6507 87.1842 39.716 87.5202 39.772C87.8562 39.8187 88.1922 39.884 88.5282 39.968C88.8642 40.0427 89.1675 40.15 89.4382 40.29C89.7182 40.43 89.9422 40.626 90.1102 40.878C90.2875 41.13 90.3762 41.466 90.3762 41.886C90.3762 42.334 90.2455 42.7213 89.9842 43.048C89.7229 43.3747 89.3542 43.6313 88.8782 43.818C88.4022 43.9953 87.8329 44.084 87.1702 44.084ZM92.8959 44V36.58H94.2399V44H92.8959ZM93.5679 35.152C93.3065 35.152 93.0872 35.068 92.9099 34.9C92.7419 34.732 92.6579 34.5267 92.6579 34.284C92.6579 34.032 92.7419 33.822 92.9099 33.654C93.0872 33.486 93.3065 33.402 93.5679 33.402C93.8292 33.402 94.0439 33.486 94.2119 33.654C94.3892 33.8127 94.4779 34.0133 94.4779 34.256C94.4779 34.508 94.3939 34.7227 94.2259 34.9C94.0579 35.068 93.8385 35.152 93.5679 35.152ZM97.842 44V35.922C97.842 35.194 98.052 34.6153 98.472 34.186C98.9014 33.7473 99.508 33.528 100.292 33.528C100.581 33.528 100.857 33.5653 101.118 33.64C101.389 33.7053 101.617 33.8127 101.804 33.962L101.398 34.984C101.258 34.872 101.099 34.788 100.922 34.732C100.745 34.6667 100.558 34.634 100.362 34.634C99.97 34.634 99.6714 34.746 99.466 34.97C99.2607 35.1847 99.158 35.5067 99.158 35.936V36.93L99.186 37.546V44H97.842ZM96.582 37.686V36.58H101.314V37.686H96.582ZM102.588 44V36.58H103.932V44H102.588ZM103.26 35.152C102.999 35.152 102.779 35.068 102.602 34.9C102.434 34.732 102.35 34.5267 102.35 34.284C102.35 34.032 102.434 33.822 102.602 33.654C102.779 33.486 102.999 33.402 103.26 33.402C103.521 33.402 103.736 33.486 103.904 33.654C104.081 33.8127 104.17 34.0133 104.17 34.256C104.17 34.508 104.086 34.7227 103.918 34.9C103.75 35.068 103.531 35.152 103.26 35.152ZM110.636 44.084C109.842 44.084 109.142 43.9207 108.536 43.594C107.938 43.2673 107.472 42.8193 107.136 42.25C106.809 41.6807 106.646 41.0273 106.646 40.29C106.646 39.5527 106.804 38.8993 107.122 38.33C107.448 37.7607 107.892 37.3173 108.452 37C109.021 36.6733 109.66 36.51 110.37 36.51C111.088 36.51 111.723 36.6687 112.274 36.986C112.824 37.3033 113.254 37.7513 113.562 38.33C113.879 38.8993 114.038 39.5667 114.038 40.332C114.038 40.388 114.033 40.4533 114.024 40.528C114.024 40.6027 114.019 40.6727 114.01 40.738H107.696V39.772H113.31L112.764 40.108C112.773 39.632 112.675 39.2073 112.47 38.834C112.264 38.4607 111.98 38.1713 111.616 37.966C111.261 37.7513 110.846 37.644 110.37 37.644C109.903 37.644 109.488 37.7513 109.124 37.966C108.76 38.1713 108.475 38.4653 108.27 38.848C108.064 39.2213 107.962 39.6507 107.962 40.136V40.36C107.962 40.8547 108.074 41.298 108.298 41.69C108.531 42.0727 108.853 42.3713 109.264 42.586C109.674 42.8007 110.146 42.908 110.678 42.908C111.116 42.908 111.513 42.8333 111.868 42.684C112.232 42.5347 112.549 42.3107 112.82 42.012L113.562 42.88C113.226 43.272 112.806 43.5707 112.302 43.776C111.807 43.9813 111.252 44.084 110.636 44.084ZM119.81 44.084C119.091 44.084 118.447 43.9253 117.878 43.608C117.318 43.2907 116.875 42.8473 116.548 42.278C116.221 41.7087 116.058 41.046 116.058 40.29C116.058 39.534 116.221 38.876 116.548 38.316C116.875 37.7467 117.318 37.3033 117.878 36.986C118.447 36.6687 119.091 36.51 119.81 36.51C120.435 36.51 121 36.65 121.504 36.93C122.008 37.21 122.409 37.63 122.708 38.19C123.016 38.75 123.17 39.45 123.17 40.29C123.17 41.13 123.021 41.83 122.722 42.39C122.433 42.95 122.036 43.3747 121.532 43.664C121.028 43.944 120.454 44.084 119.81 44.084ZM119.922 42.908C120.389 42.908 120.809 42.8007 121.182 42.586C121.565 42.3713 121.863 42.068 122.078 41.676C122.302 41.2747 122.414 40.8127 122.414 40.29C122.414 39.758 122.302 39.3007 122.078 38.918C121.863 38.526 121.565 38.2227 121.182 38.008C120.809 37.7933 120.389 37.686 119.922 37.686C119.446 37.686 119.021 37.7933 118.648 38.008C118.275 38.2227 117.976 38.526 117.752 38.918C117.528 39.3007 117.416 39.758 117.416 40.29C117.416 40.8127 117.528 41.2747 117.752 41.676C117.976 42.068 118.275 42.3713 118.648 42.586C119.021 42.8007 119.446 42.908 119.922 42.908ZM122.456 44V41.998L122.54 40.276L122.4 38.554V33.612H123.744V44H122.456ZM131.923 44V34.2H133.323V42.782H138.629V44H131.923ZM140.879 44V36.58H142.223V44H140.879ZM141.551 35.152C141.29 35.152 141.071 35.068 140.893 34.9C140.725 34.732 140.641 34.5267 140.641 34.284C140.641 34.032 140.725 33.822 140.893 33.654C141.071 33.486 141.29 33.402 141.551 33.402C141.813 33.402 142.027 33.486 142.195 33.654C142.373 33.8127 142.461 34.0133 142.461 34.256C142.461 34.508 142.377 34.7227 142.209 34.9C142.041 35.068 141.822 35.152 141.551 35.152ZM147.757 44.084C147.141 44.084 146.553 44 145.993 43.832C145.443 43.664 145.009 43.4587 144.691 43.216L145.251 42.152C145.569 42.3667 145.961 42.5487 146.427 42.698C146.894 42.8473 147.37 42.922 147.855 42.922C148.481 42.922 148.929 42.8333 149.199 42.656C149.479 42.4787 149.619 42.2313 149.619 41.914C149.619 41.6807 149.535 41.4987 149.367 41.368C149.199 41.2373 148.975 41.1393 148.695 41.074C148.425 41.0087 148.121 40.9527 147.785 40.906C147.449 40.85 147.113 40.7847 146.777 40.71C146.441 40.626 146.133 40.514 145.853 40.374C145.573 40.2247 145.349 40.024 145.181 39.772C145.013 39.5107 144.929 39.1653 144.929 38.736C144.929 38.288 145.055 37.896 145.307 37.56C145.559 37.224 145.914 36.9673 146.371 36.79C146.838 36.6033 147.389 36.51 148.023 36.51C148.509 36.51 148.999 36.5707 149.493 36.692C149.997 36.804 150.408 36.9673 150.725 37.182L150.151 38.246C149.815 38.022 149.465 37.868 149.101 37.784C148.737 37.7 148.373 37.658 148.009 37.658C147.421 37.658 146.983 37.756 146.693 37.952C146.404 38.1387 146.259 38.3813 146.259 38.68C146.259 38.932 146.343 39.128 146.511 39.268C146.689 39.3987 146.913 39.5013 147.183 39.576C147.463 39.6507 147.771 39.716 148.107 39.772C148.443 39.8187 148.779 39.884 149.115 39.968C149.451 40.0427 149.755 40.15 150.025 40.29C150.305 40.43 150.529 40.626 150.697 40.878C150.875 41.13 150.963 41.466 150.963 41.886C150.963 42.334 150.833 42.7213 150.571 43.048C150.31 43.3747 149.941 43.6313 149.465 43.818C148.989 43.9953 148.42 44.084 147.757 44.084ZM156.031 44.084C155.284 44.084 154.706 43.8833 154.295 43.482C153.884 43.0807 153.679 42.5067 153.679 41.76V34.956H155.023V41.704C155.023 42.1053 155.121 42.4133 155.317 42.628C155.522 42.8427 155.812 42.95 156.185 42.95C156.605 42.95 156.955 42.8333 157.235 42.6L157.655 43.566C157.45 43.7433 157.202 43.874 156.913 43.958C156.633 44.042 156.339 44.084 156.031 44.084ZM152.419 37.686V36.58H157.151V37.686H152.419ZM160.12 44V36.58H161.464V44H160.12ZM160.792 35.152C160.531 35.152 160.311 35.068 160.134 34.9C159.966 34.732 159.882 34.5267 159.882 34.284C159.882 34.032 159.966 33.822 160.134 33.654C160.311 33.486 160.531 33.402 160.792 33.402C161.053 33.402 161.268 33.486 161.436 33.654C161.613 33.8127 161.702 34.0133 161.702 34.256C161.702 34.508 161.618 34.7227 161.45 34.9C161.282 35.068 161.063 35.152 160.792 35.152ZM168.832 36.51C169.439 36.51 169.971 36.6267 170.428 36.86C170.895 37.0933 171.259 37.448 171.52 37.924C171.781 38.4 171.912 39.002 171.912 39.73V44H170.568V39.884C170.568 39.1653 170.391 38.624 170.036 38.26C169.691 37.896 169.201 37.714 168.566 37.714C168.09 37.714 167.675 37.8073 167.32 37.994C166.965 38.1807 166.69 38.456 166.494 38.82C166.307 39.184 166.214 39.6367 166.214 40.178V44H164.87V36.58H166.158V38.582L165.948 38.05C166.191 37.5647 166.564 37.1867 167.068 36.916C167.572 36.6453 168.16 36.51 168.832 36.51ZM178.487 46.8C177.806 46.8 177.143 46.702 176.499 46.506C175.865 46.3193 175.347 46.0487 174.945 45.694L175.589 44.658C175.935 44.9567 176.359 45.19 176.863 45.358C177.367 45.5353 177.895 45.624 178.445 45.624C179.323 45.624 179.967 45.4187 180.377 45.008C180.788 44.5973 180.993 43.972 180.993 43.132V41.564L181.133 40.094L181.063 38.61V36.58H182.337V42.992C182.337 44.2987 182.011 45.26 181.357 45.876C180.704 46.492 179.747 46.8 178.487 46.8ZM178.319 43.692C177.601 43.692 176.957 43.5427 176.387 43.244C175.827 42.936 175.379 42.5113 175.043 41.97C174.717 41.4287 174.553 40.8033 174.553 40.094C174.553 39.3753 174.717 38.75 175.043 38.218C175.379 37.6767 175.827 37.2567 176.387 36.958C176.957 36.6593 177.601 36.51 178.319 36.51C178.954 36.51 179.533 36.6407 180.055 36.902C180.578 37.154 180.993 37.546 181.301 38.078C181.619 38.61 181.777 39.282 181.777 40.094C181.777 40.8967 181.619 41.564 181.301 42.096C180.993 42.628 180.578 43.0293 180.055 43.3C179.533 43.5613 178.954 43.692 178.319 43.692ZM178.473 42.516C178.968 42.516 179.407 42.4133 179.789 42.208C180.172 42.0027 180.471 41.718 180.685 41.354C180.909 40.99 181.021 40.57 181.021 40.094C181.021 39.618 180.909 39.198 180.685 38.834C180.471 38.47 180.172 38.19 179.789 37.994C179.407 37.7887 178.968 37.686 178.473 37.686C177.979 37.686 177.535 37.7887 177.143 37.994C176.761 38.19 176.457 38.47 176.233 38.834C176.019 39.198 175.911 39.618 175.911 40.094C175.911 40.57 176.019 40.99 176.233 41.354C176.457 41.718 176.761 42.0027 177.143 42.208C177.535 42.4133 177.979 42.516 178.473 42.516Z" fill="#605982"/>
<path d="M40 22C40 32.4934 31.4934 41 21 41C10.5066 41 2 32.4934 2 22C2 11.5066 10.5066 3 21 3C31.4934 3 40 11.5066 40 22Z" fill="#3C19E8"/>
<path d="M36.3468 35.1029L42.5539 41.3069C42.8434 41.6066 43.0036 42.008 42.9999 42.4247C42.9963 42.8413 42.8292 43.2399 42.5346 43.5346C42.2399 43.8292 41.8413 43.9963 41.4247 43.9999C41.008 44.0036 40.6066 43.8434 40.3069 43.5539L34.0998 37.3468C30.0435 40.822 24.7989 42.5911 19.4665 42.2829C14.134 41.9746 9.1282 39.613 5.49943 35.6935C1.87067 31.7741 -0.0989676 26.6014 0.00383063 21.2611C0.106629 15.9207 2.27387 10.8277 6.05078 7.05078C9.8277 3.27387 14.9207 1.10663 20.2611 1.00383C25.6014 0.901032 30.7741 2.87067 34.6935 6.49943C38.613 10.1282 40.9746 15.134 41.2829 20.4665C41.5911 25.7989 39.822 31.0435 36.3468 35.0998V35.1029ZM20.6589 39.1393C25.295 39.1393 29.7412 37.2976 33.0194 34.0194C36.2976 30.7412 38.1393 26.295 38.1393 21.6589C38.1393 17.0228 36.2976 12.5766 33.0194 9.2984C29.7412 6.02019 25.295 4.17851 20.6589 4.17851C16.0228 4.17851 11.5766 6.02019 8.2984 9.2984C5.02019 12.5766 3.17851 17.0228 3.17851 21.6589C3.17851 26.295 5.02019 30.7412 8.2984 34.0194C11.5766 37.2976 16.0228 39.1393 20.6589 39.1393Z" fill="#3C19E8"/>
<path d="M6 13.5C6.95455 11.0208 9.5 6.5 16 6" stroke="white"/>
<path d="M31.3332 34.8419C30.3708 36.4045 27 39.5 20.9994 38.5" stroke="white"/>
<path d="M26.875 19.375H22.625V15.125C22.625 14.5614 22.4011 14.0209 22.0026 13.6224C21.6041 13.2239 21.0636 13 20.5 13C19.9364 13 19.3959 13.2239 18.9974 13.6224C18.5989 14.0209 18.375 14.5614 18.375 15.125L18.4504 19.375H14.125C13.5614 19.375 13.0209 19.5989 12.6224 19.9974C12.2239 20.3959 12 20.9364 12 21.5C12 22.0636 12.2239 22.6041 12.6224 23.0026C13.0209 23.4011 13.5614 23.625 14.125 23.625L18.4504 23.5496L18.375 27.875C18.375 28.4386 18.5989 28.9791 18.9974 29.3776C19.3959 29.7761 19.9364 30 20.5 30C21.0636 30 21.6041 29.7761 22.0026 29.3776C22.4011 28.9791 22.625 28.4386 22.625 27.875V23.5496L26.875 23.625C27.4386 23.625 27.9791 23.4011 28.3776 23.0026C28.7761 22.6041 29 22.0636 29 21.5C29 20.9364 28.7761 20.3959 28.3776 19.9974C27.9791 19.5989 27.4386 19.375 26.875 19.375Z" fill="white"/>
</svg>
