<svg width="130" height="42" viewBox="0 0 130 42" fill="none" xmlns="http://www.w3.org/2000/svg">
<g clip-path="url(#clip0_319_5265)">
<path d="M11.2653 12.5L3.48926 0.400024H0V22.4H4.88497V10.2L9.57055 17.6H12.8604L17.546 10.2V22.4H22.431V0.400024H18.9417L11.2653 12.5Z" fill="#01686F"/>
<path d="M41.7711 18.1V19.9L36.2879 22.4H26.0195V0.400024H41.6714V4.60002H30.9045V9.10003H40.6744V13.2H30.9045V18.1H41.7711Z" fill="#01686F"/>
<path d="M66.9935 0.400024V19.3C65.2987 19.6 63.7036 20 62.1085 20.3V10.2L57.3232 17.6H54.1331L49.3478 10.1V16.4L46.5564 17.7C46.1576 17.9 45.6591 18.1 45.2604 18.3C45.061 18.4 44.7619 18.5 44.5625 18.6V0.400024H48.0518L55.8278 12.5L63.5042 0.400024H66.9935Z" fill="#01686F"/>
<path d="M91.6182 6.9C91.0201 5.5 90.2225 4.3 89.1259 3.3C88.129 2.3 86.833 1.5 85.4372 0.9C84.1412 0.3 82.5461 0 80.9511 0C79.2563 0 77.7609 0.3 76.3652 0.9C74.9695 1.4 73.7731 2.2 72.7762 3.3C71.7793 4.3 70.882 5.5 70.3836 6.9C69.7854 8.3 69.4863 9.8 69.4863 11.4C69.4863 13 69.7854 14.5 70.3836 15.9C70.7823 16.8 71.2808 17.6 71.879 18.4C72.4771 18.3 73.0753 18.2 73.6734 18L74.7701 20.5C75.9664 20.6 77.063 20.6 78.2593 20.7C81.0507 20.8 83.7425 21 86.5339 21.1H87.2317C87.9296 20.6 88.6274 20.1 89.2256 19.5C90.2225 18.5 91.0201 17.3 91.6182 15.9C92.2164 14.5 92.5155 13 92.5155 11.4C92.5155 9.8 92.2164 8.2 91.6182 6.9ZM86.6336 15C86.1351 16 85.3376 16.9 84.3406 17.4C83.3437 18 82.2471 18.3 80.9511 18.3C79.9541 18.3 79.0569 18.1 78.2593 17.8C77.4618 17.5 76.7639 17 76.1658 16.4C75.5676 15.8 75.1688 15 74.8698 14.2C74.5707 13.4 74.3713 12.4 74.3713 11.4C74.3713 10 74.6704 8.8 75.1688 7.8C75.6673 6.8 76.4649 6 77.4618 5.4C78.4587 4.8 79.655 4.5 80.9511 4.5C81.948 4.5 82.8452 4.7 83.5431 5C84.3406 5.3 85.0385 5.8 85.6366 6.4C86.2348 7 86.6336 7.7 86.9326 8.6C87.2317 9.4 87.4311 10.4 87.4311 11.4C87.5308 12.7 87.2317 13.9 86.6336 15Z" fill="#01686F"/>
<path d="M99.7932 0.400024H94.9082V22.4H99.7932V0.400024Z" fill="#01686F"/>
<path d="M118.734 10.2C119.332 9.19999 119.631 8.09999 119.631 6.79999C119.631 5.49999 119.332 4.39999 118.734 3.39999C118.135 2.39999 117.238 1.69999 116.142 1.09999C115.045 0.499988 113.749 0.299988 112.353 0.299988H103.381V22.3H108.266V13.2H108.764L114.148 20.7C115.543 20.1 116.939 19.5 118.335 18.7L114.048 13C114.846 12.9 115.444 12.7 116.142 12.4C117.238 12 118.135 11.2 118.734 10.2ZM114.048 8.89999C113.55 9.39999 112.752 9.69999 111.855 9.69999H108.366V4.19999H111.855C112.852 4.19999 113.55 4.49999 114.048 4.99999C114.547 5.49999 114.846 6.19999 114.846 6.99999C114.846 7.79999 114.547 8.39999 114.048 8.89999Z" fill="#01686F"/>
<path d="M74.1718 20.9C72.8758 21.8 71.5798 22.6 70.5829 23.3C75.6672 23.5 81.0507 23.8 86.3344 24C86.3344 24.2 86.3344 24.3 86.3344 24.5C84.1411 24.8 82.0476 25.2 79.8543 25.5C79.8543 25.6 79.8543 25.7 79.8543 25.8C83.0445 25.6 86.2347 25.3 89.3252 25.2C91.4188 25.2 93.4126 25.4 95.5062 25.7C104.479 26.9 112.952 25.5 120.729 20.9C120.828 20.9 120.928 20.9 121.127 20.8C120.928 22 120.729 23.2 120.529 24.8C122.025 22.6 123.321 20.8 124.517 19C124.617 19.1 124.716 19.1 124.816 19.2C124.617 19.8 124.417 20.3 124.218 20.9C124.318 21 124.318 21 124.417 21.1C126.112 19.6 127.906 18.1 129.601 16.6C131.196 20.7 127.209 26.2 118.336 32.1C119.931 32.1 121.227 32.1 122.423 32.1C119.632 34.2 116.641 35 109.364 35.5C111.557 35.8 113.65 36.2 115.744 36.5C113.252 38.7 110.36 39.6 106.572 39C107.17 39.4 107.569 39.7 108.068 40C99.2945 44 92.6151 40.3 86.5338 34.5C87.3313 37.7 89.8237 39.6 92.316 42C86.135 41.8 81.6488 39 77.8605 35C77.7608 35.1 77.6611 35.2 77.5614 35.3C78.7577 36.9 80.0537 38.4 81.4494 40.2C74.5706 39.4 70.3835 35.1 66.296 30.6C66.1964 30.7 66.0967 30.8 65.997 30.9C67.8911 33.1 69.7853 35.2 71.6795 37.4C71.5798 37.5 71.4801 37.6 71.2807 37.7C69.7853 36.2 68.1902 34.8 66.6948 33.3C66.6948 33.3 66.6948 33.3 66.5951 33.3C67.6918 34.6 68.9878 35.9 70.0844 37.2C69.9847 37.3 69.7853 37.5 69.6856 37.6C67.4924 35.3 65.1994 33.1 63.1059 30.7C61.7102 28.9 60.1151 27.7 57.9218 27C53.4356 25.7 48.9494 24 44.0645 22.2C45.5599 21.5 46.6565 21.1 47.7531 20.6C47.7531 20.7 47.8528 20.7 47.8528 20.8C47.3543 21.2 46.9556 21.6 46.158 22.3C62.9065 28.3 80.1534 30.1 97.5997 30.2C91.2194 29.4 84.7393 28.9 78.4586 28C72.0783 27.1 65.7976 25.8 60.1151 23.8C64.6013 22.8 69.2868 21.9 74.1718 20.9Z" fill="#F4A100"/>
</g>
<defs>
<clipPath id="clip0_319_5265">
<rect width="130" height="42" fill="white"/>
</clipPath>
</defs>
</svg>
