<svg width="185" height="47" viewBox="0 0 185 47" fill="none" xmlns="http://www.w3.org/2000/svg">
<path d="M56.852 43.8737C56.1053 43.8737 55.4147 43.7524 54.78 43.5097C54.1547 43.2577 53.6087 42.9077 53.142 42.4597C52.6847 42.0024 52.3253 41.4704 52.064 40.8637C51.8027 40.2571 51.672 39.5897 51.672 38.8617C51.672 38.1337 51.8027 37.4664 52.064 36.8597C52.3253 36.2531 52.6893 35.7257 53.156 35.2777C53.6227 34.8204 54.1687 34.4704 54.794 34.2277C55.4287 33.9757 56.1193 33.8497 56.866 33.8497C57.622 33.8497 58.3173 33.9804 58.952 34.2417C59.596 34.4937 60.142 34.8717 60.59 35.3757L59.68 36.2577C59.3067 35.8657 58.8867 35.5764 58.42 35.3897C57.9533 35.1937 57.454 35.0957 56.922 35.0957C56.3713 35.0957 55.858 35.1891 55.382 35.3757C54.9153 35.5624 54.5093 35.8237 54.164 36.1597C53.8187 36.4957 53.548 36.8971 53.352 37.3637C53.1653 37.8211 53.072 38.3204 53.072 38.8617C53.072 39.4031 53.1653 39.9071 53.352 40.3737C53.548 40.8311 53.8187 41.2277 54.164 41.5637C54.5093 41.8997 54.9153 42.1611 55.382 42.3477C55.858 42.5344 56.3713 42.6277 56.922 42.6277C57.454 42.6277 57.9533 42.5344 58.42 42.3477C58.8867 42.1517 59.3067 41.8531 59.68 41.4517L60.59 42.3337C60.142 42.8377 59.596 43.2204 58.952 43.4817C58.3173 43.7431 57.6173 43.8737 56.852 43.8737ZM63.2312 43.7617V33.3737H64.5752V43.7617H63.2312ZM72.5873 43.7617V42.1937L72.5173 41.8997V39.2257C72.5173 38.6564 72.3493 38.2177 72.0133 37.9097C71.6867 37.5924 71.192 37.4337 70.5293 37.4337C70.0907 37.4337 69.6613 37.5084 69.2413 37.6577C68.8213 37.7977 68.4667 37.9891 68.1773 38.2317L67.6173 37.2237C68 36.9157 68.4573 36.6824 68.9893 36.5237C69.5307 36.3557 70.0953 36.2717 70.6833 36.2717C71.7007 36.2717 72.4847 36.5191 73.0353 37.0137C73.586 37.5084 73.8613 38.2644 73.8613 39.2817V43.7617H72.5873ZM70.1513 43.8457C69.6007 43.8457 69.1153 43.7524 68.6953 43.5657C68.2847 43.3791 67.9673 43.1224 67.7433 42.7957C67.5193 42.4597 67.4073 42.0817 67.4073 41.6617C67.4073 41.2604 67.5007 40.8964 67.6873 40.5697C67.8833 40.2431 68.196 39.9817 68.6253 39.7857C69.064 39.5897 69.652 39.4917 70.3893 39.4917H72.7413V40.4577H70.4453C69.7733 40.4577 69.3207 40.5697 69.0873 40.7937C68.854 41.0177 68.7373 41.2884 68.7373 41.6057C68.7373 41.9697 68.882 42.2637 69.1713 42.4877C69.4607 42.7024 69.862 42.8097 70.3753 42.8097C70.8793 42.8097 71.318 42.6977 71.6913 42.4737C72.074 42.2497 72.3493 41.9231 72.5173 41.4937L72.7833 42.4177C72.606 42.8564 72.2933 43.2064 71.8453 43.4677C71.3973 43.7197 70.8327 43.8457 70.1513 43.8457ZM79.3165 43.8457C78.7005 43.8457 78.1125 43.7617 77.5525 43.5937C77.0019 43.4257 76.5679 43.2204 76.2505 42.9777L76.8105 41.9137C77.1279 42.1284 77.5199 42.3104 77.9865 42.4597C78.4532 42.6091 78.9292 42.6837 79.4145 42.6837C80.0399 42.6837 80.4879 42.5951 80.7585 42.4177C81.0385 42.2404 81.1785 41.9931 81.1785 41.6757C81.1785 41.4424 81.0945 41.2604 80.9265 41.1297C80.7585 40.9991 80.5345 40.9011 80.2545 40.8357C79.9839 40.7704 79.6805 40.7144 79.3445 40.6677C79.0085 40.6117 78.6725 40.5464 78.3365 40.4717C78.0005 40.3877 77.6925 40.2757 77.4125 40.1357C77.1325 39.9864 76.9085 39.7857 76.7405 39.5337C76.5725 39.2724 76.4885 38.9271 76.4885 38.4977C76.4885 38.0497 76.6145 37.6577 76.8665 37.3217C77.1185 36.9857 77.4732 36.7291 77.9305 36.5517C78.3972 36.3651 78.9479 36.2717 79.5825 36.2717C80.0679 36.2717 80.5579 36.3324 81.0525 36.4537C81.5565 36.5657 81.9672 36.7291 82.2845 36.9437L81.7105 38.0077C81.3745 37.7837 81.0245 37.6297 80.6605 37.5457C80.2965 37.4617 79.9325 37.4197 79.5685 37.4197C78.9805 37.4197 78.5419 37.5177 78.2525 37.7137C77.9632 37.9004 77.8185 38.1431 77.8185 38.4417C77.8185 38.6937 77.9025 38.8897 78.0705 39.0297C78.2479 39.1604 78.4719 39.2631 78.7425 39.3377C79.0225 39.4124 79.3305 39.4777 79.6665 39.5337C80.0025 39.5804 80.3385 39.6457 80.6745 39.7297C81.0105 39.8044 81.3139 39.9117 81.5845 40.0517C81.8645 40.1917 82.0885 40.3877 82.2565 40.6397C82.4339 40.8917 82.5225 41.2277 82.5225 41.6477C82.5225 42.0957 82.3919 42.4831 82.1305 42.8097C81.8692 43.1364 81.5005 43.3931 81.0245 43.5797C80.5485 43.7571 79.9792 43.8457 79.3165 43.8457ZM87.1702 43.8457C86.5542 43.8457 85.9662 43.7617 85.4062 43.5937C84.8555 43.4257 84.4215 43.2204 84.1042 42.9777L84.6642 41.9137C84.9815 42.1284 85.3735 42.3104 85.8402 42.4597C86.3069 42.6091 86.7829 42.6837 87.2682 42.6837C87.8935 42.6837 88.3415 42.5951 88.6122 42.4177C88.8922 42.2404 89.0322 41.9931 89.0322 41.6757C89.0322 41.4424 88.9482 41.2604 88.7802 41.1297C88.6122 40.9991 88.3882 40.9011 88.1082 40.8357C87.8375 40.7704 87.5342 40.7144 87.1982 40.6677C86.8622 40.6117 86.5262 40.5464 86.1902 40.4717C85.8542 40.3877 85.5462 40.2757 85.2662 40.1357C84.9862 39.9864 84.7622 39.7857 84.5942 39.5337C84.4262 39.2724 84.3422 38.9271 84.3422 38.4977C84.3422 38.0497 84.4682 37.6577 84.7202 37.3217C84.9722 36.9857 85.3269 36.7291 85.7842 36.5517C86.2509 36.3651 86.8015 36.2717 87.4362 36.2717C87.9215 36.2717 88.4115 36.3324 88.9062 36.4537C89.4102 36.5657 89.8209 36.7291 90.1382 36.9437L89.5642 38.0077C89.2282 37.7837 88.8782 37.6297 88.5142 37.5457C88.1502 37.4617 87.7862 37.4197 87.4222 37.4197C86.8342 37.4197 86.3955 37.5177 86.1062 37.7137C85.8169 37.9004 85.6722 38.1431 85.6722 38.4417C85.6722 38.6937 85.7562 38.8897 85.9242 39.0297C86.1015 39.1604 86.3255 39.2631 86.5962 39.3377C86.8762 39.4124 87.1842 39.4777 87.5202 39.5337C87.8562 39.5804 88.1922 39.6457 88.5282 39.7297C88.8642 39.8044 89.1675 39.9117 89.4382 40.0517C89.7182 40.1917 89.9422 40.3877 90.1102 40.6397C90.2875 40.8917 90.3762 41.2277 90.3762 41.6477C90.3762 42.0957 90.2455 42.4831 89.9842 42.8097C89.7229 43.1364 89.3542 43.3931 88.8782 43.5797C88.4022 43.7571 87.8329 43.8457 87.1702 43.8457ZM92.8959 43.7617V36.3417H94.2399V43.7617H92.8959ZM93.5679 34.9137C93.3065 34.9137 93.0872 34.8297 92.9099 34.6617C92.7419 34.4937 92.6579 34.2884 92.6579 34.0457C92.6579 33.7937 92.7419 33.5837 92.9099 33.4157C93.0872 33.2477 93.3065 33.1637 93.5679 33.1637C93.8292 33.1637 94.0439 33.2477 94.2119 33.4157C94.3892 33.5744 94.4779 33.7751 94.4779 34.0177C94.4779 34.2697 94.3939 34.4844 94.2259 34.6617C94.0579 34.8297 93.8385 34.9137 93.5679 34.9137ZM97.842 43.7617V35.6837C97.842 34.9557 98.052 34.3771 98.472 33.9477C98.9014 33.5091 99.508 33.2897 100.292 33.2897C100.581 33.2897 100.857 33.3271 101.118 33.4017C101.389 33.4671 101.617 33.5744 101.804 33.7237L101.398 34.7457C101.258 34.6337 101.099 34.5497 100.922 34.4937C100.745 34.4284 100.558 34.3957 100.362 34.3957C99.97 34.3957 99.6714 34.5077 99.466 34.7317C99.2607 34.9464 99.158 35.2684 99.158 35.6977V36.6917L99.186 37.3077V43.7617H97.842ZM96.582 37.4477V36.3417H101.314V37.4477H96.582ZM102.588 43.7617V36.3417H103.932V43.7617H102.588ZM103.26 34.9137C102.999 34.9137 102.779 34.8297 102.602 34.6617C102.434 34.4937 102.35 34.2884 102.35 34.0457C102.35 33.7937 102.434 33.5837 102.602 33.4157C102.779 33.2477 102.999 33.1637 103.26 33.1637C103.521 33.1637 103.736 33.2477 103.904 33.4157C104.081 33.5744 104.17 33.7751 104.17 34.0177C104.17 34.2697 104.086 34.4844 103.918 34.6617C103.75 34.8297 103.531 34.9137 103.26 34.9137ZM110.636 43.8457C109.842 43.8457 109.142 43.6824 108.536 43.3557C107.938 43.0291 107.472 42.5811 107.136 42.0117C106.809 41.4424 106.646 40.7891 106.646 40.0517C106.646 39.3144 106.804 38.6611 107.122 38.0917C107.448 37.5224 107.892 37.0791 108.452 36.7617C109.021 36.4351 109.66 36.2717 110.37 36.2717C111.088 36.2717 111.723 36.4304 112.274 36.7477C112.824 37.0651 113.254 37.5131 113.562 38.0917C113.879 38.6611 114.038 39.3284 114.038 40.0937C114.038 40.1497 114.033 40.2151 114.024 40.2897C114.024 40.3644 114.019 40.4344 114.01 40.4997H107.696V39.5337H113.31L112.764 39.8697C112.773 39.3937 112.675 38.9691 112.47 38.5957C112.264 38.2224 111.98 37.9331 111.616 37.7277C111.261 37.5131 110.846 37.4057 110.37 37.4057C109.903 37.4057 109.488 37.5131 109.124 37.7277C108.76 37.9331 108.475 38.2271 108.27 38.6097C108.064 38.9831 107.962 39.4124 107.962 39.8977V40.1217C107.962 40.6164 108.074 41.0597 108.298 41.4517C108.531 41.8344 108.853 42.1331 109.264 42.3477C109.674 42.5624 110.146 42.6697 110.678 42.6697C111.116 42.6697 111.513 42.5951 111.868 42.4457C112.232 42.2964 112.549 42.0724 112.82 41.7737L113.562 42.6417C113.226 43.0337 112.806 43.3324 112.302 43.5377C111.807 43.7431 111.252 43.8457 110.636 43.8457ZM119.81 43.8457C119.091 43.8457 118.447 43.6871 117.878 43.3697C117.318 43.0524 116.875 42.6091 116.548 42.0397C116.221 41.4704 116.058 40.8077 116.058 40.0517C116.058 39.2957 116.221 38.6377 116.548 38.0777C116.875 37.5084 117.318 37.0651 117.878 36.7477C118.447 36.4304 119.091 36.2717 119.81 36.2717C120.435 36.2717 121 36.4117 121.504 36.6917C122.008 36.9717 122.409 37.3917 122.708 37.9517C123.016 38.5117 123.17 39.2117 123.17 40.0517C123.17 40.8917 123.021 41.5917 122.722 42.1517C122.433 42.7117 122.036 43.1364 121.532 43.4257C121.028 43.7057 120.454 43.8457 119.81 43.8457ZM119.922 42.6697C120.389 42.6697 120.809 42.5624 121.182 42.3477C121.565 42.1331 121.863 41.8297 122.078 41.4377C122.302 41.0364 122.414 40.5744 122.414 40.0517C122.414 39.5197 122.302 39.0624 122.078 38.6797C121.863 38.2877 121.565 37.9844 121.182 37.7697C120.809 37.5551 120.389 37.4477 119.922 37.4477C119.446 37.4477 119.021 37.5551 118.648 37.7697C118.275 37.9844 117.976 38.2877 117.752 38.6797C117.528 39.0624 117.416 39.5197 117.416 40.0517C117.416 40.5744 117.528 41.0364 117.752 41.4377C117.976 41.8297 118.275 42.1331 118.648 42.3477C119.021 42.5624 119.446 42.6697 119.922 42.6697ZM122.456 43.7617V41.7597L122.54 40.0377L122.4 38.3157V33.3737H123.744V43.7617H122.456ZM131.923 43.7617V33.9617H133.323V42.5437H138.629V43.7617H131.923ZM140.879 43.7617V36.3417H142.223V43.7617H140.879ZM141.551 34.9137C141.29 34.9137 141.071 34.8297 140.893 34.6617C140.725 34.4937 140.641 34.2884 140.641 34.0457C140.641 33.7937 140.725 33.5837 140.893 33.4157C141.071 33.2477 141.29 33.1637 141.551 33.1637C141.813 33.1637 142.027 33.2477 142.195 33.4157C142.373 33.5744 142.461 33.7751 142.461 34.0177C142.461 34.2697 142.377 34.4844 142.209 34.6617C142.041 34.8297 141.822 34.9137 141.551 34.9137ZM147.757 43.8457C147.141 43.8457 146.553 43.7617 145.993 43.5937C145.443 43.4257 145.009 43.2204 144.691 42.9777L145.251 41.9137C145.569 42.1284 145.961 42.3104 146.427 42.4597C146.894 42.6091 147.37 42.6837 147.855 42.6837C148.481 42.6837 148.929 42.5951 149.199 42.4177C149.479 42.2404 149.619 41.9931 149.619 41.6757C149.619 41.4424 149.535 41.2604 149.367 41.1297C149.199 40.9991 148.975 40.9011 148.695 40.8357C148.425 40.7704 148.121 40.7144 147.785 40.6677C147.449 40.6117 147.113 40.5464 146.777 40.4717C146.441 40.3877 146.133 40.2757 145.853 40.1357C145.573 39.9864 145.349 39.7857 145.181 39.5337C145.013 39.2724 144.929 38.9271 144.929 38.4977C144.929 38.0497 145.055 37.6577 145.307 37.3217C145.559 36.9857 145.914 36.7291 146.371 36.5517C146.838 36.3651 147.389 36.2717 148.023 36.2717C148.509 36.2717 148.999 36.3324 149.493 36.4537C149.997 36.5657 150.408 36.7291 150.725 36.9437L150.151 38.0077C149.815 37.7837 149.465 37.6297 149.101 37.5457C148.737 37.4617 148.373 37.4197 148.009 37.4197C147.421 37.4197 146.983 37.5177 146.693 37.7137C146.404 37.9004 146.259 38.1431 146.259 38.4417C146.259 38.6937 146.343 38.8897 146.511 39.0297C146.689 39.1604 146.913 39.2631 147.183 39.3377C147.463 39.4124 147.771 39.4777 148.107 39.5337C148.443 39.5804 148.779 39.6457 149.115 39.7297C149.451 39.8044 149.755 39.9117 150.025 40.0517C150.305 40.1917 150.529 40.3877 150.697 40.6397C150.875 40.8917 150.963 41.2277 150.963 41.6477C150.963 42.0957 150.833 42.4831 150.571 42.8097C150.31 43.1364 149.941 43.3931 149.465 43.5797C148.989 43.7571 148.42 43.8457 147.757 43.8457ZM156.031 43.8457C155.284 43.8457 154.706 43.6451 154.295 43.2437C153.884 42.8424 153.679 42.2684 153.679 41.5217V34.7177H155.023V41.4657C155.023 41.8671 155.121 42.1751 155.317 42.3897C155.522 42.6044 155.812 42.7117 156.185 42.7117C156.605 42.7117 156.955 42.5951 157.235 42.3617L157.655 43.3277C157.45 43.5051 157.202 43.6357 156.913 43.7197C156.633 43.8037 156.339 43.8457 156.031 43.8457ZM152.419 37.4477V36.3417H157.151V37.4477H152.419ZM160.12 43.7617V36.3417H161.464V43.7617H160.12ZM160.792 34.9137C160.531 34.9137 160.311 34.8297 160.134 34.6617C159.966 34.4937 159.882 34.2884 159.882 34.0457C159.882 33.7937 159.966 33.5837 160.134 33.4157C160.311 33.2477 160.531 33.1637 160.792 33.1637C161.053 33.1637 161.268 33.2477 161.436 33.4157C161.613 33.5744 161.702 33.7751 161.702 34.0177C161.702 34.2697 161.618 34.4844 161.45 34.6617C161.282 34.8297 161.063 34.9137 160.792 34.9137ZM168.832 36.2717C169.439 36.2717 169.971 36.3884 170.428 36.6217C170.895 36.8551 171.259 37.2097 171.52 37.6857C171.781 38.1617 171.912 38.7637 171.912 39.4917V43.7617H170.568V39.6457C170.568 38.9271 170.391 38.3857 170.036 38.0217C169.691 37.6577 169.201 37.4757 168.566 37.4757C168.09 37.4757 167.675 37.5691 167.32 37.7557C166.965 37.9424 166.69 38.2177 166.494 38.5817C166.307 38.9457 166.214 39.3984 166.214 39.9397V43.7617H164.87V36.3417H166.158V38.3437L165.948 37.8117C166.191 37.3264 166.564 36.9484 167.068 36.6777C167.572 36.4071 168.16 36.2717 168.832 36.2717ZM178.487 46.5617C177.806 46.5617 177.143 46.4637 176.499 46.2677C175.865 46.0811 175.347 45.8104 174.945 45.4557L175.589 44.4197C175.935 44.7184 176.359 44.9517 176.863 45.1197C177.367 45.2971 177.895 45.3857 178.445 45.3857C179.323 45.3857 179.967 45.1804 180.377 44.7697C180.788 44.3591 180.993 43.7337 180.993 42.8937V41.3257L181.133 39.8557L181.063 38.3717V36.3417H182.337V42.7537C182.337 44.0604 182.011 45.0217 181.357 45.6377C180.704 46.2537 179.747 46.5617 178.487 46.5617ZM178.319 43.4537C177.601 43.4537 176.957 43.3044 176.387 43.0057C175.827 42.6977 175.379 42.2731 175.043 41.7317C174.717 41.1904 174.553 40.5651 174.553 39.8557C174.553 39.1371 174.717 38.5117 175.043 37.9797C175.379 37.4384 175.827 37.0184 176.387 36.7197C176.957 36.4211 177.601 36.2717 178.319 36.2717C178.954 36.2717 179.533 36.4024 180.055 36.6637C180.578 36.9157 180.993 37.3077 181.301 37.8397C181.619 38.3717 181.777 39.0437 181.777 39.8557C181.777 40.6584 181.619 41.3257 181.301 41.8577C180.993 42.3897 180.578 42.7911 180.055 43.0617C179.533 43.3231 178.954 43.4537 178.319 43.4537ZM178.473 42.2777C178.968 42.2777 179.407 42.1751 179.789 41.9697C180.172 41.7644 180.471 41.4797 180.685 41.1157C180.909 40.7517 181.021 40.3317 181.021 39.8557C181.021 39.3797 180.909 38.9597 180.685 38.5957C180.471 38.2317 180.172 37.9517 179.789 37.7557C179.407 37.5504 178.968 37.4477 178.473 37.4477C177.979 37.4477 177.535 37.5504 177.143 37.7557C176.761 37.9517 176.457 38.2317 176.233 38.5957C176.019 38.9597 175.911 39.3797 175.911 39.8557C175.911 40.3317 176.019 40.7517 176.233 41.1157C176.457 41.4797 176.761 41.7644 177.143 41.9697C177.535 42.1751 177.979 42.2777 178.473 42.2777Z" fill="#B6B2C5"/>
<path d="M53.656 25.7617V3.36172H63.832C66.264 3.36172 68.408 3.83105 70.264 4.76972C72.12 5.68705 73.5707 6.97772 74.616 8.64172C75.6613 10.3057 76.184 12.2791 76.184 14.5617C76.184 16.8231 75.6613 18.7964 74.616 20.4817C73.5707 22.1457 72.12 23.4471 70.264 24.3857C68.408 25.3031 66.264 25.7617 63.832 25.7617H53.656ZM58.84 21.5057H63.576C65.0693 21.5057 66.36 21.2284 67.448 20.6737C68.5573 20.0977 69.4107 19.2871 70.008 18.2417C70.6267 17.1964 70.936 15.9697 70.936 14.5617C70.936 13.1324 70.6267 11.9057 70.008 10.8817C69.4107 9.83639 68.5573 9.03639 67.448 8.48172C66.36 7.90572 65.0693 7.61772 63.576 7.61772H58.84V21.5057ZM87.9335 26.0177C86.0988 26.0177 84.4668 25.6337 83.0375 24.8657C81.6295 24.0977 80.5095 23.0524 79.6775 21.7297C78.8668 20.3857 78.4615 18.8604 78.4615 17.1537C78.4615 15.4257 78.8668 13.9004 79.6775 12.5777C80.5095 11.2337 81.6295 10.1884 83.0375 9.44172C84.4668 8.67372 86.0988 8.28972 87.9335 8.28972C89.7468 8.28972 91.3682 8.67372 92.7975 9.44172C94.2268 10.1884 95.3468 11.2231 96.1575 12.5457C96.9682 13.8684 97.3735 15.4044 97.3735 17.1537C97.3735 18.8604 96.9682 20.3857 96.1575 21.7297C95.3468 23.0524 94.2268 24.0977 92.7975 24.8657C91.3682 25.6337 89.7468 26.0177 87.9335 26.0177ZM87.9335 21.9217C88.7655 21.9217 89.5122 21.7297 90.1735 21.3457C90.8348 20.9617 91.3575 20.4177 91.7415 19.7137C92.1255 18.9884 92.3175 18.1351 92.3175 17.1537C92.3175 16.1511 92.1255 15.2977 91.7415 14.5937C91.3575 13.8897 90.8348 13.3457 90.1735 12.9617C89.5122 12.5777 88.7655 12.3857 87.9335 12.3857C87.1015 12.3857 86.3548 12.5777 85.6935 12.9617C85.0322 13.3457 84.4988 13.8897 84.0935 14.5937C83.7095 15.2977 83.5175 16.1511 83.5175 17.1537C83.5175 18.1351 83.7095 18.9884 84.0935 19.7137C84.4988 20.4177 85.0322 20.9617 85.6935 21.3457C86.3548 21.7297 87.1015 21.9217 87.9335 21.9217ZM109.03 26.0177C107.174 26.0177 105.521 25.6444 104.07 24.8977C102.62 24.1297 101.478 23.0737 100.646 21.7297C99.8356 20.3857 99.4303 18.8604 99.4303 17.1537C99.4303 15.4257 99.8356 13.9004 100.646 12.5777C101.478 11.2337 102.62 10.1884 104.07 9.44172C105.521 8.67372 107.174 8.28972 109.03 8.28972C110.844 8.28972 112.422 8.67372 113.766 9.44172C115.11 10.1884 116.102 11.2657 116.742 12.6737L112.87 14.7537C112.422 13.9431 111.857 13.3457 111.174 12.9617C110.513 12.5777 109.788 12.3857 108.998 12.3857C108.145 12.3857 107.377 12.5777 106.694 12.9617C106.012 13.3457 105.468 13.8897 105.062 14.5937C104.678 15.2977 104.486 16.1511 104.486 17.1537C104.486 18.1564 104.678 19.0097 105.062 19.7137C105.468 20.4177 106.012 20.9617 106.694 21.3457C107.377 21.7297 108.145 21.9217 108.998 21.9217C109.788 21.9217 110.513 21.7404 111.174 21.3777C111.857 20.9937 112.422 20.3857 112.87 19.5537L116.742 21.6657C116.102 23.0524 115.11 24.1297 113.766 24.8977C112.422 25.6444 110.844 26.0177 109.03 26.0177ZM120.475 25.7617V8.16172C120.475 6.22038 121.051 4.67372 122.203 3.52172C123.355 2.34838 124.997 1.76172 127.131 1.76172C127.856 1.76172 128.549 1.83638 129.211 1.98572C129.893 2.13505 130.469 2.36972 130.939 2.68972L129.627 6.30572C129.349 6.11372 129.04 5.96438 128.699 5.85772C128.357 5.75105 127.995 5.69772 127.611 5.69772C126.885 5.69772 126.32 5.91105 125.915 6.33772C125.531 6.74305 125.339 7.36172 125.339 8.19372V9.79372L125.467 11.9377V25.7617H120.475ZM117.819 12.7697V8.92972H129.755V12.7697H117.819ZM132.571 25.7617V8.54572H137.562V25.7617H132.571ZM135.067 6.14572C134.149 6.14572 133.403 5.87905 132.827 5.34572C132.251 4.81238 131.963 4.15105 131.963 3.36172C131.963 2.57238 132.251 1.91105 132.827 1.37772C133.403 0.844384 134.149 0.577717 135.067 0.577717C135.984 0.577717 136.731 0.833717 137.307 1.34572C137.883 1.83639 138.171 2.47639 138.171 3.26572C138.171 4.09772 137.883 4.79105 137.307 5.34572C136.752 5.87905 136.005 6.14572 135.067 6.14572ZM152.643 8.28972C154.008 8.28972 155.224 8.56705 156.291 9.12172C157.379 9.65505 158.232 10.4871 158.851 11.6177C159.47 12.7271 159.779 14.1564 159.779 15.9057V25.7617H154.787V16.6737C154.787 15.2871 154.478 14.2631 153.859 13.6017C153.262 12.9404 152.408 12.6097 151.299 12.6097C150.51 12.6097 149.795 12.7804 149.155 13.1217C148.536 13.4417 148.046 13.9431 147.683 14.6257C147.342 15.3084 147.171 16.1831 147.171 17.2497V25.7617H142.179V8.54572H146.947V13.3137L146.051 11.8737C146.67 10.7217 147.555 9.83638 148.707 9.21772C149.859 8.59905 151.171 8.28972 152.643 8.28972ZM171.821 26.0177C170.2 26.0177 168.738 25.6551 167.437 24.9297C166.136 24.1831 165.101 23.1484 164.333 21.8257C163.586 20.5031 163.213 18.9457 163.213 17.1537C163.213 15.3404 163.586 13.7724 164.333 12.4497C165.101 11.1271 166.136 10.1031 167.437 9.37772C168.738 8.65239 170.2 8.28972 171.821 8.28972C173.272 8.28972 174.541 8.60972 175.629 9.24972C176.717 9.88972 177.56 10.8604 178.157 12.1617C178.754 13.4631 179.053 15.1271 179.053 17.1537C179.053 19.1591 178.765 20.8231 178.189 22.1457C177.613 23.4471 176.781 24.4177 175.693 25.0577C174.626 25.6977 173.336 26.0177 171.821 26.0177ZM172.685 21.9217C173.496 21.9217 174.232 21.7297 174.893 21.3457C175.554 20.9617 176.077 20.4177 176.461 19.7137C176.866 18.9884 177.069 18.1351 177.069 17.1537C177.069 16.1511 176.866 15.2977 176.461 14.5937C176.077 13.8897 175.554 13.3457 174.893 12.9617C174.232 12.5777 173.496 12.3857 172.685 12.3857C171.853 12.3857 171.106 12.5777 170.445 12.9617C169.784 13.3457 169.25 13.8897 168.845 14.5937C168.461 15.2977 168.269 16.1511 168.269 17.1537C168.269 18.1351 168.461 18.9884 168.845 19.7137C169.25 20.4177 169.784 20.9617 170.445 21.3457C171.106 21.7297 171.853 21.9217 172.685 21.9217ZM177.197 25.7617V22.2417L177.293 17.1217L176.973 12.0337V2.01772H181.965V25.7617H177.197Z" fill="white"/>
<path d="M53.656 25.7617V3.36172H63.832C66.264 3.36172 68.408 3.83105 70.264 4.76972C72.12 5.68705 73.5707 6.97772 74.616 8.64172C75.6613 10.3057 76.184 12.2791 76.184 14.5617C76.184 16.8231 75.6613 18.7964 74.616 20.4817C73.5707 22.1457 72.12 23.4471 70.264 24.3857C68.408 25.3031 66.264 25.7617 63.832 25.7617H53.656ZM58.84 21.5057H63.576C65.0693 21.5057 66.36 21.2284 67.448 20.6737C68.5573 20.0977 69.4107 19.2871 70.008 18.2417C70.6267 17.1964 70.936 15.9697 70.936 14.5617C70.936 13.1324 70.6267 11.9057 70.008 10.8817C69.4107 9.83639 68.5573 9.03639 67.448 8.48172C66.36 7.90572 65.0693 7.61772 63.576 7.61772H58.84V21.5057ZM87.9335 26.0177C86.0988 26.0177 84.4668 25.6337 83.0375 24.8657C81.6295 24.0977 80.5095 23.0524 79.6775 21.7297C78.8668 20.3857 78.4615 18.8604 78.4615 17.1537C78.4615 15.4257 78.8668 13.9004 79.6775 12.5777C80.5095 11.2337 81.6295 10.1884 83.0375 9.44172C84.4668 8.67372 86.0988 8.28972 87.9335 8.28972C89.7468 8.28972 91.3682 8.67372 92.7975 9.44172C94.2268 10.1884 95.3468 11.2231 96.1575 12.5457C96.9682 13.8684 97.3735 15.4044 97.3735 17.1537C97.3735 18.8604 96.9682 20.3857 96.1575 21.7297C95.3468 23.0524 94.2268 24.0977 92.7975 24.8657C91.3682 25.6337 89.7468 26.0177 87.9335 26.0177ZM87.9335 21.9217C88.7655 21.9217 89.5122 21.7297 90.1735 21.3457C90.8348 20.9617 91.3575 20.4177 91.7415 19.7137C92.1255 18.9884 92.3175 18.1351 92.3175 17.1537C92.3175 16.1511 92.1255 15.2977 91.7415 14.5937C91.3575 13.8897 90.8348 13.3457 90.1735 12.9617C89.5122 12.5777 88.7655 12.3857 87.9335 12.3857C87.1015 12.3857 86.3548 12.5777 85.6935 12.9617C85.0322 13.3457 84.4988 13.8897 84.0935 14.5937C83.7095 15.2977 83.5175 16.1511 83.5175 17.1537C83.5175 18.1351 83.7095 18.9884 84.0935 19.7137C84.4988 20.4177 85.0322 20.9617 85.6935 21.3457C86.3548 21.7297 87.1015 21.9217 87.9335 21.9217ZM109.03 26.0177C107.174 26.0177 105.521 25.6444 104.07 24.8977C102.62 24.1297 101.478 23.0737 100.646 21.7297C99.8356 20.3857 99.4303 18.8604 99.4303 17.1537C99.4303 15.4257 99.8356 13.9004 100.646 12.5777C101.478 11.2337 102.62 10.1884 104.07 9.44172C105.521 8.67372 107.174 8.28972 109.03 8.28972C110.844 8.28972 112.422 8.67372 113.766 9.44172C115.11 10.1884 116.102 11.2657 116.742 12.6737L112.87 14.7537C112.422 13.9431 111.857 13.3457 111.174 12.9617C110.513 12.5777 109.788 12.3857 108.998 12.3857C108.145 12.3857 107.377 12.5777 106.694 12.9617C106.012 13.3457 105.468 13.8897 105.062 14.5937C104.678 15.2977 104.486 16.1511 104.486 17.1537C104.486 18.1564 104.678 19.0097 105.062 19.7137C105.468 20.4177 106.012 20.9617 106.694 21.3457C107.377 21.7297 108.145 21.9217 108.998 21.9217C109.788 21.9217 110.513 21.7404 111.174 21.3777C111.857 20.9937 112.422 20.3857 112.87 19.5537L116.742 21.6657C116.102 23.0524 115.11 24.1297 113.766 24.8977C112.422 25.6444 110.844 26.0177 109.03 26.0177ZM120.475 25.7617V8.16172C120.475 6.22038 121.051 4.67372 122.203 3.52172C123.355 2.34838 124.997 1.76172 127.131 1.76172C127.856 1.76172 128.549 1.83638 129.211 1.98572C129.893 2.13505 130.469 2.36972 130.939 2.68972L129.627 6.30572C129.349 6.11372 129.04 5.96438 128.699 5.85772C128.357 5.75105 127.995 5.69772 127.611 5.69772C126.885 5.69772 126.32 5.91105 125.915 6.33772C125.531 6.74305 125.339 7.36172 125.339 8.19372V9.79372L125.467 11.9377V25.7617H120.475ZM117.819 12.7697V8.92972H129.755V12.7697H117.819ZM132.571 25.7617V8.54572H137.562V25.7617H132.571ZM135.067 6.14572C134.149 6.14572 133.403 5.87905 132.827 5.34572C132.251 4.81238 131.963 4.15105 131.963 3.36172C131.963 2.57238 132.251 1.91105 132.827 1.37772C133.403 0.844384 134.149 0.577717 135.067 0.577717C135.984 0.577717 136.731 0.833717 137.307 1.34572C137.883 1.83639 138.171 2.47639 138.171 3.26572C138.171 4.09772 137.883 4.79105 137.307 5.34572C136.752 5.87905 136.005 6.14572 135.067 6.14572ZM152.643 8.28972C154.008 8.28972 155.224 8.56705 156.291 9.12172C157.379 9.65505 158.232 10.4871 158.851 11.6177C159.47 12.7271 159.779 14.1564 159.779 15.9057V25.7617H154.787V16.6737C154.787 15.2871 154.478 14.2631 153.859 13.6017C153.262 12.9404 152.408 12.6097 151.299 12.6097C150.51 12.6097 149.795 12.7804 149.155 13.1217C148.536 13.4417 148.046 13.9431 147.683 14.6257C147.342 15.3084 147.171 16.1831 147.171 17.2497V25.7617H142.179V8.54572H146.947V13.3137L146.051 11.8737C146.67 10.7217 147.555 9.83638 148.707 9.21772C149.859 8.59905 151.171 8.28972 152.643 8.28972ZM171.821 26.0177C170.2 26.0177 168.738 25.6551 167.437 24.9297C166.136 24.1831 165.101 23.1484 164.333 21.8257C163.586 20.5031 163.213 18.9457 163.213 17.1537C163.213 15.3404 163.586 13.7724 164.333 12.4497C165.101 11.1271 166.136 10.1031 167.437 9.37772C168.738 8.65239 170.2 8.28972 171.821 8.28972C173.272 8.28972 174.541 8.60972 175.629 9.24972C176.717 9.88972 177.56 10.8604 178.157 12.1617C178.754 13.4631 179.053 15.1271 179.053 17.1537C179.053 19.1591 178.765 20.8231 178.189 22.1457C177.613 23.4471 176.781 24.4177 175.693 25.0577C174.626 25.6977 173.336 26.0177 171.821 26.0177ZM172.685 21.9217C173.496 21.9217 174.232 21.7297 174.893 21.3457C175.554 20.9617 176.077 20.4177 176.461 19.7137C176.866 18.9884 177.069 18.1351 177.069 17.1537C177.069 16.1511 176.866 15.2977 176.461 14.5937C176.077 13.8897 175.554 13.3457 174.893 12.9617C174.232 12.5777 173.496 12.3857 172.685 12.3857C171.853 12.3857 171.106 12.5777 170.445 12.9617C169.784 13.3457 169.25 13.8897 168.845 14.5937C168.461 15.2977 168.269 16.1511 168.269 17.1537C168.269 18.1351 168.461 18.9884 168.845 19.7137C169.25 20.4177 169.784 20.9617 170.445 21.3457C171.106 21.7297 171.853 21.9217 172.685 21.9217ZM177.197 25.7617V22.2417L177.293 17.1217L176.973 12.0337V2.01772H181.965V25.7617H177.197Z" fill="white"/>
<path d="M40 24.7617C40 35.2551 31.4934 43.7617 21 43.7617C10.5066 43.7617 2 35.2551 2 24.7617C2 14.2683 10.5066 5.76172 21 5.76172C31.4934 5.76172 40 14.2683 40 24.7617Z" fill="#3C19E8"/>
<path d="M36.3468 37.8647L42.5539 44.0686C42.8434 44.3683 43.0036 44.7697 42.9999 45.1864C42.9963 45.6031 42.8292 46.0016 42.5346 46.2963C42.2399 46.5909 41.8413 46.758 41.4247 46.7617C41.008 46.7653 40.6066 46.6051 40.3069 46.3156L34.0998 40.1085C30.0435 43.5837 24.7989 45.3529 19.4665 45.0446C14.134 44.7364 9.1282 42.3747 5.49943 38.4553C1.87067 34.5358 -0.0989676 29.3632 0.00383063 24.0228C0.106629 18.6824 2.27387 13.5894 6.05078 9.8125C9.8277 6.03559 14.9207 3.86835 20.2611 3.76555C25.6014 3.66275 30.7741 5.63239 34.6935 9.26115C38.613 12.8899 40.9746 17.8957 41.2829 23.2282C41.5911 28.5607 39.822 33.8053 36.3468 37.8615V37.8647ZM20.6589 41.901C25.295 41.901 29.7412 40.0594 33.0194 36.7811C36.2976 33.5029 38.1393 29.0567 38.1393 24.4206C38.1393 19.7845 36.2976 15.3383 33.0194 12.0601C29.7412 8.78191 25.295 6.94023 20.6589 6.94023C16.0228 6.94023 11.5766 8.78191 8.2984 12.0601C5.02019 15.3383 3.17851 19.7845 3.17851 24.4206C3.17851 29.0567 5.02019 33.5029 8.2984 36.7811C11.5766 40.0594 16.0228 41.901 20.6589 41.901Z" fill="#3C19E8"/>
<path d="M6 16.2617C6.95455 13.7826 9.5 9.26172 16 8.76172" stroke="white"/>
<path d="M31.3332 37.6036C30.3708 39.1662 27 42.2617 20.9994 41.2618" stroke="white"/>
<path d="M26.875 22.1367H22.625V17.8867C22.625 17.3231 22.4011 16.7826 22.0026 16.3841C21.6041 15.9856 21.0636 15.7617 20.5 15.7617C19.9364 15.7617 19.3959 15.9856 18.9974 16.3841C18.5989 16.7826 18.375 17.3231 18.375 17.8867L18.4504 22.1367H14.125C13.5614 22.1367 13.0209 22.3606 12.6224 22.7591C12.2239 23.1576 12 23.6981 12 24.2617C12 24.8253 12.2239 25.3658 12.6224 25.7643C13.0209 26.1628 13.5614 26.3867 14.125 26.3867L18.4504 26.3113L18.375 30.6367C18.375 31.2003 18.5989 31.7408 18.9974 32.1393C19.3959 32.5378 19.9364 32.7617 20.5 32.7617C21.0636 32.7617 21.6041 32.5378 22.0026 32.1393C22.4011 31.7408 22.625 31.2003 22.625 30.6367V26.3113L26.875 26.3867C27.4386 26.3867 27.9791 26.1628 28.3776 25.7643C28.7761 25.3658 29 24.8253 29 24.2617C29 23.6981 28.7761 23.1576 28.3776 22.7591C27.9791 22.3606 27.4386 22.1367 26.875 22.1367Z" fill="white"/>
</svg>
