<svg width="147" height="48" viewBox="0 0 147 48" fill="none" xmlns="http://www.w3.org/2000/svg">
<g clip-path="url(#clip0_411_1353)">
<path d="M12.7385 14.2857L3.94555 0.457153H0V25.6H5.52377V11.6572L10.8221 20.1143H14.5422L19.8405 11.6572V25.6H25.3643V0.457153H21.4187L12.7385 14.2857Z" fill="#01686F"/>
<path d="M47.2342 20.6857V22.7429L41.034 25.6H29.4229V0.457153H47.1215V5.25715H34.9466V10.4H45.9942V15.0857H34.9466V20.6857H47.2342Z" fill="#01686F"/>
<path d="M75.7549 0.457153V22.0572C73.8385 22.4 72.0348 22.8572 70.2311 23.2V11.6572L64.8201 20.1143H61.2127L55.8017 11.5429V18.7429L52.6452 20.2286C52.1943 20.4572 51.6307 20.6857 51.1797 20.9143C50.9543 21.0286 50.6161 21.1429 50.3906 21.2572V0.457153H54.3362L63.1291 14.2857L71.8093 0.457153H75.7549Z" fill="#01686F"/>
<path d="M103.599 7.88571C102.923 6.28571 102.021 4.91429 100.781 3.77143C99.6538 2.62857 98.1883 1.71429 96.6101 1.02857C95.1446 0.342857 93.3409 0 91.5372 0C89.6208 0 87.9298 0.342857 86.3516 1.02857C84.7734 1.6 83.4206 2.51429 82.2933 3.77143C81.166 4.91429 80.1515 6.28571 79.5878 7.88571C78.9114 9.48571 78.5732 11.2 78.5732 13.0286C78.5732 14.8571 78.9114 16.5714 79.5878 18.1714C80.0387 19.2 80.6024 20.1143 81.2788 21.0286C81.9551 20.9143 82.6315 20.8 83.3079 20.5714L84.5479 23.4286C85.9007 23.5429 87.1407 23.5429 88.4935 23.6571C91.6499 23.7714 94.6936 24 97.8501 24.1143H98.6392C99.4283 23.5429 100.217 22.9714 100.894 22.2857C102.021 21.1429 102.923 19.7714 103.599 18.1714C104.276 16.5714 104.614 14.8571 104.614 13.0286C104.614 11.2 104.276 9.37143 103.599 7.88571ZM97.9628 17.1429C97.3992 18.2857 96.4973 19.3143 95.37 19.8857C94.2427 20.5714 93.0027 20.9143 91.5372 20.9143C90.4099 20.9143 89.3953 20.6857 88.4935 20.3429C87.5917 20 86.8025 19.4286 86.1262 18.7429C85.4498 18.0571 84.9989 17.1429 84.6607 16.2286C84.3225 15.3143 84.097 14.1714 84.097 13.0286C84.097 11.4286 84.4352 10.0571 84.9989 8.91429C85.5625 7.77143 86.4643 6.85714 87.5916 6.17143C88.7189 5.48571 90.0717 5.14286 91.5372 5.14286C92.6645 5.14286 93.6791 5.37143 94.4682 5.71429C95.37 6.05714 96.1591 6.62857 96.8355 7.31429C97.5119 8 97.9628 8.8 98.301 9.82857C98.6392 10.7429 98.8647 11.8857 98.8647 13.0286C98.9774 14.5143 98.6392 15.8857 97.9628 17.1429Z" fill="#01686F"/>
<path d="M112.843 0.457153H107.319V25.6H112.843V0.457153Z" fill="#01686F"/>
<path d="M134.262 11.6571C134.938 10.5143 135.276 9.25712 135.276 7.77141C135.276 6.28569 134.938 5.02855 134.262 3.88569C133.585 2.74283 132.571 1.94283 131.331 1.25712C130.091 0.571406 128.625 0.342834 127.047 0.342834H116.901V25.4857H122.425V15.0857H122.989L129.076 23.6571C130.654 22.9714 132.233 22.2857 133.811 21.3714L128.963 14.8571C129.865 14.7428 130.542 14.5143 131.331 14.1714C132.571 13.7143 133.585 12.8 134.262 11.6571ZM128.963 10.1714C128.4 10.7428 127.498 11.0857 126.483 11.0857H122.538V4.79998H126.483C127.611 4.79998 128.4 5.14283 128.963 5.71426C129.527 6.28569 129.865 7.08569 129.865 7.99998C129.865 8.91426 129.527 9.59998 128.963 10.1714Z" fill="#01686F"/>
<path d="M83.8716 23.8857C82.4061 24.9143 80.9407 25.8286 79.8134 26.6286C85.5626 26.8571 91.65 27.2 97.6247 27.4286C97.6247 27.6571 97.6247 27.7714 97.6247 28C95.1446 28.3429 92.7773 28.8 90.2972 29.1429C90.2972 29.2571 90.2972 29.3714 90.2972 29.4857C93.9046 29.2571 97.512 28.9143 101.007 28.8C103.374 28.8 105.629 29.0286 107.996 29.3714C118.142 30.7429 127.724 29.1429 136.517 23.8857C136.629 23.8857 136.742 23.8857 136.967 23.7714C136.742 25.1429 136.517 26.5143 136.291 28.3429C137.982 25.8286 139.448 23.7714 140.8 21.7143C140.913 21.8286 141.026 21.8286 141.139 21.9429C140.913 22.6286 140.688 23.2 140.462 23.8857C140.575 24 140.575 24 140.688 24.1143C142.604 22.4 144.633 20.6857 146.55 18.9714C148.353 23.6571 143.844 29.9429 133.811 36.6857C135.615 36.6857 137.08 36.6857 138.433 36.6857C135.277 39.0857 131.895 40 123.665 40.5714C126.145 40.9143 128.513 41.3714 130.88 41.7143C128.062 44.2286 124.793 45.2571 120.509 44.5714C121.185 45.0286 121.636 45.3714 122.2 45.7143C112.28 50.2857 104.727 46.0571 97.8502 39.4286C98.752 43.0857 101.57 45.2571 104.389 48C97.3992 47.7714 92.3264 44.5714 88.0426 40C87.9299 40.1143 87.8172 40.2286 87.7045 40.3429C89.0572 42.1714 90.5227 43.8857 92.1009 45.9429C84.3225 45.0286 79.5879 40.1143 74.966 34.9714C74.8532 35.0857 74.7405 35.2 74.6278 35.3143C76.7696 37.8286 78.9115 40.2286 81.0534 42.7429C80.9406 42.8571 80.8279 42.9714 80.6025 43.0857C78.9115 41.3714 77.1078 39.7714 75.4169 38.0571C75.4169 38.0571 75.4169 38.0571 75.3041 38.0571C76.5442 39.5429 78.0097 41.0286 79.2497 42.5143C79.137 42.6286 78.9115 42.8571 78.7988 42.9714C76.3187 40.3429 73.7259 37.8286 71.3586 35.0857C69.7804 33.0286 67.9767 31.6571 65.4966 30.8571C60.4238 29.3714 55.3509 27.4286 49.8271 25.3714C51.5181 24.5714 52.7581 24.1143 53.9982 23.5429C53.9982 23.6571 54.1109 23.6571 54.1109 23.7714C53.5472 24.2286 53.0963 24.6857 52.1945 25.4857C71.1331 32.3429 90.6354 34.4 110.363 34.5143C103.148 33.6 95.821 33.0286 88.719 32C81.5043 30.9714 74.4023 29.4857 67.9767 27.2C73.0495 26.0571 78.3479 25.0286 83.8716 23.8857Z" fill="#F4A100"/>
</g>
<defs>
<clipPath id="clip0_411_1353">
<rect width="147" height="48" fill="white"/>
</clipPath>
</defs>
</svg>
