<svg width="147" height="48" viewBox="0 0 147 48" fill="none" xmlns="http://www.w3.org/2000/svg">
<g clip-path="url(#clip0_411_1364)">
<path d="M12.7385 14.2856L3.94555 0.457031H0V25.5999H5.52377V11.657L10.8221 20.1142H14.5422L19.8405 11.657V25.5999H25.3643V0.457031H21.4187L12.7385 14.2856Z" fill="white"/>
<path d="M47.2342 20.6856V22.7427L41.034 25.5999H29.4229V0.457031H47.1215V5.25703H34.9466V10.3999H45.9942V15.0856H34.9466V20.6856H47.2342Z" fill="white"/>
<path d="M75.7549 0.457031V22.057C73.8385 22.3999 72.0348 22.857 70.2311 23.1999V11.657L64.8201 20.1142H61.2127L55.8017 11.5427V18.7427L52.6452 20.2285C52.1943 20.457 51.6307 20.6856 51.1797 20.9142C50.9543 21.0285 50.6161 21.1427 50.3906 21.257V0.457031H54.3362L63.1291 14.2856L71.8093 0.457031H75.7549Z" fill="white"/>
<path d="M103.599 7.88571C102.923 6.28571 102.021 4.91429 100.781 3.77143C99.6538 2.62857 98.1883 1.71429 96.6101 1.02857C95.1446 0.342857 93.3409 0 91.5372 0C89.6208 0 87.9298 0.342857 86.3516 1.02857C84.7734 1.6 83.4206 2.51429 82.2933 3.77143C81.166 4.91429 80.1515 6.28571 79.5878 7.88571C78.9114 9.48571 78.5732 11.2 78.5732 13.0286C78.5732 14.8571 78.9114 16.5714 79.5878 18.1714C80.0387 19.2 80.6024 20.1143 81.2788 21.0286C81.9551 20.9143 82.6315 20.8 83.3079 20.5714L84.5479 23.4286C85.9007 23.5429 87.1407 23.5429 88.4935 23.6571C91.6499 23.7714 94.6936 24 97.8501 24.1143H98.6392C99.4283 23.5429 100.217 22.9714 100.894 22.2857C102.021 21.1429 102.923 19.7714 103.599 18.1714C104.276 16.5714 104.614 14.8571 104.614 13.0286C104.614 11.2 104.276 9.37143 103.599 7.88571ZM97.9628 17.1429C97.3992 18.2857 96.4973 19.3143 95.37 19.8857C94.2427 20.5714 93.0027 20.9143 91.5372 20.9143C90.4099 20.9143 89.3953 20.6857 88.4935 20.3429C87.5917 20 86.8025 19.4286 86.1262 18.7429C85.4498 18.0571 84.9989 17.1429 84.6607 16.2286C84.3225 15.3143 84.097 14.1714 84.097 13.0286C84.097 11.4286 84.4352 10.0571 84.9989 8.91429C85.5625 7.77143 86.4643 6.85714 87.5916 6.17143C88.7189 5.48571 90.0717 5.14286 91.5372 5.14286C92.6645 5.14286 93.6791 5.37143 94.4682 5.71429C95.37 6.05714 96.1591 6.62857 96.8355 7.31429C97.5119 8 97.9628 8.8 98.301 9.82857C98.6392 10.7429 98.8647 11.8857 98.8647 13.0286C98.9774 14.5143 98.6392 15.8857 97.9628 17.1429Z" fill="white"/>
<path d="M112.843 0.457031H107.319V25.5999H112.843V0.457031Z" fill="white"/>
<path d="M134.262 11.6571C134.938 10.5142 135.276 9.25706 135.276 7.77134C135.276 6.28563 134.938 5.02849 134.262 3.88563C133.585 2.74277 132.571 1.94277 131.331 1.25706C130.091 0.571345 128.625 0.342773 127.047 0.342773H116.901V25.4856H122.425V15.0856H122.989L129.076 23.6571C130.654 22.9713 132.233 22.2856 133.811 21.3713L128.963 14.8571C129.865 14.7428 130.542 14.5142 131.331 14.1713C132.571 13.7142 133.585 12.7999 134.262 11.6571ZM128.963 10.1713C128.4 10.7428 127.498 11.0856 126.483 11.0856H122.538V4.79992H126.483C127.611 4.79992 128.4 5.14277 128.963 5.7142C129.527 6.28563 129.865 7.08563 129.865 7.99992C129.865 8.9142 129.527 9.59992 128.963 10.1713Z" fill="white"/>
<path d="M83.8716 23.8855C82.4061 24.914 80.9407 25.8283 79.8134 26.6283C85.5626 26.8569 91.65 27.1998 97.6247 27.4283C97.6247 27.6569 97.6247 27.7712 97.6247 27.9998C95.1446 28.3426 92.7773 28.7998 90.2972 29.1426C90.2972 29.2569 90.2972 29.3712 90.2972 29.4855C93.9046 29.2569 97.512 28.914 101.007 28.7998C103.374 28.7998 105.629 29.0283 107.996 29.3712C118.142 30.7426 127.724 29.1426 136.517 23.8855C136.629 23.8855 136.742 23.8855 136.967 23.7712C136.742 25.1426 136.517 26.514 136.291 28.3426C137.982 25.8283 139.448 23.7712 140.8 21.714C140.913 21.8283 141.026 21.8283 141.139 21.9426C140.913 22.6283 140.688 23.1998 140.462 23.8855C140.575 23.9998 140.575 23.9998 140.688 24.114C142.604 22.3998 144.633 20.6855 146.55 18.9712C148.353 23.6569 143.844 29.9426 133.811 36.6855C135.615 36.6855 137.08 36.6855 138.433 36.6855C135.277 39.0855 131.895 39.9998 123.665 40.5712C126.145 40.914 128.513 41.3712 130.88 41.714C128.062 44.2283 124.793 45.2569 120.509 44.5712C121.185 45.0283 121.636 45.3712 122.2 45.714C112.28 50.2855 104.727 46.0569 97.8502 39.4283C98.752 43.0855 101.57 45.2569 104.389 47.9998C97.3992 47.7712 92.3264 44.5712 88.0426 39.9998C87.9299 40.114 87.8172 40.2283 87.7045 40.3426C89.0572 42.1712 90.5227 43.8855 92.1009 45.9426C84.3225 45.0283 79.5879 40.114 74.966 34.9712C74.8532 35.0855 74.7405 35.1998 74.6278 35.314C76.7696 37.8283 78.9115 40.2283 81.0534 42.7426C80.9406 42.8569 80.8279 42.9712 80.6025 43.0855C78.9115 41.3712 77.1078 39.7712 75.4169 38.0569C75.4169 38.0569 75.4169 38.0569 75.3041 38.0569C76.5442 39.5426 78.0097 41.0283 79.2497 42.514C79.137 42.6283 78.9115 42.8569 78.7988 42.9712C76.3187 40.3426 73.7259 37.8283 71.3586 35.0855C69.7804 33.0283 67.9767 31.6569 65.4966 30.8569C60.4238 29.3712 55.3509 27.4283 49.8271 25.3712C51.5181 24.5712 52.7581 24.114 53.9982 23.5426C53.9982 23.6569 54.1109 23.6569 54.1109 23.7712C53.5472 24.2283 53.0963 24.6855 52.1945 25.4855C71.1331 32.3426 90.6354 34.3998 110.363 34.514C103.148 33.5998 95.821 33.0283 88.719 31.9998C81.5043 30.9712 74.4023 29.4855 67.9767 27.1998C73.0495 26.0569 78.3479 25.0283 83.8716 23.8855Z" fill="#F4A100"/>
</g>
<defs>
<clipPath id="clip0_411_1364">
<rect width="147" height="48" fill="white"/>
</clipPath>
</defs>
</svg>
