<svg width="128" height="156" viewBox="0 0 128 156" fill="none" xmlns="http://www.w3.org/2000/svg">
<g opacity="0.3" clip-path="url(#clip0_175_27225)">
<path d="M88.1214 137.774L78.4981 109.711C77.1059 105.426 75.6852 100.894 74.1982 96.2198L73.6489 94.4849C73.5826 94.3426 73.5542 94.0961 73.4879 93.9539C89.332 83.1894 102.939 72.083 106.269 64.557C112.586 50.4433 102.401 31.3857 98.5731 25.033C97.8815 23.3644 97.0382 22.1128 96.2136 21.4584C94.1099 18.8034 91.0486 16.5084 86.565 14.8765C82.0815 13.2447 78.2612 13.035 74.943 13.7165C73.995 13.7257 72.5445 14.1424 70.9801 14.8719C63.9643 17.2777 43.8077 25.2918 39.5373 40.2688C37.3642 47.8615 40.3266 64.0541 45.0045 81.6975C45.1938 82.4749 45.4211 83.1481 45.6105 83.9255C40.8223 87.024 36.1099 89.914 31.682 92.6713L6.37562 108.021L9.55808 117.445L14.0381 130.766C14.0381 130.766 32.3563 120.666 52.7134 107.883C60.0915 130.76 67.6317 150.272 67.6317 150.272L79.6259 142.948L88.1214 137.774ZM66.4514 70.1384C63.2601 58.4677 60.7416 47.8684 60.0895 40.9005C60.1179 41.147 59.863 37.6299 59.9964 35.3168C60.0343 35.2125 60.0059 34.9661 60.0439 34.8618C60.2908 33.5347 60.4617 32.4161 60.7749 31.2312C65.2212 30.3699 74.3508 28.9695 80.6068 31.2465C86.7586 33.4856 92.9564 40.4646 95.8088 43.9825C95.2871 45.0915 94.7654 46.2005 94.0351 47.2336C93.9592 47.4421 93.7791 47.6127 93.7411 47.717C92.3565 49.5746 89.9764 51.8965 90.1565 51.7259C84.998 56.8151 76.3599 63.3537 66.4514 70.1384Z" fill="#015F65"/>
</g>
<defs>
<clipPath id="clip0_175_27225">
<rect width="86.9921" height="133.595" fill="white" transform="translate(45.6921) rotate(20)"/>
</clipPath>
</defs>
</svg>
