<svg width="67" height="91" viewBox="0 0 67 91" fill="none" xmlns="http://www.w3.org/2000/svg">
<path id="Vector" d="M30.1149 49.2208C30.063 49.1285 30.0134 49.0835 29.9164 49.0406C19.5032 42.7565 8.38098 54.8749 0.956641 60.7133C0.635809 60.965 0.653448 61.3429 0.85631 61.6175C0.858515 61.6648 0.815517 61.7614 0.86513 61.8065C1.09224 64.6365 2.90809 65.8774 5.16052 66.293C4.96758 69.2847 5.26746 71.6379 7.28285 74.1004C9.24863 76.5179 12.3919 77.6968 15.4392 77.8386C15.6289 77.8298 15.7711 77.8231 15.8615 77.7242C17.5572 79.4441 19.5693 80.8179 21.7941 81.6609C24.0025 87.2391 30.2747 90.3078 36.0871 88.6162C36.1819 88.6117 36.2271 88.5623 36.3197 88.5106C36.7685 88.9631 37.215 89.3684 37.7089 89.7714C37.828 90.2866 38.4145 90.638 38.8191 90.1457C43.3758 84.9619 45.4795 79.1351 46.2567 72.376C46.9447 66.7573 47.2788 60.6817 43.0352 56.2874C42.8864 56.1523 42.6923 56.0667 42.5501 56.0733C42.1256 54.1047 41.2811 52.2977 39.6571 51.0952C44.302 45.7653 48.7485 40.2552 52.9038 34.6167C53.1365 34.5112 53.4187 34.4507 53.6513 34.3451C53.9766 34.1879 54.1056 33.8978 54.0449 33.6166C54.1783 33.421 54.2621 33.1804 54.1563 32.9486C55.8972 30.5475 57.6336 28.0519 59.3249 25.6058C60.1253 24.4322 60.8309 23.263 61.5795 21.9971C59.6986 30.5594 57.9986 38.924 60.9191 47.5462C61.1418 48.246 62.1374 48.1995 62.3502 47.6688C62.3954 47.6194 62.4406 47.5699 62.4858 47.5205C65.3688 43.125 66.8032 38.2289 66.8925 33.0169C66.9598 29.3683 66.2377 23.0579 63.4847 20.0617C63.5277 19.965 63.5233 19.8706 63.5663 19.7739C63.6435 19.3915 63.488 19.1147 63.1969 18.9863C65.9665 13.1757 67.3821 6.86028 65.0889 0.481204C64.7625 -0.403094 63.5112 0.270758 63.7879 1.11003C67.0712 10.3782 61.8827 19.3317 56.7682 26.814C55.5675 28.5744 54.3195 30.3371 53.0714 32.0997C46.0848 27.9755 36.1379 30.6649 28.9275 32.9425C28.46 33.1064 28.3376 33.5382 28.4479 33.8645C28.2737 34.204 28.3453 34.7214 28.8305 34.9355C35.8887 37.5414 43.4531 37.7565 50.5731 35.5777C46.7253 40.6811 42.6813 45.6515 38.4862 50.4397C35.7476 48.7685 32.8877 48.5705 30.1149 49.2208ZM65.3137 33.8008C65.2255 38.0185 63.8959 42.1048 61.7361 45.7091C59.6226 38.0907 60.9875 30.6886 62.6302 23.1316C63.0393 28.8411 62.7824 34.5344 61.8596 40.2114C61.746 40.8322 62.6964 40.8352 62.8121 40.2616C63.7305 34.4902 63.9852 28.7497 63.5718 22.9457C65.1506 26.2334 65.3689 30.9102 65.3137 33.8008ZM30.3486 33.8704C36.7189 31.9161 45.0782 29.8215 51.2964 32.7507C47.0275 32.9026 42.7607 33.1017 38.5392 33.2514C37.9229 33.2802 37.8722 34.2294 38.4885 34.2007C42.7574 34.0488 47.0241 33.8496 51.2931 33.6977C44.4685 36.0994 37.1996 36.1072 30.3486 33.8704ZM2.24658 61.884C2.24217 61.7895 2.18815 61.65 2.13853 61.605C5.71289 58.7869 9.23984 55.971 12.8186 53.2474C16.3544 50.6205 20.7159 48.3812 25.0631 48.8884C18.5142 51.0878 12.9994 55.0854 7.49124 59.2247C6.98519 59.5797 7.63677 60.3068 8.14283 59.9518C13.9244 55.563 19.6696 51.4127 26.7015 49.3801C26.7489 49.3779 26.8415 49.3262 26.8867 49.2767C27.3696 49.4436 27.8051 49.6126 28.2902 49.8267C21.3774 52.3745 14.7756 59.5475 11.1582 64.4981C11.1108 64.5003 11.016 64.5047 10.9686 64.5069C8.19574 65.1571 2.58946 66.1763 2.24658 61.884ZM8.28393 73.1541C6.48684 71.2969 6.37438 68.8876 6.54638 66.4651C7.30711 66.4769 8.06565 66.4415 8.82197 66.3588C8.31812 66.7611 7.86168 67.1612 7.40744 67.6085C6.9532 68.0558 7.60258 68.7356 8.05903 68.3356C8.83189 67.5893 9.65658 66.9354 10.5331 66.3737C10.6709 66.2726 10.7139 66.1759 10.7569 66.0792C10.8043 66.077 10.8991 66.0725 10.9443 66.0231C10.9939 66.0681 11.0413 66.0659 11.0909 66.1109C10.0237 67.6757 8.90906 69.2428 7.84183 70.8076C7.48461 71.2977 8.31701 71.827 8.62682 71.3391C9.47245 70.116 10.3181 68.8929 11.1637 67.6699C11.1791 68.0006 11.2442 68.3763 11.307 68.7047C10.7073 70.1057 10.1549 71.5045 9.55513 72.9054C9.34455 73.4834 10.2133 73.7742 10.4713 73.1941C10.8539 72.2293 11.2387 71.3119 11.6212 70.3471C11.7337 70.7206 11.8462 71.0941 11.9564 71.4204C11.8638 71.472 11.823 71.616 11.8296 71.7577C11.8384 71.9467 11.8473 72.1356 11.8561 72.3246C11.8583 72.3718 11.8109 72.374 11.8131 72.4213C11.6411 72.8081 11.4691 73.1948 11.3445 73.5794C11.0865 74.1596 12.0027 74.4482 12.2607 73.8681C12.3897 73.578 12.5187 73.2879 12.6477 72.9978C13.1791 74.2039 13.8979 75.354 14.6576 76.3601C12.1229 76.005 10.0314 74.9663 8.28393 73.1541ZM23.5791 82.2404C24.6849 82.5202 25.8337 82.7033 27.0234 82.7425C26.7521 83.0392 26.5779 83.3787 26.5008 83.7611C26.3376 84.3368 27.2538 84.6255 27.4169 84.0497C27.5349 83.5234 27.8513 83.1773 28.3662 83.0112C28.5062 82.9573 28.5966 82.8584 28.5922 82.7639C28.8293 82.7529 29.0189 82.744 29.2559 82.733C28.7179 83.4209 28.2273 84.1066 27.7885 84.8846C27.4809 85.4197 28.3133 85.949 28.5735 85.4161C29.0983 84.4447 29.7223 83.5634 30.4456 82.7721C30.4908 82.7227 30.5338 82.626 30.579 82.5765C31.0508 82.5071 31.4731 82.3927 31.9428 82.2761C31.5536 83.0992 31.1126 83.8299 30.5293 84.5673C30.1247 85.0596 30.9549 85.5416 31.3143 85.0988C31.9902 84.3097 32.4698 83.3878 32.902 82.4681C32.9626 82.7493 33.0728 83.0756 33.1335 83.3568C32.8391 84.1754 32.4499 84.9984 32.0111 85.7764C31.7035 86.3115 32.4885 86.843 32.7961 86.3079C33.1059 85.82 33.3661 85.2871 33.6263 84.7541C34.0497 85.6812 34.5678 86.6039 35.1764 87.4277C30.5679 88.4477 25.8591 86.3003 23.5791 82.2404ZM43.2039 58.8834C43.1609 58.9801 43.1179 59.0768 43.1697 59.1691C44.1829 67.6437 41.0859 75.6 37.5424 83.151C37.2822 83.684 38.0672 84.2154 38.3274 83.6825C41.7463 76.5161 44.6735 68.9938 44.2513 60.965C45.6018 64.4528 45.2204 68.4948 44.7805 72.3029C44.0671 78.3962 42.2259 83.7373 38.3131 88.4649C36.0915 86.6749 34.645 84.1858 34.1809 81.3668C38.1367 76.5425 40.7772 71.022 42.0617 64.9494C42.4928 62.9882 42.807 60.559 42.6989 58.2442C42.8974 58.4243 43.0506 58.6539 43.2039 58.8834ZM39.9548 67.6517C38.6538 72.3521 36.1952 76.6805 33.0916 80.4235C29.5393 81.6782 25.923 81.5629 22.7842 80.4785C22.6331 80.2961 22.4391 80.2105 22.2043 80.2688C16.4458 78.0284 12.2376 72.3541 12.4801 65.3359C12.4757 65.2414 12.4713 65.147 12.4195 65.0547C17.3345 58.3865 27.6132 47.5384 36.5668 51.0501C30.0498 52.9166 24.2197 56.2661 19.3091 60.993C18.8549 61.4403 19.5042 62.1201 19.9607 61.72C24.7809 57.0921 30.471 53.7965 36.8479 51.9838C30.246 57.1211 24.7401 63.3434 20.4678 70.5497C20.1602 71.0848 20.9452 71.6163 21.2528 71.0812C25.5295 63.9693 31.0376 57.7943 37.5447 52.6615C35.4819 60.3801 32.2052 67.5399 27.6672 74.1432C27.31 74.6333 28.1424 75.1626 28.4522 74.6747C33.1688 67.8264 36.6197 60.327 38.6671 52.2777C38.6671 52.2777 38.7145 52.2755 38.7167 52.3227C39.2503 59.6834 37.5921 66.9098 33.8534 73.3337C33.5458 73.8688 34.3308 74.4003 34.6384 73.8651C38.2867 67.5402 40.0033 60.5478 39.7155 53.365C42.6394 56.9687 41.011 63.8149 39.9548 67.6517Z" fill="#DCE0E1"/>
</svg>
