<svg width="60" height="60" viewBox="0 0 60 60" fill="none" xmlns="http://www.w3.org/2000/svg">
<g clip-path="url(#clip0_184_28476)">
<path fill-rule="evenodd" clip-rule="evenodd" d="M30.0001 8.55292C26.4597 8.55292 23.5669 11.4457 23.5669 14.9861V22.4915H22.4947C22.2103 22.4915 21.9376 22.6044 21.7365 22.8055C21.5354 23.0066 21.4225 23.2793 21.4225 23.5637V27.8525C21.4225 28.1368 21.5354 28.4095 21.7365 28.6106C21.9376 28.8117 22.2103 28.9246 22.4947 28.9246H37.5054C37.7898 28.9246 38.0625 28.8117 38.2636 28.6106C38.4647 28.4095 38.5776 28.1368 38.5776 27.8525V23.5637C38.5776 23.2793 38.4647 23.0066 38.2636 22.8055C38.0625 22.6044 37.7898 22.4915 37.5054 22.4915H36.4332V14.9861C36.4332 11.4457 33.5405 8.55292 30.0001 8.55292ZM30.0001 12.8417C30.2844 12.8417 30.5571 12.9547 30.7582 13.1557C30.9593 13.3568 31.0723 13.6295 31.0723 13.9139V16.0583H32.1445C32.4288 16.0583 32.7015 16.1713 32.9026 16.3723C33.1037 16.5734 33.2166 16.8461 33.2166 17.1305C33.2166 17.4149 33.1037 17.6876 32.9026 17.8886C32.7015 18.0897 32.4288 18.2027 32.1445 18.2027H31.0723V20.3471C31.0723 20.6314 30.9593 20.9042 30.7582 21.1052C30.5571 21.3063 30.2844 21.4193 30.0001 21.4193C29.7157 21.4193 29.443 21.3063 29.2419 21.1052C29.0408 20.9042 28.9279 20.6314 28.9279 20.3471V18.2027H27.8557C27.5713 18.2027 27.2986 18.0897 27.0975 17.8886C26.8964 17.6876 26.7835 17.4149 26.7835 17.1305C26.7835 16.8461 26.8964 16.5734 27.0975 16.3723C27.2986 16.1713 27.5713 16.0583 27.8557 16.0583H28.9279V13.9139C28.9279 13.6295 29.0408 13.3568 29.2419 13.1557C29.443 12.9547 29.7157 12.8417 30.0001 12.8417Z" fill="#F4A100"/>
<path fill-rule="evenodd" clip-rule="evenodd" d="M30 0C18.7613 0 9.6283 9.13404 9.6283 20.3717C9.6283 26.3492 14.6247 34.0615 19.4925 40.5601C20.5154 41.9261 21.5297 43.2127 22.5032 44.42C21.6337 44.6752 20.8156 44.9722 20.0736 45.3132C18.7666 45.9157 17.6719 46.6427 16.8613 47.5251C16.3749 48.0424 15.9991 48.6535 15.757 49.321H14.9893C14.7049 49.321 14.4322 49.434 14.2311 49.6351C14.03 49.8362 13.9171 50.1089 13.9171 50.3932C13.9171 50.6776 14.03 50.9503 14.2311 51.1514C14.4322 51.3525 14.7049 51.4654 14.9893 51.4654H15.6133C15.7934 52.32 16.2437 53.1091 16.8613 53.7814C17.6708 54.6638 18.7666 55.3918 20.0736 55.9933C22.441 57.0837 25.5204 57.7603 28.9278 57.8782V58.9719C28.9278 59.2562 29.0408 59.529 29.2419 59.73C29.4429 59.9311 29.7157 60.0441 30 60.0441C30.2844 60.0441 30.5571 59.9311 30.7582 59.73C30.9593 59.529 31.0722 59.2562 31.0722 58.9719V57.8782C34.4807 57.7603 37.559 57.0848 39.9264 55.9933C41.2334 55.3918 42.3281 54.6638 43.1387 53.7824C43.7563 53.1091 44.2066 52.32 44.3868 51.4665H45.0108C45.2951 51.4665 45.5679 51.3535 45.7689 51.1525C45.97 50.9514 46.083 50.6787 46.083 50.3943C46.083 50.1099 45.97 49.8372 45.7689 49.6361C45.5679 49.4351 45.2951 49.3221 45.0108 49.3221H44.242C44 48.6542 43.6242 48.0427 43.1376 47.5251C42.3292 46.6427 41.2334 45.9157 39.9264 45.3132C39.1398 44.9572 38.3285 44.6584 37.499 44.419C38.5255 43.1507 39.5289 41.8638 40.5086 40.559C45.3753 34.0626 50.3718 26.3503 50.3718 20.3728C50.3718 9.13511 41.2388 0.00107263 30 0.00107263V0ZM30 5.36098C38.2774 5.36098 45.0108 12.0944 45.0108 20.3717C45.0108 28.6491 38.2774 35.3825 30 35.3825C21.7227 35.3825 14.9893 28.6491 14.9893 20.3717C14.9893 12.0944 21.7227 5.36098 30 5.36098ZM23.9979 46.2385C24.6433 47.0126 25.2652 47.7524 25.8281 48.4043C25.121 48.6818 24.5527 49.0266 24.1624 49.4149C23.772 49.8032 23.5689 50.2258 23.5668 50.6538C23.5675 51.4396 24.2455 52.1931 25.4519 52.7486C26.6583 53.3042 28.2942 53.6163 30 53.6163C31.7058 53.6163 33.3418 53.3042 34.5481 52.7486C35.7545 52.1931 36.4326 51.4396 36.4332 50.6538C36.4332 50.2253 36.2315 49.802 35.8421 49.4129C35.4526 49.0238 34.8846 48.6782 34.1773 48.4C34.7924 47.6854 35.4015 46.9656 36.0043 46.2406C37.1344 46.5162 38.1573 46.8603 39.0279 47.2613C40.1462 47.776 41.0126 48.3807 41.5594 48.9769C41.6666 49.0927 41.7588 49.2085 41.8424 49.321H41.7942C41.5098 49.321 41.2371 49.434 41.036 49.6351C40.835 49.8362 40.722 50.1089 40.722 50.3932C40.722 50.6776 40.835 50.9503 41.036 51.1514C41.2371 51.3525 41.5098 51.4654 41.7942 51.4654H42.1523C42.0279 51.7442 41.8339 52.0315 41.5594 52.3307C41.0126 52.9258 40.1462 53.5316 39.0279 54.0462C37.0175 54.9715 34.2095 55.6095 31.0722 55.7296C31.0658 55.4495 30.95 55.1831 30.7496 54.9873C30.5492 54.7915 30.2802 54.6819 30 54.682C29.7203 54.6825 29.4518 54.7923 29.2518 54.988C29.0519 55.1838 28.9364 55.4499 28.93 55.7296C25.7917 55.6095 22.9825 54.9715 20.9721 54.0462C19.8538 53.5316 18.9875 52.9258 18.4407 52.3307C18.1975 52.0762 17.9973 51.784 17.8478 51.4654H18.2059C18.4902 51.4654 18.7629 51.3525 18.964 51.1514C19.1651 50.9503 19.2781 50.6776 19.2781 50.3932C19.2781 50.1089 19.1651 49.8362 18.964 49.6351C18.7629 49.434 18.4902 49.321 18.2059 49.321H18.1576C18.2412 49.2085 18.3324 49.0927 18.4407 48.9758C18.9875 48.3807 19.8538 47.776 20.9721 47.2603C21.8428 46.8593 22.8667 46.514 23.9979 46.2385Z" fill="#F4A100"/>
</g>
<defs>
<clipPath id="clip0_184_28476">
<rect width="60" height="60" fill="white"/>
</clipPath>
</defs>
</svg>
