<svg width="251" height="200" viewBox="0 0 251 200" fill="none" xmlns="http://www.w3.org/2000/svg">
<g opacity="0.5" clip-path="url(#clip0_405_387)">
<path d="M243.219 12.4137L188.621 5.17236C187.357 5.05742 186.552 3.90799 186.667 2.64362C186.782 1.37926 187.931 0.574659 189.196 0.689602L243.793 8.04592C245.058 8.16087 245.862 9.31029 245.747 10.5747C245.517 11.7241 244.368 12.6436 243.219 12.4137Z" stroke="#B0D0D2" stroke-width="1.49989" stroke-miterlimit="10" stroke-linecap="round" stroke-linejoin="round"/>
<path d="M241.606 12.3801L190.104 5.52734L187.132 27.8601L238.634 34.7128L241.606 12.3801Z" stroke="#B0D0D2" stroke-width="1.49989" stroke-miterlimit="10" stroke-linecap="round" stroke-linejoin="round"/>
<path d="M249.77 39.4253C249.54 41.2643 247.586 42.4138 245.402 42.0689L243.219 41.8391L222.299 199.31H158.621L180.69 33.5632L178.506 33.3333C176.437 33.1034 174.943 31.6092 174.943 29.885C174.943 29.7701 174.943 29.6551 174.943 29.5402C175.173 27.8161 177.127 26.5517 179.311 26.8965L187.012 27.931L207.012 30.5747L218.391 32.0689L238.391 34.7126L246.092 35.7471C248.506 35.977 250 37.5862 249.77 39.4253Z" stroke="#B0D0D2" stroke-width="1.49989" stroke-miterlimit="10" stroke-linecap="round" stroke-linejoin="round"/>
<path d="M215.402 12.8736C212.299 12.4138 209.31 14.7127 208.966 17.8161L207.241 30.4598L218.621 31.9541L220.345 19.3104C220.69 16.2069 218.506 13.3334 215.402 12.8736Z" stroke="#B0D0D2" stroke-width="1.49989" stroke-miterlimit="10" stroke-linecap="round" stroke-linejoin="round"/>
<path d="M198.851 11.724C197.012 11.4941 195.288 12.7585 195.058 14.5975L194.138 21.8389L200.805 22.7585L201.724 15.5171C201.954 13.678 200.69 11.9539 198.851 11.724Z" stroke="#B0D0D2" stroke-width="1.49989" stroke-miterlimit="10" stroke-linecap="round" stroke-linejoin="round"/>
<path d="M231.495 16.0919C229.656 15.862 227.931 17.1264 227.702 18.9655L226.782 26.2068L233.449 27.1264L234.368 19.885C234.713 18.0459 233.334 16.3218 231.495 16.0919Z" stroke="#B0D0D2" stroke-width="1.49989" stroke-miterlimit="10" stroke-linecap="round" stroke-linejoin="round"/>
<path d="M188.851 58.8506L182.184 57.931L184.023 43.7931C184.253 41.954 185.977 40.6897 187.817 40.9195C189.656 41.1494 190.92 42.8736 190.69 44.7126L188.851 58.8506Z" stroke="#B0D0D2" stroke-width="1.49989" stroke-miterlimit="10" stroke-linecap="round" stroke-linejoin="round"/>
<path d="M200.575 60.4597L193.908 59.5402L195.748 45.4022C195.977 43.5632 197.702 42.2988 199.541 42.5287C201.38 42.7586 202.644 44.4827 202.414 46.3218L200.575 60.4597Z" stroke="#B0D0D2" stroke-width="1.49989" stroke-miterlimit="10" stroke-linecap="round" stroke-linejoin="round"/>
<path d="M212.184 61.9541L205.518 61.0345L207.357 46.8966C207.587 45.0575 209.311 43.7932 211.15 44.0231C212.989 44.2529 214.253 45.9771 214.023 47.8162L212.184 61.9541Z" stroke="#B0D0D2" stroke-width="1.49989" stroke-miterlimit="10" stroke-linecap="round" stroke-linejoin="round"/>
<path d="M223.908 63.5632L217.242 62.6437L219.081 48.5057C219.311 46.6667 221.035 45.4023 222.874 45.6322C224.713 45.8621 225.977 47.5862 225.747 49.4253L223.908 63.5632Z" stroke="#B0D0D2" stroke-width="1.49989" stroke-miterlimit="10" stroke-linecap="round" stroke-linejoin="round"/>
<path d="M235.632 65.0574L228.966 64.1378L230.805 49.9999C231.035 48.1608 232.759 46.8964 234.598 47.1263C236.437 47.3562 237.701 49.0803 237.472 50.9194L235.632 65.0574Z" stroke="#B0D0D2" stroke-width="1.49989" stroke-miterlimit="10" stroke-linecap="round" stroke-linejoin="round"/>
<path d="M185.632 83.2183L178.966 82.2987L180.805 68.1608C181.035 66.3217 182.759 65.0573 184.598 65.2872C186.437 65.5171 187.701 67.2412 187.471 69.0803L185.632 83.2183Z" stroke="#B0D0D2" stroke-width="1.49989" stroke-miterlimit="10" stroke-linecap="round" stroke-linejoin="round"/>
<path d="M197.242 84.8274L190.575 83.9078L192.414 69.7699C192.644 67.9308 194.368 66.6665 196.207 66.8963C198.046 67.1262 199.311 68.8504 199.081 70.6894L197.242 84.8274Z" stroke="#B0D0D2" stroke-width="1.49989" stroke-miterlimit="10" stroke-linecap="round" stroke-linejoin="round"/>
<path d="M208.965 86.3218L202.299 85.4022L204.138 71.2643C204.368 69.4252 206.092 68.1608 207.931 68.3907C209.77 68.6206 211.034 70.3448 210.805 72.1838L208.965 86.3218Z" stroke="#B0D0D2" stroke-width="1.49989" stroke-miterlimit="10" stroke-linecap="round" stroke-linejoin="round"/>
<path d="M220.69 87.9309L214.023 87.0113L215.862 72.8734C216.092 71.0343 217.816 69.77 219.655 69.9999C221.494 70.2297 222.759 71.9539 222.529 73.793L220.69 87.9309Z" stroke="#B0D0D2" stroke-width="1.49989" stroke-miterlimit="10" stroke-linecap="round" stroke-linejoin="round"/>
<path d="M232.414 89.4253L225.748 88.5057L227.587 74.3678C227.817 72.5287 229.541 71.2644 231.38 71.4942C233.219 71.7241 234.483 73.4483 234.253 75.2873L232.414 89.4253Z" stroke="#B0D0D2" stroke-width="1.49989" stroke-miterlimit="10" stroke-linecap="round" stroke-linejoin="round"/>
<path d="M182.414 107.586L175.747 106.667L177.586 92.5287C177.816 90.6896 179.54 89.4252 181.38 89.6551C183.219 89.885 184.483 91.6092 184.253 93.4482L182.414 107.586Z" stroke="#B0D0D2" stroke-width="1.49989" stroke-miterlimit="10" stroke-linecap="round" stroke-linejoin="round"/>
<path d="M194.023 109.195L187.356 108.276L189.196 94.1378C189.425 92.2987 191.15 91.0344 192.989 91.2643C194.828 91.4941 196.092 93.2183 195.862 95.0574L194.023 109.195Z" stroke="#B0D0D2" stroke-width="1.49989" stroke-miterlimit="10" stroke-linecap="round" stroke-linejoin="round"/>
<path d="M205.747 110.69L199.08 109.77L200.919 95.6322C201.149 93.7931 202.873 92.5288 204.713 92.7586C206.552 92.9885 207.816 94.7127 207.586 96.5518L205.747 110.69Z" stroke="#B0D0D2" stroke-width="1.49989" stroke-miterlimit="10" stroke-linecap="round" stroke-linejoin="round"/>
<path d="M217.471 112.299L210.805 111.379L212.644 97.2413C212.874 95.4023 214.598 94.1379 216.437 94.3678C218.276 94.5977 219.54 96.3218 219.31 98.1609L217.471 112.299Z" stroke="#B0D0D2" stroke-width="1.49989" stroke-miterlimit="10" stroke-linecap="round" stroke-linejoin="round"/>
<path d="M229.081 113.793L222.414 112.873L224.253 98.7355C224.483 96.8964 226.207 95.632 228.046 95.8619C229.885 96.0918 231.15 97.8159 230.92 99.655L229.081 113.793Z" stroke="#B0D0D2" stroke-width="1.49989" stroke-miterlimit="10" stroke-linecap="round" stroke-linejoin="round"/>
<path d="M179.081 132.069L172.414 131.149L174.253 117.011C174.483 115.172 176.207 113.908 178.046 114.138C179.885 114.368 181.15 116.092 180.92 117.931L179.081 132.069Z" stroke="#B0D0D2" stroke-width="1.49989" stroke-miterlimit="10" stroke-linecap="round" stroke-linejoin="round"/>
<path d="M190.805 133.563L184.138 132.643L185.977 118.506C186.207 116.666 187.931 115.402 189.77 115.632C191.609 115.862 192.874 117.586 192.644 119.425L190.805 133.563Z" stroke="#B0D0D2" stroke-width="1.49989" stroke-miterlimit="10" stroke-linecap="round" stroke-linejoin="round"/>
<path d="M202.529 135.172L195.862 134.253L197.701 120.115C197.931 118.276 199.655 117.011 201.494 117.241C203.334 117.471 204.598 119.195 204.368 121.034L202.529 135.172Z" stroke="#B0D0D2" stroke-width="1.49989" stroke-miterlimit="10" stroke-linecap="round" stroke-linejoin="round"/>
<path d="M214.138 136.666L207.471 135.747L209.311 121.609C209.54 119.77 211.265 118.506 213.104 118.735C214.943 118.965 216.207 120.689 215.977 122.529L214.138 136.666Z" stroke="#B0D0D2" stroke-width="1.49989" stroke-miterlimit="10" stroke-linecap="round" stroke-linejoin="round"/>
<path d="M225.862 138.276L219.196 137.356L221.035 123.218C221.265 121.379 222.989 120.115 224.828 120.345C226.667 120.574 227.931 122.299 227.701 124.138L225.862 138.276Z" stroke="#B0D0D2" stroke-width="1.49989" stroke-miterlimit="10" stroke-linecap="round" stroke-linejoin="round"/>
<path d="M175.862 156.437L169.196 155.517L171.035 141.379C171.265 139.54 172.989 138.276 174.828 138.506C176.667 138.736 177.931 140.46 177.701 142.299L175.862 156.437Z" stroke="#B0D0D2" stroke-width="1.49989" stroke-miterlimit="10" stroke-linecap="round" stroke-linejoin="round"/>
<path d="M187.587 157.931L180.92 157.012L182.759 142.874C182.989 141.035 184.713 139.77 186.552 140C188.391 140.23 189.656 141.954 189.426 143.793L187.587 157.931Z" stroke="#B0D0D2" stroke-width="1.49989" stroke-miterlimit="10" stroke-linecap="round" stroke-linejoin="round"/>
<path d="M199.31 159.54L192.644 158.621L194.483 144.483C194.713 142.644 196.437 141.379 198.276 141.609C200.115 141.839 201.379 143.563 201.15 145.402L199.31 159.54Z" stroke="#B0D0D2" stroke-width="1.49989" stroke-miterlimit="10" stroke-linecap="round" stroke-linejoin="round"/>
<path d="M210.92 161.034L204.253 160.115L206.092 145.977C206.322 144.138 208.046 142.873 209.885 143.103C211.724 143.333 212.989 145.057 212.759 146.896L210.92 161.034Z" stroke="#B0D0D2" stroke-width="1.49989" stroke-miterlimit="10" stroke-linecap="round" stroke-linejoin="round"/>
<path d="M222.644 162.644L215.978 161.724L217.817 147.586C218.047 145.747 219.771 144.483 221.61 144.713C223.449 144.943 224.713 146.667 224.483 148.506L222.644 162.644Z" stroke="#B0D0D2" stroke-width="1.49989" stroke-miterlimit="10" stroke-linecap="round" stroke-linejoin="round"/>
<path d="M173.104 191.379L164.483 190.23L167.586 166.782C167.931 164.368 170.115 162.759 172.414 163.103C174.828 163.448 176.437 165.632 176.092 167.931L173.104 191.379Z" stroke="#B0D0D2" stroke-width="1.49989" stroke-miterlimit="10" stroke-linecap="round" stroke-linejoin="round"/>
<path d="M188.046 193.333L179.426 192.184L182.529 168.736C182.874 166.322 185.058 164.713 187.357 165.057C189.77 165.402 191.38 167.586 191.035 169.885L188.046 193.333Z" stroke="#B0D0D2" stroke-width="1.49989" stroke-miterlimit="10" stroke-linecap="round" stroke-linejoin="round"/>
<path d="M203.104 195.287L194.483 194.138L197.586 170.689C197.931 168.276 200.115 166.666 202.414 167.011C204.828 167.356 206.437 169.54 206.092 171.839L203.104 195.287Z" stroke="#B0D0D2" stroke-width="1.49989" stroke-miterlimit="10" stroke-linecap="round" stroke-linejoin="round"/>
<path d="M218.046 197.356L209.426 196.207L212.529 172.759C212.874 170.345 215.058 168.736 217.357 169.08C219.77 169.425 221.38 171.609 221.035 173.908L218.046 197.356Z" stroke="#B0D0D2" stroke-width="1.49989" stroke-miterlimit="10" stroke-linecap="round" stroke-linejoin="round"/>
<path d="M232.414 199.31H218.736H155.058H151.379" stroke="#B0D0D2" stroke-width="1.49989" stroke-miterlimit="10" stroke-linecap="round" stroke-linejoin="round"/>
<path d="M0.804688 26.3218V199.31H46.7817C82.2989 96.7815 0.804688 43.793 0.804688 43.793" stroke="#B0D0D2" stroke-width="1.49989" stroke-miterlimit="10" stroke-linecap="round" stroke-linejoin="round"/>
<path d="M0.804688 87.8159H48.276L42.5288 93.4481" stroke="#B0D0D2" stroke-width="1.49989" stroke-miterlimit="10" stroke-linecap="round" stroke-linejoin="round"/>
<path d="M0.804688 127.471H53.9081" stroke="#B0D0D2" stroke-width="1.49989" stroke-miterlimit="10" stroke-linecap="round" stroke-linejoin="round"/>
<path d="M0.804688 164.483H54.3679" stroke="#B0D0D2" stroke-width="1.49989" stroke-miterlimit="10" stroke-linecap="round" stroke-linejoin="round"/>
<path d="M6.09229 96.4368H33.4486" stroke="#B0D0D2" stroke-width="1.49989" stroke-miterlimit="10" stroke-linecap="round" stroke-linejoin="round"/>
<path d="M6.09229 104.253H33.4486" stroke="#B0D0D2" stroke-width="1.49989" stroke-miterlimit="10" stroke-linecap="round" stroke-linejoin="round"/>
<path d="M6.09229 112.184H33.4486" stroke="#B0D0D2" stroke-width="1.49989" stroke-miterlimit="10" stroke-linecap="round" stroke-linejoin="round"/>
<path d="M6.09229 120H33.4486" stroke="#B0D0D2" stroke-width="1.49989" stroke-miterlimit="10" stroke-linecap="round" stroke-linejoin="round"/>
<path d="M6.09229 134.023H33.4486" stroke="#B0D0D2" stroke-width="1.49989" stroke-miterlimit="10" stroke-linecap="round" stroke-linejoin="round"/>
<path d="M6.09229 141.954H33.4486" stroke="#B0D0D2" stroke-width="1.49989" stroke-miterlimit="10" stroke-linecap="round" stroke-linejoin="round"/>
<path d="M6.09229 149.77H33.4486" stroke="#B0D0D2" stroke-width="1.49989" stroke-miterlimit="10" stroke-linecap="round" stroke-linejoin="round"/>
<path d="M6.09229 157.701H33.4486" stroke="#B0D0D2" stroke-width="1.49989" stroke-miterlimit="10" stroke-linecap="round" stroke-linejoin="round"/>
<path d="M6.09229 171.379H33.4486" stroke="#B0D0D2" stroke-width="1.49989" stroke-miterlimit="10" stroke-linecap="round" stroke-linejoin="round"/>
<path d="M6.09229 179.31H33.4486" stroke="#B0D0D2" stroke-width="1.49989" stroke-miterlimit="10" stroke-linecap="round" stroke-linejoin="round"/>
<path d="M6.09229 187.126H33.4486" stroke="#B0D0D2" stroke-width="1.49989" stroke-miterlimit="10" stroke-linecap="round" stroke-linejoin="round"/>
<path d="M6.09229 195.057H33.4486" stroke="#B0D0D2" stroke-width="1.49989" stroke-miterlimit="10" stroke-linecap="round" stroke-linejoin="round"/>
<path d="M91.4945 49.885H61.1496C59.7703 49.885 58.7358 50.9195 58.7358 52.2988V82.6436C58.7358 84.0229 59.7703 85.0574 61.1496 85.0574H91.4945C92.8738 85.0574 93.9083 84.0229 93.9083 82.6436V52.2988C93.9083 50.9195 92.8738 49.885 91.4945 49.885Z" stroke="#B0D0D2" stroke-width="1.49989" stroke-miterlimit="10" stroke-linecap="round" stroke-linejoin="round"/>
<path d="M76.3221 79.0805C82.7337 79.0805 87.9313 73.8828 87.9313 67.4713C87.9313 61.0597 82.7337 55.8621 76.3221 55.8621C69.9105 55.8621 64.7129 61.0597 64.7129 67.4713C64.7129 73.8828 69.9105 79.0805 76.3221 79.0805Z" stroke="#B0D0D2" stroke-width="1.49989" stroke-miterlimit="10" stroke-linecap="round" stroke-linejoin="round"/>
<path d="M76.322 60V67.4713H82.299" stroke="#B0D0D2" stroke-width="1.49989" stroke-miterlimit="10" stroke-linecap="round" stroke-linejoin="round"/>
<path d="M89.6553 52.6436H63.1036C62.184 52.6436 61.4944 53.3332 61.4944 54.2528V80.8045C61.4944 81.724 62.184 82.4137 63.1036 82.4137H89.6553C90.5748 82.4137 91.2645 81.724 91.2645 80.8045V54.1378C91.1496 53.3332 90.4599 52.6436 89.6553 52.6436Z" stroke="#B0D0D2" stroke-width="1.49989" stroke-miterlimit="10" stroke-linecap="round" stroke-linejoin="round"/>
<path d="M89.8853 43.793H62.8738V49.77H89.8853V43.793Z" stroke="#B0D0D2" stroke-width="1.49989" stroke-miterlimit="10" stroke-linecap="round" stroke-linejoin="round"/>
<path d="M82.7588 26.8965H76.3221H70.0002L62.8738 43.793H76.3221H89.8853L82.7588 26.8965Z" stroke="#B0D0D2" stroke-width="1.49989" stroke-miterlimit="10" stroke-linecap="round" stroke-linejoin="round"/>
<path d="M82.7589 23.4482H70.0002V26.8965H82.7589V23.4482Z" stroke="#B0D0D2" stroke-width="1.49989" stroke-miterlimit="10" stroke-linecap="round" stroke-linejoin="round"/>
<path d="M76.3221 4.36768L70.0002 23.4481H76.3221H82.7589L76.3221 4.36768Z" stroke="#B0D0D2" stroke-width="1.49989" stroke-miterlimit="10" stroke-linecap="round" stroke-linejoin="round"/>
<path d="M65.8623 46.2068V47.4712" stroke="#B0D0D2" stroke-width="1.49989" stroke-miterlimit="10" stroke-linecap="round" stroke-linejoin="round"/>
<path d="M70.0002 46.2068V47.4712" stroke="#B0D0D2" stroke-width="1.49989" stroke-miterlimit="10" stroke-linecap="round" stroke-linejoin="round"/>
<path d="M74.2532 46.2068V47.4712" stroke="#B0D0D2" stroke-width="1.49989" stroke-miterlimit="10" stroke-linecap="round" stroke-linejoin="round"/>
<path d="M78.3911 46.2068V47.4712" stroke="#B0D0D2" stroke-width="1.49989" stroke-miterlimit="10" stroke-linecap="round" stroke-linejoin="round"/>
<path d="M82.6438 46.2068V47.4712" stroke="#B0D0D2" stroke-width="1.49989" stroke-miterlimit="10" stroke-linecap="round" stroke-linejoin="round"/>
<path d="M86.7817 46.2068V47.4712" stroke="#B0D0D2" stroke-width="1.49989" stroke-miterlimit="10" stroke-linecap="round" stroke-linejoin="round"/>
<path d="M89.8853 85.0574H62.8738V113.448H89.8853V85.0574Z" stroke="#B0D0D2" stroke-width="1.49989" stroke-miterlimit="10" stroke-linecap="round" stroke-linejoin="round"/>
<path d="M89.8853 113.448H62.8738V141.839H89.8853V113.448Z" stroke="#B0D0D2" stroke-width="1.49989" stroke-miterlimit="10" stroke-linecap="round" stroke-linejoin="round"/>
<path d="M67.1267 89.885V108.621" stroke="#B0D0D2" stroke-width="1.49989" stroke-miterlimit="10" stroke-linecap="round" stroke-linejoin="round"/>
<path d="M70.8049 89.885V108.621" stroke="#B0D0D2" stroke-width="1.49989" stroke-miterlimit="10" stroke-linecap="round" stroke-linejoin="round"/>
<path d="M74.4832 89.885V108.621" stroke="#B0D0D2" stroke-width="1.49989" stroke-miterlimit="10" stroke-linecap="round" stroke-linejoin="round"/>
<path d="M78.1611 89.885V108.621" stroke="#B0D0D2" stroke-width="1.49989" stroke-miterlimit="10" stroke-linecap="round" stroke-linejoin="round"/>
<path d="M81.8391 89.885V108.621" stroke="#B0D0D2" stroke-width="1.49989" stroke-miterlimit="10" stroke-linecap="round" stroke-linejoin="round"/>
<path d="M85.6326 89.885V108.621" stroke="#B0D0D2" stroke-width="1.49989" stroke-miterlimit="10" stroke-linecap="round" stroke-linejoin="round"/>
<path d="M67.1267 118.276V137.011" stroke="#B0D0D2" stroke-width="1.49989" stroke-miterlimit="10" stroke-linecap="round" stroke-linejoin="round"/>
<path d="M70.8049 118.276V137.011" stroke="#B0D0D2" stroke-width="1.49989" stroke-miterlimit="10" stroke-linecap="round" stroke-linejoin="round"/>
<path d="M74.4832 118.276V137.011" stroke="#B0D0D2" stroke-width="1.49989" stroke-miterlimit="10" stroke-linecap="round" stroke-linejoin="round"/>
<path d="M78.1611 118.276V137.011" stroke="#B0D0D2" stroke-width="1.49989" stroke-miterlimit="10" stroke-linecap="round" stroke-linejoin="round"/>
<path d="M81.8391 118.276V137.011" stroke="#B0D0D2" stroke-width="1.49989" stroke-miterlimit="10" stroke-linecap="round" stroke-linejoin="round"/>
<path d="M85.6326 118.276V137.011" stroke="#B0D0D2" stroke-width="1.49989" stroke-miterlimit="10" stroke-linecap="round" stroke-linejoin="round"/>
<path d="M89.8853 142.184H62.8738V170.575H89.8853V142.184Z" stroke="#B0D0D2" stroke-width="1.49989" stroke-miterlimit="10" stroke-linecap="round" stroke-linejoin="round"/>
<path d="M67.1267 147.011V165.747" stroke="#B0D0D2" stroke-width="1.49989" stroke-miterlimit="10" stroke-linecap="round" stroke-linejoin="round"/>
<path d="M70.8049 147.011V165.747" stroke="#B0D0D2" stroke-width="1.49989" stroke-miterlimit="10" stroke-linecap="round" stroke-linejoin="round"/>
<path d="M74.4832 147.011V165.747" stroke="#B0D0D2" stroke-width="1.49989" stroke-miterlimit="10" stroke-linecap="round" stroke-linejoin="round"/>
<path d="M78.1611 147.011V165.747" stroke="#B0D0D2" stroke-width="1.49989" stroke-miterlimit="10" stroke-linecap="round" stroke-linejoin="round"/>
<path d="M81.8391 147.011V165.747" stroke="#B0D0D2" stroke-width="1.49989" stroke-miterlimit="10" stroke-linecap="round" stroke-linejoin="round"/>
<path d="M85.6326 147.011V165.747" stroke="#B0D0D2" stroke-width="1.49989" stroke-miterlimit="10" stroke-linecap="round" stroke-linejoin="round"/>
<path d="M89.8853 170.919H62.8738V199.31H89.8853V170.919Z" stroke="#B0D0D2" stroke-width="1.49989" stroke-miterlimit="10" stroke-linecap="round" stroke-linejoin="round"/>
<path d="M106.437 118.391L58.1611 199.31H154.713L106.437 118.391Z" fill="#F1F8F8" stroke="#B0D0D2" stroke-width="1.49989" stroke-miterlimit="10" stroke-linecap="round" stroke-linejoin="round"/>
<path d="M106.437 118.391L82.7588 199.31H154.713L106.437 118.391Z" stroke="#B0D0D2" stroke-width="1.49989" stroke-miterlimit="10" stroke-linecap="round" stroke-linejoin="round"/>
<path d="M66.322 195.058H75.4025" stroke="#B0D0D2" stroke-width="1.49989" stroke-miterlimit="10" stroke-linecap="round" stroke-linejoin="round"/>
<path d="M75.4026 188.161H81.4945" stroke="#B0D0D2" stroke-width="1.49989" stroke-miterlimit="10" stroke-linecap="round" stroke-linejoin="round"/>
<path d="M78.3911 172.184H84.4831" stroke="#B0D0D2" stroke-width="1.49989" stroke-miterlimit="10" stroke-linecap="round" stroke-linejoin="round"/>
<path d="M99.4255 175.172H113.334" stroke="#B0D0D2" stroke-width="1.49989" stroke-miterlimit="10" stroke-linecap="round" stroke-linejoin="round"/>
<path d="M111.724 164.828H125.632" stroke="#B0D0D2" stroke-width="1.49989" stroke-miterlimit="10" stroke-linecap="round" stroke-linejoin="round"/>
<path d="M111.724 185.402H140.23" stroke="#B0D0D2" stroke-width="1.49989" stroke-miterlimit="10" stroke-linecap="round" stroke-linejoin="round"/>
<path d="M104.483 185.402H108.391" stroke="#B0D0D2" stroke-width="1.49989" stroke-miterlimit="10" stroke-linecap="round" stroke-linejoin="round"/>
<path d="M104.713 145.747H108.391" stroke="#B0D0D2" stroke-width="1.49989" stroke-miterlimit="10" stroke-linecap="round" stroke-linejoin="round"/>
<path d="M89.0806 160.345H90.3449" stroke="#B0D0D2" stroke-width="1.49989" stroke-miterlimit="10" stroke-linecap="round" stroke-linejoin="round"/>
<path d="M145.173 138.391L108.851 199.31H181.495L145.173 138.391Z" fill="#F1F8F8" stroke="#B0D0D2" stroke-width="1.49989" stroke-miterlimit="10" stroke-linecap="round" stroke-linejoin="round"/>
<path d="M145.173 138.391L127.357 199.31H181.495L145.173 138.391Z" stroke="#B0D0D2" stroke-width="1.49989" stroke-miterlimit="10" stroke-linecap="round" stroke-linejoin="round"/>
<path d="M114.943 196.092H121.839" stroke="#B0D0D2" stroke-width="1.49989" stroke-miterlimit="10" stroke-linecap="round" stroke-linejoin="round"/>
<path d="M121.839 190.92H126.437" stroke="#B0D0D2" stroke-width="1.49989" stroke-miterlimit="10" stroke-linecap="round" stroke-linejoin="round"/>
<path d="M124.138 178.851H128.736" stroke="#B0D0D2" stroke-width="1.49989" stroke-miterlimit="10" stroke-linecap="round" stroke-linejoin="round"/>
<path d="M139.885 181.149H150.345" stroke="#B0D0D2" stroke-width="1.49989" stroke-miterlimit="10" stroke-linecap="round" stroke-linejoin="round"/>
<path d="M149.196 173.333H159.656" stroke="#B0D0D2" stroke-width="1.49989" stroke-miterlimit="10" stroke-linecap="round" stroke-linejoin="round"/>
<path d="M149.196 188.851H170.575" stroke="#B0D0D2" stroke-width="1.49989" stroke-miterlimit="10" stroke-linecap="round" stroke-linejoin="round"/>
<path d="M143.678 188.851H146.667" stroke="#B0D0D2" stroke-width="1.49989" stroke-miterlimit="10" stroke-linecap="round" stroke-linejoin="round"/>
<path d="M143.908 158.966H146.667" stroke="#B0D0D2" stroke-width="1.49989" stroke-miterlimit="10" stroke-linecap="round" stroke-linejoin="round"/>
<path d="M132.07 170H133.104" stroke="#B0D0D2" stroke-width="1.49989" stroke-miterlimit="10" stroke-linecap="round" stroke-linejoin="round"/>
</g>
<defs>
<clipPath id="clip0_405_387">
<rect width="250.575" height="200" fill="white"/>
</clipPath>
</defs>
</svg>
