<svg width="379" height="200" viewBox="0 0 379 200" fill="none" xmlns="http://www.w3.org/2000/svg">
<g opacity="0.5">
<g clip-path="url(#clip0_405_198)">
<path d="M208.572 167.714V116" stroke="#B0D0D2" stroke-width="1.86414" stroke-miterlimit="10" stroke-linecap="round" stroke-linejoin="round"/>
<path d="M226.571 164.857L210.571 115.714" stroke="#B0D0D2" stroke-width="1.86414" stroke-miterlimit="10" stroke-linecap="round" stroke-linejoin="round"/>
<path d="M242.714 156.571L212.428 114.714" stroke="#B0D0D2" stroke-width="1.86414" stroke-miterlimit="10" stroke-linecap="round" stroke-linejoin="round"/>
<path d="M255.571 143.714L213.857 113.286" stroke="#B0D0D2" stroke-width="1.86414" stroke-miterlimit="10" stroke-linecap="round" stroke-linejoin="round"/>
<path d="M263.857 127.571L214.714 111.571" stroke="#B0D0D2" stroke-width="1.86414" stroke-miterlimit="10" stroke-linecap="round" stroke-linejoin="round"/>
<path d="M266.714 109.571H215" stroke="#B0D0D2" stroke-width="1.86414" stroke-miterlimit="10" stroke-linecap="round" stroke-linejoin="round"/>
<path d="M263.857 91.5713L214.714 107.571" stroke="#B0D0D2" stroke-width="1.86414" stroke-miterlimit="10" stroke-linecap="round" stroke-linejoin="round"/>
<path d="M255.571 75.4285L213.857 105.714" stroke="#B0D0D2" stroke-width="1.86414" stroke-miterlimit="10" stroke-linecap="round" stroke-linejoin="round"/>
<path d="M242.714 62.5713L212.428 104.286" stroke="#B0D0D2" stroke-width="1.86414" stroke-miterlimit="10" stroke-linecap="round" stroke-linejoin="round"/>
<path d="M226.571 54.2856L210.571 103.429" stroke="#B0D0D2" stroke-width="1.86414" stroke-miterlimit="10" stroke-linecap="round" stroke-linejoin="round"/>
<path d="M208.572 103.143V51.4285" stroke="#B0D0D2" stroke-width="1.86414" stroke-miterlimit="10" stroke-linecap="round" stroke-linejoin="round"/>
<path d="M206.571 103.429L190.571 54.2856" stroke="#B0D0D2" stroke-width="1.86414" stroke-miterlimit="10" stroke-linecap="round" stroke-linejoin="round"/>
<path d="M204.714 104.286L174.428 62.5713" stroke="#B0D0D2" stroke-width="1.86414" stroke-miterlimit="10" stroke-linecap="round" stroke-linejoin="round"/>
<path d="M203.285 105.714L161.571 75.4285" stroke="#B0D0D2" stroke-width="1.86414" stroke-miterlimit="10" stroke-linecap="round" stroke-linejoin="round"/>
<path d="M202.428 107.571L153.285 91.5713" stroke="#B0D0D2" stroke-width="1.86414" stroke-miterlimit="10" stroke-linecap="round" stroke-linejoin="round"/>
<path d="M202.143 109.571H150.428" stroke="#B0D0D2" stroke-width="1.86414" stroke-miterlimit="10" stroke-linecap="round" stroke-linejoin="round"/>
<path d="M202.428 111.571L153.285 127.571" stroke="#B0D0D2" stroke-width="1.86414" stroke-miterlimit="10" stroke-linecap="round" stroke-linejoin="round"/>
<path d="M203.285 113.286L161.571 143.714" stroke="#B0D0D2" stroke-width="1.86414" stroke-miterlimit="10" stroke-linecap="round" stroke-linejoin="round"/>
<path d="M204.714 114.714L174.428 156.571" stroke="#B0D0D2" stroke-width="1.86414" stroke-miterlimit="10" stroke-linecap="round" stroke-linejoin="round"/>
<path d="M206.571 115.714L190.571 164.857" stroke="#B0D0D2" stroke-width="1.86414" stroke-miterlimit="10" stroke-linecap="round" stroke-linejoin="round"/>
<path d="M215 109.571C215 113.143 212.143 116 208.571 116C205 116 202.143 113.143 202.143 109.571C202.143 106 205 103.143 208.571 103.143C212.143 103.143 215 106 215 109.571Z" stroke="#B0D0D2" stroke-width="1.86414" stroke-miterlimit="10" stroke-linecap="round" stroke-linejoin="round"/>
<path d="M254.849 155.821C280.401 130.27 280.401 88.8435 254.849 63.2923C229.298 37.7411 187.871 37.7411 162.32 63.2923C136.769 88.8435 136.769 130.27 162.32 155.821C187.871 181.373 229.298 181.373 254.849 155.821Z" stroke="#B0D0D2" stroke-width="1.86414" stroke-miterlimit="10" stroke-linecap="round" stroke-linejoin="round"/>
<path d="M264.579 125.181C273.224 94.2547 255.16 62.1762 224.234 53.5318C193.307 44.8874 161.229 62.9506 152.584 93.8771C143.94 124.804 162.003 156.882 192.93 165.527C223.856 174.171 255.935 156.108 264.579 125.181Z" stroke="#B0D0D2" stroke-width="1.86414" stroke-miterlimit="10" stroke-linecap="round" stroke-linejoin="round"/>
<path d="M226.811 122.137C233.769 112.08 231.257 98.286 221.2 91.3276C211.143 84.3692 197.349 86.8814 190.39 96.9386C183.432 106.996 185.944 120.79 196.001 127.748C206.059 134.707 219.852 132.194 226.811 122.137Z" stroke="#B0D0D2" stroke-width="1.86414" stroke-miterlimit="10" stroke-linecap="round" stroke-linejoin="round"/>
<path d="M235.143 40.7142C235.857 38.7142 234.714 36.5714 232.714 35.8571C230.714 35.1428 228.571 36.2857 227.857 38.2857C227.143 40.2857 228.285 42.4285 230.285 43.1428C232.428 43.8571 234.571 42.7142 235.143 40.7142Z" stroke="#B0D0D2" stroke-width="1.86414" stroke-miterlimit="10" stroke-linecap="round" stroke-linejoin="round"/>
<path d="M255.428 52.4286C256.714 50.7143 256.285 48.2857 254.571 47.1428C252.856 45.8571 250.428 46.2857 249.285 48C247.999 49.7143 248.428 52.1428 250.142 53.2857C251.856 54.4285 254.142 54.1428 255.428 52.4286Z" stroke="#B0D0D2" stroke-width="1.86414" stroke-miterlimit="10" stroke-linecap="round" stroke-linejoin="round"/>
<path d="M271 69.7144C272.714 68.4287 273.142 66.143 271.857 64.4287C270.571 62.7144 268.285 62.2858 266.571 63.5715C264.857 64.8573 264.428 67.143 265.714 68.8573C267 70.5715 269.428 71.0001 271 69.7144Z" stroke="#B0D0D2" stroke-width="1.86414" stroke-miterlimit="10" stroke-linecap="round" stroke-linejoin="round"/>
<path d="M280.571 91C282.571 90.2857 283.714 88.1428 283 86.1428C282.285 84.1428 280.143 83 278.143 83.7143C276.143 84.4285 275 86.5714 275.714 88.5714C276.428 90.5714 278.571 91.7143 280.571 91Z" stroke="#B0D0D2" stroke-width="1.86414" stroke-miterlimit="10" stroke-linecap="round" stroke-linejoin="round"/>
<path d="M283 114.286C285.143 114.286 286.857 112.572 286.857 110.429C286.857 108.286 285.143 106.572 283 106.572C280.857 106.572 279.143 108.286 279.143 110.429C279.285 112.572 281 114.286 283 114.286Z" stroke="#B0D0D2" stroke-width="1.86414" stroke-miterlimit="10" stroke-linecap="round" stroke-linejoin="round"/>
<path d="M278.285 137C280.285 137.714 282.428 136.571 283.143 134.571C283.857 132.571 282.714 130.429 280.714 129.714C278.714 129 276.571 130.143 275.857 132.143C275.143 134.286 276.285 136.429 278.285 137Z" stroke="#B0D0D2" stroke-width="1.86414" stroke-miterlimit="10" stroke-linecap="round" stroke-linejoin="round"/>
<path d="M266.571 157.286C268.285 158.571 270.714 158.143 271.857 156.429C273.143 154.714 272.714 152.286 271 151.143C269.285 149.857 266.857 150.286 265.714 152C264.571 153.714 264.857 156 266.571 157.286Z" stroke="#B0D0D2" stroke-width="1.86414" stroke-miterlimit="10" stroke-linecap="round" stroke-linejoin="round"/>
<path d="M249.285 172.857C250.571 174.572 252.856 175 254.571 173.714C256.285 172.429 256.714 170.143 255.428 168.429C254.142 166.714 251.856 166.286 250.142 167.572C248.428 168.857 247.999 171.286 249.285 172.857Z" stroke="#B0D0D2" stroke-width="1.86414" stroke-miterlimit="10" stroke-linecap="round" stroke-linejoin="round"/>
<path d="M228 182.429C228.714 184.429 230.857 185.571 232.857 184.857C234.857 184.143 236 182 235.285 180C234.571 178 232.428 176.857 230.428 177.571C228.428 178.286 227.285 180.429 228 182.429Z" stroke="#B0D0D2" stroke-width="1.86414" stroke-miterlimit="10" stroke-linecap="round" stroke-linejoin="round"/>
<path d="M204.714 184.857C204.714 187 206.429 188.714 208.571 188.714C210.714 188.714 212.429 187 212.429 184.857C212.429 182.714 210.714 181 208.571 181C206.429 181.143 204.714 182.857 204.714 184.857Z" stroke="#B0D0D2" stroke-width="1.86414" stroke-miterlimit="10" stroke-linecap="round" stroke-linejoin="round"/>
<path d="M181.857 180.143C181.143 182.143 182.285 184.286 184.285 185C186.285 185.714 188.428 184.571 189.143 182.571C189.857 180.571 188.714 178.429 186.714 177.714C184.714 177 182.571 178.143 181.857 180.143Z" stroke="#B0D0D2" stroke-width="1.86414" stroke-miterlimit="10" stroke-linecap="round" stroke-linejoin="round"/>
<path d="M161.714 168.429C160.429 170.143 160.857 172.571 162.572 173.714C164.286 175 166.714 174.571 167.857 172.857C169.143 171.143 168.714 168.714 167 167.571C165.286 166.429 163 166.714 161.714 168.429Z" stroke="#B0D0D2" stroke-width="1.86414" stroke-miterlimit="10" stroke-linecap="round" stroke-linejoin="round"/>
<path d="M146 151.143C144.285 152.429 143.857 154.714 145.143 156.429C146.428 158.143 148.714 158.571 150.428 157.286C152.143 156 152.571 153.714 151.285 152C150.143 150.286 147.714 149.857 146 151.143Z" stroke="#B0D0D2" stroke-width="1.86414" stroke-miterlimit="10" stroke-linecap="round" stroke-linejoin="round"/>
<path d="M136.571 129.857C134.571 130.571 133.428 132.714 134.143 134.714C134.857 136.714 137 137.857 139 137.143C141 136.429 142.143 134.286 141.428 132.286C140.714 130.286 138.571 129.143 136.571 129.857Z" stroke="#B0D0D2" stroke-width="1.86414" stroke-miterlimit="10" stroke-linecap="round" stroke-linejoin="round"/>
<path d="M134 106.572C131.857 106.572 130.143 108.286 130.143 110.429C130.143 112.572 131.857 114.286 134 114.286C136.143 114.286 137.857 112.572 137.857 110.429C137.857 108.286 136.143 106.572 134 106.572Z" stroke="#B0D0D2" stroke-width="1.86414" stroke-miterlimit="10" stroke-linecap="round" stroke-linejoin="round"/>
<path d="M138.857 83.7143C136.857 83 134.714 84.1428 134 86.1428C133.285 88.1428 134.428 90.2857 136.428 91C138.428 91.7143 140.571 90.5714 141.285 88.5714C142 86.5714 140.857 84.4285 138.857 83.7143Z" stroke="#B0D0D2" stroke-width="1.86414" stroke-miterlimit="10" stroke-linecap="round" stroke-linejoin="round"/>
<path d="M150.571 63.5715C148.857 62.2858 146.428 62.7144 145.285 64.4287C144 66.143 144.428 68.5715 146.143 69.7144C147.857 71.0001 150.285 70.5715 151.428 68.8573C152.571 67.143 152.285 64.8573 150.571 63.5715Z" stroke="#B0D0D2" stroke-width="1.86414" stroke-miterlimit="10" stroke-linecap="round" stroke-linejoin="round"/>
<path d="M167.857 47.8572C166.572 46.1429 164.286 45.7143 162.572 47C160.857 48.2857 160.429 50.5714 161.714 52.2857C163 54 165.286 54.4286 167 53.1429C168.714 52 169.143 49.5714 167.857 47.8572Z" stroke="#B0D0D2" stroke-width="1.86414" stroke-miterlimit="10" stroke-linecap="round" stroke-linejoin="round"/>
<path d="M189.143 38.4285C188.428 36.4285 186.285 35.2856 184.285 35.9999C182.285 36.7142 181.143 38.857 181.857 40.857C182.571 42.857 184.714 43.9999 186.714 43.2856C188.714 42.5713 189.857 40.4285 189.143 38.4285Z" stroke="#B0D0D2" stroke-width="1.86414" stroke-miterlimit="10" stroke-linecap="round" stroke-linejoin="round"/>
<path d="M212.429 35.8571C212.429 33.7143 210.714 32 208.571 32C206.429 32 204.714 33.7143 204.714 35.8571C204.714 38 206.429 39.7143 208.571 39.7143C210.714 39.7143 212.429 38 212.429 35.8571Z" stroke="#B0D0D2" stroke-width="1.86414" stroke-miterlimit="10" stroke-linecap="round" stroke-linejoin="round"/>
<path d="M205.857 115.428L168.571 199" stroke="#B0D0D2" stroke-width="1.86414" stroke-miterlimit="10" stroke-linecap="round" stroke-linejoin="round"/>
<path d="M248.57 199L211.142 115.428" stroke="#B0D0D2" stroke-width="1.86414" stroke-miterlimit="10" stroke-linecap="round" stroke-linejoin="round"/>
<path d="M333.571 103H297.714V111.429H333.571V103Z" stroke="#B0D0D2" stroke-width="1.86414" stroke-miterlimit="10" stroke-linecap="round" stroke-linejoin="round"/>
<path d="M345.571 145.572H285.857V154H345.571V145.572Z" stroke="#B0D0D2" stroke-width="1.86414" stroke-miterlimit="10" stroke-linecap="round" stroke-linejoin="round"/>
<path d="M315.714 111.428C315.714 111.428 314.143 130.286 307.285 145.714H315.714H324.143C317.285 130.286 315.714 111.428 315.714 111.428Z" stroke="#B0D0D2" stroke-width="1.86414" stroke-miterlimit="10" stroke-linecap="round" stroke-linejoin="round"/>
<path d="M327.857 25.4285H303.571V33.9999H327.857V25.4285Z" stroke="#B0D0D2" stroke-width="1.86414" stroke-miterlimit="10" stroke-linecap="round" stroke-linejoin="round"/>
<path d="M324.714 19.4285H306.857V25.4285H324.714V19.4285Z" stroke="#B0D0D2" stroke-width="1.86414" stroke-miterlimit="10" stroke-linecap="round" stroke-linejoin="round"/>
<path d="M315.714 1V19.4286" stroke="#B0D0D2" stroke-width="1.86414" stroke-miterlimit="10" stroke-linecap="round" stroke-linejoin="round"/>
<path d="M308.857 97.5715H322.571" stroke="#B0D0D2" stroke-width="1.86414" stroke-miterlimit="10" stroke-linecap="round" stroke-linejoin="round"/>
<path d="M309.857 91H321.571" stroke="#B0D0D2" stroke-width="1.86414" stroke-miterlimit="10" stroke-linecap="round" stroke-linejoin="round"/>
<path d="M310 84.4285H321.428" stroke="#B0D0D2" stroke-width="1.86414" stroke-miterlimit="10" stroke-linecap="round" stroke-linejoin="round"/>
<path d="M310.571 77.8572H320.857" stroke="#B0D0D2" stroke-width="1.86414" stroke-miterlimit="10" stroke-linecap="round" stroke-linejoin="round"/>
<path d="M311 71.4285H320.428" stroke="#B0D0D2" stroke-width="1.86414" stroke-miterlimit="10" stroke-linecap="round" stroke-linejoin="round"/>
<path d="M311.571 64.8572H319.857" stroke="#B0D0D2" stroke-width="1.86414" stroke-miterlimit="10" stroke-linecap="round" stroke-linejoin="round"/>
<path d="M312 58.2856H319.571" stroke="#B0D0D2" stroke-width="1.86414" stroke-miterlimit="10" stroke-linecap="round" stroke-linejoin="round"/>
<path d="M312.428 51.8572H319" stroke="#B0D0D2" stroke-width="1.86414" stroke-miterlimit="10" stroke-linecap="round" stroke-linejoin="round"/>
<path d="M313.143 45.2856H318.428" stroke="#B0D0D2" stroke-width="1.86414" stroke-miterlimit="10" stroke-linecap="round" stroke-linejoin="round"/>
<path d="M313.428 39H318" stroke="#B0D0D2" stroke-width="1.86414" stroke-miterlimit="10" stroke-linecap="round" stroke-linejoin="round"/>
<path d="M307.428 28.8572V31" stroke="#B0D0D2" stroke-width="1.86414" stroke-miterlimit="10" stroke-linecap="round" stroke-linejoin="round"/>
<path d="M311.571 28.8572V31" stroke="#B0D0D2" stroke-width="1.86414" stroke-miterlimit="10" stroke-linecap="round" stroke-linejoin="round"/>
<path d="M315.714 28.8572V31" stroke="#B0D0D2" stroke-width="1.86414" stroke-miterlimit="10" stroke-linecap="round" stroke-linejoin="round"/>
<path d="M319.857 28.8572V31" stroke="#B0D0D2" stroke-width="1.86414" stroke-miterlimit="10" stroke-linecap="round" stroke-linejoin="round"/>
<path d="M324 28.8572V31" stroke="#B0D0D2" stroke-width="1.86414" stroke-miterlimit="10" stroke-linecap="round" stroke-linejoin="round"/>
<path d="M302 106.143V108.286" stroke="#B0D0D2" stroke-width="1.86414" stroke-miterlimit="10" stroke-linecap="round" stroke-linejoin="round"/>
<path d="M308.857 106.143V108.286" stroke="#B0D0D2" stroke-width="1.86414" stroke-miterlimit="10" stroke-linecap="round" stroke-linejoin="round"/>
<path d="M315.714 106.143V108.286" stroke="#B0D0D2" stroke-width="1.86414" stroke-miterlimit="10" stroke-linecap="round" stroke-linejoin="round"/>
<path d="M322.571 106.143V108.286" stroke="#B0D0D2" stroke-width="1.86414" stroke-miterlimit="10" stroke-linecap="round" stroke-linejoin="round"/>
<path d="M329.571 106.143V108.286" stroke="#B0D0D2" stroke-width="1.86414" stroke-miterlimit="10" stroke-linecap="round" stroke-linejoin="round"/>
<path d="M291.571 148.714V150.857" stroke="#B0D0D2" stroke-width="1.86414" stroke-miterlimit="10" stroke-linecap="round" stroke-linejoin="round"/>
<path d="M298.428 148.714V150.857" stroke="#B0D0D2" stroke-width="1.86414" stroke-miterlimit="10" stroke-linecap="round" stroke-linejoin="round"/>
<path d="M305.428 148.714V150.857" stroke="#B0D0D2" stroke-width="1.86414" stroke-miterlimit="10" stroke-linecap="round" stroke-linejoin="round"/>
<path d="M312.286 148.714V150.857" stroke="#B0D0D2" stroke-width="1.86414" stroke-miterlimit="10" stroke-linecap="round" stroke-linejoin="round"/>
<path d="M319.142 148.714V150.857" stroke="#B0D0D2" stroke-width="1.86414" stroke-miterlimit="10" stroke-linecap="round" stroke-linejoin="round"/>
<path d="M326 148.714V150.857" stroke="#B0D0D2" stroke-width="1.86414" stroke-miterlimit="10" stroke-linecap="round" stroke-linejoin="round"/>
<path d="M333 148.714V150.857" stroke="#B0D0D2" stroke-width="1.86414" stroke-miterlimit="10" stroke-linecap="round" stroke-linejoin="round"/>
<path d="M339.857 148.714V150.857" stroke="#B0D0D2" stroke-width="1.86414" stroke-miterlimit="10" stroke-linecap="round" stroke-linejoin="round"/>
<path d="M319.142 148.714V150.857" stroke="#B0D0D2" stroke-width="1.86414" stroke-miterlimit="10" stroke-linecap="round" stroke-linejoin="round"/>
<path d="M303.286 103C305.571 79.2857 307.428 34 307.428 34H315.714H324C324 34 325.857 79.2857 328.143 103" stroke="#B0D0D2" stroke-width="1.86414" stroke-miterlimit="10" stroke-linecap="round" stroke-linejoin="round"/>
<path d="M345 154C359.857 180.714 377.286 199 377.286 199H345.857C345.714 180.571 332.143 165.714 315.571 165.714C299 165.714 285.571 180.571 285.286 199H253.857C253.857 199 271.286 180.714 286.143 154" stroke="#B0D0D2" stroke-width="1.86414" stroke-miterlimit="10" stroke-linecap="round" stroke-linejoin="round"/>
<path d="M290.857 145.714C294 139.286 297 132.571 299.428 125.428C301 120.857 301.857 116.143 302.428 111.428" stroke="#B0D0D2" stroke-width="1.86414" stroke-miterlimit="10" stroke-linecap="round" stroke-linejoin="round"/>
<path d="M329 111.428C329.571 116.143 330.428 120.857 332 125.428C334.428 132.571 337.428 139.286 340.571 145.714" stroke="#B0D0D2" stroke-width="1.86414" stroke-miterlimit="10" stroke-linecap="round" stroke-linejoin="round"/>
<path d="M-89.9995 90.8572V199H17.1434L-46.4281 90.8572H-89.9995Z" stroke="#B0D0D2" stroke-width="1.86414" stroke-miterlimit="10" stroke-linecap="round" stroke-linejoin="round"/>
<path d="M65.4285 148.143H13.1428L43 199H65.4285V148.143Z" stroke="#B0D0D2" stroke-width="1.86414" stroke-miterlimit="10" stroke-linecap="round" stroke-linejoin="round"/>
<path d="M-93 175.714H65.4286" stroke="#B0D0D2" stroke-width="1.86414" stroke-miterlimit="10" stroke-linecap="round" stroke-linejoin="round"/>
<path d="M-93 199H68.1429" stroke="#B0D0D2" stroke-width="1.86414" stroke-miterlimit="10" stroke-linecap="round" stroke-linejoin="round"/>
<path d="M38.5715 175.714H32.7144V164.857C32.7144 163.286 34.0001 162 35.5715 162C37.1429 162 38.4286 163.286 38.4286 164.857V175.714H38.5715Z" stroke="#B0D0D2" stroke-width="1.86414" stroke-miterlimit="10" stroke-linecap="round" stroke-linejoin="round"/>
<path d="M49.572 175.714H43.7148V164.857C43.7148 163.286 45.0006 162 46.572 162C48.1434 162 49.4291 163.286 49.4291 164.857V175.714H49.572Z" stroke="#B0D0D2" stroke-width="1.86414" stroke-miterlimit="10" stroke-linecap="round" stroke-linejoin="round"/>
<path d="M15.1433 175.714H9.28613V164.857C9.28613 163.286 10.5718 162 12.1433 162C13.7147 162 15.0004 163.286 15.0004 164.857V175.714H15.1433Z" stroke="#B0D0D2" stroke-width="1.86414" stroke-miterlimit="10" stroke-linecap="round" stroke-linejoin="round"/>
<path d="M60.5715 175.714H54.7144V164.857C54.7144 163.286 56.0001 162 57.5715 162C59.1429 162 60.4286 163.286 60.4286 164.857V175.714H60.5715Z" stroke="#B0D0D2" stroke-width="1.86414" stroke-miterlimit="10" stroke-linecap="round" stroke-linejoin="round"/>
<path d="M5.14328 199H-0.713867V188.143C-0.713867 186.571 0.571847 185.286 2.14328 185.286C3.71471 185.286 5.00042 186.571 5.00042 188.143V199H5.14328Z" stroke="#B0D0D2" stroke-width="1.86414" stroke-miterlimit="10" stroke-linecap="round" stroke-linejoin="round"/>
<path d="M49.572 199H43.7148V188.143C43.7148 186.571 45.0006 185.286 46.572 185.286C48.1434 185.286 49.4291 186.571 49.4291 188.143V199H49.572Z" stroke="#B0D0D2" stroke-width="1.86414" stroke-miterlimit="10" stroke-linecap="round" stroke-linejoin="round"/>
<path d="M60.5715 199H54.7144V188.143C54.7144 186.571 56.0001 185.286 57.5715 185.286C59.1429 185.286 60.4286 186.571 60.4286 188.143V199H60.5715Z" stroke="#B0D0D2" stroke-width="1.86414" stroke-miterlimit="10" stroke-linecap="round" stroke-linejoin="round"/>
<path d="M13.1428 199H17.1428H19V188.143C19 186.571 17.7142 185.286 16.1428 185.286C14.5714 185.286 13.2857 186.571 13.2857 188.143V192.286" stroke="#B0D0D2" stroke-width="1.86414" stroke-miterlimit="10" stroke-linecap="round" stroke-linejoin="round"/>
<path d="M30 199H24.1428V188.143C24.1428 186.571 25.4285 185.286 27 185.286C28.5714 185.286 29.8571 186.571 29.8571 188.143V199H30Z" stroke="#B0D0D2" stroke-width="1.86414" stroke-miterlimit="10" stroke-linecap="round" stroke-linejoin="round"/>
<path d="M-8.5708 155.286H17.1435" stroke="#B0D0D2" stroke-width="1.86414" stroke-miterlimit="10" stroke-linecap="round" stroke-linejoin="round"/>
<path d="M26.5715 153.286V155.857" stroke="#B0D0D2" stroke-width="1.86414" stroke-miterlimit="10" stroke-linecap="round" stroke-linejoin="round"/>
<path d="M37.7144 153.286V155.857" stroke="#B0D0D2" stroke-width="1.86414" stroke-miterlimit="10" stroke-linecap="round" stroke-linejoin="round"/>
<path d="M49 153.286V155.857" stroke="#B0D0D2" stroke-width="1.86414" stroke-miterlimit="10" stroke-linecap="round" stroke-linejoin="round"/>
<path d="M60.1431 153.286V155.857" stroke="#B0D0D2" stroke-width="1.86414" stroke-miterlimit="10" stroke-linecap="round" stroke-linejoin="round"/>
<path d="M164.857 130.286V199H133.143V135.429H107.571V199H75.8569V130.286" fill="#FAFAFA"/>
<path d="M164.857 130.286V199H133.143V135.429H107.571V199H75.8569V130.286" stroke="#B0D0D2" stroke-width="1.86414" stroke-miterlimit="10" stroke-linecap="round" stroke-linejoin="round"/>
<path d="M75.8569 122.857V113V109H164.857V113V122.857" fill="#FAFAFA"/>
<path d="M75.8569 122.857V113V109H164.857V113V122.857" stroke="#B0D0D2" stroke-width="1.86414" stroke-miterlimit="10" stroke-linecap="round" stroke-linejoin="round"/>
<path d="M107.571 135.428V162C107.571 154.857 113.286 149.143 120.428 149.143C127.571 149.143 133.286 154.857 133.286 162V135.428H107.571Z" fill="#FAFAFA" stroke="#B0D0D2" stroke-width="1.86414" stroke-miterlimit="10" stroke-linecap="round" stroke-linejoin="round"/>
<path d="M164.857 109H75.8569V113H164.857V109Z" stroke="#B0D0D2" stroke-width="1.86414" stroke-miterlimit="10" stroke-linecap="round" stroke-linejoin="round"/>
<path d="M164.857 113H75.8569V122.857H164.857V113Z" stroke="#B0D0D2" stroke-width="1.86414" stroke-miterlimit="10" stroke-linecap="round" stroke-linejoin="round"/>
<path d="M162.857 130.571H77.8569C73.5712 130.571 70.1426 127.143 70.1426 122.857H170.714C170.571 127.143 167.143 130.571 162.857 130.571Z" stroke="#B0D0D2" stroke-width="1.86414" stroke-miterlimit="10" stroke-linecap="round" stroke-linejoin="round"/>
<path d="M164.857 130.572H75.8569V135.429H164.857V130.572Z" stroke="#B0D0D2" stroke-width="1.86414" stroke-miterlimit="10" stroke-linecap="round" stroke-linejoin="round"/>
<path d="M85.7141 113H75.8569V122.857H85.7141V113Z" stroke="#B0D0D2" stroke-width="1.86414" stroke-miterlimit="10" stroke-linecap="round" stroke-linejoin="round"/>
<path d="M95.5712 113H85.7141V122.857H95.5712V113Z" stroke="#B0D0D2" stroke-width="1.86414" stroke-miterlimit="10" stroke-linecap="round" stroke-linejoin="round"/>
<path d="M105.428 113H95.5708V122.857H105.428V113Z" stroke="#B0D0D2" stroke-width="1.86414" stroke-miterlimit="10" stroke-linecap="round" stroke-linejoin="round"/>
<path d="M115.428 113H105.571V122.857H115.428V113Z" stroke="#B0D0D2" stroke-width="1.86414" stroke-miterlimit="10" stroke-linecap="round" stroke-linejoin="round"/>
<path d="M125.285 113H115.428V122.857H125.285V113Z" stroke="#B0D0D2" stroke-width="1.86414" stroke-miterlimit="10" stroke-linecap="round" stroke-linejoin="round"/>
<path d="M135.143 113H125.285V122.857H135.143V113Z" stroke="#B0D0D2" stroke-width="1.86414" stroke-miterlimit="10" stroke-linecap="round" stroke-linejoin="round"/>
<path d="M145 113H135.143V122.857H145V113Z" stroke="#B0D0D2" stroke-width="1.86414" stroke-miterlimit="10" stroke-linecap="round" stroke-linejoin="round"/>
<path d="M155 113H145.143V122.857H155V113Z" stroke="#B0D0D2" stroke-width="1.86414" stroke-miterlimit="10" stroke-linecap="round" stroke-linejoin="round"/>
<path d="M164.857 113H155V122.857H164.857V113Z" stroke="#B0D0D2" stroke-width="1.86414" stroke-miterlimit="10" stroke-linecap="round" stroke-linejoin="round"/>
<path d="M102.571 143.286H80.8569V157.571H102.571V143.286Z" stroke="#B0D0D2" stroke-width="1.86414" stroke-miterlimit="10" stroke-linecap="round" stroke-linejoin="round"/>
<path d="M107.571 165H75.8569V167.857H107.571V165Z" stroke="#B0D0D2" stroke-width="1.86414" stroke-miterlimit="10" stroke-linecap="round" stroke-linejoin="round"/>
<path d="M97.2849 174H86.2849V199H97.2849V174Z" stroke="#B0D0D2" stroke-width="1.86414" stroke-miterlimit="10" stroke-linecap="round" stroke-linejoin="round"/>
<path d="M159.857 143.286H138.143V157.571H159.857V143.286Z" stroke="#B0D0D2" stroke-width="1.86414" stroke-miterlimit="10" stroke-linecap="round" stroke-linejoin="round"/>
<path d="M164.857 165H133.143V167.857H164.857V165Z" stroke="#B0D0D2" stroke-width="1.86414" stroke-miterlimit="10" stroke-linecap="round" stroke-linejoin="round"/>
<path d="M154.571 174H143.571V199H154.571V174Z" stroke="#B0D0D2" stroke-width="1.86414" stroke-miterlimit="10" stroke-linecap="round" stroke-linejoin="round"/>
</g>
</g>
<defs>
<clipPath id="clip0_405_198">
<rect width="472.286" height="200" fill="white" transform="translate(-94)"/>
</clipPath>
</defs>
</svg>
