<svg width="297" height="132" viewBox="0 0 297 132" fill="none" xmlns="http://www.w3.org/2000/svg">
<g opacity="0.1">
<mask id="mask0_184_28042" style="mask-type:alpha" maskUnits="userSpaceOnUse" x="0" y="0" width="297" height="132">
<rect width="297" height="131.898" transform="matrix(-1 8.74228e-08 8.74228e-08 1 297 0)" fill="#D9D9D9"/>
</mask>
<g mask="url(#mask0_184_28042)">
<path d="M272.535 98.9291C269.241 107.97 280.564 113.772 286.372 116.995C284.03 110.424 280.163 101.036 272.535 98.9291Z" fill="white"/>
<path d="M271.948 98.8123C268.713 108.147 279.507 113.89 286.136 117.582C286.606 117.817 287.252 117.406 287.076 116.877C284.499 109.719 280.809 100.742 272.77 98.3422C272.007 98.1667 271.654 99.3408 272.475 99.5749C280.045 101.741 283.442 110.542 285.902 117.23C286.254 116.995 286.489 116.761 286.842 116.525C280.74 113.126 270.297 107.852 273.239 99.1635C273.415 98.4004 272.242 98.0491 271.948 98.8123Z" fill="#01686F"/>
<path d="M264.032 89.1343C269.194 93.3561 279.051 97.3394 284.69 91.3487C280.703 85.7174 269.2 85.2567 263.68 88.7824" fill="white"/>
<path d="M263.562 89.6041C269.193 94.1777 279.167 98.0436 285.1 91.8765C285.276 91.7003 285.394 91.3481 285.159 91.1135C282.755 87.8873 278.765 86.4818 274.951 86.0739C271.077 85.7248 266.734 86.1976 263.328 88.3131C262.682 88.7244 263.268 89.7804 263.914 89.3691C266.968 87.4886 270.9 86.9574 274.421 87.3069C277.884 87.5977 281.874 88.7684 284.043 91.7599C284.044 91.5252 284.102 91.2317 284.103 90.9969C278.699 96.6354 269.487 92.9449 264.326 88.7232C263.798 88.1954 262.917 89.0764 263.562 89.6041Z" fill="#01686F"/>
<path d="M254.471 83.4484C249.653 89.556 254.103 102.817 261.204 104.748C261.561 97.9396 261.391 90.486 254.94 83.5654" fill="white"/>
<path d="M254.06 83.0381C251.24 86.6791 251.471 91.7263 252.817 95.8923C254.105 99.8823 256.861 104.165 261.144 105.394C261.496 105.511 261.907 105.217 261.966 104.806C262.145 101.226 262.148 97.5872 261.329 93.949C260.393 89.8413 258.342 86.2628 255.527 83.213C254.94 82.6266 254.059 83.5076 254.646 84.0941C257.402 87.0852 259.336 90.5464 260.213 94.5954C260.974 97.9402 260.912 101.403 260.734 104.866C261.027 104.69 261.262 104.455 261.556 104.278C257.742 103.166 255.338 99.2357 254.109 95.6566C252.938 92.0186 252.531 87.265 255.057 84.0351C255.409 83.3305 254.53 82.4508 254.06 83.0381Z" fill="#01686F"/>
<path d="M247.253 79.7573C254.47 83.4493 262.278 80.5675 266.626 74.2255C259.998 68.8898 250.544 74.59 246.784 79.8751" fill="white"/>
<path d="M246.901 80.344C250.421 82.102 254.412 82.5685 258.169 81.3918C261.867 80.2738 264.98 77.7478 267.154 74.6355C267.271 74.4006 267.271 74.0485 267.096 73.8725C260.292 68.4782 250.662 73.533 246.256 79.6989C245.786 80.4036 246.9 80.9309 247.312 80.285C251.248 74.8238 260.114 69.9456 266.214 74.7536C266.215 74.5188 266.156 74.2254 266.156 73.9906C264.159 76.8093 261.34 79.1591 257.935 80.2182C254.471 81.336 250.833 80.8692 247.606 79.2871C246.843 78.8768 246.197 79.9924 246.901 80.344Z" fill="#01686F"/>
<path d="M238.04 78.2965C234.808 83.7572 237.208 92.8525 243.719 96.545C247.189 88.1495 243.729 83.633 238.393 78.2963" fill="white"/>
<path d="M237.512 78.0034C233.81 84.5209 237.207 93.4393 243.426 97.0733C243.778 97.3078 244.189 97.014 244.306 96.6618C245.659 93.3154 246.249 89.5587 244.901 86.097C243.671 82.87 241.208 80.2895 238.804 77.885C238.217 77.2985 237.336 78.1796 237.923 78.766C240.151 80.9946 242.556 83.399 243.727 86.4501C245.016 89.7357 244.368 93.199 243.074 96.3693C243.368 96.193 243.661 96.1341 243.955 95.9578C238.323 92.6754 235.16 84.4612 238.568 78.5895C238.98 77.9436 237.865 77.2988 237.512 78.0034Z" fill="#01686F"/>
<path d="M229.942 76.4247C235.869 77.5353 247.671 70.8942 249.143 64.9653C239.107 64.3274 235.583 68.5559 229.767 75.6619" fill="white"/>
<path d="M229.825 77.0118C233.815 77.713 238.218 75.8902 241.624 73.8921C244.971 71.9528 248.788 69.074 249.847 65.0822C249.906 64.6714 249.672 64.3194 249.261 64.261C245.27 64.0293 241.22 64.5606 237.814 66.6761C234.467 68.8503 231.941 72.0802 229.415 75.0754C228.886 75.7214 229.766 76.601 230.295 75.955C232.703 73.0773 234.995 69.965 238.166 67.8497C241.513 65.6755 245.387 65.203 249.26 65.4348C249.084 65.1415 248.85 64.9069 248.674 64.6136C247.791 68.1944 244.091 70.8383 241.038 72.6014C237.926 74.4232 233.875 76.2457 230.178 75.603C229.297 75.6623 229.003 76.8951 229.825 77.0118Z" fill="#01686F"/>
<path d="M219.968 73.146C216.734 79.8979 223.536 88.931 229.168 91.9786C230.347 84.7001 226.42 77.6015 220.613 73.4389" fill="white"/>
<path d="M219.439 72.8528C217.735 76.5517 218.67 80.6593 220.605 84.1206C222.539 87.5818 225.412 90.6902 228.873 92.6244C229.167 92.8002 229.695 92.6237 229.754 92.2129C230.875 84.6409 227.007 77.3662 220.965 72.9691C220.32 72.4413 219.732 73.6156 220.378 74.0259C225.95 78.0713 229.642 84.9353 228.639 91.9203C228.933 91.744 229.226 91.685 229.52 91.5087C226.352 89.7505 223.713 86.994 221.955 83.9435C220.138 80.8342 218.967 76.9616 220.554 73.4976C220.848 72.7344 219.792 72.1483 219.439 72.8528Z" fill="#01686F"/>
<path d="M211.697 66.8723C217.385 73.5 228.482 66.8594 232.184 61.5157C225.731 57.9992 215.927 60.7652 211.697 66.8723Z" fill="white"/>
<path d="M211.286 67.2835C216.153 72.8554 224.372 69.445 229.188 65.5677C230.539 64.4515 231.772 63.2181 232.829 61.8087C233.006 61.5151 232.83 61.1044 232.595 60.9872C225.555 57.2364 215.752 60.1198 211.286 66.5792C210.875 67.2251 211.931 67.8112 212.342 67.1653C216.455 61.2931 225.554 58.645 232.008 62.0441C231.949 61.7507 231.832 61.516 231.774 61.2226C228.013 66.5077 217.738 72.6781 212.225 66.4611C211.639 65.8746 210.758 66.7557 211.286 67.2835Z" fill="#01686F"/>
<path d="M206.068 60.3034C201.837 66.7626 203.765 78.0884 210.57 81.9568C212.807 73.8558 210.581 67.7536 206.536 61.4768" fill="white"/>
<path d="M205.54 60.0099C201.133 66.8801 203.002 78.2646 210.276 82.4848C210.628 82.7193 211.098 82.4841 211.157 82.0733C212.099 78.4337 212.395 74.6186 211.518 70.9217C210.699 67.4009 208.999 64.1742 207.065 61.0651C206.654 60.4198 205.598 61.0076 206.008 61.6528C207.825 64.5273 209.466 67.5779 210.285 70.9814C211.163 74.5608 210.925 78.1998 209.983 81.722C210.277 81.5457 210.571 81.4868 210.864 81.3105C204.176 77.442 202.6 66.8202 206.596 60.4786C207.066 59.8913 206.01 59.3052 205.54 60.0099Z" fill="#01686F"/>
<path d="M201.556 50.2707C205.895 56.2538 214.755 59.5924 221.273 54.4813C215.937 48.5576 208.66 47.7416 201.615 49.9772" fill="white"/>
<path d="M201.028 50.564C205.777 56.9577 214.989 60.1786 221.684 54.8913C221.977 54.715 221.86 54.2456 221.685 53.9522C219.163 51.1957 215.937 49.144 212.181 48.4426C208.543 47.7411 204.845 48.1548 201.381 49.2726C200.618 49.5666 200.911 50.6815 201.674 50.5049C204.961 49.4459 208.483 48.9737 211.886 49.6753C215.407 50.3769 218.399 52.194 220.804 54.8333C220.804 54.5985 220.804 54.2464 220.804 53.8942C214.755 58.6528 206.306 55.49 202.085 49.8589C201.675 49.331 200.559 49.9775 201.028 50.564Z" fill="#01686F"/>
<path d="M198.333 43.5234C198.621 51.5638 196.208 59.841 189.572 64.4827C185.234 58.1474 189.762 46.2298 197.335 44.7567" fill="white"/>
<path d="M197.746 43.5242C197.975 51.1538 195.797 59.3135 189.338 64.0137C189.631 64.0722 189.866 64.1894 190.159 64.2478C185.997 58.0885 190.055 46.9928 197.569 45.4611C198.332 45.2845 198.039 44.0522 197.276 44.2288C189.117 45.9371 184.53 58.0309 189.102 64.8356C189.278 65.1289 189.689 65.3046 189.924 65.0697C196.736 60.1344 199.207 51.6811 198.979 43.5819C198.921 42.7016 197.747 42.7025 197.746 43.5242Z" fill="#01686F"/>
<path d="M184.437 26.8077C190.361 31.6744 194.288 37.9513 197.511 44.8157C200.441 51.0346 202.783 57.6062 206.77 63.2374C211.284 69.5139 217.619 73.7347 225.013 75.9593C229.414 77.3058 234.05 77.9478 238.509 79.0008C242.441 79.8782 246.372 80.9903 250.186 82.4546C254.235 84.0362 258.165 86.2047 261.567 88.9018C265.556 92.0681 268.957 95.939 271.947 100.104C272.709 101.218 274.47 100.161 273.767 99.1047C268.784 92.0069 262.626 85.9665 254.764 82.2163C247.255 78.5833 238.98 76.8876 230.882 75.2505C226.423 74.3149 222.08 73.1444 218.15 70.8585C214.982 69.1002 212.167 66.7547 209.821 63.9394C205.423 58.6019 202.905 52.0892 200.151 45.9288C196.694 38.1255 192.474 30.8511 185.846 25.398C184.849 24.5184 183.381 25.9868 184.437 26.8077Z" fill="#01686F"/>
<path d="M265.03 89.5451C267.73 88.604 270.898 90.0101 273.48 90.8298C276.824 91.9424 280.463 92.2917 283.985 91.7021C284.689 91.5842 284.397 90.5867 283.692 90.7046C280.112 91.3529 276.473 90.7688 273.07 89.5976C270.488 88.7779 267.437 87.6064 264.737 88.5476C264.15 88.7828 264.442 89.7803 265.03 89.5451Z" fill="#01686F"/>
<path d="M248.075 80.1088C251.128 78.9326 254.356 78.2845 257.409 77.3431C260.286 76.4606 263.162 75.2258 266.097 74.5193C266.743 74.3427 266.45 73.3452 265.805 73.5218C262.811 74.287 259.993 75.463 257.116 76.3456C253.946 77.2871 250.835 77.9351 247.782 79.1112C247.195 79.3464 247.488 80.344 248.075 80.1088Z" fill="#01686F"/>
<path d="M272.592 100.515C274.762 103.154 276.168 106.205 278.22 108.962C280.213 111.66 282.853 113.947 285.199 116.293C285.668 116.762 286.431 115.998 285.903 115.588C283.44 113.125 280.684 110.721 278.632 107.846C276.814 105.207 275.349 102.332 273.297 99.8097C272.945 99.2231 272.182 99.9867 272.592 100.515Z" fill="#01686F"/>
<path d="M231.586 76.424C233.994 73.8985 237.341 72.4286 240.218 70.4896C242.802 68.7269 245.386 66.7295 248.439 65.6707C249.026 65.4355 248.85 64.4379 248.146 64.6732C245.035 65.7907 242.392 67.7295 239.691 69.6097C236.755 71.6074 233.291 73.0774 230.765 75.7204C230.413 76.1902 231.175 76.9526 231.586 76.424Z" fill="#01686F"/>
<path d="M212.753 67.459C219.444 66.5148 225.434 62.2845 232.184 62.1032C232.888 62.1027 232.889 61.0462 232.185 61.0468C225.318 61.2281 219.21 65.4585 212.46 66.4615C211.815 66.5207 212.107 67.5182 212.753 67.459Z" fill="#01686F"/>
<path d="M219.849 73.9682C221.664 80.1293 224.712 85.7613 228.288 91.0994C228.639 91.686 229.52 91.1571 229.169 90.5705C225.651 85.291 222.662 79.7177 220.847 73.6739C220.672 73.0285 219.674 73.3227 219.849 73.9682Z" fill="#01686F"/>
<path d="M237.981 79.1777C238.153 85.2227 240.672 90.679 243.074 96.1354C243.367 96.7808 244.248 96.2519 243.955 95.6065C241.612 90.3262 239.151 85.0459 238.979 79.2356C238.98 78.5313 237.923 78.5322 237.981 79.1777Z" fill="#01686F"/>
<path d="M254.41 84.6817C254.405 91.4898 256.747 98.4135 260.382 104.162C260.733 104.749 261.614 104.22 261.262 103.634C257.687 98.0607 255.462 91.2543 255.408 84.6223C255.467 83.9766 254.411 83.9774 254.41 84.6817Z" fill="#01686F"/>
<path d="M202.084 51.0339C207.775 53.201 213.819 55.0158 219.923 55.0111C220.627 55.0106 220.628 53.9541 219.924 53.9547C213.879 53.9006 207.893 52.1445 202.319 49.9773C201.733 49.7429 201.439 50.7409 202.084 51.0339Z" fill="#01686F"/>
<path d="M205.48 62.065C205.067 65.0585 205.886 68.1098 206.647 70.9851C207.056 72.5694 207.407 74.0951 207.876 75.6207C208.402 77.3223 209.047 79.0238 209.691 80.7254C209.925 81.3121 210.982 81.0765 210.689 80.4312C210.103 78.9057 209.459 77.3215 208.932 75.7373C208.464 74.2117 208.113 72.686 207.703 71.1016C207.001 68.285 206.064 65.2338 206.419 62.299C206.536 61.712 205.539 61.4193 205.48 62.065Z" fill="#01686F"/>
<path d="M190.219 63.7199C191.104 57.0872 194.865 51.5674 198.038 45.8132C198.391 45.226 197.452 44.7572 197.158 45.2857C193.985 51.0398 190.165 56.7358 189.28 63.3685C189.103 64.1316 190.101 64.4243 190.219 63.7199Z" fill="#01686F"/>
<path d="M21.9139 112.856C13.6986 111.101 8.69835 126.071 7.40292 131.589C13.5085 129.354 23.6688 120.484 21.9139 112.856Z" fill="white"/>
<path d="M22.0318 112.269C17.3372 111.333 13.8715 115.151 11.7559 118.791C9.40528 122.667 7.81725 127.07 6.75748 131.414C6.69847 131.825 7.1089 132.353 7.51987 132.176C11.6294 130.647 15.3291 127.768 18.2075 124.421C21.0271 121.249 23.4954 117.022 22.501 112.621C22.3255 111.858 21.0928 112.152 21.2683 112.915C22.1455 116.964 19.5601 120.957 16.9754 123.893C14.3321 126.889 10.9259 129.591 7.16863 131.003C7.40321 131.237 7.69644 131.53 7.93102 131.765C8.87314 127.773 10.3434 123.84 12.283 120.258C14.1637 116.853 17.2776 112.566 21.6787 113.443C22.559 113.618 22.8534 112.386 22.0318 112.269Z" fill="#01686F"/>
<path d="M37.2382 104.686C33.1931 98.7613 21.8685 95.1899 16.875 101.474C20.1005 104.699 31.4263 106.627 35.8878 105.333" fill="white"/>
<path d="M37.8258 104.334C33.6048 98.1155 22.0458 94.1921 16.5236 101.004C16.2887 101.239 16.2297 101.65 16.5229 101.944C18.9275 104.231 22.6829 105.167 25.8518 105.751C29.138 106.336 32.8938 106.92 36.1812 105.978C36.9443 105.801 36.6518 104.569 35.8887 104.746C32.8361 105.57 29.2564 105.044 26.2049 104.46C24.4445 104.109 22.7428 103.699 21.0412 103.055C19.7504 102.587 18.401 101.942 17.4627 101.004C17.4625 101.239 17.4622 101.591 17.4619 101.943C22.3967 95.8352 32.8996 99.4073 36.8276 104.98C37.1205 105.625 38.2361 104.979 37.8258 104.334Z" fill="#01686F"/>
<path d="M41.2875 105.094C35.181 108.62 27.072 121.186 34.1689 127.343C40.9827 119.943 43.2162 115.716 40.3478 106.034" fill="white"/>
<path d="M40.9946 104.566C37.8826 106.388 35.4153 109.324 33.5936 112.319C31.7132 115.372 30.3017 119.129 30.8858 122.768C31.2364 124.763 32.1741 126.523 33.6991 127.813C33.9337 128.048 34.3445 128.106 34.6381 127.812C37.3989 124.817 40.2185 121.646 41.5127 117.771C42.8068 113.896 42.1057 109.789 40.9935 105.975C40.818 105.212 39.5853 105.506 39.7608 106.269C40.8144 109.907 41.5157 113.78 40.3391 117.42C39.1038 121.118 36.343 124.114 33.7585 126.933C33.9932 126.932 34.3454 126.932 34.6975 126.932C31.2372 123.824 31.8277 119.128 33.5326 115.312C35.2962 111.554 38.1163 107.796 41.6393 105.681C42.2853 105.269 41.6405 104.155 40.9946 104.566Z" fill="#01686F"/>
<path d="M55.3181 100.799C48.507 104.677 39.0656 94.5312 37.0744 89.0158C43.3531 90.4783 54.0331 92.7003 56.4336 100.27" fill="white"/>
<path d="M54.9662 100.212C51.3846 102.151 47.3366 99.9829 44.5212 97.7548C41.7058 95.4093 38.891 92.3596 37.6612 88.8978C37.4262 89.1327 37.1326 89.4264 36.8976 89.6613C40.5358 90.4802 44.174 91.2991 47.5769 92.8224C51.0972 94.3457 54.4994 96.6907 55.8464 100.505C56.1392 101.267 57.3133 100.914 57.0791 100.21C54.3855 92.2303 44.527 90.125 37.2507 88.4872C36.8399 88.4289 36.3701 88.7814 36.4871 89.2508C37.8927 93.1233 40.9419 96.6424 44.2267 99.1049C47.3941 101.567 51.7944 103.501 55.6696 101.385C56.3743 100.915 55.7295 99.8003 54.9662 100.212Z" fill="#01686F"/>
<path d="M61.3071 97.0375C58.0759 101.207 54.083 103.675 54.1958 109.661C54.3695 112.772 55.4815 116.821 57.8862 118.873C62.0577 113.059 65.4684 104.488 60.6604 98.3879" fill="white"/>
<path d="M60.8384 96.5683C58.3122 99.7982 54.7887 102.501 53.8464 106.61C53.3166 108.782 53.5495 111.129 54.1348 113.242C54.72 115.471 55.7161 117.642 57.4756 119.167C57.7689 119.46 58.2385 119.342 58.4148 119.049C62.7625 113.059 66.1146 104.311 61.1309 97.8005C60.6031 97.1553 59.7808 98.095 60.2498 98.6816C64.8818 104.723 61.2953 113.001 57.4175 118.404C57.711 118.345 58.0632 118.345 58.3567 118.286C56.7731 116.82 55.8357 114.708 55.3091 112.654C54.7824 110.6 54.608 108.429 55.1965 106.433C56.2557 102.793 59.4856 100.267 61.7768 97.3892C62.188 96.8607 61.3671 95.9222 60.8384 96.5683Z" fill="#01686F"/>
<path d="M67.1245 88.2881C59.7275 90.8762 49.87 87.4797 45.9432 80.3811C53.3977 79.3777 64.6665 79.1342 67.5354 88.1117" fill="white"/>
<path d="M66.9491 87.76C59.5522 90.2306 50.3402 87.0097 46.5306 80.1459C46.3543 80.4394 46.2954 80.7329 46.1191 81.0265C53.3975 80.0819 64.1381 79.7802 67.0074 88.2881C67.3003 89.0509 68.4744 88.6978 68.2402 87.9937C65.1367 78.6643 53.9267 78.7316 45.8266 79.7942C45.4157 79.8533 45.2392 80.3816 45.4151 80.6749C49.5178 88.0668 59.3165 91.522 67.2417 88.8749C68.0636 88.6395 67.7123 87.4659 66.9491 87.76Z" fill="#01686F"/>
<path d="M71.6502 79.8917C71.0002 85.7026 74.2212 94.7972 83.727 97.4896C83.5567 89.9187 80.2177 81.6459 72.7659 79.1279" fill="white"/>
<path d="M71.0043 79.9512C70.5907 83.5317 71.5856 87.2285 73.4026 90.3377C75.6299 94.2095 79.3254 96.8478 83.5501 98.1357C83.9022 98.2528 84.372 97.9003 84.3722 97.5482C84.1434 89.8012 80.7458 81.3523 72.9421 78.5999C72.1793 78.307 71.8849 79.5397 72.6477 79.8326C79.8646 82.4681 82.9691 90.5064 83.1397 97.6078C83.4333 97.4315 83.6682 97.1966 83.9618 97.0203C76.6271 94.8544 71.5265 87.7567 72.3541 80.0089C72.2961 79.1286 71.1223 79.1295 71.0043 79.9512Z" fill="#01686F"/>
<path d="M74.7099 69.4421C70.8906 75.2554 57.9218 72.7417 54.6979 67.5207C62.5648 64.4627 68.2592 62.639 74.534 69.2662" fill="white"/>
<path d="M74.1822 69.1498C72.1257 72.1446 67.7237 72.4414 64.4374 71.9744C61.151 71.5074 57.1024 70.1606 55.2266 67.2275C55.0503 67.5211 54.9914 67.8146 54.8151 68.1082C58.044 66.8732 61.5079 65.4033 65.0293 65.4006C68.6095 65.3392 71.6013 67.1563 74.0644 69.7368C74.6508 70.3232 75.5319 69.4422 74.9454 68.8557C72.3651 66.1579 69.1386 64.2236 65.3237 64.1679C61.5675 64.1708 57.9276 65.5821 54.4638 66.9347C54.1116 67.0523 53.8178 67.4634 54.0523 67.8154C55.6937 70.3965 58.6858 71.8615 61.561 72.6222C64.671 73.5002 68.2509 73.7909 71.3037 72.6147C72.8301 72.0267 74.2394 71.0865 75.1795 69.6772C75.7082 69.0312 74.6523 68.4451 74.1822 69.1498Z" fill="#01686F"/>
<path d="M78.4158 58.582C75.6522 65.2162 83.0975 76.1856 89.3758 78.235C88.1488 71.1343 87.5694 61.2747 79.8837 57.7005" fill="white"/>
<path d="M77.8292 58.4654C76.2415 62.3989 77.94 67.0342 79.9915 70.4954C82.1017 74.0152 85.2683 77.5342 89.2582 78.9397C89.7276 79.0567 90.0801 78.5869 90.0217 78.1761C88.6777 70.6061 88.1568 61.0399 80.1777 57.2898C79.4737 56.9382 78.8273 58.0538 79.59 58.3467C87.1584 61.921 87.5033 71.3113 88.789 78.4705C89.0239 78.2356 89.3176 77.9419 89.5526 77.707C85.9147 76.4186 83.0414 73.0754 81.1071 69.8489C79.1728 66.6224 77.5914 62.4566 79.0615 58.7579C79.3555 57.9947 78.1232 57.7022 77.8292 58.4654Z" fill="#01686F"/>
<path d="M83.7644 48.4244C77.8336 52.4786 68.9714 52.3094 64.2807 46.3265C68.5082 44.093 80.5422 40.9732 82.8264 47.1339" fill="white"/>
<path d="M83.4715 47.8965C77.6582 51.7159 69.2654 51.6636 64.692 45.9154C64.6331 46.2089 64.6328 46.5611 64.5739 46.8546C67.3922 45.3265 70.7969 44.5022 74.0251 44.2062C76.8424 43.9693 81.0681 44.0834 82.2395 47.2518C82.5323 48.0146 83.7064 47.6615 83.4722 46.9574C81.1877 41.1488 72.6176 42.7987 68.0387 44.2108C66.6885 44.6227 65.2795 45.0933 63.9878 45.7986C63.5768 45.975 63.6351 46.5032 63.8697 46.7377C68.7363 52.8965 77.9506 53.0655 84.1163 48.8937C84.7035 48.5411 84.1174 47.4852 83.4715 47.8965Z" fill="#01686F"/>
<path d="M89.5825 39.0883C86.935 47.4831 89.3961 52.5286 95.3782 58.1583C96.6737 52.6404 96.7994 41.8412 90.874 38.7351" fill="white"/>
<path d="M88.9371 38.9123C87.8779 42.4346 87.4055 46.1911 88.6353 49.7703C89.8651 53.2321 92.3279 56.0474 94.9084 58.5104C95.2603 58.8623 95.8473 58.7445 95.9064 58.2162C96.7895 54.6354 96.8511 50.8205 96.3844 47.182C95.8589 43.7196 94.3945 39.9059 91.1092 38.1477C90.4052 37.7961 89.8175 38.853 90.5215 39.2046C93.5721 40.8456 94.8019 44.4247 95.2689 47.7111C95.6771 51.0561 95.5571 54.5777 94.7329 57.865C95.0851 57.7473 95.4373 57.6297 95.7308 57.5707C93.2676 55.225 90.922 52.6444 89.7507 49.3586C88.6381 46.0141 89.0517 42.4337 90.052 39.0875C90.4046 38.5004 89.2311 38.1491 88.9371 38.9123Z" fill="#01686F"/>
<path d="M123.16 31.1974C118.701 29.2054 113.889 27.8005 108.9 27.9804C104.733 28.1597 100.741 29.3366 97.1596 31.5109C89.7025 35.9184 84.5906 43.4934 80.7111 51.1262C76.9492 58.5241 74.2433 66.5081 72.0656 74.5504C70.3587 80.8317 67.7127 87.231 63.6591 92.3402C59.958 96.9796 54.7898 101.444 48.8609 103.033C40.2316 105.329 30.0802 102.578 23.3838 109.861C22.5027 110.859 21.6802 111.916 21.0338 113.032C20.3286 114.206 22.1472 115.203 22.8524 114.028C25.3206 109.918 29.0786 107.568 33.7745 106.742C38.1769 105.976 42.6372 106.207 46.9809 105.5C52.5572 104.615 57.2547 101.677 61.3659 97.9176C66.2407 93.3946 69.7078 87.699 72.0602 81.5933C73.7655 77.3076 74.7667 72.7876 76.2373 68.3847C77.4729 64.4515 78.9432 60.5181 80.5894 56.7606C83.9994 49.0108 88.4072 41.2016 95.0435 35.7382C98.0973 33.2709 101.679 31.3313 105.553 30.6241C109.956 29.7403 114.416 30.3238 118.582 31.6705C119.872 32.139 121.105 32.5489 122.337 33.1936C123.393 33.5449 124.392 31.7247 123.16 31.1974Z" fill="#01686F"/>
<path d="M8.45944 131.119C10.9267 128.183 13.3353 125.188 15.6267 122.075C17.8005 119.08 20.5023 116.496 22.2068 113.267C22.5594 112.679 21.6207 112.211 21.3268 112.739C19.6811 115.91 17.0968 118.377 14.923 121.254C12.6317 124.367 10.223 127.479 7.63831 130.416C7.2858 130.885 8.0482 131.648 8.45944 131.119Z" fill="#01686F"/>
<path d="M18.0485 101.825C21.2179 101.705 24.3871 101.82 27.556 102.287C30.6076 102.754 33.7176 103.515 36.3574 105.215C36.944 105.567 37.4729 104.686 36.8863 104.334C34.1879 102.575 31.0192 101.756 27.8502 101.289C24.6227 100.763 21.3947 100.707 18.1079 100.827C17.345 100.769 17.3442 101.825 18.0485 101.825Z" fill="#01686F"/>
<path d="M37.5425 90.3069C40.7107 91.7131 43.3499 94.1174 46.2244 95.9346C49.0987 97.8692 52.0319 99.6276 55.3766 100.505C56.0221 100.681 56.3163 99.683 55.6708 99.5075C52.2675 98.571 49.3343 96.8125 46.46 94.878C43.6442 93.002 41.1223 90.715 38.0127 89.3675C37.5434 89.1331 37.0145 90.0139 37.5425 90.3069Z" fill="#01686F"/>
<path d="M46.764 81.3202C53.2767 83.8389 60.0835 85.5944 66.4785 88.5827C67.0652 88.817 67.5941 87.9363 67.0074 87.702C60.6124 84.7136 53.747 82.8995 47.1169 80.3809C46.4129 80.0293 46.1773 81.0859 46.764 81.3202Z" fill="#01686F"/>
<path d="M55.6952 68.4009C61.7398 69.1592 67.7257 69.8589 73.7701 70.852C74.4156 70.9102 74.7098 69.9122 74.0643 69.8541C68.0199 68.861 61.858 68.1027 55.7547 67.4031C55.0505 67.2863 55.0496 68.3427 55.6952 68.4009Z" fill="#01686F"/>
<path d="M65.1608 47.2066C70.7352 48.787 76.547 46.9631 82.0627 48.6022C82.7082 48.7778 83.0024 47.7798 82.3569 47.6042C76.8413 45.9651 71.0295 47.789 65.4551 46.2086C64.8096 46.0331 64.5741 46.9723 65.1608 47.2066Z" fill="#01686F"/>
<path d="M34.7562 127.108C35.994 120.123 37.5841 113.137 40.4062 106.679C40.6414 106.092 39.7614 105.564 39.5262 106.152C36.6453 112.786 34.9966 119.713 33.7586 126.815C33.6407 127.519 34.697 127.753 34.7562 127.108Z" fill="#01686F"/>
<path d="M58.5327 118.11C57.6573 111.713 59.247 105.08 60.8364 98.9162C61.013 98.2705 60.0155 97.9778 59.8389 98.6236C58.1907 104.963 56.6595 111.773 57.5935 118.345C57.6517 118.991 58.6496 118.814 58.5327 118.11Z" fill="#01686F"/>
<path d="M71.8264 79.9508C75.1087 85.6999 77.98 91.6255 82.6715 96.4345C83.1407 96.9037 83.8455 96.1989 83.3763 95.7297C78.7433 91.0967 75.9308 85.1124 72.7071 79.5393C72.4141 78.8939 71.4747 79.3641 71.8264 79.9508Z" fill="#01686F"/>
<path d="M78.6507 58.1122C80.9963 60.8102 81.2867 64.7423 82.6341 67.9692C83.3371 69.7294 84.3336 71.3133 85.2714 72.9559C86.3264 74.7158 87.4402 76.5344 88.7302 78.0593C89.1406 78.5872 89.9042 77.8237 89.435 77.3545C88.0865 75.6535 86.9141 73.7763 85.8591 71.899C84.8627 70.1977 83.8076 68.4378 83.2221 66.5602C82.1681 63.3917 81.6426 59.9293 79.4143 57.3487C78.9451 56.8795 78.1816 57.6431 78.6507 58.1122Z" fill="#01686F"/>
<path d="M90.11 39.3816C91.2791 45.4845 92.6244 51.5286 94.6741 57.3375C94.9084 57.9242 95.9063 57.7473 95.672 57.0432C93.5049 51.2345 92.1597 45.1904 91.108 39.0874C90.991 38.5006 89.9932 38.6774 90.11 39.3816Z" fill="#01686F"/>
<path d="M159.158 3.64367C158.497 23.6577 169.101 48.8279 188.462 57.8514C192.348 41.0628 186.269 8.55285 160.509 2.29274" fill="white"/>
<path d="M158.161 3.70354C157.919 12.1552 159.497 20.6641 162.485 28.5851C165.589 36.7407 170.161 44.4844 176.377 50.5834C179.838 53.9261 183.709 56.7403 188.051 58.8498C188.637 59.0842 189.4 58.9075 189.518 58.2031C191.344 50.0437 190.881 41.2405 188.892 33.1427C186.727 24.1646 182.45 15.3056 175.412 9.08982C171.247 5.39551 166.202 2.817 160.803 1.41257C159.513 1.06142 158.983 3.116 160.274 3.46715C169.486 5.74901 176.877 11.8472 181.507 20.0016C185.903 27.5693 188.126 36.4886 188.472 45.292C188.645 49.4589 188.407 53.6848 187.464 57.7939C187.934 57.5587 188.462 57.3823 188.932 57.1471C173.619 49.9399 164.476 33.5136 161.319 17.4347C160.384 12.975 160.035 8.39735 160.156 3.81938C160.275 2.29333 158.22 2.35361 158.161 3.70354Z" fill="#01686F"/>
<path d="M162.912 7.98387C172.235 19.1866 175.745 33.7392 181.721 46.764C183.362 50.4015 185.296 53.8628 187.582 57.2064C188.227 58.0863 189.637 57.2635 188.992 56.3837C180.726 44.3584 177.626 29.7468 170.769 16.8988C168.835 13.3202 166.608 9.91783 164.028 6.75051C163.441 5.92929 162.267 7.10401 162.912 7.98387Z" fill="#01686F"/>
<path d="M181.489 43.8299C184.012 44.591 186.418 45.8216 188.529 47.3459C189.174 47.7563 189.762 46.6994 189.117 46.2891C186.888 44.7648 184.365 43.5342 181.783 42.7146C181.021 42.4217 180.726 43.6544 181.489 43.8299Z" fill="#01686F"/>
<path d="M177.857 35.2639C181.26 36.4351 184.84 36.8432 188.184 38.3079C188.888 38.6595 189.535 37.5439 188.772 37.251C185.369 35.7277 181.672 35.3197 178.21 34.0898C177.389 33.7383 177.094 34.9711 177.857 35.2639Z" fill="#01686F"/>
<path d="M173.521 25.1725C177.511 27.3997 182.03 27.6896 186.254 29.2124C187.017 29.5052 187.311 28.2725 186.549 27.9796C182.441 26.4568 177.981 26.2255 174.109 24.1156C173.405 23.764 172.817 24.8209 173.521 25.1725Z" fill="#01686F"/>
<path d="M178.793 38.4325C177.793 41.5439 177.204 44.8311 175.558 47.6495C175.147 48.2954 176.262 48.9401 176.614 48.2356C178.377 45.2997 179.026 41.9538 180.026 38.7251C180.261 38.0206 179.029 37.7281 178.793 38.4325Z" fill="#01686F"/>
<path d="M174.809 29.3971C172.987 33.096 170.813 36.6778 169.695 40.611C169.518 41.3741 170.692 41.7253 170.927 40.9035C172.104 37.029 174.161 33.5646 175.924 29.9245C176.335 29.2785 175.221 28.6338 174.809 29.3971Z" fill="#01686F"/>
<path d="M171.06 20.2445C169.768 22.1236 169.003 24.2957 168.18 26.4092C167.709 27.466 167.239 28.5228 166.593 29.5211C166.005 30.4606 165.417 31.4001 164.947 32.4569C164.653 33.2201 165.885 33.5126 166.179 32.7494C166.591 31.6339 167.296 30.6943 167.884 29.7548C168.471 28.8153 168.883 27.8173 169.294 26.8192C170.118 24.8231 170.824 22.7097 172.116 20.8306C172.645 20.1846 171.589 19.5985 171.06 20.2445Z" fill="#01686F"/>
<path d="M167.661 13.7908C165.487 16.6683 163.724 19.7216 161.609 22.6578C161.198 23.3037 162.254 23.8898 162.665 23.2439C164.663 20.4252 166.367 17.4307 168.482 14.6119C168.658 14.3183 168.717 14.0248 168.483 13.6728C168.365 13.5555 167.837 13.4972 167.661 13.7908Z" fill="#01686F"/>
<path d="M142.013 13.0482C116.362 17.3523 98.5016 41.664 95.0791 65.6124C117.5 63.9519 143.698 36.3471 143.48 14.1622" fill="white"/>
<path d="M141.721 12.0504C121.646 15.4699 105.964 31.1523 98.3784 49.5283C96.3203 54.636 94.7903 59.9194 94.0231 65.3782C93.9053 65.9652 94.3155 66.7278 95.0198 66.7273C104.939 65.9567 114.158 60.8435 121.792 54.6165C129.897 47.9195 136.946 39.3452 141.003 29.6581C143.061 24.7852 144.474 19.502 144.419 14.1612C144.42 12.87 142.366 12.8128 142.306 14.1628C142.358 23.6119 137.949 32.7124 132.426 40.2291C126.492 48.3916 118.563 55.4993 109.58 60.1428C105.001 62.4939 100.01 64.1998 94.9041 64.6145C95.2559 65.0838 95.549 65.4944 95.9008 65.9637C98.6737 47.1218 109.839 28.8017 126.69 19.4569C131.446 16.8122 136.671 14.9888 142.072 14.0456C143.598 13.8096 143.012 11.8146 141.721 12.0504Z" fill="#01686F"/>
<path d="M97.1334 65.3173C109.762 52.6891 122.097 39.7676 132.907 25.5562C135.962 21.5629 138.899 17.4523 141.661 13.2831C142.249 12.3436 140.782 11.5817 140.253 12.4625C130.499 27.2601 118.75 40.6506 106.474 53.3959C103.009 56.9787 99.5433 60.5615 95.9604 64.1444C95.1969 64.9079 96.3698 66.0809 97.1334 65.3173Z" fill="#01686F"/>
<path d="M106.356 54.6875C106.119 57.2701 106.469 59.8522 105.822 62.3764C105.645 63.1395 106.819 63.4908 107.054 62.6689C107.702 60.0273 107.352 57.3278 107.589 54.6279C107.589 54.2757 107.296 53.9825 106.944 53.9828C106.591 54.1004 106.356 54.3354 106.356 54.6875Z" fill="#01686F"/>
<path d="M113.698 47.3455C114.458 50.8076 114.103 54.3293 113.983 57.8509C113.983 58.6725 115.215 58.6129 115.275 57.8499C115.395 54.211 115.75 50.5719 114.931 47.051C114.697 46.2296 113.522 46.5826 113.698 47.3455Z" fill="#01686F"/>
<path d="M120.747 39.8278C122.27 43.4654 122.619 47.4561 122.792 51.3883C122.85 52.1512 124.083 52.2089 124.083 51.3873C123.852 47.2791 123.444 43.1124 121.863 39.2987C121.745 38.9466 121.276 38.947 121.041 39.0646C120.689 39.1822 120.571 39.5344 120.747 39.8278Z" fill="#01686F"/>
<path d="M127.209 31.8406C128.791 35.3021 130.021 38.8813 131.485 42.4603C131.778 43.2231 132.952 42.87 132.718 42.1659C131.312 38.5282 129.965 34.8317 128.383 31.2528C127.914 30.5488 126.857 31.1366 127.209 31.8406Z" fill="#01686F"/>
<path d="M133.318 24.2061C135.135 27.1979 135.896 30.66 137.126 34.0045C137.419 34.7672 138.593 34.4142 138.358 33.7101C137.128 30.3656 136.31 26.7275 134.434 23.677C134.024 22.9143 132.908 23.5608 133.318 24.2061Z" fill="#01686F"/>
<path d="M109.823 49.8133C106.242 50.3443 102.721 50.5818 99.14 51.2301C98.3769 51.4068 98.7281 52.5803 99.4325 52.4624C102.954 51.7554 106.535 51.5766 110.115 51.0456C110.409 50.9867 110.644 50.6344 110.527 50.2823C110.468 49.8715 110.116 49.7544 109.823 49.8133Z" fill="#01686F"/>
<path d="M116.754 42.5302C112.176 42.5337 107.657 41.8916 103.079 42.0125C102.258 42.0131 102.257 43.3043 103.078 43.3037C107.656 43.1828 112.175 43.8249 116.753 43.8214C117.574 43.8208 117.517 42.5883 116.754 42.5302Z" fill="#01686F"/>
<path d="M123.686 34.7776C118.932 34.1357 114.296 33.611 109.543 32.7343C108.78 32.5588 108.485 33.7915 109.248 33.967C113.943 34.7851 118.638 35.3684 123.391 36.0103C124.154 36.0684 124.448 34.8357 123.686 34.7776Z" fill="#01686F"/>
<path d="M134.387 9.41539C109.275 -1.48178 92.9529 6.86484 78.8504 28.5912C95.1026 35.2108 122.928 27.0901 134.562 10.6478" fill="white"/>
<path d="M134.915 8.5341C126.643 4.96032 117.606 2.61964 108.625 4.09381C100.642 5.39114 93.5373 9.7984 87.8986 15.5544C84.0807 19.3722 80.9081 23.7178 77.9701 28.1806C77.5588 28.8265 78.0279 29.413 78.6146 29.6473C85.89 32.5763 94.2242 32.4525 101.738 31.0381C110.249 29.4469 118.527 26.0952 125.515 20.9838C129.332 18.2224 132.68 14.9918 135.441 11.1748C136.205 10.0591 134.387 9.06272 133.623 10.1784C128.922 16.7554 121.993 21.5734 114.654 24.807C107.257 28.0994 99.0974 30.0424 90.9395 29.8726C86.8899 29.817 82.8407 29.1746 79.0857 27.6515C79.3201 28.1208 79.4957 28.6489 79.7301 29.1182C84.3722 22.0131 89.8944 15.0834 97.2342 10.5585C103.752 6.50387 111.324 5.03078 118.836 5.96406C124.059 6.60565 129.105 8.24511 133.857 10.2956C135.09 10.8229 136.147 9.06137 134.915 8.5341Z" fill="#01686F"/>
<path d="M80.4933 28.7068C91.8841 22.4769 103.978 17.7723 116.599 14.7694C120.18 13.8863 123.76 13.2379 127.4 12.6482C128.456 12.53 127.988 10.887 126.99 11.0639C114.135 13.1279 101.572 16.8938 89.6539 22.3612C86.2487 23.8898 82.902 25.5944 79.614 27.3576C78.7333 27.7691 79.5539 29.1771 80.4933 28.7068Z" fill="#01686F"/>
<path d="M88.7775 17.0218C90.7718 18.5462 92.7662 19.9533 94.9368 21.1841C95.5821 21.5944 96.2286 20.4788 95.5246 20.1272C93.4713 18.8963 91.4768 17.6066 89.6586 16.1407C89.3652 15.9649 89.0132 15.8478 88.7195 16.1415C88.5433 16.3177 88.5429 16.7872 88.7775 17.0218Z" fill="#01686F"/>
<path d="M95.8248 11.4996C98.5818 13.4342 101.221 15.4864 103.684 17.8321C104.271 18.4186 105.152 17.5375 104.566 16.9511C102.102 14.488 99.2869 12.3773 96.4712 10.3839C95.7673 9.91496 95.1209 11.0306 95.8248 11.4996Z" fill="#01686F"/>
<path d="M103.869 7.09133C106.567 9.55427 109.265 12.0172 111.845 14.5976C112.431 15.1841 113.312 14.303 112.726 13.7166C110.146 11.1362 107.448 8.67323 104.75 6.21029C104.163 5.62384 103.282 6.50488 103.869 7.09133Z" fill="#01686F"/>
<path d="M97.1687 19.7738C94.2903 23.1214 91.8811 26.8208 89.1787 30.3443C88.65 30.9903 89.8233 31.5763 90.2346 30.9304C92.8197 27.5244 95.1701 23.8837 97.9898 20.5949C98.5771 20.0075 97.6974 19.1278 97.1687 19.7738Z" fill="#01686F"/>
<path d="M107.384 16.0093C103.566 20.0619 101.507 25.287 98.7453 30.043C98.334 30.689 99.4486 31.3337 99.8013 30.6291C102.505 26.0492 104.563 20.8241 108.205 16.8304C108.851 16.3016 107.971 15.422 107.384 16.0093Z" fill="#01686F"/>
<path d="M114.779 14.4779C113.78 16.7676 112.487 18.8815 111.488 21.1712C111.017 22.228 110.547 23.2848 110.253 24.4001C109.958 25.5155 109.664 26.6308 108.959 27.5704C108.43 28.2164 109.604 28.8024 110.015 28.1565C110.661 27.2757 111.014 26.2189 111.25 25.1623C111.603 23.9882 112.015 22.7554 112.544 21.6399C113.543 19.3502 114.836 17.2363 115.835 14.9466C116.129 14.4182 115.073 13.7147 114.779 14.4779Z" fill="#01686F"/>
<path d="M163.854 2.58418C172.234 20.0089 195.636 39.1828 215.006 36.5855C211.146 19.8029 194.027 -5.0688 163.854 2.58418Z" fill="white"/>
<path d="M162.915 3.05441C166.665 10.7987 172.411 17.6024 178.804 23.2905C185.432 29.0958 193.234 34.0785 201.742 36.4783C206.143 37.7074 210.603 38.1735 215.182 37.5831C215.71 37.524 216.063 36.8194 215.946 36.35C214.132 28.5455 210.264 21.0361 205.104 14.9362C199.182 7.83918 191.087 2.56323 181.932 0.809542C175.829 -0.359583 169.549 0.0560898 163.561 1.58665C162.27 1.93979 162.797 3.87617 164.088 3.64041C173.833 1.16791 184.044 1.98173 192.844 7.13976C200.118 11.3599 205.806 17.9876 209.674 25.3796C211.608 29.0757 213.072 32.8894 214.067 36.9383C214.361 36.5273 214.537 36.1163 214.831 35.7052C206.907 36.7091 198.868 33.9568 192.005 30.1472C184.378 25.9273 177.75 20.122 172.239 13.4355C169.365 9.97496 166.903 6.22064 164.97 2.17247C164.208 0.823165 162.387 1.82231 162.915 3.05441Z" fill="#01686F"/>
<path d="M175.12 6.80142C186.795 12.2507 194.945 22.3979 204.505 30.5486C207.145 32.8355 209.902 34.8875 212.835 36.7634C213.773 37.3496 214.537 35.8817 213.657 35.3542C202.981 28.6717 195.124 18.4655 185.153 10.9607C182.278 8.7914 179.228 6.91565 175.942 5.39221C174.886 4.9235 174.064 6.33271 175.12 6.80142Z" fill="#01686F"/>
<path d="M204.565 30.0203C207.264 29.9009 210.023 30.3096 212.722 30.4249C213.544 30.4243 213.486 29.1918 212.723 29.1337C210.024 29.0184 207.265 28.6097 204.566 28.7291C203.803 28.7884 203.743 30.021 204.565 30.0203Z" fill="#01686F"/>
<path d="M198.29 23.7458C201.929 23.5083 205.627 22.8598 209.383 23.2091C210.146 23.2672 210.206 22.0346 209.384 21.9179C205.687 21.6273 201.989 22.2757 198.291 22.4546C197.528 22.5139 197.527 23.8051 198.29 23.7458Z" fill="#01686F"/>
<path d="M192.249 18.1746C193.835 17.0583 195.772 16.5286 197.65 16.0576C199.529 15.5866 201.466 15.1743 203.344 14.7033C204.107 14.5267 203.815 13.2944 203.052 13.4711C201.115 14.0008 199.119 14.3544 197.182 14.8842C195.245 15.4139 193.249 16.0023 191.663 17.1186C191.017 17.53 191.662 18.6446 192.249 18.1746Z" fill="#01686F"/>
<path d="M186.032 12.7798C189.613 11.4272 193.018 9.78124 196.775 9.07407C197.597 8.95606 197.246 7.7825 196.483 7.84178C192.726 8.54896 189.262 10.1363 185.739 11.5476C184.976 11.8416 185.269 13.0739 186.032 12.7798Z" fill="#01686F"/>
<path d="M200.342 26.7371C201.22 29.6122 202.275 32.4286 202.683 35.4215C202.742 35.7149 202.917 36.0082 203.328 36.0666C203.68 36.0663 203.974 35.7727 203.974 35.4205C203.566 32.3102 202.512 29.3765 201.575 26.4427C201.282 25.6799 200.049 25.9743 200.342 26.7371Z" fill="#01686F"/>
<path d="M194.36 20.8727C194.24 24.5116 194.061 28.2093 193.412 31.7899C193.294 32.6116 194.527 32.9042 194.645 32.0824C195.293 28.3844 195.531 24.628 195.651 20.8717C195.652 20.05 194.36 20.051 194.36 20.8727Z" fill="#01686F"/>
<path d="M187.967 15.0675C187.494 18.9415 186.552 23.0506 184.789 26.5734C184.436 27.2779 185.551 27.9227 185.845 27.1595C187.667 23.3432 188.668 19.1754 189.2 15.0079C189.259 14.2449 188.026 14.3045 187.967 15.0675Z" fill="#01686F"/>
<path d="M181.75 9.20285C179.869 12.8431 179.103 16.8934 177.516 20.7095C177.222 21.4727 178.278 22.0588 178.572 21.2956C180.1 17.5382 180.925 13.4292 182.806 9.78894C183.218 9.02564 182.162 8.43955 181.75 9.20285Z" fill="#01686F"/>
<path d="M147.464 23.3148C149.567 35.9904 155.075 48.0764 162.403 58.5764C164.396 61.5094 166.624 64.3249 169.028 66.9641C169.908 67.9612 171.376 66.4928 170.497 65.4957C162.17 56.1116 155.723 44.8479 151.976 32.8779C150.922 29.592 150.044 26.13 149.518 22.6676C149.285 21.494 147.289 21.965 147.464 23.3148Z" fill="#01686F"/>
<path d="M162.873 57.4021C166.512 57.3993 170.209 58.2768 173.671 59.2719C174.434 59.4474 174.787 58.2733 173.965 58.0392C170.386 56.9268 166.63 56.108 162.816 56.0523C162.053 56.1116 162.052 57.4027 162.873 57.4021Z" fill="#01686F"/>
<path d="M159.649 53.2376C159.53 55.3506 159.352 57.5223 158.939 59.5768C158.586 61.5725 158.114 63.8031 156.822 65.4475C156.293 66.0935 157.467 66.6795 157.878 66.0336C159.171 64.2718 159.759 61.9238 160.113 59.8106C160.525 57.6388 160.703 55.3497 160.822 53.1193C160.94 52.415 159.649 52.4159 159.649 53.2376Z" fill="#01686F"/>
<path d="M157.071 46.9014C160.71 47.3681 164.171 48.8327 167.869 48.5364C168.632 48.4772 168.692 47.2446 167.87 47.2453C164.29 47.5415 160.887 46.1355 157.366 45.6687C157.072 45.6102 156.72 45.7279 156.602 46.0801C156.485 46.4323 156.778 46.8429 157.071 46.9014Z" fill="#01686F"/>
<path d="M153.846 43.6755C153.198 47.1387 151.376 50.2508 149.202 53.0109C149.026 53.3045 149.202 53.7152 149.436 53.8324C149.73 54.0082 150.082 53.8906 150.258 53.597C152.432 50.7195 154.312 47.5487 155.019 43.9094C155.196 43.2636 154.023 42.9124 153.846 43.6755Z" fill="#01686F"/>
<path d="M172.138 68.6638C173.254 67.5478 173.255 65.6697 172.141 64.5554C171.027 63.4411 169.148 63.4426 168.032 64.5586C166.916 65.6745 166.915 67.5526 168.029 68.6669C169.144 69.7812 171.022 69.7797 172.138 68.6638Z" fill="#01686F"/>
<path d="M175.431 60.3273C177.721 58.0366 174.203 54.5179 171.912 56.8086C169.68 59.0405 173.199 62.5593 175.431 60.3273Z" fill="#01686F"/>
<path d="M169.746 49.474C172.037 47.1833 168.518 43.6646 166.227 45.9553C163.995 48.1873 167.514 51.706 169.746 49.474Z" fill="#01686F"/>
<path d="M159.109 67.6178C161.4 65.3271 157.881 61.8083 155.591 64.099C153.359 66.331 156.877 69.8497 159.109 67.6178Z" fill="#01686F"/>
<path d="M152.194 54.8286C154.485 52.5379 150.966 49.0192 148.675 51.3099C146.384 53.6006 149.903 57.1193 152.194 54.8286Z" fill="#01686F"/>
<path d="M149.402 22.4329C148.392 38.2215 140.458 52.6068 130.471 64.5874C127.769 67.8762 124.89 70.989 121.836 74.0433C120.896 74.983 122.362 76.4492 123.302 75.5094C134.462 64.3496 144.332 51.1953 148.922 35.9322C150.275 31.5293 151.042 27.0096 151.338 22.4901C151.574 21.0814 149.461 21.083 149.402 22.4329Z" fill="#01686F"/>
<path d="M121.489 67.5874C125.187 66.7042 129.354 66.4075 132.642 64.2921C133.288 63.8808 132.702 62.8248 132.056 63.2361C128.885 65.3514 124.836 65.5306 121.255 66.4137C120.433 66.5317 120.725 67.764 121.489 67.5874Z" fill="#01686F"/>
<path d="M134.466 60.0065C134.64 62.4127 133.992 64.7022 133.462 66.9915C132.932 69.3982 132.696 71.746 133.34 74.1519C133.515 74.9147 134.748 74.6203 134.572 73.8575C133.285 69.1632 135.988 64.7006 135.757 60.0055C135.699 59.2426 134.407 59.2436 134.466 60.0065Z" fill="#01686F"/>
<path d="M128.776 55.6093C130.536 55.8427 132.356 55.6652 134.058 55.3705C135.819 55.1344 137.58 54.6635 139.224 54.0753C139.576 53.9577 139.576 53.4881 139.459 53.2535C139.283 52.9601 138.872 52.9018 138.638 53.0193C137.052 53.6661 135.409 54.0196 133.765 54.2556C132.122 54.4916 130.42 54.5516 128.776 54.4355C128.424 54.4358 128.131 54.7294 128.13 55.0816C128.189 55.375 128.423 55.6096 128.776 55.6093Z" fill="#01686F"/>
<path d="M142.398 48.2038C142.631 50.5512 142.453 52.8403 142.569 55.1878C142.684 57.5354 143.152 59.7653 144.383 61.8185C144.793 62.4638 145.85 61.8761 145.44 61.2308C143.037 57.3003 144.038 52.663 143.572 48.3203C143.514 47.4399 142.34 47.4408 142.398 48.2038Z" fill="#01686F"/>
<path d="M136.883 45.2732C139.7 45.3884 142.401 44.3299 145.101 43.6235C145.864 43.4469 145.572 42.2146 144.809 42.3913C142.167 43.0389 139.643 44.1559 136.884 43.982C136.063 43.9826 136.062 45.2738 136.883 45.2732Z" fill="#01686F"/>
<path d="M123.594 77.9148C124.71 76.7988 124.712 74.9207 123.597 73.8064C122.483 72.6922 120.605 72.6936 119.489 73.8096C118.373 74.9256 118.372 76.8037 119.486 77.918C120.6 79.0322 122.478 79.0308 123.594 77.9148Z" fill="#01686F"/>
<path d="M146.847 63.3417C149.137 61.051 145.619 57.5322 143.328 59.8229C141.037 62.1136 144.556 65.6324 146.847 63.3417Z" fill="#01686F"/>
<path d="M135.685 76.1449C137.976 73.8542 134.457 70.3355 132.167 72.6262C129.935 74.8582 133.453 78.3769 135.685 76.1449Z" fill="#01686F"/>
<path d="M122.78 68.4076C125.071 66.1169 121.552 62.5981 119.261 64.8888C117.029 67.1208 120.548 70.6395 122.78 68.4076Z" fill="#01686F"/>
<path d="M131.181 57.0739C133.472 54.7832 129.953 51.2645 127.662 53.5552C125.372 55.8459 128.891 59.3646 131.181 57.0739Z" fill="#01686F"/>
<path d="M139.288 47.0904C141.579 44.7997 138.06 41.281 135.77 43.5716C133.479 45.8623 136.998 49.3811 139.288 47.0904Z" fill="#01686F"/>
<path d="M136.273 -0.798473C116.613 -3.07231 106.175 -14.5677 119.508 -27.9007C132.43 -40.8226 141.456 -25.3352 147.257 -13.0733C138.491 -61.3103 200.8 -35.1821 161.457 -9.2106C180.714 -17.4421 193.152 -11.2304 187.269 6.2639C181.504 23.5234 168.834 14.9643 158.217 6.93183C188.232 52.4528 115.398 50.6893 144.01 12.1075C114.927 52.4504 92.3719 -0.76474 136.273 -0.798473Z" fill="white"/>
<path d="M136.273 -1.85475C127.646 -2.84586 110.982 -7.76307 115.158 -19.7979C116.158 -22.6745 118.097 -25.0823 120.211 -27.1968C122.091 -29.0763 124.264 -30.78 126.847 -31.4863C131.073 -32.6634 134.769 -30.1425 137.525 -27.1514C141.337 -22.9873 143.915 -17.7071 146.318 -12.6029C146.845 -11.4881 148.43 -12.2523 148.255 -13.3673C147.145 -19.6464 146.622 -27.0997 149.855 -32.9126C151.853 -36.4355 155.317 -38.7271 159.25 -39.0236C163.006 -39.2613 166.879 -37.9731 169.577 -35.6275C172.451 -33.106 173.974 -29.5857 173.502 -25.8292C172.734 -20.0182 167.977 -15.378 163.572 -12.0292C162.75 -11.4417 161.869 -10.7954 160.989 -10.2665C159.873 -9.50267 160.811 -7.97744 161.985 -8.44786C169.324 -11.5641 185.291 -15.9195 187.512 -4.18306C187.98 -1.71841 187.625 0.981655 186.978 3.38847C186.213 6.2649 185.213 9.25889 183.333 11.608C182.099 13.1936 180.514 14.4273 178.518 14.8983C176.581 15.3107 174.703 14.96 172.825 14.3745C167.603 12.6765 163.028 9.04117 158.687 5.8752C157.866 5.28893 156.691 6.46365 157.278 7.28487C161.205 13.327 165.073 20.4843 164.481 27.9972C164.184 32.3992 161.774 36.2159 158.017 38.2143C154.494 40.0951 150.268 40.4505 146.454 39.2209C142.757 38.1087 139.707 35.4112 138.654 31.6558C137.074 25.964 140.013 19.858 143.068 15.1603C143.656 14.2208 144.302 13.34 144.948 12.4591C144.362 12.1074 143.775 11.7557 143.13 11.4628C139.252 16.8653 134.259 22.5621 127.919 25.032C124.22 26.5021 120.346 26.5051 117.12 24.336C114.539 22.5773 112.898 19.2919 112.783 16.0053C112.61 12.1905 114.315 8.60908 117.193 5.96579C122.244 1.26665 129.757 0.204439 136.389 0.140652C137.622 0.198395 137.564 -1.85574 136.273 -1.85475C129.641 -1.79096 122.48 -0.72902 117.077 3.38348C113.495 6.1447 110.968 10.1963 110.671 14.8331C110.434 18.7069 111.956 22.6967 114.772 25.2769C117.997 28.1503 122.457 28.8511 126.625 27.7328C133.259 25.9083 138.604 20.6807 142.775 15.454C143.48 14.5144 144.185 13.5748 144.89 12.6352C145.654 11.5195 143.893 10.5818 143.071 11.6389C139.135 16.9828 135.314 23.8525 136.307 30.7186C136.949 35.2373 139.998 38.9911 144.222 40.7486C148.329 42.5062 153.201 42.5611 157.31 40.9146C161.831 39.0917 165.179 35.2743 166.181 30.5196C167.712 23.3581 164.666 15.848 161.149 9.74691C160.504 8.63228 159.801 7.459 159.039 6.34446C158.569 6.81435 158.099 7.28423 157.629 7.75412C164.258 12.7377 176.223 22.2364 184.035 14.0724C186.209 11.7818 187.443 8.78765 188.443 5.79366C189.326 2.91714 189.974 -0.0765991 189.683 -3.06959C189.276 -7.94061 186.461 -11.6947 181.767 -13.217C174.902 -15.3833 167.153 -12.9123 160.871 -10.2664C161.223 -9.67978 161.575 -9.09314 161.867 -8.44777C167.387 -12.0908 173.319 -17.0841 175.085 -23.7762C176.203 -28.1789 175.092 -32.6972 172.042 -36.0989C169.169 -39.2073 164.886 -41.0234 160.601 -41.1962C156.024 -41.3101 151.738 -39.2526 148.976 -35.553C144.981 -30.1504 144.858 -22.7552 145.616 -16.3585C145.733 -15.1848 145.967 -14.0112 146.142 -12.8962C146.788 -13.1901 147.375 -13.4253 148.079 -13.6606C145.735 -18.7062 143.098 -23.8103 139.463 -28.0333C136.413 -31.5524 132.19 -34.601 127.259 -33.7756C124.501 -33.3626 122.093 -31.7761 120.038 -29.9551C117.512 -27.7816 115.221 -25.1388 113.81 -22.0858C111.518 -17.2127 112.159 -11.9897 115.854 -8.06026C120.956 -2.60595 129.053 -0.616691 136.213 0.199477C137.563 0.374511 137.564 -1.73836 136.273 -1.85475Z" fill="#01686F"/>
<path d="M125.521 13.824C131.629 8.65451 138.674 4.8929 146.072 1.83529C146.835 1.54125 146.19 0.426631 145.486 0.779317C138.03 3.89565 130.866 7.65736 124.641 12.9443C123.995 13.473 124.875 14.3527 125.521 13.824Z" fill="#01686F"/>
<path d="M151.116 6.87902C151.286 14.0978 150.635 21.4347 151.979 28.5352C152.155 29.2981 153.388 29.0037 153.212 28.2408C151.868 21.2577 152.577 13.9795 152.407 6.87803C152.349 6.11509 151.116 6.05735 151.116 6.87902Z" fill="#01686F"/>
<path d="M156.755 0.418178C163.152 0.237189 169.607 1.40605 175.71 3.16208C176.473 3.33757 176.826 2.16348 176.004 1.92935C169.784 0.173408 163.212 -1.11274 156.697 -0.931659C155.875 -0.813646 155.933 0.418809 156.755 0.418178Z" fill="#01686F"/>
<path d="M131.935 -7.25114C135.454 -4.20192 139.913 -2.67939 144.255 -1.03939C145.018 -0.746519 145.312 -1.97925 144.549 -2.27212C140.442 -3.79492 136.159 -5.2589 132.816 -8.13217C132.229 -8.71863 131.348 -7.83759 131.935 -7.25114Z" fill="#01686F"/>
<path d="M136.085 14.0506C139.785 11.1719 142.957 7.64798 146.657 4.76929C147.303 4.24058 146.364 3.41963 145.777 3.8896C142.077 6.76829 138.905 10.2922 135.205 13.1709C134.501 13.6409 135.38 14.5206 136.085 14.0506Z" fill="#01686F"/>
<path d="M130.634 4.72295C135.448 2.95853 140.379 1.78093 145.251 0.427295C146.015 0.250637 145.722 -0.981647 144.959 -0.804989C140.087 0.548641 135.097 1.78498 130.342 3.49067C129.578 3.78471 129.871 5.01699 130.634 4.72295Z" fill="#01686F"/>
<path d="M148.592 6.35239C147.767 11.0483 146.472 15.6272 145.764 20.323C145.646 21.1447 146.879 21.4372 146.997 20.6155C147.704 15.9197 148.941 11.2821 149.824 6.6449C149.942 5.82314 148.71 5.53063 148.592 6.35239Z" fill="#01686F"/>
<path d="M153.522 6.81812C154.575 10.9257 155.452 15.2094 157.445 18.9641C157.796 19.6681 158.912 19.0216 158.502 18.3764C156.568 14.6803 155.749 10.4552 154.696 6.46507C154.52 5.70223 153.346 6.05528 153.522 6.81812Z" fill="#01686F"/>
<path d="M156.753 3.23542C160.977 4.52337 164.967 6.3984 168.663 8.80188C169.308 9.21222 169.954 8.0966 169.25 7.745C165.496 5.28287 161.389 3.40793 157.047 2.12007C156.343 1.76847 155.99 2.94255 156.753 3.23542Z" fill="#01686F"/>
<path d="M155.817 -2.16321C160.865 -2.63661 165.796 -3.9316 170.844 -4.52239C171.666 -4.6404 171.315 -5.81395 170.552 -5.75467C165.68 -5.10533 160.807 -3.86908 155.877 -3.39576C155.055 -3.27775 155.054 -2.10393 155.817 -2.16321Z" fill="#01686F"/>
<path d="M156.75 6.28734C158.63 4.40779 159.806 1.58974 159.749 -1.0513C159.751 -3.63369 158.638 -6.62607 156.762 -8.38535C154.826 -10.2033 152.186 -11.5511 149.427 -11.3729C146.728 -11.2535 144.027 -10.3124 142.089 -8.37407C140.209 -6.49452 139.033 -3.67646 139.09 -1.03542C139.088 1.54697 140.201 4.53934 142.078 6.29862C144.013 8.11654 146.653 9.4644 149.412 9.28621C152.111 9.16675 154.753 8.28436 156.75 6.28734Z" fill="#01686F"/>
<path d="M151.293 4.47184C153.584 2.18114 150.065 -1.33759 147.775 0.953104C145.543 3.18507 149.061 6.7038 151.293 4.47184Z" fill="white"/>
<path d="M145.311 -0.218528C147.19 -2.09807 144.258 -5.03036 142.378 -3.15081C140.499 -1.27126 143.431 1.66102 145.311 -0.218528Z" fill="white"/>
<path d="M156.579 0.711877C157.988 -0.697784 155.76 -2.92632 154.35 -1.51666C152.999 -0.0483508 155.169 2.12154 156.579 0.711877Z" fill="white"/>
</g>
</g>
</svg>
