<svg width="54" height="43" viewBox="0 0 54 43" fill="none" xmlns="http://www.w3.org/2000/svg">
<path id="Vector" d="M30.1967 42.5V35.8318L31.9605 35.4817L31.9608 35.4816C35.7557 34.7261 38.4904 33.2089 39.9634 30.8953L39.9635 30.8953L39.9665 30.8904C40.7136 29.6862 41.1379 28.311 41.1986 26.8964L41.221 26.375H40.6991H32.3947C31.8111 26.375 31.2519 26.1441 30.8398 25.7336C30.4278 25.3232 30.1967 24.767 30.1967 24.1875V5.375C30.1967 2.68866 32.3911 0.5 35.0927 0.5H51.2806C51.8642 0.5 52.4234 0.73094 52.8355 1.14139C53.2475 1.55178 53.4786 2.10797 53.4786 2.6875V24.1875V24.2372L53.4835 24.2615C53.4843 24.2731 53.4855 24.2899 53.4868 24.3119C53.4899 24.3637 53.4935 24.441 53.4962 24.5418C53.5015 24.7434 53.503 25.0367 53.4888 25.4053C53.4605 26.1428 53.3696 27.1782 53.1229 28.3795C52.6291 30.7842 51.5155 33.8345 49.0492 36.5007C45.3882 40.4541 39.8143 42.5 32.3947 42.5H30.1967ZM0.5 42.5V35.8318L2.26382 35.4817L2.2641 35.4816C6.05903 34.7261 8.7937 33.2089 10.2667 30.8953L10.2667 30.8953L10.2698 30.8904C11.0169 29.6862 11.4412 28.311 11.5019 26.8964L11.5243 26.375H11.0024H2.69798C2.11442 26.375 1.55514 26.1441 1.14309 25.7336C0.731098 25.3232 0.5 24.767 0.5 24.1875V5.375C0.5 2.68866 2.6944 0.5 5.39597 0.5H21.5839C22.1674 0.5 22.7267 0.73094 23.1388 1.14139C23.5508 1.55178 23.7819 2.10797 23.7819 2.6875V24.1875V24.2372L23.7868 24.2616C23.7877 24.2732 23.7888 24.29 23.7901 24.3121C23.7932 24.3639 23.7969 24.4412 23.7996 24.542C23.805 24.7435 23.8066 25.0369 23.7925 25.4054C23.7644 26.1429 23.6737 27.1783 23.4272 28.3796C22.9337 30.7842 21.8201 33.8344 19.3526 36.5006C15.6916 40.4541 10.1177 42.5 2.69798 42.5H0.5ZM23.7853 24.2446C23.785 24.2416 23.7851 24.2421 23.7856 24.2476L23.7853 24.2446Z" stroke="#3C19E8"/>
</svg>
