<svg width="70" height="54" viewBox="0 0 70 54" fill="none" xmlns="http://www.w3.org/2000/svg">
<path d="M32.642 23.7703C32.7164 23.7326 32.7536 23.6949 32.7908 23.6196C38.1099 15.5919 28.9968 6.32048 24.682 0.214927C24.496 -0.0488934 24.1985 -0.0488945 23.9753 0.10186C23.9381 0.10186 23.8637 0.0641713 23.8265 0.10186C21.5947 0.177237 20.5532 1.57172 20.1441 3.34308C17.8007 3.07926 15.9409 3.23002 13.9323 4.73756C11.9609 6.20742 10.9194 8.65718 10.6962 11.0692C10.6962 11.22 10.6962 11.3331 10.7706 11.4084C9.35716 12.6899 8.20408 14.2351 7.46015 15.9688C2.9966 17.514 0.355666 22.3758 1.47155 27.0492C1.47155 27.1246 1.50875 27.1623 1.54595 27.2377C1.17399 27.5769 0.839226 27.9161 0.50446 28.2929C0.0953012 28.3683 -0.202278 28.8206 0.169685 29.1598C4.07529 32.9663 8.57605 34.8508 13.8579 35.7176C18.2471 36.4714 23.0082 36.9613 26.6162 33.7578C26.7278 33.6447 26.8022 33.494 26.8022 33.3809C28.3644 33.1171 29.8151 32.5141 30.8194 31.2703C34.8366 35.1523 39.0026 38.8834 43.2802 42.3885C43.3545 42.5769 43.3917 42.8031 43.4661 42.9915C43.5777 43.2553 43.8009 43.3684 44.0241 43.3307C44.1729 43.4438 44.3588 43.5191 44.5448 43.4438C46.3674 44.9136 48.2644 46.3835 50.1243 47.8156C51.017 48.494 51.9097 49.097 52.8768 49.7378C46.2187 47.9287 39.7093 46.2704 32.828 48.2679C32.2701 48.4187 32.2701 49.2101 32.6792 49.3986C32.7164 49.4362 32.7536 49.4739 32.7908 49.5116C36.1385 51.9614 39.9325 53.2805 44.0241 53.5443C46.8882 53.7327 51.8725 53.3936 54.3275 51.3207C54.4018 51.3584 54.4762 51.3584 54.5506 51.396C54.8482 51.4714 55.0714 51.3584 55.183 51.1322C59.6465 53.5443 64.5564 54.9011 69.6523 53.3182C70.359 53.092 69.8755 52.0745 69.206 52.2629C61.8039 54.5242 54.9598 50.0769 49.2687 45.7428C47.9297 44.7252 46.5906 43.6699 45.2516 42.6146C48.748 37.2251 46.9998 29.2352 45.4747 23.4311C45.3631 23.0542 45.0284 22.9412 44.768 23.0165C44.5076 22.8658 44.0985 22.9035 43.9125 23.2804C41.6063 28.7829 41.16 34.7754 42.6106 40.504C38.7422 37.2628 34.9854 33.8709 31.3774 30.3658C32.7908 28.2552 33.0512 25.9939 32.642 23.7703ZM43.4661 52.2629C40.1557 52.0368 36.994 50.8307 34.2415 48.984C40.3044 47.5895 46.0699 48.9463 51.9469 50.5292C47.4461 50.6423 42.9826 50.2277 38.5562 49.2855C38.0727 49.1724 38.0355 49.9262 38.4818 50.0393C42.9826 50.9815 47.4833 51.3961 52.0585 51.283C49.4175 52.4136 45.7351 52.4136 43.4661 52.2629ZM44.6936 24.5241C45.9955 29.6497 47.3345 36.3583 44.8052 41.1824C44.8424 37.7905 44.8424 34.3985 44.8796 31.0442C44.8796 30.5542 44.1357 30.4789 44.1357 30.9688C44.0985 34.3608 44.0985 37.7528 44.0613 41.1448C42.4246 35.6422 42.685 29.8759 44.6936 24.5241ZM23.7149 1.19483C23.7893 1.19483 23.9009 1.15714 23.9381 1.11945C26.0211 4.05916 28.1041 6.96119 30.1127 9.9009C32.0469 12.8029 33.6463 16.3456 33.0884 19.7753C31.6005 14.4989 28.662 9.97627 25.6119 5.45364C25.3516 5.03907 24.7564 5.52902 25.0168 5.94359C28.2529 10.6924 31.303 15.4034 32.642 21.0567C32.642 21.0944 32.6792 21.1698 32.7164 21.2075C32.5676 21.5844 32.4188 21.9236 32.2329 22.3005C30.4846 16.7225 25.0912 11.22 21.3344 8.16723C21.3344 8.12954 21.3344 8.05416 21.3344 8.01647C20.9252 5.79284 20.3301 1.3079 23.7149 1.19483ZM14.639 5.56671C16.1641 4.20992 18.0611 4.20992 19.9581 4.43605C19.9209 5.03907 19.9209 5.64209 19.9581 6.2451C19.6605 5.83053 19.363 5.45364 19.0282 5.07676C18.6934 4.69987 18.1355 5.18982 18.433 5.56671C18.991 6.20741 19.4745 6.88581 19.8837 7.6019C19.9581 7.71496 20.0325 7.75265 20.1069 7.79034C20.1069 7.82803 20.1069 7.9034 20.1441 7.94109C20.1069 7.97878 20.1069 8.01647 20.0697 8.05416C18.8794 7.14963 17.6891 6.20742 16.4989 5.30289C16.1269 5.00138 15.6805 5.64209 16.0525 5.90591C16.9824 6.62199 17.9123 7.33807 18.8422 8.05416C18.5818 8.05416 18.2843 8.09185 18.0239 8.12953C16.9452 7.60189 15.8665 7.11194 14.7878 6.5843C14.3415 6.39586 14.0811 7.07425 14.5274 7.30039C15.2714 7.63958 15.9781 7.97878 16.722 8.31798C16.4244 8.39335 16.1269 8.46873 15.8665 8.54411C15.8293 8.46873 15.7177 8.43104 15.6061 8.43104C15.4573 8.43104 15.3086 8.43104 15.1598 8.43104C15.1226 8.43104 15.1226 8.39335 15.0854 8.39335C14.7878 8.2426 14.4902 8.09185 14.1927 7.97878C13.7463 7.75265 13.4859 8.46873 13.9323 8.69486C14.1555 8.80793 14.3787 8.92099 14.6018 9.03406C13.6347 9.41094 12.7048 9.93859 11.8865 10.5039C12.2585 8.50642 13.1512 6.88581 14.639 5.56671ZM6.93941 17.3632C6.67903 18.2301 6.49306 19.1346 6.41866 20.0768C6.19549 19.8507 5.93511 19.6999 5.63754 19.6246C5.19118 19.4738 4.93081 20.1899 5.37716 20.3406C5.78632 20.4537 6.0467 20.7175 6.15828 21.1321C6.19548 21.2452 6.26987 21.3205 6.34427 21.3205C6.34427 21.509 6.34427 21.6597 6.34427 21.8482C5.82352 21.3959 5.30277 20.9814 4.70763 20.6045C4.29847 20.3406 3.85211 20.9814 4.26127 21.2075C5.0052 21.6597 5.67474 22.1874 6.26988 22.7904C6.30708 22.8281 6.38147 22.8658 6.41866 22.9035C6.45586 23.2804 6.53025 23.6196 6.60464 23.9964C5.97231 23.6572 5.41436 23.2804 4.85642 22.7904C4.48445 22.4512 4.0753 23.0919 4.41007 23.3934C5.00521 23.9587 5.71193 24.3733 6.41866 24.7502C6.19549 24.7879 5.93511 24.8633 5.71194 24.901C5.0796 24.6371 4.44726 24.2979 3.85212 23.9211C3.44296 23.6572 2.9966 24.2603 3.40576 24.5241C3.77773 24.7879 4.18689 25.014 4.59605 25.2402C3.85212 25.5417 3.10819 25.9186 2.43866 26.3708C1.80632 22.6773 3.66614 19.0215 6.93941 17.3632ZM24.5704 33.7955C24.496 33.7578 24.4216 33.7201 24.3473 33.7578C17.6519 34.2477 11.5146 31.4965 5.71194 28.406C5.30278 28.1799 4.85642 28.7829 5.26558 29.009C10.7706 31.9864 16.5732 34.5869 22.8966 34.5492C20.1069 35.4915 16.9452 35.0392 13.9695 34.5492C9.20838 33.7578 5.07959 32.0995 1.50875 28.8206C2.9966 27.1246 5.0052 26.0693 7.23697 25.8055C10.8822 29.1221 15.1226 31.4211 19.8465 32.6648C21.3716 33.0794 23.2686 33.4186 25.0912 33.4186C24.9424 33.5693 24.7564 33.6824 24.5704 33.7955ZM17.8007 30.8934C14.1555 29.6874 10.845 27.5769 8.0181 24.9763C7.16258 22.112 7.38576 19.2477 8.35286 16.7979C8.50165 16.6848 8.57604 16.5341 8.53884 16.3457C10.5102 11.8607 15.1226 8.73255 20.6276 9.18482C20.702 9.18482 20.7764 9.18481 20.8508 9.14713C25.9095 13.2929 34.0555 21.8482 30.9682 28.8206C29.7407 23.5819 27.323 18.8331 23.7893 14.7627C23.4545 14.3858 22.8966 14.8758 23.1942 15.2527C26.6534 19.2477 29.034 23.8834 30.2243 29.009C26.4302 23.5819 21.7435 18.9839 16.2385 15.3281C15.8293 15.0642 15.383 15.6673 15.7921 15.9311C21.2228 19.5869 25.8723 24.1849 29.6663 29.5367C23.6777 27.6145 18.1727 24.7502 13.1512 20.906C12.7792 20.6045 12.3329 21.2452 12.7048 21.509C17.9123 25.504 23.6777 28.5191 29.9267 30.4412C29.9267 30.4412 29.9267 30.4789 29.8895 30.4789C24.0869 30.6296 18.4702 29.0467 13.5603 25.8432C13.1512 25.5794 12.7048 26.1824 13.114 26.4462C17.9495 29.5744 23.3802 31.195 29.034 31.2326C26.0955 33.4186 20.7764 31.8734 17.8007 30.8934Z" fill="#01686F"/>
</svg>
