<svg width="302" height="423" viewBox="0 0 302 423" fill="none" xmlns="http://www.w3.org/2000/svg">
<g opacity="0.12" clip-path="url(#clip0_169_24583)">
<path d="M39.9001 134.4C39.6001 134.5 39.4001 134.7 39.2001 134.7C33.3001 136.1 27.9001 138.8 22.8001 142.1C20.3001 143.8 17.6001 145.3 15.3001 147.3C11.6001 150.5 7.60011 153.2 3.70011 156.1C2.80011 156.8 2.00011 157.6 1.30011 158.4C0.500107 159.4 0.000106826 160.5 -0.0998932 161.8C-0.199893 163.4 0.200107 164.3 1.80011 164.8C3.20011 165.3 4.70011 165.4 6.10011 165.7C7.40011 166 8.90011 166.1 10.1001 166.6C14.4001 168.5 18.9001 168.9 23.4001 168.9C27.4001 168.9 31.3001 168 35.1001 166.9C35.5001 166.8 36.0001 166.7 36.7001 166.5C36.4001 167 36.3001 167.2 36.1001 167.4C31.7001 172.3 29.3001 178.1 28.5001 184.6C28.0001 188.7 28.1001 192.8 28.8001 196.9C29.1001 198.5 29.6001 199.9 30.9001 201C32.1001 202 33.5001 202.4 34.9001 201.7C36.3001 201 37.6001 200.2 38.9001 199.3C41.8001 197.1 44.6001 194.8 47.5001 192.6C50.1001 190.7 52.4001 188.5 54.2001 185.5C54.3001 186.1 54.3001 186.4 54.3001 186.8C54.4001 188.5 54.5001 190.2 54.5001 191.9C54.4001 195.2 54.2001 198.6 54.1001 201.9C54.0001 204.2 53.7001 206.5 54.2001 208.8C54.7001 210.8 56.1001 212.1 57.5001 213.3C58.4001 214 59.6001 213.9 60.6001 213.5C61.2001 213.3 61.8001 213 62.3001 212.6C69.5001 207.7 76.0001 202.1 80.7001 194.7C81.9001 192.8 82.9001 190.9 84.0001 188.9C84.1001 188.7 84.3001 188.5 84.5001 188C84.7001 188.9 84.9001 189.6 85.0001 190.3C85.7001 193.7 86.9001 196.9 88.3001 200C89.9001 203.5 91.0001 207.2 92.0001 210.9C92.4001 212.2 92.9001 213.6 93.6001 214.7C95.2001 217.2 97.7001 217.5 99.8001 215.3C101.9 213.2 103.3 210.7 104.3 208C106 203.7 107.1 199.2 107.6 194.6C108 191 108.1 187.4 107.7 183.7C107.1 177.5 105.6 171.5 103 165.8C99.9001 159.1 95.5001 153.4 89.9001 148.5C86.8001 145.8 83.4001 143.8 79.7001 142.3C75.8001 140.7 73.3001 136.6 74.3001 132.3C74.3001 132.1 74.3001 132 74.3001 131.8C73.5001 131.8 73.4001 132.4 73.1001 132.8C72.2001 134.4 71.0001 135.6 69.3001 136.4C68.1001 136.9 66.9001 137 65.7001 135.7C61.1001 130.8 58.2001 125.1 56.8001 118.6C56.1001 115.2 56.1001 111.8 56.6001 108.4C57.2001 104 58.0001 99.4999 58.7001 95.0999C59.3001 90.8999 59.2001 86.7999 57.5001 82.7999C56.7001 80.9999 55.6001 79.5999 54.1001 78.4999C52.7001 77.4999 51.4001 77.4999 50.1001 78.6999C49.5001 79.1999 49.1001 79.8999 48.6001 80.4999C46.9001 83.0999 44.9001 85.3999 42.4001 87.2999C38.6001 90.2999 36.2001 94.2999 34.5001 98.6999C33.1001 102.4 32.0001 106.3 31.5001 110.2C30.8001 115.1 31.2001 120 32.6001 124.7C33.7001 128.3 35.8001 131.3 38.8001 133.6C39.4001 134 39.6001 134.2 39.9001 134.4ZM54.9001 182.1C55.0001 180.2 55.2001 177.3 55.4001 174.4C55.5001 172.9 55.9001 171.5 56.2001 170C57.0001 165.9 57.8001 161.7 59.6001 157.9C62.3001 152.1 66.1001 147.1 70.0001 142.1C71.0001 140.8 72.5001 140.6 74.0001 141C75.8001 141.5 77.5001 142.3 78.9001 143.6C82.1001 146.3 84.2001 149.9 85.8001 153.7C88.5001 160.1 89.0001 166.9 88.1001 173.7C87.5001 178.8 85.9001 183.6 83.8001 188.2C79.0001 198.5 71.2001 206 61.9001 212.1C61.3001 212.5 60.7001 212.7 60.0001 212.9C59.3001 213.1 58.6001 213.1 58.0001 212.6C56.6001 211.4 55.2001 210.2 54.9001 208.3C54.6001 206.8 54.5001 205.3 54.7001 203.8C55.0001 200 55.3001 196.2 55.2001 192.4C55.1001 189.4 55.0001 186.2 54.9001 182.1ZM50.9001 134.1C54.4001 134 58.9001 134.7 63.2001 136.5C65.0001 137.3 66.7001 138.2 68.3001 139.3C69.7001 140.2 69.8001 141.1 69.0001 142.5C68.8001 142.9 68.5001 143.3 68.2001 143.7C67.1001 145.1 65.9001 146.4 64.8001 147.8C62.6001 150.6 60.1001 153.1 56.7001 154.5C54.9001 155.2 53.1001 156 51.2001 156.4C48.5001 157 45.8001 157.4 43.0001 157.8C36.0001 158.9 29.3001 160.9 23.1001 164.1C21.5001 164.9 19.9001 165.6 18.2001 166.1C15.7001 166.9 13.2001 167.2 10.7001 166.3C9.00011 165.7 7.20011 165.4 5.40011 165.2C4.20011 165.1 3.00011 164.7 1.90011 164.3C0.800107 163.9 0.300107 162.9 0.700107 161.8C1.00011 160.8 1.50011 159.8 2.10011 158.9C2.80011 158 3.60011 157.3 4.50011 156.6C8.50011 153.6 12.6001 150.7 16.5001 147.5C20.0001 144.6 24.0001 142.2 28.0001 140C34.8001 136.2 42.0001 134.1 50.9001 134.1ZM62.0001 135C62.0001 135.1 61.9001 135.1 61.9001 135.2C61.7001 135.1 61.5001 135.1 61.3001 135C58.5001 134.1 55.6001 133.6 52.6001 133.4C49.3001 133.2 45.9001 133.2 42.6001 134C41.2001 134.3 40.1001 133.9 39.1001 133.1C37.0001 131.4 35.3001 129.3 34.2001 126.8C32.2001 122.1 31.8001 117.1 32.2001 112.1C32.5001 107.6 33.7001 103.3 35.3001 99.0999C37.1001 94.2999 39.9001 90.1999 44.0001 86.9999C45.2001 86.0999 46.2001 84.9999 47.2001 83.7999C48.0001 82.7999 48.7001 81.6999 49.5001 80.5999C49.9001 79.9999 50.4001 79.3999 50.9001 78.8999C51.9001 78.0999 52.6001 77.9999 53.6001 78.7999C54.4001 79.3999 55.3001 80.0999 55.9001 80.8999C57.7001 83.5 58.5001 86.3999 58.1001 89.4999C57.7001 91.8999 56.6001 93.8999 55.3001 95.9999C53.5001 98.6999 52.0001 101.6 50.8001 104.6C48.3001 111.3 48.6001 117.9 52.0001 124.3C53.6001 127.2 55.9001 129.4 58.2001 131.6C59.6001 132.9 60.8001 133.9 62.0001 135ZM81.0001 144.5C81.1001 144.4 81.1001 144.4 81.2001 144.3C81.6001 144.6 82.0001 144.8 82.4001 145.1C83.9001 146.2 85.1001 147.5 86.4001 148.8C93.6001 156.4 99.1001 165 102.3 175C104 180.1 105.2 185.3 105.5 190.6C105.8 195 105.5 199.3 104.7 203.7C104.1 206.7 103.3 209.7 101.6 212.3C100.9 213.4 100.1 214.5 99.2001 215.3C97.5001 216.8 95.8001 216.6 94.6001 214.7C93.9001 213.6 93.4001 212.4 93.0001 211.2C91.8001 206.7 90.3001 202.4 88.5001 198.1C87.5001 195.8 86.8001 193.3 86.1001 190.8C85.4001 188.5 85.5001 186.2 86.4001 183.8C89.0001 176.8 90.0001 169.5 88.9001 162C88.0001 155.7 85.6001 150 81.5001 145.1C81.3001 144.9 81.1001 144.7 81.0001 144.5ZM62.1001 151.7C62.2001 151.8 62.2001 151.8 62.3001 151.9C62.0001 152.4 61.7001 152.9 61.4001 153.4C60.4001 155.4 59.1001 157.3 58.4001 159.4C57.2001 162.7 56.3001 166.1 55.5001 169.5C54.5001 173.8 54.4001 178.2 54.4001 182.5C54.4001 184.7 53.5001 186.3 51.7001 187.4C50.5001 188.1 49.3001 188.7 48.0001 189.2C43.8001 190.6 40.5001 193.1 38.1001 196.8C37.4001 198 36.6001 199.1 35.7001 200.2C34.6001 201.7 33.1001 201.8 31.6001 200.8C30.4001 200 29.9001 198.8 29.6001 197.4C29.0001 194.9 29.2001 192.3 29.7001 189.8C30.7001 185.2 32.7001 181 35.5001 177.3C38.3001 173.7 41.2001 170.2 44.0001 166.6C46.6001 163.2 49.7001 160.4 53.3001 158.2C55.7001 156.7 57.9001 154.9 60.1001 153.3C60.9001 152.8 61.5001 152.2 62.1001 151.7ZM65.9001 136.6C65.8001 136.7 65.7001 136.8 65.7001 136.8C65.1001 136.4 64.5001 136.1 64.0001 135.7C61.9001 133.9 59.8001 132.2 57.8001 130.3C55.8001 128.4 54.0001 126.5 52.6001 124C50.3001 119.6 49.4001 115 50.2001 110.1C50.7001 106.6 52.0001 103.3 53.8001 100.3C54.8001 98.4999 56.0001 96.7 57.1001 94.8999C57.7001 93.8999 58.1001 92.8999 58.5001 91.8999C58.6001 93.2999 58.5001 94.5999 58.3001 95.8999C57.6001 100.3 56.9001 104.8 56.2001 109.2C55.8001 112.3 55.8001 115.4 56.3001 118.4C57.6001 125 60.5001 130.8 65.1001 135.8C65.4001 136 65.6001 136.3 65.9001 136.6ZM13.9001 167.6C13.9001 167.5 13.9001 167.4 13.9001 167.4C15.2001 167.2 16.5001 167.2 17.7001 166.8C19.7001 166.1 21.7001 165.4 23.6001 164.5C30.1001 161.2 36.9001 159.2 44.1001 158.3C48.0001 157.8 51.8001 157.2 55.4001 155.7C55.6001 155.6 55.8001 155.7 56.2001 155.7C55.6001 156.1 55.2001 156.3 54.8001 156.6C49.7001 160.2 44.3001 163.1 38.5001 165.4C32.0001 167.9 25.4001 169.3 18.4001 168.5C17.0001 168.1 15.5001 167.8 13.9001 167.6ZM105.7 202.8C105.6 202.8 105.5 202.8 105.4 202.8C105.4 202.6 105.4 202.4 105.4 202.2C105.6 199.7 106 197.2 106.1 194.7C106.2 191.1 105.9 187.4 105.2 183.8C103.6 175.4 100.6 167.5 96.1001 160.2C92.6001 154.6 88.4001 149.6 83.5001 145C83.4001 144.9 83.4001 144.8 83.2001 144.5C83.7001 144.7 83.9001 144.8 84.2001 145C86.0001 146 87.7001 147.2 89.3001 148.6C93.4001 152 96.9001 155.8 99.7001 160.3C104.3 167.6 106.9 175.6 107.6 184.1C107.9 188.4 107.9 192.8 107.1 197.1C106.7 199 106.2 200.9 105.7 202.8ZM29.3001 188.7C29.2001 188.7 29.1001 188.7 29.1001 188.7C29.2001 187.1 29.3001 185.5 29.5001 184C30.3001 178.4 32.3001 173.4 35.9001 169C36.9001 167.7 38.1001 166.5 39.5001 165.7C41.8001 164.4 44.3001 163.4 46.7001 162.3C46.8001 162.3 46.9001 162.3 47.0001 162.4C47.0001 162.5 46.9001 162.6 46.9001 162.7C43.9001 166.3 41.0001 169.8 38.0001 173.4C35.5001 176.4 33.2001 179.5 31.7001 183C30.6001 184.9 30.0001 186.8 29.3001 188.7ZM37.1001 199.9C39.1001 196.5 41.2001 193.2 44.8001 191.3C46.7001 190.3 50.0001 189 51.1001 189.1C46.4001 193 41.5001 196.1 37.1001 199.9Z" fill="#01686F"/>
<path d="M96.7008 189.2C96.4008 186.5 96.2008 183.9 95.7008 181.2C94.8008 176.5 93.9008 171.8 92.6008 167.2C90.8008 160.8 88.3008 154.8 84.2008 149.5C84.0008 149.2 83.8008 148.9 83.5008 148.7C83.4008 148.8 83.3008 148.8 83.3008 148.9C83.5008 149.3 83.7008 149.7 84.0008 150.1C89.5008 157.9 92.4008 166.8 94.3008 176.1C95.1008 180 95.7008 183.9 96.4008 187.8C96.5008 188.3 96.5008 188.8 96.5008 189.4C96.5008 189.3 96.6008 189.2 96.7008 189.2Z" fill="#01686F"/>
<path d="M58.2 180.2C58.7 177.5 59.1 174.8 59.6 172.1C61.3 163.6 63.8 155.4 68 147.8C68.9 146.2 69.9 144.7 70.9 143.2C71.1 142.9 71.3 142.6 71.5 142.2C70.1 143.4 68.9 144.9 68.1 146.5C66.2 150 64.4 153.7 63.1 157.5C61.1 163.3 59.4 169.3 58.6 175.4C58.4 177 58.2 178.5 58 180.1C58.1 180.2 58.1 180.2 58.2 180.2Z" fill="#01686F"/>
<path d="M53.4 134.8C48.1 134.2 42.8 135.8 37.6 138C33.1 139.9 29 142.5 25 145.3C21.9 147.5 18.8 149.9 15.8 152.2C15.7 152.3 15.5 152.5 15.5 152.8C16.8 151.9 18.1 151 19.4 150C23.8 146.9 28 143.6 32.7 141C37.6 138.2 42.7 136.3 48.2 135.2C50 134.9 51.9 134.9 53.4 134.8Z" fill="#01686F"/>
<path d="M99 173.4C99.4 175.1 99.8 176.8 100.2 178.5C101.3 183 102.2 187.6 102.6 192.3C102.9 195.8 103.1 199.4 102.7 202.9C102.5 205 102.4 207.2 102.3 209.4C102.5 208 102.9 206.5 103 205.1C103.2 201.6 103.4 198 103.2 194.5C103 189.5 102.1 184.5 100.8 179.7C100.3 177.9 99.8 176 99.3 174.2C99.2 173.9 99.1 173.7 99 173.4Z" fill="#01686F"/>
<path d="M56.1006 133.4C55.6006 133.3 55.1006 133.2 54.6006 133C50.9006 131.2 48.2006 128.4 46.2006 125C44.2006 121.7 42.8006 118.2 42.3006 114.4C42.0006 112.4 41.9006 110.3 42.0006 108.2C42.1006 105.4 42.4006 102.7 42.7006 99.9001C42.7006 99.6001 42.7006 99.4 42.7006 99.1C41.8006 103.1 41.3006 107.9 41.9006 113.5C42.6006 121.2 45.9006 127.7 52.3006 132.3C54.0006 133.6 55.2006 134 56.6006 134.1C56.6006 133.9 56.6006 133.8 56.6006 133.6C56.3006 133.6 56.2006 133.5 56.1006 133.4Z" fill="#01686F"/>
<path d="M62.9004 211.9C67.4004 200.8 69.0004 189.1 70.7004 177.4C69.6004 183.2 68.6004 189 67.4004 194.8C66.2004 200.6 64.8004 206.3 62.9004 211.9Z" fill="#01686F"/>
<path d="M67.5006 139.3C65.6006 138.5 63.5006 138.3 61.4006 138.5C54.1006 139.3 47.6006 141.8 41.6006 146C39.4006 147.6 37.3006 149.2 35.1006 151C35.3006 150.9 35.5006 150.8 35.8006 150.6C37.0006 149.8 38.2006 149 39.4006 148.2C41.0006 147.1 42.4006 145.9 44.1006 144.9C48.8006 141.9 54.0006 140 59.5006 139.1C62.2006 138.7 64.9006 138.6 67.5006 139.3Z" fill="#01686F"/>
<path d="M56.1008 133.4C56.2008 133.5 56.4008 133.5 56.5008 133.6C57.8008 134.1 59.1008 134.7 60.6008 135.3C60.4008 134.5 59.8008 134.5 59.5008 134.3C57.9008 133.4 56.1008 132.7 54.6008 131.7C51.9008 129.9 49.7008 127.5 48.0008 124.8C46.3008 122.1 45.3008 119 44.6008 115.9C44.3008 114.3 44.1008 112.8 43.8008 111.1C43.9008 120 47.1008 127.3 54.6008 132.5C55.0008 132.8 55.6008 133.1 56.1008 133.4Z" fill="#01686F"/>
<path d="M76.6006 142.2C77.0006 142.7 77.4006 143.2 77.7006 143.7C79.2006 145.8 79.7006 148.2 80.5006 150.5C81.3006 152.9 81.5006 155.5 81.6006 158C81.7006 162.1 81.3006 166.2 80.6006 170.3C80.5006 170.6 80.6006 171 80.7006 171.4C80.9006 170.1 81.1006 168.8 81.2006 167.6C81.4006 166.3 81.6006 165 81.7006 163.7C81.8006 161.7 81.9006 159.6 82.0006 157.6C82.1006 154.5 81.5006 151.6 80.5006 148.7C79.9006 147.1 79.3006 145.6 78.6006 144C78.2006 143.2 77.6006 142.4 76.8006 141.9C76.7006 142 76.6006 142.1 76.6006 142.2Z" fill="#01686F"/>
<path d="M47.3008 146.2C46.3008 146.8 45.3008 147.5 44.3008 148.1C37.3008 152.3 30.6008 156.9 24.4008 162.3C23.9008 162.7 23.5008 163.1 23.1008 163.5C23.0008 163.6 22.9008 163.7 22.8008 163.9C26.9008 160.8 30.8008 157.6 34.9008 154.7C39.0008 151.8 43.2008 149.2 47.4008 146.4C47.4008 146.4 47.3008 146.3 47.3008 146.2Z" fill="#01686F"/>
<path d="M58.3002 157.8C52.2002 164.7 47.0002 172.2 43.7002 180.9C43.8002 180.7 43.9002 180.6 44.1002 180.4C44.2002 180.2 44.3002 180 44.4002 179.8C47.2002 173.6 50.9002 167.8 55.0002 162.4C56.1002 160.9 57.4002 159.5 58.6002 158C58.5002 158 58.4002 157.9 58.3002 157.8Z" fill="#01686F"/>
<path d="M64.1006 188.7C65.6006 178 67.8006 167.4 71.4006 156.9C69.0006 160.8 64.5006 180.5 64.1006 188.7Z" fill="#01686F"/>
<path d="M36.5 111.2C37.4 103.6 38 96.0001 42 88.9001C41.2 89.1001 41.1 89.5001 40.9 89.9001C39.7 92.1001 38.8 94.5001 38.3 96.9001C37.3 101.1 36.6 105.4 36.6 109.7C36.5 110.2 36.5 110.7 36.5 111.2Z" fill="#01686F"/>
<path d="M87.1004 168.1C86.6004 174.7 86.0004 181.3 84.4004 187.8C84.4004 187.8 84.5004 187.9 84.7004 188.1C86.7004 181.5 87.2004 174.9 87.1004 168.1Z" fill="#01686F"/>
<path d="M57 165.2C55 171.5 52.3 177.5 49.5 183.4C49.7 183.2 49.9 182.9 50 182.7C52 179.4 53.6 175.9 55 172.3C55.7 170.4 56.7 168.7 56.9 166.6C56.9 166.1 57 165.6 57 165.2Z" fill="#01686F"/>
<path d="M6.90039 165.7C7.30039 165.5 7.80039 165.4 8.10039 165.1C10.4004 163.3 12.6004 161.3 14.9004 159.5C16.8004 158 18.7004 156.7 20.6004 155.3C21.0004 155 21.4004 154.8 21.9004 154.4C19.8004 155 15.5004 158.2 6.90039 165.7Z" fill="#01686F"/>
<path d="M75.2002 202.1C77.9002 196.3 79.4002 190.2 79.9002 183.8C79.5002 185.9 79.1002 187.9 78.6002 190C78.1002 192.1 77.6002 194.1 76.9002 196.1C76.3002 198.1 75.5002 200 74.7002 202C74.9002 202 75.0002 202 75.2002 202.1Z" fill="#01686F"/>
<path d="M93.1 180.5C93.1 176.5 90.8 165.1 88.5 160.9C88.6 161.3 88.6 161.7 88.8 162.1C90.1 165.9 91.1 169.7 91.8 173.6C92.2 175.9 92.7 178.2 93.1 180.5Z" fill="#01686F"/>
<path d="M51.5004 97.4C52.0004 95.8 52.5004 94.5 52.8004 93.1C53.5004 90 54.2004 86.9 54.8004 83.7C55.0004 82.6 54.9004 81.4 54.9004 80.2C54.9004 79.7 54.5004 79.2 54.3004 78.5C54.1004 78.9 54.0004 79 54.1004 79.1C55.0004 81 54.5004 83 54.1004 85C53.3004 89 52.3004 92.9 51.4004 96.9C51.4004 97 51.4004 97.1 51.5004 97.4Z" fill="#01686F"/>
<path d="M68.9004 149.1C66.0004 153.6 62.6004 164.7 62.4004 170.6C62.7004 169.1 63.1004 167.5 63.4004 166C64.5004 160.2 66.2004 154.7 68.8004 149.4C68.9004 149.3 68.9004 149.2 68.9004 149.1Z" fill="#01686F"/>
<path d="M83.8002 162.3C84.0002 159.8 83.8002 156.9 83.4002 154C83.1002 151.6 82.6002 149.2 81.7002 147C81.3002 145.9 80.6002 144.9 79.7002 144.2C79.9002 144.6 79.9002 144.8 80.0002 145C81.7002 147.6 82.4002 150.5 82.8002 153.5C83.2002 156.6 83.5002 159.7 83.8002 162.3Z" fill="#01686F"/>
<path d="M90.3008 190.2C90.5008 196.6 90.8008 203.1 92.0008 209.4C92.1008 209.4 92.2008 209.4 92.3008 209.4C91.6008 203 90.9008 196.6 90.3008 190.2Z" fill="#01686F"/>
<path d="M72.4004 169.9C74.3004 162.4 76.0004 154.8 75.9004 147.6C75.5004 150.8 75.1004 154.7 74.5004 158.5C74.0004 162.4 73.2004 166.1 72.4004 169.9Z" fill="#01686F"/>
<path d="M35.3008 183.2C32.2008 187.6 30.4008 192.5 29.3008 197.8C29.4008 197.8 29.5008 197.9 29.6008 197.9C29.7008 197.6 29.9008 197.4 29.9008 197.1C30.8008 193.3 32.1008 189.7 33.7008 186.1C34.3008 185.2 34.8008 184.2 35.3008 183.2Z" fill="#01686F"/>
<path d="M55.2008 209.5C56.3008 207.6 56.4008 205.3 56.9008 203.2C57.5008 200.9 57.9008 198.6 58.3008 196.2C58.0008 197.2 57.6008 198.3 57.3008 199.3C56.9008 200.8 56.6008 202.3 56.2008 203.8C55.8008 205.1 55.4008 206.4 55.0008 207.7C54.9008 208.2 54.9008 208.8 54.8008 209.3C55.0008 209.5 55.1008 209.5 55.2008 209.5Z" fill="#01686F"/>
<path d="M46.1008 183.5C43.4008 188.1 40.5008 192.9 37.8008 197.5C39.1008 196.6 45.0008 186.8 46.1008 183.5Z" fill="#01686F"/>
<path d="M41.5 151.7C44.1 150.3 46.8 149 49.3 147.4C51.9 145.7 54.7 144.8 57.6 143.8C57.8 143.7 58.1 143.6 58.3 143.5C58.4 143.5 58.4 143.4 58.5 143.4C52 144.6 46.9 148.5 41.5 151.7Z" fill="#01686F"/>
<path d="M100.7 202.6C100.3 206.7 100 211.1 99.5 215.8C100.5 214.3 101 208 100.7 202.6Z" fill="#01686F"/>
<path d="M58.2 150.7C54.5 152.9 50.8 155 47 157.2C48.1 157.3 56.1 152.8 58.2 150.7Z" fill="#01686F"/>
<path d="M50.4006 133.6C45.9006 132.1 43.1006 129.1 40.6006 125.5C40.6006 125.6 40.7006 125.7 40.7006 125.8C40.8006 125.9 40.8006 126 40.9006 126.1C42.6006 128.9 44.7006 131.4 47.7006 133C48.5006 133.4 49.2006 133.8 50.4006 133.6Z" fill="#01686F"/>
<path d="M90.5002 204.1C90.1002 200.6 89.6002 197.1 89.2002 193.5C89.1002 197.1 89.6002 200.6 90.3002 204.1C90.3002 204.1 90.4002 204.1 90.5002 204.1Z" fill="#01686F"/>
<path d="M53.3004 78.7C53.0004 81.5 52.7004 84.3 52.4004 87C53.2004 84.3 53.6004 81.5 53.6004 78.7C53.5004 78.8 53.4004 78.7 53.3004 78.7Z" fill="#01686F"/>
<path d="M32.5 191.9C31.3 194.3 30.4 196.7 30 199.4C30.1 199.4 30.2 199.5 30.3 199.5C31 196.9 31.8 194.4 32.5 191.9Z" fill="#01686F"/>
<path d="M77.1006 199.3C78.5006 196.9 79.0006 194.1 79.5006 191.4C78.7006 194 77.9006 196.7 77.1006 199.3Z" fill="#01686F"/>
<path d="M14.1008 162C12.3008 163.1 10.6008 164.5 8.80078 166.1C9.90078 165.8 12.6008 163.7 14.1008 162Z" fill="#01686F"/>
<path d="M67 203.8C66.3 205.8 65.7 207.7 65 209.7C65.1 209.7 65.2 209.8 65.4 209.8C66.3 208 66.9 206 67 203.8Z" fill="#01686F"/>
<path d="M42.3008 130.4C43.9008 131.8 45.3008 133.4 47.7008 133.7C47.3008 133.1 46.5008 133.1 46.0008 132.7C45.4008 132.3 44.8008 131.9 44.2008 131.5C43.6008 131.1 43.1008 130.6 42.5008 130.2C42.4008 130.3 42.4008 130.4 42.3008 130.4Z" fill="#01686F"/>
<path d="M57.8 203.9C57 206 56.2 208 56 210.3C56.1 210.3 56.2 210.4 56.4 210.4C56.9 208.2 57.4 206.1 57.8 203.9Z" fill="#01686F"/>
<path d="M87.1003 187.4C87.2003 184.6 87.4003 182.1 87.5003 179.4C86.9003 180.4 86.8003 185.5 87.1003 187.4Z" fill="#01686F"/>
<path d="M48 169.2C49.5 167.2 51 165.1 52.5 163.1C51.4 163.8 48.9 167 48 169.2Z" fill="#01686F"/>
<path d="M33.1002 201.4C33.9002 200 34.7002 198.5 35.5002 197.1C35.4002 197.1 35.4002 197 35.3002 197C34.4002 198.4 33.6002 199.8 32.7002 201.2C32.9002 201.3 33.0002 201.4 33.1002 201.4Z" fill="#01686F"/>
<path d="M154.3 28.2C153.6 28.6 152.9 28.9 152.3 29.3C151.3 30.1 150.3 30.8 149.4 31.7C145.2 36.1 142.3 41.3 140.8 47.2C139.8 51.1 139.8 55 140.7 58.9C142 64.5 143.4 70 144.7 75.5C146 80.9 147.1 86.4 147.8 91.9C148 93.3 148.4 94.6 148.6 95.9C148.8 97.3 148.9 98.6 149.1 100C149.2 100.5 149.3 100.9 149.4 101.4C149.5 101.4 149.6 101.4 149.7 101.4C149.9 100.5 150.1 99.6 150.3 98.7C151.2 94.4 152.1 90.2 152.8 85.9C153.6 81.4 153.7 77 153.3 72.5C152.6 65.6 150.7 58.9 148.6 52.3C147.3 48.5 146.6 44.6 146.5 40.7C146.4 36.8 148 33.8 150.8 31.3C151.9 30.3 153.2 29.3 154.3 28.4C154.4 28.4 154.4 28.3 154.3 28.2ZM150.4 95.8C150.3 95.8 150.2 95.8 150.2 95.8C150.2 95.3 150.2 94.8 150.2 94.3C150.2 91.3 150.3 88.3 150.2 85.3C150.2 83.6 150 81.9 149.8 80.1C149.5 77.2 148.9 74.4 148.1 71.5C147 67.9 146.2 64.2 145.4 60.6C144.6 57.1 143.7 53.6 143.4 49.9C143 45.6 143.9 41.6 145.8 37.9C145.9 37.7 146.1 37.5 146.2 37.3C145.6 40.6 146 43.9 146.6 47.1C147.1 49.8 147.9 52.3 148.7 54.9C150.8 61.3 152.4 67.9 152.9 74.6C153.1 77.3 153 79.9 152.7 82.5C152.4 85.1 151.9 87.6 151.5 90.2C151.2 92.2 150.8 94 150.4 95.8ZM143.1 43.1C142.5 46.3 142.5 49.5 143.1 52.7C143.7 56.1 144.5 59.5 145.3 62.8C146.4 67.4 147.7 71.9 148.7 76.5C149.3 79.5 149.6 82.7 149.8 85.8C150 89.1 149.8 92.4 149.8 95.7C149.8 96.1 149.8 96.5 149.7 96.9C149.5 96.4 149.4 95.8 149.3 95.3C148.9 93.1 148.7 90.9 148.2 88.7C147.3 85.3 146.9 81.8 146.1 78.4C144.7 72.5 143.2 66.6 141.7 60.6C140.8 56.9 140.4 53.1 141 49.3C141.4 47.1 142 45 143.1 43.1Z" fill="#01686F"/>
<path d="M48 26.8999C48.1 27.1999 48.1 27.4999 48.2 27.6999C49.8 31.4999 51.5 35.1999 53.1 38.9999C54 41.0999 54.9 43.2999 55.9 45.3999C57.6 48.7999 59.5 52.0999 62.1 54.9999C65.4 58.6999 69.4 61.2999 74.1 62.6999C76 63.2999 78 63.2999 79.9 63.1999C82.1 63.1999 84.4 62.8999 86.6 62.7999C88.3 62.6999 90 62.3999 91.8 62.3999C98.5 62.1999 104.5 60.0999 110.1 56.5999C111.8 55.4999 113.3 54.2999 114.9 53.0999C115.2 52.8999 115.5 52.4999 115.8 52.2999C115.7 52.1999 115.7 52.0999 115.6 52.0999C115.3 52.2999 115 52.3999 114.8 52.5999C112.7 53.9999 110.7 55.4999 108.6 56.8999C105.1 59.0999 101.2 60.3999 97 60.6999C94.2 60.8999 91.4 61.0999 88.7 60.8999C83.3 60.3999 78.3 58.8999 73.6 56.0999C68.9 53.3999 65 49.7999 61.6 45.5999C58.8 42.1999 56.3 38.5999 53.8 35.0999C52.2 32.7999 50.7 30.2999 49.1 27.8999C48.8 27.4999 48.5 27.1999 48.2 26.7999C48.1 26.7999 48 26.7999 48 26.8999ZM53.4 36.2999C53.5 36.7999 53.5 37.2999 53.8 37.6999C55.3 40.3999 56.6 43.0999 58.2 45.5999C61.9 51.4999 66.9 55.9999 73 59.2999C75.6 60.6999 78.4 61.6999 81.3 62.0999C81.6 62.0999 81.9 62.2999 82.4 62.4999C78.9 62.9999 74.9 62.5999 72.2 61.3999C67.5 59.3999 63.6 56.3999 60.7 52.1999C59.6 50.5999 58.6 48.8999 57.6 47.1999C55.2 42.7999 53.2 38.0999 51.2 33.4999C51.1 33.2999 51.1 33.0999 51.1 32.8999C51.5 33.1999 51.8 33.5999 52 33.9999C52.5 34.6999 52.9 35.5999 53.4 36.2999C53.5 36.1999 53.5 35.9999 53.5 35.7999C53.8 36.1999 54 36.3999 54.2 36.6999C56.3 39.5999 58.3 42.5999 60.6 45.2999C62.6 47.6999 64.7 49.8999 67 51.8999C73 57.2999 80 60.4999 88.1 61.1999C89.3 61.2999 90.4 61.4999 91.6 61.5999C90.7 61.7999 89.8 61.6999 88.9 61.7999C85.5 62.1999 82.2 61.8999 79 60.9999C72.1 59.1999 66.8 55.0999 62.1 49.8999C59.3 46.8999 57.4 43.2999 55.4 39.6999C54.8 38.6999 54.1 37.4999 53.4 36.2999Z" fill="#01686F"/>
<path d="M178.6 0.100006C178 2 177.5 3.8 176.8 5.60001C175 10.4 172.2 14.5 168.5 18C164.2 22.2 159.4 25.5 154 28.2C147.9 31.2 141.8 34.2 135.8 37.4C131.2 39.8 127 42.7 122.7 45.7C113.7 51.9 106.3 59.7 100 68.5C98.0002 71.4 96.1002 74.3 94.4002 77.4C90.1002 85.5 86.4002 93.9 83.4002 102.6C81.5002 108.1 79.7002 113.6 77.9002 119.1C76.4002 123.9 75.0002 128.8 73.5002 133.6C73.1002 134.9 72.6002 136.1 72.2002 137.5C72.8002 137.3 72.9002 136.8 73.1002 136.4C73.7002 134.9 74.2002 133.3 74.8002 131.8C75.5002 129.6 76.3002 127.5 76.9002 125.2C79.1002 117 81.9002 109 84.7002 101C87.4002 93.3 90.7002 86 94.4002 78.8C100.7 66.7 109.4 56.5 120.1 48.2C127 42.9 134.5 38.4 142.3 34.6C147.9 31.9 153.5 29.2 158.8 26.1C165.1 22.5 170.4 17.8 174.4 11.6C176.7 8 178.1 4.10001 179.1 0C178.9 0.100006 178.8 0.100006 178.6 0.100006Z" fill="#01686F"/>
<path d="M224.2 146.1C224.4 146.2 224.5 146.2 224.5 146.2C227.1 148.5 229.8 150.7 232.4 153C233.4 153.8 234.3 154.6 235.4 155.3C238.3 157.2 241 156.6 242.8 153.7C243.9 152 244.4 150.1 244.9 148.3C245.2 147.1 245.5 145.9 245.9 144.7C246.9 141.5 246.8 138.3 246.4 135.1C246 131.9 245.2 128.9 243.6 125.9C244.2 126.1 244.5 126.2 244.8 126.4C250.4 129.4 256.4 131.7 262.3 134C264.1 134.7 265.9 135.1 267.9 135C270.1 134.9 271.1 133.5 270.4 131.4C270.1 130.5 269.5 129.7 269.1 128.9C268.9 128.5 268.5 128.1 268.1 127.4C268.7 127.5 269.1 127.6 269.5 127.6C270.8 127.7 271.4 127.2 271.4 126C271.5 124 271.3 122 270.5 120.1C269.3 117.3 268.2 114.4 266.4 111.9C266.2 111.6 266 111.2 265.7 110.6C267 111 268.2 111.4 269.3 111.8C269.5 111.9 269.7 112 269.9 112C272.6 112 275.2 113 277.8 113.5C279.7 113.9 281.6 114.4 283.6 113.9C286 113.4 287.2 111.6 286.7 109.2C286.4 107.6 285.7 106.1 284.7 104.9C283.2 103 281.7 101.2 280.1 99.4C278.4 97.4 276.7 95.4999 274.9 93.5999C272.5 90.8999 269.7 88.7 266.4 87.4C263.6 86.3 260.8 85.7 257.8 85.3C253.6 84.8 249.4 84.5 245.2 83.9C236.7 82.9 228.5 80.7 221.3 75.8C219.2 74.4 217.2 72.7 215.1 71.3C213.1 69.9 211 68.5 208.9 67.3C207.2 66.3 205.3 65.9 203.3 65.8C200.2 65.6 197.8 64.2999 195.9 61.9999C195.5 61.4999 195.1 60.9 194.7 60.3C194.6 60.1 194.3 60.1 193.9 59.9C193.9 60.4 193.8 60.6999 193.9 60.9999C194.6 65.4999 193.5 69.6 191.1 73.4C189.2 76.3 187.9 79.5999 187.4 82.9999C187.1 84.9999 187 86.9999 186.8 89.0999C186.6 91.7999 186.2 94.4 185.2 96.9C183 102.2 180.5 107.2 177.1 111.8C175.8 113.6 174.3 115.3 172.9 117.1C169.9 121.1 166.6 125 164.1 129.3C160.8 135 158.7 141.1 157.8 147.6C157.5 149.6 157.4 151.6 157.8 153.7C158 154.8 158.4 155.9 159.6 156.2C160.8 156.5 162 156.2 162.8 155.2C163.5 154.3 164.2 153.4 164.7 152.4C165.5 151 166.1 149.5 166.9 148.1C168.8 144.3 171.5 141.1 175 138.6C177.7 136.7 180.3 134.7 182.9 132.6C186.4 129.8 189.4 126.5 191.3 122.3C191.7 121.3 192.1 120.3 192.5 119.1C192.7 119.6 192.7 119.8 192.8 120C193.6 123.9 194.6 127.8 195.3 131.8C195.7 134.2 195.9 136.7 196.2 139.1C197.1 146.8 198.1 154.4 200.6 161.7C201.8 165.2 203.8 168.1 206.5 170.6C207.7 171.7 209 172.7 210.8 172.7C212.6 172.7 213.9 171.9 214.5 170.4C215.2 168.9 215.8 167.2 216 165.6C216.4 161.7 218 158.2 220.2 155.1C221.7 152.9 222.7 150.5 223.6 148C223.8 147.2 224 146.6 224.2 146.1ZM215.3 158C215.3 160 215.4 161.9 215.3 163.9C215.2 165.5 214.9 167.1 214.4 168.6C213.2 172.1 210.8 172.8 207.8 170.6C205.8 169.2 204.3 167.2 203.1 165.2C202.1 163.5 201.3 161.7 200.7 159.9C198.5 153.1 197.5 146 196.8 138.9C196.5 136.4 196.3 134 195.9 131.6C195.3 127.9 194.5 124.3 193.7 120.7C192.6 115.5 191.5 110.4 190.3 105.3C189.4 101.2 188.2 97.1 187.7 92.9C187.1 87.3 187.6 81.9 190 76.8C191.2 74.2 192.7 72 194.9 70.2C195.5 69.7 196.3 69.2999 197 68.9999C198.9 68.3999 200.1 69.4 200 71.3C199.7 76.7 201.1 81.7999 203.4 86.5999C206.5 92.9999 210.5 98.7999 215.8 103.6C217 104.7 217.9 105.9 218.5 107.4C219.4 109.8 220.3 112.2 220.9 114.6C221.7 117.5 222.2 120.4 222.8 123.3C223.3 125.5 223.4 127.8 223 130C222.5 132.7 221.7 135.3 220.3 137.8C219.1 139.9 218.2 142.2 217.2 144.4C215.9 147.3 215.3 150.3 215.4 153.5C215.3 154.9 215.3 156.5 215.3 158ZM266.3 125.4C266.2 125.5 266.1 125.5 266 125.6C266.2 125.9 266.3 126.3 266.5 126.6C267.1 127.4 267.8 128.2 268.4 129.1C268.9 129.8 269.3 130.5 269.6 131.3C270.2 133 269.5 133.9 267.7 134C266.1 134.1 264.5 133.8 263 133.3C260.7 132.4 258.4 131.6 256.1 130.6C245.9 126.5 236.3 121.5 228.4 113.5C227.8 112.9 227 112.4 226.3 111.8C224.1 109.9 221.9 108 219.7 106.1C215 102.1 210.8 97.6999 207.5 92.4999C204.8 88.1999 202.5 83.7 201.3 78.7C200.6 75.7 200.2 72.5999 200.9 69.5999C201.6 66.4999 202.5 66.1999 205.1 66.4999C205.4 66.4999 205.7 66.6 206 66.7C208.4 67.2999 210.4 68.6999 212.4 70.0999C216.2 72.6999 219.3 76 222.4 79.3C228.2 85.4 234.5 90.8999 241.9 94.9999C243.9 96.0999 245.8 97.2 247.7 98.4C251.5 100.7 255.3 103.1 259 105.5C261.3 107 263.2 108.9 264.8 111.1C266.8 113.9 268.1 116.9 269.5 120C270.2 121.6 270.5 123.3 270.5 125.1C270.5 125.6 270.3 126.2 270.3 126.6C268.6 127 267.6 125.7 266.3 125.4ZM224.5 145.1C224.6 144.6 224.7 144.1 224.8 143.7C225.2 141.3 225.8 138.9 225.9 136.5C226.2 132.2 225.6 128 224.5 123.8C223.6 120.5 222.8 117.3 221.8 114C221.4 112.5 220.7 111 220.2 109.5C219.9 108.6 219.3 107.8 219.3 106.6C220.2 107.2 220.9 107.7 221.6 108.3C224.3 110.7 226.9 113.1 229.5 115.5C233 118.7 236.8 121.4 240.9 123.8C241.9 124.4 242.5 125.1 242.9 126.1C243.6 127.9 244.1 129.8 243.7 131.8C243.5 133.1 243.3 134.4 242.8 135.6C241.1 140.2 241 144.9 241.5 149.7C241.6 150.9 241.4 152.2 241.2 153.4C240.9 154.9 239.9 155.6 238.4 155.4C237.6 155.3 236.8 155 236.1 154.6C235.3 154.2 234.7 153.6 234 153.1C231.8 151.3 229.6 149.5 227.5 147.7C226.4 147 225.5 146.1 224.5 145.1ZM285.4 111.7C284 113.2 282.3 113.4 280.5 113C277.5 112.5 274.6 111.9 271.7 111.2C270.6 110.9 269.5 110.8 268.4 110.5C266.7 110 264.9 109.6 263.6 108.3C261.6 106.3 259.3 104.5 256.9 103C251.9 99.8999 246.8 96.9 241.7 93.9C236.6 90.9 231.8 87.5 227.6 83.3C227.3 83 227 82.7 226.8 82.4C227.1 82.4 227.3 82.4999 227.4 82.5999C230.3 84.7999 233.5 86.6 236.8 88.2C243.4 91.3999 250.4 92.4999 257.6 90.9999C260.2 90.4999 262.8 90.0999 265.4 89.4999C267.5 89.0999 269.4 89.6 271 90.8C272.1 91.6 273.1 92.4999 274 93.4999C276.9 96.6999 279.7 99.8999 282.5 103.2C283.5 104.3 284.3 105.6 285.1 106.9C285.9 108.4 286.2 110 285.4 111.7ZM186.4 95.3C186.7 99.5 186.3 103.6 185.8 107.7C185 113.5 183.2 119 180.6 124.2C178 129.5 174.5 134.2 171.4 139.2C169 143.1 166.3 146.8 164.5 151.1C164.2 151.9 163.7 152.6 163.2 153.3C162.9 153.7 162.6 154.1 162.2 154.5C160.6 156 159 155.5 158.6 153.4C158.1 151.3 158.3 149.3 158.6 147.2C159.6 140.3 161.8 133.9 165.7 128.1C168.3 124.2 171.3 120.5 174.1 116.7C175.4 114.9 176.9 113.2 178.2 111.4C181.7 106.6 184.3 101.3 186.3 95.8C186.2 95.6 186.3 95.5 186.4 95.3ZM172.6 139.2C172.5 139.1 172.4 139 172.3 138.9C172.5 138.5 172.7 138.2 172.9 137.8C174.5 135.4 176.1 133 177.6 130.6C180.9 125.3 183.7 119.8 185.2 113.8C186.4 109.3 186.9 104.6 187.1 99.9C187.1 98.7 187.1 97.5 187.1 96.3C187.4 96.6 187.5 96.7999 187.6 97.0999C188.9 102.7 190.2 108.4 191.5 114C192 116 191.9 117.9 191.1 119.9C190.3 122 189.4 124.1 187.9 125.8C186.2 127.8 184.4 129.8 182.4 131.5C179.3 134.3 175.9 136.7 172.6 139.2ZM267.1 88.3C267.1 88.4 267.1 88.4999 267.1 88.5999C266 88.6999 264.9 88.8999 263.8 88.9999C261.2 89.4999 258.5 89.9999 255.9 90.4999C252.3 91.1999 248.8 91 245.2 90.3C241.4 89.5 237.9 88 234.4 86.2C230 83.8999 226.1 80.7999 222.1 77.7C221.8 77.5 221.6 77.2 221.3 76.8C221.5 76.8 221.5 76.8 221.6 76.8C221.8 76.9 221.9 76.9999 222.1 76.9999C228 80.6999 234.5 82.7 241.3 83.8C245.3 84.4 249.4 84.6999 253.4 85.0999C256.9 85.4999 260.4 85.9999 263.8 86.9999C265 87.3999 266.1 87.9 267.1 88.3ZM223.9 125.4C224 125.5 224.1 125.6 224.1 125.7C225.1 130 225.5 134.3 225 138.7C224.3 144.1 222.9 149.2 219.9 153.9C218.6 155.8 217.7 158 216.6 160.1C216.5 160.2 216.4 160.4 216.1 160.7C216.1 158 216.1 155.7 216.1 153.3C216.1 152.4 216.1 151.6 216.2 150.7C216.5 147.7 217.6 144.9 218.9 142.2C219.8 140.4 220.8 138.7 221.5 136.9C223 133.5 224 129.9 223.8 126.1C223.8 125.9 223.9 125.7 223.9 125.4ZM242.3 153C242.2 153 242.2 153 242.1 152.9C242.1 152.5 242.1 152.1 242.1 151.8C242.1 150.1 242.2 148.4 242 146.7C241.7 144.2 242 141.7 242.6 139.3C243.3 136.5 244.7 133.8 244.6 130.8C244.8 131 244.9 131.2 245 131.4C245.4 133.9 245.8 136.3 246 138.8C246.2 140.8 245.7 142.7 245.1 144.7C244.4 146.9 243.8 149.2 243.2 151.4C242.9 151.9 242.6 152.4 242.3 153Z" fill="#01686F"/>
<path d="M214.2 169.5C214.7 168.1 214.4 166.7 214 165.3C212.3 158.4 210.6 151.5 208.8 144.6C207.6 140 206.3 135.4 205 130.9C204.9 130.7 204.8 130.4 204.6 130.2C204.9 131.4 205.2 132.6 205.5 133.8C208.1 144.1 210.7 154.5 213.3 164.8C213.7 166.4 213.9 168 214.2 169.5Z" fill="#01686F"/>
<path d="M196.6 72.6C196.2 76.1 196.2 79.8 196.5 83.5C197.2 92.6 199.9 101.2 203.2 109.6C203.9 111.4 204.6 113.3 205.6 115.1C205 113.5 204.4 111.9 203.9 110.2C202.1 105.3 200.3 100.4 199 95.3C198.1 91.5 197.3 87.6 197 83.7C196.8 79.9 196.7 76.1 196.6 72.6Z" fill="#01686F"/>
<path d="M231.2 92C230.9 91.7 230.6 91.3 230.3 91C228 88.5 225.7 86.1 223.5 83.5C220.4 80 217.4 76.4 214.3 72.9C212.6 70.9 210.7 69.1 208.5 67.7C207.3 66.9 206 66.3 204.3 66C204.6 66.2 204.6 66.4 204.8 66.4C208.3 67.7 211.1 70 213.5 72.7C215.8 75.3 218 78.1 220.3 80.7C223.7 84.4 227.2 88.1 230.7 91.8C230.8 91.9 230.9 92 231.1 92.1C231.1 92.1 231.2 92.1 231.2 92Z" fill="#01686F"/>
<path d="M190.2 75.8C189.3 76.9 189.1 78.2999 189 79.5999C188.2 86.1999 189.4 92.6 191.2 98.9C191.9 101.5 192.8 104.1 193.7 106.7C193.8 106.9 193.9 107.1 194.1 107.2C193.6 105.3 193 103.4 192.5 101.5C191.4 97.5999 190.3 93.8 189.8 89.8C189.3 85.2 188.9 80.5999 190.3 75.9999C190.3 75.9999 190.3 75.9 190.2 75.8Z" fill="#01686F"/>
<path d="M234.8 114.4C234.8 114.4 234.8 114.5 234.9 114.5C241.3 120.7 248.1 126.3 256 130.6C258.3 131.8 260.8 132.5 263.2 133.5C263.3 133.6 263.5 133.5 263.7 133.4C263.5 133.3 263.3 133.1 263.1 133.1C256.1 130.8 250.1 126.8 244.4 122.3C242.8 121 241.1 119.7 239.5 118.4C238.1 117.2 236.8 116 235.5 114.8C235.3 114.6 235 114.5 234.8 114.4Z" fill="#01686F"/>
<path d="M221.4 135.4C221.4 134.3 221.5 133.2 221.4 132.1C221 127.8 220.1 123.7 218.9 119.5C217.5 114.8 216 110.1 214.2 105.5C214 105.1 213.8 104.6 213.6 104.2C215.2 109.3 216.9 114.4 218.4 119.6C219.9 124.7 220.9 130 221.1 135.4C221.2 135.4 221.3 135.4 221.4 135.4Z" fill="#01686F"/>
<path d="M215.4 92.9999C209.3 85.8999 203.4 78.7999 200.8 69.5999C200.7 69.5999 200.6 69.7 200.5 69.7C200.8 70.7 201 71.6999 201.3 72.5999C203.3 77.8999 206.2 82.6 209.8 86.9C211.6 89 213.3 91.1 215.1 93.2C215.2 93.1 215.3 93.0999 215.4 92.9999Z" fill="#01686F"/>
<path d="M237.8 128.5C233.8 122 230.1 115.3 224.6 109.9C224.5 110 224.4 110.1 224.3 110.1C225.9 112 227.6 113.9 229.1 115.8C230.7 117.9 232.1 120 233.5 122.2C234.9 124.3 236.3 126.4 237.7 128.5C237.7 128.6 237.8 128.6 237.8 128.5Z" fill="#01686F"/>
<path d="M211.1 172.2C209.6 168.9 208.1 165.9 206.8 162.8C205.5 159.7 204.5 156.4 203.5 153.6C203.8 157.8 208.6 170.3 211.1 172.2Z" fill="#01686F"/>
<path d="M243.8 111.6C235.9 106 228 100.3 221.3 93.2C222.6 95.8 234.4 105.5 243.8 111.6Z" fill="#01686F"/>
<path d="M232.9 129.7C236 136.6 239.5 143.3 241.5 150.6C241.6 150.6 241.7 150.6 241.8 150.6C241.8 150.2 241.8 149.8 241.6 149.4C240.6 146.7 239.8 143.9 238.7 141.2C237 137.3 235.1 133.5 233.2 129.6C233.1 129.6 233 129.6 232.9 129.7Z" fill="#01686F"/>
<path d="M215.2 156C216.4 153.9 212.9 138.6 211.1 134.9C211.7 137.2 212.3 139.4 212.7 141.7C213.5 145.4 214.2 149.1 214.9 152.7C215.2 153.8 215.1 154.9 215.2 156Z" fill="#01686F"/>
<path d="M189 103.5C188.9 103.8 188.8 104.2 188.8 104.5C188.7 107.6 187.7 110.5 186.4 113.3C185.2 115.9 183.9 118.5 182.7 121.1C182.6 121.3 182.5 121.5 182.5 121.7C184.5 119.1 185.7 116 187.1 113C188.5 110 189.5 106.9 189.3 103.5C189.3 103.5 189.2 103.5 189 103.5Z" fill="#01686F"/>
<path d="M177 136.1C182.9 131.6 186.4 125.3 189.3 118.6C187.5 121.7 185.7 124.8 183.8 127.8C182 130.9 179.5 133.6 177 136.1Z" fill="#01686F"/>
<path d="M274.1 103C266.2 98.5999 258 95.3 249.7 92.2C257.8 95.7 265.9 99.2999 274.1 103Z" fill="#01686F"/>
<path d="M268.2 118.5C266.9 115.8 265 113.7 262.8 111.6C259.9 108.8 256.6 106.5 253.2 104.3C252.9 104.1 252.5 103.9 252.1 103.8C258.1 108.1 264.1 112.3 268.2 118.5Z" fill="#01686F"/>
<path d="M233.8 86.8C240.8 91.7 247.9 96.4 256.1 99.1C248.1 96 241 91.3 233.8 86.8Z" fill="#01686F"/>
<path d="M255.5 118.8C256 119.2 256.6 119.6 257.1 120C260.6 122.2 264.1 124.4 267.6 126.5C268.2 126.9 268.9 127.3 269.8 127.1C265 124.3 260.3 121.5 255.6 118.7C255.6 118.7 255.6 118.8 255.5 118.8Z" fill="#01686F"/>
<path d="M192.7 70.9999C192.5 71.2999 192.3 71.6999 192.1 71.9999C191.1 74.1999 190.7 76.5 190.7 78.9C190.7 82.1 191 85.2 191.6 88.3C191.7 88.6 191.8 88.8999 192 89.4999C191.9 88.1999 191.8 87.2 191.7 86.2C191.5 84 191.3 81.6999 191.2 79.4999C191.1 76.8999 191.6 74.3999 192.6 71.9999C192.7 71.6999 192.8 71.3999 192.9 71.0999C192.9 71.0999 192.8 70.9999 192.7 70.9999Z" fill="#01686F"/>
<path d="M234.7 153.3C234.4 153 233.9 152.7 233.7 152.4C232.7 150.8 231.7 149.2 230.9 147.6C229.7 144.9 228.6 142.2 227.4 139.5C227.3 139.3 227.2 139 227 138.7C227.4 142.7 232.2 152.5 234.6 154.3C234.6 154 234.7 153.8 234.7 153.6C234.7 153.4 234.7 153.3 234.7 153.3Z" fill="#01686F"/>
<path d="M203.6 86.4999C205.8 91.6999 207.9 96.9 210.2 102.2C209.9 99.8 205 87.6999 203.6 86.4999Z" fill="#01686F"/>
<path d="M267.3 107.7C269.2 108.5 271 109.2 272.9 109.9C274.4 110.5 275.9 111.3 277.5 111.6C279.9 112 282.1 113.1 284.6 112.8C284.6 112.8 284.7 112.7 284.8 112.6C284.3 112.5 283.9 112.4 283.5 112.3C282.2 112.1 280.9 112.1 279.7 111.7C277.3 111 275 110.1 272.7 109.3C271 108.7 269.2 108.1 267.5 107.4C267.4 107.5 267.3 107.6 267.3 107.7Z" fill="#01686F"/>
<path d="M210.8 125.3C208.8 119.3 206.7 113.4 204.1 107.6C206.2 113.5 208.3 119.5 210.5 125.4C210.6 125.3 210.7 125.3 210.8 125.3Z" fill="#01686F"/>
<path d="M265.8 92.2C270.3 94.6 274.8 97 279.3 99.4C278.2 97.7 269.9 93.3 265.8 92.2Z" fill="#01686F"/>
<path d="M234.5 120.7C237.5 125.5 240.7 130.1 242.6 135.6C242.8 135 242.6 134.5 242.4 134.1C241.5 132.2 240.7 130.2 239.7 128.4C238.2 125.6 236.5 123.1 234.5 120.7Z" fill="#01686F"/>
<path d="M241.3 102.7C236.5 99 231.9 95.2999 227.6 90.5999C228.5 92.7999 236.9 100.1 241.3 102.7Z" fill="#01686F"/>
<path d="M234.7 153.3C234.7 153.3 234.8 153.4 234.8 153.5C235.2 154.1 235.7 154.6 236.1 155.2C236.2 155.2 236.3 155.1 236.3 155.1C236.1 154.7 236 154.3 235.7 153.9C234.2 151.3 232.8 148.7 231.3 146.1C230.9 145.4 230.6 144.7 230.1 144.1C230.4 144.8 230.6 145.6 231 146.3C232 148.3 233 150.2 234 152.1C234.3 152.5 234.5 152.9 234.7 153.3Z" fill="#01686F"/>
<path d="M285.5 107.6C285.2 107.3 284.9 106.9 284.6 106.7C281.1 104.7 277.5 102.7 274 100.7C274 100.7 273.9 100.7 273.9 100.8C277.8 103.1 281.6 105.4 285.5 107.6Z" fill="#01686F"/>
<path d="M186.9 117.4C188.8 114.7 190.8 107.8 190.3 105.4C189.8 107.7 189.5 109.7 189 111.6C188.4 113.6 187.6 115.5 186.9 117.4Z" fill="#01686F"/>
<path d="M259.8 128.6C262.7 130.7 265.7 132.5 268.9 133.9C269 133.8 269 133.7 269.1 133.6C266 131.9 262.9 130.2 259.8 128.6Z" fill="#01686F"/>
<path d="M212.6 171.7C211.1 168.8 209.6 166 208.2 163.1C209 166.3 210.7 169.1 212.2 172C212.3 171.8 212.4 171.7 212.6 171.7Z" fill="#01686F"/>
<path d="M263.5 121.8C265.4 123.5 269.5 125.7 270.8 125.6C268.2 124.3 265.9 123.1 263.5 121.8Z" fill="#01686F"/>
<path d="M285.1 111.5C282.3 110.8 279.4 110 276.6 109.3C276.6 109.4 276.6 109.4 276.5 109.5C277.8 109.9 279.2 110.3 280.5 110.8C281.5 111.1 282.4 111.5 283.4 111.7C283.9 111.8 284.5 111.7 285 111.7C285.1 111.6 285.1 111.5 285.1 111.5Z" fill="#01686F"/>
<path d="M270.7 93.0999C272.5 94.1999 274.4 95.1999 276.2 96.2999C276.3 96.1999 276.3 96.0999 276.4 95.9999C274.7 94.6999 272.7 93.7999 270.8 92.8999C270.8 92.8999 270.7 92.9999 270.7 93.0999Z" fill="#01686F"/>
<path d="M206.1 83.9C207.4 85.8 208.8 87.5999 210.1 89.4999C210.2 89.3999 210.2 89.4 210.3 89.3C209 87.4 207.6 85.6 206.3 83.7C206.3 83.8 206.2 83.9 206.1 83.9Z" fill="#01686F"/>
<path d="M269.7 132.7C268.2 132 266.8 131.2 265.3 130.5C266.6 131.6 268 132.5 269.5 133C269.6 132.8 269.7 132.8 269.7 132.7Z" fill="#01686F"/>
<path d="M217.9 95.7C217.3 95.1 216.7 94.4 216.1 93.8C216.7 94.4 217.4 94.9999 218 95.5999C217.9 95.6999 217.9 95.7 217.9 95.7Z" fill="#01686F"/>
<path d="M234.8 114.4C234.2 113.7 233.6 113.1 233 112.4C232.9 112.5 232.8 112.6 232.7 112.7C233.4 113.3 234.1 113.9 234.8 114.4Z" fill="#01686F"/>
<path d="M181.7 0C181.7 0.5 181.6 0.900024 181.6 1.40002C181.5 8.00002 181.5 14.6 181.3 21.2C181.1 27.8 181.9 34.2 183.8 40.6C184.7 43.7 186.3 46.6 188.1 49.3C188.4 49.8 188.9 50.2 189.2 50.7C191.2 53.5 192.7 56.7 193.6 60C194 61.2 194.6 62.4 195.1 63.6C195.2 63.9 195.5 64.1 195.6 64.4C195.7 64.4 195.8 64.3 195.9 64.3C195.8 63.9 195.8 63.5 195.6 63.2C194.7 60.8 193.6 58.5 192.8 56.1C191.9 53.3 190.3 51.1 188.7 48.8C187.1 46.5 185.8 44.1 184.9 41.5C183.6 37.8 182.8 34 182.4 30.1C182 26.3 181.9 22.5 182.1 18.7C182.3 12.9 182.3 7.10002 182.4 1.30002C182.5 0.600018 182.7 0 181.7 0Z" fill="#01686F"/>
<path d="M75.7001 266.6C75.3 267.2 75 267.5 74.7001 267.8C71.8001 271.2 69.4001 275 67.4001 279C65.4001 283.3 63.6001 287.6 62.8001 292.3C62.4001 294.8 62.4001 297.2 62.8001 299.7C63.4001 303.4 64.0001 307.1 64.9001 310.8C65.4001 312.8 66.2001 314.6 67.0001 316.5C67.4001 317.3 67.9001 318.1 68.5001 318.7C69.8001 320.2 71.4001 320.4 73.2001 319.5C74.1001 319 74.9001 318.4 75.7001 317.8C77.7001 316.1 79.9001 314.7 82.2001 313.5C82.5 313.3 82.8 313.2 83.2001 313C83.4001 314.1 83.6001 315.1 83.8001 316.1C84.9001 320.5 86.8001 324.4 89.8001 327.7C92.1001 330.2 95.1001 331.5 98.5001 331.9C100 332.1 101.5 332.3 103 332.5C106.1 332.9 109.1 332.8 112.1 331.9C112.5 331.8 112.9 331.6 113.3 331.4C117.8 329.3 121 326 123.2 321.7C123.8 320.5 124.4 319.2 124.8 317.9C125.2 316.6 125.5 315.3 125.8 313.9C126.1 314.3 126.4 314.7 126.7 315.1C128.1 317 129.6 318.8 131.4 320.2C132.8 321.3 134.3 322.1 136.1 322.1C136.9 322.1 137.6 321.9 138 320.9C138.4 321.3 138.7 321.7 139 322C139.8 322.9 140.7 323.2 141.9 322.9C144.4 322.3 146 320.8 147.1 318.6C147.9 317 148.2 315.2 148.4 313.5C148.9 308.6 148.7 303.6 148.4 298.7C148 293.1 146.4 287.7 144.3 282.5C142 276.7 139 271.4 134.9 266.7C133.3 264.9 131.4 263.3 129.7 261.6C129.4 261.3 129.1 261.1 128.6 260.6C129.2 260.7 129.4 260.7 129.7 260.8C134.1 262.3 138.3 263.9 142.4 266.1C143.3 266.6 143.9 267.2 144.4 268.1C145.9 270.8 147.3 273.5 149.4 275.7C150.8 277.2 152.3 278.9 153.9 280.2C156.3 282.1 159.1 282.7 162.1 282.4C163.4 282.3 164.2 281.4 164.7 280.1C165.3 278.5 165.3 276.9 164.8 275.4C164.4 274.1 164 272.7 163.3 271.5C159.6 265.7 155.9 259.9 151.5 254.5C149.7 252.3 147.6 250.5 145.3 248.8C141 245.6 136.1 244.1 130.7 243.9C125.6 243.7 120.7 244.7 116.1 246.9C115.8 247 115.5 247.2 115.3 247.3C115.2 247.3 115.1 247.3 115 247.3C115 247.1 115 246.9 115 246.7C115.8 243.2 115.1 240 113.2 237C111.5 234.2 109.1 232 106.4 230.3C104.2 228.9 101.9 227.7 99.7001 226.4C97.4001 225.1 94.9001 225.1 92.4001 225.7C90.9001 226 89.4001 226.6 88.0001 227.1C86.4001 227.7 84.8 228.4 83.2001 229.2C82 229.8 80.7001 230.5 79.6001 231.2C77.2001 232.8 76.5 234.9 77.2001 238.2C77.6001 240 78.7001 241.5 80.1001 242.6C81.6001 243.7 83.2001 244.7 84.7001 245.7C85 245.9 85.4001 246.1 85.8001 246.6C85.4001 246.6 84.9001 246.7 84.5001 246.7C81.5001 246.6 78.6001 246.9 75.8001 247.8C72.3001 248.8 68.7001 249.9 65.2001 251.2C59.9001 253.1 54.4001 254.7 48.9001 256C47.4001 256.4 45.8001 256.9 44.4001 257.5C43.7001 257.8 42.9001 258.3 42.4001 258.8C41.4001 259.7 41.4001 260.8 42.5001 261.6C43.3001 262.2 44.2001 262.7 45.2001 263.1C47.8001 264.1 50.4001 264.9 53.0001 266C57.3001 267.8 61.7001 268.5 66.3001 268.2C69.0001 268.1 71.6 267.7 74.2001 267C74.6001 266.8 75 266.8 75.7001 266.6ZM107.9 255.1C109 257.8 109.5 260.7 109.6 263.6C109.8 266.8 109.6 270 109.1 273.2C108.6 276.5 108 279.9 106.9 283.1C105.5 287.1 103.4 290.8 101.1 294.4C96.4001 301.7 90.7001 307.8 83.2001 312.2C80.1001 314.1 77.0001 316 74.1001 318.2C71.6001 320.2 70.0001 320.1 68.0001 317.1C67.8001 316.8 67.6001 316.4 67.4001 316.1C66.8001 314.6 66.1001 313.2 65.7001 311.6C64.9001 308 64.2001 304.3 63.5001 300.7C62.9001 297.4 62.9001 294.2 63.7001 290.9C65.4001 283.9 68.5001 277.5 72.6001 271.6C76.7001 265.8 81.8001 261.3 88.3001 258.4C92.9001 256.4 97.7001 255.2 102.7 254.9C104.7 254.7 106.3 254.5 107.9 255.1ZM137.3 321.1C135.7 321.7 134 321.2 133.1 319.9C131.6 317.9 130.7 315.6 129.7 313.3C128 309 125.7 305 122.7 301.5C120.8 299.3 118.6 297.3 116.5 295.2C115.2 293.9 114.1 292.6 113.3 291C111.1 286.5 110.1 281.8 109.9 276.8C109.8 274 110.2 271.3 110.3 268.5C110.5 264.1 110.2 259.8 108.8 255.7C108.7 255.4 108.7 255.1 108.7 254.8C110.4 254.2 112 254.4 113.6 254.7C121.7 256.3 128.3 260.5 133.8 266.5C137.7 270.7 140.6 275.7 142.9 280.9C146.3 288.4 148 296.2 148 304.4C148 307.4 148 310.4 147.7 313.4C147.6 314.9 147.2 316.5 146.6 317.9C145.8 319.9 144.4 321.4 142.2 322.1C140.8 322.5 140.2 322.4 139.3 321.2C138.6 320.3 138.1 319.3 137.4 318.4C137.2 318.1 136.9 317.8 136.7 317.5C136.6 317.6 136.5 317.6 136.4 317.7C136.5 318.9 137.7 319.9 137.3 321.1ZM109 278.2C109.1 278.2 109.2 278.2 109.3 278.2C109.5 279.9 109.7 281.6 110.1 283.3C111.5 291.1 114.8 298.1 119.6 304.4C121.4 306.8 123.1 309.3 124.9 311.8C125.2 312.3 125.4 312.9 125.4 313.5C125.4 314.2 125.2 314.9 125.1 315.5C124 320.6 121.2 324.8 117.3 328.3C115.7 329.8 113.7 330.7 111.6 331.3C108.8 332.1 106 332.2 103.1 331.7C101.6 331.5 100.2 331.3 98.7001 331.1C95.6001 330.7 92.8001 329.7 90.6001 327.2C87.5001 323.6 85.5001 319.5 84.5001 314.9C84.3001 314.1 84.3 313.2 84.2001 312.4C84.7001 312 85.1001 311.8 85.5001 311.5C90.2001 308.4 94.4001 304.8 97.8001 300.2C99.5001 298 101.1 295.8 102.6 293.5C105.2 289.4 107.2 285.1 108.5 280.4C108.7 279.8 108.8 279 109 278.2ZM101.1 231C101.5 231 101.9 231.1 102.3 231.1C105.3 231.5 107.9 232.9 110.2 234.7C113.3 237 114.7 240.3 114.8 244C114.8 247.9 112.8 251 109.8 253.4C108.7 254.3 106.6 254.3 105.7 253.5C104.1 251.9 102 251.1 100.1 250.1C97.6001 248.8 94.9001 248.1 92.2001 247.3C91 247 89.7001 247 88.5001 246.5C85.8001 245.4 83.2001 244 80.9001 242.1C79.6001 241 78.4001 239.6 78.0001 237.9C77.5001 235.8 77.7001 233.9 79.5001 232.4C81.8001 230.5 84.3001 229.9 87.1001 230.3C88.8001 230.5 90.4001 231 92.0001 231.4C93.5001 231.8 95.1001 231.9 96.6001 231.6C98.2001 231.4 99.7001 231.2 101.1 231ZM123.4 245.4C123.8 245.3 124.2 245.2 124.6 245.1C126.9 244.7 129.2 244.7 131.6 244.8C136.2 245 140.4 246.4 144.2 249C147.9 251.5 150.9 254.6 153.5 258.2C156 261.7 158.4 265.2 160.7 268.7C161.7 270.1 162.7 271.6 163.4 273.1C164.4 275.2 165.1 277.5 164.2 279.9C163.7 281.4 163 281.9 161.4 281.9C158.9 281.9 156.6 281.3 154.6 279.7C151.4 277.1 148.7 274.1 146.7 270.5C145.2 267.9 143.9 265.2 142.5 262.6C141 259.5 139 256.7 136.8 254.1C134.5 251.5 132 249.3 129 247.6C127.3 246.4 125.4 245.9 123.4 245.4ZM104.7 253.8C102.1 254.1 99.6001 254.3 97.2001 254.8C90.3 256.2 84.1001 259 78.9001 263.7C77.3001 265.1 75.6001 265.9 73.6001 266.5C72.9001 266.7 72.2001 266.8 71.6001 266.9C67.7001 267.7 64.0001 267.3 60.5001 265.5C59.6001 265.1 58.8001 264.5 57.9001 264.1C56.2001 263.4 54.5001 262.6 52.7001 262.1C51.2001 261.7 49.6001 261.9 48.0001 261.7C46.8001 261.6 45.5001 261.4 44.3001 261.2C43.5001 261.1 43.0001 260.6 42.6001 259.8C43.4001 258.6 44.5001 257.8 46.1001 257.7C50.3001 257.5 54.4001 258.4 58.6001 259.2C62.8001 260 67.0001 259.9 70.9001 258.1C73.5001 257 76.0001 255.7 78.5001 254.5C81.2001 253.2 83.9001 251.8 86.7001 250.6C89.9001 249.3 93.2001 248.9 96.6001 249.7C99.3001 250.4 101.7 251.7 104.1 253.1C104.2 253.3 104.4 253.5 104.7 253.8ZM111.2 253.5C112 252.5 112.8 251.5 113.5 250.4C114.2 249.3 114.6 248 116.2 248C116.3 248 116.4 247.8 116.5 247.7C118.2 246.8 120 246.1 121.9 246.1C124.7 246.2 127.2 247.1 129.5 248.6C131.1 249.7 132.6 250.8 134 252.1C137.6 255.5 140.3 259.5 142.4 263.9C142.6 264.3 142.8 264.8 143.1 265.5C142.6 265.3 142.4 265.2 142.1 265.1C139.8 264.1 137.5 263 135.2 262.1C132.9 261.2 130.6 260.4 128.3 259.8C127.2 259.5 126.2 259.1 125.2 258.5C122.4 256.7 119.4 255.4 116.2 254.6C114.7 254.3 112.9 253.9 111.2 253.5ZM48.1001 257.1C48.1001 257 48.1001 257 48.0001 256.9C48.1001 256.8 48.2001 256.8 48.3001 256.7C48.6001 256.6 48.9001 256.5 49.2001 256.5C54.9001 255.2 60.6001 253.6 66.1001 251.5C69.1001 250.4 72.1001 249.5 75.1001 248.6C76.2001 248.3 77.4001 248.4 78.4001 248C79.4001 247.6 80.5001 247.5 81.5001 247.4C83.4001 247.3 85.2001 247.2 87.1001 247.4C88.9001 247.5 90.7001 247.9 92.5001 248.2C92.8001 248.2 93 248.4 93.2001 248.5C91.7001 248.7 90.2001 248.9 88.8001 249.2C85.8001 249.8 83.0001 251.3 80.3001 252.6C76.8001 254.3 73.4001 256.1 69.8001 257.7C66.5001 259.1 63.1001 259.4 59.5001 258.7C57.1001 258.2 54.7001 257.9 52.3001 257.5C51.0001 257.3 49.5001 257.2 48.1001 257.1ZM85.0001 229.4C86.9001 228.2 90.9001 226.7 92.8001 226.3C95.7001 225.7 98.4001 226.1 100.8 227.8C101.3 228.1 101.8 228.3 102.3 228.6C103.8 229.5 105.4 230.5 106.9 231.4C106.7 231.6 106.6 231.6 106.5 231.6C103.7 230.3 100.9 230.1 97.9001 230.7C96.1001 231.1 94.3001 231.3 92.5001 230.7C90.2001 230 87.8001 229.5 85.0001 229.4ZM114.5 294.3C115.9 295.7 117.4 297.1 118.8 298.6C123.1 302.7 126.4 307.5 128.7 312.9C129.5 314.8 130.5 316.7 131.3 318.5C131.3 318.6 131.3 318.7 131.4 319.1C130.9 318.6 130.5 318.4 130.2 318C128.9 316.4 127.6 314.8 126.4 313.1C124.2 310 122.1 306.9 119.9 303.9C119.3 303.1 118.7 302.3 118.2 301.5C116.8 299.2 115.4 296.9 114.5 294.3ZM46.0001 262.5V262.4C47.4001 262.4 48.8001 262.4 50.1001 262.6C51.3001 262.7 52.7001 262.8 53.8001 263.2C56.8001 264.5 59.7001 266 62.6001 267.4C61.8001 267.5 60.9001 267.5 60.2001 267.3C58.3001 266.9 56.3001 266.5 54.4001 265.9C51.9001 265.1 49.6001 264.1 47.1001 263.1C46.8001 262.8 46.4001 262.7 46.0001 262.5Z" fill="#01686F"/>
<path d="M90.8002 256.7C86.4002 255.4 82.0002 256.4 77.6002 256.9C81.6002 257 85.7002 256 90.0002 257C89.6002 257.3 89.4002 257.5 89.2002 257.6C85.2002 259.6 82.2002 262.6 79.8002 266.3C76.1002 272.1 73.6002 278.4 71.5002 285C71.2002 285.9 71.0002 286.7 70.7002 287.6C70.7002 287.7 70.7002 287.8 70.8002 288C71.3002 286.6 71.7002 285.3 72.2002 284C74.3002 278.1 76.6002 272.3 80.0002 266.9C82.5002 263 85.6002 259.8 89.8002 257.6C90.2002 257.4 90.5002 257.2 90.9002 256.9C90.8002 256.9 90.8002 256.8 90.8002 256.7Z" fill="#01686F"/>
<path d="M72.1006 305C73.6006 295.9 76.2006 287.1 79.6006 278.5C80.8006 275.4 82.2006 272.4 83.7006 269.4C85.4006 266 87.6006 263.1 90.4006 260.6C90.5006 260.5 90.6006 260.4 90.7006 260.2C89.2006 261.4 87.8006 262.7 86.6006 264.2C84.0006 267.5 82.0006 271.2 80.4006 275.1C77.2006 283.1 74.4006 291.2 72.8006 299.7C72.5006 301.4 72.3006 303.2 72.1006 305Z" fill="#01686F"/>
<path d="M116.7 255.4C128.2 263.7 136.1 274.5 139.5 288.4C137.9 280.8 135 273.8 130.2 267.7C126 262.2 119.2 256 116.7 255.4Z" fill="#01686F"/>
<path d="M106.601 274.1C108.601 268.2 109.701 262.1 108.901 255.6C114.101 259.3 117.301 264.4 120.701 269.5C119.301 265.8 112.601 256.6 108.301 254.9C108.701 258.2 108.901 261.4 108.401 264.6C107.801 267.7 107.201 270.9 106.601 274.1Z" fill="#01686F"/>
<path d="M109.601 254.6C109.801 254.8 110.001 254.9 110.201 255C114.501 257.3 117.801 260.6 120.601 264.5C123.501 268.5 125.801 272.9 127.901 277.3C128.101 277.7 128.301 278 128.601 278.4C125.501 270.7 121.801 263.5 115.401 257.9C113.901 256.6 112.101 255.7 110.401 254.6C110.201 254.5 110.001 254.5 109.801 254.4C109.801 254.5 109.701 254.6 109.601 254.6Z" fill="#01686F"/>
<path d="M90 291C94.8 281.4 98.2 271.2 101.6 261.1C97.8 271.1 94.2 281.2 90 291Z" fill="#01686F"/>
<path d="M103.9 292.4C103.4 293.9 103 295.4 102.4 296.9C101 300.2 100.2 303.7 99.7004 307.2C99.3004 310.1 99.1005 312.9 98.8005 315.8C98.6005 317.4 98.6004 319.1 98.7004 320.8C98.8004 320.6 98.9005 320.3 99.0005 320.1C99.1005 318.9 99.2005 317.7 99.3005 316.5C99.6005 311.5 100.2 306.6 101.4 301.8C102.1 298.8 103.2 295.9 104.1 293C104.1 292.9 104.2 292.7 104.2 292.5C104 292.5 104 292.5 103.9 292.4Z" fill="#01686F"/>
<path d="M87.7002 309.7C90.3002 307.9 98.3002 290.4 99.2002 285.2C97.5002 289.3 95.7002 293.5 94.0002 297.7C92.1002 301.9 90.0002 305.8 87.7002 309.7Z" fill="#01686F"/>
<path d="M111.4 309.9C112.3 297.3 111.5 286 110.1 282.4C109.7 283.6 110.2 284.6 110.3 285.6C110.5 287.7 110.9 289.8 111 291.9C111.2 298 111.3 304.1 111.4 309.9Z" fill="#01686F"/>
<path d="M109.7 263.1C111.2 271.4 113.7 279.4 117 287.1C115.7 283.1 114.4 279.2 113.2 275.1C112 271.1 111 267 110 262.9C109.9 263.1 109.8 263.1 109.7 263.1Z" fill="#01686F"/>
<path d="M110.2 270.7C111.5 279.1 115.1 286.6 118.9 294.1C117.3 290.3 115.5 286.5 114.1 282.6C112.6 278.7 111.5 274.7 110.2 270.7Z" fill="#01686F"/>
<path d="M119.7 278C122.9 286.9 126.1 295.7 129.3 304.6C126.9 295.5 123.4 286.7 119.7 278Z" fill="#01686F"/>
<path d="M65.9005 312.4C66.1005 312.4 66.2005 312.4 66.4005 312.3C66.4005 312.6 66.4005 312.9 66.4005 313.2C66.4005 313.4 66.5005 313.7 66.5005 313.9C66.6005 313.9 66.7005 313.9 66.8005 313.9C67.1005 311.4 67.3005 308.8 67.6005 306.3H67.5005C67.2005 308 66.9005 309.6 66.5005 311.3C66.3005 307 67.0005 302.9 67.6005 298.7C66.5005 301.2 65.4005 310.2 65.9005 312.4Z" fill="#01686F"/>
<path d="M114.8 330.5C115.1 330 115.5 329.5 115.7 328.9C116.7 326.4 117.5 323.9 117.9 321.2C118.3 318.8 118.6 316.3 118.9 313.9C119 312.4 118.9 310.8 118.9 309.4C118.2 316.4 117.6 323.6 114.5 330.3C114.6 330.4 114.7 330.4 114.8 330.5Z" fill="#01686F"/>
<path d="M92.7003 310.4C91.0003 313.9 90.2003 327.3 92.0003 328.9C91.9003 327.3 91.7003 325.8 91.6003 324.3C91.5003 322.8 91.6003 321.3 91.6003 319.7C91.7003 318.1 91.7003 316.6 91.9003 315C92.2003 313.5 92.5003 312.1 92.7003 310.4Z" fill="#01686F"/>
<path d="M67.9002 286.3C66.0002 290.3 63.7002 302.1 64.3002 304.7C64.8002 301.5 65.3002 298.5 65.8002 295.5C66.5002 292.4 67.2002 289.4 67.9002 286.3Z" fill="#01686F"/>
<path d="M75.6001 317.8C76.4001 315 76.6001 312.1 77.3001 309.3C77.9001 306.4 78.5001 303.6 79.1001 300.8C77.7001 303.4 75.1001 315.9 75.6001 317.8Z" fill="#01686F"/>
<path d="M82.2004 261.3C76.0004 262.6 69.6004 262.7 63.4004 263.5C69.7004 263.4 76.1004 263.1 82.2004 261.3Z" fill="#01686F"/>
<path d="M133.101 304.3C134.201 309.3 135.701 314.3 137.001 319.3C137.501 318 134.401 306.6 133.101 304.3Z" fill="#01686F"/>
<path d="M132.401 253.1C126.801 252.4 121.201 252.8 115.801 254.6C115.801 254.7 115.801 254.8 115.801 254.9C116.101 254.9 116.401 255 116.701 254.9C121.201 253.5 125.901 253.2 130.701 253C131.201 252.9 131.801 253 132.401 253.1Z" fill="#01686F"/>
<path d="M135.301 292.4C136.801 299.5 138.401 306.6 139.901 313.6C138.801 306.5 137.301 299.3 135.301 292.4Z" fill="#01686F"/>
<path d="M100.7 240.7C102.5 244.9 104.1 249.2 105.1 253.9C105.6 253.4 105.5 252.9 105.4 252.5C104.6 249 103.3 245.7 101.8 242.4C101.6 241.7 101.1 241.2 100.7 240.7Z" fill="#01686F"/>
<path d="M138.4 278.7C139.8 282 141 285.3 141.7 288.8C142.5 292.3 142.9 295.9 142.8 299.5C143.8 294.8 141.5 283.8 138.4 278.7Z" fill="#01686F"/>
<path d="M109.301 243.9C109.601 239.5 107.901 233 106.101 232C106.201 232.3 106.301 232.5 106.401 232.7C106.901 233.9 107.501 235.2 107.801 236.4C108.401 239 108.801 241.5 109.301 243.9Z" fill="#01686F"/>
<path d="M112.101 289.3C112.601 293.9 113.101 298.3 113.501 302.3C113.801 297.9 113.101 291.1 112.101 289.3Z" fill="#01686F"/>
<path d="M95.6 248.6C94.3 247.2 92.9 245.8 91.6 244.3C90.3 242.8 89.2 241.2 88 239.6C88.6 241.8 93.1 247.3 95.6 248.6Z" fill="#01686F"/>
<path d="M102.201 323.4C101.901 325.4 101.601 327.4 101.501 329.4C101.401 330.7 101.501 330.7 102.101 332.1H102.201L102.301 332C102.301 329.1 102.301 326.3 102.201 323.4Z" fill="#01686F"/>
<path d="M92.4002 255.9C88.7002 254.2 84.7002 253.8 80.7002 253.8C84.6002 254.4 88.6002 254.6 92.4002 255.9Z" fill="#01686F"/>
<path d="M112.5 242C112.4 244.3 112.4 246.5 111.6 248.7C110.8 250.8 109.8 252.8 108 254.2C108.8 254.2 109.3 253.7 109.7 253.2C111.3 251.2 112.2 248.9 112.5 246.4C112.6 245 112.5 243.5 112.5 242Z" fill="#01686F"/>
<path d="M121.101 250.5C124.501 249.8 128.001 249.5 131.601 249.8C130.001 248.6 123.601 249 121.101 250.5Z" fill="#01686F"/>
<path d="M83.9006 230.7C82.7006 231.9 83.7006 237 85.8006 240C85.3006 238.5 84.8006 237.2 84.5006 235.8C84.1006 234.2 83.6006 232.6 84.0006 230.8C84.0006 230.9 83.9006 230.8 83.9006 230.7Z" fill="#01686F"/>
<path d="M141 260.8C138.1 259 134.9 258.3 131.7 257.9C134.8 258.9 137.9 259.8 141 260.8Z" fill="#01686F"/>
<path d="M93.3 329.4C93.1 325.9 92.9 322.5 92.7 319.1C92.3 322.5 92.4 325.9 93 329.4C93 329.4 93.1 329.4 93.3 329.4Z" fill="#01686F"/>
<path d="M92.0008 306.4C93.9008 303.7 95.1008 300.6 96.2008 297.4C94.7008 300.3 93.3008 303.3 91.8008 306.2C91.9008 306.3 92.0008 306.3 92.0008 306.4Z" fill="#01686F"/>
<path d="M88.9004 249.7C92.7004 250 95.8004 251.7 98.3004 255C97.1004 251.9 92.9004 249.6 88.9004 249.7Z" fill="#01686F"/>
<path d="M78.8004 307.5C77.9004 310.5 77.3004 313.3 76.9004 316.4C77.6004 315.6 78.6004 310.7 78.8004 307.5Z" fill="#01686F"/>
<path d="M91.8008 281.1C93.6008 277.9 94.6008 274.3 96.1008 271C96.0008 271 95.9008 270.9 95.8008 270.9C94.5008 274.3 93.2008 277.7 91.8008 281.1Z" fill="#01686F"/>
<path d="M127 254.2C124.1 254.1 121.2 254.3 118.4 255C118.4 255.1 118.4 255.2 118.4 255.3C121.3 254.9 124.1 254.6 127 254.2Z" fill="#01686F"/>
<path d="M108.301 233.2C109.301 235.6 109.801 238 110.001 240.8C110.301 237.9 109.901 235.4 108.301 233.2Z" fill="#01686F"/>
<path d="M101.5 246C102.2 248.1 102.9 250.1 103.6 252.2C103.7 252.2 103.8 252.1 103.9 252.1C103.5 250 102.7 248 101.5 246Z" fill="#01686F"/>
<path d="M88.3004 252.8C86.7004 252 84.9004 251.5 83.0004 251.6C83.0004 251.7 83.0004 251.8 82.9004 251.9C84.8004 252.2 86.5004 252.5 88.3004 252.8Z" fill="#01686F"/>
<path d="M82.2005 230.7C81.4005 232 81.6005 233.2 82.2005 234.7C82.2005 233.2 82.2005 231.9 82.2005 230.7Z" fill="#01686F"/>
<path d="M139.601 258.5C138.401 258 137.201 257.7 135.801 257.7C137.001 258.1 138.301 258.4 139.501 258.8C139.601 258.7 139.601 258.6 139.601 258.5Z" fill="#01686F"/>
<path d="M117.5 0.100021C117.5 3.60002 117.4 7.10002 117.4 10.6C117.4 15.4 117.4 20.1 117.3 24.9C117.2 29.8 116.9 34.6 116.6 39.4C116.4 42.8 116.2 46.2 116 49.7C115.8 52.8 115.6 55.8 115.3 58.9C115.1 61.5 114.9 64.1 114.7 66.7C114.3 70.7 113.9 74.6 113.5 78.6C113.4 79.8 113.2 80.9 113 82.1C112.3 85.7 111.4 89.3 110.7 93C109.6 98.6 108.5 104.2 107.7 109.9C106.7 117.1 106.3 124.4 106.6 131.7C106.9 138.4 107.9 144.9 109.2 151.5C110.2 156.5 110.9 161.5 111.8 166.5C112 167.9 112 169.4 112.3 170.7C113.3 175.3 113.3 180 113.6 184.7C114.3 196.1 114.1 207.6 114 219C114 223.2 113.9 227.3 113.8 231.5C113.8 233.6 113.6 235.7 113.6 237.7C113.6 238.3 113.8 238.8 113.9 239.4C114 239.4 114.1 239.4 114.2 239.4C114.2 239.3 114.3 239.2 114.3 239.1C114.5 226.7 114.7 214.2 114.8 201.8C114.8 195.6 114.6 189.5 114.3 183.3C114.1 178.6 113.5 174 113.1 169.3C113 168.3 113.1 167.2 112.7 166.2C112 164.3 112 162.2 111.6 160.2C110.5 154.6 109.4 149.1 108.4 143.5C107.9 140.9 107.8 138.3 107.5 135.6C107 130.4 107.1 125.2 107.3 120C107.4 116.8 107.9 113.5 108.2 110.3C109 102.8 110.6 95.4 112.2 88.1C112.9 85.2 113.4 82.3 113.8 79.3C114.2 76.6 114.5 73.9 114.7 71.2C115.1 67.5 115.4 63.8 115.7 60.1C115.9 57.2 116.1 54.3 116.3 51.4C116.5 47.8 116.8 44.1 117 40.5C117.2 36.7 117.5 33 117.6 29.2C117.8 20 117.8 10.8 117.9 1.60002C117.9 1.00002 117.9 0.500046 118 -0.0999603C117.8 0.100037 117.6 0.100021 117.5 0.100021Z" fill="#01686F"/>
<path d="M200.6 190.2C196.6 196.5 194.3 203.3 192 210.1C189.2 218.2 186.5 226.4 183.7 234.6C182.7 237.6 181.9 240.6 181.6 243.7C181.5 244.8 181.6 246 181.9 247.2C182.3 248.6 183.4 249.1 184.7 248.4C185.5 248 186.3 247.5 187 246.9C188.5 245.4 189.9 243.8 191.4 242.3C191.7 242 191.9 241.7 192.3 241.2C192.7 242.2 192.1 243.3 193.1 244C194.5 244.1 195.9 243.8 197.2 243.3C203.7 241.2 208.2 236.8 211.3 230.8C211.5 230.4 211.7 230 212 229.4C212.2 230.4 212.4 231.1 212.6 231.7C213.4 234.2 214.2 236.7 215.1 239.2C217.5 245.2 221.4 250 226.8 253.6C228.2 254.6 229.8 255.3 231.6 255.4C232.7 255.4 233.7 255.2 234.6 254.7C235 254.5 235.5 254.3 235.8 254C238.4 252.1 241 250.3 243.6 248.4C246.8 245.9 248.4 242.6 248.3 238.5C248.3 236.8 248.1 235.1 248 233.4C248.4 233.6 248.7 233.7 249.1 233.9C253.1 236 257.3 237.1 261.7 237.6C262.6 237.7 263.6 238 264.5 237.6C264.9 237.4 265.3 237.1 265.7 236.9C265.6 236.4 265.6 236.1 265.5 235.5C266.1 235.8 266.5 236 266.9 236.3C269.4 237.8 272.2 238.4 275.1 238.5C278.5 238.5 281.6 235.8 282.2 232.5C282.5 230.9 282.3 229.3 282.1 227.7C281.2 222.1 280.1 216.5 278.4 211.1C276 203.8 272.7 196.9 267.6 191C267.5 190.8 267.3 190.7 267.2 190.5C267.2 190.5 267.2 190.4 267.1 190.2C267.5 190.2 267.8 190.3 268.2 190.3C271.1 190.9 273.9 190.6 276.6 189.6C280.1 188.3 283.3 186.3 286.2 184C288.5 182.2 290.8 180.7 293.4 179.3C294.6 178.7 295.7 178 296.8 177.2C297.7 176.6 298.4 175.7 298.1 174.5C297.8 173.5 296.8 172.9 295.4 173C294 173.1 292.7 173.4 291.3 173.7C287 174.8 282.7 176.2 278.4 177.2C274.3 178.2 270.2 178.7 266 179C258.8 179.5 251.8 178.4 244.7 177C241.7 176.4 238.7 175.8 235.6 175.8C232.5 175.7 229.7 174.7 227.2 173C225.4 171.7 224.3 169.9 224.1 167.7C224 167.2 223.9 166.7 223.7 165.9C223.1 167.6 222.6 169 222.1 170.4C220.9 173.6 218.5 175.8 215.6 177.3C214.8 177.7 213.8 177.7 213 177.7C209 177.6 205.1 176.6 201.4 175.1C197.5 173.6 193.6 171.9 189.8 170.3C187 169.1 184.2 168.2 181.2 167.8C178.9 167.5 176.6 167.6 174.4 168.3C170.8 169.4 167.1 170.3 163.4 171.4C162.5 171.6 161.6 171.9 160.8 172.3C158.1 173.7 156.4 177.3 159 180.5C160.2 182 161.6 183.2 163.3 184C166.8 185.8 170.4 187.5 173.8 189.3C176.9 190.9 180.3 191.8 183.7 192.3C189.3 193.1 194.8 192.8 200.1 190.5C200.1 190.3 200.2 190.3 200.6 190.2ZM264.9 236.4C264.2 237 263.4 237.1 262.7 237C261 236.7 259.3 236.5 257.6 236.1C252.2 235 247.5 232.5 243.1 229.3C235.3 223.8 230.3 216.2 226.9 207.4C224.3 200.5 223.3 193.2 223.6 185.9C223.7 184.1 223.9 182.3 224.2 180.5C224.5 178.7 225.7 177.5 227.3 177C229.1 176.4 231.1 176.1 233.1 176.2C236.3 176.3 239.5 176.6 242.6 177.2C248.5 178.3 253.9 180.4 258.8 183.9C268.4 190.8 274.1 200.4 277.7 211.4C279.4 216.5 280.5 221.8 281.3 227.2C281.6 229 281.9 230.8 281.4 232.6C280.6 235.6 277.9 237.7 274.8 237.7C272.2 237.7 269.8 237.1 267.6 235.8C266.6 235.2 265.7 234.6 264.7 234.1C264.4 234 264.1 233.9 263.8 233.8C263.7 233.9 263.7 234 263.6 234C264.1 234.8 264.5 235.6 264.9 236.4ZM193.1 239.5C193 239.4 192.8 239.4 192.7 239.3C192.4 239.6 192.1 240 191.8 240.3C190.3 242 188.9 243.8 187.4 245.4C186.6 246.3 185.6 247 184.5 247.6C183.5 248.2 182.7 247.9 182.4 246.8C182.2 245.7 182.1 244.5 182.2 243.3C182.5 240.4 183.3 237.5 184.3 234.8C186.5 228.5 188.8 222.3 190.9 215.9C192.8 210.1 194.7 204.3 196.9 198.6C200 191 204.9 185 212 180.9C214.1 179.7 216.2 178.5 218.7 178.1C219.7 177.9 220.7 177.9 221.7 178.1C222.8 178.3 223.2 178.8 223.1 179.9C223.1 180.7 222.9 181.5 222.7 182.2C221.4 186.3 219.6 190.2 217.8 194.1C214.5 200.9 212.6 208 212 215.5C211.7 218.9 211.7 222.4 211.7 225.9C211.7 227.8 211.3 229.4 210.5 231C210 231.9 209.5 232.8 208.9 233.7C205.7 238.2 201.7 241.5 196.3 243C195.4 243.2 194.4 243.7 193.2 243.3C193.1 241.9 193.1 240.7 193.1 239.5ZM246.9 232.7C247.6 234.9 247.6 237 247.6 239.2C247.5 242 246.6 244.5 244.6 246.5C243.4 247.7 241.8 248.7 240.4 249.8C239.5 250.5 238.5 251.2 237.6 251.8C236.4 252.7 235.1 253.5 233.8 254.3C232.7 255 231.4 255 230.2 254.5C229 254 227.9 253.5 226.8 252.8C223.9 250.9 221.6 248.4 219.5 245.7C216.8 242.1 215.3 238 213.9 233.8C212.7 230.3 212.2 226.6 212.3 222.9C212.4 219.2 212.8 215.6 213.2 211.9C213.8 207.3 215 202.7 216.8 198.4C218.6 194 220.6 189.7 222.5 185.3C222.6 185.2 222.7 185.1 222.8 184.9C222.9 187.4 223 189.8 223.2 192.3C223.4 194.8 223.7 197.3 224.2 199.7C225 203.7 226.2 207.5 227.9 211.2C231.8 219.6 237.2 226.5 245.1 231.4C245.6 231.9 246.3 232.3 246.9 232.7ZM214.7 178.4C214.7 178.5 214.7 178.6 214.7 178.6C214.5 178.7 214.3 178.9 214 179C209.7 181.2 205.8 184 202.6 187.7C202.2 188.2 201.6 188.7 201 189C198.1 190.6 195 191.5 191.7 191.7C189.1 191.8 186.4 191.7 183.8 191.4C180.6 191.1 177.6 190.2 174.7 188.8C172.4 187.7 170.2 186.6 168 185.4C166 184.4 164.1 183.4 162.2 182.1C161.1 181.3 160.1 180.3 159.2 179.2C157.8 177.4 158 175.5 159.5 173.8C160.5 172.7 161.8 172.2 163.2 171.8C165 171.3 166.9 170.9 168.7 170.4C172.2 169.3 175.5 169.5 178.7 171.3C181.1 172.6 183.3 174 185.7 175.4C187.9 176.7 190.1 178 192.4 179.2C195.1 180.5 197.9 180.9 200.9 180.3C203.3 179.8 205.6 179.4 208 178.8C210.2 178.3 212.4 178.3 214.7 178.4ZM297.5 174.8C297.2 175.8 296.5 176.4 295.7 176.9C293.4 178.6 290.7 179.2 287.9 179.5C285.1 179.8 282.5 180.8 280.4 182.7C279 184 277.6 185.2 276.1 186.5C274.7 187.8 273.1 188.7 271.3 189.2C268.7 190 266.4 189.3 264.5 187.5C261.1 184.3 257.3 181.5 253 179.5C252.7 179.4 252.5 179.2 252.2 179C253.6 178.9 254.8 179.1 256.1 179.2C258.5 179.4 260.9 179.5 263.2 179.6C265.1 179.6 266.9 179.3 268.8 179.2C272.5 178.9 276.2 178.3 279.8 177.4C283.7 176.4 287.5 175.2 291.4 174.2C292.7 173.9 294 173.7 295.3 173.5C296.3 173.4 297.1 173.8 297.5 174.8ZM174.5 169.1C176.7 168.1 179 168.1 181.2 168.4C184.4 168.9 187.4 170 190.3 171.2C194.4 172.9 198.4 174.6 202.6 176.2C204.4 176.9 206.3 177.3 208.2 177.9C208 178 207.8 178.1 207.7 178.2C205.8 178.6 204 179 202.1 179.4C199.8 179.9 197.5 180.1 195.3 179.4C193.5 178.8 191.7 178 190.1 177.1C187.2 175.4 184.4 173.5 181.4 171.9C179.7 170.9 177.8 170.2 176 169.5C175.6 169.3 175 169.2 174.5 169.1ZM289.7 180.2C288.4 181.2 287.2 182.2 285.9 183.1C284.2 184.3 282.5 185.5 280.7 186.6C278.4 188 275.9 189.1 273.1 189.5C273.2 189.4 273.3 189.3 273.4 189.3C275.4 188.5 276.8 187 278.4 185.6C279.7 184.4 281.1 183.3 282.5 182.2C284.6 180.6 287.1 180.3 289.7 180.2Z" fill="#01686F"/>
<path d="M223.601 196.9C224.401 198 224.601 199.3 224.401 200.6C223.901 202.7 223.801 204.9 223.701 207C223.601 212.3 224.001 217.5 225.001 222.8C225.401 225.2 225.901 227.5 226.301 229.9C226.401 230.3 226.501 230.6 226.701 230.9C226.401 229.2 226.101 227.6 225.901 225.9C225.401 222.9 224.901 219.8 224.601 216.8C224.301 213.8 224.201 210.8 224.101 207.9C224.101 206.2 224.201 204.5 224.401 202.8C224.401 202.4 224.601 202 224.701 201.6C225.801 203.9 226.701 206.2 227.901 208.3C229.101 210.5 230.501 212.6 232.501 214.2C232.701 214.4 232.901 214.6 233.101 214.9C237.301 219.5 241.901 223.6 246.901 227.3C247.101 227.5 247.401 227.7 247.601 227.8C247.701 227.8 247.801 227.8 247.901 227.8C245.701 225.9 243.401 224 241.201 222C238.401 219.4 235.801 216.7 233.101 214.1C231.501 212.6 230.101 211 229.001 209.1C226.601 205.2 224.801 201.1 224.201 196.5C224.201 196.2 224.201 195.8 224.201 195.5C224.001 195.4 223.901 195.3 223.901 195.3C223.701 195.7 223.701 196.3 223.601 196.9Z" fill="#01686F"/>
<path d="M211.401 185.6C209.201 189.2 207.401 193 205.901 196.9C204.001 201.8 202.901 206.9 202.001 212.1C201.201 216.5 200.601 221 199.901 225.4C199.801 225.9 199.701 226.4 199.901 227C200.201 225.3 200.601 223.7 200.901 222C201.701 217.7 202.401 213.4 203.101 209.1C204.501 201.4 207.201 194.2 210.701 187.2C210.901 186.7 211.201 186.2 211.401 185.6Z" fill="#01686F"/>
<path d="M269.4 218.1C260.3 206.8 250.1 196.7 239 187.5C249.8 197 259.9 207.3 269.4 218.1Z" fill="#01686F"/>
<path d="M209.5 182.8C207.1 184.3 205.4 186.5 203.9 188.8C200 194.6 197.3 200.9 195.4 207.6C194.7 210.1 194.2 212.7 193.9 215.3C194.1 214.6 194.3 213.8 194.4 213.1C196.2 204.9 199.1 197.2 203.6 190.1C205.2 187.5 207.2 185.1 209.5 182.8Z" fill="#01686F"/>
<path d="M207.2 183.4C208 183.1 208.7 182.7 209.5 182.4C209.5 182.6 209.4 182.8 209.4 182.9L209.5 183C210.4 182.4 211.4 181.9 211.7 180.7C211.5 180.8 211.3 180.8 211.1 181C208.3 182.7 205.2 183.4 202 183.9C198.1 184.4 194.3 183.8 190.5 183.2C188.1 182.8 185.7 182.3 183.2 182C185.1 182.5 187.1 183.1 189 183.4C192.7 184.1 196.3 184.7 200.1 184.5C202.1 184.4 204 184 206 183.7C206.5 183.5 206.9 183.4 207.2 183.4Z" fill="#01686F"/>
<path d="M219.901 246.8C219.901 246.5 219.901 246.2 219.801 246C218.601 242.2 217.901 238.3 217.401 234.3C217.201 233 217.101 231.6 217.101 230.3C217.001 226.5 216.801 222.7 216.701 219.1C215.601 225.8 217.001 242.1 219.901 246.8Z" fill="#01686F"/>
<path d="M262.9 193.7C258.1 188.3 252.9 183.3 246.6 179.7C244 178.2 241.2 177.1 238.3 176.3C238.1 176.2 237.8 176.3 237.5 176.4C237.7 176.5 237.9 176.7 238.2 176.8C245.1 178.8 250.9 182.7 256.1 187.4C258.4 189.5 260.6 191.6 262.9 193.7Z" fill="#01686F"/>
<path d="M227.601 176.6C231.201 177.7 234.301 179.5 237.201 181.7C241.701 185.1 245.701 188.9 249.801 192.8C249.501 192.4 249.201 192.1 248.901 191.7C248.601 191.3 248.301 191 247.901 190.6C243.501 186.1 239.001 181.8 233.601 178.6C232.001 177.7 230.301 177 228.501 176.3C228.101 176.2 228.101 176.2 227.601 176.6Z" fill="#01686F"/>
<path d="M224.1 195.5C224.3 196.1 224.6 196.8 224.8 197.4C226 200.8 227.8 203.8 229.7 206.8C230.2 207.6 230.6 208.4 231.1 209.1C233.2 211.5 235.3 213.8 237.5 216C238.4 216.9 239.3 217.7 240.3 218.4C239.6 217.7 239 217.1 238.3 216.4C236.4 214.3 234.4 212.2 232.6 210C229.3 206.1 226.9 201.7 225.1 197C224.1 194.5 223.9 191.9 223.5 189.3C223.7 191 223.8 192.7 224 194.4C224.1 194.9 224.1 195.2 224.1 195.5Z" fill="#01686F"/>
<path d="M278.7 181.8C274 181.5 269.3 181.4 264.6 181C259.9 180.6 255.3 179.7 250.9 178C250.9 178.1 250.8 178.2 250.8 178.2C251.1 178.4 251.3 178.6 251.6 178.7C254.1 179.4 256.6 180.2 259.1 180.7C262.5 181.4 265.9 181.7 269.4 181.8C271.3 181.8 273.3 182 275.2 182C276.4 182 277.6 181.8 278.8 181.7C278.7 181.7 278.7 181.8 278.7 181.8Z" fill="#01686F"/>
<path d="M258.6 223.2C258.1 222.8 257.7 222.4 257.2 221.9C252.5 217.8 248.1 213.5 243.9 208.9C242.2 207 240.5 205.1 238.8 203.2C238.5 202.8 238.1 202.5 237.7 202.2C244 209.9 250.6 217.2 258.4 223.4C258.5 223.3 258.5 223.3 258.6 223.2Z" fill="#01686F"/>
<path d="M201.9 240.8C202.2 240.2 202.5 239.7 202.7 239.1C204.1 235.7 204.8 232.2 205.5 228.6C206.1 225.6 206.7 222.6 207.2 219.6C207.4 218.8 207.4 217.9 207.5 217C205.5 224.9 204.6 233 201.5 240.6C201.7 240.7 201.8 240.7 201.9 240.8Z" fill="#01686F"/>
<path d="M269.2 203.6C273 209.5 277.6 214.8 280.5 221.3C280.6 221.2 280.7 221.2 280.8 221.1C280.7 220.7 280.5 220.3 280.3 219.9C279.1 217.8 278.1 215.6 276.7 213.6C274.8 210.8 272.7 208.1 270.7 205.3C270.2 204.7 269.7 204.2 269.2 203.6Z" fill="#01686F"/>
<path d="M215.901 178.7C215.901 179.3 215.901 180 215.901 180.6C215.801 183.2 215.101 185.7 214.401 188.2C213.601 191.2 212.601 194.1 211.601 197.4C211.901 196.9 212.001 196.8 212.101 196.5C213.901 191.6 215.501 186.7 216.401 181.5C216.501 180.6 216.701 179.6 216.301 178.7C216.201 178.7 216.001 178.7 215.901 178.7Z" fill="#01686F"/>
<path d="M187.6 189.5C181.1 188.6 174.5 188.4 168.4 185.6C168.4 185.7 168.3 185.8 168.3 185.9C168.6 186.1 168.8 186.3 169.1 186.4C171.3 187.5 173.6 188.1 176 188.4C178.9 188.8 181.7 189.1 184.6 189.4C185.6 189.6 186.6 189.5 187.6 189.5Z" fill="#01686F"/>
<path d="M229.7 176.1C229.8 176.2 229.9 176.3 230 176.3C232.4 176.8 234.4 178 236.4 179.3C239.1 181.2 241.7 183.1 244.5 184.9C244.1 184.5 243.8 184.1 243.3 183.8C240.4 181.7 237.5 179.5 234.6 177.5C233.6 176.8 232.3 176.4 231.1 175.9C230.7 175.7 230.2 175.8 229.8 175.7C229.8 175.9 229.8 176 229.7 176.1Z" fill="#01686F"/>
<path d="M160.7 177.2C166.7 181.1 173.5 182.7 180.4 184C178.2 183.4 176 182.9 173.8 182.3C171.5 181.6 169.2 180.9 167 180.1C164.9 179.2 162.8 178.2 160.7 177.2Z" fill="#01686F"/>
<path d="M214.2 219.4C215 212.2 216.4 205.1 219.1 198.3C216 205 214.6 212.1 214.2 219.4Z" fill="#01686F"/>
<path d="M245.501 246.1C246.101 240.8 244.301 236.1 242.601 231.3C243.601 236.3 245.501 241 245.501 246.1Z" fill="#01686F"/>
<path d="M256.3 226.8C259.5 230.4 262.6 233.7 266.6 236.1C266.8 235.9 266.8 235.9 266.8 235.8V235.7C263.4 232.8 259.9 229.9 256.3 226.8Z" fill="#01686F"/>
<path d="M165.101 170.9C170.301 171.1 175.201 172.2 180.101 173.8C179.801 173.6 179.601 173.5 179.301 173.4C176.201 172.2 173.001 171.2 169.701 171C168.501 170.9 167.201 170.8 166.001 170.8C165.701 170.7 165.401 170.8 165.101 170.9Z" fill="#01686F"/>
<path d="M254 180.3C259.6 183 265.6 183.5 271.6 183.9C265.7 183 259.7 182.5 254 180.3Z" fill="#01686F"/>
<path d="M195.601 227.4C194.201 230.3 192.301 239.8 192.801 241.6C193.801 236.9 194.701 232.2 195.601 227.4Z" fill="#01686F"/>
<path d="M200.7 211.3C201.8 205.3 203.6 199.5 205.9 193.8C203.3 199.4 201.3 205.1 200.7 211.3Z" fill="#01686F"/>
<path d="M218 194.3C220.1 189.2 221.9 184.1 220.5 178.4C221.4 183 220 187.3 218.6 191.6C218.3 192.5 218 193.4 217.7 194.2C217.8 194.2 217.9 194.3 218 194.3Z" fill="#01686F"/>
<path d="M223.8 185.1C224.1 187.7 230.1 195.1 232.7 196.4C229.7 192.7 225.9 189.6 223.8 185.1Z" fill="#01686F"/>
<path d="M221.6 248.5C220.3 243.7 219.9 238.8 219 233.9C219.3 238.8 219.8 243.8 221.6 248.5Z" fill="#01686F"/>
<path d="M245.1 206.5C240.7 202 236.3 197.5 232.3 192.6C232.1 192.4 231.8 192.3 231.5 192.1C235.7 197.3 240.2 202.1 245.1 206.5Z" fill="#01686F"/>
<path d="M223.6 196.9C223.1 198.5 222.4 200 222.2 201.6C221.7 205.1 221.5 208.7 221.2 212.3C221.3 212.3 221.4 212.3 221.5 212.4C221.6 212 221.6 211.7 221.7 211.3C221.8 209.8 221.9 208.4 222 206.9C222.2 203.9 222.6 200.9 223.4 198C223.5 197.6 223.5 197.2 223.6 196.9Z" fill="#01686F"/>
<path d="M238.901 250.9C239.101 246.8 238.201 242.8 237.101 238.8C237.601 242.8 238.101 246.9 238.601 250.9C238.701 250.9 238.801 250.9 238.901 250.9Z" fill="#01686F"/>
<path d="M272.3 225.8C275.1 228.8 277.9 231.8 280.8 234.7C280.8 234.7 280.9 234.7 280.9 234.6C280.7 234.2 280.6 233.9 280.3 233.6C277.9 230.7 275.2 228.1 272.3 225.8Z" fill="#01686F"/>
<path d="M188 178.5C183.4 176.5 178.6 174.7 173.7 173.4C178.4 175.2 183.2 176.9 187.9 178.7C188 178.6 188 178.5 188 178.5Z" fill="#01686F"/>
<path d="M184.7 247.8C185.6 243.8 186.5 239.9 187.3 235.9C185.9 239.7 184.8 243.7 184.2 247.7C184.4 247.7 184.5 247.8 184.7 247.8Z" fill="#01686F"/>
<path d="M215.601 191.3C216.601 187 217.901 182.7 217.301 178.2C217.201 182.7 216.301 187 215.601 191.3Z" fill="#01686F"/>
<path d="M297.6 175.5C296.4 174.8 290.2 175.7 287 177C290.5 176.5 294 176 297.6 175.5Z" fill="#01686F"/>
<path d="M235.8 223.4C238 226.7 238.7 230.6 240.1 234.3C239.3 229.1 237.6 224.5 235.8 223.4Z" fill="#01686F"/>
<path d="M207.3 183.3C205.8 184.4 204 184.7 202.2 184.9C201.1 185.1 199.9 185.1 198.7 185.2C197.5 185.3 196.4 185.4 195.2 185.5C198.5 185.7 201.8 185.6 204.9 184.8C205.6 184.6 206.4 184.3 207.1 184C207.3 183.9 207.5 183.7 207.3 183.3Z" fill="#01686F"/>
<path d="M274.7 230C276.4 232 278.2 233.8 280 235.7C279.7 234.4 276.2 230.8 274.7 230Z" fill="#01686F"/>
<path d="M193.3 232.3C192.3 234.5 191.3 239.6 191.6 240.7C192.4 237.9 192.8 235.1 193.3 232.3Z" fill="#01686F"/>
<path d="M206.601 229.8C205.801 232.8 204.901 235.6 204.101 238.5C204.101 238.6 204.101 238.6 204.201 238.7C205.001 237.6 206.501 232 206.601 229.8Z" fill="#01686F"/>
<path d="M233.101 247.6C233.001 249.8 233.501 253.5 234.101 254.2C234.001 251.9 233.701 249.7 233.101 247.6Z" fill="#01686F"/>
<path d="M239.9 249.8C240.1 248.1 239.8 246.5 239.2 244.8C239.3 246.5 239.5 248.1 239.6 249.8C239.8 249.8 239.8 249.8 239.9 249.8Z" fill="#01686F"/>
<path d="M226.601 12.3C226.701 12.9 226.701 13.5 226.901 14.1C227.401 15.6 227.801 17.2 228.401 18.6C230.301 22.9 232.301 27.1 234.401 31.3C237.201 36.8 241.301 41.3 246.101 45C250.801 48.6 256.101 50.8 262.101 51.4C267.601 51.9 273.001 51.2 278.301 49.9C283.201 48.8 288.201 47.6 293.101 46.6C295.601 46.1 298.201 45.8 300.801 45.5C301.101 45.5 301.401 45.4 301.901 45.1C301.601 45 301.401 44.8 301.101 44.7C299.101 44.3 297.001 43.8 295.001 43.4C291.501 42.7 288.001 42.4 284.401 42.3C279.101 42.2 273.701 42.1 268.401 42C265.301 41.9 262.201 42 259.001 41.8C251.301 41.3 244.501 38.5 239.001 33C236.901 30.9 234.801 28.6 233.001 26.2C230.101 22.4 228.501 17.9 227.101 13.3C227.001 13.1 227.001 12.8 226.901 12.6C226.901 12.5 226.801 12.4 226.701 12.3H226.601ZM235.601 32.1C235.701 32.1 235.701 32.1 235.801 32.1C236.601 33.1 237.301 34.1 238.101 35.1C242.501 40.6 248.201 44.3 255.001 46C260.001 47.2 265.101 47.2 270.201 46.6C272.901 46.3 275.501 46 278.201 45.7C281.901 45.3 285.701 45 289.401 44.6C292.001 44.3 294.601 44.5 297.201 44.7C297.501 44.7 297.901 44.9 298.201 45C292.101 46 286.201 47.4 280.301 48.9C275.001 50.3 269.701 51.2 264.101 51C261.501 50.9 258.901 50.5 256.401 49.7C247.401 46.9 241.001 40.8 235.901 33.1C235.801 32.8 235.701 32.5 235.601 32.1ZM292.801 43.5C292.801 43.6 292.801 43.7 292.801 43.7C291.001 43.8 289.201 43.9 287.401 44.1C283.101 44.5 278.701 44.9 274.401 45.5C270.001 46.1 265.701 46.4 261.301 46.2C259.501 46.1 257.701 45.9 255.901 45.6C248.001 43.9 241.801 39.5 237.101 33C236.501 32.2 236.001 31.3 235.501 30.5C236.501 31.2 237.201 32.2 238.001 32.9C240.501 35.2 243.101 37.4 246.101 38.9C250.801 41.3 255.901 42.4 261.101 42.5C269.701 42.7 278.301 42.3 286.801 43C288.901 43.2 290.901 43.4 292.801 43.5Z" fill="#01686F"/>
<path d="M226.701 0.100006C226.701 2.10001 226.801 4.10001 226.701 6.10001C226.501 10.3 226.301 14.6 225.901 18.8C225.601 23.1 225.101 27.4 224.701 31.7C224.501 34.6 224.201 37.6 224.201 40.5C224.101 46.7 224.201 52.8 224.201 59C224.201 60.6 224.301 62.2 224.301 63.8C224.501 68.4 224.701 73.1 224.801 77.7C224.801 78 224.801 78.4 225.401 78.4C225.401 78 225.401 77.7 225.401 77.3C225.201 71 224.801 64.7 224.701 58.5C224.601 52.2 224.601 45.9 224.701 39.6C224.801 36.3 225.101 33 225.401 29.8C225.701 26.3 226.001 22.9 226.201 19.4C226.401 16.2 226.701 13 226.901 9.80002C227.101 7.00002 227.101 4.3 227.201 1.5C227.201 1 227.301 0.600006 227.301 0.100006C227.201 0.100006 227.001 0.100006 226.701 0.100006Z" fill="#01686F"/>
<path d="M224 169.4C224 169.1 224.1 168.8 224.1 168.5C224.1 166.9 224.1 165.4 224.1 163.8C224.1 159.2 224.3 154.6 224.8 150.1C224.9 149.3 225 148.5 225.1 147.7C225.1 147.2 225.1 146.7 225.1 146C223.6 147.6 223.2 166.7 224 169.4Z" fill="#01686F"/>
<path d="M201.1 322.9C201 323.3 200.9 323.7 201 323.9C202 326.7 201.3 329.4 200.7 332.1C200 335.2 199.3 338.3 198.5 341.3C197.7 344.4 197.3 347.5 197.3 350.7C197.2 354.3 196.7 357.8 196.1 361.3C195.4 365.5 194.6 369.6 193.8 373.8C193.5 375.1 193.1 376.4 192.9 377.7C191.5 385.5 187.9 392.5 184.6 399.6C183.5 401.9 182.4 404.1 181.5 406.5C181 407.8 180.8 409.2 180.5 410.5C180.5 410.7 180.4 410.8 180.4 411C180.5 411.7 180.4 412.5 181.2 412.8C181.9 413.1 182.5 412.7 182.9 412.2C183.4 411.5 184 410.8 184.3 410.1C186.3 405.4 189.1 401.3 191.9 397.1C193.4 395 194.8 392.8 196.1 390.5C198.4 386.7 200 382.7 200.7 378.3C200.8 377.8 200.9 377.4 201.2 376.9C201.6 378.7 202 380.5 202.3 382.3C203.2 387.1 204.2 392 205.1 396.8C205.7 400.4 206.2 404 206.8 407.6C207.4 410.8 208 414.1 208.8 417.3C209.1 418.5 209.7 419.8 210.3 420.9C211.9 423.5 215 423.5 216.7 420.9C217.3 420 217.8 419 218.1 418C219.5 414.2 221.4 410.7 223.6 407.3C225.2 404.9 226.6 402.4 228.1 399.8C228.3 400.2 228.5 400.5 228.7 400.9C230 403.4 231.7 405.6 234 407.2C236.5 408.9 239.3 409.8 242.3 410.3C244.4 410.6 246.5 410.5 248.6 410C251.1 409.4 252.9 408 253.8 405.6C254.3 404.3 254.7 402.9 255.3 401.6C256.4 399 257.6 396.5 258.7 393.9C260 390.9 261.4 387.9 262 384.6C262.3 384.6 262.4 384.5 262.6 384.5C267 385.1 270.8 383.8 274.3 381.2C275.5 380.4 276.5 379.4 277.6 378.5C278.9 377.4 280.2 376.2 281.6 375.2C284.4 373.3 286 370.6 286.8 367.4C287.8 363.6 287.3 359.9 286.1 356.3C284.7 351.8 282.5 347.8 279.6 344.1C280.9 339.3 283 334.9 287.3 332C288.8 331 290.3 329.8 291.8 328.6C292.7 327.8 293.5 326.9 293.9 325.7C294.3 324.1 293.6 323 292 322.9C290.3 322.8 288.6 322.8 286.9 323C280.7 323.7 274.4 324.5 268.1 324.4C264.4 324.3 260.7 324 257 323.7C253.9 323.4 250.7 323.1 247.6 322.6C244.1 322.1 240.6 321.5 237.1 320.9C232.1 320.2 227.1 319.1 222 319.2C218.6 319.3 215.4 320 212.4 321.5C210.3 322.5 208.2 323.5 205.9 324C204.4 324.3 203 324.1 201.6 323.4C201.6 323.1 201.4 323 201.1 322.9ZM251.1 361.1C249.3 361 247.8 361 246.3 360.9C243 360.5 239.7 359.9 236.5 358.8C234.6 358.2 232.8 357.4 231 356.5C229.7 355.9 228.9 354.9 228.3 353.5C226.3 348.5 223.7 343.9 220.6 339.5C217.4 335.2 213.8 331.3 209 328.7C208.4 328.4 208.1 327.9 208.2 327.2C208.3 325.8 209 324.6 210.1 323.8C213.3 321.3 216.9 319.9 221 319.6C225.5 319.3 230 320 234.4 320.8C237.9 321.4 241.4 322 244.9 322.5C248.5 323 252 323.5 255.6 323.9C258.6 324.2 261.5 324.5 264.5 324.6C267.6 324.7 270.7 324.7 273.9 324.6C276.6 324.5 279.2 324.2 281.9 323.9C284.6 323.6 287.3 323.3 290 323.1C290.8 323 291.7 323.2 292.6 323.3C293.5 323.5 293.7 323.9 293.7 324.8C293.7 325.7 293.1 326.1 292.4 326.4C290.5 327.1 288.5 327.9 286.6 328.6C283.5 329.7 280.7 331.2 278.2 333.4C275.2 336.1 272.8 339.3 270.9 342.9C269.7 345.1 268.6 347.4 267.4 349.6C265.9 352.2 264.4 354.8 262.4 357C260.6 358.9 258.5 360.2 256 360.7C254.1 361 252.4 361 251.1 361.1ZM232.1 373.6C232 374.8 232 376.8 231.7 378.8C231 382.9 229.4 386.7 227.2 390.3C224.6 394.5 222.1 398.8 219.7 403.1C217.5 407 216.5 411.3 216.6 415.8C216.6 417 216.3 418.3 216.2 419.5C216 420.9 215.1 421.6 213.8 421.9C212.6 422.2 211.6 421.5 211 420.5C210.4 419.4 209.7 418.3 209.4 417.1C208.7 414.1 208 411.1 207.5 408.1C206.7 403.5 206.2 398.8 205.3 394.3C203.4 384.4 201.4 374.6 199.5 364.8C198.9 361.6 198.6 358.3 198.1 355.1C197.8 353.1 198 351 198.1 349C198.2 344.1 199.4 339.5 201.4 335.1C202 333.7 202.9 332.3 203.8 331.1C205.2 329.3 207.8 328.6 210.3 330.3C212.9 332 215.2 334 217.2 336.4C222.3 342.3 225.9 349.1 228.7 356.3C230.8 361.6 232.1 367.1 232.1 373.6ZM229.5 356.5C230.9 357.2 232.2 357.8 233.4 358.3C239.2 360.6 245.2 361.6 251.4 361.8C252.8 361.9 253.8 362.3 254.7 363.3C257.6 366.4 259.4 370.1 260.7 374.1C261.3 376 261.7 378 261.7 380.1C261.8 383.2 261.2 386.2 260 389.1C257.9 394.5 255.1 399.6 253.2 405.1C252.5 407.2 250.9 408.5 248.7 409.1C246.3 409.7 244 409.8 241.6 409.3C238.8 408.8 236.1 407.9 233.9 406.1C231.3 404.1 229.6 401.5 228.4 398.5C234.2 384.7 234.5 370.7 229.5 356.5ZM262.3 383.5C262.9 375.1 259.9 368.2 254.4 362C255 361.9 255.5 361.8 256 361.7C257.9 361.4 259.8 361.3 261.6 360.8C269.8 358.7 276.1 354.2 279 345.8C279.1 345.5 279.3 345.1 279.5 344.7C279.8 345 280 345.3 280.2 345.5C282.2 348.4 284 351.4 285.2 354.7C286 356.9 286.6 359.1 286.8 361.4C287 363.9 286.7 366.3 285.9 368.7C285.3 370.5 284.4 372.1 282.9 373.3C280.2 375.5 277.6 377.7 274.9 379.9C272.3 382 269.4 383.4 266.1 383.7C264.8 383.9 263.5 384.1 262.3 383.5ZM258.1 360.7C258.2 360.6 258.3 360.5 258.4 360.5C261.4 359.1 263.5 356.8 265.2 354.1C266.7 351.7 268 349.2 269.4 346.8C270.5 344.8 271.5 342.8 272.7 340.9C276.3 335.1 281.1 330.8 287.8 328.9C289 328.5 290.1 328 291.3 327.6C291.5 327.5 291.8 327.4 292.1 327.4C291.5 328.1 290.9 328.7 290.2 329.2C289 330.1 287.8 330.9 286.6 331.8C283.8 333.9 281.7 336.6 280.5 339.9C279.7 342.1 278.9 344.2 278.1 346.4C277.3 348.4 276.4 350.4 275 352.1C270.8 357.4 264.9 359.9 258.1 360.7ZM197.5 356.7C198.5 361.8 199.4 366.7 200.4 371.6C201.1 375.1 200.6 378.4 198.8 381.5C196.7 385.1 194 388.3 191.4 391.5C188.2 395.4 186 399.6 185.3 404.6C185 406.7 184.3 408.8 183.3 410.7C182.9 411.4 182.5 412.1 181.5 412.1C180.8 411.4 181 410.6 181.2 409.9C181.6 408.4 182 407 182.6 405.6C183.8 402.8 185.2 400.1 186.5 397.4C189 392 191.5 386.6 193 380.8C194.6 374.5 195.7 368.1 196.8 361.8C196.9 360.1 197.2 358.5 197.5 356.7ZM217.3 418.1C217.2 417.7 217.2 417.6 217.2 417.5C217.1 412.8 217.9 408.4 220 404.2C222.2 399.7 224.8 395.4 227.5 391.2C229.3 388.4 230.7 385.5 231.6 382.3C231.8 381.7 232 381.1 232.2 380.5C232.3 380.5 232.4 380.5 232.5 380.6C232.1 383.2 231.8 385.8 231.3 388.4C229.9 395 227.3 401.2 223.4 406.8C221.2 410.1 219.2 413.5 217.9 417.2C217.7 417.3 217.6 417.5 217.3 418.1ZM199.1 382.5C199.1 382.5 199.1 382.7 199.1 382.8C198.9 383.5 198.6 384.1 198.4 384.8C196.8 389.2 193.9 392.8 191.6 396.7C189.9 399.4 188.1 402.1 186.4 404.8C186.3 405 186.1 405.1 185.8 405.5C185.9 404.8 186 404.4 186.1 404C186.7 400.2 188.1 396.8 190.6 393.8C191.4 392.8 192.1 391.7 192.9 390.7C194.9 387.9 197 385.2 199.1 382.5Z" fill="#01686F"/>
<path d="M207.5 327C207.8 327 208.2 327.1 208.5 327C215 326.1 221.1 327.6 227.1 329.9C230.8 331.3 234.5 332.9 238.2 334.4C241 335.6 243.8 336.8 246.6 337.8C244.5 336.8 242.4 335.6 240.3 334.7C236.6 333.1 232.8 331.5 229.1 330C225.5 328.5 221.9 327.3 218.1 326.7C214.7 326.1 211.3 326 207.9 326.6C207.8 326.6 207.7 326.7 207.6 326.7C207.5 326.8 207.5 326.9 207.5 327Z" fill="#01686F"/>
<path d="M225.8 383.8C225.5 382.2 225.2 380.7 224.9 379.1C224.1 375.6 223.5 372.1 222.5 368.8C221.5 365.5 220.3 362.1 218.9 359C216.4 353.5 213.6 348.2 210.9 342.9C210.8 342.7 210.6 342.5 210.3 342.3C210.5 342.7 210.6 343.1 210.8 343.4C213.5 349 216.3 354.6 218.9 360.2C221.4 365.6 222.9 371.4 224 377.3C224.4 379.5 225 381.7 225.5 383.8C225.6 383.9 225.7 383.9 225.8 383.8Z" fill="#01686F"/>
<path d="M223 323.7C221.2 323.5 219.4 323.1 217.7 323C215.9 322.9 214.2 323 212.4 322.8C214.5 322 216.6 322 218.8 322C224.8 322 230.6 323 236.3 324.5C236.5 324.6 236.7 324.6 237 324.4C234.7 323.8 232.4 323.2 230.2 322.6C226.1 321.7 221.9 321.3 217.7 321.3C216.6 321.3 215.5 321.4 214.5 321.6C213.3 321.8 212.2 322.1 210.8 322.4C211 322.7 211.2 322.8 211.3 323C211 323.1 210.6 323.2 210.3 323.3C210.3 323.4 210.3 323.5 210.3 323.5C211.7 323.4 213.1 323.3 214.4 323.3C215.9 323.3 217.3 323.4 218.8 323.5C220.2 323.6 221.6 323.7 223.1 323.8C223 323.8 223 323.8 223 323.7Z" fill="#01686F"/>
<path d="M206.1 373.6C205.1 370.2 204 366.8 203 363.3C201.9 359.3 201.1 355.2 200.7 351.1C200.2 346 200.4 340.9 202 336C202 335.9 202 335.7 201.8 335.6C201.3 337.7 200.7 339.7 200.4 341.8C199.5 348.8 200.5 355.6 202.3 362.3C203.3 365.9 204.6 369.4 205.8 373C205.9 373.2 206 373.4 206.1 373.6Z" fill="#01686F"/>
<path d="M244.8 363.3C245.1 363.6 245.3 363.9 245.6 364.1C249 367.6 252 371.4 254.8 375.3C257.2 378.6 259 382.3 260.1 386.2C260.3 386.8 260.4 387.3 260.6 387.9C260.8 386.8 260.6 385.8 260.3 384.8C258.9 380.7 257.1 377 254.4 373.6C251.8 370.3 249.3 366.8 246.1 364C245.7 363.7 245.4 363.4 245.1 363C244.9 363.2 244.8 363.2 244.8 363.3Z" fill="#01686F"/>
<path d="M208 329.3C208.2 329.5 208.3 329.7 208.5 329.8C212.4 332.8 215.2 336.7 217.5 341.1C219.5 344.9 221.3 348.7 223.2 352.5C223.4 352.9 223.6 353.2 223.9 353.5C223.2 351.9 222.6 350.2 221.8 348.7C219.8 344.4 217.7 340.1 215.1 336.1C213.5 333.6 211.5 331.6 209.2 329.8C208.9 329.5 208.5 329.3 208.1 329.1C208.1 329.1 208 329.2 208 329.3Z" fill="#01686F"/>
<path d="M289.6 327.4C289.1 327.5 288.5 327.6 288 327.7C285.6 328.3 283.2 328.6 280.7 328.7C278.3 328.8 275.9 329 273.6 328.9C270.1 328.8 266.5 328.6 263 328.5C262.2 328.5 261.4 328.5 260.7 328.5C267.1 329.4 273.6 329.5 280.1 329.3C282.7 329.2 285.3 328.7 287.9 328.3C288.5 328.2 289.1 327.9 289.8 327.6C289.7 327.6 289.7 327.5 289.6 327.4Z" fill="#01686F"/>
<path d="M277.3 365C275.1 364.2 273 363.3 270.8 362.5C268.7 361.8 266.5 361.1 264.3 360.4C267.3 360.3 270.1 361.5 273.2 362.2C271.2 361.2 269.3 360.7 267.4 360.3C266.7 360.1 265.9 360.1 265.2 359.9C264.5 359.7 263.9 359.9 263.5 360.5C262.5 360.4 261.6 360.4 260.6 360.3C260.6 360.4 260.6 360.6 260.5 360.7C266.3 361.2 271.7 363.3 277 365.4C277.2 365.2 277.3 365.1 277.3 365Z" fill="#01686F"/>
<path d="M204.2 357.9C202 348.6 201.9 339.2 205.3 330C205.1 330.3 205 330.5 204.8 330.8C203.6 333.3 202.9 336 202.6 338.8C202.4 341.7 202.1 344.6 202.1 347.5C202.1 351 202.8 354.5 203.9 357.9C203.9 358 204 358 204 358.1C204.1 358.1 204.1 358 204.2 357.9Z" fill="#01686F"/>
<path d="M244 394.9C242.7 392.6 241.4 390.3 240 388.1C237.9 384.9 236.8 381.3 235.7 377.8C234.7 374.8 233.9 371.7 232.9 368.6C233 369.1 233.1 369.5 233.2 370C234.6 375.5 235.9 381 238.4 386.1C239.9 389.3 241.7 392.2 244 394.9Z" fill="#01686F"/>
<path d="M245.2 358.2C238.4 355.9 231.6 353.6 225.9 348.9C225.8 349 225.8 349 225.7 349.1C225.9 349.3 226 349.6 226.2 349.7C227.8 350.8 229.4 352.1 231.2 353C235.4 355.4 239.9 356.9 244.6 358.1C244.8 358.3 245 358.2 245.2 358.2Z" fill="#01686F"/>
<path d="M274.7 337.1C267.2 336.8 260.1 334.5 252.8 332.8C253.6 333.1 254.3 333.3 255.1 333.6C255.9 333.9 256.6 334.1 257.4 334.3C261.4 335.3 265.3 336.3 269.3 337.1C270.8 337.4 272.3 337.4 273.8 337.5C274.1 337.5 274.4 337.4 274.6 337.4C274.7 337.2 274.7 337.1 274.7 337.1Z" fill="#01686F"/>
<path d="M209 395.3C207.1 386.9 203.4 379.2 200.8 371.1C200.7 371.1 200.6 371.2 200.5 371.2C201.4 373.8 202.3 376.5 203.2 379.1C204.2 381.8 205.2 384.5 206.2 387.2C207.3 389.9 208.1 392.6 209 395.3Z" fill="#01686F"/>
<path d="M230.3 358.6C233.6 365.1 236.6 371.8 239.3 378.6C239.4 378.7 239.5 378.8 239.6 378.9C237.1 371.8 234.3 365 230.3 358.6Z" fill="#01686F"/>
<path d="M196.3 363.1C195.8 367 195.3 371 194.8 374.9C194.3 378.8 193.6 382.6 192.5 386.4C195.2 378.8 195.6 370.9 196.3 363.1Z" fill="#01686F"/>
<path d="M245.9 410.1C245.4 409.2 244.4 408.9 243.7 408.3C243 407.7 242.3 407.1 241.7 406.5C241 405.9 240.3 405.2 239.7 404.5C239.1 403.9 238.4 403.2 237.8 402.5C237.2 401.8 236.6 401 236 400.3C235.5 399.6 234.9 398.8 234.4 398C234.8 400.9 243 409.5 245.9 410.1Z" fill="#01686F"/>
<path d="M248.9 371.4C246.7 367.4 243.6 364.2 240.2 361.2C239.1 360.2 237.9 359.3 236.3 358.9C236.3 359.1 236.3 359.3 236.4 359.3C240.4 361.5 243.3 364.9 246.3 368.2C247.2 369.2 248 370.3 248.9 371.4Z" fill="#01686F"/>
<path d="M218.1 382.6C219.2 388.6 221 394.4 221.5 400.6C221.9 399.9 222 399.1 221.8 398C221 393 219.7 388 218.4 383.2C218.3 383 218.2 382.8 218.1 382.6Z" fill="#01686F"/>
<path d="M210.3 405.3C210.1 408.6 213.1 420.2 214.9 422.1C214.6 420.4 213.8 419.2 213.5 417.8C213.1 416.4 212.7 415.1 212.3 413.7C211.9 412.3 211.6 410.9 211.2 409.4C210.9 408.1 210.6 406.7 210.3 405.3Z" fill="#01686F"/>
<path d="M219.7 338.7C224 342.9 229.1 345.8 234.5 348.3C229.5 345.2 224.3 342.4 219.7 338.7Z" fill="#01686F"/>
<path d="M209.1 351.4C210.4 358.3 212.9 365.4 215.5 372.5C213.3 365.2 211.1 358 209.1 351.4Z" fill="#01686F"/>
<path d="M196.4 377.4C197.7 371.3 197 365.1 197 358.9C196.9 362 196.8 365 196.7 368.1C196.6 371.2 196.5 374.3 196.4 377.4Z" fill="#01686F"/>
<path d="M212 331.4C215.8 335 218.4 339.5 221.2 343.9C221.1 343.6 220.9 343.2 220.8 342.9C219.1 339.6 217.2 336.5 214.8 333.6C214.3 332.9 213.6 332.3 213 331.7C212.7 331.5 212.4 331.3 212.1 331.1C212.2 331.2 212.1 331.3 212 331.4Z" fill="#01686F"/>
<path d="M264.3 354.8C259.7 353.5 255.2 352 250.8 350.1C255 352.5 259.5 354.2 264.3 354.8Z" fill="#01686F"/>
<path d="M249.8 390C251.6 393.8 253.3 397.5 255 401.2C255.3 399.8 251.9 392.3 249.8 390Z" fill="#01686F"/>
<path d="M283.3 330C279.2 330.1 275 330.2 271.2 330.3C274.2 330.9 281.4 330.8 283.3 330Z" fill="#01686F"/>
<path d="M238.1 389.2C240.8 392.9 242.7 397.1 245.9 400.5C246.1 400.7 246.2 401 246.4 401.2C246.5 401.1 246.6 401.1 246.6 401C245.2 399 243.7 397.1 242.3 395.1C240.9 393.1 239.6 391 238.3 389C238.3 389.1 238.2 389.2 238.1 389.2Z" fill="#01686F"/>
<path d="M232.6 338.2C233 338.4 233.4 338.7 233.8 338.9C238.8 341.1 244 342.6 249.1 344.4C249.2 344.4 249.3 344.4 249.6 344.3C248.3 343.9 247.2 343.5 246 343.1C241.7 341.6 237.3 340.3 233.2 338.3C233 338.3 232.8 338.3 232.6 338.2Z" fill="#01686F"/>
<path d="M238.6 401.6C241.3 404.4 243.7 407.5 246.9 409.7C247 409.5 247.1 409.5 247.1 409.4V409.3C247.1 409.2 247 409.1 247 409.1C244.2 406.6 241.4 404.1 238.6 401.6Z" fill="#01686F"/>
<path d="M198.2 383.1C199 381.7 199.5 375.5 199 372.3C198.7 375.8 198.4 379.3 198.2 383.1Z" fill="#01686F"/>
<path d="M272.4 381.6C271.5 381 270.6 380.4 269.7 379.7C268.8 379 267.9 378.3 267.1 377.6C266.2 376.9 265.4 376.1 264.5 375.3C265.7 377.7 270.7 381.7 272.4 381.6Z" fill="#01686F"/>
<path d="M223.1 367C221.9 362.5 220 358.2 217.9 354C219.6 358.3 221.3 362.7 223.1 367Z" fill="#01686F"/>
<path d="M286.3 357C285.6 355.8 281.3 354 278.6 353.9C281.2 355 283.8 356 286.3 357Z" fill="#01686F"/>
<path d="M280.4 375.4C277.8 374.3 275.1 373.1 272.5 372C274.9 373.6 277.5 374.8 280.3 375.8C280.3 375.6 280.4 375.5 280.4 375.4Z" fill="#01686F"/>
<path d="M216.5 399.4C217 402.2 217.4 405.1 217.9 407.9C218.1 405 217.4 402.2 216.5 399.4Z" fill="#01686F"/>
<path d="M229.1 347.4C226.8 345.8 224.5 344.1 222.2 342.5C222.1 342.6 222.1 342.7 222 342.7C224.2 344.6 226.5 346.1 229.1 347.4Z" fill="#01686F"/>
<path d="M213.8 413.3C214.2 416 214.7 418.5 215.9 420.8C216 420.8 216.1 420.7 216.2 420.7C215.4 418.3 214.6 415.8 213.8 413.3Z" fill="#01686F"/>
<path d="M275.8 352.3C278 352.8 280.1 353.3 282.3 353.8C281 352.9 279.5 352.6 278.1 352.2C277.5 352 276.8 352 276.2 352C276.2 351.9 276 352.1 275.8 352.3Z" fill="#01686F"/>
<path d="M251.4 333.9C254.3 335.2 257.3 336.4 260.5 337.1C257.5 336 254.4 335 251.4 333.9Z" fill="#01686F"/>
<path d="M258.2 351.6C260.3 352.3 262.5 353 264.6 353.7C264.6 353.6 264.7 353.5 264.7 353.3C263.7 352.8 262.6 352.6 261.6 352.3C260.5 352 259.4 351.6 258.3 351.3C258.3 351.4 258.2 351.5 258.2 351.6Z" fill="#01686F"/>
<path d="M223.2 396.7C223.3 394.8 222.9 393 222.2 391.3C222.4 393.1 222.7 395 222.9 396.8C223 396.7 223.1 396.7 223.2 396.7Z" fill="#01686F"/>
<path d="M273.7 381C272.3 380.2 270.8 379.3 269.4 378.5C270.6 379.8 272 380.7 273.5 381.4C273.6 381.3 273.6 381.1 273.7 381Z" fill="#01686F"/>
<path d="M255.9 399C255.5 397.4 254.7 395.9 254 394.4C253.9 394.4 253.8 394.5 253.8 394.5C254.4 396 255.1 397.6 255.7 399.1C255.7 399.1 255.8 399.1 255.9 399Z" fill="#01686F"/>
<path d="M279.6 350.4C278.8 350.3 277.9 350.1 277.1 350C277.1 350.1 277.1 350.2 277 350.4C277.9 350.5 278.7 350.7 279.6 350.8C279.6 350.6 279.6 350.5 279.6 350.4Z" fill="#01686F"/>
<path d="M232.6 338.3C231.5 337.7 230.4 337.1 229.3 336.5C229.3 336.6 229.2 336.7 229.2 336.8C230.3 337.3 231.4 337.8 232.6 338.3Z" fill="#01686F"/>
<path d="M250.9 345C251.7 345.3 252.5 345.5 253.3 345.8C253.3 345.7 253.3 345.7 253.4 345.6C252.6 345.3 251.8 345.1 251 344.8C251 344.9 251 344.9 250.9 345Z" fill="#01686F"/>
<path d="M168.5 257.3C168.8 257.5 169 257.7 169.3 257.9C172.4 260.2 175.5 262.4 178.5 264.7C182 267.3 185.5 269.8 188.7 272.7C191.4 275.2 194.1 277.6 196.9 279.8C199.6 281.9 202.5 283.9 205.6 285.5C209.4 287.6 213.5 288.6 217.8 288.7C223.2 288.9 228.4 287.9 233.4 285.9C239.7 283.4 246 281 252.2 278.3C255.3 277 258.2 275.5 261.1 273.8C264.9 271.5 268.6 269 272.3 266.6C275.2 264.7 277.4 262 279.6 259.4C279.7 259.3 279.7 259.2 279.8 258.8C279.3 259 278.9 259 278.6 259.2C273.3 261.9 268 264.7 262.6 267.3C259 269.1 255.2 270.7 251.6 272.6C249 274 246.2 275.2 243.4 276.1C240 277.2 236.5 277.8 232.9 277.8C229.6 277.8 226.2 277.9 222.9 277.8C216.7 277.5 210.6 276.5 204.7 274.6C197 272.1 189.4 269.2 182.1 265.5C177.8 263.3 173.9 260.5 170 257.7C169.6 257.4 169.2 257.2 168.7 256.9C168.7 257 168.6 257.2 168.5 257.3ZM184 267.9C184.1 267.8 184.1 267.8 184.2 267.7C184.6 267.9 184.9 268.1 185.3 268.3C188.7 270.2 192.1 272 195.5 273.9C196.8 274.6 198.1 275.1 199.4 275.6C207 278.9 214.8 280.9 223.1 281.6C227.3 281.9 231.6 281.6 235.8 280.7C236.5 280.6 237.1 280.5 237.8 280.4C237.6 280.8 237.4 281 237.2 281.1C235.2 282.4 233.2 283.7 231.1 284.9C227.6 286.9 224 288.2 219.9 288.2C215.2 288.2 210.7 287.6 206.6 285.3C200.8 282.2 195.6 278.2 190.8 273.8C188.8 272 186.9 270.3 184.9 268.6C184.5 268.4 184.3 268.1 184 267.9ZM273.7 262.5C273.7 262.6 273.8 262.6 273.8 262.7C273.8 262.8 273.7 262.9 273.7 262.9C273.3 263.2 272.9 263.5 272.5 263.8C267.9 267 262.9 269.7 258 272.4C255.6 273.7 253 274.5 250.4 275.3C247.8 276 245.2 276.9 242.7 278.1C241.3 278.7 239.8 279.3 238.3 279.7C232.5 281.1 226.6 281.5 220.6 280.8C215.4 280.2 210.4 279 205.5 277.4C201.1 275.9 196.9 274.1 192.8 271.8C191.8 271.2 190.7 270.8 189.7 270.2C189.4 270.1 189.2 269.9 189 269.7C189.5 269.7 189.9 269.8 190.3 270C193.5 271.3 196.6 272.7 199.8 273.8C206.5 276.1 213.3 277.8 220.4 278.3C225.2 278.6 230.1 278.9 234.9 278.4C238.1 278.1 241.2 277.6 244.2 276.6C247.3 275.5 250.4 274.2 253.3 272.6C258 270.1 262.9 267.8 267.7 265.5C269.7 264.5 271.7 263.5 273.7 262.5ZM230.1 286.5C230.1 286.4 230 286.3 230 286.2C233.7 284 237.4 281.7 241.2 279.6C244.1 278 247.2 276.8 250.5 275.9C252.8 275.3 255.1 274.6 257.3 273.8C258 273.6 258.6 273.2 259.3 272.9C260.5 272.4 261.7 272 262.9 271.5C262 272.4 261.1 273.2 260.1 273.8C257.7 275.1 255.3 276.5 252.8 277.5C246 280.3 239.1 283 232.2 285.8C231.4 286.1 230.8 286.3 230.1 286.5ZM261.6 271.2C267.1 268.2 272.3 264.9 277.2 261C275.9 263.9 265.9 270.4 261.6 271.2Z" fill="#01686F"/>
<path d="M145.9 373.7C148 371.2 150.1 368.6 152.3 366C157 360.4 161.1 354.3 165.3 348.3C169.6 342 172.9 335.3 175.6 328.3C178.1 321.8 180.4 315.1 181.6 308.2C182.2 304.7 182.8 301.3 182.8 297.8C182.9 293.9 183.1 290 183 286.1C182.9 282.6 182.5 279.2 181.2 275.9C180.9 275.2 180.4 274.6 180 274C179.9 274 179.8 274.1 179.7 274.1C179.8 274.5 179.9 274.9 180.1 275.3C181.1 278 181.3 280.8 181.1 283.6C180.7 293.1 177.6 301.8 173.1 310.1C171 313.8 168.7 317.5 166.4 321.1C165.6 322.4 164.5 323.6 163.7 324.9C160.2 330.7 156.6 336.5 154.2 342.9C152.3 348.1 150.9 353.5 149.7 358.9C148.7 363.3 147.7 367.7 146.2 371.9C146.2 372.5 146.1 373.1 145.9 373.7ZM148.2 368.9C148.1 368.9 148.1 368.9 148 368.8C148 368.6 148 368.5 148.1 368.3C149.1 364.3 150.1 360.3 151.1 356.2C152.5 350.4 154.1 344.5 156.6 339C159.3 333.1 162.7 327.6 166.4 322.2C169.1 318.2 171.6 314.1 173.9 309.9C176.8 304.7 179 299.3 180.4 293.5C180.8 291.7 181.1 289.9 181.5 288.1C181.7 288.4 181.7 288.7 181.7 289C181.6 290.3 181.6 291.7 181.4 293C181 296.4 180.6 299.9 180 303.3C178.3 311.9 175.1 320.1 171.3 328C169.6 331.5 167.6 334.8 165.6 338.2C159.7 347.7 153.7 357.2 149.1 367.4C148.8 367.8 148.5 368.3 148.2 368.9ZM149.1 368.9C149 368.8 149 368.8 148.9 368.7C149 368.5 149.1 368.3 149.1 368.1C152.3 361.5 155.8 355.1 159.6 348.8C162 344.9 164.6 341 166.9 337C169.1 333.3 171.2 329.5 172.9 325.5C174.9 321 176.7 316.5 178.2 311.8C179.9 306.4 181 300.9 181.7 295.3C182 292.9 182.1 290.6 182.3 288.2C182.5 288.4 182.5 288.6 182.5 288.8C182.4 292 182.4 295.3 182.1 298.5C181.8 301.7 181.5 305 180.9 308.1C179.7 314.8 177.5 321.2 175.1 327.5C172.5 334.3 169.3 340.8 165.2 346.9C161.7 352 158.4 357.1 154.5 362C152.8 364.4 150.9 366.6 149.1 368.9Z" fill="#01686F"/>
<path d="M134.4 0.0999756C134.4 2.09998 134.4 4.09998 134.5 6.09998C134.7 11.2 134.9 16.3 135.2 21.4C135.8 31.3 136.6 41.1 136.2 51C136 56.1 135.6 61.1 135.2 66.2C134.7 73.1 133.8 79.9 132.5 86.7C131.8 90.3 131 93.9 130.4 97.5C128.8 106 127.2 114.5 125.9 123.1C124.7 130.5 124.3 138 124.3 145.5C124.3 150.7 124.7 155.9 125.2 161.1C126.1 170 127.9 178.6 130 187.2C131.9 195 134.8 202.5 138 209.8C141.5 217.9 145.2 226 150.2 233.3C153.8 238.6 157.7 243.6 161.5 248.7C163.4 251.2 165.2 253.8 167.2 256.3C170.9 260.7 174.2 265.5 177.3 270.3C179.7 274 182 277.9 184.2 281.8C189.1 290.5 192.9 299.8 196.1 309.3C198.1 315.4 200.5 321.4 202.7 327.5C202.8 327.7 202.9 327.9 203.2 328.1C203.2 327.9 203.3 327.7 203.2 327.5C202.2 324.5 201.1 321.6 200.1 318.6C198.1 312.9 196.1 307.1 194.1 301.5C191.7 295.1 188.9 288.8 185.6 282.8C181.5 275.3 177 268.2 172 261.3C171.1 260 170.2 258.8 169.2 257.5C166.2 253.6 163.3 249.7 160.2 245.9C149.8 233.3 142.4 219 136.4 203.9C134.3 198.5 132.3 193.1 130.8 187.6C129.7 183.4 128.8 179.2 128 174.9C127.2 170.4 126.5 165.8 126 161.3C125.1 153.2 124.9 145.1 125.3 137C125.7 128.6 126.9 120.4 128.5 112.1C129.1 109.1 129.7 106.1 130.2 103C131.5 95.8 133 88.6 134.2 81.3C134.9 76.7 135.4 72.1 135.9 67.5C137 57.9 137.2 48.2 136.9 38.5C136.8 34.5 136.5 30.4 136.2 26.4C135.9 21.3 135.6 16.3 135.3 11.2C135.1 7.89999 135.1 4.59998 135 1.29999C135 0.799988 135 0.299988 135 -0.100006C134.8 0.100006 134.6 0.0999756 134.4 0.0999756Z" fill="#01686F"/>
</g>
<defs>
<clipPath id="clip0_169_24583">
<rect width="301.9" height="422.7" fill="white" transform="matrix(1 0 0 -1 0 422.7)"/>
</clipPath>
</defs>
</svg>
