<svg width="302" height="423" viewBox="0 0 302 423" fill="none" xmlns="http://www.w3.org/2000/svg">
<g opacity="0.16" clip-path="url(#clip0_169_24878)">
<path d="M39.9001 288.3C39.6001 288.2 39.4001 288 39.2001 288C33.3001 286.6 27.9001 283.9 22.8001 280.6C20.3001 278.9 17.6001 277.4 15.3001 275.4C11.6001 272.2 7.60011 269.5 3.70011 266.6C2.80011 265.9 2.00011 265.1 1.30011 264.3C0.500107 263.3 0.000106826 262.2 -0.0998932 260.9C-0.199893 259.3 0.200107 258.4 1.80011 257.9C3.20011 257.4 4.70011 257.3 6.10011 257C7.40011 256.7 8.90011 256.6 10.1001 256.1C14.4001 254.2 18.9001 253.8 23.4001 253.8C27.4001 253.8 31.3001 254.7 35.1001 255.8C35.5001 255.9 36.0001 256 36.7001 256.2C36.4001 255.7 36.3001 255.5 36.1001 255.3C31.7001 250.4 29.3001 244.6 28.5001 238.1C28.0001 234 28.1001 229.9 28.8001 225.8C29.1001 224.2 29.6001 222.8 30.9001 221.7C32.1001 220.7 33.5001 220.3 34.9001 221C36.3001 221.7 37.6001 222.5 38.9001 223.4C41.8001 225.6 44.6001 227.9 47.5001 230.1C50.1001 232 52.4001 234.2 54.2001 237.2C54.3001 236.6 54.3001 236.3 54.3001 235.9C54.4001 234.2 54.5001 232.5 54.5001 230.8C54.4001 227.5 54.2001 224.1 54.1001 220.8C54.0001 218.5 53.7001 216.2 54.2001 213.9C54.7001 211.9 56.1001 210.6 57.5001 209.4C58.4001 208.7 59.6001 208.8 60.6001 209.2C61.2001 209.4 61.8001 209.7 62.3001 210.1C69.5001 215 76.0001 220.6 80.7001 228C81.9001 229.9 82.9001 231.8 84.0001 233.8C84.1001 234 84.3001 234.2 84.5001 234.7C84.7001 233.8 84.9001 233.1 85.0001 232.4C85.7001 229 86.9001 225.8 88.3001 222.7C89.9001 219.2 91.0001 215.5 92.0001 211.8C92.4001 210.5 92.9001 209.1 93.6001 208C95.2001 205.5 97.7001 205.2 99.8001 207.4C101.9 209.5 103.3 212 104.3 214.7C106 219 107.1 223.5 107.6 228.1C108 231.7 108.1 235.3 107.7 239C107.1 245.2 105.6 251.2 103 256.9C99.9001 263.6 95.5001 269.3 89.9001 274.2C86.8001 276.9 83.4001 278.9 79.7001 280.4C75.8001 282 73.3001 286.1 74.3001 290.4C74.3001 290.6 74.3001 290.7 74.3001 290.9C73.5001 290.9 73.4001 290.3 73.1001 289.9C72.2001 288.3 71.0001 287.1 69.3001 286.3C68.1001 285.8 66.9001 285.7 65.7001 287C61.1001 291.9 58.2001 297.6 56.8001 304.1C56.1001 307.5 56.1001 310.9 56.6001 314.3C57.2001 318.7 58.0001 323.2 58.7001 327.6C59.3001 331.8 59.2001 335.9 57.5001 339.9C56.7001 341.7 55.6001 343.1 54.1001 344.2C52.7001 345.2 51.4001 345.2 50.1001 344C49.5001 343.5 49.1001 342.8 48.6001 342.2C46.9001 339.6 44.9001 337.3 42.4001 335.4C38.6001 332.4 36.2001 328.4 34.5001 324C33.1001 320.3 32.0001 316.4 31.5001 312.5C30.8001 307.6 31.2001 302.7 32.6001 298C33.7001 294.4 35.8001 291.4 38.8001 289.1C39.4001 288.7 39.6001 288.5 39.9001 288.3ZM54.9001 240.6C55.0001 242.5 55.2001 245.4 55.4001 248.3C55.5001 249.8 55.9001 251.2 56.2001 252.7C57.0001 256.8 57.8001 261 59.6001 264.8C62.3001 270.6 66.1001 275.6 70.0001 280.6C71.0001 281.9 72.5001 282.1 74.0001 281.7C75.8001 281.2 77.5001 280.4 78.9001 279.1C82.1001 276.4 84.2001 272.8 85.8001 269C88.5001 262.6 89.0001 255.8 88.1001 249C87.5001 243.9 85.9001 239.1 83.8001 234.5C79.0001 224.2 71.2001 216.7 61.9001 210.6C61.3001 210.2 60.7001 210 60.0001 209.8C59.3001 209.6 58.6001 209.6 58.0001 210.1C56.6001 211.3 55.2001 212.5 54.9001 214.4C54.6001 215.9 54.5001 217.4 54.7001 218.9C55.0001 222.7 55.3001 226.5 55.2001 230.3C55.1001 233.3 55.0001 236.5 54.9001 240.6ZM50.9001 288.6C54.4001 288.7 58.9001 288 63.2001 286.2C65.0001 285.4 66.7001 284.5 68.3001 283.4C69.7001 282.5 69.8001 281.6 69.0001 280.2C68.8001 279.8 68.5001 279.4 68.2001 279C67.1001 277.6 65.9001 276.3 64.8001 274.9C62.6001 272.1 60.1001 269.6 56.7001 268.2C54.9001 267.5 53.1001 266.7 51.2001 266.3C48.5001 265.7 45.8001 265.3 43.0001 264.9C36.0001 263.8 29.3001 261.8 23.1001 258.6C21.5001 257.8 19.9001 257.1 18.2001 256.6C15.7001 255.8 13.2001 255.5 10.7001 256.4C9.00011 257 7.20011 257.3 5.40011 257.5C4.20011 257.6 3.00011 258 1.90011 258.4C0.800107 258.8 0.300107 259.8 0.700107 260.9C1.00011 261.9 1.50011 262.9 2.10011 263.8C2.80011 264.7 3.60011 265.4 4.50011 266.1C8.50011 269.1 12.6001 272 16.5001 275.2C20.0001 278.1 24.0001 280.5 28.0001 282.7C34.8001 286.5 42.0001 288.6 50.9001 288.6ZM62.0001 287.7C62.0001 287.6 61.9001 287.6 61.9001 287.5C61.7001 287.6 61.5001 287.6 61.3001 287.7C58.5001 288.6 55.6001 289.1 52.6001 289.3C49.3001 289.5 45.9001 289.5 42.6001 288.7C41.2001 288.4 40.1001 288.8 39.1001 289.6C37.0001 291.3 35.3001 293.4 34.2001 295.9C32.2001 300.6 31.8001 305.6 32.2001 310.6C32.5001 315.1 33.7001 319.4 35.3001 323.6C37.1001 328.4 39.9001 332.5 44.0001 335.7C45.2001 336.6 46.2001 337.7 47.2001 338.9C48.0001 339.9 48.7001 341 49.5001 342.1C49.9001 342.7 50.4001 343.3 50.9001 343.8C51.9001 344.6 52.6001 344.7 53.6001 343.9C54.4001 343.3 55.3001 342.6 55.9001 341.8C57.7001 339.2 58.5001 336.3 58.1001 333.2C57.7001 330.8 56.6001 328.8 55.3001 326.7C53.5001 324 52.0001 321.1 50.8001 318.1C48.3001 311.4 48.6001 304.8 52.0001 298.4C53.6001 295.5 55.9001 293.3 58.2001 291.1C59.6001 289.8 60.8001 288.8 62.0001 287.7ZM81.0001 278.2C81.1001 278.3 81.1001 278.3 81.2001 278.4C81.6001 278.1 82.0001 277.9 82.4001 277.6C83.9001 276.5 85.1001 275.2 86.4001 273.9C93.6001 266.3 99.1001 257.7 102.3 247.7C104 242.6 105.2 237.4 105.5 232.1C105.8 227.7 105.5 223.4 104.7 219C104.1 216 103.3 213 101.6 210.4C100.9 209.3 100.1 208.2 99.2001 207.4C97.5001 205.9 95.8001 206.1 94.6001 208C93.9001 209.1 93.4001 210.3 93.0001 211.5C91.8001 216 90.3001 220.3 88.5001 224.6C87.5001 226.9 86.8001 229.4 86.1001 231.9C85.4001 234.2 85.5001 236.5 86.4001 238.9C89.0001 245.9 90.0001 253.2 88.9001 260.7C88.0001 267 85.6001 272.7 81.5001 277.6C81.3001 277.8 81.1001 278 81.0001 278.2ZM62.1001 271C62.2001 270.9 62.2001 270.9 62.3001 270.8C62.0001 270.3 61.7001 269.8 61.4001 269.3C60.4001 267.3 59.1001 265.4 58.4001 263.3C57.2001 260 56.3001 256.6 55.5001 253.2C54.5001 248.9 54.4001 244.5 54.4001 240.2C54.4001 238 53.5001 236.4 51.7001 235.3C50.5001 234.6 49.3001 234 48.0001 233.5C43.8001 232.1 40.5001 229.6 38.1001 225.9C37.4001 224.7 36.6001 223.6 35.7001 222.5C34.6001 221 33.1001 220.9 31.6001 221.9C30.4001 222.7 29.9001 223.9 29.6001 225.3C29.0001 227.8 29.2001 230.4 29.7001 232.9C30.7001 237.5 32.7001 241.7 35.5001 245.4C38.3001 249 41.2001 252.5 44.0001 256.1C46.6001 259.5 49.7001 262.3 53.3001 264.5C55.7001 266 57.9001 267.8 60.1001 269.4C60.9001 269.9 61.5001 270.5 62.1001 271ZM65.9001 286.1C65.8001 286 65.7001 285.9 65.7001 285.9C65.1001 286.3 64.5001 286.6 64.0001 287C61.9001 288.8 59.8001 290.5 57.8001 292.4C55.8001 294.3 54.0001 296.2 52.6001 298.7C50.3001 303.1 49.4001 307.7 50.2001 312.6C50.7001 316.1 52.0001 319.4 53.8001 322.4C54.8001 324.2 56.0001 326 57.1001 327.8C57.7001 328.8 58.1001 329.8 58.5001 330.8C58.6001 329.4 58.5001 328.1 58.3001 326.8C57.6001 322.4 56.9001 317.9 56.2001 313.5C55.8001 310.4 55.8001 307.3 56.3001 304.3C57.6001 297.7 60.5001 291.9 65.1001 286.9C65.4001 286.7 65.6001 286.4 65.9001 286.1ZM13.9001 255.1C13.9001 255.2 13.9001 255.3 13.9001 255.3C15.2001 255.5 16.5001 255.5 17.7001 255.9C19.7001 256.6 21.7001 257.3 23.6001 258.2C30.1001 261.5 36.9001 263.5 44.1001 264.4C48.0001 264.9 51.8001 265.5 55.4001 267C55.6001 267.1 55.8001 267 56.2001 267C55.6001 266.6 55.2001 266.4 54.8001 266.1C49.7001 262.5 44.3001 259.6 38.5001 257.3C32.0001 254.8 25.4001 253.4 18.4001 254.2C17.0001 254.6 15.5001 254.9 13.9001 255.1ZM105.7 219.9C105.6 219.9 105.5 219.9 105.4 219.9C105.4 220.1 105.4 220.3 105.4 220.5C105.6 223 106 225.5 106.1 228C106.2 231.6 105.9 235.3 105.2 238.9C103.6 247.3 100.6 255.2 96.1001 262.5C92.6001 268.1 88.4001 273.1 83.5001 277.7C83.4001 277.8 83.4001 277.9 83.2001 278.2C83.7001 278 83.9001 277.9 84.2001 277.7C86.0001 276.7 87.7001 275.5 89.3001 274.1C93.4001 270.7 96.9001 266.9 99.7001 262.4C104.3 255.1 106.9 247.1 107.6 238.6C107.9 234.3 107.9 229.9 107.1 225.6C106.7 223.7 106.2 221.8 105.7 219.9ZM29.3001 234C29.2001 234 29.1001 234 29.1001 234C29.2001 235.6 29.3001 237.2 29.5001 238.7C30.3001 244.3 32.3001 249.3 35.9001 253.7C36.9001 255 38.1001 256.2 39.5001 257C41.8001 258.3 44.3001 259.3 46.7001 260.4C46.8001 260.4 46.9001 260.4 47.0001 260.3C47.0001 260.2 46.9001 260.1 46.9001 260C43.9001 256.4 41.0001 252.9 38.0001 249.3C35.5001 246.3 33.2001 243.2 31.7001 239.7C30.6001 237.8 30.0001 235.9 29.3001 234ZM37.1001 222.8C39.1001 226.2 41.2001 229.5 44.8001 231.4C46.7001 232.4 50.0001 233.7 51.1001 233.6C46.4001 229.7 41.5001 226.6 37.1001 222.8Z" fill="#01686F"/>
<path d="M96.6998 233.5C96.3998 236.2 96.1998 238.8 95.6998 241.5C94.7998 246.2 93.8998 250.9 92.5998 255.5C90.7998 261.9 88.2998 267.9 84.1998 273.2C83.9998 273.5 83.7998 273.8 83.4998 274C83.3998 273.9 83.2998 273.9 83.2998 273.8C83.4998 273.4 83.6998 273 83.9998 272.6C89.4998 264.8 92.3998 255.9 94.2998 246.6C95.0998 242.7 95.6998 238.8 96.3998 234.9C96.4998 234.4 96.4998 233.9 96.4998 233.3C96.4998 233.4 96.5998 233.5 96.6998 233.5Z" fill="#01686F"/>
<path d="M58.2 242.5C58.7 245.2 59.1 247.9 59.6 250.6C61.3 259.1 63.8 267.3 68 274.9C68.9 276.5 69.9 278 70.9 279.5C71.1 279.8 71.3 280.1 71.5 280.5C70.1 279.3 68.9 277.8 68.1 276.2C66.2 272.7 64.4 269 63.1 265.2C61.1 259.4 59.4 253.4 58.6 247.3C58.4 245.7 58.2 244.2 58 242.6C58.1 242.5 58.1 242.5 58.2 242.5Z" fill="#01686F"/>
<path d="M53.4 287.9C48.1 288.5 42.8 286.9 37.6 284.7C33.1 282.8 29 280.2 25 277.4C21.9 275.2 18.8 272.8 15.8 270.5C15.7 270.4 15.5 270.2 15.5 269.9C16.8 270.8 18.1 271.7 19.4 272.7C23.8 275.8 28 279.1 32.7 281.7C37.6 284.5 42.7 286.4 48.2 287.5C50 287.8 51.9 287.8 53.4 287.9Z" fill="#01686F"/>
<path d="M99 249.3C99.4 247.6 99.8 245.9 100.2 244.2C101.3 239.7 102.2 235.1 102.6 230.4C102.9 226.9 103.1 223.3 102.7 219.8C102.5 217.7 102.4 215.5 102.3 213.3C102.5 214.7 102.9 216.2 103 217.6C103.2 221.1 103.4 224.7 103.2 228.2C103 233.2 102.1 238.2 100.8 243C100.3 244.8 99.8 246.7 99.3 248.5C99.2 248.8 99.1 249 99 249.3Z" fill="#01686F"/>
<path d="M56.1001 289.3C55.6001 289.4 55.1001 289.5 54.6001 289.7C50.9001 291.5 48.2001 294.3 46.2001 297.7C44.2001 301 42.8001 304.5 42.3001 308.3C42.0001 310.3 41.9001 312.4 42.0001 314.5C42.1001 317.3 42.4001 320 42.7001 322.8C42.7001 323.1 42.7001 323.3 42.7001 323.6C41.8001 319.6 41.3001 314.8 41.9001 309.2C42.6001 301.5 45.9001 295 52.3001 290.4C54.0001 289.1 55.2001 288.7 56.6001 288.6C56.6001 288.8 56.6001 288.9 56.6001 289.1C56.3001 289.1 56.2001 289.2 56.1001 289.3Z" fill="#01686F"/>
<path d="M62.8999 210.8C67.3999 221.9 68.9999 233.6 70.6999 245.3C69.5999 239.5 68.5999 233.7 67.3999 227.9C66.1999 222.1 64.7999 216.4 62.8999 210.8Z" fill="#01686F"/>
<path d="M67.5001 283.4C65.6001 284.2 63.5001 284.4 61.4001 284.2C54.1001 283.4 47.6001 280.9 41.6001 276.7C39.4001 275.1 37.3001 273.5 35.1001 271.7C35.3001 271.8 35.5001 271.9 35.8001 272.1C37.0001 272.9 38.2001 273.7 39.4001 274.5C41.0001 275.6 42.4001 276.8 44.1001 277.8C48.8001 280.8 54.0001 282.7 59.5001 283.6C62.2001 284 64.9001 284.1 67.5001 283.4Z" fill="#01686F"/>
<path d="M56.0998 289.3C56.1998 289.2 56.3998 289.2 56.4998 289.1C57.7998 288.6 59.0998 288 60.5998 287.4C60.3998 288.2 59.7998 288.2 59.4998 288.4C57.8998 289.3 56.0998 290 54.5998 291C51.8998 292.8 49.6998 295.2 47.9998 297.9C46.2998 300.6 45.2998 303.7 44.5998 306.8C44.2998 308.4 44.0998 309.9 43.7998 311.6C43.8998 302.7 47.0998 295.4 54.5998 290.2C54.9998 289.9 55.5998 289.6 56.0998 289.3Z" fill="#01686F"/>
<path d="M76.6001 280.5C77.0001 280 77.4001 279.5 77.7001 279C79.2001 276.9 79.7001 274.5 80.5001 272.2C81.3001 269.8 81.5001 267.2 81.6001 264.7C81.7001 260.6 81.3001 256.5 80.6001 252.4C80.5001 252.1 80.6001 251.7 80.7001 251.3C80.9001 252.6 81.1001 253.9 81.2001 255.1C81.4001 256.4 81.6001 257.7 81.7001 259C81.8001 261 81.9001 263.1 82.0001 265.1C82.1001 268.2 81.5001 271.1 80.5001 274C79.9001 275.6 79.3001 277.1 78.6001 278.7C78.2001 279.5 77.6001 280.3 76.8001 280.8C76.7001 280.7 76.6001 280.6 76.6001 280.5Z" fill="#01686F"/>
<path d="M47.2998 276.5C46.2998 275.9 45.2998 275.2 44.2998 274.6C37.2998 270.4 30.5998 265.8 24.3998 260.4C23.8998 260 23.4998 259.6 23.0998 259.2C22.9998 259.1 22.8998 259 22.7998 258.8C26.8998 261.9 30.7998 265.1 34.8998 268C38.9998 270.9 43.1998 273.5 47.3998 276.3C47.3998 276.3 47.2998 276.4 47.2998 276.5Z" fill="#01686F"/>
<path d="M58.2997 264.9C52.1997 258 46.9997 250.5 43.6997 241.8C43.7997 242 43.8997 242.1 44.0997 242.3C44.1997 242.5 44.2997 242.7 44.3997 242.9C47.1997 249.1 50.8997 254.9 54.9997 260.3C56.0997 261.8 57.3997 263.2 58.5997 264.7C58.4997 264.7 58.3997 264.8 58.2997 264.9Z" fill="#01686F"/>
<path d="M64.1001 234C65.6001 244.7 67.8001 255.3 71.4001 265.8C69.0001 261.9 64.5001 242.2 64.1001 234Z" fill="#01686F"/>
<path d="M36.5 311.5C37.4 319.1 38 326.7 42 333.8C41.2 333.6 41.1 333.2 40.9 332.8C39.7 330.6 38.8 328.2 38.3 325.8C37.3 321.6 36.6 317.3 36.6 313C36.5 312.5 36.5 312 36.5 311.5Z" fill="#01686F"/>
<path d="M87.0999 254.6C86.5999 248 85.9999 241.4 84.3999 234.9C84.3999 234.9 84.4999 234.8 84.6999 234.6C86.6999 241.2 87.1999 247.8 87.0999 254.6Z" fill="#01686F"/>
<path d="M57 257.5C55 251.2 52.3 245.2 49.5 239.3C49.7 239.5 49.9 239.8 50 240C52 243.3 53.6 246.8 55 250.4C55.7 252.3 56.7 254 56.9 256.1C56.9 256.6 57 257.1 57 257.5Z" fill="#01686F"/>
<path d="M6.8999 257C7.2999 257.2 7.7999 257.3 8.0999 257.6C10.3999 259.4 12.5999 261.4 14.8999 263.2C16.7999 264.7 18.6999 266 20.5999 267.4C20.9999 267.7 21.3999 267.9 21.8999 268.3C19.7999 267.7 15.4999 264.5 6.8999 257Z" fill="#01686F"/>
<path d="M75.1997 220.6C77.8997 226.4 79.3997 232.5 79.8997 238.9C79.4997 236.8 79.0997 234.8 78.5997 232.7C78.0997 230.6 77.5997 228.6 76.8997 226.6C76.2997 224.6 75.4997 222.7 74.6997 220.7C74.8997 220.7 74.9997 220.7 75.1997 220.6Z" fill="#01686F"/>
<path d="M93.1 242.2C93.1 246.2 90.8 257.6 88.5 261.8C88.6 261.4 88.6 261 88.8 260.6C90.1 256.8 91.1 253 91.8 249.1C92.2 246.8 92.7 244.5 93.1 242.2Z" fill="#01686F"/>
<path d="M51.4999 325.3C51.9999 326.9 52.4999 328.2 52.7999 329.6C53.4999 332.7 54.1999 335.8 54.7999 339C54.9999 340.1 54.8999 341.3 54.8999 342.5C54.8999 343 54.4999 343.5 54.2999 344.2C54.0999 343.8 53.9999 343.7 54.0999 343.6C54.9999 341.7 54.4999 339.7 54.0999 337.7C53.2999 333.7 52.2999 329.8 51.3999 325.8C51.3999 325.7 51.3999 325.6 51.4999 325.3Z" fill="#01686F"/>
<path d="M68.8999 273.6C65.9999 269.1 62.5999 258 62.3999 252.1C62.6999 253.6 63.0999 255.2 63.3999 256.7C64.4999 262.5 66.1999 268 68.7999 273.3C68.8999 273.4 68.8999 273.5 68.8999 273.6Z" fill="#01686F"/>
<path d="M83.7997 260.4C83.9997 262.9 83.7997 265.8 83.3997 268.7C83.0997 271.1 82.5997 273.5 81.6997 275.7C81.2997 276.8 80.5997 277.8 79.6997 278.5C79.8997 278.1 79.8997 277.9 79.9997 277.7C81.6997 275.1 82.3997 272.2 82.7997 269.2C83.1997 266.1 83.4997 263 83.7997 260.4Z" fill="#01686F"/>
<path d="M90.2998 232.5C90.4998 226.1 90.7998 219.6 91.9998 213.3C92.0998 213.3 92.1998 213.3 92.2998 213.3C91.5998 219.7 90.8998 226.1 90.2998 232.5Z" fill="#01686F"/>
<path d="M72.3999 252.8C74.2999 260.3 75.9999 267.9 75.8999 275.1C75.4999 271.9 75.0999 268 74.4999 264.2C73.9999 260.3 73.1999 256.6 72.3999 252.8Z" fill="#01686F"/>
<path d="M35.2998 239.5C32.1998 235.1 30.3998 230.2 29.2998 224.9C29.3998 224.9 29.4998 224.8 29.5998 224.8C29.6998 225.1 29.8998 225.3 29.8998 225.6C30.7998 229.4 32.0998 233 33.6998 236.6C34.2998 237.5 34.7998 238.5 35.2998 239.5Z" fill="#01686F"/>
<path d="M55.1998 213.2C56.2998 215.1 56.3998 217.4 56.8998 219.5C57.4998 221.8 57.8998 224.1 58.2998 226.5C57.9998 225.5 57.5998 224.4 57.2998 223.4C56.8998 221.9 56.5998 220.4 56.1998 218.9C55.7998 217.6 55.3998 216.3 54.9998 215C54.8998 214.5 54.8998 213.9 54.7998 213.4C54.9998 213.2 55.0998 213.2 55.1998 213.2Z" fill="#01686F"/>
<path d="M46.0998 239.2C43.3998 234.6 40.4998 229.8 37.7998 225.2C39.0998 226.1 44.9998 235.9 46.0998 239.2Z" fill="#01686F"/>
<path d="M41.5 271C44.1 272.4 46.8 273.7 49.3 275.3C51.9 277 54.7 277.9 57.6 278.9C57.8 279 58.1 279.1 58.3 279.2C58.4 279.2 58.4 279.3 58.5 279.3C52 278.1 46.9 274.2 41.5 271Z" fill="#01686F"/>
<path d="M100.7 220.1C100.3 216 100 211.6 99.5 206.9C100.5 208.4 101 214.7 100.7 220.1Z" fill="#01686F"/>
<path d="M58.2 272C54.5 269.8 50.8 267.7 47 265.5C48.1 265.4 56.1 269.9 58.2 272Z" fill="#01686F"/>
<path d="M50.4001 289.1C45.9001 290.6 43.1001 293.6 40.6001 297.2C40.6001 297.1 40.7001 297 40.7001 296.9C40.8001 296.8 40.8001 296.7 40.9001 296.6C42.6001 293.8 44.7001 291.3 47.7001 289.7C48.5001 289.3 49.2001 288.9 50.4001 289.1Z" fill="#01686F"/>
<path d="M90.4998 218.6C90.0998 222.1 89.5998 225.6 89.1998 229.2C89.0998 225.6 89.5998 222.1 90.2998 218.6C90.2998 218.6 90.3998 218.6 90.4998 218.6Z" fill="#01686F"/>
<path d="M53.2999 344C52.9999 341.2 52.6999 338.4 52.3999 335.7C53.1999 338.4 53.5999 341.2 53.5999 344C53.4999 343.9 53.3999 344 53.2999 344Z" fill="#01686F"/>
<path d="M32.5 230.8C31.3 228.4 30.4 226 30 223.3C30.1 223.3 30.2 223.2 30.3 223.2C31 225.8 31.8 228.3 32.5 230.8Z" fill="#01686F"/>
<path d="M77.1001 223.4C78.5001 225.8 79.0001 228.6 79.5001 231.3C78.7001 228.7 77.9001 226 77.1001 223.4Z" fill="#01686F"/>
<path d="M14.0998 260.7C12.2998 259.6 10.5998 258.2 8.7998 256.6C9.8998 256.9 12.5998 259 14.0998 260.7Z" fill="#01686F"/>
<path d="M67 218.9C66.3 216.9 65.7 215 65 213C65.1 213 65.2 212.9 65.4 212.9C66.3 214.7 66.9 216.7 67 218.9Z" fill="#01686F"/>
<path d="M42.2998 292.3C43.8998 290.9 45.2998 289.3 47.6998 289C47.2998 289.6 46.4998 289.6 45.9998 290C45.3998 290.4 44.7998 290.8 44.1998 291.2C43.5998 291.6 43.0998 292.1 42.4998 292.5C42.3998 292.4 42.3998 292.3 42.2998 292.3Z" fill="#01686F"/>
<path d="M57.8 218.8C57 216.7 56.2 214.7 56 212.4C56.1 212.4 56.2 212.3 56.4 212.3C56.9 214.5 57.4 216.6 57.8 218.8Z" fill="#01686F"/>
<path d="M87.0999 235.3C87.1999 238.1 87.3999 240.6 87.4999 243.3C86.8999 242.3 86.7999 237.2 87.0999 235.3Z" fill="#01686F"/>
<path d="M48 253.5C49.5 255.5 51 257.6 52.5 259.6C51.4 258.9 48.9 255.7 48 253.5Z" fill="#01686F"/>
<path d="M33.0997 221.3C33.8997 222.7 34.6997 224.2 35.4997 225.6C35.3997 225.6 35.3997 225.7 35.2997 225.7C34.3997 224.3 33.5997 222.9 32.6997 221.5C32.8997 221.4 32.9997 221.3 33.0997 221.3Z" fill="#01686F"/>
<path d="M154.3 394.5C153.6 394.1 152.9 393.8 152.3 393.4C151.3 392.6 150.3 391.9 149.4 391C145.2 386.6 142.3 381.4 140.8 375.5C139.8 371.6 139.8 367.7 140.7 363.8C142 358.2 143.4 352.7 144.7 347.2C146 341.8 147.1 336.3 147.8 330.8C148 329.4 148.4 328.1 148.6 326.8C148.8 325.4 148.9 324.1 149.1 322.7C149.2 322.2 149.3 321.8 149.4 321.3C149.5 321.3 149.6 321.3 149.7 321.3C149.9 322.2 150.1 323.1 150.3 324C151.2 328.3 152.1 332.5 152.8 336.8C153.6 341.3 153.7 345.7 153.3 350.2C152.6 357.1 150.7 363.8 148.6 370.4C147.3 374.2 146.6 378.1 146.5 382C146.4 385.9 148 388.9 150.8 391.4C151.9 392.4 153.2 393.4 154.3 394.3C154.4 394.3 154.4 394.4 154.3 394.5ZM150.4 326.9C150.3 326.9 150.2 326.9 150.2 326.9C150.2 327.4 150.2 327.9 150.2 328.4C150.2 331.4 150.3 334.4 150.2 337.4C150.2 339.1 150 340.8 149.8 342.6C149.5 345.5 148.9 348.3 148.1 351.2C147 354.8 146.2 358.5 145.4 362.1C144.6 365.6 143.7 369.1 143.4 372.8C143 377.1 143.9 381.1 145.8 384.8C145.9 385 146.1 385.2 146.2 385.4C145.6 382.1 146 378.8 146.6 375.6C147.1 372.9 147.9 370.4 148.7 367.8C150.8 361.4 152.4 354.8 152.9 348.1C153.1 345.4 153 342.8 152.7 340.2C152.4 337.6 151.9 335.1 151.5 332.5C151.2 330.5 150.8 328.7 150.4 326.9ZM143.1 379.6C142.5 376.4 142.5 373.2 143.1 370C143.7 366.6 144.5 363.2 145.3 359.9C146.4 355.3 147.7 350.8 148.7 346.2C149.3 343.2 149.6 340 149.8 336.9C150 333.6 149.8 330.3 149.8 327C149.8 326.6 149.8 326.2 149.7 325.8C149.5 326.3 149.4 326.9 149.3 327.4C148.9 329.6 148.7 331.8 148.2 334C147.3 337.4 146.9 340.9 146.1 344.3C144.7 350.2 143.2 356.1 141.7 362.1C140.8 365.8 140.4 369.6 141 373.4C141.4 375.6 142 377.7 143.1 379.6Z" fill="#01686F"/>
<path d="M48 395.8C48.1 395.5 48.1 395.2 48.2 395C49.8 391.2 51.5 387.5 53.1 383.7C54 381.6 54.9 379.4 55.9 377.3C57.6 373.9 59.5 370.6 62.1 367.7C65.4 364 69.4 361.4 74.1 360C76 359.4 78 359.4 79.9 359.5C82.1 359.5 84.4 359.8 86.6 359.9C88.3 360 90 360.3 91.8 360.3C98.5 360.5 104.5 362.6 110.1 366.1C111.8 367.2 113.3 368.4 114.9 369.6C115.2 369.8 115.5 370.2 115.8 370.4C115.7 370.5 115.7 370.6 115.6 370.6C115.3 370.4 115 370.3 114.8 370.1C112.7 368.7 110.7 367.2 108.6 365.8C105.1 363.6 101.2 362.3 97 362C94.2 361.8 91.4 361.6 88.7 361.8C83.3 362.3 78.3 363.8 73.6 366.6C68.9 369.3 65 372.9 61.6 377.1C58.8 380.5 56.3 384.1 53.8 387.6C52.2 389.9 50.7 392.4 49.1 394.8C48.8 395.2 48.5 395.5 48.2 395.9C48.1 395.9 48 395.9 48 395.8ZM53.4 386.4C53.5 385.9 53.5 385.4 53.8 385C55.3 382.3 56.6 379.6 58.2 377.1C61.9 371.2 66.9 366.7 73 363.4C75.6 362 78.4 361 81.3 360.6C81.6 360.6 81.9 360.4 82.4 360.2C78.9 359.7 74.9 360.1 72.2 361.3C67.5 363.3 63.6 366.3 60.7 370.5C59.6 372.1 58.6 373.8 57.6 375.5C55.2 379.9 53.2 384.6 51.2 389.2C51.1 389.4 51.1 389.6 51.1 389.8C51.5 389.5 51.8 389.1 52 388.7C52.5 388 52.9 387.1 53.4 386.4C53.5 386.5 53.5 386.7 53.5 386.9C53.8 386.5 54 386.3 54.2 386C56.3 383.1 58.3 380.1 60.6 377.4C62.6 375 64.7 372.8 67 370.8C73 365.4 80 362.2 88.1 361.5C89.3 361.4 90.4 361.2 91.6 361.1C90.7 360.9 89.8 361 88.9 360.9C85.5 360.5 82.2 360.8 79 361.7C72.1 363.5 66.8 367.6 62.1 372.8C59.3 375.8 57.4 379.4 55.4 383C54.8 384 54.1 385.2 53.4 386.4Z" fill="#01686F"/>
<path d="M178.6 422.6C178 420.7 177.5 418.9 176.8 417.1C175 412.3 172.2 408.2 168.5 404.7C164.2 400.5 159.4 397.2 154 394.5C147.9 391.5 141.8 388.5 135.8 385.3C131.2 382.9 127 380 122.7 377C113.7 370.8 106.3 363 100 354.2C98.0002 351.3 96.1002 348.4 94.4002 345.3C90.1002 337.2 86.4002 328.8 83.4002 320.1C81.5002 314.6 79.7002 309.1 77.9002 303.6C76.4002 298.8 75.0002 293.9 73.5002 289.1C73.1002 287.8 72.6002 286.6 72.2002 285.2C72.8002 285.4 72.9002 285.9 73.1002 286.3C73.7002 287.8 74.2002 289.4 74.8002 290.9C75.5002 293.1 76.3002 295.2 76.9002 297.5C79.1002 305.7 81.9002 313.7 84.7002 321.7C87.4002 329.4 90.7002 336.7 94.4002 343.9C100.7 356 109.4 366.2 120.1 374.5C127 379.8 134.5 384.3 142.3 388.1C147.9 390.8 153.5 393.5 158.8 396.6C165.1 400.2 170.4 404.9 174.4 411.1C176.7 414.7 178.1 418.6 179.1 422.7C178.9 422.6 178.8 422.6 178.6 422.6Z" fill="#01686F"/>
<path d="M224.2 276.6C224.4 276.5 224.5 276.5 224.5 276.5C227.1 274.2 229.8 272 232.4 269.7C233.4 268.9 234.3 268.1 235.4 267.4C238.3 265.5 241 266.1 242.8 269C243.9 270.7 244.4 272.6 244.9 274.4C245.2 275.6 245.5 276.8 245.9 278C246.9 281.2 246.8 284.4 246.4 287.6C246 290.8 245.2 293.8 243.6 296.8C244.2 296.6 244.5 296.5 244.8 296.3C250.4 293.3 256.4 291 262.3 288.7C264.1 288 265.9 287.6 267.9 287.7C270.1 287.8 271.1 289.2 270.4 291.3C270.1 292.2 269.5 293 269.1 293.8C268.9 294.2 268.5 294.6 268.1 295.3C268.7 295.2 269.1 295.1 269.5 295.1C270.8 295 271.4 295.5 271.4 296.7C271.5 298.7 271.3 300.7 270.5 302.6C269.3 305.4 268.2 308.3 266.4 310.8C266.2 311.1 266 311.5 265.7 312.1C267 311.7 268.2 311.3 269.3 310.9C269.5 310.8 269.7 310.7 269.9 310.7C272.6 310.7 275.2 309.7 277.8 309.2C279.7 308.8 281.6 308.3 283.6 308.8C286 309.3 287.2 311.1 286.7 313.5C286.4 315.1 285.7 316.6 284.7 317.8C283.2 319.7 281.7 321.5 280.1 323.3C278.4 325.3 276.7 327.2 274.9 329.1C272.5 331.8 269.7 334 266.4 335.3C263.6 336.4 260.8 337 257.8 337.4C253.6 337.9 249.4 338.2 245.2 338.8C236.7 339.8 228.5 342 221.3 346.9C219.2 348.3 217.2 350 215.1 351.4C213.1 352.8 211 354.2 208.9 355.4C207.2 356.4 205.3 356.8 203.3 356.9C200.2 357.1 197.8 358.4 195.9 360.7C195.5 361.2 195.1 361.8 194.7 362.4C194.6 362.6 194.3 362.6 193.9 362.8C193.9 362.3 193.8 362 193.9 361.7C194.6 357.2 193.5 353.1 191.1 349.3C189.2 346.4 187.9 343.1 187.4 339.7C187.1 337.7 187 335.7 186.8 333.6C186.6 330.9 186.2 328.3 185.2 325.8C183 320.5 180.5 315.5 177.1 310.9C175.8 309.1 174.3 307.4 172.9 305.6C169.9 301.6 166.6 297.7 164.1 293.4C160.8 287.7 158.7 281.6 157.8 275.1C157.5 273.1 157.4 271.1 157.8 269C158 267.9 158.4 266.8 159.6 266.5C160.8 266.2 162 266.5 162.8 267.5C163.5 268.4 164.2 269.3 164.7 270.3C165.5 271.7 166.1 273.2 166.9 274.6C168.8 278.4 171.5 281.6 175 284.1C177.7 286 180.3 288 182.9 290.1C186.4 292.9 189.4 296.2 191.3 300.4C191.7 301.4 192.1 302.4 192.5 303.6C192.7 303.1 192.7 302.9 192.8 302.7C193.6 298.8 194.6 294.9 195.3 290.9C195.7 288.5 195.9 286 196.2 283.6C197.1 275.9 198.1 268.3 200.6 261C201.8 257.5 203.8 254.6 206.5 252.1C207.7 251 209 250 210.8 250C212.6 250 213.9 250.8 214.5 252.3C215.2 253.8 215.8 255.5 216 257.1C216.4 261 218 264.5 220.2 267.6C221.7 269.8 222.7 272.2 223.6 274.7C223.8 275.5 224 276.1 224.2 276.6ZM215.3 264.7C215.3 262.7 215.4 260.8 215.3 258.8C215.2 257.2 214.9 255.6 214.4 254.1C213.2 250.6 210.8 249.9 207.8 252.1C205.8 253.5 204.3 255.5 203.1 257.5C202.1 259.2 201.3 261 200.7 262.8C198.5 269.6 197.5 276.7 196.8 283.8C196.5 286.3 196.3 288.7 195.9 291.1C195.3 294.8 194.5 298.4 193.7 302C192.6 307.2 191.5 312.3 190.3 317.4C189.4 321.5 188.2 325.6 187.7 329.8C187.1 335.4 187.6 340.8 190 345.9C191.2 348.5 192.7 350.7 194.9 352.5C195.5 353 196.3 353.4 197 353.7C198.9 354.3 200.1 353.3 200 351.4C199.7 346 201.1 340.9 203.4 336.1C206.5 329.7 210.5 323.9 215.8 319.1C217 318 217.9 316.8 218.5 315.3C219.4 312.9 220.3 310.5 220.9 308.1C221.7 305.2 222.2 302.3 222.8 299.4C223.3 297.2 223.4 294.9 223 292.7C222.5 290 221.7 287.4 220.3 284.9C219.1 282.8 218.2 280.5 217.2 278.3C215.9 275.4 215.3 272.4 215.4 269.2C215.3 267.8 215.3 266.2 215.3 264.7ZM266.3 297.3C266.2 297.2 266.1 297.2 266 297.1C266.2 296.8 266.3 296.4 266.5 296.1C267.1 295.3 267.8 294.5 268.4 293.6C268.9 292.9 269.3 292.2 269.6 291.4C270.2 289.7 269.5 288.8 267.7 288.7C266.1 288.6 264.5 288.9 263 289.4C260.7 290.3 258.4 291.1 256.1 292.1C245.9 296.2 236.3 301.2 228.4 309.2C227.8 309.8 227 310.3 226.3 310.9C224.1 312.8 221.9 314.7 219.7 316.6C215 320.6 210.8 325 207.5 330.2C204.8 334.5 202.5 339 201.3 344C200.6 347 200.2 350.1 200.9 353.1C201.6 356.2 202.5 356.5 205.1 356.2C205.4 356.2 205.7 356.1 206 356C208.4 355.4 210.4 354 212.4 352.6C216.2 350 219.3 346.7 222.4 343.4C228.2 337.3 234.5 331.8 241.9 327.7C243.9 326.6 245.8 325.5 247.7 324.3C251.5 322 255.3 319.6 259 317.2C261.3 315.7 263.2 313.8 264.8 311.6C266.8 308.8 268.1 305.8 269.5 302.7C270.2 301.1 270.5 299.4 270.5 297.6C270.5 297.1 270.3 296.5 270.3 296.1C268.6 295.7 267.6 297 266.3 297.3ZM224.5 277.6C224.6 278.1 224.7 278.6 224.8 279C225.2 281.4 225.8 283.8 225.9 286.2C226.2 290.5 225.6 294.7 224.5 298.9C223.6 302.2 222.8 305.4 221.8 308.7C221.4 310.2 220.7 311.7 220.2 313.2C219.9 314.1 219.3 314.9 219.3 316.1C220.2 315.5 220.9 315 221.6 314.4C224.3 312 226.9 309.6 229.5 307.2C233 304 236.8 301.3 240.9 298.9C241.9 298.3 242.5 297.6 242.9 296.6C243.6 294.8 244.1 292.9 243.7 290.9C243.5 289.6 243.3 288.3 242.8 287.1C241.1 282.5 241 277.8 241.5 273C241.6 271.8 241.4 270.5 241.2 269.3C240.9 267.8 239.9 267.1 238.4 267.3C237.6 267.4 236.8 267.7 236.1 268.1C235.3 268.5 234.7 269.1 234 269.6C231.8 271.4 229.6 273.2 227.5 275C226.4 275.7 225.5 276.6 224.5 277.6ZM285.4 311C284 309.5 282.3 309.3 280.5 309.7C277.5 310.2 274.6 310.8 271.7 311.5C270.6 311.8 269.5 311.9 268.4 312.2C266.7 312.7 264.9 313.1 263.6 314.4C261.6 316.4 259.3 318.2 256.9 319.7C251.9 322.8 246.8 325.8 241.7 328.8C236.6 331.8 231.8 335.2 227.6 339.4C227.3 339.7 227 340 226.8 340.3C227.1 340.3 227.3 340.2 227.4 340.1C230.3 337.9 233.5 336.1 236.8 334.5C243.4 331.3 250.4 330.2 257.6 331.7C260.2 332.2 262.8 332.6 265.4 333.2C267.5 333.6 269.4 333.1 271 331.9C272.1 331.1 273.1 330.2 274 329.2C276.9 326 279.7 322.8 282.5 319.5C283.5 318.4 284.3 317.1 285.1 315.8C285.9 314.3 286.2 312.7 285.4 311ZM186.4 327.4C186.7 323.2 186.3 319.1 185.8 315C185 309.2 183.2 303.7 180.6 298.5C178 293.2 174.5 288.5 171.4 283.5C169 279.6 166.3 275.9 164.5 271.6C164.2 270.8 163.7 270.1 163.2 269.4C162.9 269 162.6 268.6 162.2 268.2C160.6 266.7 159 267.2 158.6 269.3C158.1 271.4 158.3 273.4 158.6 275.5C159.6 282.4 161.8 288.8 165.7 294.6C168.3 298.5 171.3 302.2 174.1 306C175.4 307.8 176.9 309.5 178.2 311.3C181.7 316.1 184.3 321.4 186.3 326.9C186.2 327.1 186.3 327.2 186.4 327.4ZM172.6 283.5C172.5 283.6 172.4 283.7 172.3 283.8C172.5 284.2 172.7 284.5 172.9 284.9C174.5 287.3 176.1 289.7 177.6 292.1C180.9 297.4 183.7 302.9 185.2 308.9C186.4 313.4 186.9 318.1 187.1 322.8C187.1 324 187.1 325.2 187.1 326.4C187.4 326.1 187.5 325.9 187.6 325.6C188.9 320 190.2 314.3 191.5 308.7C192 306.7 191.9 304.8 191.1 302.8C190.3 300.7 189.4 298.6 187.9 296.9C186.2 294.9 184.4 292.9 182.4 291.2C179.3 288.4 175.9 286 172.6 283.5ZM267.1 334.4C267.1 334.3 267.1 334.2 267.1 334.1C266 334 264.9 333.8 263.8 333.7C261.2 333.2 258.5 332.7 255.9 332.2C252.3 331.5 248.8 331.7 245.2 332.4C241.4 333.2 237.9 334.7 234.4 336.5C230 338.8 226.1 341.9 222.1 345C221.8 345.2 221.6 345.5 221.3 345.9C221.5 345.9 221.5 345.9 221.6 345.9C221.8 345.8 221.9 345.7 222.1 345.7C228 342 234.5 340 241.3 338.9C245.3 338.3 249.4 338 253.4 337.6C256.9 337.2 260.4 336.7 263.8 335.7C265 335.3 266.1 334.8 267.1 334.4ZM223.9 297.3C224 297.2 224.1 297.1 224.1 297C225.1 292.7 225.5 288.4 225 284C224.3 278.6 222.9 273.5 219.9 268.8C218.6 266.9 217.7 264.7 216.6 262.6C216.5 262.5 216.4 262.3 216.1 262C216.1 264.7 216.1 267 216.1 269.4C216.1 270.3 216.1 271.1 216.2 272C216.5 275 217.6 277.8 218.9 280.5C219.8 282.3 220.8 284 221.5 285.8C223 289.2 224 292.8 223.8 296.6C223.8 296.8 223.9 297 223.9 297.3ZM242.3 269.7C242.2 269.7 242.2 269.7 242.1 269.8C242.1 270.2 242.1 270.6 242.1 270.9C242.1 272.6 242.2 274.3 242 276C241.7 278.5 242 281 242.6 283.4C243.3 286.2 244.7 288.9 244.6 291.9C244.8 291.7 244.9 291.5 245 291.3C245.4 288.8 245.8 286.4 246 283.9C246.2 281.9 245.7 280 245.1 278C244.4 275.8 243.8 273.5 243.2 271.3C242.9 270.8 242.6 270.3 242.3 269.7Z" fill="#01686F"/>
<path d="M214.2 253.2C214.7 254.6 214.4 256 214 257.4C212.3 264.3 210.6 271.2 208.8 278.1C207.6 282.7 206.3 287.3 205 291.8C204.9 292 204.8 292.3 204.6 292.5C204.9 291.3 205.2 290.1 205.5 288.9C208.1 278.6 210.7 268.2 213.3 257.9C213.7 256.3 213.9 254.7 214.2 253.2Z" fill="#01686F"/>
<path d="M196.6 350.1C196.2 346.6 196.2 342.9 196.5 339.2C197.2 330.1 199.9 321.5 203.2 313.1C203.9 311.3 204.6 309.4 205.6 307.6C205 309.2 204.4 310.8 203.9 312.5C202.1 317.4 200.3 322.3 199 327.4C198.1 331.2 197.3 335.1 197 339C196.8 342.8 196.7 346.6 196.6 350.1Z" fill="#01686F"/>
<path d="M231.2 330.7C230.9 331 230.6 331.4 230.3 331.7C228 334.2 225.7 336.6 223.5 339.2C220.4 342.7 217.4 346.3 214.3 349.8C212.6 351.8 210.7 353.6 208.5 355C207.3 355.8 206 356.4 204.3 356.7C204.6 356.5 204.6 356.3 204.8 356.3C208.3 355 211.1 352.7 213.5 350C215.8 347.4 218 344.6 220.3 342C223.7 338.3 227.2 334.6 230.7 330.9C230.8 330.8 230.9 330.7 231.1 330.6C231.1 330.6 231.2 330.6 231.2 330.7Z" fill="#01686F"/>
<path d="M190.2 346.9C189.3 345.8 189.1 344.4 189 343.1C188.2 336.5 189.4 330.1 191.2 323.8C191.9 321.2 192.8 318.6 193.7 316C193.8 315.8 193.9 315.6 194.1 315.5C193.6 317.4 193 319.3 192.5 321.2C191.4 325.1 190.3 328.9 189.8 332.9C189.3 337.5 188.9 342.1 190.3 346.7C190.3 346.7 190.3 346.8 190.2 346.9Z" fill="#01686F"/>
<path d="M234.8 308.3C234.8 308.3 234.8 308.2 234.9 308.2C241.3 302 248.1 296.4 256 292.1C258.3 290.9 260.8 290.2 263.2 289.2C263.3 289.1 263.5 289.2 263.7 289.3C263.5 289.4 263.3 289.6 263.1 289.6C256.1 291.9 250.1 295.9 244.4 300.4C242.8 301.7 241.1 303 239.5 304.3C238.1 305.5 236.8 306.7 235.5 307.9C235.3 308.1 235 308.2 234.8 308.3Z" fill="#01686F"/>
<path d="M221.4 287.3C221.4 288.4 221.5 289.5 221.4 290.6C221 294.9 220.1 299 218.9 303.2C217.5 307.9 216 312.6 214.2 317.2C214 317.6 213.8 318.1 213.6 318.5C215.2 313.4 216.9 308.3 218.4 303.1C219.9 298 220.9 292.7 221.1 287.3C221.2 287.3 221.3 287.3 221.4 287.3Z" fill="#01686F"/>
<path d="M215.4 329.7C209.3 336.8 203.4 343.9 200.8 353.1C200.7 353.1 200.6 353 200.5 353C200.8 352 201 351 201.3 350.1C203.3 344.8 206.2 340.1 209.8 335.8C211.6 333.7 213.3 331.6 215.1 329.5C215.2 329.6 215.3 329.6 215.4 329.7Z" fill="#01686F"/>
<path d="M237.8 294.2C233.8 300.7 230.1 307.4 224.6 312.8C224.5 312.7 224.4 312.6 224.3 312.6C225.9 310.7 227.6 308.8 229.1 306.9C230.7 304.8 232.1 302.7 233.5 300.5C234.9 298.4 236.3 296.3 237.7 294.2C237.7 294.1 237.8 294.1 237.8 294.2Z" fill="#01686F"/>
<path d="M211.1 250.5C209.6 253.8 208.1 256.8 206.8 259.9C205.5 263 204.5 266.3 203.5 269.1C203.8 264.9 208.6 252.4 211.1 250.5Z" fill="#01686F"/>
<path d="M243.8 311.1C235.9 316.7 228 322.4 221.3 329.5C222.6 326.9 234.4 317.2 243.8 311.1Z" fill="#01686F"/>
<path d="M232.9 293C236 286.1 239.5 279.4 241.5 272.1C241.6 272.1 241.7 272.1 241.8 272.1C241.8 272.5 241.8 272.9 241.6 273.3C240.6 276 239.8 278.8 238.7 281.5C237 285.4 235.1 289.2 233.2 293.1C233.1 293.1 233 293.1 232.9 293Z" fill="#01686F"/>
<path d="M215.2 266.7C216.4 268.8 212.9 284.1 211.1 287.8C211.7 285.5 212.3 283.3 212.7 281C213.5 277.3 214.2 273.6 214.9 270C215.2 268.9 215.1 267.8 215.2 266.7Z" fill="#01686F"/>
<path d="M189 319.2C188.9 318.9 188.8 318.5 188.8 318.2C188.7 315.1 187.7 312.2 186.4 309.4C185.2 306.8 183.9 304.2 182.7 301.6C182.6 301.4 182.5 301.2 182.5 301C184.5 303.6 185.7 306.7 187.1 309.7C188.5 312.7 189.5 315.8 189.3 319.2C189.3 319.2 189.2 319.2 189 319.2Z" fill="#01686F"/>
<path d="M177 286.6C182.9 291.1 186.4 297.4 189.3 304.1C187.5 301 185.7 297.9 183.8 294.9C182 291.8 179.5 289.1 177 286.6Z" fill="#01686F"/>
<path d="M274.1 319.7C266.2 324.1 258 327.4 249.7 330.5C257.8 327 265.9 323.4 274.1 319.7Z" fill="#01686F"/>
<path d="M268.2 304.2C266.9 306.9 265 309 262.8 311.1C259.9 313.9 256.6 316.2 253.2 318.4C252.9 318.6 252.5 318.8 252.1 318.9C258.1 314.6 264.1 310.4 268.2 304.2Z" fill="#01686F"/>
<path d="M233.8 335.9C240.8 331 247.9 326.3 256.1 323.6C248.1 326.7 241 331.4 233.8 335.9Z" fill="#01686F"/>
<path d="M255.5 303.9C256 303.5 256.6 303.1 257.1 302.7C260.6 300.5 264.1 298.3 267.6 296.2C268.2 295.8 268.9 295.4 269.8 295.6C265 298.4 260.3 301.2 255.6 304C255.6 304 255.6 303.9 255.5 303.9Z" fill="#01686F"/>
<path d="M192.7 351.7C192.5 351.4 192.3 351 192.1 350.7C191.1 348.5 190.7 346.2 190.7 343.8C190.7 340.6 191 337.5 191.6 334.4C191.7 334.1 191.8 333.8 192 333.2C191.9 334.5 191.8 335.5 191.7 336.5C191.5 338.7 191.3 341 191.2 343.2C191.1 345.8 191.6 348.3 192.6 350.7C192.7 351 192.8 351.3 192.9 351.6C192.9 351.6 192.8 351.7 192.7 351.7Z" fill="#01686F"/>
<path d="M234.7 269.4C234.4 269.7 233.9 270 233.7 270.3C232.7 271.9 231.7 273.5 230.9 275.1C229.7 277.8 228.6 280.5 227.4 283.2C227.3 283.4 227.2 283.7 227 284C227.4 280 232.2 270.2 234.6 268.4C234.6 268.7 234.7 268.9 234.7 269.1C234.7 269.3 234.7 269.4 234.7 269.4Z" fill="#01686F"/>
<path d="M203.6 336.2C205.8 331 207.9 325.8 210.2 320.5C209.9 322.9 205 335 203.6 336.2Z" fill="#01686F"/>
<path d="M267.3 315C269.2 314.2 271 313.5 272.9 312.8C274.4 312.2 275.9 311.4 277.5 311.1C279.9 310.7 282.1 309.6 284.6 309.9C284.6 309.9 284.7 310 284.8 310.1C284.3 310.2 283.9 310.3 283.5 310.4C282.2 310.6 280.9 310.6 279.7 311C277.3 311.7 275 312.6 272.7 313.4C271 314 269.2 314.6 267.5 315.3C267.4 315.2 267.3 315.1 267.3 315Z" fill="#01686F"/>
<path d="M210.8 297.4C208.8 303.4 206.7 309.3 204.1 315.1C206.2 309.2 208.3 303.2 210.5 297.3C210.6 297.4 210.7 297.4 210.8 297.4Z" fill="#01686F"/>
<path d="M265.8 330.5C270.3 328.1 274.8 325.7 279.3 323.3C278.2 325 269.9 329.4 265.8 330.5Z" fill="#01686F"/>
<path d="M234.5 302C237.5 297.2 240.7 292.6 242.6 287.1C242.8 287.7 242.6 288.2 242.4 288.6C241.5 290.5 240.7 292.5 239.7 294.3C238.2 297.1 236.5 299.6 234.5 302Z" fill="#01686F"/>
<path d="M241.3 320C236.5 323.7 231.9 327.4 227.6 332.1C228.5 329.9 236.9 322.6 241.3 320Z" fill="#01686F"/>
<path d="M234.7 269.4C234.7 269.4 234.8 269.3 234.8 269.2C235.2 268.6 235.7 268.1 236.1 267.5C236.2 267.5 236.3 267.6 236.3 267.6C236.1 268 236 268.4 235.7 268.8C234.2 271.4 232.8 274 231.3 276.6C230.9 277.3 230.6 278 230.1 278.6C230.4 277.9 230.6 277.1 231 276.4C232 274.4 233 272.5 234 270.6C234.3 270.2 234.5 269.8 234.7 269.4Z" fill="#01686F"/>
<path d="M285.5 315.1C285.2 315.4 284.9 315.8 284.6 316C281.1 318 277.5 320 274 322C274 322 273.9 322 273.9 321.9C277.8 319.6 281.6 317.3 285.5 315.1Z" fill="#01686F"/>
<path d="M186.9 305.3C188.8 308 190.8 314.9 190.3 317.3C189.8 315 189.5 313 189 311.1C188.4 309.1 187.6 307.2 186.9 305.3Z" fill="#01686F"/>
<path d="M259.8 294.1C262.7 292 265.7 290.2 268.9 288.8C269 288.9 269 289 269.1 289.1C266 290.8 262.9 292.5 259.8 294.1Z" fill="#01686F"/>
<path d="M212.6 251C211.1 253.9 209.6 256.7 208.2 259.6C209 256.4 210.7 253.6 212.2 250.7C212.3 250.9 212.4 251 212.6 251Z" fill="#01686F"/>
<path d="M263.5 300.9C265.4 299.2 269.5 297 270.8 297.1C268.2 298.4 265.9 299.6 263.5 300.9Z" fill="#01686F"/>
<path d="M285.1 311.2C282.3 311.9 279.4 312.7 276.6 313.4C276.6 313.3 276.6 313.3 276.5 313.2C277.8 312.8 279.2 312.4 280.5 311.9C281.5 311.6 282.4 311.2 283.4 311C283.9 310.9 284.5 311 285 311C285.1 311.1 285.1 311.2 285.1 311.2Z" fill="#01686F"/>
<path d="M270.7 329.6C272.5 328.5 274.4 327.5 276.2 326.4C276.3 326.5 276.3 326.6 276.4 326.7C274.7 328 272.7 328.9 270.8 329.8C270.8 329.8 270.7 329.7 270.7 329.6Z" fill="#01686F"/>
<path d="M206.1 338.8C207.4 336.9 208.8 335.1 210.1 333.2C210.2 333.3 210.2 333.3 210.3 333.4C209 335.3 207.6 337.1 206.3 339C206.3 338.9 206.2 338.8 206.1 338.8Z" fill="#01686F"/>
<path d="M269.7 290C268.2 290.7 266.8 291.5 265.3 292.2C266.6 291.1 268 290.2 269.5 289.7C269.6 289.9 269.7 289.9 269.7 290Z" fill="#01686F"/>
<path d="M217.9 327C217.3 327.6 216.7 328.3 216.1 328.9C216.7 328.3 217.4 327.7 218 327.1C217.9 327 217.9 327 217.9 327Z" fill="#01686F"/>
<path d="M234.8 308.3C234.2 309 233.6 309.6 233 310.3C232.9 310.2 232.8 310.1 232.7 310C233.4 309.4 234.1 308.8 234.8 308.3Z" fill="#01686F"/>
<path d="M181.7 422.7C181.7 422.2 181.6 421.8 181.6 421.3C181.5 414.7 181.5 408.1 181.3 401.5C181.1 394.9 181.9 388.5 183.8 382.1C184.7 379 186.3 376.1 188.1 373.4C188.4 372.9 188.9 372.5 189.2 372C191.2 369.2 192.7 366 193.6 362.7C194 361.5 194.6 360.3 195.1 359.1C195.2 358.8 195.5 358.6 195.6 358.3C195.7 358.3 195.8 358.4 195.9 358.4C195.8 358.8 195.8 359.2 195.6 359.5C194.7 361.9 193.6 364.2 192.8 366.6C191.9 369.4 190.3 371.6 188.7 373.9C187.1 376.2 185.8 378.6 184.9 381.2C183.6 384.9 182.8 388.7 182.4 392.6C182 396.4 181.9 400.2 182.1 404C182.3 409.8 182.3 415.6 182.4 421.4C182.5 422.1 182.7 422.7 181.7 422.7Z" fill="#01686F"/>
<path d="M75.7001 156.1C75.3 155.5 75 155.2 74.7001 154.9C71.8001 151.5 69.4001 147.7 67.4001 143.7C65.4001 139.4 63.6001 135.1 62.8001 130.4C62.4001 127.9 62.4001 125.5 62.8001 123C63.4001 119.3 64.0001 115.6 64.9001 111.9C65.4001 109.9 66.2001 108.1 67.0001 106.2C67.4001 105.4 67.9001 104.6 68.5001 104C69.8001 102.5 71.4001 102.3 73.2001 103.2C74.1001 103.7 74.9001 104.3 75.7001 104.9C77.7001 106.6 79.9001 108 82.2001 109.2C82.5 109.4 82.8 109.5 83.2001 109.7C83.4001 108.6 83.6001 107.6 83.8001 106.6C84.9001 102.2 86.8001 98.2999 89.8001 94.9999C92.1001 92.4999 95.1001 91.1999 98.5001 90.7999C100 90.5999 101.5 90.3999 103 90.1999C106.1 89.7999 109.1 89.8999 112.1 90.7999C112.5 90.8999 112.9 91.0999 113.3 91.2999C117.8 93.3999 121 96.6999 123.2 101C123.8 102.2 124.4 103.5 124.8 104.8C125.2 106.1 125.5 107.4 125.8 108.8C126.1 108.4 126.4 108 126.7 107.6C128.1 105.7 129.6 103.9 131.4 102.5C132.8 101.4 134.3 100.6 136.1 100.6C136.9 100.6 137.6 100.8 138 101.8C138.4 101.4 138.7 101 139 100.7C139.8 99.7999 140.7 99.4999 141.9 99.7999C144.4 100.4 146 101.9 147.1 104.1C147.9 105.7 148.2 107.5 148.4 109.2C148.9 114.1 148.7 119.1 148.4 124C148 129.6 146.4 135 144.3 140.2C142 146 139 151.3 134.9 156C133.3 157.8 131.4 159.4 129.7 161.1C129.4 161.4 129.1 161.6 128.6 162.1C129.2 162 129.4 162 129.7 161.9C134.1 160.4 138.3 158.8 142.4 156.6C143.3 156.1 143.9 155.5 144.4 154.6C145.9 151.9 147.3 149.2 149.4 147C150.8 145.5 152.3 143.8 153.9 142.5C156.3 140.6 159.1 140 162.1 140.3C163.4 140.4 164.2 141.3 164.7 142.6C165.3 144.2 165.3 145.8 164.8 147.3C164.4 148.6 164 150 163.3 151.2C159.6 157 155.9 162.8 151.5 168.2C149.7 170.4 147.6 172.2 145.3 173.9C141 177.1 136.1 178.6 130.7 178.8C125.6 179 120.7 178 116.1 175.8C115.8 175.7 115.5 175.5 115.3 175.4C115.2 175.4 115.1 175.4 115 175.4C115 175.6 115 175.8 115 176C115.8 179.5 115.1 182.7 113.2 185.7C111.5 188.5 109.1 190.7 106.4 192.4C104.2 193.8 101.9 195 99.7001 196.3C97.4001 197.6 94.9001 197.6 92.4001 197C90.9001 196.7 89.4001 196.1 88.0001 195.6C86.4001 195 84.8 194.3 83.2001 193.5C82 192.9 80.7001 192.2 79.6001 191.5C77.2001 189.9 76.5 187.8 77.2001 184.5C77.6001 182.7 78.7001 181.2 80.1001 180.1C81.6001 179 83.2001 178 84.7001 177C85 176.8 85.4001 176.6 85.8001 176.1C85.4001 176.1 84.9001 176 84.5001 176C81.5001 176.1 78.6001 175.8 75.8001 174.9C72.3001 173.9 68.7001 172.8 65.2001 171.5C59.9001 169.6 54.4001 168 48.9001 166.7C47.4001 166.3 45.8001 165.8 44.4001 165.2C43.7001 164.9 42.9001 164.4 42.4001 163.9C41.4001 163 41.4001 161.9 42.5001 161.1C43.3001 160.5 44.2001 160 45.2001 159.6C47.8001 158.6 50.4001 157.8 53.0001 156.7C57.3001 154.9 61.7001 154.2 66.3001 154.5C69.0001 154.6 71.6 155 74.2001 155.7C74.6001 155.9 75 155.9 75.7001 156.1ZM107.9 167.6C109 164.9 109.5 162 109.6 159.1C109.8 155.9 109.6 152.7 109.1 149.5C108.6 146.2 108 142.8 106.9 139.6C105.5 135.6 103.4 131.9 101.1 128.3C96.4001 121 90.7001 114.9 83.2001 110.5C80.1001 108.6 77.0001 106.7 74.1001 104.5C71.6001 102.5 70.0001 102.6 68.0001 105.6C67.8001 105.9 67.6001 106.3 67.4001 106.6C66.8001 108.1 66.1001 109.5 65.7001 111.1C64.9001 114.7 64.2001 118.4 63.5001 122C62.9001 125.3 62.9001 128.5 63.7001 131.8C65.4001 138.8 68.5001 145.2 72.6001 151.1C76.7001 156.9 81.8001 161.4 88.3001 164.3C92.9001 166.3 97.7001 167.5 102.7 167.8C104.7 168 106.3 168.2 107.9 167.6ZM137.3 101.6C135.7 101 134 101.5 133.1 102.8C131.6 104.8 130.7 107.1 129.7 109.4C128 113.7 125.7 117.7 122.7 121.2C120.8 123.4 118.6 125.4 116.5 127.5C115.2 128.8 114.1 130.1 113.3 131.7C111.1 136.2 110.1 140.9 109.9 145.9C109.8 148.7 110.2 151.4 110.3 154.2C110.5 158.6 110.2 162.9 108.8 167C108.7 167.3 108.7 167.6 108.7 167.9C110.4 168.5 112 168.3 113.6 168C121.7 166.4 128.3 162.2 133.8 156.2C137.7 152 140.6 147 142.9 141.8C146.3 134.3 148 126.5 148 118.3C148 115.3 148 112.3 147.7 109.3C147.6 107.8 147.2 106.2 146.6 104.8C145.8 102.8 144.4 101.3 142.2 100.6C140.8 100.2 140.2 100.3 139.3 101.5C138.6 102.4 138.1 103.4 137.4 104.3C137.2 104.6 136.9 104.9 136.7 105.2C136.6 105.1 136.5 105.1 136.4 105C136.5 103.8 137.7 102.8 137.3 101.6ZM109 144.5C109.1 144.5 109.2 144.5 109.3 144.5C109.5 142.8 109.7 141.1 110.1 139.4C111.5 131.6 114.8 124.6 119.6 118.3C121.4 115.9 123.1 113.4 124.9 110.9C125.2 110.4 125.4 109.8 125.4 109.2C125.4 108.5 125.2 107.8 125.1 107.2C124 102.1 121.2 97.8999 117.3 94.3999C115.7 92.8999 113.7 91.9999 111.6 91.3999C108.8 90.5999 106 90.4999 103.1 90.9999C101.6 91.1999 100.2 91.3999 98.7001 91.5999C95.6001 91.9999 92.8001 92.9999 90.6001 95.4999C87.5001 99.0999 85.5001 103.2 84.5001 107.8C84.3001 108.6 84.3 109.5 84.2001 110.3C84.7001 110.7 85.1001 110.9 85.5001 111.2C90.2001 114.3 94.4001 117.9 97.8001 122.5C99.5001 124.7 101.1 126.9 102.6 129.2C105.2 133.3 107.2 137.6 108.5 142.3C108.7 142.9 108.8 143.7 109 144.5ZM101.1 191.7C101.5 191.7 101.9 191.6 102.3 191.6C105.3 191.2 107.9 189.8 110.2 188C113.3 185.7 114.7 182.4 114.8 178.7C114.8 174.8 112.8 171.7 109.8 169.3C108.7 168.4 106.6 168.4 105.7 169.2C104.1 170.8 102 171.6 100.1 172.6C97.6001 173.9 94.9001 174.6 92.2001 175.4C91 175.7 89.7001 175.7 88.5001 176.2C85.8001 177.3 83.2001 178.7 80.9001 180.6C79.6001 181.7 78.4001 183.1 78.0001 184.8C77.5001 186.9 77.7001 188.8 79.5001 190.3C81.8001 192.2 84.3001 192.8 87.1001 192.4C88.8001 192.2 90.4001 191.7 92.0001 191.3C93.5001 190.9 95.1001 190.8 96.6001 191.1C98.2001 191.3 99.7001 191.5 101.1 191.7ZM123.4 177.3C123.8 177.4 124.2 177.5 124.6 177.6C126.9 178 129.2 178 131.6 177.9C136.2 177.7 140.4 176.3 144.2 173.7C147.9 171.2 150.9 168.1 153.5 164.5C156 161 158.4 157.5 160.7 154C161.7 152.6 162.7 151.1 163.4 149.6C164.4 147.5 165.1 145.2 164.2 142.8C163.7 141.3 163 140.8 161.4 140.8C158.9 140.8 156.6 141.4 154.6 143C151.4 145.6 148.7 148.6 146.7 152.2C145.2 154.8 143.9 157.5 142.5 160.1C141 163.2 139 166 136.8 168.6C134.5 171.2 132 173.4 129 175.1C127.3 176.3 125.4 176.8 123.4 177.3ZM104.7 168.9C102.1 168.6 99.6001 168.4 97.2001 167.9C90.3 166.5 84.1001 163.7 78.9001 159C77.3001 157.6 75.6001 156.8 73.6001 156.2C72.9001 156 72.2001 155.9 71.6001 155.8C67.7001 155 64.0001 155.4 60.5001 157.2C59.6001 157.6 58.8001 158.2 57.9001 158.6C56.2001 159.3 54.5001 160.1 52.7001 160.6C51.2001 161 49.6001 160.8 48.0001 161C46.8001 161.1 45.5001 161.3 44.3001 161.5C43.5001 161.6 43.0001 162.1 42.6001 162.9C43.4001 164.1 44.5001 164.9 46.1001 165C50.3001 165.2 54.4001 164.3 58.6001 163.5C62.8001 162.7 67.0001 162.8 70.9001 164.6C73.5001 165.7 76.0001 167 78.5001 168.2C81.2001 169.5 83.9001 170.9 86.7001 172.1C89.9001 173.4 93.2001 173.8 96.6001 173C99.3001 172.3 101.7 171 104.1 169.6C104.2 169.4 104.4 169.2 104.7 168.9ZM111.2 169.2C112 170.2 112.8 171.2 113.5 172.3C114.2 173.4 114.6 174.7 116.2 174.7C116.3 174.7 116.4 174.9 116.5 175C118.2 175.9 120 176.6 121.9 176.6C124.7 176.5 127.2 175.6 129.5 174.1C131.1 173 132.6 171.9 134 170.6C137.6 167.2 140.3 163.2 142.4 158.8C142.6 158.4 142.8 157.9 143.1 157.2C142.6 157.4 142.4 157.5 142.1 157.6C139.8 158.6 137.5 159.7 135.2 160.6C132.9 161.5 130.6 162.3 128.3 162.9C127.2 163.2 126.2 163.6 125.2 164.2C122.4 166 119.4 167.3 116.2 168.1C114.7 168.4 112.9 168.8 111.2 169.2ZM48.1001 165.6C48.1001 165.7 48.1001 165.7 48.0001 165.8C48.1001 165.9 48.2001 165.9 48.3001 166C48.6001 166.1 48.9001 166.2 49.2001 166.2C54.9001 167.5 60.6001 169.1 66.1001 171.2C69.1001 172.3 72.1001 173.2 75.1001 174.1C76.2001 174.4 77.4001 174.3 78.4001 174.7C79.4001 175.1 80.5001 175.2 81.5001 175.3C83.4001 175.4 85.2001 175.5 87.1001 175.3C88.9001 175.2 90.7001 174.8 92.5001 174.5C92.8001 174.5 93 174.3 93.2001 174.2C91.7001 174 90.2001 173.8 88.8001 173.5C85.8001 172.9 83.0001 171.4 80.3001 170.1C76.8001 168.4 73.4001 166.6 69.8001 165C66.5001 163.6 63.1001 163.3 59.5001 164C57.1001 164.5 54.7001 164.8 52.3001 165.2C51.0001 165.4 49.5001 165.5 48.1001 165.6ZM85.0001 193.3C86.9001 194.5 90.9001 196 92.8001 196.4C95.7001 197 98.4001 196.6 100.8 194.9C101.3 194.6 101.8 194.4 102.3 194.1C103.8 193.2 105.4 192.2 106.9 191.3C106.7 191.1 106.6 191.1 106.5 191.1C103.7 192.4 100.9 192.6 97.9001 192C96.1001 191.6 94.3001 191.4 92.5001 192C90.2001 192.7 87.8001 193.2 85.0001 193.3ZM114.5 128.4C115.9 127 117.4 125.6 118.8 124.1C123.1 120 126.4 115.2 128.7 109.8C129.5 107.9 130.5 106 131.3 104.2C131.3 104.1 131.3 104 131.4 103.6C130.9 104.1 130.5 104.3 130.2 104.7C128.9 106.3 127.6 107.9 126.4 109.6C124.2 112.7 122.1 115.8 119.9 118.8C119.3 119.6 118.7 120.4 118.2 121.2C116.8 123.5 115.4 125.8 114.5 128.4ZM46.0001 160.2V160.3C47.4001 160.3 48.8001 160.3 50.1001 160.1C51.3001 160 52.7001 159.9 53.8001 159.5C56.8001 158.2 59.7001 156.7 62.6001 155.3C61.8001 155.2 60.9001 155.2 60.2001 155.4C58.3001 155.8 56.3001 156.2 54.4001 156.8C51.9001 157.6 49.6001 158.6 47.1001 159.6C46.8001 159.9 46.4001 160 46.0001 160.2Z" fill="#01686F"/>
<path d="M90.7997 166C86.3997 167.3 81.9997 166.3 77.5997 165.8C81.5997 165.7 85.6997 166.7 89.9997 165.7C89.5997 165.4 89.3997 165.2 89.1997 165.1C85.1997 163.1 82.1997 160.1 79.7997 156.4C76.0997 150.6 73.5997 144.3 71.4997 137.7C71.1997 136.8 70.9997 136 70.6997 135.1C70.6997 135 70.6997 134.9 70.7997 134.7C71.2997 136.1 71.6997 137.4 72.1997 138.7C74.2997 144.6 76.5997 150.4 79.9997 155.8C82.4997 159.7 85.5997 162.9 89.7997 165.1C90.1997 165.3 90.4997 165.5 90.8997 165.8C90.7997 165.8 90.7997 165.9 90.7997 166Z" fill="#01686F"/>
<path d="M72.1001 117.7C73.6001 126.8 76.2001 135.6 79.6001 144.2C80.8001 147.3 82.2001 150.3 83.7001 153.3C85.4001 156.7 87.6001 159.6 90.4001 162.1C90.5001 162.2 90.6001 162.3 90.7001 162.5C89.2001 161.3 87.8001 160 86.6001 158.5C84.0001 155.2 82.0001 151.5 80.4001 147.6C77.2001 139.6 74.4001 131.5 72.8001 123C72.5001 121.3 72.3001 119.5 72.1001 117.7Z" fill="#01686F"/>
<path d="M116.7 167.3C128.2 159 136.1 148.2 139.5 134.3C137.9 141.9 135 148.9 130.2 155C126 160.5 119.2 166.7 116.7 167.3Z" fill="#01686F"/>
<path d="M106.6 148.6C108.6 154.5 109.7 160.6 108.9 167.1C114.1 163.4 117.3 158.3 120.7 153.2C119.3 156.9 112.6 166.1 108.3 167.8C108.7 164.5 108.9 161.3 108.4 158.1C107.8 155 107.2 151.8 106.6 148.6Z" fill="#01686F"/>
<path d="M109.6 168.1C109.8 167.9 110 167.8 110.2 167.7C114.5 165.4 117.8 162.1 120.6 158.2C123.5 154.2 125.8 149.8 127.9 145.4C128.1 145 128.3 144.7 128.6 144.3C125.5 152 121.8 159.2 115.4 164.8C113.9 166.1 112.1 167 110.4 168.1C110.2 168.2 110 168.2 109.8 168.3C109.8 168.2 109.7 168.1 109.6 168.1Z" fill="#01686F"/>
<path d="M90 131.7C94.8 141.3 98.2 151.5 101.6 161.6C97.8 151.6 94.2 141.5 90 131.7Z" fill="#01686F"/>
<path d="M103.9 130.3C103.4 128.8 103 127.3 102.4 125.8C101 122.5 100.2 119 99.7 115.5C99.3 112.6 99.1 109.8 98.8 106.9C98.6 105.3 98.6 103.6 98.7 101.9C98.8 102.1 98.9 102.4 99 102.6C99.1 103.8 99.2 105 99.3 106.2C99.6 111.2 100.2 116.1 101.4 120.9C102.1 123.9 103.2 126.8 104.1 129.7C104.1 129.8 104.2 130 104.2 130.2C104 130.2 104 130.2 103.9 130.3Z" fill="#01686F"/>
<path d="M87.6997 113C90.2997 114.8 98.2997 132.3 99.1997 137.5C97.4997 133.4 95.6997 129.2 93.9997 125C92.0997 120.8 89.9997 116.9 87.6997 113Z" fill="#01686F"/>
<path d="M111.4 112.8C112.3 125.4 111.5 136.7 110.1 140.3C109.7 139.1 110.2 138.1 110.3 137.1C110.5 135 110.9 132.9 111 130.8C111.2 124.7 111.3 118.6 111.4 112.8Z" fill="#01686F"/>
<path d="M109.7 159.6C111.2 151.3 113.7 143.3 117 135.6C115.7 139.6 114.4 143.5 113.2 147.6C112 151.6 111 155.7 110 159.8C109.9 159.6 109.8 159.6 109.7 159.6Z" fill="#01686F"/>
<path d="M110.2 152C111.5 143.6 115.1 136.1 118.9 128.6C117.3 132.4 115.5 136.2 114.1 140.1C112.6 144 111.5 148 110.2 152Z" fill="#01686F"/>
<path d="M119.7 144.7C122.9 135.8 126.1 127 129.3 118.1C126.9 127.2 123.4 136 119.7 144.7Z" fill="#01686F"/>
<path d="M65.9 110.3C66.1 110.3 66.2 110.3 66.4 110.4C66.4 110.1 66.4 109.8 66.4 109.5C66.4 109.3 66.5 109 66.5 108.8C66.6 108.8 66.7 108.8 66.8 108.8C67.1 111.3 67.3 113.9 67.6 116.4H67.5C67.2 114.7 66.9 113.1 66.5 111.4C66.3 115.7 67 119.8 67.6 124C66.5 121.5 65.4 112.5 65.9 110.3Z" fill="#01686F"/>
<path d="M114.8 92.2C115.1 92.7 115.5 93.2 115.7 93.8C116.7 96.3 117.5 98.8 117.9 101.5C118.3 103.9 118.6 106.4 118.9 108.8C119 110.3 118.9 111.9 118.9 113.3C118.2 106.3 117.6 99.1 114.5 92.4C114.6 92.3 114.7 92.3 114.8 92.2Z" fill="#01686F"/>
<path d="M92.6998 112.3C90.9998 108.8 90.1998 95.3999 91.9998 93.7999C91.8998 95.3999 91.6998 96.8999 91.5998 98.3999C91.4998 99.8999 91.5998 101.4 91.5998 103C91.6998 104.6 91.6998 106.1 91.8998 107.7C92.1998 109.2 92.4998 110.6 92.6998 112.3Z" fill="#01686F"/>
<path d="M67.8998 136.4C65.9998 132.4 63.6998 120.6 64.2998 118C64.7998 121.2 65.2998 124.2 65.7998 127.2C66.4998 130.3 67.1998 133.3 67.8998 136.4Z" fill="#01686F"/>
<path d="M75.6001 104.9C76.4001 107.7 76.6001 110.6 77.3001 113.4C77.9001 116.3 78.5001 119.1 79.1001 121.9C77.7001 119.3 75.1001 106.8 75.6001 104.9Z" fill="#01686F"/>
<path d="M82.1999 161.4C75.9999 160.1 69.5999 160 63.3999 159.2C69.6999 159.3 76.0999 159.6 82.1999 161.4Z" fill="#01686F"/>
<path d="M133.1 118.4C134.2 113.4 135.7 108.4 137 103.4C137.5 104.7 134.4 116.1 133.1 118.4Z" fill="#01686F"/>
<path d="M132.4 169.6C126.8 170.3 121.2 169.9 115.8 168.1C115.8 168 115.8 167.9 115.8 167.8C116.1 167.8 116.4 167.7 116.7 167.8C121.2 169.2 125.9 169.5 130.7 169.7C131.2 169.8 131.8 169.7 132.4 169.6Z" fill="#01686F"/>
<path d="M135.3 130.3C136.8 123.2 138.4 116.1 139.9 109.1C138.8 116.2 137.3 123.4 135.3 130.3Z" fill="#01686F"/>
<path d="M100.7 182C102.5 177.8 104.1 173.5 105.1 168.8C105.6 169.3 105.5 169.8 105.4 170.2C104.6 173.7 103.3 177 101.8 180.3C101.6 181 101.1 181.5 100.7 182Z" fill="#01686F"/>
<path d="M138.4 144C139.8 140.7 141 137.4 141.7 133.9C142.5 130.4 142.9 126.8 142.8 123.2C143.8 127.9 141.5 138.9 138.4 144Z" fill="#01686F"/>
<path d="M109.3 178.8C109.6 183.2 107.9 189.7 106.1 190.7C106.2 190.4 106.3 190.2 106.4 190C106.9 188.8 107.5 187.5 107.8 186.3C108.4 183.7 108.8 181.2 109.3 178.8Z" fill="#01686F"/>
<path d="M112.1 133.4C112.6 128.8 113.1 124.4 113.5 120.4C113.8 124.8 113.1 131.6 112.1 133.4Z" fill="#01686F"/>
<path d="M95.6 174.1C94.3 175.5 92.9 176.9 91.6 178.4C90.3 179.9 89.2 181.5 88 183.1C88.6 180.9 93.1 175.4 95.6 174.1Z" fill="#01686F"/>
<path d="M102.2 99.3C101.9 97.3 101.6 95.3 101.5 93.3C101.4 92 101.5 92 102.1 90.6H102.2L102.3 90.7C102.3 93.6 102.3 96.4 102.2 99.3Z" fill="#01686F"/>
<path d="M92.3997 166.8C88.6997 168.5 84.6997 168.9 80.6997 168.9C84.5997 168.3 88.5997 168.1 92.3997 166.8Z" fill="#01686F"/>
<path d="M112.5 180.7C112.4 178.4 112.4 176.2 111.6 174C110.8 171.9 109.8 169.9 108 168.5C108.8 168.5 109.3 169 109.7 169.5C111.3 171.5 112.2 173.8 112.5 176.3C112.6 177.7 112.5 179.2 112.5 180.7Z" fill="#01686F"/>
<path d="M121.1 172.2C124.5 172.9 128 173.2 131.6 172.9C130 174.1 123.6 173.7 121.1 172.2Z" fill="#01686F"/>
<path d="M83.8997 192C82.6997 190.8 83.6997 185.7 85.7997 182.7C85.2997 184.2 84.7997 185.5 84.4997 186.9C84.0997 188.5 83.5997 190.1 83.9997 191.9C83.9997 191.8 83.8997 191.9 83.8997 192Z" fill="#01686F"/>
<path d="M141 161.9C138.1 163.7 134.9 164.4 131.7 164.8C134.8 163.8 137.9 162.9 141 161.9Z" fill="#01686F"/>
<path d="M93.3 93.2999C93.1 96.7999 92.9 100.2 92.7 103.6C92.3 100.2 92.4 96.7999 93 93.2999C93 93.2999 93.1 93.2999 93.3 93.2999Z" fill="#01686F"/>
<path d="M91.9998 116.3C93.8998 119 95.0998 122.1 96.1998 125.3C94.6998 122.4 93.2998 119.4 91.7998 116.5C91.8998 116.4 91.9998 116.4 91.9998 116.3Z" fill="#01686F"/>
<path d="M88.8999 173C92.6999 172.7 95.7999 171 98.2999 167.7C97.0999 170.8 92.8999 173.1 88.8999 173Z" fill="#01686F"/>
<path d="M78.7999 115.2C77.8999 112.2 77.2999 109.4 76.8999 106.3C77.5999 107.1 78.5999 112 78.7999 115.2Z" fill="#01686F"/>
<path d="M91.7998 141.6C93.5998 144.8 94.5998 148.4 96.0998 151.7C95.9998 151.7 95.8998 151.8 95.7998 151.8C94.4998 148.4 93.1998 145 91.7998 141.6Z" fill="#01686F"/>
<path d="M127 168.5C124.1 168.6 121.2 168.4 118.4 167.7C118.4 167.6 118.4 167.5 118.4 167.4C121.3 167.8 124.1 168.1 127 168.5Z" fill="#01686F"/>
<path d="M108.3 189.5C109.3 187.1 109.8 184.7 110 181.9C110.3 184.8 109.9 187.3 108.3 189.5Z" fill="#01686F"/>
<path d="M101.5 176.7C102.2 174.6 102.9 172.6 103.6 170.5C103.7 170.5 103.8 170.6 103.9 170.6C103.5 172.7 102.7 174.7 101.5 176.7Z" fill="#01686F"/>
<path d="M88.2999 169.9C86.6999 170.7 84.8999 171.2 82.9999 171.1C82.9999 171 82.9999 170.9 82.8999 170.8C84.7999 170.5 86.4999 170.2 88.2999 169.9Z" fill="#01686F"/>
<path d="M82.2 192C81.4 190.7 81.6 189.5 82.2 188C82.2 189.5 82.2 190.8 82.2 192Z" fill="#01686F"/>
<path d="M139.6 164.2C138.4 164.7 137.2 165 135.8 165C137 164.6 138.3 164.3 139.5 163.9C139.6 164 139.6 164.1 139.6 164.2Z" fill="#01686F"/>
<path d="M117.5 422.6C117.5 419.1 117.4 415.6 117.4 412.1C117.4 407.3 117.4 402.6 117.3 397.8C117.2 392.9 116.9 388.1 116.6 383.3C116.4 379.9 116.2 376.5 116 373C115.8 369.9 115.6 366.9 115.3 363.8C115.1 361.2 114.9 358.6 114.7 356C114.3 352 113.9 348.1 113.5 344.1C113.4 342.9 113.2 341.8 113 340.6C112.3 337 111.4 333.4 110.7 329.7C109.6 324.1 108.5 318.5 107.7 312.8C106.7 305.6 106.3 298.3 106.6 291C106.9 284.3 107.9 277.8 109.2 271.2C110.2 266.2 110.9 261.2 111.8 256.2C112 254.8 112 253.3 112.3 252C113.3 247.4 113.3 242.7 113.6 238C114.3 226.6 114.1 215.1 114 203.7C114 199.5 113.9 195.4 113.8 191.2C113.8 189.1 113.6 187 113.6 185C113.6 184.4 113.8 183.9 113.9 183.3C114 183.3 114.1 183.3 114.2 183.3C114.2 183.4 114.3 183.5 114.3 183.6C114.5 196 114.7 208.5 114.8 220.9C114.8 227.1 114.6 233.2 114.3 239.4C114.1 244.1 113.5 248.7 113.1 253.4C113 254.4 113.1 255.5 112.7 256.5C112 258.4 112 260.5 111.6 262.5C110.5 268.1 109.4 273.6 108.4 279.2C107.9 281.8 107.8 284.4 107.5 287.1C107 292.3 107.1 297.5 107.3 302.7C107.4 305.9 107.9 309.2 108.2 312.4C109 319.9 110.6 327.3 112.2 334.6C112.9 337.5 113.4 340.4 113.8 343.4C114.2 346.1 114.5 348.8 114.7 351.5C115.1 355.2 115.4 358.9 115.7 362.6C115.9 365.5 116.1 368.4 116.3 371.3C116.5 374.9 116.8 378.6 117 382.2C117.2 386 117.5 389.7 117.6 393.5C117.8 402.7 117.8 411.9 117.9 421.1C117.9 421.7 117.9 422.2 118 422.8C117.8 422.6 117.6 422.6 117.5 422.6Z" fill="#01686F"/>
<path d="M200.6 232.5C196.6 226.2 194.3 219.4 192 212.6C189.2 204.5 186.5 196.3 183.7 188.1C182.7 185.1 181.9 182.1 181.6 179C181.5 177.9 181.6 176.7 181.9 175.5C182.3 174.1 183.4 173.6 184.7 174.3C185.5 174.7 186.3 175.2 187 175.8C188.5 177.3 189.9 178.9 191.4 180.4C191.7 180.7 191.9 181 192.3 181.5C192.7 180.5 192.1 179.4 193.1 178.7C194.5 178.6 195.9 178.9 197.2 179.4C203.7 181.5 208.2 185.9 211.3 191.9C211.5 192.3 211.7 192.7 212 193.3C212.2 192.3 212.4 191.6 212.6 191C213.4 188.5 214.2 186 215.1 183.5C217.5 177.5 221.4 172.7 226.8 169.1C228.2 168.1 229.8 167.4 231.6 167.3C232.7 167.3 233.7 167.5 234.6 168C235 168.2 235.5 168.4 235.8 168.7C238.4 170.6 241 172.4 243.6 174.3C246.8 176.8 248.4 180.1 248.3 184.2C248.3 185.9 248.1 187.6 248 189.3C248.4 189.1 248.7 189 249.1 188.8C253.1 186.7 257.3 185.6 261.7 185.1C262.6 185 263.6 184.7 264.5 185.1C264.9 185.3 265.3 185.6 265.7 185.8C265.6 186.3 265.6 186.6 265.5 187.2C266.1 186.9 266.5 186.7 266.9 186.4C269.4 184.9 272.2 184.3 275.1 184.2C278.5 184.2 281.6 186.9 282.2 190.2C282.5 191.8 282.3 193.4 282.1 195C281.2 200.6 280.1 206.2 278.4 211.6C276 218.9 272.7 225.8 267.6 231.7C267.5 231.9 267.3 232 267.2 232.2C267.2 232.2 267.2 232.3 267.1 232.5C267.5 232.5 267.8 232.4 268.2 232.4C271.1 231.8 273.9 232.1 276.6 233.1C280.1 234.4 283.3 236.4 286.2 238.7C288.5 240.5 290.8 242 293.4 243.4C294.6 244 295.7 244.7 296.8 245.5C297.7 246.1 298.4 247 298.1 248.2C297.8 249.2 296.8 249.8 295.4 249.7C294 249.6 292.7 249.3 291.3 249C287 247.9 282.7 246.5 278.4 245.5C274.3 244.5 270.2 244 266 243.7C258.8 243.2 251.8 244.3 244.7 245.7C241.7 246.3 238.7 246.9 235.6 246.9C232.5 247 229.7 248 227.2 249.7C225.4 251 224.3 252.8 224.1 255C224 255.5 223.9 256 223.7 256.8C223.1 255.1 222.6 253.7 222.1 252.3C220.9 249.1 218.5 246.9 215.6 245.4C214.8 245 213.8 245 213 245C209 245.1 205.1 246.1 201.4 247.6C197.5 249.1 193.6 250.8 189.8 252.4C187 253.6 184.2 254.5 181.2 254.9C178.9 255.2 176.6 255.1 174.4 254.4C170.8 253.3 167.1 252.4 163.4 251.3C162.5 251.1 161.6 250.8 160.8 250.4C158.1 249 156.4 245.4 159 242.2C160.2 240.7 161.6 239.5 163.3 238.7C166.8 236.9 170.4 235.2 173.8 233.4C176.9 231.8 180.3 230.9 183.7 230.4C189.3 229.6 194.8 229.9 200.1 232.2C200.1 232.4 200.2 232.4 200.6 232.5ZM264.9 186.3C264.2 185.7 263.4 185.6 262.7 185.7C261 186 259.3 186.2 257.6 186.6C252.2 187.7 247.5 190.2 243.1 193.4C235.3 198.9 230.3 206.5 226.9 215.3C224.3 222.2 223.3 229.5 223.6 236.8C223.7 238.6 223.9 240.4 224.2 242.2C224.5 244 225.7 245.2 227.3 245.7C229.1 246.3 231.1 246.6 233.1 246.5C236.3 246.4 239.5 246.1 242.6 245.5C248.5 244.4 253.9 242.3 258.8 238.8C268.4 231.9 274.1 222.3 277.7 211.3C279.4 206.2 280.5 200.9 281.3 195.5C281.6 193.7 281.9 191.9 281.4 190.1C280.6 187.1 277.9 185 274.8 185C272.2 185 269.8 185.6 267.6 186.9C266.6 187.5 265.7 188.1 264.7 188.6C264.4 188.7 264.1 188.8 263.8 188.9C263.7 188.8 263.7 188.7 263.6 188.7C264.1 187.9 264.5 187.1 264.9 186.3ZM193.1 183.2C193 183.3 192.8 183.3 192.7 183.4C192.4 183.1 192.1 182.7 191.8 182.4C190.3 180.7 188.9 178.9 187.4 177.3C186.6 176.4 185.6 175.7 184.5 175.1C183.5 174.5 182.7 174.8 182.4 175.9C182.2 177 182.1 178.2 182.2 179.4C182.5 182.3 183.3 185.2 184.3 187.9C186.5 194.2 188.8 200.4 190.9 206.8C192.8 212.6 194.7 218.4 196.9 224.1C200 231.7 204.9 237.7 212 241.8C214.1 243 216.2 244.2 218.7 244.6C219.7 244.8 220.7 244.8 221.7 244.6C222.8 244.4 223.2 243.9 223.1 242.8C223.1 242 222.9 241.2 222.7 240.5C221.4 236.4 219.6 232.5 217.8 228.6C214.5 221.8 212.6 214.7 212 207.2C211.7 203.8 211.7 200.3 211.7 196.8C211.7 194.9 211.3 193.3 210.5 191.7C210 190.8 209.5 189.9 208.9 189C205.7 184.5 201.7 181.2 196.3 179.7C195.4 179.5 194.4 179 193.2 179.4C193.1 180.8 193.1 182 193.1 183.2ZM246.9 190C247.6 187.8 247.6 185.7 247.6 183.5C247.5 180.7 246.6 178.2 244.6 176.2C243.4 175 241.8 174 240.4 172.9C239.5 172.2 238.5 171.5 237.6 170.9C236.4 170 235.1 169.2 233.8 168.4C232.7 167.7 231.4 167.7 230.2 168.2C229 168.7 227.9 169.2 226.8 169.9C223.9 171.8 221.6 174.3 219.5 177C216.8 180.6 215.3 184.7 213.9 188.9C212.7 192.4 212.2 196.1 212.3 199.8C212.4 203.5 212.8 207.1 213.2 210.8C213.8 215.4 215 220 216.8 224.3C218.6 228.7 220.6 233 222.5 237.4C222.6 237.5 222.7 237.6 222.8 237.8C222.9 235.3 223 232.9 223.2 230.4C223.4 227.9 223.7 225.4 224.2 223C225 219 226.2 215.2 227.9 211.5C231.8 203.1 237.2 196.2 245.1 191.3C245.6 190.8 246.3 190.4 246.9 190ZM214.7 244.3C214.7 244.2 214.7 244.1 214.7 244.1C214.5 244 214.3 243.8 214 243.7C209.7 241.5 205.8 238.7 202.6 235C202.2 234.5 201.6 234 201 233.7C198.1 232.1 195 231.2 191.7 231C189.1 230.9 186.4 231 183.8 231.3C180.6 231.6 177.6 232.5 174.7 233.9C172.4 235 170.2 236.1 168 237.3C166 238.3 164.1 239.3 162.2 240.6C161.1 241.4 160.1 242.4 159.2 243.5C157.8 245.3 158 247.2 159.5 248.9C160.5 250 161.8 250.5 163.2 250.9C165 251.4 166.9 251.8 168.7 252.3C172.2 253.4 175.5 253.2 178.7 251.4C181.1 250.1 183.3 248.7 185.7 247.3C187.9 246 190.1 244.7 192.4 243.5C195.1 242.2 197.9 241.8 200.9 242.4C203.3 242.9 205.6 243.3 208 243.9C210.2 244.4 212.4 244.4 214.7 244.3ZM297.5 247.9C297.2 246.9 296.5 246.3 295.7 245.8C293.4 244.1 290.7 243.5 287.9 243.2C285.1 242.9 282.5 241.9 280.4 240C279 238.7 277.6 237.5 276.1 236.2C274.7 234.9 273.1 234 271.3 233.5C268.7 232.7 266.4 233.4 264.5 235.2C261.1 238.4 257.3 241.2 253 243.2C252.7 243.3 252.5 243.5 252.2 243.7C253.6 243.8 254.8 243.6 256.1 243.5C258.5 243.3 260.9 243.2 263.2 243.1C265.1 243.1 266.9 243.4 268.8 243.5C272.5 243.8 276.2 244.4 279.8 245.3C283.7 246.3 287.5 247.5 291.4 248.5C292.7 248.8 294 249 295.3 249.2C296.3 249.3 297.1 248.9 297.5 247.9ZM174.5 253.6C176.7 254.6 179 254.6 181.2 254.3C184.4 253.8 187.4 252.7 190.3 251.5C194.4 249.8 198.4 248.1 202.6 246.5C204.4 245.8 206.3 245.4 208.2 244.8C208 244.7 207.8 244.6 207.7 244.5C205.8 244.1 204 243.7 202.1 243.3C199.8 242.8 197.5 242.6 195.3 243.3C193.5 243.9 191.7 244.7 190.1 245.6C187.2 247.3 184.4 249.2 181.4 250.8C179.7 251.8 177.8 252.5 176 253.2C175.6 253.4 175 253.5 174.5 253.6ZM289.7 242.5C288.4 241.5 287.2 240.5 285.9 239.6C284.2 238.4 282.5 237.2 280.7 236.1C278.4 234.7 275.9 233.6 273.1 233.2C273.2 233.3 273.3 233.4 273.4 233.4C275.4 234.2 276.8 235.7 278.4 237.1C279.7 238.3 281.1 239.4 282.5 240.5C284.6 242.1 287.1 242.4 289.7 242.5Z" fill="#01686F"/>
<path d="M223.6 225.8C224.4 224.7 224.6 223.4 224.4 222.1C223.9 220 223.8 217.8 223.7 215.7C223.6 210.4 224 205.2 225 199.9C225.4 197.5 225.9 195.2 226.3 192.8C226.4 192.4 226.5 192.1 226.7 191.8C226.4 193.5 226.1 195.1 225.9 196.8C225.4 199.8 224.9 202.9 224.6 205.9C224.3 208.9 224.2 211.9 224.1 214.8C224.1 216.5 224.2 218.2 224.4 219.9C224.4 220.3 224.6 220.7 224.7 221.1C225.8 218.8 226.7 216.5 227.9 214.4C229.1 212.2 230.5 210.1 232.5 208.5C232.7 208.3 232.9 208.1 233.1 207.8C237.3 203.2 241.9 199.1 246.9 195.4C247.1 195.2 247.4 195 247.6 194.9C247.7 194.9 247.8 194.9 247.9 194.9C245.7 196.8 243.4 198.7 241.2 200.7C238.4 203.3 235.8 206 233.1 208.6C231.5 210.1 230.1 211.7 229 213.6C226.6 217.5 224.8 221.6 224.2 226.2C224.2 226.5 224.2 226.9 224.2 227.2C224 227.3 223.9 227.4 223.9 227.4C223.7 227 223.7 226.4 223.6 225.8Z" fill="#01686F"/>
<path d="M211.4 237.1C209.2 233.5 207.4 229.7 205.9 225.8C204 220.9 202.9 215.8 202 210.6C201.2 206.2 200.6 201.7 199.9 197.3C199.8 196.8 199.7 196.3 199.9 195.7C200.2 197.4 200.6 199 200.9 200.7C201.7 205 202.4 209.3 203.1 213.6C204.5 221.3 207.2 228.5 210.7 235.5C210.9 236 211.2 236.5 211.4 237.1Z" fill="#01686F"/>
<path d="M269.4 204.6C260.3 215.9 250.1 226 239 235.2C249.8 225.7 259.9 215.4 269.4 204.6Z" fill="#01686F"/>
<path d="M209.5 239.9C207.1 238.4 205.4 236.2 203.9 233.9C200 228.1 197.3 221.8 195.4 215.1C194.7 212.6 194.2 210 193.9 207.4C194.1 208.1 194.3 208.9 194.4 209.6C196.2 217.8 199.1 225.5 203.6 232.6C205.2 235.2 207.2 237.6 209.5 239.9Z" fill="#01686F"/>
<path d="M207.2 239.3C208 239.6 208.7 240 209.5 240.3C209.5 240.1 209.4 239.9 209.4 239.8L209.5 239.7C210.4 240.3 211.4 240.8 211.7 242C211.5 241.9 211.3 241.9 211.1 241.7C208.3 240 205.2 239.3 202 238.8C198.1 238.3 194.3 238.9 190.5 239.5C188.1 239.9 185.7 240.4 183.2 240.7C185.1 240.2 187.1 239.6 189 239.3C192.7 238.6 196.3 238 200.1 238.2C202.1 238.3 204 238.7 206 239C206.5 239.2 206.9 239.3 207.2 239.3Z" fill="#01686F"/>
<path d="M219.9 175.9C219.9 176.2 219.9 176.5 219.8 176.7C218.6 180.5 217.9 184.4 217.4 188.4C217.2 189.7 217.1 191.1 217.1 192.4C217 196.2 216.8 200 216.7 203.6C215.6 196.9 217 180.6 219.9 175.9Z" fill="#01686F"/>
<path d="M262.9 229C258.1 234.4 252.9 239.4 246.6 243C244 244.5 241.2 245.6 238.3 246.4C238.1 246.5 237.8 246.4 237.5 246.3C237.7 246.2 237.9 246 238.2 245.9C245.1 243.9 250.9 240 256.1 235.3C258.4 233.2 260.6 231.1 262.9 229Z" fill="#01686F"/>
<path d="M227.6 246.1C231.2 245 234.3 243.2 237.2 241C241.7 237.6 245.7 233.8 249.8 229.9C249.5 230.3 249.2 230.6 248.9 231C248.6 231.4 248.3 231.7 247.9 232.1C243.5 236.6 239 240.9 233.6 244.1C232 245 230.3 245.7 228.5 246.4C228.1 246.5 228.1 246.5 227.6 246.1Z" fill="#01686F"/>
<path d="M224.1 227.2C224.3 226.6 224.6 225.9 224.8 225.3C226 221.9 227.8 218.9 229.7 215.9C230.2 215.1 230.6 214.3 231.1 213.6C233.2 211.2 235.3 208.9 237.5 206.7C238.4 205.8 239.3 205 240.3 204.3C239.6 205 239 205.6 238.3 206.3C236.4 208.4 234.4 210.5 232.6 212.7C229.3 216.6 226.9 221 225.1 225.7C224.1 228.2 223.9 230.8 223.5 233.4C223.7 231.7 223.8 230 224 228.3C224.1 227.8 224.1 227.5 224.1 227.2Z" fill="#01686F"/>
<path d="M278.7 240.9C274 241.2 269.3 241.3 264.6 241.7C259.9 242.1 255.3 243 250.9 244.7C250.9 244.6 250.8 244.5 250.8 244.5C251.1 244.3 251.3 244.1 251.6 244C254.1 243.3 256.6 242.5 259.1 242C262.5 241.3 265.9 241 269.4 240.9C271.3 240.9 273.3 240.7 275.2 240.7C276.4 240.7 277.6 240.9 278.8 241C278.7 241 278.7 240.9 278.7 240.9Z" fill="#01686F"/>
<path d="M258.6 199.5C258.1 199.9 257.7 200.3 257.2 200.8C252.5 204.9 248.1 209.2 243.9 213.8C242.2 215.7 240.5 217.6 238.8 219.5C238.5 219.9 238.1 220.2 237.7 220.5C244 212.8 250.6 205.5 258.4 199.3C258.5 199.4 258.5 199.4 258.6 199.5Z" fill="#01686F"/>
<path d="M201.9 181.9C202.2 182.5 202.5 183 202.7 183.6C204.1 187 204.8 190.5 205.5 194.1C206.1 197.1 206.7 200.1 207.2 203.1C207.4 203.9 207.4 204.8 207.5 205.7C205.5 197.8 204.6 189.7 201.5 182.1C201.7 182 201.8 182 201.9 181.9Z" fill="#01686F"/>
<path d="M269.2 219.1C273 213.2 277.6 207.9 280.5 201.4C280.6 201.5 280.7 201.5 280.8 201.6C280.7 202 280.5 202.4 280.3 202.8C279.1 204.9 278.1 207.1 276.7 209.1C274.8 211.9 272.7 214.6 270.7 217.4C270.2 218 269.7 218.5 269.2 219.1Z" fill="#01686F"/>
<path d="M215.9 244C215.9 243.4 215.9 242.7 215.9 242.1C215.8 239.5 215.1 237 214.4 234.5C213.6 231.5 212.6 228.6 211.6 225.3C211.9 225.8 212 225.9 212.1 226.2C213.9 231.1 215.5 236 216.4 241.2C216.5 242.1 216.7 243.1 216.3 244C216.2 244 216 244 215.9 244Z" fill="#01686F"/>
<path d="M187.6 233.2C181.1 234.1 174.5 234.3 168.4 237.1C168.4 237 168.3 236.9 168.3 236.8C168.6 236.6 168.8 236.4 169.1 236.3C171.3 235.2 173.6 234.6 176 234.3C178.9 233.9 181.7 233.6 184.6 233.3C185.6 233.1 186.6 233.2 187.6 233.2Z" fill="#01686F"/>
<path d="M229.7 246.6C229.8 246.5 229.9 246.4 230 246.4C232.4 245.9 234.4 244.7 236.4 243.4C239.1 241.5 241.7 239.6 244.5 237.8C244.1 238.2 243.8 238.6 243.3 238.9C240.4 241 237.5 243.2 234.6 245.2C233.6 245.9 232.3 246.3 231.1 246.8C230.7 247 230.2 246.9 229.8 247C229.8 246.8 229.8 246.7 229.7 246.6Z" fill="#01686F"/>
<path d="M160.7 245.5C166.7 241.6 173.5 240 180.4 238.7C178.2 239.3 176 239.8 173.8 240.4C171.5 241.1 169.2 241.8 167 242.6C164.9 243.5 162.8 244.5 160.7 245.5Z" fill="#01686F"/>
<path d="M214.2 203.3C215 210.5 216.4 217.6 219.1 224.4C216 217.7 214.6 210.6 214.2 203.3Z" fill="#01686F"/>
<path d="M245.5 176.6C246.1 181.9 244.3 186.6 242.6 191.4C243.6 186.4 245.5 181.7 245.5 176.6Z" fill="#01686F"/>
<path d="M256.3 195.9C259.5 192.3 262.6 189 266.6 186.6C266.8 186.8 266.8 186.8 266.8 186.9V187C263.4 189.9 259.9 192.8 256.3 195.9Z" fill="#01686F"/>
<path d="M165.1 251.8C170.3 251.6 175.2 250.5 180.1 248.9C179.8 249.1 179.6 249.2 179.3 249.3C176.2 250.5 173 251.5 169.7 251.7C168.5 251.8 167.2 251.9 166 251.9C165.7 252 165.4 251.9 165.1 251.8Z" fill="#01686F"/>
<path d="M254 242.4C259.6 239.7 265.6 239.2 271.6 238.8C265.7 239.7 259.7 240.2 254 242.4Z" fill="#01686F"/>
<path d="M195.6 195.3C194.2 192.4 192.3 182.9 192.8 181.1C193.8 185.8 194.7 190.5 195.6 195.3Z" fill="#01686F"/>
<path d="M200.7 211.4C201.8 217.4 203.6 223.2 205.9 228.9C203.3 223.3 201.3 217.6 200.7 211.4Z" fill="#01686F"/>
<path d="M218 228.4C220.1 233.5 221.9 238.6 220.5 244.3C221.4 239.7 220 235.4 218.6 231.1C218.3 230.2 218 229.3 217.7 228.5C217.8 228.5 217.9 228.4 218 228.4Z" fill="#01686F"/>
<path d="M223.8 237.6C224.1 235 230.1 227.6 232.7 226.3C229.7 230 225.9 233.1 223.8 237.6Z" fill="#01686F"/>
<path d="M221.6 174.2C220.3 179 219.9 183.9 219 188.8C219.3 183.9 219.8 178.9 221.6 174.2Z" fill="#01686F"/>
<path d="M245.1 216.2C240.7 220.7 236.3 225.2 232.3 230.1C232.1 230.3 231.8 230.4 231.5 230.6C235.7 225.4 240.2 220.6 245.1 216.2Z" fill="#01686F"/>
<path d="M223.6 225.8C223.1 224.2 222.4 222.7 222.2 221.1C221.7 217.6 221.5 214 221.2 210.4C221.3 210.4 221.4 210.4 221.5 210.3C221.6 210.7 221.6 211 221.7 211.4C221.8 212.9 221.9 214.3 222 215.8C222.2 218.8 222.6 221.8 223.4 224.7C223.5 225.1 223.5 225.5 223.6 225.8Z" fill="#01686F"/>
<path d="M238.9 171.8C239.1 175.9 238.2 179.9 237.1 183.9C237.6 179.9 238.1 175.8 238.6 171.8C238.7 171.8 238.8 171.8 238.9 171.8Z" fill="#01686F"/>
<path d="M272.3 196.9C275.1 193.9 277.9 190.9 280.8 188C280.8 188 280.9 188 280.9 188.1C280.7 188.5 280.6 188.8 280.3 189.1C277.9 192 275.2 194.6 272.3 196.9Z" fill="#01686F"/>
<path d="M188 244.2C183.4 246.2 178.6 248 173.7 249.3C178.4 247.5 183.2 245.8 187.9 244C188 244.1 188 244.2 188 244.2Z" fill="#01686F"/>
<path d="M184.7 174.9C185.6 178.9 186.5 182.8 187.3 186.8C185.9 183 184.8 179 184.2 175C184.4 175 184.5 174.9 184.7 174.9Z" fill="#01686F"/>
<path d="M215.6 231.4C216.6 235.7 217.9 240 217.3 244.5C217.2 240 216.3 235.7 215.6 231.4Z" fill="#01686F"/>
<path d="M297.6 247.2C296.4 247.9 290.2 247 287 245.7C290.5 246.2 294 246.7 297.6 247.2Z" fill="#01686F"/>
<path d="M235.8 199.3C238 196 238.7 192.1 240.1 188.4C239.3 193.6 237.6 198.2 235.8 199.3Z" fill="#01686F"/>
<path d="M207.3 239.4C205.8 238.3 204 238 202.2 237.8C201.1 237.6 199.9 237.6 198.7 237.5C197.5 237.4 196.4 237.3 195.2 237.2C198.5 237 201.8 237.1 204.9 237.9C205.6 238.1 206.4 238.4 207.1 238.7C207.3 238.8 207.5 239 207.3 239.4Z" fill="#01686F"/>
<path d="M274.7 192.7C276.4 190.7 278.2 188.9 280 187C279.7 188.3 276.2 191.9 274.7 192.7Z" fill="#01686F"/>
<path d="M193.3 190.4C192.3 188.2 191.3 183.1 191.6 182C192.4 184.8 192.8 187.6 193.3 190.4Z" fill="#01686F"/>
<path d="M206.6 192.9C205.8 189.9 204.9 187.1 204.1 184.2C204.1 184.1 204.1 184.1 204.2 184C205 185.1 206.5 190.7 206.6 192.9Z" fill="#01686F"/>
<path d="M233.1 175.1C233 172.9 233.5 169.2 234.1 168.5C234 170.8 233.7 173 233.1 175.1Z" fill="#01686F"/>
<path d="M239.9 172.9C240.1 174.6 239.8 176.2 239.2 177.9C239.3 176.2 239.5 174.6 239.6 172.9C239.8 172.9 239.8 172.9 239.9 172.9Z" fill="#01686F"/>
<path d="M226.6 410.4C226.7 409.8 226.7 409.2 226.9 408.6C227.4 407.1 227.8 405.5 228.4 404.1C230.3 399.8 232.3 395.6 234.4 391.4C237.2 385.9 241.3 381.4 246.1 377.7C250.8 374.1 256.1 371.9 262.1 371.3C267.6 370.8 273 371.5 278.3 372.8C283.2 373.9 288.2 375.1 293.1 376.1C295.6 376.6 298.2 376.9 300.8 377.2C301.1 377.2 301.4 377.3 301.9 377.6C301.6 377.7 301.4 377.9 301.1 378C299.1 378.4 297 378.9 295 379.3C291.5 380 288 380.3 284.4 380.4C279.1 380.5 273.7 380.6 268.4 380.7C265.3 380.8 262.2 380.7 259 380.9C251.3 381.4 244.5 384.2 239 389.7C236.9 391.8 234.8 394.1 233 396.5C230.1 400.3 228.5 404.8 227.1 409.4C227 409.6 227 409.9 226.9 410.1C226.9 410.2 226.8 410.3 226.7 410.4H226.6ZM235.6 390.6C235.7 390.6 235.7 390.6 235.8 390.6C236.6 389.6 237.3 388.6 238.1 387.6C242.5 382.1 248.2 378.4 255 376.7C260 375.5 265.1 375.5 270.2 376.1C272.9 376.4 275.5 376.7 278.2 377C281.9 377.4 285.7 377.7 289.4 378.1C292 378.4 294.6 378.2 297.2 378C297.5 378 297.9 377.8 298.2 377.7C292.1 376.7 286.2 375.3 280.3 373.8C275 372.4 269.7 371.5 264.1 371.7C261.5 371.8 258.9 372.2 256.4 373C247.4 375.8 241 381.9 235.9 389.6C235.8 389.9 235.7 390.2 235.6 390.6ZM292.8 379.2C292.8 379.1 292.8 379 292.8 379C291 378.9 289.2 378.8 287.4 378.6C283.1 378.2 278.7 377.8 274.4 377.2C270 376.6 265.7 376.3 261.3 376.5C259.5 376.6 257.7 376.8 255.9 377.1C248 378.8 241.8 383.2 237.1 389.7C236.5 390.5 236 391.4 235.5 392.2C236.5 391.5 237.2 390.5 238 389.8C240.5 387.5 243.1 385.3 246.1 383.8C250.8 381.4 255.9 380.3 261.1 380.2C269.7 380 278.3 380.4 286.8 379.7C288.9 379.5 290.9 379.3 292.8 379.2Z" fill="#01686F"/>
<path d="M226.7 422.6C226.7 420.6 226.8 418.6 226.7 416.6C226.5 412.4 226.3 408.1 225.9 403.9C225.6 399.6 225.1 395.3 224.7 391C224.5 388.1 224.2 385.1 224.2 382.2C224.1 376 224.2 369.9 224.2 363.7C224.2 362.1 224.3 360.5 224.3 358.9C224.5 354.3 224.7 349.6 224.8 345C224.8 344.7 224.8 344.3 225.4 344.3C225.4 344.7 225.4 345 225.4 345.4C225.2 351.7 224.8 358 224.7 364.2C224.6 370.5 224.6 376.8 224.7 383.1C224.8 386.4 225.1 389.7 225.4 392.9C225.7 396.4 226 399.8 226.2 403.3C226.4 406.5 226.7 409.7 226.9 412.9C227.1 415.7 227.1 418.4 227.2 421.2C227.2 421.7 227.3 422.1 227.3 422.6C227.2 422.6 227 422.6 226.7 422.6Z" fill="#01686F"/>
<path d="M224 253.3C224 253.6 224.1 253.9 224.1 254.2C224.1 255.8 224.1 257.3 224.1 258.9C224.1 263.5 224.3 268.1 224.8 272.6C224.9 273.4 225 274.2 225.1 275C225.1 275.5 225.1 276 225.1 276.7C223.6 275.1 223.2 256 224 253.3Z" fill="#01686F"/>
<path d="M201.1 99.8C201 99.4 200.9 99 201 98.8C202 96 201.3 93.3 200.7 90.6C200 87.5 199.3 84.4 198.5 81.4C197.7 78.3 197.3 75.2 197.3 72C197.2 68.4 196.7 64.9 196.1 61.4C195.4 57.2 194.6 53.1 193.8 48.9C193.5 47.6 193.1 46.3 192.9 45C191.5 37.2 187.9 30.2 184.6 23.1C183.5 20.8 182.4 18.6 181.5 16.2C181 14.9 180.8 13.5 180.5 12.2C180.5 12 180.4 11.9 180.4 11.7C180.5 11 180.4 10.2 181.2 9.89997C181.9 9.59997 182.5 9.99998 182.9 10.5C183.4 11.2 184 11.9 184.3 12.6C186.3 17.3 189.1 21.4 191.9 25.6C193.4 27.7 194.8 29.9 196.1 32.2C198.4 36 200 40 200.7 44.4C200.8 44.9 200.9 45.3 201.2 45.8C201.6 44 202 42.2 202.3 40.4C203.2 35.6 204.2 30.7 205.1 25.9C205.7 22.3 206.2 18.7 206.8 15.1C207.4 11.9 208 8.59998 208.8 5.39998C209.1 4.19998 209.7 2.89998 210.3 1.79998C211.9 -0.800024 215 -0.800024 216.7 1.79998C217.3 2.69998 217.8 3.69998 218.1 4.69998C219.5 8.49998 221.4 12 223.6 15.4C225.2 17.8 226.6 20.3 228.1 22.9C228.3 22.5 228.5 22.2 228.7 21.8C230 19.3 231.7 17.1 234 15.5C236.5 13.8 239.3 12.9 242.3 12.4C244.4 12.1 246.5 12.2 248.6 12.7C251.1 13.3 252.9 14.7 253.8 17.1C254.3 18.4 254.7 19.8 255.3 21.1C256.4 23.7 257.6 26.2 258.7 28.8C260 31.8 261.4 34.8 262 38.1C262.3 38.1 262.4 38.2 262.6 38.2C267 37.6 270.8 38.9 274.3 41.5C275.5 42.3 276.5 43.3 277.6 44.2C278.9 45.3 280.2 46.5 281.6 47.5C284.4 49.4 286 52.1 286.8 55.3C287.8 59.1 287.3 62.8 286.1 66.4C284.7 70.9 282.5 74.9 279.6 78.6C280.9 83.4 283 87.8 287.3 90.7C288.8 91.7 290.3 92.9 291.8 94.1C292.7 94.9 293.5 95.8 293.9 97C294.3 98.6 293.6 99.7 292 99.8C290.3 99.9 288.6 99.9 286.9 99.7C280.7 99 274.4 98.2 268.1 98.3C264.4 98.4 260.7 98.7 257 99C253.9 99.3 250.7 99.6 247.6 100.1C244.1 100.6 240.6 101.2 237.1 101.8C232.1 102.5 227.1 103.6 222 103.5C218.6 103.4 215.4 102.7 212.4 101.2C210.3 100.2 208.2 99.2 205.9 98.7C204.4 98.4 203 98.6 201.6 99.3C201.6 99.6 201.4 99.7 201.1 99.8ZM251.1 61.6C249.3 61.7 247.8 61.7 246.3 61.8C243 62.2 239.7 62.8 236.5 63.9C234.6 64.5 232.8 65.3 231 66.2C229.7 66.8 228.9 67.8 228.3 69.2C226.3 74.2 223.7 78.8 220.6 83.2C217.4 87.5 213.8 91.4 209 94C208.4 94.3 208.1 94.8 208.2 95.5C208.3 96.9 209 98.1 210.1 98.9C213.3 101.4 216.9 102.8 221 103.1C225.5 103.4 230 102.7 234.4 101.9C237.9 101.3 241.4 100.7 244.9 100.2C248.5 99.7 252 99.2 255.6 98.8C258.6 98.5 261.5 98.2 264.5 98.1C267.6 98 270.7 98 273.9 98.1C276.6 98.2 279.2 98.5 281.9 98.8C284.6 99.1 287.3 99.4 290 99.6C290.8 99.7 291.7 99.5 292.6 99.4C293.5 99.2 293.7 98.8 293.7 97.9C293.7 97 293.1 96.6 292.4 96.3C290.5 95.6 288.5 94.8 286.6 94.1C283.5 93 280.7 91.5 278.2 89.3C275.2 86.6 272.8 83.4 270.9 79.8C269.7 77.6 268.6 75.3 267.4 73.1C265.9 70.5 264.4 67.9 262.4 65.7C260.6 63.8 258.5 62.5 256 62C254.1 61.7 252.4 61.7 251.1 61.6ZM232.1 49.1C232 47.9 232 45.9 231.7 43.9C231 39.8 229.4 36 227.2 32.4C224.6 28.2 222.1 23.9 219.7 19.6C217.5 15.7 216.5 11.4 216.6 6.89998C216.6 5.69998 216.3 4.39998 216.2 3.19998C216 1.79998 215.1 1.09998 213.8 0.799976C212.6 0.499976 211.6 1.19998 211 2.19998C210.4 3.29998 209.7 4.39998 209.4 5.59998C208.7 8.59998 208 11.6 207.5 14.6C206.7 19.2 206.2 23.9 205.3 28.4C203.4 38.3 201.4 48.1 199.5 57.9C198.9 61.1 198.6 64.4 198.1 67.6C197.8 69.6 198 71.7 198.1 73.7C198.2 78.6 199.4 83.2 201.4 87.6C202 89 202.9 90.4 203.8 91.6C205.2 93.4 207.8 94.1 210.3 92.4C212.9 90.7 215.2 88.7 217.2 86.3C222.3 80.4 225.9 73.6 228.7 66.4C230.8 61.1 232.1 55.6 232.1 49.1ZM229.5 66.2C230.9 65.5 232.2 64.9 233.4 64.4C239.2 62.1 245.2 61.1 251.4 60.9C252.8 60.8 253.8 60.4 254.7 59.4C257.6 56.3 259.4 52.6 260.7 48.6C261.3 46.7 261.7 44.7 261.7 42.6C261.8 39.5 261.2 36.5 260 33.6C257.9 28.2 255.1 23.1 253.2 17.6C252.5 15.5 250.9 14.2 248.7 13.6C246.3 13 244 12.9 241.6 13.4C238.8 13.9 236.1 14.8 233.9 16.6C231.3 18.6 229.6 21.2 228.4 24.2C234.2 38 234.5 52 229.5 66.2ZM262.3 39.2C262.9 47.6 259.9 54.5 254.4 60.7C255 60.8 255.5 60.9 256 61C257.9 61.3 259.8 61.4 261.6 61.9C269.8 64 276.1 68.5 279 76.9C279.1 77.2 279.3 77.6 279.5 78C279.8 77.7 280 77.4 280.2 77.2C282.2 74.3 284 71.3 285.2 68C286 65.8 286.6 63.6 286.8 61.3C287 58.8 286.7 56.4 285.9 54C285.3 52.2 284.4 50.6 282.9 49.4C280.2 47.2 277.6 45 274.9 42.8C272.3 40.7 269.4 39.3 266.1 39C264.8 38.8 263.5 38.6 262.3 39.2ZM258.1 62C258.2 62.1 258.3 62.2 258.4 62.2C261.4 63.6 263.5 65.9 265.2 68.6C266.7 71 268 73.5 269.4 75.9C270.5 77.9 271.5 79.9 272.7 81.8C276.3 87.6 281.1 91.9 287.8 93.8C289 94.2 290.1 94.7 291.3 95.1C291.5 95.2 291.8 95.3 292.1 95.3C291.5 94.6 290.9 94 290.2 93.5C289 92.6 287.8 91.8 286.6 90.9C283.8 88.8 281.7 86.1 280.5 82.8C279.7 80.6 278.9 78.5 278.1 76.3C277.3 74.3 276.4 72.3 275 70.6C270.8 65.3 264.9 62.8 258.1 62ZM197.5 66C198.5 60.9 199.4 56 200.4 51.1C201.1 47.6 200.6 44.3 198.8 41.2C196.7 37.6 194 34.4 191.4 31.2C188.2 27.3 186 23.1 185.3 18.1C185 16 184.3 13.9 183.3 12C182.9 11.3 182.5 10.6 181.5 10.6C180.8 11.3 181 12.1 181.2 12.8C181.6 14.3 182 15.7 182.6 17.1C183.8 19.9 185.2 22.6 186.5 25.3C189 30.7 191.5 36.1 193 41.9C194.6 48.2 195.7 54.6 196.8 60.9C196.9 62.6 197.2 64.2 197.5 66ZM217.3 4.59998C217.2 4.99998 217.2 5.09998 217.2 5.19998C217.1 9.89997 217.9 14.3 220 18.5C222.2 23 224.8 27.3 227.5 31.5C229.3 34.3 230.7 37.2 231.6 40.4C231.8 41 232 41.6 232.2 42.2C232.3 42.2 232.4 42.2 232.5 42.1C232.1 39.5 231.8 36.9 231.3 34.3C229.9 27.7 227.3 21.5 223.4 15.9C221.2 12.6 219.2 9.19998 217.9 5.49998C217.7 5.39998 217.6 5.19998 217.3 4.59998ZM199.1 40.2C199.1 40.2 199.1 40 199.1 39.9C198.9 39.2 198.6 38.6 198.4 37.9C196.8 33.5 193.9 29.9 191.6 26C189.9 23.3 188.1 20.6 186.4 17.9C186.3 17.7 186.1 17.6 185.8 17.2C185.9 17.9 186 18.3 186.1 18.7C186.7 22.5 188.1 25.9 190.6 28.9C191.4 29.9 192.1 31 192.9 32C194.9 34.8 197 37.5 199.1 40.2Z" fill="#01686F"/>
<path d="M207.5 95.7C207.8 95.7 208.2 95.6 208.5 95.7C215 96.6 221.1 95.1 227.1 92.8C230.8 91.4 234.5 89.8 238.2 88.3C241 87.1 243.8 85.9 246.6 84.9C244.5 85.9 242.4 87.1 240.3 88C236.6 89.6 232.8 91.2 229.1 92.7C225.5 94.2 221.9 95.4 218.1 96C214.7 96.6 211.3 96.7 207.9 96.1C207.8 96.1 207.7 96 207.6 96C207.5 95.9 207.5 95.8 207.5 95.7Z" fill="#01686F"/>
<path d="M225.8 38.9C225.5 40.5 225.2 41.9999 224.9 43.5999C224.1 47.0999 223.5 50.6 222.5 53.9C221.5 57.2 220.3 60.6 218.9 63.7C216.4 69.2 213.6 74.5 210.9 79.8C210.8 80 210.6 80.2 210.3 80.4C210.5 80 210.6 79.6 210.8 79.3C213.5 73.7 216.3 68.1 218.9 62.5C221.4 57.1 222.9 51.3 224 45.4C224.4 43.2 225 41 225.5 38.9C225.6 38.8 225.7 38.8 225.8 38.9Z" fill="#01686F"/>
<path d="M223 99C221.2 99.2 219.4 99.6 217.7 99.7C215.9 99.8 214.2 99.7 212.4 99.9C214.5 100.7 216.6 100.7 218.8 100.7C224.8 100.7 230.6 99.7 236.3 98.2C236.5 98.1 236.7 98.1 237 98.3C234.7 98.9 232.4 99.5 230.2 100.1C226.1 101 221.9 101.4 217.7 101.4C216.6 101.4 215.5 101.3 214.5 101.1C213.3 100.9 212.2 100.6 210.8 100.3C211 100 211.2 99.9 211.3 99.7C211 99.6 210.6 99.5 210.3 99.4C210.3 99.3 210.3 99.2 210.3 99.2C211.7 99.3 213.1 99.4 214.4 99.4C215.9 99.4 217.3 99.3 218.8 99.2C220.2 99.1 221.6 99 223.1 98.9C223 98.9 223 98.9 223 99Z" fill="#01686F"/>
<path d="M206.1 49.1C205.1 52.5 204 55.9 203 59.4C201.9 63.4 201.1 67.5 200.7 71.6C200.2 76.7 200.4 81.8 202 86.7C202 86.8 202 87 201.8 87.1C201.3 85 200.7 83 200.4 80.9C199.5 73.9 200.5 67.1 202.3 60.4C203.3 56.8 204.6 53.3 205.8 49.7C205.9 49.5 206 49.3 206.1 49.1Z" fill="#01686F"/>
<path d="M244.8 59.3999C245.1 59.0999 245.3 58.7999 245.6 58.5999C249 55.0999 252 51.2999 254.8 47.3999C257.2 44.0999 259 40.3999 260.1 36.4999C260.3 35.8999 260.4 35.3999 260.6 34.7999C260.8 35.8999 260.6 36.8999 260.3 37.8999C258.9 41.9999 257.1 45.6999 254.4 49.0999C251.8 52.3999 249.3 55.8999 246.1 58.6999C245.7 58.9999 245.4 59.2999 245.1 59.6999C244.9 59.4999 244.8 59.4999 244.8 59.3999Z" fill="#01686F"/>
<path d="M208 93.4C208.2 93.2 208.3 93 208.5 92.9C212.4 89.9 215.2 86 217.5 81.6C219.5 77.8 221.3 74 223.2 70.2C223.4 69.8 223.6 69.5 223.9 69.2C223.2 70.8 222.6 72.5 221.8 74C219.8 78.3 217.7 82.6 215.1 86.6C213.5 89.1 211.5 91.1 209.2 92.9C208.9 93.2 208.5 93.4 208.1 93.6C208.1 93.6 208 93.5 208 93.4Z" fill="#01686F"/>
<path d="M289.6 95.3C289.1 95.2 288.5 95.1 288 95C285.6 94.4 283.2 94.1 280.7 94C278.3 93.9 275.9 93.7 273.6 93.8C270.1 93.9 266.5 94.1 263 94.2C262.2 94.2 261.4 94.2 260.7 94.2C267.1 93.3 273.6 93.2 280.1 93.4C282.7 93.5 285.3 94 287.9 94.4C288.5 94.5 289.1 94.8 289.8 95.1C289.7 95.1 289.7 95.2 289.6 95.3Z" fill="#01686F"/>
<path d="M277.3 57.6999C275.1 58.4999 273 59.3999 270.8 60.1999C268.7 60.8999 266.5 61.5999 264.3 62.2999C267.3 62.3999 270.1 61.1999 273.2 60.4999C271.2 61.4999 269.3 61.9999 267.4 62.3999C266.7 62.5999 265.9 62.5999 265.2 62.7999C264.5 62.9999 263.9 62.7999 263.5 62.1999C262.5 62.2999 261.6 62.2999 260.6 62.3999C260.6 62.2999 260.6 62.0999 260.5 61.9999C266.3 61.4999 271.7 59.3999 277 57.2999C277.2 57.4999 277.3 57.5999 277.3 57.6999Z" fill="#01686F"/>
<path d="M204.2 64.8C202 74.1 201.9 83.5 205.3 92.7C205.1 92.4 205 92.2 204.8 91.9C203.6 89.4 202.9 86.7 202.6 83.9C202.4 81 202.1 78.1 202.1 75.2C202.1 71.7 202.8 68.2 203.9 64.8C203.9 64.7 204 64.7 204 64.6C204.1 64.6 204.1 64.7 204.2 64.8Z" fill="#01686F"/>
<path d="M244 27.7999C242.7 30.0999 241.4 32.3999 240 34.5999C237.9 37.7999 236.8 41.3999 235.7 44.8999C234.7 47.8999 233.9 50.9999 232.9 54.0999C233 53.5999 233.1 53.1999 233.2 52.6999C234.6 47.1999 235.9 41.6999 238.4 36.5999C239.9 33.3999 241.7 30.4999 244 27.7999Z" fill="#01686F"/>
<path d="M245.2 64.5C238.4 66.8 231.6 69.1 225.9 73.8C225.8 73.7 225.8 73.7 225.7 73.6C225.9 73.4 226 73.1 226.2 73C227.8 71.9 229.4 70.6 231.2 69.7C235.4 67.3 239.9 65.8 244.6 64.6C244.8 64.4 245 64.5 245.2 64.5Z" fill="#01686F"/>
<path d="M274.7 85.6C267.2 85.9 260.1 88.2 252.8 89.9C253.6 89.6 254.3 89.4 255.1 89.1C255.9 88.8 256.6 88.6 257.4 88.4C261.4 87.4 265.3 86.4 269.3 85.6C270.8 85.3 272.3 85.3 273.8 85.2C274.1 85.2 274.4 85.3 274.6 85.3C274.7 85.5 274.7 85.6 274.7 85.6Z" fill="#01686F"/>
<path d="M209 27.4C207.1 35.8 203.4 43.5 200.8 51.6C200.7 51.6 200.6 51.5 200.5 51.5C201.4 48.9 202.3 46.2 203.2 43.6C204.2 40.9 205.2 38.2 206.2 35.5C207.3 32.8 208.1 30.1 209 27.4Z" fill="#01686F"/>
<path d="M230.3 64.0999C233.6 57.5999 236.6 50.8999 239.3 44.0999C239.4 43.9999 239.5 43.8999 239.6 43.7999C237.1 50.8999 234.3 57.6999 230.3 64.0999Z" fill="#01686F"/>
<path d="M196.3 59.5999C195.8 55.6999 195.3 51.6999 194.8 47.7999C194.3 43.8999 193.6 40.0999 192.5 36.2999C195.2 43.8999 195.6 51.7999 196.3 59.5999Z" fill="#01686F"/>
<path d="M245.9 12.6C245.4 13.5 244.4 13.8 243.7 14.4C243 15 242.3 15.6 241.7 16.2C241 16.8 240.3 17.5 239.7 18.2C239.1 18.8 238.4 19.5 237.8 20.2C237.2 20.9 236.6 21.7 236 22.4C235.5 23.1 234.9 23.9 234.4 24.7C234.8 21.8 243 13.2 245.9 12.6Z" fill="#01686F"/>
<path d="M248.9 51.2999C246.7 55.2999 243.6 58.4999 240.2 61.4999C239.1 62.4999 237.9 63.3999 236.3 63.7999C236.3 63.5999 236.3 63.3999 236.4 63.3999C240.4 61.1999 243.3 57.7999 246.3 54.4999C247.2 53.4999 248 52.3999 248.9 51.2999Z" fill="#01686F"/>
<path d="M218.1 40.1C219.2 34.1 221 28.3 221.5 22.1C221.9 22.8 222 23.6 221.8 24.7C221 29.7 219.7 34.7 218.4 39.5C218.3 39.7 218.2 39.9 218.1 40.1Z" fill="#01686F"/>
<path d="M210.3 17.4C210.1 14.1 213.1 2.49998 214.9 0.599976C214.6 2.29998 213.8 3.49998 213.5 4.89998C213.1 6.29998 212.7 7.59998 212.3 8.99998C211.9 10.4 211.6 11.8 211.2 13.3C210.9 14.6 210.6 16 210.3 17.4Z" fill="#01686F"/>
<path d="M219.7 84C224 79.8 229.1 76.9 234.5 74.4C229.5 77.5 224.3 80.3 219.7 84Z" fill="#01686F"/>
<path d="M209.1 71.3C210.4 64.4 212.9 57.3 215.5 50.2C213.3 57.5 211.1 64.7 209.1 71.3Z" fill="#01686F"/>
<path d="M196.4 45.2999C197.7 51.3999 197 57.5999 197 63.7999C196.9 60.6999 196.8 57.6999 196.7 54.5999C196.6 51.4999 196.5 48.3999 196.4 45.2999Z" fill="#01686F"/>
<path d="M212 91.2999C215.8 87.6999 218.4 83.1999 221.2 78.7999C221.1 79.0999 220.9 79.4999 220.8 79.7999C219.1 83.0999 217.2 86.1999 214.8 89.0999C214.3 89.7999 213.6 90.3999 213 90.9999C212.7 91.1999 212.4 91.3999 212.1 91.5999C212.2 91.4999 212.1 91.3999 212 91.2999Z" fill="#01686F"/>
<path d="M264.3 67.9C259.7 69.2 255.2 70.7 250.8 72.6C255 70.2 259.5 68.5 264.3 67.9Z" fill="#01686F"/>
<path d="M249.8 32.7C251.6 28.9 253.3 25.2 255 21.5C255.3 22.9 251.9 30.4 249.8 32.7Z" fill="#01686F"/>
<path d="M283.3 92.7C279.2 92.6 275 92.5 271.2 92.4C274.2 91.8 281.4 91.9 283.3 92.7Z" fill="#01686F"/>
<path d="M238.1 33.5C240.8 29.8 242.7 25.6 245.9 22.2C246.1 22 246.2 21.7 246.4 21.5C246.5 21.6 246.6 21.6 246.6 21.7C245.2 23.7 243.7 25.6 242.3 27.6C240.9 29.6 239.6 31.7 238.3 33.7C238.3 33.6 238.2 33.5 238.1 33.5Z" fill="#01686F"/>
<path d="M232.6 84.4999C233 84.2999 233.4 83.9999 233.8 83.7999C238.8 81.5999 244 80.0999 249.1 78.2999C249.2 78.2999 249.3 78.2999 249.6 78.3999C248.3 78.7999 247.2 79.1999 246 79.5999C241.7 81.0999 237.3 82.3999 233.2 84.3999C233 84.3999 232.8 84.3999 232.6 84.4999Z" fill="#01686F"/>
<path d="M238.6 21.1C241.3 18.3 243.7 15.2 246.9 13C247 13.2 247.1 13.2 247.1 13.3V13.4C247.1 13.5 247 13.6 247 13.6C244.2 16.1 241.4 18.6 238.6 21.1Z" fill="#01686F"/>
<path d="M198.2 39.6C199 41 199.5 47.2 199 50.4C198.7 46.9 198.4 43.4 198.2 39.6Z" fill="#01686F"/>
<path d="M272.4 41.1C271.5 41.7 270.6 42.3 269.7 43C268.8 43.7 267.9 44.4 267.1 45.1C266.2 45.8 265.4 46.6 264.5 47.4C265.7 45 270.7 41 272.4 41.1Z" fill="#01686F"/>
<path d="M223.1 55.7C221.9 60.2 220 64.4999 217.9 68.6999C219.6 64.3999 221.3 60 223.1 55.7Z" fill="#01686F"/>
<path d="M286.3 65.7C285.6 66.9 281.3 68.7 278.6 68.8C281.2 67.7 283.8 66.7 286.3 65.7Z" fill="#01686F"/>
<path d="M280.4 47.3C277.8 48.4 275.1 49.6 272.5 50.7C274.9 49.1 277.5 47.9 280.3 46.9C280.3 47.1 280.4 47.2 280.4 47.3Z" fill="#01686F"/>
<path d="M216.5 23.2999C217 20.4999 217.4 17.5999 217.9 14.7999C218.1 17.6999 217.4 20.4999 216.5 23.2999Z" fill="#01686F"/>
<path d="M229.1 75.2999C226.8 76.8999 224.5 78.5999 222.2 80.1999C222.1 80.0999 222.1 79.9999 222 79.9999C224.2 78.0999 226.5 76.5999 229.1 75.2999Z" fill="#01686F"/>
<path d="M213.8 9.40002C214.2 6.70002 214.7 4.20002 215.9 1.90002C216 1.90002 216.1 2.00002 216.2 2.00002C215.4 4.40002 214.6 6.90002 213.8 9.40002Z" fill="#01686F"/>
<path d="M275.8 70.4C278 69.9 280.1 69.4 282.3 68.9C281 69.8 279.5 70.1 278.1 70.5C277.5 70.7 276.8 70.7 276.2 70.7C276.2 70.8 276 70.6 275.8 70.4Z" fill="#01686F"/>
<path d="M251.4 88.8C254.3 87.5 257.3 86.3 260.5 85.6C257.5 86.7 254.4 87.7 251.4 88.8Z" fill="#01686F"/>
<path d="M258.2 71.1C260.3 70.4 262.5 69.7 264.6 69C264.6 69.1 264.7 69.2 264.7 69.4C263.7 69.9 262.6 70.1 261.6 70.4C260.5 70.7 259.4 71.1 258.3 71.4C258.3 71.3 258.2 71.2 258.2 71.1Z" fill="#01686F"/>
<path d="M223.2 26C223.3 27.9 222.9 29.7 222.2 31.4C222.4 29.6 222.7 27.7 222.9 25.9C223 26 223.1 26 223.2 26Z" fill="#01686F"/>
<path d="M273.7 41.6999C272.3 42.4999 270.8 43.3999 269.4 44.1999C270.6 42.8999 272 41.9999 273.5 41.2999C273.6 41.3999 273.6 41.5999 273.7 41.6999Z" fill="#01686F"/>
<path d="M255.9 23.7C255.5 25.3 254.7 26.8 254 28.3C253.9 28.3 253.8 28.2 253.8 28.2C254.4 26.7 255.1 25.1 255.7 23.6C255.7 23.6 255.8 23.6 255.9 23.7Z" fill="#01686F"/>
<path d="M279.6 72.3C278.8 72.4 277.9 72.6 277.1 72.7C277.1 72.6 277.1 72.5 277 72.3C277.9 72.2 278.7 72 279.6 71.9C279.6 72.1 279.6 72.2 279.6 72.3Z" fill="#01686F"/>
<path d="M232.6 84.4C231.5 85 230.4 85.6 229.3 86.2C229.3 86.1 229.2 86 229.2 85.9C230.3 85.4 231.4 84.9 232.6 84.4Z" fill="#01686F"/>
<path d="M250.9 77.7C251.7 77.4 252.5 77.2 253.3 76.9C253.3 77 253.3 77 253.4 77.1C252.6 77.4 251.8 77.6 251 77.9C251 77.8 251 77.8 250.9 77.7Z" fill="#01686F"/>
<path d="M168.5 165.4C168.8 165.2 169 165 169.3 164.8C172.4 162.5 175.5 160.3 178.5 158C182 155.4 185.5 152.9 188.7 150C191.4 147.5 194.1 145.1 196.9 142.9C199.6 140.8 202.5 138.8 205.6 137.2C209.4 135.1 213.5 134.1 217.8 134C223.2 133.8 228.4 134.8 233.4 136.8C239.7 139.3 246 141.7 252.2 144.4C255.3 145.7 258.2 147.2 261.1 148.9C264.9 151.2 268.6 153.7 272.3 156.1C275.2 158 277.4 160.7 279.6 163.3C279.7 163.4 279.7 163.5 279.8 163.9C279.3 163.7 278.9 163.7 278.6 163.5C273.3 160.8 268 158 262.6 155.4C259 153.6 255.2 152 251.6 150.1C249 148.7 246.2 147.5 243.4 146.6C240 145.5 236.5 144.9 232.9 144.9C229.6 144.9 226.2 144.8 222.9 144.9C216.7 145.2 210.6 146.2 204.7 148.1C197 150.6 189.4 153.5 182.1 157.2C177.8 159.4 173.9 162.2 170 165C169.6 165.3 169.2 165.5 168.7 165.8C168.7 165.7 168.6 165.5 168.5 165.4ZM184 154.8C184.1 154.9 184.1 154.9 184.2 155C184.6 154.8 184.9 154.6 185.3 154.4C188.7 152.5 192.1 150.7 195.5 148.8C196.8 148.1 198.1 147.6 199.4 147.1C207 143.8 214.8 141.8 223.1 141.1C227.3 140.8 231.6 141.1 235.8 142C236.5 142.1 237.1 142.2 237.8 142.3C237.6 141.9 237.4 141.7 237.2 141.6C235.2 140.3 233.2 139 231.1 137.8C227.6 135.8 224 134.5 219.9 134.5C215.2 134.5 210.7 135.1 206.6 137.4C200.8 140.5 195.6 144.5 190.8 148.9C188.8 150.7 186.9 152.4 184.9 154.1C184.5 154.3 184.3 154.6 184 154.8ZM273.7 160.2C273.7 160.1 273.8 160.1 273.8 160C273.8 159.9 273.7 159.8 273.7 159.8C273.3 159.5 272.9 159.2 272.5 158.9C267.9 155.7 262.9 153 258 150.3C255.6 149 253 148.2 250.4 147.4C247.8 146.7 245.2 145.8 242.7 144.6C241.3 144 239.8 143.4 238.3 143C232.5 141.6 226.6 141.2 220.6 141.9C215.4 142.5 210.4 143.7 205.5 145.3C201.1 146.8 196.9 148.6 192.8 150.9C191.8 151.5 190.7 151.9 189.7 152.5C189.4 152.6 189.2 152.8 189 153C189.5 153 189.9 152.9 190.3 152.7C193.5 151.4 196.6 150 199.8 148.9C206.5 146.6 213.3 144.9 220.4 144.4C225.2 144.1 230.1 143.8 234.9 144.3C238.1 144.6 241.2 145.1 244.2 146.1C247.3 147.2 250.4 148.5 253.3 150.1C258 152.6 262.9 154.9 267.7 157.2C269.7 158.2 271.7 159.2 273.7 160.2ZM230.1 136.2C230.1 136.3 230 136.4 230 136.5C233.7 138.7 237.4 141 241.2 143.1C244.1 144.7 247.2 145.9 250.5 146.8C252.8 147.4 255.1 148.1 257.3 148.9C258 149.1 258.6 149.5 259.3 149.8C260.5 150.3 261.7 150.7 262.9 151.2C262 150.3 261.1 149.5 260.1 148.9C257.7 147.6 255.3 146.2 252.8 145.2C246 142.4 239.1 139.7 232.2 136.9C231.4 136.6 230.8 136.4 230.1 136.2ZM261.6 151.5C267.1 154.5 272.3 157.8 277.2 161.7C275.9 158.8 265.9 152.3 261.6 151.5Z" fill="#01686F"/>
<path d="M145.9 49C148 51.5 150.1 54.1 152.3 56.7C157 62.3 161.1 68.4 165.3 74.4C169.6 80.7 172.9 87.4 175.6 94.4C178.1 100.9 180.4 107.6 181.6 114.5C182.2 118 182.8 121.4 182.8 124.9C182.9 128.8 183.1 132.7 183 136.6C182.9 140.1 182.5 143.5 181.2 146.8C180.9 147.5 180.4 148.1 180 148.7C179.9 148.7 179.8 148.6 179.7 148.6C179.8 148.2 179.9 147.8 180.1 147.4C181.1 144.7 181.3 141.9 181.1 139.1C180.7 129.6 177.6 120.9 173.1 112.6C171 108.9 168.7 105.2 166.4 101.6C165.6 100.3 164.5 99.1 163.7 97.8C160.2 92 156.6 86.2 154.2 79.8C152.3 74.6 150.9 69.2 149.7 63.8C148.7 59.4 147.7 55 146.2 50.8C146.2 50.2 146.1 49.6 145.9 49ZM148.2 53.8C148.1 53.8 148.1 53.8 148 53.9C148 54.1 148 54.2 148.1 54.4C149.1 58.4 150.1 62.4 151.1 66.5C152.5 72.3 154.1 78.2 156.6 83.7C159.3 89.6 162.7 95.1 166.4 100.5C169.1 104.5 171.6 108.6 173.9 112.8C176.8 118 179 123.4 180.4 129.2C180.8 131 181.1 132.8 181.5 134.6C181.7 134.3 181.7 134 181.7 133.7C181.6 132.4 181.6 131 181.4 129.7C181 126.3 180.6 122.8 180 119.4C178.3 110.8 175.1 102.6 171.3 94.7C169.6 91.2 167.6 87.9 165.6 84.5C159.7 75 153.7 65.5 149.1 55.3C148.8 54.9 148.5 54.4 148.2 53.8ZM149.1 53.8C149 53.9 149 53.9 148.9 54C149 54.2 149.1 54.4 149.1 54.6C152.3 61.2 155.8 67.6 159.6 73.9C162 77.8 164.6 81.7 166.9 85.7C169.1 89.4 171.2 93.2 172.9 97.2C174.9 101.7 176.7 106.2 178.2 110.9C179.9 116.3 181 121.8 181.7 127.4C182 129.8 182.1 132.1 182.3 134.5C182.5 134.3 182.5 134.1 182.5 133.9C182.4 130.7 182.4 127.4 182.1 124.2C181.8 121 181.5 117.7 180.9 114.6C179.7 107.9 177.5 101.5 175.1 95.2C172.5 88.4 169.3 81.9 165.2 75.8C161.7 70.7 158.4 65.6 154.5 60.7C152.8 58.3 150.9 56.1 149.1 53.8Z" fill="#01686F"/>
<path d="M134.4 422.6C134.4 420.6 134.4 418.6 134.5 416.6C134.7 411.5 134.9 406.4 135.2 401.3C135.8 391.4 136.6 381.6 136.2 371.7C136 366.6 135.6 361.6 135.2 356.5C134.7 349.6 133.8 342.8 132.5 336C131.8 332.4 131 328.8 130.4 325.2C128.8 316.7 127.2 308.2 125.9 299.6C124.7 292.2 124.3 284.7 124.3 277.2C124.3 272 124.7 266.8 125.2 261.6C126.1 252.7 127.9 244.1 130 235.5C131.9 227.7 134.8 220.2 138 212.9C141.5 204.8 145.2 196.7 150.2 189.4C153.8 184.1 157.7 179.1 161.5 174C163.4 171.5 165.2 168.9 167.2 166.4C170.9 162 174.2 157.2 177.3 152.4C179.7 148.7 182 144.8 184.2 140.9C189.1 132.2 192.9 122.9 196.1 113.4C198.1 107.3 200.5 101.3 202.7 95.2C202.8 95 202.9 94.8 203.2 94.6C203.2 94.8 203.3 95 203.2 95.2C202.2 98.2 201.1 101.1 200.1 104.1C198.1 109.8 196.1 115.6 194.1 121.2C191.7 127.6 188.9 133.9 185.6 139.9C181.5 147.4 177 154.5 172 161.4C171.1 162.7 170.2 163.9 169.2 165.2C166.2 169.1 163.3 173 160.2 176.8C149.8 189.4 142.4 203.7 136.4 218.8C134.3 224.2 132.3 229.6 130.8 235.1C129.7 239.3 128.8 243.5 128 247.8C127.2 252.3 126.5 256.9 126 261.4C125.1 269.5 124.9 277.6 125.3 285.7C125.7 294.1 126.9 302.3 128.5 310.6C129.1 313.6 129.7 316.6 130.2 319.7C131.5 326.9 133 334.1 134.2 341.4C134.9 346 135.4 350.6 135.9 355.2C137 364.8 137.2 374.5 136.9 384.2C136.8 388.2 136.5 392.3 136.2 396.3C135.9 401.4 135.6 406.4 135.3 411.5C135.1 414.8 135.1 418.1 135 421.4C135 421.9 135 422.4 135 422.8C134.8 422.6 134.6 422.6 134.4 422.6Z" fill="#01686F"/>
</g>
<defs>
<clipPath id="clip0_169_24878">
<rect width="301.9" height="422.7" fill="white"/>
</clipPath>
</defs>
</svg>
