<svg width="102" height="99" viewBox="0 0 102 99" fill="none" xmlns="http://www.w3.org/2000/svg">
<path d="M4.22 38.55C4.22 38.9673 4.09625 39.3753 3.8644 39.7223C3.63255 40.0693 3.30302 40.3397 2.91746 40.4994C2.53191 40.6591 2.10766 40.7009 1.69836 40.6195C1.28906 40.5381 0.913094 40.3371 0.618006 40.042C0.322917 39.7469 0.121959 39.371 0.040544 38.9617C-0.0408708 38.5524 0.000914246 38.1281 0.160615 37.7426C0.320316 37.357 0.59076 37.0275 0.937748 36.7956C1.28474 36.5638 1.69268 36.44 2.11 36.44C2.38746 36.4387 2.66243 36.4924 2.91903 36.5979C3.17562 36.7035 3.40875 36.8589 3.60495 37.0551C3.80115 37.2513 3.95652 37.4844 4.06208 37.741C4.16765 37.9976 4.22132 38.2726 4.22 38.55Z" fill="#B5B3BD"/>
<path d="M23.7395 38.55C23.7395 38.9673 23.6158 39.3753 23.3839 39.7223C23.1521 40.0693 22.8225 40.3397 22.437 40.4994C22.0514 40.6591 21.6272 40.7009 21.2179 40.6195C20.8086 40.5381 20.4326 40.3371 20.1375 40.042C19.8424 39.7469 19.6415 39.371 19.5601 38.9617C19.4787 38.5524 19.5204 38.1281 19.6801 37.7426C19.8398 37.357 20.1103 37.0275 20.4573 36.7956C20.8043 36.5638 21.2122 36.44 21.6295 36.44C21.907 36.4387 22.182 36.4924 22.4386 36.5979C22.6952 36.7035 22.9283 36.8589 23.1245 37.0551C23.3207 37.2513 23.476 37.4844 23.5816 37.741C23.6872 37.9976 23.7409 38.2726 23.7395 38.55Z" fill="#B5B3BD"/>
<path d="M43.2591 38.55C43.2591 38.9673 43.1353 39.3753 42.9035 39.7223C42.6716 40.0693 42.3421 40.3397 41.9565 40.4994C41.571 40.6591 41.1467 40.7009 40.7374 40.6195C40.3281 40.5381 39.9522 40.3371 39.6571 40.042C39.362 39.7469 39.161 39.371 39.0796 38.9617C38.9982 38.5524 39.04 38.1281 39.1997 37.7426C39.3594 37.357 39.6298 37.0275 39.9768 36.7956C40.3238 36.5638 40.7317 36.44 41.1491 36.44C41.4265 36.4387 41.7015 36.4924 41.9581 36.5979C42.2147 36.7035 42.4478 36.8589 42.644 37.0551C42.8402 37.2513 42.9956 37.4844 43.1011 37.741C43.2067 37.9976 43.2604 38.2726 43.2591 38.55Z" fill="#B5B3BD"/>
<path d="M60.6705 40.66C61.8359 40.66 62.7805 39.7153 62.7805 38.55C62.7805 37.3847 61.8359 36.44 60.6705 36.44C59.5052 36.44 58.5605 37.3847 58.5605 38.55C58.5605 39.7153 59.5052 40.66 60.6705 40.66Z" fill="#B5B3BD"/>
<path d="M4.22 57.83C4.22 58.2473 4.09625 58.6553 3.8644 59.0022C3.63255 59.3492 3.30302 59.6197 2.91746 59.7794C2.53191 59.9391 2.10766 59.9809 1.69836 59.8995C1.28906 59.818 0.913094 59.6171 0.618006 59.322C0.322917 59.0269 0.121959 58.6509 0.040544 58.2416C-0.0408708 57.8323 0.000914246 57.4081 0.160615 57.0225C0.320316 56.637 0.59076 56.3074 0.937748 56.0756C1.28474 55.8437 1.69268 55.72 2.11 55.72C2.38746 55.7187 2.66243 55.7723 2.91903 55.8779C3.17562 55.9835 3.40875 56.1388 3.60495 56.335C3.80115 56.5312 3.95652 56.7644 4.06208 57.021C4.16765 57.2776 4.22132 57.5525 4.22 57.83Z" fill="#B5B3BD"/>
<path d="M23.7395 57.83C23.7395 58.2473 23.6158 58.6553 23.3839 59.0022C23.1521 59.3492 22.8225 59.6197 22.437 59.7794C22.0514 59.9391 21.6272 59.9809 21.2179 59.8995C20.8086 59.818 20.4326 59.6171 20.1375 59.322C19.8424 59.0269 19.6415 58.6509 19.5601 58.2416C19.4787 57.8323 19.5204 57.4081 19.6801 57.0225C19.8398 56.637 20.1103 56.3074 20.4573 56.0756C20.8043 55.8437 21.2122 55.72 21.6295 55.72C21.907 55.7187 22.182 55.7723 22.4386 55.8779C22.6952 55.9835 22.9283 56.1388 23.1245 56.335C23.3207 56.5312 23.476 56.7644 23.5816 57.021C23.6872 57.2776 23.7409 57.5525 23.7395 57.83Z" fill="#B5B3BD"/>
<path d="M43.2591 57.83C43.2591 58.2473 43.1353 58.6553 42.9035 59.0022C42.6716 59.3492 42.3421 59.6197 41.9565 59.7794C41.571 59.9391 41.1467 59.9809 40.7374 59.8995C40.3281 59.818 39.9522 59.6171 39.6571 59.322C39.362 59.0269 39.161 58.6509 39.0796 58.2416C38.9982 57.8323 39.04 57.4081 39.1997 57.0225C39.3594 56.637 39.6298 56.3074 39.9768 56.0756C40.3238 55.8437 40.7317 55.72 41.1491 55.72C41.4265 55.7187 41.7015 55.7723 41.9581 55.8779C42.2147 55.9835 42.4478 56.1388 42.644 56.335C42.8402 56.5312 42.9956 56.7644 43.1011 57.021C43.2067 57.2776 43.2604 57.5525 43.2591 57.83Z" fill="#B5B3BD"/>
<path d="M60.6705 59.94C61.8359 59.94 62.7805 58.9954 62.7805 57.83C62.7805 56.6647 61.8359 55.72 60.6705 55.72C59.5052 55.72 58.5605 56.6647 58.5605 57.83C58.5605 58.9954 59.5052 59.94 60.6705 59.94Z" fill="#B5B3BD"/>
<path d="M4.22 77.11C4.22 77.5273 4.09625 77.9353 3.8644 78.2823C3.63255 78.6293 3.30302 78.8997 2.91746 79.0594C2.53191 79.2191 2.10766 79.2609 1.69836 79.1795C1.28906 79.0981 0.913094 78.8971 0.618006 78.602C0.322917 78.3069 0.121959 77.931 0.040544 77.5217C-0.0408708 77.1124 0.000914246 76.6881 0.160615 76.3026C0.320316 75.917 0.59076 75.5875 0.937748 75.3556C1.28474 75.1238 1.69268 75 2.11 75C2.38746 74.9987 2.66243 75.0524 2.91903 75.1579C3.17562 75.2635 3.40875 75.4189 3.60495 75.6151C3.80115 75.8113 3.95652 76.0444 4.06208 76.301C4.16765 76.5576 4.22132 76.8326 4.22 77.11Z" fill="#B5B3BD"/>
<path d="M23.7395 77.11C23.7395 77.5273 23.6158 77.9353 23.3839 78.2823C23.1521 78.6293 22.8225 78.8997 22.437 79.0594C22.0514 79.2191 21.6272 79.2609 21.2179 79.1795C20.8086 79.0981 20.4326 78.8971 20.1375 78.602C19.8424 78.3069 19.6415 77.931 19.5601 77.5217C19.4787 77.1124 19.5204 76.6881 19.6801 76.3026C19.8398 75.917 20.1103 75.5875 20.4573 75.3556C20.8043 75.1238 21.2122 75 21.6295 75C21.907 74.9987 22.182 75.0524 22.4386 75.1579C22.6952 75.2635 22.9283 75.4189 23.1245 75.6151C23.3207 75.8113 23.476 76.0444 23.5816 76.301C23.6872 76.5576 23.7409 76.8326 23.7395 77.11Z" fill="#B5B3BD"/>
<path d="M43.2591 77.11C43.2591 77.5273 43.1353 77.9353 42.9035 78.2823C42.6716 78.6293 42.3421 78.8997 41.9565 79.0594C41.571 79.2191 41.1467 79.2609 40.7374 79.1795C40.3281 79.0981 39.9522 78.8971 39.6571 78.602C39.362 78.3069 39.161 77.931 39.0796 77.5217C38.9982 77.1124 39.04 76.6881 39.1997 76.3026C39.3594 75.917 39.6298 75.5875 39.9768 75.3556C40.3238 75.1238 40.7317 75 41.1491 75C41.4265 74.9987 41.7015 75.0524 41.9581 75.1579C42.2147 75.2635 42.4478 75.4189 42.644 75.6151C42.8402 75.8113 42.9956 76.0444 43.1011 76.301C43.2067 76.5576 43.2604 76.8326 43.2591 77.11Z" fill="#B5B3BD"/>
<path d="M62.7805 77.11C62.7805 77.5273 62.6568 77.9353 62.4249 78.2823C62.1931 78.6293 61.8636 78.8997 61.478 79.0594C61.0925 79.2191 60.6682 79.2609 60.2589 79.1795C59.8496 79.0981 59.4736 78.8971 59.1786 78.602C58.8835 78.3069 58.6825 77.931 58.6011 77.5217C58.5197 77.1124 58.5615 76.6881 58.7212 76.3026C58.8809 75.917 59.1513 75.5875 59.4983 75.3556C59.8453 75.1238 60.2532 75 60.6705 75C60.948 74.9987 61.223 75.0524 61.4796 75.1579C61.7362 75.2635 61.9693 75.4189 62.1655 75.6151C62.3617 75.8113 62.5171 76.0444 62.6226 76.301C62.7282 76.5576 62.7819 76.8326 62.7805 77.11Z" fill="#B5B3BD"/>
<path d="M4.22 96.44C4.22 96.8573 4.09625 97.2653 3.8644 97.6122C3.63255 97.9592 3.30302 98.2297 2.91746 98.3894C2.53191 98.5491 2.10766 98.5908 1.69836 98.5094C1.28906 98.428 0.913094 98.2271 0.618006 97.932C0.322917 97.6369 0.121959 97.2609 0.040544 96.8516C-0.0408708 96.4423 0.000914246 96.0181 0.160615 95.6325C0.320316 95.247 0.59076 94.9174 0.937748 94.6856C1.28474 94.4537 1.69268 94.33 2.11 94.33C2.38746 94.3287 2.66243 94.3823 2.91903 94.4879C3.17562 94.5935 3.40875 94.7488 3.60495 94.945C3.80115 95.1412 3.95652 95.3744 4.06208 95.631C4.16765 95.8875 4.22132 96.1625 4.22 96.44Z" fill="#B5B3BD"/>
<path d="M23.7395 96.44C23.7395 96.8573 23.6158 97.2653 23.3839 97.6122C23.1521 97.9592 22.8225 98.2297 22.437 98.3894C22.0514 98.5491 21.6272 98.5908 21.2179 98.5094C20.8086 98.428 20.4326 98.2271 20.1375 97.932C19.8424 97.6369 19.6415 97.2609 19.5601 96.8516C19.4787 96.4423 19.5204 96.0181 19.6801 95.6325C19.8398 95.247 20.1103 94.9174 20.4573 94.6856C20.8043 94.4537 21.2122 94.33 21.6295 94.33C21.907 94.3287 22.182 94.3823 22.4386 94.4879C22.6952 94.5935 22.9283 94.7488 23.1245 94.945C23.3207 95.1412 23.476 95.3744 23.5816 95.631C23.6872 95.8875 23.7409 96.1625 23.7395 96.44Z" fill="#B5B3BD"/>
<path d="M43.2591 96.44C43.2591 96.8573 43.1353 97.2653 42.9035 97.6122C42.6716 97.9592 42.3421 98.2297 41.9565 98.3894C41.571 98.5491 41.1467 98.5908 40.7374 98.5094C40.3281 98.428 39.9522 98.2271 39.6571 97.932C39.362 97.6369 39.161 97.2609 39.0796 96.8516C38.9982 96.4423 39.04 96.0181 39.1997 95.6325C39.3594 95.247 39.6298 94.9174 39.9768 94.6856C40.3238 94.4537 40.7317 94.33 41.1491 94.33C41.4265 94.3287 41.7015 94.3823 41.9581 94.4879C42.2147 94.5935 42.4478 94.7488 42.644 94.945C42.8402 95.1412 42.9956 95.3744 43.1011 95.631C43.2067 95.8875 43.2604 96.1625 43.2591 96.44Z" fill="#B5B3BD"/>
<path d="M60.6705 98.5C61.8359 98.5 62.7805 97.5553 62.7805 96.39C62.7805 95.2246 61.8359 94.28 60.6705 94.28C59.5052 94.28 58.5605 95.2246 58.5605 96.39C58.5605 97.5553 59.5052 98.5 60.6705 98.5Z" fill="#B5B3BD"/>
<path d="M82.22 38.55C82.22 38.9673 82.0963 39.3753 81.8644 39.7223C81.6326 40.0693 81.303 40.3397 80.9175 40.4994C80.5319 40.6591 80.1077 40.7009 79.6984 40.6195C79.2891 40.5381 78.9131 40.3371 78.618 40.042C78.3229 39.7469 78.122 39.371 78.0405 38.9617C77.9591 38.5524 78.0009 38.1281 78.1606 37.7426C78.3203 37.357 78.5908 37.0275 78.9377 36.7956C79.2847 36.5638 79.6927 36.44 80.11 36.44C80.3875 36.4387 80.6624 36.4924 80.919 36.5979C81.1756 36.7035 81.4088 36.8589 81.6049 37.0551C81.8011 37.2513 81.9565 37.4844 82.0621 37.741C82.1676 37.9976 82.2213 38.2726 82.22 38.55Z" fill="#B5B3BD"/>
<path d="M101.74 38.55C101.74 38.9673 101.616 39.3753 101.384 39.7223C101.152 40.0693 100.823 40.3397 100.437 40.4994C100.051 40.6591 99.6272 40.7009 99.2179 40.6195C98.8086 40.5381 98.4326 40.3371 98.1375 40.042C97.8424 39.7469 97.6415 39.371 97.5601 38.9617C97.4787 38.5524 97.5204 38.1281 97.6801 37.7426C97.8398 37.357 98.1103 37.0275 98.4573 36.7956C98.8043 36.5638 99.2122 36.44 99.6295 36.44C99.907 36.4387 100.182 36.4924 100.439 36.5979C100.695 36.7035 100.928 36.8589 101.124 37.0551C101.321 37.2513 101.476 37.4844 101.582 37.741C101.687 37.9976 101.741 38.2726 101.74 38.55Z" fill="#B5B3BD"/>
<path d="M82.22 57.83C82.22 58.2473 82.0963 58.6553 81.8644 59.0022C81.6326 59.3492 81.303 59.6197 80.9175 59.7794C80.5319 59.9391 80.1077 59.9809 79.6984 59.8995C79.2891 59.818 78.9131 59.6171 78.618 59.322C78.3229 59.0269 78.122 58.6509 78.0405 58.2416C77.9591 57.8323 78.0009 57.4081 78.1606 57.0225C78.3203 56.637 78.5908 56.3074 78.9377 56.0756C79.2847 55.8437 79.6927 55.72 80.11 55.72C80.3875 55.7187 80.6624 55.7723 80.919 55.8779C81.1756 55.9835 81.4088 56.1388 81.6049 56.335C81.8011 56.5312 81.9565 56.7644 82.0621 57.021C82.1676 57.2776 82.2213 57.5525 82.22 57.83Z" fill="#B5B3BD"/>
<path d="M101.74 57.83C101.74 58.2473 101.616 58.6553 101.384 59.0022C101.152 59.3492 100.823 59.6197 100.437 59.7794C100.051 59.9391 99.6272 59.9809 99.2179 59.8995C98.8086 59.818 98.4326 59.6171 98.1375 59.322C97.8424 59.0269 97.6415 58.6509 97.5601 58.2416C97.4787 57.8323 97.5204 57.4081 97.6801 57.0225C97.8398 56.637 98.1103 56.3074 98.4573 56.0756C98.8043 55.8437 99.2122 55.72 99.6295 55.72C99.907 55.7187 100.182 55.7723 100.439 55.8779C100.695 55.9835 100.928 56.1388 101.124 56.335C101.321 56.5312 101.476 56.7644 101.582 57.021C101.687 57.2776 101.741 57.5525 101.74 57.83Z" fill="#B5B3BD"/>
<path d="M82.22 77.11C82.22 77.5273 82.0963 77.9353 81.8644 78.2823C81.6326 78.6293 81.303 78.8997 80.9175 79.0594C80.5319 79.2191 80.1077 79.2609 79.6984 79.1795C79.2891 79.0981 78.9131 78.8971 78.618 78.602C78.3229 78.3069 78.122 77.931 78.0405 77.5217C77.9591 77.1124 78.0009 76.6881 78.1606 76.3026C78.3203 75.917 78.5908 75.5875 78.9377 75.3556C79.2847 75.1238 79.6927 75 80.11 75C80.3875 74.9987 80.6624 75.0524 80.919 75.1579C81.1756 75.2635 81.4088 75.4189 81.6049 75.6151C81.8011 75.8113 81.9565 76.0444 82.0621 76.301C82.1676 76.5576 82.2213 76.8326 82.22 77.11Z" fill="#B5B3BD"/>
<path d="M101.74 77.11C101.74 77.5273 101.616 77.9353 101.384 78.2823C101.152 78.6293 100.823 78.8997 100.437 79.0594C100.051 79.2191 99.6272 79.2609 99.2179 79.1795C98.8086 79.0981 98.4326 78.8971 98.1375 78.602C97.8424 78.3069 97.6415 77.931 97.5601 77.5217C97.4787 77.1124 97.5204 76.6881 97.6801 76.3026C97.8398 75.917 98.1103 75.5875 98.4573 75.3556C98.8043 75.1238 99.2122 75 99.6295 75C99.907 74.9987 100.182 75.0524 100.439 75.1579C100.695 75.2635 100.928 75.4189 101.124 75.6151C101.321 75.8113 101.476 76.0444 101.582 76.301C101.687 76.5576 101.741 76.8326 101.74 77.11Z" fill="#B5B3BD"/>
<path d="M82.22 96.44C82.22 96.8573 82.0963 97.2653 81.8644 97.6122C81.6326 97.9592 81.303 98.2297 80.9175 98.3894C80.5319 98.5491 80.1077 98.5908 79.6984 98.5094C79.2891 98.428 78.9131 98.2271 78.618 97.932C78.3229 97.6369 78.122 97.2609 78.0405 96.8516C77.9591 96.4423 78.0009 96.0181 78.1606 95.6325C78.3203 95.247 78.5908 94.9174 78.9377 94.6856C79.2847 94.4537 79.6927 94.33 80.11 94.33C80.3875 94.3287 80.6624 94.3823 80.919 94.4879C81.1756 94.5935 81.4088 94.7488 81.6049 94.945C81.8011 95.1412 81.9565 95.3744 82.0621 95.631C82.1676 95.8875 82.2213 96.1625 82.22 96.44Z" fill="#B5B3BD"/>
<path d="M101.74 96.44C101.74 96.8573 101.616 97.2653 101.384 97.6122C101.152 97.9592 100.823 98.2297 100.437 98.3894C100.051 98.5491 99.6272 98.5908 99.2179 98.5094C98.8086 98.428 98.4326 98.2271 98.1375 97.932C97.8424 97.6369 97.6415 97.2609 97.5601 96.8516C97.4787 96.4423 97.5204 96.0181 97.6801 95.6325C97.8398 95.247 98.1103 94.9174 98.4573 94.6856C98.8043 94.4537 99.2122 94.33 99.6295 94.33C99.907 94.3287 100.182 94.3823 100.439 94.4879C100.695 94.5935 100.928 94.7488 101.124 94.945C101.321 95.1412 101.476 95.3744 101.582 95.631C101.687 95.8875 101.741 96.1625 101.74 96.44Z" fill="#B5B3BD"/>
<path d="M4.22 2.11002C4.22 2.52734 4.09625 2.93529 3.8644 3.28228C3.63255 3.62926 3.30302 3.89971 2.91746 4.05941C2.53191 4.21911 2.10766 4.26089 1.69836 4.17948C1.28906 4.09806 0.913094 3.89711 0.618006 3.60202C0.322917 3.30693 0.121959 2.93096 0.040544 2.52166C-0.0408708 2.11236 0.000914246 1.68811 0.160615 1.30256C0.320316 0.917008 0.59076 0.587472 0.937748 0.355622C1.28474 0.123773 1.69268 2.39256e-05 2.11 2.39256e-05C2.38746 -0.00130049 2.66243 0.0523726 2.91903 0.157941C3.17562 0.263509 3.40875 0.418879 3.60495 0.615075C3.80115 0.811271 3.95652 1.0444 4.06208 1.301C4.16765 1.55759 4.22132 1.83256 4.22 2.11002Z" fill="#B5B3BD"/>
<path d="M23.7395 2.11002C23.7395 2.52734 23.6158 2.93529 23.3839 3.28228C23.1521 3.62926 22.8225 3.89971 22.437 4.05941C22.0514 4.21911 21.6272 4.26089 21.2179 4.17948C20.8086 4.09806 20.4326 3.89711 20.1375 3.60202C19.8424 3.30693 19.6415 2.93096 19.5601 2.52166C19.4787 2.11236 19.5204 1.68811 19.6801 1.30256C19.8398 0.917008 20.1103 0.587472 20.4573 0.355622C20.8043 0.123773 21.2122 2.39256e-05 21.6295 2.39256e-05C21.907 -0.00130049 22.182 0.0523726 22.4386 0.157941C22.6952 0.263509 22.9283 0.418879 23.1245 0.615075C23.3207 0.811271 23.476 1.0444 23.5816 1.301C23.6872 1.55759 23.7409 1.83256 23.7395 2.11002Z" fill="#B5B3BD"/>
<path d="M43.2591 2.11002C43.2591 2.52734 43.1353 2.93529 42.9035 3.28228C42.6716 3.62926 42.3421 3.89971 41.9565 4.05941C41.571 4.21911 41.1467 4.26089 40.7374 4.17948C40.3281 4.09806 39.9522 3.89711 39.6571 3.60202C39.362 3.30693 39.161 2.93096 39.0796 2.52166C38.9982 2.11236 39.04 1.68811 39.1997 1.30256C39.3594 0.917008 39.6298 0.587472 39.9768 0.355622C40.3238 0.123773 40.7317 2.39256e-05 41.1491 2.39256e-05C41.4265 -0.00130049 41.7015 0.0523726 41.9581 0.157941C42.2147 0.263509 42.4478 0.418879 42.644 0.615075C42.8402 0.811271 42.9956 1.0444 43.1011 1.301C43.2067 1.55759 43.2604 1.83256 43.2591 2.11002Z" fill="#B5B3BD"/>
<path d="M62.7805 2.11002C62.7805 2.52734 62.6568 2.93529 62.4249 3.28228C62.1931 3.62926 61.8636 3.89971 61.478 4.05941C61.0925 4.21911 60.6682 4.26089 60.2589 4.17948C59.8496 4.09806 59.4736 3.89711 59.1786 3.60202C58.8835 3.30693 58.6825 2.93096 58.6011 2.52166C58.5197 2.11236 58.5615 1.68811 58.7212 1.30256C58.8809 0.917008 59.1513 0.587472 59.4983 0.355622C59.8453 0.123773 60.2532 2.39256e-05 60.6705 2.39256e-05C60.948 -0.00130049 61.223 0.0523726 61.4796 0.157941C61.7362 0.263509 61.9693 0.418879 62.1655 0.615075C62.3617 0.811271 62.5171 1.0444 62.6226 1.301C62.7282 1.55759 62.7819 1.83256 62.7805 2.11002Z" fill="#B5B3BD"/>
<path d="M4.22 21.44C4.22 21.8573 4.09625 22.2653 3.8644 22.6122C3.63255 22.9592 3.30302 23.2297 2.91746 23.3894C2.53191 23.5491 2.10766 23.5909 1.69836 23.5094C1.28906 23.428 0.913094 23.2271 0.618006 22.932C0.322917 22.6369 0.121959 22.2609 0.040544 21.8516C-0.0408708 21.4423 0.000914246 21.0181 0.160615 20.6325C0.320316 20.247 0.59076 19.9174 0.937748 19.6856C1.28474 19.4537 1.69268 19.33 2.11 19.33C2.38746 19.3287 2.66243 19.3823 2.91903 19.4879C3.17562 19.5935 3.40875 19.7488 3.60495 19.945C3.80115 20.1412 3.95652 20.3744 4.06208 20.631C4.16765 20.8875 4.22132 21.1625 4.22 21.44Z" fill="#B5B3BD"/>
<path d="M23.7395 21.44C23.7395 21.8573 23.6158 22.2653 23.3839 22.6122C23.1521 22.9592 22.8225 23.2297 22.437 23.3894C22.0514 23.5491 21.6272 23.5909 21.2179 23.5094C20.8086 23.428 20.4326 23.2271 20.1375 22.932C19.8424 22.6369 19.6415 22.2609 19.5601 21.8516C19.4787 21.4423 19.5204 21.0181 19.6801 20.6325C19.8398 20.247 20.1103 19.9174 20.4573 19.6856C20.8043 19.4537 21.2122 19.33 21.6295 19.33C21.907 19.3287 22.182 19.3823 22.4386 19.4879C22.6952 19.5935 22.9283 19.7488 23.1245 19.945C23.3207 20.1412 23.476 20.3744 23.5816 20.631C23.6872 20.8875 23.7409 21.1625 23.7395 21.44Z" fill="#B5B3BD"/>
<path d="M43.2591 21.44C43.2591 21.8573 43.1353 22.2653 42.9035 22.6122C42.6716 22.9592 42.3421 23.2297 41.9565 23.3894C41.571 23.5491 41.1467 23.5909 40.7374 23.5094C40.3281 23.428 39.9522 23.2271 39.6571 22.932C39.362 22.6369 39.161 22.2609 39.0796 21.8516C38.9982 21.4423 39.04 21.0181 39.1997 20.6325C39.3594 20.247 39.6298 19.9174 39.9768 19.6856C40.3238 19.4537 40.7317 19.33 41.1491 19.33C41.4265 19.3287 41.7015 19.3823 41.9581 19.4879C42.2147 19.5935 42.4478 19.7488 42.644 19.945C42.8402 20.1412 42.9956 20.3744 43.1011 20.631C43.2067 20.8875 43.2604 21.1625 43.2591 21.44Z" fill="#B5B3BD"/>
<path d="M60.6705 23.5C61.8359 23.5 62.7805 22.5553 62.7805 21.39C62.7805 20.2246 61.8359 19.28 60.6705 19.28C59.5052 19.28 58.5605 20.2246 58.5605 21.39C58.5605 22.5553 59.5052 23.5 60.6705 23.5Z" fill="#B5B3BD"/>
<path d="M82.22 2.11002C82.22 2.52734 82.0963 2.93529 81.8644 3.28228C81.6326 3.62926 81.303 3.89971 80.9175 4.05941C80.5319 4.21911 80.1077 4.26089 79.6984 4.17948C79.2891 4.09806 78.9131 3.89711 78.618 3.60202C78.3229 3.30693 78.122 2.93096 78.0405 2.52166C77.9591 2.11236 78.0009 1.68811 78.1606 1.30256C78.3203 0.917008 78.5908 0.587472 78.9377 0.355622C79.2847 0.123773 79.6927 2.39256e-05 80.11 2.39256e-05C80.3875 -0.00130049 80.6624 0.0523726 80.919 0.157941C81.1756 0.263509 81.4088 0.418879 81.6049 0.615075C81.8011 0.811271 81.9565 1.0444 82.0621 1.301C82.1676 1.55759 82.2213 1.83256 82.22 2.11002Z" fill="#B5B3BD"/>
<path d="M101.74 2.11002C101.74 2.52734 101.616 2.93529 101.384 3.28228C101.152 3.62926 100.823 3.89971 100.437 4.05941C100.051 4.21911 99.6272 4.26089 99.2179 4.17948C98.8086 4.09806 98.4326 3.89711 98.1375 3.60202C97.8424 3.30693 97.6415 2.93096 97.5601 2.52166C97.4787 2.11236 97.5204 1.68811 97.6801 1.30256C97.8398 0.917008 98.1103 0.587472 98.4573 0.355622C98.8043 0.123773 99.2122 2.39256e-05 99.6295 2.39256e-05C99.907 -0.00130049 100.182 0.0523726 100.439 0.157941C100.695 0.263509 100.928 0.418879 101.124 0.615075C101.321 0.811271 101.476 1.0444 101.582 1.301C101.687 1.55759 101.741 1.83256 101.74 2.11002Z" fill="#B5B3BD"/>
<path d="M82.22 21.44C82.22 21.8573 82.0963 22.2653 81.8644 22.6122C81.6326 22.9592 81.303 23.2297 80.9175 23.3894C80.5319 23.5491 80.1077 23.5909 79.6984 23.5094C79.2891 23.428 78.9131 23.2271 78.618 22.932C78.3229 22.6369 78.122 22.2609 78.0405 21.8516C77.9591 21.4423 78.0009 21.0181 78.1606 20.6325C78.3203 20.247 78.5908 19.9174 78.9377 19.6856C79.2847 19.4537 79.6927 19.33 80.11 19.33C80.3875 19.3287 80.6624 19.3823 80.919 19.4879C81.1756 19.5935 81.4088 19.7488 81.6049 19.945C81.8011 20.1412 81.9565 20.3744 82.0621 20.631C82.1676 20.8875 82.2213 21.1625 82.22 21.44Z" fill="#B5B3BD"/>
<path d="M101.74 21.44C101.74 21.8573 101.616 22.2653 101.384 22.6122C101.152 22.9592 100.823 23.2297 100.437 23.3894C100.051 23.5491 99.6272 23.5909 99.2179 23.5094C98.8086 23.428 98.4326 23.2271 98.1375 22.932C97.8424 22.6369 97.6415 22.2609 97.5601 21.8516C97.4787 21.4423 97.5204 21.0181 97.6801 20.6325C97.8398 20.247 98.1103 19.9174 98.4573 19.6856C98.8043 19.4537 99.2122 19.33 99.6295 19.33C99.907 19.3287 100.182 19.3823 100.439 19.4879C100.695 19.5935 100.928 19.7488 101.124 19.945C101.321 20.1412 101.476 20.3744 101.582 20.631C101.687 20.8875 101.741 21.1625 101.74 21.44Z" fill="#B5B3BD"/>
</svg>
