<svg width="121" height="87" viewBox="0 0 121 87" fill="none" xmlns="http://www.w3.org/2000/svg">
<g id="Arrow">
<path id="Vector" d="M2.90923 52.826C17.3313 31.5239 43.5041 20.6646 68.8076 24.751C75.7093 25.8682 83.2822 27.9089 89.2258 31.705C90.0194 32.2134 89.1672 33.3625 88.3711 33.0436C84.465 31.4835 80.7549 29.6587 76.7077 28.4627C72.8692 27.3252 68.9382 26.5273 64.96 26.0782C56.8917 25.1598 48.7233 25.7393 40.8655 27.7874C25.9366 31.7251 12.742 40.9851 3.50215 53.3215C3.20476 53.7142 2.64445 53.2285 2.9136 52.828L2.90923 52.826Z" fill="#6347ED"/>
<path id="Vector_2" d="M3.0307 52.68C4.69434 49.5156 8.29113 47.6173 11.0775 45.5577C14.135 43.231 17.3444 41.111 20.6844 39.212C26.7681 35.8772 33.3246 33.4891 40.128 32.13C47.5684 30.64 55.208 30.4264 62.72 31.4982C70.2685 32.5795 78.5516 34.746 84.9524 39.0333C85.6478 39.5018 84.9066 40.4902 84.2003 40.2179C76.9833 37.3929 70.1684 34.4881 62.4162 33.366C48.4088 31.3302 34.118 33.8495 21.6511 40.5523C18.5429 42.2566 15.5512 44.1653 12.6956 46.2657C9.69962 48.4353 6.12836 50.3242 3.68135 53.0962C3.39867 53.411 2.81968 53.0808 3.0307 52.68Z" fill="#6347ED"/>
<path id="Vector_3" d="M88.321 32.4166C89.3453 30.5257 90.3935 28.7093 91.2275 26.7255C91.2863 26.6009 91.3727 26.4914 91.4803 26.4053C91.5878 26.3192 91.7136 26.2588 91.8481 26.2288C91.9825 26.1987 92.122 26.1997 92.256 26.2318C92.39 26.2638 92.5149 26.326 92.6211 26.4137C96.526 29.5412 99.8212 33.4634 103.243 37.0995C106.743 40.8299 110.28 44.5032 113.763 48.2363C113.896 48.3758 113.985 48.5522 114.016 48.7426C114.048 48.9329 114.022 49.1285 113.941 49.3038C113.861 49.4791 113.729 49.6261 113.564 49.7257C113.398 49.8252 113.207 49.8728 113.014 49.8622C102.166 49.4704 91.346 48.8904 80.5378 47.802C80.4013 47.7778 80.2722 47.7228 80.1601 47.6413C80.048 47.5597 79.9559 47.4538 79.8908 47.3315C79.8257 47.2091 79.7892 47.0736 79.7842 46.9351C79.7792 46.7966 79.8057 46.6587 79.8618 46.532C80.8936 44.0725 82.0156 41.6703 83.2639 39.3158C83.8386 38.2402 85.5737 39.0391 84.9859 40.1086C83.7037 42.4409 82.5405 44.8366 81.5008 47.2866L80.8292 46.0186C91.5504 47.0776 102.317 47.8659 113.092 47.9909L112.583 49.6263C105.64 42.3509 99.1206 34.3062 91.4721 27.7704L92.8701 27.4606C91.9581 29.4801 90.7235 31.3377 89.2148 32.9605C88.8229 33.3628 88.0301 32.9448 88.3291 32.3991L88.321 32.4166Z" fill="#6347ED"/>
</g>
</svg>
