<svg width="115" height="78" viewBox="0 0 115 78" fill="none" xmlns="http://www.w3.org/2000/svg">
<path d="M0.285175 25.9769C13.1733 48.2405 38.5175 60.9137 64.0458 58.6172C71.0089 57.9882 78.7066 56.4851 84.9025 53.1165C85.7298 52.6651 84.9606 51.459 84.144 51.721C80.1379 53.0026 76.3087 54.5619 72.1873 55.4704C68.2784 56.335 64.3009 56.8544 60.301 57.0226C52.1881 57.3713 44.0806 56.2188 36.3864 53.623C21.7714 48.645 9.26075 38.48 0.911475 25.5243C0.642446 25.1116 0.0493549 25.5567 0.289677 25.9752L0.285175 25.9769Z" fill="#6347ED"/>
<path d="M0.394832 26.1309C1.83178 29.4045 5.28615 31.5511 7.9208 33.8015C10.807 36.3376 13.8594 38.678 17.0575 40.8073C22.8917 44.5617 29.264 47.405 35.9549 49.2392C43.2721 51.2488 50.8777 51.9993 58.4465 51.4584C66.0524 50.9107 74.4673 49.3322 81.1538 45.5057C81.8804 45.0872 81.2107 44.0492 80.4869 44.2711C73.0891 46.5816 66.0868 48.9998 58.2748 49.5739C44.159 50.6195 30.0807 47.1013 18.1161 39.5383C15.1355 37.6195 12.2854 35.5052 9.58468 33.2091C6.74869 30.8342 3.31913 28.6988 1.07314 25.7616C0.813305 25.4276 0.212525 25.7163 0.394832 26.1309Z" fill="#6347ED"/>
<path d="M84.0487 52.343C84.9375 54.3012 85.8553 56.1868 86.5477 58.2244C86.5976 58.3528 86.6761 58.4681 86.7774 58.5616C86.8786 58.655 86.9998 58.7241 87.1318 58.7635C87.2638 58.803 87.4031 58.8118 87.539 58.7892C87.6749 58.7667 87.8038 58.7134 87.916 58.6334C92.0311 55.7883 95.5941 52.1076 99.263 48.7212C103.017 45.2462 106.803 41.8308 110.54 38.3519C110.683 38.2221 110.784 38.0523 110.829 37.8647C110.874 37.677 110.862 37.4801 110.793 37.2996C110.725 37.119 110.604 36.9631 110.446 36.8522C110.288 36.7412 110.101 36.6803 109.908 36.6774C99.0588 36.3051 88.2249 36.1227 77.3668 36.4482C77.229 36.4628 77.0963 36.5086 76.9788 36.582C76.8612 36.6555 76.762 36.7546 76.6884 36.8721C76.6148 36.9896 76.5689 37.1222 76.5542 37.26C76.5394 37.3978 76.5562 37.5372 76.6032 37.6676C77.4595 40.1936 78.4097 42.6687 79.4894 45.1052C79.987 46.2185 81.774 45.5436 81.2629 44.4354C80.1479 42.0187 79.156 39.5471 78.2912 37.0301L77.5321 38.2477C88.3013 37.9454 99.0964 37.9163 109.854 38.5494L109.461 36.8823C102.024 43.6514 94.9545 51.2176 86.8652 57.1993L88.238 57.6066C87.4703 55.528 86.3694 53.5882 84.9785 51.8632C84.616 51.4344 83.7957 51.7956 84.0555 52.361L84.0487 52.343Z" fill="#6347ED"/>
</svg>
