<svg width="60" height="60" viewBox="0 0 60 60" fill="none" xmlns="http://www.w3.org/2000/svg">
<path d="M10.3824 44.3298C9.54416 44.3298 8.98535 43.6312 8.98535 42.9327C8.98535 42.0945 9.68386 41.5357 10.3824 41.5357H21.9777C22.8159 41.5357 23.3747 42.2342 23.3747 42.9327C23.3747 43.771 22.6762 44.3298 21.9777 44.3298H10.3824ZM10.3824 37.3446C9.54416 37.3446 8.98535 36.6461 8.98535 35.9476C8.98535 35.1094 9.68386 34.5506 10.3824 34.5506H24.3526C25.1908 34.5506 25.7496 35.2491 25.7496 35.9476C25.7496 36.7858 25.0511 37.3446 24.3526 37.3446H10.3824ZM30.2201 30.3595C29.3819 30.3595 28.8231 29.661 28.8231 28.9625V26.5876C28.8231 24.7715 27.426 23.3744 25.6099 23.3744H18.6248C16.8087 23.3744 15.4117 24.7715 15.4117 26.5876V28.9625C15.4117 29.8007 14.7131 30.3595 14.0146 30.3595C13.1764 30.3595 12.6176 29.661 12.6176 28.9625V26.5876C12.6176 23.2347 15.2719 20.5804 18.6248 20.5804H25.6099C28.9628 20.5804 31.6171 23.2347 31.6171 26.5876V28.9625C31.6171 29.8007 30.9186 30.3595 30.2201 30.3595ZM21.9777 18.7643C19.3233 18.7643 17.0881 16.529 17.0881 13.8747C17.0881 11.2203 19.3233 8.98511 21.9777 8.98511C24.632 8.98511 26.8672 11.2203 26.8672 13.8747C26.8672 16.529 24.7717 18.7643 21.9777 18.7643ZM21.9777 11.7792C20.86 11.7792 19.8821 12.7571 19.8821 13.8747C19.8821 14.9923 20.86 15.9702 21.9777 15.9702C23.0953 15.9702 24.0732 14.9923 24.0732 13.8747C24.0732 12.7571 23.235 11.7792 21.9777 11.7792Z" fill="#01686F"/>
<path d="M8.00719 51.3149C4.65434 51.3149 2 48.6605 2 45.3077V8.00719C2 4.65434 4.65434 2 8.00719 2H35.9476C39.3005 2 41.9548 4.65434 41.9548 8.00719V22.1171C41.9548 22.9553 41.2563 23.5141 40.5578 23.5141C39.8593 23.5141 39.1608 22.8156 39.1608 22.1171V8.00719C39.1608 6.19107 37.7638 4.79404 35.9476 4.79404H8.00719C6.33077 4.79404 4.79404 6.33077 4.79404 8.00719V45.3077C4.79404 47.1238 6.19107 48.5208 8.00719 48.5208H24.3524C25.1906 48.5208 25.7494 49.2193 25.7494 49.9178C25.7494 50.7561 25.0509 51.3149 24.3524 51.3149H8.00719Z" fill="#01686F"/>
<path d="M42.9327 58.3C34.4108 58.3 27.5654 51.4546 27.5654 42.9328C27.5654 34.411 34.4108 27.5656 42.9327 27.5656C51.4545 27.5656 58.2999 34.411 58.2999 42.9328C58.2999 51.4546 51.4545 58.3 42.9327 58.3ZM42.9327 30.3596C35.9476 30.3596 30.3595 35.9477 30.3595 42.9328C30.3595 49.9179 35.9476 55.506 42.9327 55.506C49.9178 55.506 55.5059 49.9179 55.5059 42.9328C55.5059 36.0874 49.9178 30.3596 42.9327 30.3596Z" fill="#01686F"/>
<path d="M40.6967 49.0796C40.2776 49.0796 39.9982 48.9399 39.7188 48.6605L34.9689 43.9106C34.4101 43.3518 34.4101 42.5136 34.9689 41.9548C35.2483 41.6754 35.5277 41.5357 35.9468 41.5357C36.3659 41.5357 36.6453 41.6754 36.9247 41.9548L40.557 45.5871L47.6818 37.3446C47.9612 37.0652 48.3803 36.9255 48.7994 36.9255C49.0788 36.9255 49.4979 37.0652 49.7773 37.2049C50.0567 37.4843 50.1964 37.7637 50.1964 38.1829C50.1964 38.602 50.0567 38.8814 49.917 39.1608L41.8143 48.5208C41.3952 48.8002 41.1158 49.0796 40.6967 49.0796Z" fill="#01686F"/>
</svg>
