<svg width="60" height="60" viewBox="0 0 60 60" fill="none" xmlns="http://www.w3.org/2000/svg">
<path d="M5.6875 54.025H25.5296C25.0495 48.9045 20.8091 44.9041 15.6085 44.9041C10.408 44.9041 6.08754 48.9045 5.6875 54.025ZM15.6085 35.063C13.0483 35.063 11.0481 37.1433 11.0481 39.6235V40.2636C11.0481 42.8239 13.1283 44.8241 15.6085 44.8241C18.1688 44.8241 20.169 42.7438 20.169 40.2636V39.6235C20.249 37.1433 18.1688 35.063 15.6085 35.063Z" fill="#01686F"/>
<path d="M36.2508 16.0211C37.5765 16.0211 38.6511 14.9464 38.6511 13.6208C38.6511 12.2952 37.5765 11.2206 36.2508 11.2206C34.9252 11.2206 33.8506 12.2952 33.8506 13.6208C33.8506 14.9464 34.9252 16.0211 36.2508 16.0211Z" fill="#01686F"/>
<path d="M21.0491 28.5823V25.142C21.0491 22.1817 18.6489 19.7014 15.6085 19.7014C12.5682 19.7014 10.168 22.1017 10.168 25.142V28.5823" stroke="#01686F" stroke-width="2" stroke-miterlimit="10" stroke-linecap="round" stroke-linejoin="round"/>
<path d="M5.52741 28.5824V25.142C5.52741 19.6214 10.0079 15.0609 15.6085 15.0609C21.209 15.0609 25.6895 19.5414 25.6895 25.142V28.5824M25.6095 28.8224H5.60742C3.12716 28.8224 1.12695 30.8226 1.12695 33.2228V49.7045C1.12695 52.1048 3.12716 54.025 5.60742 54.025H25.6095C28.0898 54.025 30.09 52.1048 30.09 49.7045V33.2228C30.09 30.8226 28.0898 28.8224 25.6095 28.8224ZM58.0929 30.1825L45.7716 17.8612C46.8917 14.7409 46.2517 11.0605 43.6914 8.58027C40.331 5.13991 34.7305 5.13991 31.2901 8.58027C27.8497 12.0206 27.8497 17.6212 31.2901 21.0616C33.7704 23.5418 37.4507 24.2619 40.5711 23.1418L45.8516 28.4223H49.372V31.9427H52.8923V35.4631H58.1729V30.1825H58.0929Z" stroke="#01686F" stroke-width="2" stroke-miterlimit="10" stroke-linecap="round" stroke-linejoin="round"/>
<path d="M35.2104 12.5007C30.97 8.26023 24.0893 8.26023 19.8488 12.5007C17.1286 15.221 15.6084 18.9013 15.6084 22.7417V22.9818" stroke="#01686F" stroke-width="2" stroke-miterlimit="10" stroke-linecap="round" stroke-linejoin="round"/>
</svg>
