<svg width="60" height="54" viewBox="0 0 60 54" fill="none" xmlns="http://www.w3.org/2000/svg">
<path d="M27 53.1C25.6 53.1 24.3 52.6 23.4 51.6C22.5 50.7 21.9 49.4 21.9 48.1V47.2H21C19.7 47.2 18.5 46.7 17.6 45.7C16.7 44.8 16.2 43.6 16.1 42.4V41.5H15.2C14 41.5 12.9 41 11.9 40.1C10.3 38.5 10 36.1 11.2 34.1L11.6 33.5L4.4 26.7C1.6 23.9 0 20.1 0 16C0 11.9 1.6 8.1 4.5 5.2C7.3 2.3 11.1 0.7 15.2 0.7C19.3 0.7 23.1 2.3 25.9 5.1L29.3 8.4L33 4.8C36.3 1.7 40.2 0 44.2 0C50.4 0 56.3 4 59 9.9C61.6 15.7 60.3 22.1 55.5 27.3L54.6 28.2L55.8 29.4C56.8 30.4 57.3 31.7 57.3 33.1C57.3 34.4 56.8 35.8 55.8 36.8C54.8 37.8 53.5 38.4 52.2 38.4H51.3V39.3C51.3 40.6 50.7 41.9 49.8 42.8C48.8 43.8 47.5 44.4 46.1 44.4H45.2V45.3C45.2 46.6 44.7 47.8 43.7 48.7C42.7 49.7 41.4 50.3 40 50.3C38.7 50.3 37.3 49.8 36.3 48.8L34.9 47.4L30.7 51.6C29.7 52.6 28.4 53.1 27 53.1ZM27.5 40.6C27.8 40.6 28 40.7 28.2 40.9C28.4 41.1 28.5 41.3 28.5 41.6C28.5 41.9 28.4 42.1 28.2 42.3L24.8 45.7C24.2 46.3 23.8 47.1 23.8 47.9C23.8 48.7 24.1 49.6 24.7 50.1C25.2 50.7 26 51 27 51C27.9 51 28.7 50.7 29.2 50L33.4 45.8L33.1 45.2C32 43.2 32.4 40.6 34 39.1C34.6 38.5 35.2 38.1 35.8 37.9L37 37.5L36.2 36.5C34.8 34.6 35.1 31.5 36.8 29.9L36.9 29.8C37.9 28.8 39.1 28.3 40.6 28.3C41.1 28.3 41.9 28.4 42.5 28.7L43.4 29.1L43.7 28.1C44 27.2 44.4 26.6 44.9 26.1C45.8 25.1 47.2 24.5 48.6 24.5C50 24.5 51.4 25.1 52.3 26L53.1 26.8L54 25.9C56.6 23.3 58.1 19.8 58.1 16C58.1 12.3 56.7 8.7 54 6.1C51.5 3.4 48 2 44.3 2C40.6 2 37 3.4 34.4 6.1L30.7 9.8L37.1 16C38.1 17 38.8 18.4 38.9 20.1C38.9 21.7 38.3 23.2 37.2 24.2C36.2 25.3 34.7 25.9 33.1 25.9C31.5 25.9 30.1 25.3 29.1 24.2L26.4 21.5L13.2 34.6C12.6 35.2 12.3 35.9 12.4 36.6V36.7C12.4 37.6 12.9 38.3 13.3 38.7C13.8 39.2 14.5 39.5 15.3 39.5C16.1 39.5 16.8 39.2 17.3 38.7L20.9 35.1C21.1 34.9 21.3 34.8 21.6 34.8C21.9 34.8 22.1 34.9 22.3 35.1C22.5 35.3 22.6 35.5 22.6 35.8C22.6 36.1 22.5 36.3 22.3 36.5L19 39.9C18.4 40.5 18.1 41.4 18.1 42.2C18.1 43 18.4 43.8 19 44.3C19.4 44.8 20.3 45.1 21.2 45.1C22.1 45.1 22.9 44.8 23.4 44.1L26.8 40.7C27.1 40.7 27.3 40.6 27.5 40.6ZM37.8 39.7C36.9 39.7 36.1 40 35.5 40.7C34.9 41.4 34.5 42.1 34.5 43C34.5 43.9 34.8 44.7 35.5 45.3L37.6 47.4C38.2 48 39 48.4 39.9 48.4C40.8 48.4 41.6 48.1 42.2 47.4C42.8 46.7 43.2 46 43.2 45.1C43.2 44.2 42.9 43.4 42.2 42.8L40.1 40.7C39.5 40 38.7 39.7 37.8 39.7ZM40.6 30.4C39.7 30.4 38.9 30.7 38.3 31.4C37.7 32.1 37.3 32.8 37.3 33.7C37.3 34.6 37.6 35.4 38.3 36L43.8 41.5C44.4 42.1 45.2 42.5 46.1 42.5C47 42.5 47.8 42.2 48.4 41.5C49 40.9 49.4 40.1 49.4 39.2C49.4 38.3 49.1 37.5 48.4 36.9L43 31.5C42.3 30.8 41.5 30.4 40.6 30.4ZM48.8 26.5C47.9 26.5 47.1 26.8 46.5 27.5C45.9 28.1 45.5 28.9 45.5 29.8C45.5 30.7 45.8 31.5 46.5 32.1L49.8 35.4C50.4 36 51.2 36.4 52.1 36.4C53 36.4 53.8 36.1 54.4 35.4C55 34.8 55.4 34 55.4 33.1C55.4 32.2 55.1 31.4 54.4 30.8L51 27.5C50.6 26.9 49.7 26.5 48.8 26.5ZM15.2 2.7C11.7 2.7 8.3 4.1 5.8 6.5C3.3 9.1 2 12.3 2 15.8C2 19.4 3.4 22.7 5.9 25.1L13.1 31.9L24.4 20.6C24.9 20.1 25.7 19.8 26.5 19.8C27.4 19.8 28.1 20.1 28.6 20.6L30.6 22.6C31.3 23.3 32.2 23.7 33.2 23.7C34.2 23.7 35.2 23.3 35.9 22.5C36.6 21.8 37 20.9 37 19.9C37 18.9 36.6 17.9 35.8 17.3L24.5 6.6C22.1 4.1 18.8 2.7 15.2 2.7Z" fill="#01686F"/>
</svg>
