<svg width="63" height="63" viewBox="0 0 63 63" fill="none" xmlns="http://www.w3.org/2000/svg">
<circle cx="31.1582" cy="31.1582" r="31.1582" fill="#FF9A03"/>
<path d="M44.6854 30.546C44.5573 28.5801 43.686 26.7365 42.2484 25.3895C40.8107 24.0425 38.9144 23.2929 36.9443 23.2929C34.9742 23.2929 33.0779 24.0425 31.6402 25.3895C30.2026 26.7365 29.3312 28.5801 29.2031 30.546H44.6854Z" fill="white"/>
<path d="M29.2031 31.4128C29.3183 33.3888 30.1844 35.246 31.6241 36.6043C33.0638 37.9626 34.9682 38.7191 36.9476 38.7191C38.9269 38.7191 40.8313 37.9626 42.2711 36.6043C43.7108 35.246 44.5769 33.3888 44.692 31.4128H29.2031Z" fill="white"/>
<path d="M21.6028 18.6948C20.2827 18.6983 19.0176 19.2237 18.0836 20.1565C17.1495 21.0894 16.6224 22.3538 16.6172 23.6738V38.7358C16.6172 40.0563 17.1418 41.3227 18.0755 42.2565C19.0093 43.1902 20.2757 43.7148 21.5962 43.7148C22.9168 43.7148 24.1832 43.1902 25.1169 42.2565C26.0507 41.3227 26.5753 40.0563 26.5753 38.7358V23.6738C26.5718 22.3555 26.047 21.0921 25.1154 20.1593C24.1839 19.2264 22.9211 18.7 21.6028 18.6948ZM25.5111 31.4774H17.6879V23.8381C17.8055 22.8834 18.2681 22.0048 18.9886 21.3676C19.709 20.7304 20.6377 20.3786 21.5995 20.3786C22.5613 20.3786 23.49 20.7304 24.2105 21.3676C24.931 22.0048 25.3936 22.8834 25.5111 23.8381V31.4774Z" fill="white"/>
</svg>
