<svg width="84" height="84" viewBox="0 0 84 84" fill="none" xmlns="http://www.w3.org/2000/svg">
<circle cx="41.5442" cy="41.5442" r="41.5442" fill="#6347ED"/>
<path d="M26.393 50.061C26.1405 51.0015 25.9054 51.968 25.679 52.9433C26.6281 52.6821 27.5947 52.4469 28.5699 52.238C28.8225 51.2975 29.0924 50.3745 29.4407 49.4776C28.3871 49.6605 27.3857 49.852 26.393 50.061ZM50.8793 38.3142L48.4237 35.8586C47.5529 36.0241 46.6821 36.1895 45.8114 36.3724L49.7299 40.2909C49.1226 41.2272 48.4256 42.1021 47.6487 42.9032L42.0931 37.3477C41.3269 37.6002 40.578 37.8701 39.8552 38.2184L46.0726 44.3661C45.6184 44.7047 45.1445 45.0158 44.6532 45.2979C44.1395 45.5852 43.617 45.8377 43.0771 46.0816L36.8598 39.8642C36.3256 40.2517 35.8219 40.6796 35.3533 41.1442C35.3098 41.1442 35.2662 41.2487 35.214 41.2923L40.8479 46.9436C39.6451 47.3561 38.4214 47.7049 37.1819 47.9886L33.1415 43.9482C32.7497 44.5838 32.384 45.2456 32.0444 45.9422L34.6567 48.5546C33.3505 48.8071 32.0444 49.0335 30.7121 49.2686C30.3986 50.1394 30.1199 51.0624 29.8413 52.0029C35.7277 50.8534 41.8667 50.2613 46.8215 47.5009C51.245 45.0279 53.6919 40.2212 55.3377 34.6134C54.3102 34.8311 53.2739 35.0227 52.2377 35.2055C51.8454 36.2672 51.3918 37.3051 50.8793 38.3142ZM18.6953 52.5166L20.8723 54.6936C21.1944 54.5368 21.5253 54.4062 21.8475 54.2669L23.8068 56.2261C23.9809 55.3554 24.1551 54.4846 24.338 53.6748L24.0767 53.4135L24.4163 53.309C24.6427 52.3076 24.8778 51.3149 25.1217 50.3484C22.9074 50.8366 20.7527 51.5636 18.6953 52.5166ZM52.6557 33.9168C53.6658 33.7339 54.6759 33.5423 55.6773 33.3334C55.9298 32.3929 56.1649 31.4264 56.3826 30.4598C55.4335 30.721 54.4669 30.9474 53.4916 31.1564C53.2478 32.1143 52.9692 33.0286 52.6644 33.9255L52.6557 33.9168ZM53.8225 29.8764C54.7891 29.6587 55.7382 29.4236 56.6787 29.1449L56.7309 28.9011L56.8964 29.0753C57.6801 28.8372 58.4464 28.576 59.1952 28.2916L57.2447 26.3933C57.3318 25.9404 57.4276 25.5225 57.5059 25.0261L55.3377 22.8492C54.8849 25.2177 54.3972 27.6036 53.8225 29.8764Z" fill="white"/>
<path d="M26.393 50.061C26.1405 51.0015 25.9054 51.968 25.679 52.9433C26.6281 52.6821 27.5947 52.4469 28.5699 52.238C28.8225 51.2975 29.0924 50.3745 29.4407 49.4776C28.3871 49.6605 27.3857 49.852 26.393 50.061ZM50.8793 38.3142L48.4237 35.8586C47.5529 36.0241 46.6821 36.1895 45.8114 36.3724L49.7299 40.2909C49.1226 41.2272 48.4256 42.1021 47.6487 42.9032L42.0931 37.3477C41.3269 37.6002 40.578 37.8701 39.8552 38.2184L46.0726 44.3661C45.6184 44.7047 45.1445 45.0158 44.6532 45.2979C44.1395 45.5852 43.617 45.8377 43.0771 46.0816L36.8598 39.8642C36.3256 40.2517 35.8219 40.6796 35.3533 41.1442C35.3098 41.1442 35.2662 41.2487 35.214 41.2923L40.8479 46.9436C39.6451 47.3561 38.4214 47.7049 37.1819 47.9886L33.1415 43.9482C32.7497 44.5838 32.384 45.2456 32.0444 45.9422L34.6567 48.5546C33.3505 48.8071 32.0444 49.0335 30.7121 49.2686C30.3986 50.1394 30.1199 51.0624 29.8413 52.0029C35.7277 50.8534 41.8667 50.2613 46.8215 47.5009C51.245 45.0279 53.6919 40.2212 55.3377 34.6134C54.3102 34.8311 53.2739 35.0227 52.2377 35.2055C51.8454 36.2672 51.3918 37.3051 50.8793 38.3142ZM18.6953 52.5166L20.8723 54.6936C21.1944 54.5368 21.5253 54.4062 21.8475 54.2669L23.8068 56.2261C23.9809 55.3554 24.1551 54.4846 24.338 53.6748L24.0767 53.4135L24.4163 53.309C24.6427 52.3076 24.8778 51.3149 25.1217 50.3484C22.9074 50.8366 20.7527 51.5636 18.6953 52.5166ZM52.6557 33.9168C53.6658 33.7339 54.6759 33.5423 55.6773 33.3334C55.9298 32.3929 56.1649 31.4264 56.3826 30.4598C55.4335 30.721 54.4669 30.9474 53.4916 31.1564C53.2478 32.1143 52.9692 33.0286 52.6644 33.9255L52.6557 33.9168ZM53.8225 29.8764C54.7891 29.6587 55.7382 29.4236 56.6787 29.1449L56.7309 28.9011L56.8964 29.0753C57.6801 28.8372 58.4464 28.576 59.1952 28.2916L57.2447 26.3933C57.3318 25.9404 57.4276 25.5225 57.5059 25.0261L55.3377 22.8492C54.8849 25.2177 54.3972 27.6036 53.8225 29.8764Z" fill="white"/>
<path d="M32.3492 38.1488C27.7863 42.7291 26.0448 50.6096 24.5645 58.3944L26.7414 60.5713C28.213 52.7865 29.9459 44.8973 34.5262 40.3257C35.3915 39.4546 36.3732 38.7073 37.4433 38.1052C45.0278 33.8906 55.4162 34.7266 63.3751 30.8778L61.2068 28.7008C53.2392 32.5496 42.8508 31.7137 35.2663 35.9283C34.1962 36.5304 33.2145 37.2776 32.3492 38.1488Z" fill="white"/>
<path d="M32.3492 38.1488C27.7863 42.7291 26.0448 50.6096 24.5645 58.3944L26.7414 60.5713C28.213 52.7865 29.9459 44.8973 34.5262 40.3257C35.3915 39.4546 36.3732 38.7073 37.4433 38.1052C45.0278 33.8906 55.4162 34.7266 63.3751 30.8778L61.2068 28.7008C53.2392 32.5496 42.8508 31.7137 35.2663 35.9283C34.1962 36.5304 33.2145 37.2776 32.3492 38.1488Z" fill="white"/>
</svg>
