<svg width="116" height="87" viewBox="0 0 116 87" fill="none" xmlns="http://www.w3.org/2000/svg">
<path d="M2 63.712L2.61026 58.6357C2.80095 56.5044 3.49728 54.4493 4.64146 52.641C5.78563 50.8328 7.34463 49.3235 9.18903 48.2386C11.0334 47.1537 13.11 46.5243 15.2464 46.4028C17.3828 46.2813 19.5174 46.6712 21.4729 47.5401C23.4302 48.4081 25.5662 48.7974 27.7039 48.6758C29.8416 48.5541 31.9196 47.9251 33.7658 46.8406C35.6121 45.7562 37.1735 44.2476 38.3208 42.4397C39.468 40.6318 40.1682 38.5767 40.3632 36.4444C40.5539 34.3131 41.2502 32.258 42.3944 30.4497C43.5386 28.6415 45.0976 27.1322 46.942 26.0473C48.7864 24.9623 50.863 24.333 52.9994 24.2115C55.1358 24.09 57.2703 24.4799 59.2258 25.3488C61.1813 26.2176 63.3159 26.6075 65.4523 26.486C67.5887 26.3645 69.6653 25.7352 71.5097 24.6503C73.3541 23.5653 74.9131 22.0561 76.0573 20.2478C77.2014 18.4395 77.8978 16.3844 78.0884 14.2531C78.2835 12.1208 78.9836 10.0657 80.1309 8.25782C81.2782 6.44995 82.8396 4.94135 84.6858 3.85691C86.5321 2.77248 88.6101 2.1434 90.7478 2.02177C92.8855 1.90014 95.0215 2.28945 96.9788 3.15746L101.389 4.98825L101.667 5.12694" stroke="#3C19E8" stroke-width="3" stroke-linecap="round" stroke-linejoin="round"/>
<path d="M14.4824 84.8775L15.0927 79.8012C15.2877 77.6689 15.9879 75.6138 17.1352 73.8059C18.2824 71.998 19.8438 70.4894 21.6901 69.405C23.5363 68.3206 25.6143 67.6915 27.752 67.5698C29.8897 67.4482 32.0257 67.8375 33.983 68.7055C35.9385 69.5744 38.0731 69.9643 40.2095 69.8428C42.3459 69.7213 44.4225 69.092 46.2669 68.007C48.1113 66.9221 49.6703 65.4128 50.8145 63.6046C51.9586 61.7963 52.655 59.7412 52.8456 57.6099C53.0363 55.4786 53.7327 53.4235 54.8768 51.6152C56.021 49.8069 57.58 48.2977 59.4244 47.2127C61.2688 46.1278 63.3454 45.4985 65.4818 45.377C67.6182 45.2555 69.7528 45.6454 71.7083 46.5142C73.6656 47.3822 75.8015 47.7716 77.9393 47.6499C80.077 47.5283 82.155 46.8992 84.0012 45.8148C85.8475 44.7303 87.4089 43.2217 88.5561 41.4139C89.7034 39.606 90.4036 37.5508 90.5986 35.4186C90.7893 33.2872 91.4856 31.2321 92.6298 29.4239C93.774 27.6156 95.333 26.1064 97.1774 25.0214C99.0218 23.9365 101.098 23.3072 103.235 23.1857C105.371 23.0642 107.506 23.4541 109.461 24.3229L113.899 26.1537L114.177 26.2924" stroke="#3C19E8" stroke-width="3" stroke-linecap="round" stroke-linejoin="round"/>
<path d="M2 63.712L2.61026 58.6357C2.80095 56.5044 3.49728 54.4493 4.64146 52.641C5.78563 50.8328 7.34463 49.3235 9.18903 48.2386C11.0334 47.1537 13.11 46.5243 15.2464 46.4028C17.3828 46.2813 19.5174 46.6712 21.4729 47.5401C23.4302 48.4081 25.5662 48.7974 27.7039 48.6758C29.8416 48.5541 31.9196 47.9251 33.7658 46.8406C35.6121 45.7562 37.1735 44.2476 38.3208 42.4397C39.468 40.6318 40.1682 38.5767 40.3632 36.4444C40.5539 34.3131 41.2502 32.258 42.3944 30.4497C43.5386 28.6415 45.0976 27.1322 46.942 26.0473C48.7864 24.9623 50.863 24.333 52.9994 24.2115C55.1358 24.09 57.2703 24.4799 59.2258 25.3488C61.1813 26.2176 63.3159 26.6075 65.4523 26.486C67.5887 26.3645 69.6653 25.7352 71.5097 24.6503C73.3541 23.5653 74.9131 22.0561 76.0573 20.2478C77.2014 18.4395 77.8978 16.3844 78.0884 14.2531C78.2835 12.1208 78.9836 10.0657 80.1309 8.25782C81.2782 6.44995 82.8396 4.94135 84.6858 3.85691C86.5321 2.77248 88.6101 2.1434 90.7478 2.02177C92.8855 1.90014 95.0215 2.28945 96.9788 3.15746L101.389 4.98825L101.667 5.12694" stroke="#3C19E8" stroke-linecap="round" stroke-linejoin="round"/>
<path d="M14.4824 84.8775L15.0927 79.8012C15.2877 77.6689 15.9879 75.6138 17.1352 73.8059C18.2824 71.998 19.8438 70.4894 21.6901 69.405C23.5363 68.3206 25.6143 67.6915 27.752 67.5698C29.8897 67.4482 32.0257 67.8375 33.983 68.7055C35.9385 69.5744 38.0731 69.9643 40.2095 69.8428C42.3459 69.7213 44.4225 69.092 46.2669 68.007C48.1113 66.9221 49.6703 65.4128 50.8145 63.6046C51.9586 61.7963 52.655 59.7412 52.8456 57.6099C53.0363 55.4786 53.7327 53.4235 54.8768 51.6152C56.021 49.8069 57.58 48.2977 59.4244 47.2127C61.2688 46.1278 63.3454 45.4985 65.4818 45.377C67.6182 45.2555 69.7528 45.6454 71.7083 46.5142C73.6656 47.3822 75.8015 47.7716 77.9393 47.6499C80.077 47.5283 82.155 46.8992 84.0012 45.8148C85.8475 44.7303 87.4089 43.2217 88.5561 41.4139C89.7034 39.606 90.4036 37.5508 90.5986 35.4186C90.7893 33.2872 91.4856 31.2321 92.6298 29.4239C93.774 27.6156 95.333 26.1064 97.1774 25.0214C99.0218 23.9365 101.098 23.3072 103.235 23.1857C105.371 23.0642 107.506 23.4541 109.461 24.3229L113.899 26.1537L114.177 26.2924" stroke="#3C19E8" stroke-linecap="round" stroke-linejoin="round"/>
</svg>
