<svg width="18" height="18" viewBox="0 0 18 18" fill="none" xmlns="http://www.w3.org/2000/svg">
<path d="M17.0781 9C17.0781 9.13675 17.0238 9.2679 16.9271 9.3646C16.8304 9.4613 16.6993 9.51562 16.5625 9.51562H9.51562V16.5625C9.51562 16.6993 9.4613 16.8304 9.3646 16.9271C9.2679 17.0238 9.13675 17.0781 9 17.0781C8.86325 17.0781 8.7321 17.0238 8.6354 16.9271C8.5387 16.8304 8.48438 16.6993 8.48438 16.5625V9.51562H1.4375C1.30075 9.51562 1.1696 9.4613 1.0729 9.3646C0.9762 9.2679 0.921875 9.13675 0.921875 9C0.921875 8.86325 0.9762 8.7321 1.0729 8.6354C1.1696 8.5387 1.30075 8.48438 1.4375 8.48438H8.48438V1.4375C8.48438 1.30075 8.5387 1.1696 8.6354 1.0729C8.7321 0.9762 8.86325 0.921875 9 0.921875C9.13675 0.921875 9.2679 0.9762 9.3646 1.0729C9.4613 1.1696 9.51562 1.30075 9.51562 1.4375V8.48438H16.5625C16.6993 8.48438 16.8304 8.5387 16.9271 8.6354C17.0238 8.7321 17.0781 8.86325 17.0781 9Z" fill="black"/>
</svg>
