<svg width="18" height="18" viewBox="0 0 18 18" fill="none" xmlns="http://www.w3.org/2000/svg">
<path d="M14.748 5.23151C14.6753 5.15815 14.5887 5.09993 14.4933 5.06019C14.3979 5.02046 14.2956 5 14.1923 5C14.089 5 13.9867 5.02046 13.8913 5.06019C13.7959 5.09993 13.7093 5.15815 13.6366 5.23151L7.80544 11.0701L5.35558 8.61259C5.28003 8.53961 5.19085 8.48223 5.09313 8.44372C4.9954 8.40521 4.89105 8.38633 4.78603 8.38814C4.681 8.38996 4.57736 8.41244 4.48103 8.45431C4.3847 8.49618 4.29755 8.55661 4.22458 8.63215C4.1516 8.7077 4.09421 8.79687 4.0557 8.89459C4.01719 8.99231 3.9983 9.09666 4.00012 9.20167C4.00194 9.30669 4.02442 9.41032 4.06629 9.50665C4.10816 9.60298 4.16859 9.69012 4.24414 9.76309L7.24972 12.7685C7.32249 12.8418 7.40905 12.9001 7.50443 12.9398C7.59981 12.9795 7.70212 13 7.80544 13C7.90877 13 8.01107 12.9795 8.10645 12.9398C8.20183 12.9001 8.2884 12.8418 8.36116 12.7685L14.748 6.38201C14.8275 6.30872 14.8909 6.21977 14.9342 6.12077C14.9776 6.02176 15 5.91485 15 5.80676C15 5.69867 14.9776 5.59176 14.9342 5.49275C14.8909 5.39375 14.8275 5.3048 14.748 5.23151Z" fill="white"/>
</svg>
