<svg width="177" height="156" viewBox="0 0 177 156" fill="none" xmlns="http://www.w3.org/2000/svg">
<path opacity="0.08" d="M176.201 4.88054L172.695 149.987C172.087 150.347 171.469 150.687 170.842 150.997C158.425 157.311 142.047 156.614 131.782 147.131C119.2 135.491 119.322 115.789 112.264 100.142C109.198 93.4753 104.794 87.5132 99.3283 82.6282C93.8624 77.7431 87.4513 74.0399 80.4952 71.7496C67.6137 67.5877 53.7333 68.5397 40.2827 67.1746C26.832 65.8096 12.3879 61.1952 5.20095 49.6972C-2.84731 36.8073 0.95736 19.7697 7.66019 6.11678C8.53877 4.35324 9.45665 2.59063 10.3935 0.858086L176.201 4.88054Z" fill="url(#paint0_linear_169_17696)"/>
<defs>
<linearGradient id="paint0_linear_169_17696" x1="53.1009" y1="83.4286" x2="173.472" y2="12.0977" gradientUnits="userSpaceOnUse">
<stop stop-color="white"/>
<stop offset="1" stop-color="white" stop-opacity="0"/>
</linearGradient>
</defs>
</svg>
