<svg width="232" height="103" viewBox="0 0 232 103" fill="none" xmlns="http://www.w3.org/2000/svg">
<g opacity="0.12">
<mask id="mask0_169_17700" style="mask-type:alpha" maskUnits="userSpaceOnUse" x="0" y="0" width="232" height="103">
<rect width="231.161" height="102.658" transform="matrix(1 0 0 -1 0 103)" fill="#D9D9D9"/>
</mask>
<g mask="url(#mask0_169_17700)">
<path d="M19.0428 26.0021C21.6063 18.9654 12.7935 14.4498 8.2731 11.9409C10.0964 17.0557 13.1057 24.3622 19.0428 26.0021Z" fill="#01686F"/>
<path d="M19.4992 26.0931C22.0172 18.8281 13.6155 14.3579 8.45588 11.484C8.09058 11.3016 7.58785 11.6217 7.72458 12.0327C9.73022 17.6042 12.6027 24.591 18.8594 26.4591C19.4532 26.5957 19.728 25.6819 19.0886 25.4996C13.1971 23.814 10.553 16.964 8.63839 11.758C8.36417 11.9409 8.1813 12.1237 7.90708 12.3067C12.6558 14.9525 20.7837 19.0574 18.4945 25.8198C18.357 26.4138 19.2704 26.6872 19.4992 26.0931Z" fill="white"/>
<path d="M25.6597 33.6255C21.6424 30.3397 13.9705 27.2393 9.58164 31.9021C12.6845 36.285 21.6376 36.6435 25.9336 33.8994" fill="#01686F"/>
<path d="M26.0252 33.2595C21.6427 29.6998 13.8794 26.6908 9.26199 31.4908C9.12484 31.628 9.03327 31.9021 9.21585 32.0847C11.0868 34.5957 14.1922 35.6896 17.1612 36.0071C20.1759 36.2788 23.5565 35.9108 26.2072 34.2643C26.7099 33.9441 26.2537 33.1222 25.751 33.4424C23.3745 34.906 20.3136 35.3194 17.573 35.0475C14.8781 34.8211 11.7725 33.9099 10.0842 31.5815C10.084 31.7643 10.0382 31.9927 10.038 32.1754C14.244 27.7869 21.4135 30.6592 25.4309 33.9451C25.8417 34.3559 26.5274 33.6702 26.0252 33.2595Z" fill="white"/>
<path d="M33.1016 38.0508C36.851 33.2972 33.3872 22.9761 27.8611 21.4729C27.5829 26.772 27.7155 32.5733 32.7362 37.9597" fill="#01686F"/>
<path d="M33.4215 38.37C35.6164 35.5361 35.4367 31.6078 34.3885 28.3653C33.3859 25.2598 31.2415 21.9268 27.9076 20.9701C27.6336 20.879 27.3137 21.1076 27.2677 21.4274C27.1286 24.214 27.1264 27.0462 27.7637 29.8778C28.4922 33.0749 30.0888 35.8602 32.2796 38.2338C32.7361 38.6903 33.4218 38.0046 32.9654 37.5481C30.8202 35.2201 29.3148 32.5261 28.632 29.3747C28.0402 26.7714 28.088 24.0762 28.2271 21.381C27.9986 21.5182 27.8157 21.7011 27.5872 21.8383C30.5557 22.7039 32.4263 25.7631 33.3834 28.5488C34.2948 31.3803 34.6117 35.0801 32.6456 37.594C32.3711 38.1424 33.0557 38.8271 33.4215 38.37Z" fill="white"/>
<path d="M38.7191 40.9243C33.1027 38.0508 27.0255 40.2938 23.6414 45.2298C28.8001 49.3828 36.158 44.9461 39.0846 40.8327" fill="#01686F"/>
<path d="M38.9935 40.4673C36.2537 39.099 33.1477 38.7359 30.2235 39.6518C27.345 40.5219 24.9224 42.488 23.2304 44.9103C23.1389 45.0931 23.1387 45.3672 23.2756 45.5042C28.5713 49.7027 36.0658 45.7684 39.4955 40.9694C39.8614 40.4209 38.9938 40.0105 38.6737 40.5132C35.6098 44.7638 28.7092 48.5606 23.9614 44.8184C23.9612 45.0012 24.0067 45.2295 24.0066 45.4122C25.5614 43.2184 27.7554 41.3895 30.4055 40.5652C33.1013 39.6952 35.9332 40.0585 38.4447 41.2899C39.0383 41.6092 39.5414 40.7409 38.9935 40.4673Z" fill="white"/>
<path d="M45.8894 42.0604C48.405 37.8102 46.5376 30.7312 41.4693 27.8572C38.7691 34.3916 41.4616 37.9069 45.6153 42.0606" fill="#01686F"/>
<path d="M46.3003 42.2887C49.182 37.216 46.5379 30.2746 41.698 27.4462C41.424 27.2637 41.1041 27.4923 41.0125 27.7664C39.9599 30.371 39.5008 33.2949 40.5494 35.9892C41.5068 38.5009 43.4238 40.5093 45.2952 42.3808C45.7517 42.8372 46.4374 42.1515 45.981 41.6951C44.2464 39.9605 42.375 38.0891 41.4632 35.7144C40.4602 33.1571 40.9648 30.4616 41.9716 27.9941C41.7431 28.1313 41.5147 28.1772 41.2862 28.3144C45.6695 30.8691 48.1313 37.2624 45.4784 41.8325C45.1582 42.3352 46.0258 42.837 46.3003 42.2887Z" fill="white"/>
<path d="M52.1919 43.5175C47.5788 42.6532 38.3932 47.8221 37.2476 52.4366C45.0585 52.9331 47.8019 49.642 52.3284 44.1113" fill="#01686F"/>
<path d="M52.2838 43.0607C49.178 42.5149 45.7509 43.9337 43.1002 45.4888C40.4953 46.9983 37.5244 49.2389 36.6998 52.3458C36.6538 52.6656 36.8363 52.9395 37.1561 52.9849C40.2622 53.1653 43.4144 52.7517 46.0651 51.1052C48.6702 49.413 50.6364 46.8991 52.6024 44.5679C53.0139 44.0651 52.3292 43.3804 51.9177 43.8832C50.0431 46.123 48.2597 48.5454 45.7918 50.1918C43.1867 51.884 40.1715 52.2517 37.1568 52.0713C37.2936 52.2996 37.4762 52.4822 37.6131 52.7105C38.3004 49.9235 41.1799 47.8657 43.5563 46.4934C45.9784 45.0755 49.1314 43.657 52.0089 44.1573C52.6941 44.1111 52.9233 43.1516 52.2838 43.0607Z" fill="white"/>
<path d="M59.9562 46.0697C62.4726 40.8145 57.1791 33.7839 52.7957 31.4119C51.8777 37.0769 54.934 42.6019 59.4539 45.8417" fill="#01686F"/>
<path d="M60.3669 46.2976C61.6938 43.4188 60.9654 40.2217 59.46 37.5277C57.9546 34.8338 55.7182 32.4144 53.0242 30.9091C52.7959 30.7722 52.3847 30.9096 52.3387 31.2293C51.4663 37.1228 54.4768 42.7848 59.1793 46.2072C59.6814 46.6179 60.1389 45.704 59.6367 45.3846C55.2995 42.236 52.4258 36.8936 53.2065 31.4571C52.978 31.5943 52.7496 31.6402 52.5211 31.7774C54.9867 33.1459 57.0407 35.2913 58.4093 37.6656C59.8235 40.0855 60.7348 43.0997 59.4993 45.7958C59.2705 46.3898 60.0924 46.846 60.3669 46.2976Z" fill="white"/>
<path d="M66.3932 50.9524C61.9662 45.794 53.3287 50.9625 50.4477 55.1216C55.4704 57.8585 63.1006 55.7057 66.3932 50.9524Z" fill="#01686F"/>
<path d="M66.713 50.6323C62.9249 46.2956 56.5276 48.95 52.7796 51.9677C51.7282 52.8365 50.7682 53.7965 49.9451 54.8934C49.8079 55.122 49.9447 55.4416 50.1274 55.5328C55.6067 58.4521 63.237 56.2079 66.7126 51.1805C67.0327 50.6777 66.2108 50.2216 65.8907 50.7243C62.6896 55.2948 55.6076 57.3558 50.5848 54.7102C50.6303 54.9386 50.7215 55.1212 50.767 55.3496C53.6937 51.2362 61.6914 46.4336 65.9816 51.2724C66.4381 51.7288 67.1238 51.0431 66.713 50.6323Z" fill="white"/>
<path d="M70.7747 56.0656C74.0676 51.0383 72.5669 42.2232 67.2703 39.2123C65.5296 45.5175 67.2618 50.2669 70.41 55.1523" fill="#01686F"/>
<path d="M71.1855 56.2932C74.6157 50.946 73.1607 42.0852 67.4989 38.8006C67.225 38.6181 66.8594 38.8011 66.8134 39.1209C66.0804 41.9536 65.8497 44.923 66.5327 47.8003C67.1701 50.5406 68.4929 53.052 69.9985 55.4719C70.3179 55.9741 71.1405 55.5167 70.8211 55.0145C69.4067 52.7772 68.1295 50.4028 67.492 47.7539C66.8089 44.9679 66.9939 42.1356 67.7268 39.3942C67.4983 39.5315 67.2699 39.5773 67.0414 39.7145C72.2466 42.7254 73.4736 50.9926 70.3636 55.9284C69.9978 56.3855 70.8197 56.8417 71.1855 56.2932Z" fill="white"/>
<path d="M74.2862 63.874C70.9094 59.2172 64.0137 56.6187 58.9402 60.5968C63.0935 65.2073 68.7574 65.8425 74.2403 64.1024" fill="#01686F"/>
<path d="M74.6971 63.6453C71.0009 58.669 63.831 56.1621 58.6203 60.2773C58.3918 60.4145 58.4829 60.7799 58.6198 61.0082C60.5824 63.1536 63.0935 64.7505 66.0167 65.2964C68.8484 65.8424 71.7265 65.5205 74.4223 64.6505C75.0163 64.4216 74.7886 63.5539 74.1946 63.6913C71.6359 64.5156 68.8948 64.8831 66.2458 64.337C63.5054 63.7909 61.1768 62.3766 59.3055 60.3225C59.3054 60.5052 59.3051 60.7793 59.3049 61.0533C64.0128 57.3496 70.5889 59.8113 73.8745 64.1941C74.1939 64.605 75.0622 64.1018 74.6971 63.6453Z" fill="white"/>
<path d="M76.7943 69.1249C76.5707 62.8669 78.4485 56.4246 83.6132 52.8119C86.9897 57.7428 83.4652 67.0185 77.5716 68.1651" fill="#01686F"/>
<path d="M77.2511 69.1248C77.073 63.1866 78.768 56.8357 83.7956 53.1775C83.5673 53.132 83.3846 53.0407 83.1563 52.9952C86.3959 57.7891 83.2373 66.4251 77.3893 67.6173C76.7954 67.7548 77.023 68.7139 77.617 68.5764C83.9675 67.2468 87.5378 57.834 83.9789 52.5378C83.842 52.3095 83.5223 52.1727 83.3395 52.3556C78.0376 56.1968 76.114 62.7762 76.2919 69.0799C76.337 69.7651 77.2506 69.7644 77.2511 69.1248Z" fill="white"/>
<path d="M87.6106 82.1357C82.9998 78.3478 79.943 73.4624 77.4347 68.1197C75.1544 63.2794 73.3311 58.1646 70.2283 53.7817C66.7147 48.8967 61.7837 45.6115 56.0294 43.8801C52.6042 42.832 48.9958 42.3323 45.5248 41.5128C42.4647 40.8299 39.4048 39.9643 36.4365 38.8246C33.2855 37.5937 30.2262 35.9059 27.5784 33.8066C24.474 31.3423 21.8269 28.3294 19.4997 25.0879C18.9065 24.2205 17.5355 25.0437 18.083 25.8656C21.9616 31.3899 26.7544 36.0912 32.8733 39.0101C38.7182 41.8378 45.1581 43.1575 51.4609 44.4317C54.9321 45.1599 58.3117 46.0709 61.3709 47.8501C63.8366 49.2186 66.0278 51.0441 67.8533 53.2354C71.2761 57.3897 73.2365 62.4586 75.3798 67.2534C78.0702 73.3268 81.3548 78.9886 86.5134 83.2329C87.2895 83.9175 88.4323 82.7746 87.6106 82.1357Z" fill="white"/>
<path d="M24.8836 33.3056C22.7817 34.0381 20.3158 32.9437 18.3064 32.3057C15.7033 31.4398 12.8713 31.1679 10.1302 31.6268C9.58196 31.7186 9.80978 32.4949 10.358 32.4031C13.1449 31.8985 15.9767 32.3532 18.6254 33.2647C20.6349 33.9027 23.0095 34.8145 25.1114 34.082C25.5683 33.8989 25.3405 33.1225 24.8836 33.3056Z" fill="white"/>
<path d="M38.0799 40.6508C35.7038 41.5662 33.191 42.0706 30.8151 42.8033C28.5762 43.4903 26.3372 44.4513 24.0527 45.0012C23.5501 45.1386 23.7779 45.915 24.2805 45.7776C26.6107 45.182 28.804 44.2667 31.0429 43.5797C33.5102 42.847 35.9316 42.3426 38.3077 41.4272C38.7646 41.2441 38.5368 40.4677 38.0799 40.6508Z" fill="white"/>
<path d="M18.9976 24.7682C17.309 22.7139 16.2145 20.3393 14.6173 18.1936C13.0658 16.0935 11.0116 14.3136 9.18579 12.4878C8.82063 12.1226 8.22633 12.7169 8.63721 13.0363C10.5543 14.9534 12.6998 16.8247 14.2969 19.0618C15.7114 21.1163 16.8517 23.3537 18.449 25.3167C18.7227 25.7733 19.317 25.179 18.9976 24.7682Z" fill="white"/>
<path d="M50.9135 43.5185C49.0391 45.4842 46.4344 46.6282 44.1949 48.1373C42.1839 49.5093 40.1728 51.0639 37.7968 51.888C37.3399 52.0711 37.4763 52.8475 38.0246 52.6644C40.4463 51.7946 42.5031 50.2856 44.6055 48.8222C46.8907 47.2673 49.5867 46.1233 51.5526 44.0661C51.8269 43.7005 51.2335 43.1071 50.9135 43.5185Z" fill="white"/>
<path d="M65.5713 50.4958C60.3632 51.2307 55.7013 54.5232 50.448 54.6643C49.8998 54.6647 49.8992 55.487 50.4473 55.4865C55.792 55.3454 60.5453 52.0528 65.7991 51.2722C66.3016 51.2261 66.0738 50.4497 65.5713 50.4958Z" fill="white"/>
<path d="M60.0484 45.4299C58.636 40.6346 56.264 36.2511 53.4807 32.0964C53.207 31.6398 52.5215 32.0514 52.7952 32.508C55.5328 36.6171 57.8592 40.955 59.2717 45.6589C59.4083 46.1613 60.1851 45.9323 60.0484 45.4299Z" fill="white"/>
<path d="M45.9366 41.3754C45.8032 36.6705 43.8422 32.4237 41.9726 28.1769C41.7446 27.6746 41.0591 28.0862 41.2871 28.5886C43.1111 32.6984 45.0265 36.8081 45.1601 41.3303C45.1597 41.8785 45.9819 41.8778 45.9366 41.3754Z" fill="white"/>
<path d="M33.1494 37.0911C33.1535 31.7922 31.3304 26.4034 28.5017 21.9289C28.228 21.4723 27.5425 21.884 27.8162 22.3406C30.5993 26.678 32.3311 31.9756 32.3728 37.1374C32.3268 37.6399 33.149 37.6393 33.1494 37.0911Z" fill="white"/>
<path d="M73.8754 63.2802C69.4457 61.5934 64.7417 60.181 59.991 60.1846C59.4428 60.185 59.4422 61.0073 59.9904 61.0069C64.6954 61.0489 69.3537 62.4158 73.692 64.1026C74.1487 64.285 74.3777 63.5082 73.8754 63.2802Z" fill="white"/>
<path d="M71.2327 54.6945C71.5542 52.3646 70.9165 49.9897 70.3244 47.7518C70.0056 46.5187 69.7324 45.3312 69.3679 44.1438C68.9578 42.8194 68.4563 41.4951 67.9549 40.1708C67.7725 39.7141 66.9501 39.8974 67.1781 40.3998C67.634 41.5871 68.1356 42.8201 68.5457 44.0531C68.9103 45.2405 69.1834 46.428 69.5022 47.6611C70.0487 49.8533 70.7778 52.2281 70.5019 54.5123C70.4102 54.9692 71.1866 55.197 71.2327 54.6945Z" fill="white"/>
<path d="M83.1106 53.4064C82.4214 58.5688 79.4946 62.865 77.0244 67.3435C76.75 67.8005 77.4806 68.1654 77.7093 67.7541C80.1795 63.2756 83.1521 58.8423 83.8413 53.6799C83.9788 53.086 83.2024 52.8582 83.1106 53.4064Z" fill="white"/>
<path d="M214.105 15.1634C220.5 16.5289 224.391 4.87743 225.4 0.582727C220.648 2.32222 212.74 9.226 214.105 15.1634Z" fill="#01686F"/>
<path d="M214.014 15.62C217.668 16.3481 220.365 13.3768 222.012 10.5434C223.841 7.52707 225.077 4.10011 225.902 0.71915C225.948 0.399354 225.629 -0.0115212 225.309 0.125765C222.11 1.3159 219.231 3.55644 216.99 6.16193C214.796 8.63034 212.875 11.9208 213.649 15.3462C213.785 15.9399 214.745 15.7108 214.608 15.1171C213.925 11.9657 215.938 8.85786 217.949 6.57231C220.007 4.24105 222.658 2.13773 225.582 1.03916C225.4 0.856576 225.171 0.628352 224.989 0.445772C224.256 3.55258 223.111 6.61403 221.602 9.40167C220.138 12.0522 217.714 15.3888 214.289 14.7062C213.604 14.5697 213.375 15.5291 214.014 15.62Z" fill="white"/>
<path d="M202.178 21.5219C205.326 26.1332 214.14 28.9129 218.027 24.0222C215.517 21.5117 206.701 20.011 203.229 21.0187" fill="#01686F"/>
<path d="M201.721 21.796C205.006 26.6356 214.003 29.6892 218.301 24.387C218.484 24.2042 218.53 23.8844 218.302 23.6562C216.43 21.8761 213.507 21.1474 211.041 20.6925C208.483 20.2377 205.56 19.7831 203.001 20.516C202.407 20.6535 202.635 21.6126 203.229 21.4751C205.605 20.8337 208.391 21.2427 210.766 21.6977C212.136 21.9707 213.461 22.2895 214.785 22.7909C215.79 23.1556 216.84 23.6573 217.57 24.3876C217.57 24.2049 217.571 23.9308 217.571 23.6567C213.73 28.4104 205.555 25.6302 202.498 21.2929C202.27 20.7906 201.402 21.2938 201.721 21.796Z" fill="white"/>
<path d="M199.027 21.2044C203.78 18.46 210.092 8.67959 204.568 3.88742C199.265 9.64719 197.526 12.9375 199.759 20.473" fill="#01686F"/>
<path d="M199.255 21.6157C201.677 20.1978 203.597 17.9123 205.015 15.5815C206.479 13.205 207.577 10.2807 207.123 7.44884C206.85 5.89592 206.12 4.52608 204.933 3.52203C204.751 3.33945 204.431 3.29402 204.202 3.52259C202.054 5.85393 199.859 8.32234 198.852 11.338C197.844 14.3537 198.39 17.5509 199.256 20.5194C199.392 21.1131 200.352 20.884 200.215 20.2903C199.395 17.4587 198.849 14.4443 199.765 11.6114C200.727 8.7328 202.875 6.40146 204.887 4.20727C204.704 4.20741 204.43 4.20762 204.156 4.20783C206.849 6.62681 206.39 10.2816 205.063 13.2518C203.69 16.1764 201.495 19.1016 198.753 20.7482C198.25 21.0683 198.752 21.9359 199.255 21.6157Z" fill="white"/>
<path d="M188.106 24.5473C193.408 21.5283 200.756 29.4253 202.306 33.718C197.419 32.5798 189.107 30.8503 187.238 24.959" fill="#01686F"/>
<path d="M188.38 25.0043C191.167 23.4947 194.318 25.1824 196.509 26.9166C198.701 28.7421 200.891 31.1158 201.849 33.8102C202.032 33.6273 202.26 33.3987 202.443 33.2159C199.611 32.5785 196.78 31.9412 194.131 30.7555C191.391 29.57 188.743 27.7448 187.695 24.7764C187.467 24.1827 186.553 24.4575 186.735 25.0055C188.832 31.2164 196.505 32.855 202.168 34.1297C202.488 34.1751 202.854 33.9008 202.762 33.5354C201.668 30.5213 199.295 27.7824 196.739 25.8658C194.273 23.9491 190.849 22.4443 187.832 24.0911C187.284 24.4569 187.786 25.3245 188.38 25.0043Z" fill="white"/>
<path d="M183.445 27.4748C185.96 24.2295 189.068 22.3086 188.98 17.6493C188.845 15.2283 187.979 12.0771 186.108 10.4797C182.861 15.0045 180.206 21.6759 183.948 26.4237" fill="#01686F"/>
<path d="M183.81 27.8401C185.776 25.3262 188.518 23.2228 189.252 20.0246C189.664 18.3341 189.483 16.507 189.027 14.8629C188.572 13.1274 187.797 11.4378 186.427 10.2512C186.199 10.023 185.833 10.1146 185.696 10.3431C182.312 15.0051 179.703 21.8135 183.582 26.881C183.993 27.3831 184.633 26.6518 184.268 26.1952C180.663 21.493 183.454 15.0499 186.472 10.845C186.244 10.8909 185.97 10.8911 185.741 10.9369C186.974 12.078 187.704 13.7219 188.113 15.3204C188.523 16.9189 188.659 18.609 188.201 20.1624C187.377 22.9952 184.863 24.9614 183.079 27.2011C182.759 27.6125 183.398 28.3429 183.81 27.8401Z" fill="white"/>
<path d="M178.918 34.2848C184.675 32.2704 192.347 34.914 195.403 40.4389C189.601 41.2199 180.831 41.4094 178.598 34.422" fill="#01686F"/>
<path d="M179.054 34.6954C184.811 32.7724 191.981 35.2793 194.946 40.6216C195.083 40.3931 195.129 40.1646 195.266 39.9361C189.601 40.6714 181.242 40.9062 179.009 34.2843C178.781 33.6906 177.867 33.9654 178.049 34.5134C180.465 41.7747 189.19 41.7223 195.494 40.8952C195.814 40.8493 195.951 40.4381 195.814 40.2098C192.621 34.4565 184.995 31.7673 178.826 33.8276C178.187 34.0108 178.46 34.9242 179.054 34.6954Z" fill="white"/>
<path d="M175.395 40.8191C175.901 36.2963 173.394 29.2179 165.995 27.1223C166.128 33.0149 168.727 39.4538 174.526 41.4136" fill="#01686F"/>
<path d="M175.898 40.7733C176.219 37.9865 175.445 35.1093 174.031 32.6893C172.297 29.6758 169.421 27.6224 166.133 26.6199C165.859 26.5288 165.493 26.8032 165.493 27.0772C165.671 33.1069 168.315 39.6828 174.389 41.8251C174.983 42.053 175.212 41.0936 174.618 40.8656C169.001 38.8143 166.585 32.558 166.452 27.0308C166.224 27.168 166.041 27.3509 165.812 27.4881C171.521 29.1739 175.491 34.6981 174.847 40.7284C174.892 41.4136 175.806 41.4129 175.898 40.7733Z" fill="white"/>
<path d="M173.013 48.9529C175.986 44.4283 186.08 46.3848 188.589 50.4484C182.466 52.8285 178.034 54.2479 173.15 49.0898" fill="#01686F"/>
<path d="M173.424 49.1809C175.025 46.8499 178.451 46.6189 181.009 46.9824C183.567 47.3459 186.718 48.3941 188.178 50.677C188.315 50.4485 188.361 50.22 188.498 49.9915C185.985 50.9527 183.289 52.0968 180.548 52.0989C177.762 52.1467 175.433 50.7324 173.516 48.724C173.06 48.2675 172.374 48.9533 172.83 49.4097C174.839 51.5095 177.35 53.015 180.319 53.0584C183.243 53.0561 186.076 51.9576 188.772 50.9049C189.046 50.8133 189.274 50.4934 189.092 50.2195C187.814 48.2105 185.486 47.0703 183.248 46.4782C180.827 45.7948 178.041 45.5686 175.665 46.484C174.477 46.9417 173.38 47.6735 172.648 48.7703C172.237 49.2731 173.059 49.7293 173.424 49.1809Z" fill="white"/>
<path d="M170.128 57.4053C172.279 52.2418 166.485 43.7041 161.598 42.109C162.553 47.6356 163.004 55.3095 168.986 58.0914" fill="#01686F"/>
<path d="M170.585 57.4966C171.821 54.4351 170.499 50.8274 168.902 48.1335C167.26 45.3939 164.795 42.655 161.69 41.5611C161.325 41.47 161.05 41.8357 161.096 42.1554C162.142 48.0473 162.547 55.4929 168.757 58.4116C169.305 58.6853 169.809 57.817 169.215 57.589C163.324 54.8071 163.056 47.4985 162.055 41.9263C161.872 42.1091 161.644 42.3377 161.461 42.5206C164.292 43.5233 166.529 46.1254 168.034 48.6366C169.54 51.1479 170.77 54.3902 169.626 57.269C169.397 57.863 170.356 58.0906 170.585 57.4966Z" fill="white"/>
<path d="M165.966 65.3115C170.582 62.156 177.48 62.2877 181.131 66.9443C177.841 68.6827 168.474 71.1109 166.696 66.3159" fill="#01686F"/>
<path d="M166.194 65.7224C170.719 62.7497 177.251 62.7903 180.811 67.2643C180.856 67.0358 180.857 66.7617 180.902 66.5333C178.709 67.7227 176.059 68.3642 173.546 68.5946C171.354 68.779 168.065 68.6901 167.153 66.2241C166.925 65.6304 166.011 65.9052 166.193 66.4533C167.972 70.9742 174.642 69.69 178.206 68.591C179.257 68.2704 180.353 67.9041 181.359 67.3552C181.678 67.2179 181.633 66.8068 181.451 66.6242C177.663 61.8307 170.491 61.6992 165.692 64.9462C165.235 65.2206 165.691 66.0425 166.194 65.7224Z" fill="white"/>
<path d="M161.438 72.5781C163.499 66.0443 161.584 62.1173 156.928 57.7356C155.919 62.0303 155.821 70.4355 160.433 72.853" fill="#01686F"/>
<path d="M161.941 72.7145C162.765 69.973 163.133 67.0492 162.176 64.2635C161.218 61.5691 159.302 59.3779 157.293 57.4609C157.019 57.187 156.562 57.2787 156.516 57.6899C155.829 60.4769 155.781 63.4462 156.144 66.278C156.553 68.9729 157.693 71.9412 160.25 73.3096C160.798 73.5833 161.256 72.7607 160.708 72.487C158.333 71.2098 157.376 68.4241 157.013 65.8663C156.695 63.2627 156.788 60.5219 157.43 57.9633C157.156 58.0548 156.881 58.1464 156.653 58.1923C158.57 60.018 160.396 62.0265 161.307 64.5839C162.173 67.187 161.852 69.9737 161.073 72.5781C160.799 73.0351 161.712 73.3085 161.941 72.7145Z" fill="white"/>
<path d="M135.304 78.7192C138.775 80.2696 142.52 81.3631 146.403 81.2231C149.646 81.0835 152.753 80.1675 155.541 78.4752C161.345 75.0448 165.323 69.149 168.343 63.2083C171.271 57.4503 173.377 51.2362 175.072 44.9767C176.4 40.0879 178.46 35.1072 181.615 31.1306C184.495 27.5197 188.518 24.0449 193.133 22.808C199.849 21.0213 207.75 23.1622 212.962 17.4939C213.648 16.7168 214.288 15.894 214.791 15.0257C215.34 14.1117 213.924 13.3362 213.375 14.2503C211.454 17.4493 208.529 19.2788 204.875 19.9211C201.448 20.5176 197.977 20.3375 194.596 20.8883C190.256 21.5768 186.599 23.8637 183.4 26.7896C179.605 30.3099 176.907 34.743 175.076 39.4951C173.749 42.8308 172.97 46.3487 171.825 49.7756C170.863 52.8369 169.719 55.8984 168.438 58.8229C165.784 64.8547 162.353 70.9328 157.188 75.185C154.811 77.1054 152.023 78.615 149.008 79.1655C145.581 79.8533 142.11 79.3992 138.868 78.351C137.863 77.9863 136.904 77.6673 135.945 77.1656C135.123 76.8921 134.345 78.3088 135.304 78.7192Z" fill="white"/>
<path d="M224.577 0.948483C222.657 3.23396 220.782 5.56509 218.998 7.98751C217.307 10.3185 215.204 12.33 213.877 14.8435C213.603 15.3005 214.333 15.6654 214.562 15.2541C215.843 12.7863 217.854 10.8662 219.546 8.62661C221.33 6.20419 223.204 3.7817 225.216 1.49615C225.49 1.1305 224.897 0.537116 224.577 0.948483Z" fill="white"/>
<path d="M217.114 23.7491C214.647 23.8423 212.18 23.7529 209.714 23.3893C207.339 23.0257 204.918 22.4337 202.863 21.1106C202.407 20.8368 201.995 21.5224 202.452 21.7961C204.552 23.1649 207.018 23.8025 209.485 24.1661C211.997 24.5752 214.509 24.619 217.067 24.5257C217.661 24.5709 217.662 23.7487 217.114 23.7491Z" fill="white"/>
<path d="M201.941 32.7135C199.475 31.6191 197.421 29.7478 195.183 28.3334C192.946 26.8277 190.663 25.4591 188.06 24.7759C187.558 24.6392 187.329 25.4159 187.831 25.5526C190.48 26.2814 192.763 27.6501 195 29.1558C197.191 30.6159 199.154 32.3959 201.575 33.4447C201.94 33.6271 202.352 32.9416 201.941 32.7135Z" fill="white"/>
<path d="M194.764 39.7082C189.695 37.7479 184.397 36.3815 179.42 34.0557C178.963 33.8733 178.551 34.5588 179.008 34.7412C183.985 37.067 189.329 38.479 194.489 40.4393C195.037 40.713 195.22 39.8906 194.764 39.7082Z" fill="white"/>
<path d="M187.813 49.7632C183.108 49.173 178.449 48.6284 173.745 47.8554C173.242 47.8101 173.013 48.5869 173.516 48.6322C178.22 49.4051 183.016 49.9953 187.767 50.5398C188.315 50.6307 188.315 49.8085 187.813 49.7632Z" fill="white"/>
<path d="M180.445 66.2594C176.106 65.0293 171.583 66.4489 167.29 65.1732C166.788 65.0365 166.559 65.8132 167.061 65.9499C171.354 67.2256 175.877 65.8061 180.216 67.0361C180.719 67.1728 180.902 66.4417 180.445 66.2594Z" fill="white"/>
<path d="M204.11 4.07061C203.147 9.50728 201.909 14.9442 199.713 19.9707C199.529 20.4276 200.214 20.8382 200.397 20.3813C202.64 15.2177 203.923 9.82645 204.886 4.29841C204.978 3.75018 204.156 3.56809 204.11 4.07061Z" fill="white"/>
<path d="M185.605 11.0741C186.286 16.0527 185.049 21.2155 183.812 26.0128C183.674 26.5154 184.45 26.7432 184.588 26.2407C185.871 21.3062 187.062 16.0064 186.336 10.8908C186.29 10.3884 185.514 10.526 185.605 11.0741Z" fill="white"/>
<path d="M175.258 40.7741C172.703 36.2994 170.469 31.6874 166.817 27.9445C166.452 27.5793 165.903 28.1279 166.268 28.4931C169.874 32.099 172.063 36.7567 174.573 41.0944C174.801 41.5967 175.532 41.2307 175.258 40.7741Z" fill="white"/>
<path d="M169.946 57.7714C168.12 55.6715 167.894 52.6111 166.846 50.0995C166.299 48.7295 165.523 47.4967 164.793 46.2182C163.972 44.8485 163.105 43.4331 162.101 42.2461C161.782 41.8353 161.187 42.4296 161.552 42.7947C162.602 44.1186 163.515 45.5797 164.336 47.0408C165.111 48.365 165.932 49.7347 166.388 51.1962C167.208 53.6622 167.617 56.3571 169.352 58.3657C169.717 58.7308 170.311 58.1365 169.946 57.7714Z" fill="white"/>
<path d="M161.027 72.3499C160.117 67.5998 159.07 62.8956 157.475 58.3745C157.292 57.9178 156.516 58.0555 156.698 58.6035C158.385 63.1245 159.432 67.8288 160.25 72.5789C160.341 73.0356 161.118 72.898 161.027 72.3499Z" fill="white"/>
<path d="M107.284 100.165C107.799 84.5878 99.5455 64.9974 84.4765 57.9742C81.4516 71.041 86.1829 96.3442 106.233 101.217" fill="#01686F"/>
<path d="M108.061 100.119C108.249 93.5407 107.021 86.918 104.696 80.753C102.28 74.4053 98.7212 68.3783 93.8827 63.6313C91.1896 61.0296 88.1764 58.8392 84.7973 57.1973C84.3407 57.015 83.7467 57.1525 83.6549 57.7007C82.234 64.0513 82.5941 70.9031 84.1424 77.2057C85.8272 84.1935 89.1566 91.0886 94.6345 95.9265C97.8755 98.8019 101.802 100.809 106.004 101.902C107.009 102.175 107.421 100.576 106.417 100.303C99.2461 98.5267 93.4941 93.7804 89.8903 87.4337C86.4688 81.5436 84.7383 74.6015 84.4694 67.7497C84.3349 64.5065 84.5201 61.2174 85.2535 58.0192C84.8879 58.2022 84.4767 58.3396 84.1111 58.5226C96.0293 64.1321 103.146 76.917 105.603 89.4315C106.331 92.9026 106.602 96.4655 106.508 100.029C106.416 101.216 108.015 101.169 108.061 100.119Z" fill="white"/>
<path d="M104.364 96.7871C97.1074 88.0677 94.3753 76.7412 89.7237 66.6038C88.4469 63.7726 86.9415 61.0786 85.162 58.4762C84.66 57.7914 83.5632 58.4317 84.0652 59.1166C90.4989 68.476 92.9112 79.8485 98.248 89.8484C99.7533 92.6337 101.487 95.2818 103.495 97.747C103.951 98.3862 104.866 97.4719 104.364 96.7871Z" fill="white"/>
<path d="M89.9044 68.8875C87.9407 68.2952 86.0685 67.3373 84.4249 66.1509C83.9227 65.8315 83.4653 66.6541 83.9675 66.9735C85.7024 68.1599 87.6659 69.1176 89.6754 69.7556C90.269 69.9835 90.4982 69.0241 89.9044 68.8875Z" fill="white"/>
<path d="M92.7315 75.5544C90.0827 74.6429 87.2965 74.3253 84.6936 73.1853C84.1456 72.9116 83.6425 73.7799 84.2362 74.0078C86.8847 75.1935 89.7623 75.511 92.4567 76.4683C93.096 76.7418 93.3251 75.7824 92.7315 75.5544Z" fill="white"/>
<path d="M96.1058 83.4087C93.0009 81.6753 89.4837 81.4496 86.1956 80.2644C85.6019 80.0365 85.3728 80.9959 85.9665 81.2239C89.1632 82.4091 92.6347 82.5891 95.6483 84.2313C96.1963 84.505 96.6537 83.6824 96.1058 83.4087Z" fill="white"/>
<path d="M92.002 73.0887C92.7805 70.667 93.2392 68.1086 94.52 65.915C94.8401 65.4122 93.9726 64.9104 93.6981 65.4588C92.3259 67.7439 91.8214 70.348 91.0429 72.861C90.8598 73.4093 91.8189 73.637 92.002 73.0887Z" fill="white"/>
<path d="M95.1031 80.1205C96.5214 77.2416 98.2137 74.4538 99.084 71.3926C99.2215 70.7986 98.3081 70.5253 98.1249 71.1649C97.209 74.1805 95.6081 76.8769 94.2355 79.7101C93.9154 80.2128 94.7829 80.7146 95.1031 80.1205Z" fill="white"/>
<path d="M98.0217 87.2447C99.0277 85.7821 99.6229 84.0915 100.264 82.4465C100.63 81.624 100.996 80.8015 101.499 80.0245C101.956 79.2933 102.414 78.5621 102.78 77.7396C103.009 77.1455 102.049 76.9179 101.821 77.5119C101.5 78.3801 100.951 79.1114 100.494 79.8426C100.037 80.5738 99.7164 81.3506 99.396 82.1274C98.7553 83.6811 98.2059 85.326 97.1998 86.7885C96.7883 87.2913 97.6102 87.7475 98.0217 87.2447Z" fill="white"/>
<path d="M100.667 92.2676C102.359 90.028 103.731 87.6516 105.378 85.3663C105.698 84.8636 104.876 84.4074 104.556 84.9101C103.001 87.104 101.674 89.4347 100.028 91.6286C99.891 91.8571 99.8451 92.0855 100.028 92.3595C100.119 92.4508 100.53 92.4961 100.667 92.2676Z" fill="white"/>
<path d="M120.629 92.8459C140.594 89.496 154.495 70.5737 157.159 51.9342C139.708 53.2266 119.318 74.712 119.488 91.9789" fill="#01686F"/>
<path d="M120.857 93.6221C136.482 90.9606 148.688 78.7547 154.591 64.4523C156.193 60.4769 157.384 56.3647 157.981 52.116C158.073 51.6592 157.754 51.0656 157.205 51.066C149.485 51.6658 142.31 55.6454 136.368 60.4921C130.06 65.7045 124.573 72.378 121.416 79.9176C119.814 83.7103 118.715 87.8224 118.757 91.9792C118.756 92.9842 120.355 93.0286 120.402 91.978C120.361 84.6235 123.793 77.5404 128.091 71.6901C132.71 65.337 138.881 59.805 145.873 56.1909C149.437 54.3609 153.321 53.0332 157.296 52.7104C157.022 52.3452 156.794 52.0256 156.52 51.6604C154.362 66.3253 145.671 80.5842 132.556 87.8574C128.854 89.9159 124.787 91.3351 120.584 92.0692C119.396 92.2528 119.852 93.8056 120.857 93.6221Z" fill="white"/>
<path d="M155.56 52.1636C145.731 61.9923 136.13 72.0493 127.717 83.1104C125.339 86.2185 123.053 89.4178 120.903 92.6628C120.446 93.394 121.587 93.987 121.999 93.3015C129.591 81.7842 138.735 71.3621 148.289 61.4422C150.987 58.6537 153.684 55.8651 156.473 53.0765C157.067 52.4822 156.154 51.5693 155.56 52.1636Z" fill="white"/>
<path d="M148.382 60.4375C148.566 58.4274 148.294 56.4177 148.798 54.453C148.935 53.8591 148.022 53.5857 147.839 54.2254C147.335 56.2814 147.607 58.3825 147.423 60.4839C147.423 60.758 147.651 60.9862 147.925 60.986C148.199 60.8944 148.382 60.7115 148.382 60.4375Z" fill="white"/>
<path d="M142.668 66.1518C142.076 63.4571 142.352 60.7161 142.446 57.9752C142.446 57.3357 141.487 57.3821 141.441 57.976C141.347 60.8082 141.071 63.6406 141.708 66.3809C141.89 67.0203 142.804 66.7455 142.668 66.1518Z" fill="white"/>
<path d="M137.181 72.0027C135.996 69.1715 135.724 66.0654 135.589 63.005C135.544 62.4112 134.585 62.3662 134.584 63.0057C134.764 66.2032 135.082 69.4463 136.313 72.4145C136.404 72.6885 136.769 72.6883 136.952 72.5968C137.226 72.5052 137.318 72.231 137.181 72.0027Z" fill="white"/>
<path d="M132.152 78.2196C130.92 75.5254 129.963 72.7397 128.823 69.9541C128.596 69.3604 127.682 69.6352 127.864 70.1832C128.958 73.0145 130.007 75.8916 131.238 78.6771C131.603 79.225 132.425 78.7676 132.152 78.2196Z" fill="white"/>
<path d="M127.396 84.1616C125.982 81.833 125.39 79.1383 124.433 76.5353C124.205 75.9416 123.291 76.2164 123.474 76.7644C124.431 79.3674 125.068 82.1991 126.528 84.5734C126.847 85.1669 127.716 84.6638 127.396 84.1616Z" fill="white"/>
<path d="M145.684 64.2311C148.471 63.8179 151.212 63.6331 153.998 63.1284C154.592 62.9909 154.319 62.0775 153.771 62.1693C151.03 62.7196 148.243 62.8588 145.456 63.272C145.228 63.3179 145.045 63.5921 145.136 63.8661C145.181 64.1859 145.455 64.277 145.684 64.2311Z" fill="white"/>
<path d="M140.289 69.8994C143.852 69.8967 147.369 70.3964 150.932 70.3023C151.571 70.3019 151.572 69.2969 150.933 69.2974C147.37 69.3915 143.853 68.8917 140.29 68.8944C139.65 68.8949 139.695 69.8542 140.289 69.8994Z" fill="white"/>
<path d="M134.895 75.9334C138.594 76.433 142.203 76.8414 145.902 77.5237C146.496 77.6603 146.725 76.7009 146.131 76.5643C142.477 75.9276 138.823 75.4736 135.124 74.9739C134.53 74.9287 134.301 75.8882 134.895 75.9334Z" fill="white"/>
<path d="M126.565 95.6728C146.11 104.154 158.814 97.6579 169.79 80.7479C157.14 75.5957 135.483 81.9162 126.429 94.7136" fill="#01686F"/>
<path d="M126.154 96.359C132.593 99.1405 139.626 100.962 146.616 99.8149C152.829 98.8052 158.359 95.3749 162.748 90.8949C165.719 87.9234 168.189 84.5412 170.475 81.0677C170.795 80.565 170.43 80.1085 169.974 79.9261C164.311 77.6465 157.824 77.7428 151.977 78.8436C145.352 80.0821 138.909 82.6908 133.47 86.6691C130.499 88.8184 127.894 91.3328 125.744 94.3037C125.15 95.172 126.565 95.9475 127.16 95.0791C130.818 89.9602 136.211 86.2102 141.923 83.6934C147.681 81.1309 154.032 79.6186 160.381 79.7508C163.533 79.794 166.684 80.2941 169.607 81.4795C169.425 81.1142 169.288 80.7032 169.105 80.3379C165.492 85.868 161.194 91.2615 155.482 94.7833C150.409 97.9391 144.515 99.0857 138.669 98.3593C134.603 97.8599 130.676 96.5839 126.977 94.9879C126.018 94.5775 125.195 95.9486 126.154 96.359Z" fill="white"/>
<path d="M168.511 80.6576C159.645 85.5065 150.232 89.1681 140.409 91.5054C137.622 92.1927 134.835 92.6973 132.003 93.1563C131.181 93.2483 131.545 94.5271 132.322 94.3894C142.327 92.7829 152.105 89.8519 161.381 85.5965C164.031 84.4068 166.636 83.0801 169.195 81.7077C169.881 81.3874 169.242 80.2916 168.511 80.6576Z" fill="white"/>
<path d="M162.064 89.7535C160.511 88.567 158.959 87.4719 157.27 86.5139C156.767 86.1945 156.264 87.0628 156.812 87.3365C158.41 88.2945 159.963 89.2983 161.378 90.4392C161.606 90.5761 161.88 90.6672 162.109 90.4387C162.246 90.3015 162.246 89.9361 162.064 89.7535Z" fill="white"/>
<path d="M156.579 94.0516C154.433 92.5458 152.379 90.9486 150.461 89.1229C150.005 88.6664 149.319 89.3522 149.776 89.8086C151.693 91.7257 153.884 93.3685 156.076 94.9199C156.624 95.285 157.127 94.4166 156.579 94.0516Z" fill="white"/>
<path d="M150.318 97.4819C148.218 95.5649 146.118 93.648 144.11 91.6396C143.653 91.1832 142.968 91.8689 143.424 92.3253C145.432 94.3337 147.532 96.2507 149.632 98.1676C150.089 98.6241 150.774 97.9383 150.318 97.4819Z" fill="white"/>
<path d="M155.533 87.6108C157.773 85.0053 159.648 82.126 161.752 79.3836C162.163 78.8808 161.25 78.4247 160.93 78.9274C158.918 81.5784 157.088 84.412 154.894 86.9718C154.437 87.4289 155.121 88.1136 155.533 87.6108Z" fill="white"/>
<path d="M147.582 90.5408C150.553 87.3866 152.155 83.3198 154.305 79.6181C154.625 79.1154 153.758 78.6135 153.483 79.1619C151.379 82.7266 149.777 86.7933 146.943 89.9018C146.44 90.3133 147.125 90.998 147.582 90.5408Z" fill="white"/>
<path d="M141.825 91.733C142.603 89.9509 143.609 88.3056 144.387 86.5235C144.753 85.701 145.119 84.8785 145.348 84.0104C145.577 83.1423 145.806 82.2742 146.355 81.5429C146.767 81.0401 145.853 80.584 145.533 81.0867C145.03 81.7723 144.756 82.5947 144.572 83.4171C144.297 84.3309 143.977 85.2905 143.565 86.1587C142.787 87.9408 141.781 89.5861 141.003 91.3682C140.774 91.7795 141.596 92.327 141.825 91.733Z" fill="white"/>
<path d="M103.63 100.99C97.1078 87.428 78.8929 72.5046 63.8169 74.5261C66.8218 87.5883 80.1455 106.946 103.63 100.99Z" fill="#01686F"/>
<path d="M104.361 100.624C101.442 94.5964 96.9695 89.3009 91.9937 84.8738C86.8353 80.3554 80.7629 76.4773 74.1407 74.6095C70.7154 73.6528 67.244 73.2901 63.6806 73.7496C63.2694 73.7956 62.9949 74.344 63.086 74.7093C64.4974 80.7837 67.5078 86.6285 71.524 91.3761C76.1335 96.8999 82.4342 101.006 89.5592 102.371C94.3093 103.281 99.1973 102.958 103.858 101.766C104.863 101.491 104.453 99.9843 103.448 100.168C95.8633 102.092 87.9154 101.459 81.0665 97.4442C75.4047 94.1596 70.9777 89.0012 67.9672 83.2478C66.462 80.3711 65.3223 77.4028 64.5481 74.2514C64.3195 74.5714 64.1822 74.8912 63.9536 75.2112C70.121 74.4299 76.3775 76.572 81.7198 79.5371C87.6557 82.8215 92.8141 87.3399 97.104 92.5441C99.3403 95.2375 101.257 98.1596 102.762 101.31C103.355 102.361 104.771 101.583 104.361 100.624Z" fill="white"/>
<path d="M94.8614 97.7074C85.7743 93.4661 79.4309 85.5683 71.9899 79.2245C69.9356 77.4446 67.7899 75.8474 65.507 74.3874C64.7765 73.9312 64.1818 75.0736 64.8667 75.4842C73.1765 80.6853 79.2915 88.629 87.0526 94.4701C89.2896 96.1585 91.6639 97.6185 94.2211 98.8042C95.043 99.169 95.6834 98.0722 94.8614 97.7074Z" fill="white"/>
<path d="M71.9442 79.636C69.8429 79.729 67.6962 79.4109 65.5949 79.3212C64.9554 79.3216 65.0004 80.2809 65.5942 80.3261C67.6954 80.4159 69.8421 80.734 71.9435 80.641C72.5373 80.5949 72.5838 79.6355 71.9442 79.636Z" fill="white"/>
<path d="M76.8279 84.5197C73.9956 84.7046 71.1173 85.2093 68.194 84.9374C67.6002 84.8922 67.5538 85.8515 68.1932 85.9424C71.0709 86.1686 73.9492 85.6639 76.8271 85.5246C77.421 85.4785 77.4218 84.4735 76.8279 84.5197Z" fill="white"/>
<path d="M81.5299 88.856C80.2958 89.7249 78.7881 90.1372 77.326 90.5037C75.864 90.8703 74.3563 91.1912 72.8942 91.5578C72.3003 91.6953 72.528 92.6544 73.1219 92.5169C74.6297 92.1046 76.183 91.8293 77.6908 91.417C79.1985 91.0048 80.752 90.5468 81.986 89.6779C82.4888 89.3577 81.9869 88.4902 81.5299 88.856Z" fill="white"/>
<path d="M86.3685 93.055C83.5812 94.1077 80.9308 95.3888 78.0069 95.9392C77.3673 96.0311 77.6406 96.9445 78.2345 96.8983C81.1585 96.3479 83.8545 95.1125 86.5962 94.0141C87.1902 93.7852 86.9625 92.8261 86.3685 93.055Z" fill="white"/>
<path d="M75.2315 82.1915C74.548 79.9537 73.7275 77.7617 73.4095 75.4322C73.364 75.2039 73.2271 74.9756 72.9074 74.9301C72.6333 74.9303 72.4048 75.1589 72.4045 75.433C72.7224 77.8538 73.5429 80.1372 74.2721 82.4206C74.5 83.0143 75.4595 82.7852 75.2315 82.1915Z" fill="white"/>
<path d="M79.8868 86.7562C79.9803 83.924 80.1195 81.046 80.6242 78.2592C80.716 77.6196 79.7569 77.3919 79.6651 78.0315C79.1604 80.9097 78.9754 83.8334 78.8818 86.757C78.8813 87.3965 79.8863 87.3958 79.8868 86.7562Z" fill="white"/>
<path d="M84.8628 91.2745C85.2305 88.2593 85.9639 85.0611 87.3364 82.3193C87.6109 81.7709 86.7434 81.2691 86.5145 81.8631C85.0961 84.8334 84.3171 88.0773 83.9035 91.3209C83.8573 91.9148 84.8166 91.8683 84.8628 91.2745Z" fill="white"/>
<path d="M89.7013 95.8386C91.1652 93.0054 91.7615 89.853 92.9971 86.8828C93.226 86.2888 92.4041 85.8326 92.1752 86.4266C90.9853 89.3511 90.3433 92.5492 88.8794 95.3825C88.5591 95.9766 89.381 96.4327 89.7013 95.8386Z" fill="white"/>
<path d="M116.388 84.8542C114.751 74.9886 110.464 65.5818 104.76 57.4094C103.209 55.1266 101.475 52.9353 99.6035 50.8811C98.9189 50.1051 97.7761 51.248 98.4607 52.024C104.942 59.3278 109.96 68.0946 112.876 77.4111C113.696 79.9685 114.379 82.6631 114.789 85.3579C114.971 86.2714 116.524 85.9048 116.388 84.8542Z" fill="white"/>
<path d="M104.395 58.3235C101.563 58.3257 98.6854 57.6427 95.9909 56.8682C95.3972 56.7316 95.1224 57.6454 95.7618 57.8277C98.5476 58.6935 101.471 59.3307 104.44 59.3741C105.034 59.328 105.034 58.323 104.395 58.3235Z" fill="white"/>
<path d="M106.905 61.5649C106.997 59.9203 107.136 58.2301 107.457 56.631C107.732 55.0777 108.099 53.3416 109.105 52.0617C109.516 51.5589 108.603 51.1028 108.283 51.6056C107.277 52.9767 106.818 54.8043 106.543 56.449C106.222 58.1394 106.084 59.921 105.991 61.6569C105.899 62.2052 106.904 62.2044 106.905 61.5649Z" fill="white"/>
<path d="M108.911 66.4971C106.079 66.1338 103.384 64.9939 100.506 65.2245C99.9125 65.2707 99.8661 66.23 100.506 66.2295C103.292 65.9989 105.941 67.0932 108.681 67.4566C108.91 67.5021 109.184 67.4105 109.276 67.1363C109.367 66.8622 109.139 66.5426 108.911 66.4971Z" fill="white"/>
<path d="M111.421 69.0073C111.926 66.3117 113.344 63.8896 115.036 61.7413C115.173 61.5128 115.036 61.1932 114.854 61.102C114.625 60.9651 114.351 61.0567 114.214 61.2852C112.522 63.5248 111.058 65.9926 110.508 68.8252C110.371 69.3278 111.284 69.6012 111.421 69.0073Z" fill="white"/>
<path d="M97.1843 49.5587C96.3157 50.4273 96.3146 51.889 97.1818 52.7563C98.0491 53.6236 99.5109 53.6224 100.379 52.7538C101.248 51.8853 101.249 50.4235 100.382 49.5562C99.5147 48.689 98.0529 48.6901 97.1843 49.5587Z" fill="white"/>
<path d="M94.6205 56.0471C92.8376 57.83 95.5763 60.5687 97.3592 58.7858C99.0964 57.0486 96.3577 54.3099 94.6205 56.0471Z" fill="white"/>
<path d="M99.0453 64.4944C97.2624 66.2773 100.001 69.016 101.784 67.2331C103.521 65.4959 100.783 62.7572 99.0453 64.4944Z" fill="white"/>
<path d="M107.325 50.3728C105.542 52.1557 108.28 54.8944 110.063 53.1115C111.801 51.3743 109.062 48.6356 107.325 50.3728Z" fill="white"/>
<path d="M112.706 60.3275C110.923 62.1104 113.662 64.8491 115.445 63.0662C117.228 61.2833 114.489 58.5446 112.706 60.3275Z" fill="white"/>
<path d="M114.88 85.5409C115.666 73.2523 121.841 62.056 129.614 52.7313C131.717 50.1715 133.957 47.7488 136.334 45.3716C137.066 44.6401 135.925 43.499 135.193 44.2305C126.507 52.9164 118.825 63.1546 115.253 75.0342C114.2 78.461 113.603 81.9788 113.372 85.4964C113.189 86.5928 114.833 86.5916 114.88 85.5409Z" fill="white"/>
<path d="M136.605 50.3962C133.727 51.0837 130.483 51.3146 127.924 52.961C127.421 53.2811 127.877 54.103 128.38 53.7829C130.848 52.1365 134 51.9971 136.787 51.3097C137.427 51.2179 137.199 50.2587 136.605 50.3962Z" fill="white"/>
<path d="M126.505 56.2968C126.369 54.4241 126.873 52.6422 127.286 50.8603C127.698 48.9871 127.882 47.1598 127.381 45.2873C127.245 44.6935 126.285 44.9227 126.422 45.5164C127.424 49.17 125.32 52.6434 125.5 56.2976C125.545 56.8914 126.55 56.8907 126.505 56.2968Z" fill="white"/>
<path d="M130.933 59.7197C129.563 59.5381 128.147 59.6762 126.822 59.9056C125.451 60.0894 124.08 60.4559 122.801 60.9137C122.527 61.0052 122.527 61.3707 122.618 61.5533C122.755 61.7816 123.074 61.827 123.257 61.7355C124.491 61.2321 125.77 60.957 127.049 60.7733C128.329 60.5896 129.653 60.5429 130.932 60.6333C131.206 60.6331 131.435 60.4045 131.435 60.1305C131.39 59.9021 131.207 59.7195 130.933 59.7197Z" fill="white"/>
<path d="M120.331 65.4834C120.15 63.6563 120.288 61.8747 120.198 60.0476C120.108 58.2204 119.744 56.4849 118.786 54.8868C118.467 54.3846 117.644 54.842 117.963 55.3442C119.834 58.4034 119.055 62.0127 119.417 65.3927C119.463 66.0779 120.376 66.0772 120.331 65.4834Z" fill="white"/>
<path d="M124.623 67.7637C122.431 67.674 120.329 68.4979 118.227 69.0476C117.633 69.1851 117.861 70.1442 118.455 70.0067C120.511 69.5027 122.476 68.6333 124.622 68.7687C125.262 68.7682 125.263 67.7632 124.623 67.7637Z" fill="white"/>
<path d="M134.967 42.358C134.098 43.2266 134.097 44.6884 134.964 45.5556C135.831 46.4229 137.293 46.4217 138.162 45.5532C139.03 44.6846 139.031 43.2228 138.164 42.3555C137.297 41.4883 135.835 41.4894 134.967 42.358Z" fill="white"/>
<path d="M116.868 53.7005C115.086 55.4834 117.824 58.2221 119.607 56.4392C121.39 54.6563 118.651 51.9176 116.868 53.7005Z" fill="white"/>
<path d="M125.555 43.7356C123.772 45.5185 126.511 48.2572 128.294 46.4743C130.031 44.7371 127.292 41.9984 125.555 43.7356Z" fill="white"/>
<path d="M135.6 49.758C133.817 51.5409 136.556 54.2796 138.339 52.4967C140.076 50.7596 137.337 48.0209 135.6 49.758Z" fill="white"/>
<path d="M129.061 58.5789C127.278 60.3618 130.017 63.1005 131.8 61.3176C133.582 59.5347 130.844 56.796 129.061 58.5789Z" fill="white"/>
<path d="M122.751 66.3494C120.968 68.1323 123.707 70.871 125.49 69.0881C127.273 67.3053 124.534 64.5666 122.751 66.3494Z" fill="white"/>
<path d="M125.098 103.623C140.4 105.392 148.524 114.339 138.146 124.717C128.089 134.774 121.064 122.72 116.549 113.176C123.372 150.72 74.8752 130.384 105.496 110.17C90.5084 116.577 80.8279 111.742 85.4064 98.1258C89.8934 84.6924 99.7552 91.3541 108.018 97.6059C84.6575 62.1761 141.345 63.5487 119.076 93.5776C141.712 62.178 159.267 103.596 125.098 103.623Z" fill="#01686F"/>
<path d="M125.098 104.445C131.812 105.216 144.782 109.044 141.532 118.41C140.754 120.649 139.245 122.523 137.599 124.169C136.136 125.632 134.445 126.958 132.435 127.508C129.145 128.424 126.269 126.462 124.123 124.134C121.157 120.893 119.15 116.783 117.28 112.81C116.87 111.943 115.636 112.538 115.772 113.405C116.636 118.293 117.043 124.094 114.527 128.618C112.972 131.36 110.275 133.143 107.215 133.374C104.291 133.559 101.277 132.557 99.177 130.731C96.9402 128.768 95.7546 126.029 96.1223 123.105C96.7196 118.582 100.423 114.97 103.851 112.364C104.49 111.907 105.176 111.404 105.861 110.992C106.73 110.398 106 109.21 105.086 109.577C99.3741 112.002 86.9465 115.392 85.2177 106.257C84.8538 104.339 85.1295 102.237 85.6334 100.364C86.2289 98.1253 87.0073 95.795 88.4705 93.9667C89.4307 92.7326 90.6648 91.7724 92.2182 91.4057C93.7259 91.0848 95.1874 91.3578 96.6489 91.8134C100.713 93.135 104.274 95.9645 107.653 98.4286C108.292 98.8849 109.206 97.9706 108.75 97.3314C105.693 92.6287 102.682 87.0581 103.144 81.2107C103.375 77.7845 105.25 74.8138 108.174 73.2585C110.916 71.7946 114.206 71.518 117.174 72.475C120.051 73.3407 122.425 75.4402 123.245 78.3631C124.475 82.7931 122.187 87.5456 119.809 91.2018C119.352 91.933 118.849 92.6186 118.346 93.3042C118.802 93.5779 119.259 93.8517 119.761 94.0797C122.779 89.8748 126.666 85.4409 131.601 83.5185C134.479 82.3743 137.494 82.372 140.005 84.0602C142.014 85.4291 143.291 87.9862 143.381 90.5442C143.515 93.5133 142.188 96.3008 139.949 98.3581C136.017 102.016 130.17 102.842 125.008 102.892C124.048 102.847 124.093 104.446 125.098 104.445C130.26 104.395 135.833 103.569 140.038 100.368C142.827 98.2189 144.793 95.0654 145.024 91.4565C145.209 88.4415 144.024 85.3361 141.833 83.3279C139.322 81.0915 135.851 80.546 132.607 81.4164C127.444 82.8365 123.284 86.9052 120.038 90.9732C119.489 91.7045 118.94 92.4358 118.392 93.1671C117.797 94.0355 119.167 94.7653 119.807 93.9426C122.871 89.7834 125.844 84.4365 125.072 79.0925C124.572 75.5755 122.199 72.6538 118.911 71.286C115.714 69.918 111.923 69.8753 108.724 71.1568C105.206 72.5755 102.6 75.5468 101.82 79.2474C100.628 84.8213 102.999 90.6666 105.736 95.4152C106.238 96.2827 106.786 97.1959 107.379 98.0634C107.745 97.6977 108.11 97.3319 108.476 96.9662C103.317 93.0874 94.0041 85.6943 87.9238 92.0485C86.2322 93.8314 85.2712 96.1618 84.4928 98.4921C83.8059 100.731 83.3016 103.061 83.5282 105.391C83.8451 109.182 86.0355 112.104 89.689 113.288C95.0322 114.974 101.064 113.051 105.953 110.992C105.679 110.535 105.405 110.079 105.177 109.576C100.881 112.412 96.2646 116.298 94.8902 121.507C94.0196 124.934 94.8848 128.45 97.2582 131.098C99.4946 133.517 102.828 134.931 106.163 135.065C109.726 135.154 113.062 133.552 115.211 130.673C118.32 126.468 118.416 120.712 117.826 115.734C117.735 114.82 117.553 113.907 117.417 113.039C116.914 113.268 116.457 113.451 115.909 113.634C117.733 117.561 119.786 121.533 122.615 124.82C124.989 127.559 128.276 129.932 132.113 129.29C134.261 128.968 136.135 127.733 137.734 126.316C139.7 124.624 141.483 122.567 142.581 120.191C144.366 116.398 143.866 112.333 140.991 109.275C137.02 105.03 130.717 103.481 125.145 102.846C124.094 102.71 124.093 104.354 125.098 104.445Z" fill="white"/>
<path d="M133.466 92.2419C128.713 96.2654 123.229 99.1932 117.471 101.573C116.877 101.802 117.379 102.669 117.927 102.395C123.731 99.9694 129.306 97.0416 134.151 92.9266C134.654 92.5151 133.969 91.8304 133.466 92.2419Z" fill="white"/>
<path d="M113.546 97.6476C113.413 92.0291 113.92 86.3187 112.873 80.7922C112.737 80.1984 111.777 80.4276 111.914 81.0213C112.96 86.4564 112.408 92.1212 112.541 97.6484C112.586 98.2422 113.545 98.2871 113.546 97.6476Z" fill="white"/>
<path d="M109.157 102.676C104.178 102.817 99.1535 101.907 94.4038 100.54C93.8101 100.404 93.5353 101.317 94.1747 101.5C99.0157 102.866 104.131 103.867 109.202 103.726C109.841 103.635 109.796 102.675 109.157 102.676Z" fill="white"/>
<path d="M128.475 108.645C125.736 106.272 122.265 105.087 118.886 103.81C118.292 103.582 118.063 104.542 118.657 104.77C121.853 105.955 125.187 107.094 127.789 109.331C128.246 109.787 128.931 109.101 128.475 108.645Z" fill="white"/>
<path d="M125.244 92.0654C122.365 94.3059 119.896 97.0486 117.016 99.2891C116.514 99.7007 117.244 100.34 117.701 99.9738C120.581 97.7333 123.049 94.9906 125.929 92.75C126.477 92.3842 125.793 91.6995 125.244 92.0654Z" fill="white"/>
<path d="M129.487 99.3255C125.74 100.699 121.902 101.615 118.11 102.669C117.516 102.806 117.743 103.765 118.337 103.628C122.13 102.574 126.013 101.612 129.714 100.285C130.308 100.056 130.081 99.0966 129.487 99.3255Z" fill="white"/>
<path d="M115.509 98.0572C116.152 94.4023 117.159 90.8385 117.71 87.1837C117.802 86.5441 116.843 86.3164 116.751 86.956C116.2 90.6108 115.238 94.2203 114.55 97.8295C114.458 98.4691 115.417 98.6968 115.509 98.0572Z" fill="white"/>
<path d="M111.672 97.6946C110.853 94.4976 110.17 91.1635 108.619 88.2411C108.345 87.6932 107.477 88.1963 107.796 88.6986C109.302 91.5753 109.939 94.8637 110.759 97.9694C110.895 98.5631 111.809 98.2883 111.672 97.6946Z" fill="white"/>
<path d="M109.158 100.483C105.87 99.4806 102.765 98.0212 99.8882 96.1505C99.3859 95.8312 98.8828 96.6995 99.4307 96.9731C102.353 98.8895 105.549 100.349 108.929 101.351C109.477 101.625 109.752 100.711 109.158 100.483Z" fill="white"/>
<path d="M109.886 104.685C105.957 105.054 102.119 106.062 98.1906 106.522C97.551 106.613 97.8244 107.527 98.4183 107.481C102.21 106.975 106.002 106.013 109.84 105.645C110.479 105.553 110.48 104.639 109.886 104.685Z" fill="white"/>
<path d="M109.16 98.1074C107.698 99.5703 106.782 101.764 106.826 103.819C106.825 105.829 107.691 108.158 109.152 109.527C110.658 110.942 112.713 111.991 114.86 111.853C116.961 111.76 119.063 111.027 120.572 109.519C122.035 108.056 122.95 105.862 122.906 103.807C122.907 101.797 122.041 99.4679 120.58 98.0986C119.074 96.6837 117.019 95.6347 114.872 95.7733C112.771 95.8663 110.715 96.5531 109.16 98.1074Z" fill="white"/>
<path d="M113.408 99.5207C111.625 101.304 114.363 104.042 116.146 102.259C117.884 100.522 115.145 97.7835 113.408 99.5207Z" fill="#01686F"/>
<path d="M118.064 103.171C116.601 104.634 118.883 106.916 120.346 105.453C121.809 103.99 119.527 101.708 118.064 103.171Z" fill="#01686F"/>
<path d="M109.294 102.447C108.197 103.544 109.932 105.279 111.029 104.182C112.08 103.039 110.391 101.35 109.294 102.447Z" fill="#01686F"/>
</g>
</g>
</svg>
