<svg width="134" height="300" viewBox="0 0 134 300" fill="none" xmlns="http://www.w3.org/2000/svg">
<g opacity="0.1">
<mask id="mask0_426_4878" style="mask-type:alpha" maskUnits="userSpaceOnUse" x="0" y="0" width="134" height="300">
<rect y="300" width="300" height="133.23" transform="rotate(-90 0 300)" fill="#D9D9D9"/>
</mask>
<g mask="url(#mask0_426_4878)">
<path d="M99.9275 275.288C109.06 271.961 114.92 283.399 118.176 289.265C111.538 286.899 102.056 282.994 99.9275 275.288Z" fill="white"/>
<path d="M99.8094 274.695C109.238 271.427 115.039 282.331 118.769 289.027C119.006 289.501 118.59 290.153 118.057 289.976C110.826 287.373 101.759 283.645 99.3345 275.525C99.1573 274.754 100.343 274.398 100.58 275.228C102.767 282.874 111.657 286.305 118.414 288.79C118.176 289.146 117.939 289.383 117.701 289.739C114.268 283.576 108.94 273.028 100.164 275.999C99.3933 276.177 99.0385 274.992 99.8094 274.695Z" fill="#01686F"/>
<path d="M90.0336 266.699C94.298 271.913 98.3216 281.869 92.2703 287.565C86.5822 283.538 86.1168 271.919 89.6781 266.344" fill="white"/>
<path d="M90.5084 266.224C95.1281 271.912 99.0331 281.987 92.8037 287.979C92.6257 288.157 92.2699 288.276 92.033 288.039C88.7742 285.611 87.3545 281.581 86.9425 277.728C86.5898 273.815 87.0675 269.428 89.2043 265.988C89.6198 265.335 90.6864 265.927 90.2709 266.58C88.3715 269.664 87.8349 273.636 88.1879 277.193C88.4816 280.691 89.6642 284.721 92.6859 286.912C92.4488 286.912 92.1524 286.972 91.9152 286.972C97.6106 281.514 93.8829 272.209 89.6185 266.995C89.0854 266.462 89.9753 265.572 90.5084 266.224Z" fill="#01686F"/>
<path d="M84.2906 257.041C90.4598 252.175 103.854 256.67 105.805 263.842C98.9281 264.203 91.3992 264.031 84.4088 257.515" fill="white"/>
<path d="M83.8759 256.626C87.5537 253.778 92.6519 254.011 96.86 255.371C100.89 256.672 105.216 259.455 106.457 263.782C106.576 264.138 106.279 264.553 105.864 264.613C102.248 264.793 98.572 264.796 94.897 263.969C90.7479 263.024 87.1332 260.951 84.0526 258.108C83.4602 257.516 84.3502 256.626 84.9426 257.218C87.9639 260.002 91.4601 261.956 95.55 262.842C98.9286 263.61 102.426 263.548 105.924 263.368C105.746 263.664 105.509 263.901 105.331 264.198C104.207 260.345 100.237 257.918 96.6218 256.676C92.9472 255.493 88.1455 255.082 84.883 257.633C84.1713 257.99 83.2827 257.101 83.8759 256.626Z" fill="#01686F"/>
<path d="M80.5617 249.751C84.291 257.04 81.38 264.927 74.974 269.319C69.5844 262.624 75.3422 253.075 80.6806 249.277" fill="white"/>
<path d="M81.1545 249.395C82.9303 252.951 83.4015 256.982 82.2129 260.777C81.0836 264.513 78.532 267.657 75.3883 269.852C75.1511 269.971 74.7954 269.971 74.6177 269.794C69.1689 262.921 74.2747 253.195 80.5029 248.744C81.2147 248.269 81.7474 249.395 81.0949 249.81C75.5785 253.786 70.6511 262.742 75.5076 268.904C75.2705 268.904 74.9741 268.845 74.737 268.845C77.5841 266.827 79.9577 263.98 81.0274 260.541C82.1565 257.042 81.685 253.367 80.0869 250.107C79.6725 249.337 80.7994 248.684 81.1545 249.395Z" fill="#01686F"/>
<path d="M79.0867 240.445C84.6026 237.18 93.7897 239.604 97.5195 246.181C89.0392 249.685 84.4771 246.191 79.0864 240.801" fill="white"/>
<path d="M78.7904 239.912C85.3737 236.172 94.3822 239.603 98.0529 245.884C98.2898 246.24 97.9931 246.655 97.6373 246.774C94.2571 248.14 90.4625 248.736 86.9658 247.375C83.7061 246.133 81.0996 243.645 78.6708 241.216C78.0784 240.624 78.9684 239.734 79.5607 240.326C81.8118 242.577 84.2405 245.006 87.3224 246.189C90.6413 247.491 94.1395 246.836 97.3418 245.529C97.1637 245.826 97.1042 246.122 96.9261 246.419C93.6106 240.73 85.3134 237.535 79.3824 240.978C78.73 241.394 78.0787 240.268 78.7904 239.912Z" fill="#01686F"/>
<path d="M77.1955 232.265C78.3173 238.252 71.6091 250.173 65.6203 251.66C64.976 241.523 69.2472 237.962 76.425 232.088" fill="white"/>
<path d="M77.7886 232.146C78.4969 236.177 76.6557 240.624 74.6374 244.064C72.6785 247.445 69.7706 251.301 65.7385 252.371C65.3235 252.43 64.968 252.193 64.909 251.779C64.675 247.747 65.2117 243.656 67.3485 240.216C69.5446 236.836 72.8072 234.284 75.8326 231.732C76.4851 231.198 77.3737 232.087 76.7212 232.621C73.8144 235.054 70.6706 237.368 68.5339 240.571C66.3378 243.952 65.8606 247.865 66.0947 251.778C65.7984 251.6 65.5615 251.363 65.2652 251.185C68.8822 250.293 71.5528 246.557 73.3337 243.472C75.1739 240.329 77.0148 236.237 76.3656 232.503C76.4255 231.613 77.6707 231.316 77.7886 232.146Z" fill="#01686F"/>
<path d="M73.8835 222.189C80.7036 218.924 89.828 225.793 92.9064 231.482C85.5543 232.674 78.384 228.707 74.1794 222.841" fill="white"/>
<path d="M73.5876 221.656C77.3238 219.934 81.4729 220.879 84.9692 222.833C88.4654 224.787 91.6052 227.689 93.5589 231.185C93.7365 231.482 93.5582 232.015 93.1432 232.075C85.4947 233.207 78.1466 229.3 73.705 223.197C73.172 222.546 74.3581 221.952 74.7726 222.604C78.8588 228.232 85.7921 231.962 92.8476 230.949C92.6696 231.245 92.61 231.542 92.432 231.838C90.6559 228.638 87.8716 225.973 84.7903 224.197C81.6496 222.361 77.7378 221.178 74.2389 222.782C73.468 223.079 72.8759 222.012 73.5876 221.656Z" fill="#01686F"/>
<path d="M67.5468 213.835C74.2415 219.58 67.5338 230.79 62.1361 234.529C58.5841 228.011 61.3781 218.108 67.5468 213.835Z" fill="white"/>
<path d="M67.9623 213.42C73.5904 218.336 70.1456 226.639 66.2291 231.503C65.1017 232.867 63.8558 234.113 62.4322 235.181C62.1356 235.359 61.7208 235.182 61.6024 234.945C57.8137 227.834 60.7262 217.931 67.2509 213.421C67.9033 213.005 68.4953 214.072 67.8429 214.487C61.9113 218.642 59.2365 227.833 62.6699 234.351C62.3736 234.292 62.1365 234.174 61.8402 234.115C67.1786 230.316 73.4113 219.937 67.1316 214.369C66.5392 213.777 67.4291 212.887 67.9623 213.42Z" fill="#01686F"/>
<path d="M60.9116 208.149C67.4361 203.876 78.8763 205.823 82.7838 212.697C74.6009 214.956 68.4371 212.708 62.0969 208.622" fill="white"/>
<path d="M60.6152 207.616C67.5548 203.164 79.0543 205.052 83.3171 212.4C83.5539 212.756 83.3164 213.23 82.9014 213.29C79.2251 214.241 75.3714 214.54 71.6373 213.654C68.0809 212.827 64.8216 211.11 61.6811 209.156C61.0293 208.742 61.6229 207.674 62.2747 208.089C65.1782 209.924 68.2597 211.582 71.6975 212.409C75.3131 213.295 78.9889 213.056 82.5466 212.104C82.3685 212.401 82.309 212.697 82.131 212.994C78.2234 206.238 67.4943 204.646 61.0886 208.682C60.4954 209.157 59.9034 208.09 60.6152 207.616Z" fill="#01686F"/>
<path d="M50.7775 203.592C56.821 207.975 60.1933 216.924 55.0306 223.508C49.0471 218.118 48.2228 210.768 50.481 203.652" fill="white"/>
<path d="M51.0739 203.059C57.5321 207.856 60.7856 217.161 55.4448 223.923C55.2668 224.22 54.7926 224.101 54.4963 223.924C51.7119 221.377 49.6395 218.118 48.931 214.324C48.2225 210.649 48.6403 206.914 49.7694 203.415C50.0664 202.644 51.1926 202.94 51.0141 203.711C49.9445 207.031 49.4674 210.589 50.1762 214.027C50.8849 217.583 52.7203 220.605 55.3862 223.034C55.1491 223.034 54.7934 223.034 54.4377 223.034C59.2444 216.925 56.0496 208.39 50.3617 204.126C49.8284 203.712 50.4814 202.585 51.0739 203.059Z" fill="#01686F"/>
<path d="M43.9622 200.337C52.0838 200.627 60.4447 198.19 65.1332 191.487C58.734 187.105 46.6959 191.679 45.2079 199.328" fill="white"/>
<path d="M43.9628 199.744C51.6694 199.975 59.9116 197.775 64.6593 191.25C64.7183 191.547 64.8367 191.784 64.8958 192.08C58.6742 187.876 47.4665 191.975 45.9193 199.565C45.7408 200.335 44.4961 200.04 44.6745 199.269C46.4001 191.027 58.6161 186.394 65.4894 191.013C65.7857 191.19 65.9632 191.605 65.7259 191.843C60.7408 198.723 52.202 201.22 44.0211 200.989C43.1319 200.93 43.1328 199.745 43.9628 199.744Z" fill="#01686F"/>
<path d="M27.0775 186.299C31.9934 192.283 38.3337 196.25 45.2674 199.505C51.5492 202.465 58.1871 204.831 63.8752 208.858C70.2151 213.418 74.4786 219.817 76.7256 227.285C78.0857 231.73 78.7342 236.413 79.7979 240.918C80.6841 244.889 81.8074 248.86 83.2865 252.713C84.8841 256.802 87.0745 260.772 89.7989 264.209C92.9971 268.237 96.9072 271.673 101.114 274.693C102.24 275.463 101.171 277.242 100.105 276.532C92.9353 271.498 86.8339 265.278 83.0459 257.337C79.3761 249.751 77.6633 241.394 76.0096 233.214C75.0646 228.709 73.8823 224.323 71.5733 220.353C69.7972 217.153 67.4281 214.309 64.5843 211.94C59.1929 207.498 52.6144 204.954 46.3917 202.172C38.5097 198.68 31.1618 194.418 25.6536 187.723C24.7651 186.716 26.2483 185.232 27.0775 186.299Z" fill="#01686F"/>
<path d="M90.4485 267.707C89.4979 270.434 90.9182 273.635 91.7462 276.242C92.87 279.621 93.2228 283.296 92.6273 286.853C92.5082 287.565 91.5006 287.269 91.6197 286.558C92.2746 282.941 91.6846 279.266 90.5015 275.828C89.6736 273.22 88.4903 270.139 89.4409 267.411C89.6785 266.818 90.6861 267.113 90.4485 267.707Z" fill="#01686F"/>
<path d="M80.9167 250.581C79.7286 253.664 79.074 256.925 78.1231 260.009C77.2316 262.914 75.9844 265.82 75.2707 268.785C75.0924 269.437 74.0848 269.142 74.2631 268.489C75.0362 265.465 76.224 262.619 77.1155 259.713C78.0665 256.511 78.721 253.369 79.9091 250.285C80.1467 249.692 81.1543 249.988 80.9167 250.581Z" fill="#01686F"/>
<path d="M101.529 275.346C104.195 277.537 107.276 278.957 110.061 281.03C112.787 283.044 115.097 285.71 117.466 288.079C117.94 288.553 117.169 289.324 116.754 288.791C114.266 286.303 111.838 283.519 108.934 281.446C106.268 279.61 103.364 278.13 100.817 276.058C100.224 275.702 100.995 274.931 101.529 275.346Z" fill="#01686F"/>
<path d="M77.195 233.925C74.6439 236.358 73.1592 239.738 71.2006 242.645C69.4201 245.255 67.4025 247.865 66.333 250.948C66.0954 251.541 65.0877 251.364 65.3254 250.653C66.4542 247.51 68.4126 244.84 70.3118 242.112C72.3297 239.146 73.8145 235.647 76.4842 233.096C76.9587 232.74 77.7288 233.51 77.195 233.925Z" fill="#01686F"/>
<path d="M68.139 214.902C67.1853 221.661 62.9122 227.711 62.7291 234.529C62.7286 235.24 61.6615 235.241 61.662 234.53C61.8452 227.593 66.1184 221.425 67.1314 214.606C67.1912 213.954 68.1988 214.25 68.139 214.902Z" fill="#01686F"/>
<path d="M74.7144 222.07C80.9378 223.903 86.6266 226.981 92.0186 230.593C92.6112 230.949 92.077 231.838 91.4844 231.483C86.1516 227.93 80.522 224.911 74.4172 223.078C73.7652 222.901 74.0624 221.893 74.7144 222.07Z" fill="#01686F"/>
<path d="M79.9764 240.385C86.0825 240.558 91.5939 243.103 97.1054 245.529C97.7573 245.825 97.223 246.715 96.5711 246.419C91.2374 244.052 85.9038 241.566 80.0349 241.393C79.3235 241.393 79.3243 240.326 79.9764 240.385Z" fill="#01686F"/>
<path d="M85.536 256.98C92.4129 256.975 99.4065 259.341 105.213 263.012C105.806 263.367 105.272 264.257 104.679 263.901C99.0501 260.289 92.1749 258.042 85.4759 257.988C84.8238 258.048 84.8246 256.981 85.536 256.98Z" fill="#01686F"/>
<path d="M51.5483 204.125C53.7373 209.874 55.5704 215.979 55.5657 222.144C55.5652 222.856 54.498 222.857 54.4986 222.145C54.444 216.039 52.6701 209.993 50.481 204.363C50.2443 203.771 51.2523 203.473 51.5483 204.125Z" fill="#01686F"/>
<path d="M62.6905 207.555C65.7143 207.138 68.7964 207.965 71.7007 208.734C73.301 209.148 74.8421 209.502 76.3831 209.975C78.102 210.507 79.8207 211.158 81.5394 211.809C82.1321 212.046 81.8941 213.113 81.2422 212.817C79.7013 212.225 78.1011 211.574 76.5009 211.042C74.9599 210.569 73.4188 210.215 71.8184 209.801C68.9734 209.092 65.8914 208.145 62.9269 208.503C62.334 208.622 62.0383 207.615 62.6905 207.555Z" fill="#01686F"/>
<path d="M64.3625 192.14C57.6627 193.034 52.0872 196.833 46.2749 200.039C45.6818 200.395 45.2083 199.447 45.742 199.15C51.5543 195.944 57.3078 192.086 64.0075 191.192C64.7783 191.013 65.074 192.021 64.3625 192.14Z" fill="#01686F"/>
<path d="M113.995 22.1355C112.222 13.8371 127.344 8.78641 132.917 7.47789C130.66 13.6451 121.7 23.908 113.995 22.1355Z" fill="white"/>
<path d="M113.402 22.2545C112.457 17.5126 116.313 14.0119 119.99 11.8748C123.905 9.50049 128.352 7.89642 132.74 6.82595C133.155 6.76634 133.689 7.18092 133.51 7.59604C131.966 11.7471 129.058 15.4842 125.677 18.3917C122.473 21.2397 118.203 23.7329 113.757 22.7285C112.987 22.5513 113.284 21.3061 114.055 21.4833C118.145 22.3694 122.178 19.7579 125.144 17.1471C128.17 14.477 130.899 11.0365 132.325 7.24125C132.562 7.4782 132.858 7.77439 133.095 8.01134C129.063 8.96298 125.09 10.4481 121.472 12.4073C118.032 14.307 113.702 17.4523 114.588 21.8979C114.765 22.787 113.52 23.0844 113.402 22.2545Z" fill="#01686F"/>
<path d="M105.743 37.6144C99.758 33.5284 96.1505 22.0895 102.498 17.0455C105.756 20.3036 107.703 31.7438 106.396 36.2504" fill="white"/>
<path d="M105.386 38.208C99.1057 33.9444 95.1427 22.2686 102.024 16.6906C102.261 16.4533 102.676 16.3937 102.972 16.6899C105.283 19.1187 106.228 22.9122 106.819 26.113C107.409 29.4324 107.999 33.2261 107.048 36.5467C106.869 37.3176 105.625 37.0221 105.803 36.2513C106.635 33.1679 106.105 29.552 105.514 26.4697C105.16 24.6915 104.746 22.9726 104.095 21.2539C103.622 19.95 102.971 18.587 102.023 17.6392C102.26 17.639 102.616 17.6387 102.972 17.6384C96.8023 22.623 100.41 33.232 106.039 37.1996C106.691 37.4956 106.038 38.6224 105.386 38.208Z" fill="#01686F"/>
<path d="M106.155 41.7049C109.716 35.5367 122.409 27.3458 128.629 34.5144C121.153 41.397 116.883 43.653 107.104 40.7557" fill="white"/>
<path d="M105.621 41.4091C107.461 38.2656 110.427 35.7734 113.452 33.9333C116.537 32.0339 120.332 30.6082 124.007 31.1982C126.022 31.5523 127.8 32.4995 129.103 34.0399C129.34 34.2768 129.399 34.6918 129.102 34.9884C126.077 37.7771 122.873 40.6251 118.96 41.9324C115.046 43.2396 110.897 42.5314 107.044 41.408C106.273 41.2307 106.571 39.9855 107.341 40.1628C111.016 41.2271 114.928 41.9355 118.605 40.747C122.341 39.4991 125.366 36.7105 128.214 34.0998C128.214 34.337 128.213 34.6927 128.213 35.0484C125.074 31.5531 120.331 32.1495 116.476 33.8717C112.68 35.6531 108.884 38.5017 106.747 42.0603C106.332 42.7128 105.206 42.0615 105.621 41.4091Z" fill="#01686F"/>
<path d="M101.816 55.8768C105.734 48.9969 95.4856 39.4601 89.9145 37.4488C91.3917 43.791 93.6362 54.5789 101.282 57.0036" fill="white"/>
<path d="M101.223 55.5217C103.182 51.9039 100.992 47.815 98.7415 44.9711C96.3724 42.1274 93.2918 39.2841 89.795 38.0418C90.0324 37.8045 90.329 37.5079 90.5663 37.2706C91.3935 40.9455 92.2206 44.6205 93.7593 48.0577C95.298 51.6136 97.6667 55.0502 101.519 56.4107C102.29 56.7066 101.933 57.8925 101.222 57.6559C93.1612 54.9351 91.0347 44.9771 89.3804 37.6272C89.3214 37.2122 89.6775 36.7377 90.1517 36.8559C94.0633 38.2757 97.6179 41.3557 100.105 44.6737C102.593 47.8731 104.546 52.3178 102.408 56.2322C101.934 56.944 100.808 56.2927 101.223 55.5217Z" fill="#01686F"/>
<path d="M98.0167 61.9266C102.228 58.6628 104.721 54.6296 110.768 54.7435C113.91 54.9189 118 56.0422 120.073 58.4712C114.201 62.6848 105.543 66.1299 99.3808 61.2734" fill="white"/>
<path d="M97.5429 61.4534C100.805 58.9017 103.535 55.3426 107.686 54.3909C109.88 53.8556 112.251 54.091 114.385 54.6822C116.637 55.2733 118.83 56.2794 120.37 58.0567C120.666 58.3529 120.547 58.8273 120.25 59.0053C114.2 63.397 105.364 66.7829 98.7876 61.7489C98.1359 61.2158 99.0851 60.3851 99.6775 60.8589C105.78 65.5377 114.142 61.9149 119.599 57.998C119.539 58.2945 119.539 58.6502 119.48 58.9467C117.999 57.3471 115.865 56.4002 113.791 55.8683C111.716 55.3363 109.523 55.1602 107.507 55.7545C103.83 56.8245 101.279 60.087 98.3721 62.4013C97.8382 62.8167 96.8903 61.9875 97.5429 61.4534Z" fill="#01686F"/>
<path d="M89.1791 67.8029C91.7933 60.3311 88.3625 50.3741 81.1923 46.4076C80.1787 53.9374 79.9328 65.3201 89.001 68.218" fill="white"/>
<path d="M88.6456 67.6258C91.1413 60.1542 87.8878 50.8491 80.9546 47.001C81.2512 46.823 81.5476 46.7635 81.8442 46.5854C80.89 53.9373 80.5852 64.7864 89.1791 67.6847C89.9496 67.9805 89.593 69.1664 88.8817 68.9299C79.4581 65.7951 79.5261 54.4719 80.5994 46.2899C80.659 45.8749 81.1927 45.6966 81.489 45.8742C88.9556 50.0184 92.4457 59.916 89.7718 67.9214C89.534 68.7515 88.3486 68.3967 88.6456 67.6258Z" fill="#01686F"/>
<path d="M80.6979 72.3738C86.5675 71.7171 95.754 74.9707 98.4736 84.5725C90.8262 84.4005 82.4698 81.0278 79.9264 73.5007" fill="white"/>
<path d="M80.7579 71.7211C84.3745 71.3034 88.1086 72.3083 91.2492 74.1437C95.1602 76.3935 97.8251 80.1263 99.126 84.3937C99.2443 84.7493 98.8883 85.2238 98.5326 85.2241C90.7073 84.993 82.1731 81.5611 79.3928 73.6785C79.097 72.9081 80.3422 72.6107 80.638 73.3812C83.3002 80.671 91.4196 83.8068 98.5928 83.9791C98.4147 84.2757 98.1774 84.513 97.9993 84.8095C95.8115 77.4008 88.6422 72.2486 80.8161 73.0846C79.9269 73.026 79.9278 71.8403 80.7579 71.7211Z" fill="#01686F"/>
<path d="M70.1429 75.4647C76.015 71.6068 73.4758 58.507 68.2021 55.2505C65.1133 63.1969 63.271 68.9488 69.9652 75.287" fill="white"/>
<path d="M69.8473 74.9315C72.8723 72.8543 73.1722 68.4078 72.7005 65.0883C72.2287 61.7687 70.8684 57.6792 67.9056 55.7844C68.2022 55.6064 68.4987 55.5468 68.7952 55.3688C67.5478 58.6303 66.063 62.1292 66.0602 65.6862C65.9982 69.3025 67.8337 72.3246 70.4402 74.8125C71.0326 75.4049 70.1427 76.2948 69.5503 75.7024C66.8252 73.0961 64.8714 69.837 64.8151 65.9836C64.818 62.1894 66.2436 58.5127 67.6098 55.014C67.7287 54.6582 68.1439 54.3614 68.4994 54.5983C71.1066 56.2562 72.5864 59.2786 73.3548 62.1829C74.2417 65.3242 74.5353 68.9403 73.3473 72.0239C72.7532 73.5658 71.8036 74.9893 70.3801 75.9389C69.7275 76.473 69.1355 75.4063 69.8473 74.9315Z" fill="#01686F"/>
<path d="M59.1726 79.2087C65.8738 76.4172 76.9541 83.9377 79.0241 90.2795C71.8518 89.04 61.8926 88.4549 58.2822 80.6915" fill="white"/>
<path d="M59.0549 78.616C63.0282 77.0122 67.7103 78.7279 71.2064 80.8001C74.7618 82.9316 78.3163 86.1302 79.736 90.1604C79.8542 90.6345 79.3797 90.9906 78.9648 90.9316C71.3182 89.574 61.6554 89.0479 57.8674 80.9882C57.5123 80.2771 58.6392 79.6241 58.935 80.3946C62.5454 88.0394 72.0305 88.3878 79.2621 89.6865C79.0248 89.9238 78.7282 90.2204 78.4908 90.4577C77.1894 86.7832 73.8125 83.8809 70.5534 81.927C67.2943 79.9731 63.0864 78.3757 59.3504 79.8607C58.5795 80.1577 58.284 78.913 59.0549 78.616Z" fill="#01686F"/>
<path d="M48.9127 84.6108C53.0078 78.62 52.8368 69.6683 46.7936 64.9303C44.5375 69.2005 41.3861 81.356 47.6091 83.6633" fill="white"/>
<path d="M48.3795 84.315C52.2374 78.443 52.1846 69.9655 46.3784 65.3458C46.6749 65.2863 47.0306 65.286 47.327 65.2265C45.7835 68.0733 44.9509 71.5124 44.6519 74.7732C44.4126 77.619 44.5279 81.8874 47.7283 83.0706C48.4988 83.3664 48.1421 84.5523 47.4309 84.3158C41.5636 82.0082 43.2302 73.3515 44.6566 68.7263C45.0726 67.3625 45.548 65.9393 46.2604 64.6345C46.4385 64.2194 46.9721 64.2783 47.209 64.5152C53.43 69.431 53.6007 78.7384 49.3868 84.9664C49.0306 85.5595 47.964 84.9675 48.3795 84.315Z" fill="#01686F"/>
<path d="M39.482 90.4872C47.9616 87.813 53.0581 90.2989 58.7446 96.3415C53.171 97.65 42.2627 97.777 39.1253 91.7917" fill="white"/>
<path d="M39.3046 89.8352C42.8624 88.7653 46.6569 88.2881 50.2723 89.5303C53.7691 90.7726 56.6128 93.2603 59.1007 95.8669C59.4561 96.2223 59.3371 96.8152 58.8035 96.8749C55.1865 97.767 51.333 97.8292 47.6578 97.3577C44.1605 96.8269 40.3082 95.3478 38.5322 92.0292C38.1771 91.3181 39.2446 90.7245 39.5998 91.4356C41.2574 94.5171 44.8727 95.7592 48.1922 96.231C51.5711 96.6433 55.1282 96.522 58.4487 95.6895C58.3299 96.0453 58.211 96.4011 58.1515 96.6976C55.7821 94.2095 53.1754 91.8401 49.8564 90.657C46.4781 89.5332 42.8615 89.951 39.4816 90.9614C38.8885 91.3176 38.5337 90.1322 39.3046 89.8352Z" fill="#01686F"/>
<path d="M31.5118 124.404C29.4997 119.9 28.0806 115.04 28.2623 110C28.4434 105.791 29.6322 101.759 31.8285 98.1409C36.2805 90.6085 43.932 85.445 51.6419 81.5263C59.1146 77.7264 67.1792 74.9932 75.3028 72.7934C81.6474 71.0694 88.1114 68.3966 93.2722 64.3021C97.9585 60.5636 102.468 55.3432 104.073 49.3543C106.392 40.6379 103.614 30.384 110.97 23.62C111.978 22.73 113.046 21.8992 114.173 21.2462C115.359 20.5339 116.366 22.3709 115.18 23.0832C111.028 25.5763 108.653 29.3723 107.82 34.1156C107.046 38.5625 107.279 43.0678 106.565 47.4554C105.671 53.088 102.703 57.8329 98.9059 61.9857C94.3373 66.9098 88.5841 70.4119 82.4168 72.788C78.0878 74.5105 73.5222 75.5219 69.0747 77.0074C65.1018 78.2554 61.1287 79.7405 57.3332 81.4034C49.5052 84.8478 41.617 89.3002 36.0985 96.0034C33.6062 99.0881 31.6471 102.706 30.9327 106.619C30.04 111.066 30.6294 115.571 31.9897 119.779C32.4629 121.083 32.877 122.328 33.5281 123.572C33.883 124.639 32.0444 125.648 31.5118 124.404Z" fill="#01686F"/>
<path d="M132.443 8.54501C129.476 11.0372 126.451 13.4701 123.307 15.7846C120.282 17.9804 117.672 20.7095 114.41 22.4312C113.817 22.7874 113.343 21.8392 113.877 21.5424C117.079 19.88 119.571 17.2696 122.478 15.0739C125.622 12.7594 128.766 10.3263 131.732 7.71558C132.206 7.35952 132.976 8.12961 132.443 8.54501Z" fill="#01686F"/>
<path d="M102.852 18.2306C102.731 21.432 102.847 24.6332 103.319 27.8342C103.791 30.9166 104.559 34.058 106.277 36.7244C106.632 37.317 105.742 37.8512 105.387 37.2587C103.611 34.533 102.783 31.3323 102.311 28.1314C101.78 24.8712 101.723 21.6106 101.845 18.2906C101.786 17.52 102.853 17.5192 102.852 18.2306Z" fill="#01686F"/>
<path d="M91.218 37.9218C92.6384 41.122 95.0669 43.7879 96.9025 46.6914C98.8566 49.5948 100.633 52.5576 101.52 55.936C101.697 56.588 100.689 56.8852 100.511 56.2332C99.5656 52.7955 97.7893 49.8327 95.8352 46.9293C93.9403 44.0852 91.6302 41.5377 90.2691 38.3968C90.0323 37.9227 90.922 37.3884 91.218 37.9218Z" fill="#01686F"/>
<path d="M82.1403 47.2367C84.6845 53.8152 86.4577 60.6908 89.4762 67.1504C89.7129 67.743 88.8232 68.2772 88.5865 67.6846C85.568 61.225 83.7356 54.2902 81.1915 47.5932C80.8364 46.882 81.9036 46.6441 82.1403 47.2367Z" fill="#01686F"/>
<path d="M69.0908 56.2577C69.8568 62.3634 70.5635 68.4097 71.5667 74.5152C71.6255 75.1672 70.6174 75.4644 70.5586 74.8124C69.5555 68.7069 68.7896 62.4827 68.0829 56.3178C67.9649 55.6065 69.032 55.6057 69.0908 56.2577Z" fill="#01686F"/>
<path d="M47.6822 65.8187C49.2785 71.4494 47.4362 77.3199 49.0919 82.8913C49.2692 83.5432 48.2612 83.8404 48.0838 83.1884C46.4282 77.6171 48.2705 71.7466 46.6742 66.1159C46.4968 65.4639 47.4455 65.226 47.6822 65.8187Z" fill="#01686F"/>
<path d="M128.39 35.1072C121.335 36.3575 114.279 37.9636 107.755 40.8142C107.162 41.0518 106.629 40.163 107.222 39.9254C113.924 37.0154 120.92 35.35 128.095 34.0996C128.806 33.9805 129.043 35.0474 128.39 35.1072Z" fill="#01686F"/>
<path d="M119.302 59.1239C112.84 58.2396 106.14 59.8454 99.9141 61.4508C99.2619 61.6292 98.9662 60.6216 99.6185 60.4432C106.022 58.7784 112.9 57.2317 119.539 58.1752C120.192 58.2339 120.013 59.2419 119.302 59.1239Z" fill="#01686F"/>
<path d="M80.757 72.5519C86.5643 75.8673 92.5497 78.7676 97.4073 83.5066C97.8812 83.9805 97.1693 84.6924 96.6954 84.2185C92.0156 79.5387 85.9708 76.6978 80.3414 73.4415C79.6895 73.1456 80.1645 72.1967 80.757 72.5519Z" fill="#01686F"/>
<path d="M58.6982 79.4449C61.4235 81.8141 65.3952 82.1075 68.6548 83.4685C70.4327 84.1785 72.0326 85.1851 73.6918 86.1324C75.4695 87.1981 77.3064 88.3231 78.8468 89.6262C79.3801 90.0407 78.6088 90.812 78.1349 90.3381C76.4167 88.9759 74.5205 87.7917 72.6243 86.726C70.9058 85.7195 69.1281 84.6538 67.2315 84.0624C64.031 82.9978 60.5337 82.4669 57.927 80.2162C57.4531 79.7422 58.2243 78.971 58.6982 79.4449Z" fill="#01686F"/>
<path d="M39.7783 91.0204C45.9428 92.2013 52.048 93.5602 57.9155 95.6306C58.5081 95.8672 58.3295 96.8752 57.6183 96.6386C51.7509 94.4496 45.6457 93.0908 39.4811 92.0284C38.8883 91.9103 39.067 90.9024 39.7783 91.0204Z" fill="#01686F"/>
<path d="M3.67956 160.766C23.8958 160.098 49.3202 170.809 58.4348 190.365C41.4767 194.291 8.63833 188.151 2.31499 162.13" fill="white"/>
<path d="M3.74003 159.758C12.2771 159.514 20.8719 161.108 28.8729 164.126C37.1109 167.261 44.9328 171.879 51.0934 178.159C54.4699 181.654 57.3125 185.564 59.4434 189.95C59.68 190.542 59.5016 191.313 58.7901 191.432C50.5483 193.276 41.6561 192.809 33.4765 190.8C24.4078 188.613 15.4593 184.292 9.18072 177.183C5.44909 172.977 2.84454 167.88 1.42592 162.427C1.07122 161.124 3.14656 160.588 3.50126 161.892C5.80616 171.198 11.9659 178.663 20.2027 183.34C27.8469 187.781 36.8563 190.026 45.7485 190.375C49.9575 190.55 54.2261 190.309 58.3767 189.358C58.1392 189.832 57.961 190.366 57.7235 190.84C50.4435 175.373 33.8512 166.137 17.6099 162.949C13.1051 162.004 8.48126 161.651 3.85705 161.773C2.31558 161.893 2.37646 159.818 3.74003 159.758Z" fill="#01686F"/>
<path d="M8.06382 164.557C19.3797 173.975 34.0793 177.52 47.2356 183.557C50.91 185.214 54.4062 187.168 57.7836 189.477C58.6723 190.129 57.8413 191.552 56.9525 190.901C44.8058 182.551 30.0466 179.42 17.0688 172.494C13.454 170.541 10.0173 168.291 6.818 165.685C5.98849 165.092 7.17507 163.906 8.06382 164.557Z" fill="#01686F"/>
<path d="M44.2719 183.322C45.0406 185.871 46.2837 188.3 47.8235 190.433C48.2379 191.085 47.1704 191.679 46.7559 191.027C45.2162 188.775 43.9733 186.227 43.1453 183.619C42.8495 182.849 44.0946 182.552 44.2719 183.322Z" fill="#01686F"/>
<path d="M35.6195 179.654C36.8026 183.091 37.2148 186.707 38.6943 190.085C39.0494 190.796 37.9225 191.449 37.6267 190.679C36.088 187.242 35.6758 183.507 34.4336 180.01C34.0785 179.181 35.3237 178.883 35.6195 179.654Z" fill="#01686F"/>
<path d="M25.4262 175.274C27.6759 179.304 27.9688 183.868 29.5069 188.136C29.8027 188.906 28.5575 189.203 28.2617 188.433C26.7235 184.284 26.4898 179.779 24.3586 175.868C24.0035 175.157 25.071 174.563 25.4262 175.274Z" fill="#01686F"/>
<path d="M38.8202 180.599C41.963 179.589 45.2833 178.994 48.1302 177.332C48.7826 176.916 49.4339 178.042 48.7222 178.398C45.7567 180.179 42.377 180.834 39.1156 181.844C38.404 182.082 38.1086 180.837 38.8202 180.599Z" fill="#01686F"/>
<path d="M29.6935 176.575C33.4298 174.735 37.0478 172.538 41.0206 171.409C41.7914 171.23 42.1462 172.416 41.3161 172.654C37.4025 173.842 33.9031 175.92 30.2262 177.701C29.5737 178.117 28.9225 176.991 29.6935 176.575Z" fill="#01686F"/>
<path d="M20.4483 172.788C22.3464 171.482 24.5404 170.71 26.6753 169.878C27.7428 169.403 28.8102 168.928 29.8186 168.275C30.7676 167.682 31.7165 167.088 32.784 166.613C33.5549 166.316 33.8504 167.561 33.0795 167.858C31.9528 168.273 31.0037 168.986 30.0547 169.579C29.1057 170.173 28.0976 170.588 27.0894 171.004C25.0731 171.836 22.9384 172.549 21.0403 173.855C20.3878 174.389 19.7958 173.322 20.4483 172.788Z" fill="#01686F"/>
<path d="M13.9296 169.354C16.8362 167.159 19.9203 165.378 22.8861 163.241C23.5385 162.826 24.1306 163.892 23.4781 164.308C20.631 166.326 17.6062 168.047 14.7589 170.184C14.4624 170.362 14.1659 170.421 13.8104 170.184C13.6919 170.066 13.633 169.532 13.9296 169.354Z" fill="#01686F"/>
<path d="M13.179 143.447C17.5266 117.537 42.0838 99.4962 66.2742 96.0391C64.5968 118.687 36.7132 145.149 14.3042 144.929" fill="white"/>
<path d="M12.1714 143.152C15.6254 122.874 31.4663 107.034 50.0279 99.3717C55.1872 97.2928 60.5239 95.7473 66.0379 94.9724C66.6308 94.8534 67.4012 95.2678 67.4006 95.9792C66.6222 105.999 61.4574 115.31 55.1674 123.022C48.4028 131.208 39.742 138.329 29.957 142.427C25.0349 144.506 19.6983 145.933 14.3035 145.877C12.9993 145.878 12.9416 143.804 14.3051 143.743C23.8498 143.795 33.0421 139.342 40.6347 133.763C48.8797 127.769 56.0592 119.761 60.7496 110.687C63.1245 106.061 64.8476 101.02 65.2665 95.8622C65.7405 96.2176 66.1553 96.5137 66.6293 96.869C47.5971 99.67 29.092 110.948 19.6528 127.97C16.9813 132.774 15.1395 138.051 14.1868 143.506C13.9484 145.048 11.9333 144.456 12.1714 143.152Z" fill="#01686F"/>
<path d="M65.9762 98.1143C53.2204 110.87 40.1684 123.33 25.8134 134.249C21.7798 137.335 17.6276 140.302 13.4164 143.092C12.4674 143.685 11.6978 142.204 12.5875 141.669C27.5345 131.817 41.0603 119.95 53.9343 107.55C57.5533 104.049 61.1723 100.549 64.7914 96.9295C65.5627 96.1582 66.7474 97.343 65.9762 98.1143Z" fill="#01686F"/>
<path d="M55.2387 107.43C57.8474 107.191 60.4556 107.545 63.0053 106.891C63.7761 106.712 64.1309 107.898 63.3007 108.136C60.6325 108.79 57.9057 108.436 55.1785 108.675C54.8228 108.676 54.5266 108.379 54.5268 108.024C54.6457 107.668 54.883 107.431 55.2387 107.43Z" fill="#01686F"/>
<path d="M47.8226 114.846C51.3197 115.614 54.877 115.256 58.4341 115.135C59.2641 115.134 59.2038 116.379 58.4331 116.439C54.7574 116.56 51.0816 116.919 47.5252 116.092C46.6954 115.855 47.052 114.669 47.8226 114.846Z" fill="#01686F"/>
<path d="M40.2289 121.967C43.9033 123.505 47.9343 123.858 51.9061 124.033C52.6768 124.091 52.7351 125.336 51.9051 125.337C47.7555 125.103 43.5466 124.691 39.6944 123.094C39.3388 122.975 39.3392 122.501 39.4579 122.264C39.5768 121.908 39.9326 121.789 40.2289 121.967Z" fill="#01686F"/>
<path d="M32.161 128.494C35.6575 130.092 39.2728 131.334 42.888 132.813C43.6585 133.109 43.3019 134.295 42.5906 134.058C38.9161 132.638 35.1823 131.278 31.5673 129.68C30.8562 129.206 31.4499 128.139 32.161 128.494Z" fill="#01686F"/>
<path d="M24.4495 134.665C27.4716 136.5 30.9687 137.268 34.3469 138.511C35.1174 138.807 34.7608 139.993 34.0495 139.756C30.6713 138.514 26.9964 137.686 23.9151 135.792C23.1447 135.377 23.7977 134.25 24.4495 134.665Z" fill="#01686F"/>
<path d="M50.3153 110.932C50.8516 107.316 51.0915 103.758 51.7464 100.142C51.9248 99.3707 53.1102 99.7255 52.9911 100.437C52.277 103.995 52.0963 107.611 51.56 111.228C51.5005 111.524 51.1446 111.762 50.789 111.643C50.3741 111.584 50.2558 111.229 50.3153 110.932Z" fill="#01686F"/>
<path d="M42.9588 117.933C42.9623 113.309 42.3137 108.744 42.4358 104.12C42.4365 103.29 43.7407 103.289 43.7401 104.119C43.6179 108.743 44.2666 113.308 44.263 117.932C44.2624 118.762 43.0175 118.703 42.9588 117.933Z" fill="#01686F"/>
<path d="M35.1281 124.935C34.4797 120.133 33.9497 115.45 33.0641 110.649C32.8869 109.878 34.1321 109.581 34.3093 110.352C35.1356 115.094 35.7248 119.836 36.3733 124.637C36.432 125.408 35.1868 125.705 35.1281 124.935Z" fill="#01686F"/>
<path d="M9.50967 135.744C-1.49758 110.379 6.93334 93.8913 28.8792 79.6464C35.5656 96.0628 27.3629 124.17 10.7545 135.92" fill="white"/>
<path d="M8.6195 136.278C5.00963 127.922 2.6453 118.794 4.13436 109.722C5.44479 101.659 9.89657 94.4819 15.7107 88.7862C19.5671 84.9298 23.9566 81.7252 28.4644 78.7575C29.1169 78.342 29.7093 78.8158 29.946 79.4085C32.9045 86.7574 32.7795 95.1757 31.3509 102.765C29.7436 111.362 26.358 119.724 21.1949 126.783C18.4056 130.638 15.1424 134.02 11.2869 136.809C10.1599 137.581 9.15346 135.744 10.2804 134.972C16.9238 130.225 21.7905 123.225 25.0568 115.812C28.3824 108.34 30.3451 100.098 30.1736 91.8579C30.1174 87.7673 29.4684 83.6773 27.93 79.8843C28.4041 80.1211 28.9375 80.2985 29.4116 80.5353C22.2347 85.2242 15.2349 90.8022 10.6644 98.2162C6.56877 104.8 5.0808 112.449 6.02351 120.036C6.67157 125.312 8.3276 130.409 10.3988 135.209C10.9314 136.454 9.1521 137.522 8.6195 136.278Z" fill="#01686F"/>
<path d="M28.9957 81.306C22.7028 92.8119 17.9508 105.028 14.9175 117.776C14.0255 121.393 13.3706 125.01 12.7749 128.686C12.6555 129.753 10.996 129.28 11.1746 128.272C13.2595 115.288 17.0634 102.598 22.586 90.5592C24.13 87.1195 25.8519 83.739 27.6329 80.4178C28.0486 79.5282 29.4707 80.3571 28.9957 81.306Z" fill="#01686F"/>
<path d="M17.1925 89.6741C18.7324 91.6886 20.1536 93.7031 21.3969 95.8956C21.8114 96.5474 20.6845 97.2004 20.3293 96.4893C19.086 94.4153 17.7833 92.4007 16.3026 90.564C16.125 90.2678 16.0067 89.9121 16.3033 89.6155C16.4813 89.4375 16.9556 89.4371 17.1925 89.6741Z" fill="#01686F"/>
<path d="M11.6145 96.7921C13.5687 99.5769 15.6416 102.243 18.011 104.731C18.6034 105.324 17.7135 106.214 17.1211 105.621C14.6331 103.133 12.5011 100.289 10.4876 97.4451C10.0139 96.7341 11.1408 96.0811 11.6145 96.7921Z" fill="#01686F"/>
<path d="M7.16184 104.918C9.64966 107.643 12.1375 110.368 14.7439 112.975C15.3363 113.567 14.4464 114.457 13.854 113.865C11.2475 111.258 8.75972 108.533 6.27191 105.808C5.67953 105.215 6.56946 104.326 7.16184 104.918Z" fill="#01686F"/>
<path d="M19.9724 98.1494C23.3538 95.2419 27.0905 92.8084 30.6496 90.0787C31.3022 89.5446 31.8941 90.7298 31.2417 91.1453C27.8012 93.7564 24.1238 96.1306 20.8017 98.9788C20.2084 99.572 19.3199 98.6835 19.9724 98.1494Z" fill="#01686F"/>
<path d="M16.17 108.468C20.2636 104.611 25.5414 102.532 30.3455 99.7422C30.9979 99.3268 31.6492 100.453 30.9375 100.809C26.3113 103.539 21.0335 105.618 16.9994 109.297C16.4653 109.95 15.5767 109.061 16.17 108.468Z" fill="#01686F"/>
<path d="M14.6231 115.939C16.9359 114.929 19.0711 113.623 21.384 112.614C22.4514 112.139 23.5189 111.664 24.6455 111.366C25.7721 111.069 26.8988 110.772 27.8478 110.06C28.5004 109.525 29.0923 110.711 28.4399 111.126C27.5501 111.779 26.4827 112.136 25.4154 112.373C24.2295 112.73 22.9842 113.146 21.8574 113.68C19.5446 114.69 17.4094 115.996 15.0965 117.006C14.5628 117.302 13.8522 116.236 14.6231 115.939Z" fill="#01686F"/>
<path d="M2.60945 165.509C20.2102 173.973 39.5777 197.613 36.9542 217.178C20.0021 213.278 -5.12083 195.987 2.60945 165.509Z" fill="white"/>
<path d="M3.08445 164.56C10.907 168.348 17.7794 174.153 23.525 180.61C29.3889 187.305 34.4219 195.186 36.8459 203.78C38.0875 208.225 38.5583 212.73 37.9619 217.355C37.9022 217.889 37.1905 218.245 36.7164 218.127C28.8331 216.295 21.2478 212.388 15.0863 207.176C7.91756 201.194 2.58831 193.017 0.816914 183.77C-0.36402 177.605 0.0558511 171.261 1.60187 165.213C1.95857 163.909 3.91451 164.441 3.67638 165.745C1.1789 175.588 2.00095 185.903 7.21107 194.792C11.4738 202.139 18.1685 207.885 25.6352 211.792C29.3686 213.745 33.2209 215.224 37.3107 216.229C36.8954 216.526 36.4803 216.704 36.0651 217.001C37.0791 208.997 34.299 200.877 30.4509 193.944C26.1884 186.24 20.3245 179.546 13.5704 173.978C10.0749 171.076 6.28267 168.589 2.1936 166.636C0.830674 165.866 1.83991 164.027 3.08445 164.56Z" fill="#01686F"/>
<path d="M6.86909 176.888C12.3734 188.681 22.6231 196.914 30.8561 206.571C33.1661 209.237 35.2389 212.021 37.1337 214.984C37.7258 215.932 36.2431 216.704 35.7103 215.815C28.9602 205.031 18.651 197.095 11.0704 187.022C8.87917 184.119 6.98447 181.038 5.44565 177.719C4.9722 176.652 6.39564 175.821 6.86909 176.888Z" fill="#01686F"/>
<path d="M30.3227 206.631C30.202 209.358 30.6149 212.144 30.7313 214.871C30.7307 215.701 29.4858 215.643 29.4271 214.872C29.3106 212.145 28.8978 209.359 29.0184 206.632C29.0783 205.861 30.3233 205.801 30.3227 206.631Z" fill="#01686F"/>
<path d="M23.9848 200.293C23.7448 203.969 23.0898 207.704 23.4426 211.498C23.5013 212.268 22.2563 212.329 22.1384 211.499C21.8448 207.764 22.4998 204.029 22.6805 200.294C22.7404 199.523 24.0446 199.522 23.9848 200.293Z" fill="#01686F"/>
<path d="M18.3573 194.191C17.2297 195.793 16.6947 197.749 16.2189 199.647C15.7432 201.544 15.3267 203.501 14.851 205.398C14.6725 206.169 13.4278 205.874 13.6063 205.103C14.1413 203.146 14.4986 201.13 15.0336 199.173C15.5687 197.217 16.1631 195.2 17.2907 193.599C17.7062 192.947 18.8321 193.598 18.3573 194.191Z" fill="#01686F"/>
<path d="M12.908 187.911C11.5417 191.528 9.87908 194.968 9.16476 198.762C9.04556 199.593 7.86015 199.238 7.92002 198.467C8.63434 194.672 10.2377 191.173 11.6632 187.615C11.9602 186.844 13.205 187.14 12.908 187.911Z" fill="#01686F"/>
<path d="M27.0063 202.366C29.9105 203.253 32.7553 204.318 35.7784 204.73C36.0748 204.789 36.3711 204.967 36.4301 205.382C36.4298 205.738 36.1331 206.034 35.7774 206.035C32.6357 205.622 29.6724 204.557 26.7089 203.611C25.9385 203.315 26.2358 202.07 27.0063 202.366Z" fill="#01686F"/>
<path d="M21.0825 196.323C24.7582 196.202 28.4932 196.021 32.11 195.366C32.9401 195.247 33.2355 196.492 32.4055 196.611C28.6701 197.266 24.8758 197.506 21.0815 197.627C20.2516 197.628 20.2526 196.324 21.0825 196.323Z" fill="#01686F"/>
<path d="M15.2186 189.866C19.1317 189.389 23.2823 188.437 26.8407 186.656C27.5524 186.299 28.2036 187.425 27.4327 187.722C23.5779 189.563 19.3679 190.574 15.1584 191.111C14.3877 191.171 14.4479 189.926 15.2186 189.866Z" fill="#01686F"/>
<path d="M9.29496 183.586C12.972 181.686 17.0632 180.912 20.9178 179.309C21.6887 179.012 22.2808 180.078 21.5098 180.375C17.7145 181.92 13.564 182.753 9.88697 184.653C9.11597 185.068 8.52396 184.002 9.29496 183.586Z" fill="#01686F"/>
<path d="M23.5496 148.954C36.3532 151.078 48.5613 156.641 59.1674 164.044C62.13 166.057 64.9739 168.308 67.6398 170.736C68.6469 171.625 67.1637 173.108 66.1565 172.219C56.6776 163.808 45.3002 157.296 33.2093 153.511C29.8902 152.446 26.3932 151.56 22.8958 151.029C21.7103 150.793 22.1862 148.777 23.5496 148.954Z" fill="#01686F"/>
<path d="M57.9811 164.519C57.9783 168.195 58.8647 171.929 59.8698 175.426C60.047 176.196 58.8611 176.553 58.6246 175.723C57.501 172.108 56.6739 168.314 56.6176 164.461C56.6775 163.69 57.9817 163.689 57.9811 164.519Z" fill="#01686F"/>
<path d="M53.7745 161.262C55.9088 161.141 58.1024 160.962 60.1776 160.545C62.1936 160.188 64.4467 159.712 66.1076 158.407C66.7602 157.873 67.3521 159.058 66.6997 159.473C64.9201 160.779 62.5484 161.373 60.4139 161.731C58.2201 162.147 55.9079 162.327 53.655 162.447C52.9435 162.567 52.9445 161.262 53.7745 161.262Z" fill="#01686F"/>
<path d="M47.3742 158.658C47.8456 162.333 49.325 165.83 49.0258 169.565C48.9659 170.336 47.7209 170.396 47.7215 169.566C48.0207 165.949 46.6006 162.512 46.129 158.955C46.07 158.659 46.1888 158.303 46.5446 158.184C46.9004 158.066 47.3151 158.362 47.3742 158.658Z" fill="#01686F"/>
<path d="M44.1158 155.4C47.614 154.745 50.7575 152.905 53.5455 150.71C53.8421 150.531 54.2569 150.709 54.3753 150.946C54.5529 151.242 54.4341 151.598 54.1375 151.776C51.2309 153.972 48.0282 155.871 44.352 156.586C43.6998 156.764 43.345 155.579 44.1158 155.4Z" fill="#01686F"/>
<path d="M69.3567 173.877C68.2295 175.004 66.3324 175.006 65.2069 173.88C64.0814 172.755 64.0828 170.858 65.2101 169.73C66.3373 168.603 68.2344 168.602 69.3599 169.727C70.4854 170.853 70.484 172.75 69.3567 173.877Z" fill="#01686F"/>
<path d="M60.9361 177.203C58.6222 179.517 55.0679 175.963 57.3818 173.649C59.6363 171.394 63.1906 174.949 60.9361 177.203Z" fill="#01686F"/>
<path d="M49.9731 171.461C47.6592 173.775 44.105 170.221 46.4188 167.907C48.6733 165.652 52.2276 169.206 49.9731 171.461Z" fill="#01686F"/>
<path d="M68.3001 160.717C65.9863 163.031 62.432 159.477 64.7458 157.163C67.0003 154.909 70.5546 158.463 68.3001 160.717Z" fill="#01686F"/>
<path d="M55.3817 153.732C53.0679 156.045 49.5136 152.491 51.8275 150.177C54.1413 147.863 57.6956 151.418 55.3817 153.732Z" fill="#01686F"/>
<path d="M22.6586 150.912C38.6067 149.891 53.1373 141.877 65.2389 131.79C68.5609 129.06 71.7051 126.153 74.7902 123.068C75.7395 122.118 77.2205 123.599 76.2712 124.548C64.9986 135.821 51.7115 145.791 36.2942 150.427C31.8469 151.794 27.2814 152.568 22.7164 152.868C21.2934 153.106 21.295 150.972 22.6586 150.912Z" fill="#01686F"/>
<path d="M68.2693 122.717C67.3772 126.452 67.0775 130.662 64.9408 133.983C64.5253 134.635 63.4586 134.043 63.8741 133.391C66.0108 130.188 66.1918 126.097 67.0838 122.48C67.203 121.65 68.4477 121.946 68.2693 122.717Z" fill="#01686F"/>
<path d="M60.6117 135.824C63.0422 136 65.3548 135.346 67.6673 134.811C70.0983 134.275 72.4698 134.036 74.9 134.687C75.6705 134.864 75.3731 136.109 74.6026 135.932C69.8609 134.631 65.3532 137.362 60.6107 137.128C59.8401 137.069 59.8411 135.765 60.6117 135.824Z" fill="#01686F"/>
<path d="M56.1701 130.077C56.4059 131.855 56.2266 133.693 55.9289 135.412C55.6904 137.191 55.2148 138.97 54.6206 140.63C54.5018 140.986 54.0275 140.986 53.7905 140.868C53.4942 140.69 53.4352 140.276 53.554 140.038C54.2073 138.437 54.5643 136.777 54.8027 135.117C55.0411 133.457 55.1017 131.737 54.9845 130.078C54.9847 129.722 55.2814 129.425 55.6371 129.425C55.9334 129.484 56.1704 129.721 56.1701 130.077Z" fill="#01686F"/>
<path d="M48.6899 143.837C51.0611 144.072 53.3733 143.892 55.7446 144.009C58.1158 144.126 60.3682 144.599 62.4422 145.842C63.094 146.256 62.5003 147.324 61.8485 146.909C57.8784 144.482 53.1942 145.493 48.8076 145.022C47.9184 144.964 47.9193 143.778 48.6899 143.837Z" fill="#01686F"/>
<path d="M45.7296 138.267C45.846 141.112 44.7768 143.84 44.0633 146.568C43.8849 147.338 42.6401 147.043 42.8186 146.272C43.4728 143.604 44.6011 141.054 44.4254 138.268C44.426 137.438 45.7303 137.437 45.7296 138.267Z" fill="#01686F"/>
<path d="M78.701 124.843C77.5738 125.97 75.6767 125.972 74.5512 124.846C73.4257 123.72 73.4271 121.823 74.5544 120.696C75.6816 119.569 77.5787 119.567 78.7042 120.693C79.8297 121.818 79.8283 123.716 78.701 124.843Z" fill="#01686F"/>
<path d="M63.9805 148.331C61.6667 150.645 58.1124 147.09 60.4262 144.776C62.74 142.463 66.2943 146.017 63.9805 148.331Z" fill="#01686F"/>
<path d="M76.9132 137.056C74.5994 139.37 71.0451 135.816 73.3589 133.502C75.6134 131.247 79.1677 134.802 76.9132 137.056Z" fill="#01686F"/>
<path d="M69.0977 124.021C66.7839 126.334 63.2296 122.78 65.5434 120.466C67.7979 118.212 71.3522 121.766 69.0977 124.021Z" fill="#01686F"/>
<path d="M57.6497 132.506C55.3358 134.82 51.7815 131.266 54.0954 128.952C56.4092 126.638 59.9635 130.193 57.6497 132.506Z" fill="#01686F"/>
<path d="M47.5652 140.696C45.2514 143.01 41.6971 139.455 44.011 137.142C46.3248 134.828 49.8791 138.382 47.5652 140.696Z" fill="#01686F"/>
<path d="M-0.807367 137.649C-3.10417 117.791 -14.7156 107.247 -28.1834 120.715C-41.2358 133.767 -25.5919 142.885 -13.2062 148.744C-61.9304 139.889 -35.5383 202.828 -9.30447 163.088C-17.6191 182.539 -11.3447 195.103 6.32635 189.161C23.7602 183.338 15.1146 170.539 7.00102 159.815C52.9818 190.133 51.2005 116.563 12.229 145.464C52.9794 116.088 -0.77329 93.3048 -0.807367 137.649Z" fill="white"/>
<path d="M-1.87444 137.65C-2.87556 128.936 -7.84243 112.103 -19.9988 116.321C-22.9045 117.332 -25.3366 119.29 -27.4725 121.426C-29.371 123.324 -31.0919 125.519 -31.8053 128.128C-32.9943 132.397 -30.4479 136.13 -27.4266 138.914C-23.2204 142.764 -17.8869 145.369 -12.7311 147.795C-11.6051 148.328 -12.3771 149.929 -13.5033 149.752C-19.8458 148.631 -27.3744 148.103 -33.246 151.368C-36.8045 153.387 -39.1193 156.886 -39.4187 160.858C-39.6588 164.653 -38.3576 168.564 -35.9883 171.29C-33.4414 174.193 -29.8855 175.731 -26.091 175.254C-20.2214 174.479 -15.5343 169.673 -12.1517 165.224C-11.5582 164.394 -10.9054 163.504 -10.3712 162.615C-9.59961 161.488 -8.05897 162.435 -8.53415 163.621C-11.6819 171.034 -16.0813 187.162 -4.22626 189.406C-1.73672 189.878 0.990613 189.521 3.42174 188.867C6.32723 188.094 9.35146 187.083 11.7243 185.185C13.3259 183.938 14.5721 182.337 15.0479 180.321C15.4644 178.364 15.1101 176.467 14.5188 174.571C12.8036 169.296 9.13154 164.674 5.93359 160.29C5.3414 159.46 6.52798 158.274 7.3575 158.866C13.4607 162.833 20.6902 166.741 28.279 166.142C32.7255 165.842 36.5808 163.408 38.5994 159.613C40.4992 156.054 40.8581 151.786 39.6162 147.933C38.4926 144.199 35.768 141.118 31.9746 140.054C26.2253 138.458 20.0576 141.427 15.3125 144.513C14.3635 145.107 13.4738 145.76 12.584 146.412C12.2288 145.82 11.8735 145.227 11.5776 144.575C17.0347 140.659 22.7891 135.615 25.2839 129.211C26.7689 125.475 26.7719 121.562 24.5809 118.303C22.8044 115.696 19.4858 114.038 16.166 113.922C12.3127 113.747 8.69509 115.469 6.02509 118.376C1.27849 123.478 0.20555 131.068 0.141119 137.767C0.199445 139.012 -1.87544 138.954 -1.87444 137.65C-1.81 130.951 -0.737339 123.717 3.4167 118.26C6.20581 114.641 10.2983 112.089 14.982 111.789C18.8949 111.549 22.925 113.087 25.5313 115.931C28.4336 119.189 29.1416 123.694 28.012 127.904C26.169 134.605 20.8886 140.003 15.6092 144.217C14.6601 144.929 13.711 145.641 12.7619 146.353C11.6349 147.125 10.6878 145.347 11.7555 144.516C17.1534 140.54 24.0925 136.681 31.0279 137.684C35.5923 138.332 39.384 141.412 41.1593 145.679C42.9346 149.828 42.9901 154.748 41.3269 158.899C39.4856 163.465 35.6296 166.848 30.8269 167.859C23.5931 169.406 16.0072 166.329 9.84441 162.777C8.71852 162.126 7.53339 161.415 6.4076 160.645C6.88223 160.171 7.35686 159.696 7.83149 159.221C12.8654 165.917 22.4601 178.003 14.2136 185.894C11.8999 188.089 8.87546 189.337 5.85123 190.347C2.94564 191.238 -0.0783225 191.893 -3.10156 191.599C-8.02178 191.187 -11.8137 188.345 -13.3515 183.603C-15.5396 176.669 -13.0437 168.841 -10.3711 162.496C-9.77851 162.851 -9.18594 163.206 -8.53405 163.502C-12.2139 169.078 -17.2576 175.069 -24.0173 176.853C-28.4644 177.983 -33.0284 176.86 -36.4645 173.78C-39.6043 170.877 -41.4388 166.551 -41.6133 162.224C-41.7283 157.6 -39.6501 153.27 -35.9131 150.481C-30.4559 146.446 -22.986 146.321 -16.5247 147.087C-15.3391 147.205 -14.1536 147.441 -13.0274 147.618C-13.3243 148.27 -13.5619 148.863 -13.7996 149.575C-18.8962 147.207 -24.0518 144.544 -28.3174 140.871C-31.872 137.791 -34.9515 133.525 -34.1177 128.545C-33.7006 125.758 -32.098 123.326 -30.2586 121.25C-28.0632 118.699 -25.3937 116.385 -22.3098 114.96C-17.3875 112.644 -12.1118 113.292 -8.14264 117.024C-2.63323 122.177 -0.623874 130.357 0.200537 137.589C0.377338 138.952 -1.75687 138.954 -1.87444 137.65Z" fill="#01686F"/>
<path d="M13.9628 126.789C8.74113 132.959 4.94152 140.075 1.85303 147.548C1.55602 148.318 0.430139 147.667 0.786387 146.956C3.9342 139.424 7.7339 132.189 13.0743 125.9C13.6083 125.248 14.4969 126.136 13.9628 126.789Z" fill="#01686F"/>
<path d="M6.94767 152.642C14.2394 152.814 21.6504 152.157 28.8226 153.515C29.5932 153.692 29.2958 154.937 28.5253 154.76C21.4716 153.402 14.1198 154.119 6.94667 153.946C6.17603 153.888 6.1177 152.643 6.94767 152.642Z" fill="#01686F"/>
<path d="M0.42155 158.338C0.238734 164.8 1.4194 171.321 3.19317 177.485C3.37043 178.255 2.18448 178.612 1.94799 177.782C0.174307 171.499 -1.12483 164.861 -0.941922 158.28C-0.822717 157.45 0.422188 157.508 0.42155 158.338Z" fill="#01686F"/>
<path d="M-7.32512 133.268C-4.24511 136.822 -2.7072 141.327 -1.05063 145.712C-0.754805 146.483 -1.99999 146.78 -2.29582 146.01C-3.834 141.861 -5.31276 137.534 -8.21506 134.157C-8.80744 133.565 -7.9175 132.675 -7.32512 133.268Z" fill="#01686F"/>
<path d="M14.1916 137.46C11.2838 141.197 7.72435 144.401 4.81659 148.138C4.28253 148.79 3.45329 147.842 3.92802 147.249C6.83578 143.512 10.3953 140.308 13.303 136.571C13.7778 135.859 14.6664 136.748 14.1916 137.46Z" fill="#01686F"/>
<path d="M4.77005 131.954C2.9878 136.817 1.79831 141.798 0.431002 146.719C0.25256 147.49 -0.992172 147.194 -0.813729 146.424C0.553574 141.502 1.8024 136.462 3.52532 131.659C3.82233 130.888 5.06706 131.183 4.77005 131.954Z" fill="#01686F"/>
<path d="M6.41576 150.093C11.1591 149.259 15.7842 147.952 20.5274 147.237C21.3575 147.117 21.653 148.362 20.8229 148.481C16.0797 149.196 11.3953 150.445 6.71123 151.338C5.88117 151.457 5.5857 150.212 6.41576 150.093Z" fill="#01686F"/>
<path d="M6.88606 155.073C11.0351 156.137 15.3621 157.023 19.1547 159.035C19.8658 159.39 19.2128 160.517 18.561 160.103C14.8277 158.149 10.5599 157.323 6.52944 156.259C5.75889 156.081 6.11551 154.896 6.88606 155.073Z" fill="#01686F"/>
<path d="M3.26726 158.336C4.56822 162.604 6.46219 166.634 8.88995 170.367C9.30443 171.019 8.17755 171.672 7.82239 170.96C5.3354 167.168 3.44152 163.02 2.14065 158.634C1.78549 157.923 2.97143 157.566 3.26726 158.336Z" fill="#01686F"/>
<path d="M-2.18594 157.392C-2.66413 162.49 -3.9722 167.471 -4.56895 172.57C-4.68816 173.4 -5.87356 173.045 -5.81368 172.275C-5.15778 167.354 -3.90904 162.432 -3.43095 157.452C-3.31174 156.622 -2.12607 156.621 -2.18594 157.392Z" fill="#01686F"/>
<path d="M6.35002 158.333C4.45149 160.232 1.60497 161.42 -1.06275 161.362C-3.67122 161.364 -6.69383 160.24 -8.47088 158.345C-10.3072 156.39 -11.6686 153.723 -11.4886 150.937C-11.368 148.209 -10.4173 145.482 -8.45949 143.524C-6.56095 141.625 -3.71443 140.437 -1.04671 140.495C1.56176 140.493 4.58436 141.617 6.36141 143.512C8.1977 145.467 9.55917 148.134 9.37918 150.92C9.25852 153.648 8.36721 156.316 6.35002 158.333Z" fill="#01686F"/>
<path d="M4.51669 152.822C2.20285 155.136 -1.35143 151.581 0.962409 149.268C3.21692 147.013 6.7712 150.567 4.51669 152.822Z" fill="white"/>
<path d="M-0.221336 146.778C-2.11987 148.677 -5.08177 145.715 -3.18324 143.816C-1.28471 141.918 1.6772 144.88 -0.221336 146.778Z" fill="white"/>
<path d="M0.718887 158.16C-0.705013 159.584 -2.95606 157.333 -1.53216 155.909C-0.0490204 154.545 2.14279 156.736 0.718887 158.16Z" fill="white"/>
</g>
</g>
</svg>
