<svg width="232" height="103" viewBox="0 0 232 103" fill="none" xmlns="http://www.w3.org/2000/svg">
<mask id="mask0_560_4454" style="mask-type:alpha" maskUnits="userSpaceOnUse" x="0" y="0" width="232" height="103">
<rect width="231.161" height="102.658" transform="matrix(1 0 0 -1 0 103)" fill="#D9D9D9"/>
</mask>
<g mask="url(#mask0_560_4454)">
<path d="M19.0435 26.0002C21.607 18.9635 12.7942 14.4479 8.27384 11.939C10.0971 17.0537 13.1064 24.3602 19.0435 26.0002Z" fill="#F4A100"/>
<path d="M19.5002 26.0912C22.0182 18.8261 13.6165 14.3559 8.45686 11.4821C8.09156 11.2996 7.58883 11.6198 7.72555 12.0308C9.73119 17.6022 12.6037 24.5891 18.8604 26.4571C19.4541 26.5937 19.7289 25.6799 19.0896 25.4977C13.1981 23.812 10.5539 16.9621 8.63937 11.756C8.36514 11.9389 8.18228 12.1218 7.90806 12.3047C12.6568 14.9505 20.7847 19.0555 18.4955 25.8179C18.358 26.4118 19.2714 26.6852 19.5002 26.0912Z" fill="#F8C054"/>
<path d="M25.6609 33.6236C21.6436 30.3377 13.9717 27.2374 9.58286 31.9001C12.6857 36.283 21.6388 36.6416 25.9348 33.8975" fill="#F4A100"/>
<path d="M26.0267 33.2575C21.6441 29.6978 13.8808 26.6889 9.26345 31.4889C9.12631 31.626 9.03474 31.9002 9.21732 32.0827C11.0883 34.5937 14.1937 35.6876 17.1627 36.0051C20.1773 36.2769 23.5579 35.9088 26.2086 34.2623C26.7114 33.9422 26.2552 33.1203 25.7525 33.4404C23.376 34.904 20.3151 35.3175 17.5745 35.0455C14.8796 34.8192 11.774 33.908 10.0856 31.5796C10.0855 31.7623 10.0396 31.9907 10.0395 32.1735C14.2454 27.7849 21.415 30.6573 25.4323 33.9432C25.8431 34.354 26.5289 33.6682 26.0267 33.2575Z" fill="#F8C054"/>
<path d="M33.1035 38.0488C36.8529 33.2952 33.3892 22.9742 27.8631 21.471C27.5849 26.7701 27.7175 32.5713 32.7381 37.9577" fill="#F4A100"/>
<path d="M33.423 38.368C35.6178 35.5342 35.4381 31.6058 34.39 28.3634C33.3874 25.2579 31.243 21.9249 27.9091 20.9682C27.6351 20.877 27.3151 21.1057 27.2692 21.4255C27.13 24.2121 27.1279 27.0442 27.7652 29.8759C28.4936 33.0729 30.0903 35.8582 32.2811 38.2319C32.7376 38.6883 33.4233 38.0026 32.9668 37.5462C30.8217 35.2181 29.3163 32.5242 28.6335 29.3727C28.0417 26.7694 28.0894 24.0743 28.2285 21.379C28 21.5163 27.8172 21.6991 27.5887 21.8363C30.5572 22.702 32.4277 25.7611 33.3849 28.5469C34.2963 31.3783 34.6132 35.0782 32.647 37.5921C32.3725 38.1405 33.0572 38.8251 33.423 38.368Z" fill="#F8C054"/>
<path d="M38.7196 40.9224C33.1032 38.0488 27.026 40.2918 23.6419 45.2279C28.8005 49.3808 36.1584 44.9442 39.0851 40.8307" fill="#F4A100"/>
<path d="M38.9942 40.4653C36.2544 39.097 33.1485 38.734 30.2242 39.6498C27.3457 40.52 24.9232 42.4861 23.2311 44.9084C23.1396 45.0912 23.1394 45.3653 23.2764 45.5022C28.572 49.7007 36.0666 45.7665 39.4963 40.9674C39.8621 40.419 38.9945 40.0085 38.6744 40.5112C35.6106 44.7618 28.7099 48.5586 23.9621 44.8165C23.962 44.9992 24.0075 45.2276 24.0073 45.4103C25.5621 43.2165 27.7562 41.3876 30.4063 40.5633C33.1021 39.6933 35.9339 40.0566 38.4454 41.288C39.039 41.6073 39.5421 40.739 38.9942 40.4653Z" fill="#F8C054"/>
<path d="M45.8908 42.0584C48.4065 37.8082 46.539 30.7292 41.4708 27.8553C38.7706 34.3896 41.463 37.9049 45.6167 42.0586" fill="#F4A100"/>
<path d="M46.3017 42.2867C49.1835 37.214 46.5394 30.2727 41.6994 27.4442C41.4255 27.2617 41.1056 27.4903 41.014 27.7645C39.9614 30.3691 39.5023 33.2929 40.5509 35.9873C41.5082 38.4989 43.4252 40.5074 45.2967 42.3788C45.7531 42.8353 46.4389 42.1496 45.9824 41.6931C44.2479 39.9586 42.3765 38.0871 41.4647 35.7125C40.4617 33.1552 40.9662 30.4596 41.9731 27.9921C41.7446 28.1294 41.5162 28.1752 41.2877 28.3124C45.671 30.8672 48.1328 37.2605 45.4798 41.8305C45.1597 42.3333 46.0272 42.8351 46.3017 42.2867Z" fill="#F8C054"/>
<path d="M52.1933 43.5156C47.5803 42.6512 38.3946 47.8201 37.2491 52.4347C45.06 52.9312 47.8033 49.6401 52.3299 44.1093" fill="#F4A100"/>
<path d="M52.2853 43.0588C49.1794 42.513 45.7524 43.9317 43.1017 45.4869C40.4968 46.9963 37.5259 49.2369 36.7012 52.3438C36.6553 52.6636 36.8378 52.9375 37.1575 52.983C40.2636 53.1633 43.4159 52.7498 46.0666 51.1032C48.6717 49.4111 50.6378 46.8972 52.6039 44.566C53.0154 44.0632 52.3307 43.3785 51.9192 43.8813C50.0446 46.1211 48.2612 48.5435 45.7932 50.1899C43.1882 51.882 40.173 52.2498 37.1582 52.0694C37.2951 52.2977 37.4777 52.4803 37.6145 52.7085C38.3019 49.9215 41.1813 47.8637 43.5577 46.4915C45.9799 45.0735 49.1329 43.655 52.0104 44.1553C52.6956 44.1091 52.9247 43.1496 52.2853 43.0588Z" fill="#F8C054"/>
<path d="M59.9569 46.0677C62.4734 40.8126 57.1799 33.7819 52.7964 31.4099C51.8785 37.075 54.9348 42.5999 59.4546 45.8397" fill="#F4A100"/>
<path d="M60.3681 46.2957C61.695 43.4168 60.9666 40.2197 59.4612 37.5258C57.9559 34.8318 55.7194 32.4125 53.0254 30.9071C52.7971 30.7702 52.3859 30.9076 52.34 31.2274C51.4675 37.1208 54.4781 42.7828 59.1805 46.2052C59.6826 46.6159 60.1401 45.702 59.6379 45.3826C55.3007 42.234 52.427 36.8917 53.2077 31.4551C52.9792 31.5923 52.7508 31.6382 52.5223 31.7754C54.9879 33.1439 57.0419 35.2893 58.4105 37.6636C59.8247 40.0836 60.736 43.0978 59.5006 45.7938C59.2717 46.3879 60.0936 46.844 60.3681 46.2957Z" fill="#F8C054"/>
<path d="M66.3945 50.9505C61.9674 45.792 53.3299 50.9605 50.4489 55.1196C55.4716 57.8566 63.1018 55.7037 66.3945 50.9505Z" fill="#F4A100"/>
<path d="M66.7142 50.6304C62.9261 46.2937 56.5289 48.948 52.7808 51.9658C51.7295 52.8345 50.7694 53.7945 49.9464 54.8915C49.8091 55.12 49.9459 55.4397 50.1286 55.5309C55.608 58.4502 63.2383 56.206 66.7138 51.1785C67.034 50.6758 66.2121 50.2196 65.8919 50.7223C62.6908 55.2928 55.6088 57.3539 50.586 54.7083C50.6315 54.9366 50.7227 55.1193 50.7682 55.3477C53.6949 51.2342 61.6926 46.4316 65.9829 51.2704C66.4393 51.7269 67.125 51.0412 66.7142 50.6304Z" fill="#F8C054"/>
<path d="M70.7759 56.0637C74.0688 51.0363 72.5681 42.2212 67.2715 39.2104C65.5308 45.5156 67.263 50.265 70.4112 55.1503" fill="#F4A100"/>
<path d="M71.1868 56.2913C74.6169 50.9441 73.1619 42.0832 67.5001 38.7986C67.2262 38.6161 66.8606 38.7991 66.8147 39.1189C66.0816 41.9516 65.8509 44.921 66.5339 47.7983C67.1713 50.5387 68.4941 53.0501 69.9997 55.4699C70.3191 55.9722 71.1417 55.5147 70.8223 55.0125C69.4079 52.7753 68.1307 50.4009 67.4932 47.7519C66.8102 44.966 66.9951 42.1337 67.7281 39.3923C67.4996 39.5295 67.2711 39.5754 67.0426 39.7126C72.2478 42.7235 73.4748 50.9906 70.3648 55.9265C69.999 56.3835 70.8209 56.8397 71.1868 56.2913Z" fill="#F8C054"/>
<path d="M74.2872 63.872C70.9104 59.2153 64.0147 56.6168 58.9412 60.5949C63.0945 65.2054 68.7584 65.8405 74.2413 64.1005" fill="#F4A100"/>
<path d="M74.6984 63.6433C71.0021 58.667 63.8322 56.1601 58.6216 60.2754C58.393 60.4126 58.4841 60.7779 58.621 61.0062C60.5836 63.1517 63.0948 64.7486 66.0179 65.2945C68.8496 65.8405 71.7277 65.5185 74.4235 64.6485C75.0175 64.4196 74.7898 63.5519 74.1958 63.6894C71.6371 64.5136 68.896 64.8812 66.247 64.335C63.5066 63.789 61.178 62.3747 59.3067 60.3205C59.3066 60.5032 59.3064 60.7773 59.3062 61.0514C64.0141 57.3477 70.5901 59.8094 73.8757 64.1921C74.1951 64.603 75.0634 64.0999 74.6984 63.6433Z" fill="#F8C054"/>
<path d="M76.7955 69.123C76.5719 62.865 78.4498 56.4226 83.6144 52.81C86.9909 57.7408 83.4664 67.0166 77.5728 68.1631" fill="#F4A100"/>
<path d="M77.2524 69.1229C77.0742 63.1846 78.7692 56.8338 83.7969 53.1755C83.5685 53.13 83.3858 53.0388 83.1575 52.9933C86.3971 57.7872 83.2385 66.4232 77.3906 67.6153C76.7966 67.7528 77.0243 68.7119 77.6182 68.5744C83.9688 67.2448 87.5391 57.832 83.9801 52.5358C83.8432 52.3076 83.5236 52.1708 83.3407 52.3536C78.0388 56.1948 76.1152 62.7742 76.2931 69.078C76.3383 69.7631 77.2519 69.7624 77.2524 69.1229Z" fill="#F8C054"/>
<path d="M87.6118 82.1338C83.001 78.3459 79.9442 73.4604 77.4359 68.1178C75.1556 63.2775 73.3324 58.1627 70.2295 53.7798C66.7159 48.8947 61.7849 45.6095 56.0306 43.8781C52.6054 42.8301 48.997 42.3304 45.526 41.5108C42.4659 40.828 39.406 39.9624 36.4377 38.8227C33.2867 37.5917 30.2275 35.9039 27.5796 33.8047C24.4753 31.3403 21.8281 28.3275 19.5009 25.086C18.9078 24.2185 17.5367 25.0418 18.0843 25.8636C21.9628 31.3879 26.7556 36.0893 32.8745 39.0081C38.7194 41.8358 45.1593 43.1556 51.4622 44.4298C54.9333 45.158 58.3129 46.069 61.3721 47.8482C63.8378 49.2167 66.029 51.0422 67.8545 53.2334C71.2774 57.3877 73.2377 62.4567 75.381 67.2515C78.0714 73.3248 81.3561 78.9866 86.5146 83.2309C87.2907 83.9155 88.4336 82.7727 87.6118 82.1338Z" fill="#F8C054"/>
<path d="M24.8846 33.3036C22.7827 34.0361 20.3168 32.9417 18.3074 32.3037C15.7043 31.4378 12.8723 31.1659 10.1312 31.6248C9.58294 31.7166 9.81075 32.493 10.359 32.4012C13.1459 31.8966 15.9777 32.3512 18.6264 33.2628C20.6358 33.9008 23.0105 34.8125 25.1124 34.08C25.5693 33.897 25.3415 33.1206 24.8846 33.3036Z" fill="#F8C054"/>
<path d="M38.0806 40.6489C35.7045 41.5643 33.1917 42.0687 30.8158 42.8014C28.577 43.4883 26.3379 44.4493 24.0535 44.9992C23.5509 45.1367 23.7787 45.9131 24.2813 45.7756C26.6114 45.18 28.8048 44.2647 31.0436 43.5778C33.5109 42.845 35.9323 42.3407 38.3084 41.4252C38.7654 41.2422 38.5375 40.4658 38.0806 40.6489Z" fill="#F8C054"/>
<path d="M18.9983 24.7662C17.3097 22.7119 16.2152 20.3374 14.6181 18.1916C13.0666 16.0915 11.0123 14.3116 9.18652 12.4858C8.82136 12.1206 8.22706 12.7149 8.63794 13.0344C10.555 14.9515 12.7006 16.8227 14.2976 19.0598C15.7121 21.1143 16.8524 23.3518 18.4497 25.3148C18.7235 25.7714 19.3178 25.1771 18.9983 24.7662Z" fill="#F8C054"/>
<path d="M50.9144 43.5165C49.04 45.4822 46.4354 46.6262 44.1959 48.1354C42.1849 49.5073 40.1738 51.062 37.7978 51.8861C37.3409 52.0691 37.4773 52.8456 38.0256 52.6625C40.4473 51.7927 42.5041 50.2836 44.6065 48.8203C46.8917 47.2654 49.5877 46.1213 51.5535 44.0642C51.8279 43.6985 51.2345 43.1052 50.9144 43.5165Z" fill="#F8C054"/>
<path d="M65.5725 50.4938C60.3644 51.2287 55.7025 54.5213 50.4492 54.6623C49.901 54.6628 49.9004 55.485 50.4486 55.4846C55.7932 55.3434 60.5465 52.0508 65.8003 51.2702C66.3028 51.2242 66.075 50.4478 65.5725 50.4938Z" fill="#F8C054"/>
<path d="M60.0489 45.428C58.6365 40.6327 56.2645 36.2492 53.4812 32.0944C53.2075 31.6378 52.5219 32.0495 52.7957 32.5061C55.5333 36.6152 57.8597 40.953 59.2721 45.657C59.4088 46.1594 60.1855 45.9304 60.0489 45.428Z" fill="#F8C054"/>
<path d="M45.9369 41.3735C45.8035 36.6685 43.8425 32.4218 41.9729 28.175C41.7448 27.6726 41.0593 28.0843 41.2873 28.5866C43.1114 32.6964 45.0268 36.8061 45.1604 41.3284C45.1599 41.8765 45.9822 41.8759 45.9369 41.3735Z" fill="#F8C054"/>
<path d="M33.1499 37.0892C33.154 31.7903 31.3309 26.4014 28.5022 21.927C28.2285 21.4704 27.5429 21.882 27.8167 22.3386C30.5998 26.6761 32.3316 31.9736 32.3733 37.1355C32.3272 37.638 33.1495 37.6373 33.1499 37.0892Z" fill="#F8C054"/>
<path d="M73.8763 63.2783C69.4467 61.5915 64.7427 60.179 59.992 60.1827C59.4438 60.1831 59.4432 61.0053 59.9913 61.0049C64.6964 61.047 69.3547 62.4138 73.693 64.1006C74.1496 64.283 74.3786 63.5063 73.8763 63.2783Z" fill="#F8C054"/>
<path d="M71.2334 54.6926C71.555 52.3626 70.9173 49.9878 70.3252 47.7499C70.0063 46.5168 69.7332 45.3293 69.3686 44.1419C68.9585 42.8175 68.4571 41.4931 67.9556 40.1688C67.7732 39.7121 66.9509 39.8955 67.1789 40.3978C67.6348 41.5851 68.1363 42.8181 68.5465 44.0512C68.911 45.2386 69.1842 46.426 69.503 47.6592C70.0495 49.8514 70.7785 52.2262 70.5027 54.5104C70.411 54.9673 71.1873 55.1951 71.2334 54.6926Z" fill="#F8C054"/>
<path d="M83.1114 53.4044C82.4222 58.5668 79.4953 62.863 77.0252 67.3416C76.7507 67.7986 77.4814 68.1634 77.7101 67.7521C80.1802 63.2736 83.1528 58.8403 83.842 53.678C83.9795 53.084 83.2031 52.8562 83.1114 53.4044Z" fill="#F8C054"/>
<path d="M214.104 15.1629C220.499 16.5284 224.39 4.87694 225.399 0.582239C220.647 2.32173 212.739 9.22551 214.104 15.1629Z" fill="#F4A100"/>
<path d="M214.013 15.6195C217.667 16.3476 220.364 13.3763 222.011 10.5429C223.84 7.52658 225.076 4.09962 225.901 0.718661C225.947 0.398865 225.628 -0.0120094 225.308 0.125277C222.109 1.31542 219.23 3.55595 216.989 6.16144C214.795 8.62985 212.874 11.9203 213.648 15.3457C213.784 15.9394 214.744 15.7103 214.607 15.1166C213.924 11.9652 215.937 8.85738 217.948 6.57183C220.006 4.24056 222.657 2.13724 225.581 1.03867C225.398 0.856088 225.17 0.627863 224.988 0.445283C224.254 3.55209 223.11 6.61354 221.6 9.40119C220.137 12.0518 217.713 15.3883 214.288 14.7057C213.602 14.5692 213.373 15.5286 214.013 15.6195Z" fill="#F8C054"/>
<path d="M202.177 21.5215C205.326 26.1327 214.14 28.9124 218.026 24.0217C215.516 21.5112 206.701 20.0105 203.228 21.0182" fill="#F4A100"/>
<path d="M201.72 21.7955C205.005 26.6351 214.002 29.6887 218.3 24.3865C218.483 24.2037 218.529 23.8839 218.3 23.6557C216.429 21.8756 213.506 21.1469 211.04 20.692C208.482 20.2372 205.559 19.7826 203 20.5155C202.406 20.653 202.634 21.6121 203.228 21.4746C205.604 20.8333 208.39 21.2422 210.765 21.6972C212.135 21.9702 213.459 22.289 214.784 22.7904C215.788 23.1551 216.839 23.6568 217.569 24.3871C217.569 24.2044 217.569 23.9303 217.57 23.6562C213.729 28.4099 205.554 25.6297 202.497 21.2924C202.269 20.7901 201.401 21.2933 201.72 21.7955Z" fill="#F8C054"/>
<path d="M199.025 21.204C203.778 18.4595 210.09 8.6791 204.566 3.88693C199.263 9.6467 197.524 12.937 199.757 20.4725" fill="#F4A100"/>
<path d="M199.253 21.6152C201.675 20.1973 203.596 17.9118 205.014 15.581C206.477 13.2045 207.576 10.2802 207.121 7.44835C206.848 5.89543 206.118 4.52559 204.931 3.52154C204.749 3.33896 204.429 3.29353 204.201 3.5221C202.052 5.85344 199.857 8.32185 198.85 11.3375C197.843 14.3532 198.388 17.5504 199.254 20.5189C199.391 21.1126 200.35 20.8835 200.214 20.2898C199.393 17.4582 198.848 14.4438 199.763 11.6109C200.725 8.73231 202.874 6.40097 204.885 4.20678C204.703 4.20692 204.428 4.20713 204.154 4.20734C206.848 6.62632 206.388 10.2811 205.061 13.2513C203.688 16.1759 201.494 19.1011 198.751 20.7477C198.249 21.0678 198.751 21.9354 199.253 21.6152Z" fill="#F8C054"/>
<path d="M188.105 24.5468C193.406 21.5278 200.755 29.4248 202.304 33.7176C197.418 32.5793 189.105 30.8498 187.237 24.9585" fill="#F4A100"/>
<path d="M188.379 25.0038C191.166 23.4942 194.317 25.1819 196.508 26.9161C198.7 28.7416 200.89 31.1153 201.848 33.8097C202.031 33.6268 202.259 33.3983 202.442 33.2154C199.61 32.578 196.779 31.9407 194.13 30.7551C191.39 29.5695 188.742 27.7443 187.694 24.7759C187.466 24.1822 186.552 24.457 186.734 25.005C188.831 31.2159 196.504 32.8545 202.167 34.1292C202.487 34.1746 202.853 33.9003 202.762 33.5349C201.668 30.5209 199.294 27.7819 196.738 25.8653C194.272 23.9486 190.848 22.4438 187.831 24.0906C187.283 24.4565 187.785 25.324 188.379 25.0038Z" fill="#F8C054"/>
<path d="M183.443 27.4743C185.958 24.2291 189.066 22.3081 188.978 17.6488C188.843 15.2279 187.978 12.0766 186.106 10.4792C182.859 15.0041 180.205 21.6754 183.947 26.4232" fill="#F4A100"/>
<path d="M183.809 27.8396C185.775 25.3257 188.517 23.2223 189.251 20.0241C189.663 18.3336 189.482 16.5066 189.026 14.8624C188.571 13.1269 187.795 11.4374 186.426 10.2507C186.198 10.0225 185.832 10.1141 185.695 10.3427C182.311 15.0046 179.702 21.813 183.581 26.8805C183.992 27.3826 184.632 26.6513 184.267 26.1947C180.662 21.4925 183.453 15.0494 186.471 10.8445C186.243 10.8904 185.969 10.8906 185.74 10.9365C186.973 12.0775 187.702 13.7214 188.112 15.3199C188.522 16.9184 188.658 18.6085 188.2 20.162C187.375 22.9948 184.861 24.9609 183.078 27.2006C182.758 27.612 183.397 28.3424 183.809 27.8396Z" fill="#F8C054"/>
<path d="M178.916 34.2843C184.673 32.2699 192.345 34.9135 195.402 40.4384C189.6 41.2194 180.829 41.4089 178.596 34.4216" fill="#F4A100"/>
<path d="M179.053 34.6949C184.81 32.7719 191.98 35.2788 194.945 40.6211C195.082 40.3926 195.128 40.1641 195.265 39.9356C189.6 40.6709 181.241 40.9057 179.007 34.2838C178.779 33.6901 177.866 33.9649 178.048 34.5129C180.463 41.7742 189.188 41.7218 195.493 40.8947C195.813 40.8488 195.95 40.4376 195.813 40.2093C192.62 34.4561 184.993 31.7668 178.825 33.8271C178.185 34.0103 178.459 34.9237 179.053 34.6949Z" fill="#F8C054"/>
<path d="M175.394 40.8186C175.9 36.2959 173.393 29.2174 165.994 27.1218C166.127 33.0144 168.725 39.4533 174.525 41.4131" fill="#F4A100"/>
<path d="M175.896 40.7728C176.218 37.9861 175.444 35.1088 174.03 32.6888C172.296 29.6753 169.42 27.6219 166.132 26.6195C165.858 26.5283 165.492 26.8027 165.492 27.0768C165.67 33.1064 168.314 39.6823 174.388 41.8246C174.982 42.0525 175.211 41.0931 174.617 40.8651C169 38.8138 166.584 32.5575 166.451 27.0303C166.223 27.1675 166.04 27.3504 165.811 27.4876C171.52 29.1734 175.49 34.6976 174.846 40.7279C174.891 41.4131 175.804 41.4124 175.896 40.7728Z" fill="#F8C054"/>
<path d="M173.012 48.9524C175.985 44.4278 186.079 46.3843 188.588 50.4479C182.465 52.828 178.033 54.2475 173.149 49.0894" fill="#F4A100"/>
<path d="M173.423 49.1804C175.024 46.8495 178.45 46.6184 181.008 46.9819C183.566 47.3454 186.717 48.3936 188.177 50.6765C188.314 50.448 188.36 50.2195 188.497 49.991C185.984 50.9522 183.288 52.0963 180.547 52.0984C177.76 52.1462 175.432 50.732 173.515 48.7235C173.058 48.2671 172.373 48.9528 172.829 49.4092C174.837 51.509 177.349 53.0145 180.318 53.0579C183.241 53.0556 186.074 51.9571 188.77 50.9044C189.044 50.8129 189.273 50.4929 189.091 50.219C187.813 48.21 185.484 47.0698 183.246 46.4777C180.826 45.7944 178.04 45.5681 175.664 46.4835C174.476 46.9412 173.379 47.673 172.647 48.7698C172.235 49.2726 173.057 49.7288 173.423 49.1804Z" fill="#F8C054"/>
<path d="M170.128 57.4048C172.279 52.2413 166.484 43.7036 161.597 42.1085C162.552 47.6351 163.003 55.309 168.985 58.0909" fill="#F4A100"/>
<path d="M170.584 57.4961C171.82 54.4346 170.498 50.8269 168.901 48.133C167.259 45.3935 164.794 42.6546 161.689 41.5606C161.324 41.4695 161.049 41.8352 161.095 42.1549C162.141 48.0468 162.546 55.4924 168.756 58.4111C169.304 58.6848 169.808 57.8165 169.214 57.5885C163.323 54.8066 163.055 47.498 162.054 41.9258C161.871 42.1086 161.643 42.3372 161.46 42.5201C164.291 43.5229 166.528 46.1249 168.033 48.6362C169.539 51.1474 170.769 54.3897 169.625 57.2685C169.396 57.8625 170.355 58.0901 170.584 57.4961Z" fill="#F8C054"/>
<path d="M165.965 65.311C170.581 62.1555 177.479 62.2872 181.129 66.9438C177.839 68.6822 168.473 71.1104 166.695 66.3154" fill="#F4A100"/>
<path d="M166.193 65.7219C170.717 62.7492 177.25 62.7899 180.809 67.2638C180.855 67.0353 180.855 66.7613 180.901 66.5328C178.708 67.7222 176.058 68.3637 173.545 68.5941C171.352 68.7785 168.063 68.6897 167.152 66.2236C166.924 65.63 166.01 65.9047 166.192 66.4528C167.97 70.9737 174.641 69.6896 178.205 68.5905C179.255 68.2699 180.352 67.9036 181.357 67.3547C181.677 67.2174 181.632 66.8063 181.449 66.6238C177.662 61.8303 170.49 61.6987 165.691 64.9457C165.234 65.2201 165.69 66.042 166.193 65.7219Z" fill="#F8C054"/>
<path d="M161.437 72.5776C163.497 66.0438 161.582 62.1168 156.926 57.7351C155.918 62.0298 155.82 70.435 160.432 72.8525" fill="#F4A100"/>
<path d="M161.939 72.714C162.763 69.9726 163.131 67.0488 162.174 64.263C161.217 61.5686 159.3 59.3774 157.291 57.4604C157.018 57.1865 156.561 57.2783 156.515 57.6894C155.827 60.4764 155.779 63.4457 156.143 66.2776C156.552 68.9724 157.691 71.9407 160.248 73.3091C160.796 73.5828 161.254 72.7602 160.706 72.4865C158.331 71.2093 157.374 68.4236 157.011 65.8658C156.693 63.2622 156.787 60.5214 157.428 57.9628C157.154 58.0544 156.88 58.1459 156.651 58.1918C158.568 60.0175 160.394 62.026 161.306 64.5834C162.172 67.1865 161.85 69.9733 161.071 72.5776C160.797 73.0346 161.71 73.308 161.939 72.714Z" fill="#F8C054"/>
<path d="M135.303 78.7187C138.774 80.2692 142.518 81.3626 146.401 81.2226C149.645 81.083 152.752 80.1671 155.54 78.4747C161.344 75.0443 165.322 69.1485 168.342 63.2078C171.27 57.4498 173.376 51.2357 175.071 44.9762C176.399 40.0874 178.459 35.1067 181.614 31.1301C184.494 27.5192 188.517 24.0444 193.131 22.8075C199.848 21.0208 207.749 23.1617 212.961 17.4934C213.646 16.7163 214.287 15.8935 214.79 15.0252C215.339 14.1112 213.923 13.3357 213.374 14.2498C211.453 17.4488 208.528 19.2783 204.873 19.9206C201.447 20.5171 197.975 20.3371 194.595 20.8878C190.254 21.5763 186.598 23.8632 183.398 26.7891C179.604 30.3094 176.906 34.7425 175.075 39.4946C173.748 42.8303 172.968 46.3482 171.824 49.7751C170.862 52.8364 169.718 55.8979 168.436 58.8224C165.782 64.8542 162.352 70.9323 157.187 75.1845C154.81 77.1049 152.022 78.6145 149.007 79.165C145.58 79.8528 142.109 79.3987 138.866 78.3505C137.862 77.9859 136.903 77.6668 135.944 77.1651C135.122 76.8916 134.344 78.3083 135.303 78.7187Z" fill="#F8C054"/>
<path d="M224.576 0.947994C222.656 3.23348 220.781 5.5646 218.998 7.98702C217.306 10.318 215.203 12.3295 213.876 14.843C213.602 15.3 214.332 15.6649 214.561 15.2536C215.842 12.7859 217.854 10.8657 219.545 8.62612C221.329 6.2037 223.204 3.78122 225.215 1.49566C225.49 1.13001 224.896 0.536627 224.576 0.947994Z" fill="#F8C054"/>
<path d="M217.113 23.7486C214.646 23.8418 212.179 23.7524 209.713 23.3888C207.338 23.0252 204.917 22.4332 202.863 21.1101C202.406 20.8364 201.994 21.5219 202.451 21.7956C204.551 23.1644 207.017 23.802 209.484 24.1656C211.996 24.5748 214.508 24.6185 217.067 24.5252C217.66 24.5704 217.661 23.7482 217.113 23.7486Z" fill="#F8C054"/>
<path d="M201.94 32.713C199.474 31.6186 197.42 29.7473 195.183 28.3329C192.945 26.8272 190.662 25.4586 188.059 24.7754C187.557 24.6387 187.328 25.4155 187.83 25.5521C190.479 26.281 192.762 27.6496 194.999 29.1553C197.191 30.6154 199.154 32.3954 201.574 33.4442C201.939 33.6266 202.351 32.9411 201.94 32.713Z" fill="#F8C054"/>
<path d="M194.763 39.7077C189.694 37.7474 184.396 36.381 179.419 34.0552C178.962 33.8728 178.55 34.5583 179.007 34.7407C183.984 37.0666 189.328 38.4785 194.488 40.4388C195.036 40.7125 195.219 39.8901 194.763 39.7077Z" fill="#F8C054"/>
<path d="M187.812 49.7627C183.107 49.1725 178.448 48.6279 173.744 47.8549C173.241 47.8097 173.012 48.5864 173.515 48.6317C178.219 49.4046 183.015 49.9948 187.766 50.5393C188.314 50.6302 188.314 49.808 187.812 49.7627Z" fill="#F8C054"/>
<path d="M180.445 66.2589C176.106 65.0289 171.583 66.4484 167.29 65.1727C166.787 65.036 166.558 65.8128 167.061 65.9494C171.354 67.2252 175.877 65.8056 180.216 67.0356C180.718 67.1723 180.901 66.4413 180.445 66.2589Z" fill="#F8C054"/>
<path d="M204.109 4.07012C203.146 9.50679 201.908 14.9437 199.712 19.9702C199.528 20.4271 200.213 20.8377 200.396 20.3808C202.639 15.2172 203.922 9.82596 204.885 4.29792C204.977 3.74969 204.155 3.5676 204.109 4.07012Z" fill="#F8C054"/>
<path d="M185.603 11.0736C186.285 16.0522 185.047 21.215 183.81 26.0124C183.673 26.5149 184.449 26.7428 184.587 26.2402C185.87 21.3057 187.061 16.0059 186.334 10.8903C186.289 10.3879 185.512 10.5255 185.603 11.0736Z" fill="#F8C054"/>
<path d="M175.257 40.7736C172.702 36.2989 170.467 31.6869 166.816 27.944C166.451 27.5788 165.902 28.1274 166.267 28.4926C169.873 32.0985 172.062 36.7562 174.571 41.0939C174.799 41.5962 175.531 41.2302 175.257 40.7736Z" fill="#F8C054"/>
<path d="M169.945 57.7709C168.119 55.671 167.893 52.6106 166.844 50.099C166.297 48.729 165.522 47.4962 164.792 46.2178C163.97 44.848 163.104 43.4326 162.1 42.2457C161.78 41.8348 161.186 42.4291 161.551 42.7942C162.601 44.1182 163.513 45.5792 164.334 47.0404C165.11 48.3645 165.931 49.7343 166.387 51.1957C167.207 53.6618 167.616 56.3566 169.35 58.3652C169.715 58.7303 170.31 58.136 169.945 57.7709Z" fill="#F8C054"/>
<path d="M161.026 72.3494C160.116 67.5994 159.069 62.8951 157.474 58.374C157.291 57.9173 156.515 58.055 156.697 58.603C158.384 63.124 159.431 67.8283 160.249 72.5784C160.34 73.0351 161.117 72.8975 161.026 72.3494Z" fill="#F8C054"/>
<path d="M107.285 100.165C107.799 84.5873 99.546 64.9969 84.477 57.9737C81.4521 71.0406 86.1833 96.3437 106.233 101.216" fill="#F4A100"/>
<path d="M108.061 100.118C108.249 93.5402 107.021 86.9175 104.696 80.7525C102.28 74.4048 98.7212 68.3778 93.8827 63.6308C91.1896 61.0291 88.1764 58.8387 84.7973 57.1968C84.3407 57.0145 83.7467 57.152 83.6549 57.7002C82.234 64.0508 82.5941 70.9026 84.1424 77.2052C85.8272 84.193 89.1566 91.0881 94.6345 95.926C97.8755 98.8014 101.802 100.808 106.004 101.901C107.009 102.175 107.421 100.576 106.417 100.302C99.2461 98.5262 93.4941 93.7799 89.8903 87.4332C86.4688 81.5431 84.7383 74.601 84.4694 67.7492C84.3349 64.506 84.5201 61.2169 85.2535 58.0187C84.8879 58.2017 84.4767 58.3391 84.1111 58.5221C96.0293 64.1316 103.146 76.9166 105.603 89.431C106.331 92.9022 106.602 96.465 106.508 100.028C106.416 101.216 108.015 101.169 108.061 100.118Z" fill="#F8C054"/>
<path d="M104.364 96.7866C97.1072 88.0672 94.3751 76.7407 89.7235 66.6033C88.4466 63.7721 86.9412 61.0781 85.1617 58.4757C84.6598 57.7909 83.563 58.4313 84.0649 59.1161C90.4986 68.4756 92.9109 79.8481 98.2478 89.8479C99.7531 92.6332 101.487 95.2813 103.495 97.7465C103.951 98.3857 104.866 97.4714 104.364 96.7866Z" fill="#F8C054"/>
<path d="M89.9047 68.887C87.9409 68.2947 86.0688 67.3368 84.4252 66.1504C83.9229 65.831 83.4655 66.6536 83.9677 66.973C85.7027 68.1594 87.6662 69.1171 89.6756 69.7551C90.2693 69.9831 90.4984 69.0236 89.9047 68.887Z" fill="#F8C054"/>
<path d="M92.7317 75.5539C90.083 74.6424 87.2967 74.3248 84.6938 73.1848C84.1459 72.9111 83.6427 73.7794 84.2364 74.0074C86.8849 75.193 89.7625 75.5106 92.4569 76.4678C93.0963 76.7414 93.3254 75.7819 92.7317 75.5539Z" fill="#F8C054"/>
<path d="M96.106 83.4082C93.0011 81.6748 89.4839 81.4491 86.1959 80.2639C85.6022 80.036 85.3731 80.9954 85.9667 81.2234C89.1634 82.4086 92.635 82.5886 95.6486 84.2308C96.1965 84.5045 96.654 83.6819 96.106 83.4082Z" fill="#F8C054"/>
<path d="M92.0028 73.0882C92.7812 70.6665 93.24 68.1081 94.5207 65.9145C94.8409 65.4117 93.9733 64.9099 93.6988 65.4583C92.3266 67.7434 91.8222 70.3475 91.0437 72.8605C90.8605 73.4088 91.8196 73.6365 92.0028 73.0882Z" fill="#F8C054"/>
<path d="M95.1034 80.1201C96.5217 77.2411 98.214 74.4533 99.0843 71.3921C99.2218 70.7981 98.3084 70.5248 98.1252 71.1644C97.2092 74.18 95.6084 76.8764 94.2358 79.7096C93.9156 80.2123 94.7832 80.7141 95.1034 80.1201Z" fill="#F8C054"/>
<path d="M98.0214 87.2442C99.0275 85.7816 99.6226 84.091 100.263 82.4461C100.63 81.6235 100.996 80.801 101.499 80.0241C101.956 79.2928 102.413 78.5616 102.779 77.7391C103.008 77.1451 102.049 76.9174 101.82 77.5114C101.5 78.3796 100.951 79.1109 100.494 79.8421C100.036 80.5733 99.7161 81.3502 99.3957 82.127C98.755 83.6806 98.2056 85.3255 97.1995 86.788C96.788 87.2908 97.6099 87.747 98.0214 87.2442Z" fill="#F8C054"/>
<path d="M100.667 92.2671C102.359 90.0275 103.731 87.6511 105.378 85.3658C105.698 84.8631 104.876 84.4069 104.556 84.9097C103.001 87.1035 101.674 89.4342 100.028 91.6281C99.891 91.8566 99.8451 92.085 100.028 92.359C100.119 92.4503 100.53 92.4956 100.667 92.2671Z" fill="#F8C054"/>
<path d="M120.629 92.8455C140.593 89.4955 154.495 70.5732 157.159 51.9337C139.708 53.2261 119.318 74.7115 119.487 91.9784" fill="#F4A100"/>
<path d="M120.857 93.6216C136.481 90.9602 148.687 78.7542 154.591 64.4518C156.193 60.4764 157.384 56.3643 157.981 52.1155C158.072 51.6587 157.753 51.0651 157.205 51.0655C149.485 51.6653 142.31 55.645 136.368 60.4916C130.06 65.704 124.573 72.3775 121.415 79.9171C119.814 83.7098 118.714 87.8219 118.757 91.9787C118.756 92.9837 120.355 93.0282 120.401 91.9775C120.361 84.623 123.792 77.54 128.091 71.6896C132.709 65.3365 138.881 59.8045 145.872 56.1904C149.437 54.3604 153.321 53.0327 157.295 52.7099C157.021 52.3447 156.793 52.0251 156.519 51.6599C154.361 66.3248 145.671 80.5837 132.555 87.8569C128.853 89.9154 124.787 91.3346 120.584 92.0687C119.396 92.2523 119.851 93.8051 120.857 93.6216Z" fill="#F8C054"/>
<path d="M155.559 52.1631C145.731 61.9919 136.13 72.0489 127.717 83.1099C125.339 86.218 123.052 89.4173 120.903 92.6623C120.445 93.3935 121.587 93.9865 121.999 93.301C129.59 81.7837 138.734 71.3617 148.289 61.4417C150.986 58.6532 153.684 55.8646 156.472 53.076C157.067 52.4817 156.154 51.5688 155.559 52.1631Z" fill="#F8C054"/>
<path d="M148.381 60.437C148.566 58.4269 148.293 56.4172 148.797 54.4526C148.935 53.8586 148.021 53.5852 147.838 54.2249C147.334 56.2809 147.606 58.382 147.422 60.4834C147.422 60.7575 147.65 60.9857 147.924 60.9855C148.198 60.8939 148.381 60.7111 148.381 60.437Z" fill="#F8C054"/>
<path d="M142.667 66.1513C142.075 63.4566 142.352 60.7156 142.445 57.9747C142.446 57.3352 141.486 57.3816 141.44 57.9755C141.347 60.8077 141.07 63.6401 141.708 66.3804C141.89 67.0198 142.804 66.745 142.667 66.1513Z" fill="#F8C054"/>
<path d="M137.181 72.0022C135.995 69.171 135.724 66.065 135.589 63.0045C135.544 62.4107 134.584 62.3657 134.584 63.0053C134.764 66.2027 135.082 69.4458 136.313 72.414C136.404 72.6881 136.769 72.6878 136.952 72.5963C137.226 72.5047 137.318 72.2305 137.181 72.0022Z" fill="#F8C054"/>
<path d="M132.151 78.2191C130.92 75.5249 129.963 72.7392 128.823 69.9536C128.595 69.3599 127.681 69.6347 127.864 70.1827C128.958 73.014 130.006 75.8911 131.237 78.6766C131.602 79.2245 132.425 78.7671 132.151 78.2191Z" fill="#F8C054"/>
<path d="M127.396 84.1611C125.982 81.8325 125.39 79.1378 124.433 76.5348C124.205 75.9411 123.291 76.2159 123.473 76.7639C124.431 79.3669 125.068 82.1986 126.528 84.5729C126.847 85.1665 127.715 84.6633 127.396 84.1611Z" fill="#F8C054"/>
<path d="M145.684 64.2307C148.47 63.8174 151.211 63.6326 153.998 63.1279C154.592 62.9905 154.319 62.0771 153.77 62.1688C151.029 62.7191 148.243 62.8583 145.456 63.2716C145.227 63.3174 145.044 63.5916 145.136 63.8656C145.181 64.1854 145.455 64.2765 145.684 64.2307Z" fill="#F8C054"/>
<path d="M140.289 69.8989C143.852 69.8962 147.369 70.396 150.932 70.3019C151.571 70.3014 151.572 69.2964 150.932 69.2969C147.369 69.391 143.852 68.8912 140.289 68.894C139.65 68.8944 139.695 69.8537 140.289 69.8989Z" fill="#F8C054"/>
<path d="M134.894 75.9329C138.594 76.4326 142.202 76.8409 145.902 77.5233C146.495 77.6598 146.724 76.7004 146.131 76.5638C142.477 75.9271 138.823 75.4731 135.123 74.9735C134.529 74.9282 134.3 75.8877 134.894 75.9329Z" fill="#F8C054"/>
<path d="M126.565 95.6723C146.11 104.154 158.814 97.6574 169.79 80.7474C157.14 75.5952 135.483 81.9157 126.429 94.7131" fill="#F4A100"/>
<path d="M126.153 96.3585C132.592 99.14 139.625 100.962 146.615 99.8144C152.829 98.8047 158.359 95.3744 162.747 90.8944C165.719 87.9229 168.188 84.5407 170.475 81.0673C170.795 80.5645 170.43 80.108 169.973 79.9256C164.311 77.646 157.824 77.7423 151.976 78.8431C145.351 80.0816 138.909 82.6903 133.47 86.6687C130.499 88.8179 127.893 91.3323 125.744 94.3032C125.149 95.1716 126.565 95.947 127.159 95.0787C130.818 89.9597 136.211 86.2098 141.923 83.693C147.68 81.1304 154.031 79.6181 160.38 79.7503C163.532 79.7935 166.684 80.2936 169.607 81.479C169.424 81.1137 169.287 80.7027 169.105 80.3374C165.492 85.8675 161.194 91.261 155.481 94.7828C150.408 97.9386 144.515 99.0852 138.668 98.3588C134.603 97.8594 130.675 96.5834 126.977 94.9874C126.018 94.577 125.194 95.9481 126.153 96.3585Z" fill="#F8C054"/>
<path d="M168.511 80.6571C159.645 85.506 150.232 89.1676 140.409 91.5049C137.622 92.1922 134.835 92.6968 132.003 93.1558C131.181 93.2478 131.545 94.5266 132.322 94.3889C142.327 92.7824 152.105 89.8514 161.381 85.596C164.031 84.4063 166.636 83.0796 169.195 81.7072C169.881 81.3869 169.242 80.2911 168.511 80.6571Z" fill="#F8C054"/>
<path d="M162.063 89.753C160.511 88.5665 158.959 87.4714 157.269 86.5134C156.767 86.194 156.264 87.0623 156.812 87.336C158.41 88.294 159.962 89.2978 161.377 90.4387C161.606 90.5756 161.88 90.6667 162.108 90.4382C162.245 90.301 162.246 89.9356 162.063 89.753Z" fill="#F8C054"/>
<path d="M156.578 94.0511C154.432 92.5453 152.378 90.9481 150.461 89.1224C150.004 88.6659 149.318 89.3517 149.775 89.8081C151.692 91.7252 153.883 93.368 156.075 94.9194C156.623 95.2845 157.126 94.4162 156.578 94.0511Z" fill="#F8C054"/>
<path d="M150.317 97.4814C148.217 95.5644 146.117 93.6475 144.109 91.6391C143.652 91.1827 142.967 91.8684 143.423 92.3248C145.431 94.3332 147.531 96.2502 149.631 98.1671C150.088 98.6236 150.773 97.9378 150.317 97.4814Z" fill="#F8C054"/>
<path d="M155.532 87.6103C157.773 85.0048 159.648 82.1255 161.751 79.3831C162.163 78.8803 161.249 78.4242 160.929 78.927C158.917 81.5779 157.088 84.4115 154.893 86.9713C154.436 87.4284 155.121 88.1131 155.532 87.6103Z" fill="#F8C054"/>
<path d="M147.582 90.5403C150.553 87.3861 152.155 83.3193 154.305 79.6176C154.625 79.1149 153.758 78.6131 153.483 79.1614C151.379 82.7261 149.777 86.7929 146.943 89.9013C146.44 90.3128 147.125 90.9975 147.582 90.5403Z" fill="#F8C054"/>
<path d="M141.825 91.7325C142.603 89.9504 143.609 88.3051 144.387 86.523C144.753 85.7005 145.119 84.878 145.348 84.0099C145.577 83.1418 145.806 82.2737 146.355 81.5424C146.767 81.0396 145.853 80.5835 145.533 81.0862C145.03 81.7718 144.756 82.5942 144.572 83.4166C144.297 84.3304 143.977 85.29 143.565 86.1582C142.787 87.9403 141.781 89.5856 141.003 91.3677C140.774 91.779 141.596 92.3265 141.825 91.7325Z" fill="#F8C054"/>
<path d="M103.629 100.989C97.1076 87.4275 78.8927 72.5041 63.8167 74.5256C66.8216 87.5878 80.1453 106.946 103.629 100.989Z" fill="#F4A100"/>
<path d="M104.361 100.623C101.442 94.5959 96.9692 89.3005 91.9935 84.8733C86.8351 80.3549 80.7626 76.4768 74.1404 74.609C70.7152 73.6524 67.2438 73.2896 63.6804 73.7491C63.2692 73.7951 62.9947 74.3435 63.0858 74.7089C64.4972 80.7832 67.5076 86.628 71.5238 91.3756C76.1332 96.8994 82.4339 101.006 89.559 102.371C94.309 103.281 99.197 102.957 103.857 101.766C104.863 101.491 104.453 99.9839 103.447 100.167C95.8631 102.092 87.9152 101.458 81.0663 97.4437C75.4045 94.1591 70.9775 89.0007 67.967 83.2473C66.4618 80.3706 65.322 77.4023 64.5479 74.2509C64.3193 74.5709 64.182 74.8907 63.9533 75.2107C70.1207 74.4294 76.3773 76.5715 81.7196 79.5366C87.6554 82.821 92.8138 87.3394 97.1038 92.5436C99.34 95.2371 101.256 98.1591 102.761 101.31C103.354 102.36 104.771 101.582 104.361 100.623Z" fill="#F8C054"/>
<path d="M94.8614 97.7069C85.7743 93.4656 79.4309 85.5678 71.9899 79.224C69.9356 77.4441 67.7899 75.8469 65.507 74.3869C64.7765 73.9307 64.1818 75.0731 64.8667 75.4837C73.1765 80.6849 79.2915 88.6285 87.0526 94.4696C89.2896 96.158 91.6639 97.618 94.2211 98.8037C95.043 99.1685 95.6834 98.0717 94.8614 97.7069Z" fill="#F8C054"/>
<path d="M71.944 79.6355C69.8426 79.7285 67.6959 79.4104 65.5947 79.3207C64.9552 79.3212 65.0001 80.2804 65.5939 80.3256C67.6952 80.4154 69.8419 80.7335 71.9432 80.6405C72.5371 80.5944 72.5835 79.6351 71.944 79.6355Z" fill="#F8C054"/>
<path d="M76.8281 84.5192C73.9958 84.7041 71.1176 85.2088 68.1943 84.9369C67.6005 84.8917 67.554 85.851 68.1935 85.9419C71.0712 86.1681 73.9494 85.6634 76.8273 85.5241C77.4212 85.478 77.422 84.473 76.8281 84.5192Z" fill="#F8C054"/>
<path d="M81.5296 88.8555C80.2956 89.7244 78.7878 90.1367 77.3258 90.5032C75.8637 90.8698 74.356 91.1907 72.894 91.5573C72.3001 91.6948 72.5277 92.6539 73.1217 92.5164C74.6294 92.1041 76.1828 91.8288 77.6905 91.4166C79.1983 91.0043 80.7518 90.5463 81.9858 89.6774C82.4885 89.3573 81.9867 88.4897 81.5296 88.8555Z" fill="#F8C054"/>
<path d="M86.3688 93.0545C83.5815 94.1073 80.9311 95.3883 78.0071 95.9387C77.3675 96.0306 77.6409 96.944 78.2348 96.8978C81.1587 96.3474 83.8548 95.112 86.5964 94.0136C87.1905 93.7847 86.9628 92.8256 86.3688 93.0545Z" fill="#F8C054"/>
<path d="M75.2308 82.191C74.5473 79.9532 73.7268 77.7612 73.4088 75.4317C73.3633 75.2034 73.2264 74.9751 72.9067 74.9297C72.6326 74.9299 72.404 75.1584 72.4038 75.4325C72.7217 77.8533 73.5422 80.1367 74.2713 82.4201C74.4993 83.0138 75.4587 82.7847 75.2308 82.191Z" fill="#F8C054"/>
<path d="M79.887 86.7557C79.9805 83.9235 80.1198 81.0456 80.6244 78.2587C80.7163 77.6191 79.7572 77.3914 79.6653 78.031C79.1606 80.9093 78.9756 83.8329 78.882 86.7565C78.8815 87.396 79.8865 87.3953 79.887 86.7557Z" fill="#F8C054"/>
<path d="M84.8625 91.274C85.2303 88.2588 85.9636 85.0606 87.3361 82.3188C87.6107 81.7704 86.7431 81.2686 86.5143 81.8626C85.0959 84.8329 84.3168 88.0768 83.9032 91.3204C83.8571 91.9143 84.8164 91.8679 84.8625 91.274Z" fill="#F8C054"/>
<path d="M89.701 95.8382C91.1649 93.0049 91.7612 89.8525 92.9969 86.8823C93.2257 86.2883 92.4038 85.8321 92.175 86.4262C90.985 89.3506 90.3431 92.5487 88.8791 95.382C88.5589 95.9761 89.3808 96.4322 89.701 95.8382Z" fill="#F8C054"/>
<path d="M116.387 84.8537C114.75 74.9881 110.463 65.5813 104.76 57.4089C103.208 55.1261 101.474 52.9348 99.6028 50.8806C98.9182 50.1046 97.7753 51.2475 98.4599 52.0235C104.941 59.3273 109.959 68.0941 112.875 77.4106C113.696 79.968 114.379 82.6626 114.788 85.3574C114.97 86.2709 116.523 85.9043 116.387 84.8537Z" fill="#F8C054"/>
<path d="M104.394 58.323C101.562 58.3252 98.6842 57.6422 95.9897 56.8677C95.3959 56.7311 95.1212 57.645 95.7605 57.8272C98.5464 58.693 101.469 59.3302 104.439 59.3736C105.032 59.3275 105.033 58.3225 104.394 58.323Z" fill="#F8C054"/>
<path d="M106.903 61.5644C106.996 59.9198 107.134 58.2296 107.455 56.6305C107.731 55.0772 108.097 53.3411 109.103 52.0612C109.515 51.5585 108.602 51.1023 108.281 51.6051C107.275 52.9763 106.817 54.8038 106.542 56.4485C106.221 58.1389 106.082 59.9205 105.99 61.6565C105.898 62.2047 106.903 62.2039 106.903 61.5644Z" fill="#F8C054"/>
<path d="M108.91 66.4966C106.078 66.1334 103.384 64.9934 100.506 65.224C99.9118 65.2702 99.8654 66.2295 100.505 66.229C103.292 65.9985 105.94 67.0927 108.681 67.4561C108.909 67.5016 109.183 67.41 109.275 67.1359C109.366 66.8617 109.138 66.5421 108.91 66.4966Z" fill="#F8C054"/>
<path d="M111.42 69.0068C111.925 66.3112 113.343 63.8891 115.035 61.7408C115.172 61.5123 115.035 61.1927 114.852 61.1015C114.624 60.9646 114.35 61.0562 114.213 61.2847C112.521 63.5243 111.057 65.9922 110.507 68.8247C110.369 69.3273 111.283 69.6007 111.42 69.0068Z" fill="#F8C054"/>
<path d="M97.1831 49.5582C96.3145 50.4268 96.3134 51.8886 97.1806 52.7558C98.0479 53.6231 99.5096 53.6219 100.378 52.7534C101.247 51.8848 101.248 50.423 100.381 49.5557C99.5134 48.6885 98.0517 48.6896 97.1831 49.5582Z" fill="#F8C054"/>
<path d="M94.62 56.0466C92.8371 57.8295 95.5758 60.5682 97.3587 58.7853C99.0959 57.0481 96.3572 54.3094 94.62 56.0466Z" fill="#F8C054"/>
<path d="M99.0446 64.4939C97.2617 66.2768 100 69.0155 101.783 67.2326C103.52 65.4954 100.782 62.7567 99.0446 64.4939Z" fill="#F8C054"/>
<path d="M107.323 50.3723C105.541 52.1552 108.279 54.8939 110.062 53.111C111.799 51.3738 109.061 48.6351 107.323 50.3723Z" fill="#F8C054"/>
<path d="M112.706 60.327C110.923 62.1099 113.662 64.8486 115.445 63.0657C117.228 61.2828 114.489 58.5441 112.706 60.327Z" fill="#F8C054"/>
<path d="M114.879 85.5399C115.665 73.2514 121.84 62.055 129.613 52.7303C131.716 50.1706 133.957 47.7478 136.334 45.3706C137.065 44.6392 135.924 43.498 135.193 44.2295C126.507 52.9154 118.825 63.1536 115.252 75.0332C114.199 78.46 113.603 81.9778 113.371 85.4954C113.188 86.5919 114.832 86.5906 114.879 85.5399Z" fill="#F8C054"/>
<path d="M136.605 50.3958C133.726 51.0832 130.483 51.3141 127.924 52.9605C127.421 53.2807 127.877 54.1026 128.38 53.7824C130.848 52.136 134 51.9966 136.787 51.3092C137.426 51.2174 137.199 50.2583 136.605 50.3958Z" fill="#F8C054"/>
<path d="M126.505 56.2964C126.369 54.4236 126.873 52.6417 127.285 50.8598C127.698 48.9866 127.882 47.1593 127.381 45.2868C127.244 44.693 126.285 44.9222 126.422 45.5159C127.424 49.1696 125.32 52.6429 125.5 56.2971C125.545 56.8909 126.55 56.8902 126.505 56.2964Z" fill="#F8C054"/>
<path d="M130.933 59.7192C129.563 59.5376 128.147 59.6757 126.822 59.9051C125.451 60.0889 124.081 60.4554 122.801 60.9132C122.527 61.0047 122.527 61.3702 122.618 61.5528C122.755 61.7811 123.075 61.8266 123.257 61.7351C124.491 61.2316 125.77 60.9566 127.05 60.7729C128.329 60.5892 129.654 60.5425 130.933 60.6328C131.207 60.6326 131.435 60.404 131.435 60.13C131.39 59.9016 131.207 59.719 130.933 59.7192Z" fill="#F8C054"/>
<path d="M120.331 65.4829C120.149 63.6558 120.288 61.8742 120.198 60.0471C120.108 58.2199 119.744 56.4844 118.786 54.8863C118.466 54.3841 117.644 54.8415 117.963 55.3437C119.834 58.4029 119.054 62.0122 119.417 65.3922C119.462 66.0774 120.376 66.0767 120.331 65.4829Z" fill="#F8C054"/>
<path d="M124.623 67.7632C122.43 67.6735 120.328 68.4974 118.227 69.0472C117.633 69.1847 117.86 70.1438 118.454 70.0063C120.51 69.5022 122.475 68.6328 124.622 68.7682C125.262 68.7677 125.262 67.7627 124.623 67.7632Z" fill="#F8C054"/>
<path d="M134.966 42.357C134.097 43.2256 134.096 44.6874 134.964 45.5546C135.831 46.4219 137.293 46.4208 138.161 45.5522C139.03 44.6836 139.031 43.2218 138.164 42.3546C137.296 41.4873 135.835 41.4884 134.966 42.357Z" fill="#F8C054"/>
<path d="M116.868 53.6995C115.085 55.4824 117.824 58.2211 119.607 56.4382C121.39 54.6554 118.651 51.9166 116.868 53.6995Z" fill="#F8C054"/>
<path d="M125.555 43.7346C123.772 45.5175 126.511 48.2562 128.294 46.4733C130.031 44.7361 127.292 41.9974 125.555 43.7346Z" fill="#F8C054"/>
<path d="M135.6 49.7571C133.817 51.5399 136.556 54.2786 138.339 52.4958C140.076 50.7586 137.337 48.0199 135.6 49.7571Z" fill="#F8C054"/>
<path d="M129.061 58.578C127.278 60.3609 130.017 63.0996 131.8 61.3167C133.583 59.5338 130.844 56.7951 129.061 58.578Z" fill="#F8C054"/>
<path d="M122.751 66.3485C120.968 68.1314 123.707 70.8701 125.49 69.0872C127.273 67.3043 124.534 64.5656 122.751 66.3485Z" fill="#F8C054"/>
<path d="M125.097 103.622C140.399 105.392 148.523 114.339 138.146 124.716C128.088 134.774 121.063 122.719 116.548 113.176C123.371 150.72 74.8742 130.384 105.495 110.169C90.5074 116.576 80.827 111.742 85.4054 98.1253C89.8924 84.6919 99.7542 91.3536 108.017 97.6055C84.6565 62.1756 141.344 63.5482 119.075 93.5771C141.711 62.1775 159.266 103.596 125.097 103.622Z" fill="#F4A100"/>
<path d="M125.097 104.444C131.811 105.216 144.781 109.043 141.531 118.41C140.752 120.649 139.244 122.523 137.598 124.169C136.135 125.632 134.444 126.958 132.433 127.507C129.144 128.423 126.267 126.461 124.122 124.133C121.156 120.892 119.149 116.783 117.279 112.81C116.868 111.942 115.635 112.537 115.771 113.405C116.635 118.292 117.042 124.093 114.526 128.617C112.971 131.359 110.274 133.143 107.213 133.374C104.29 133.559 101.276 132.556 99.1758 130.73C96.939 128.768 95.7534 126.028 96.1211 123.104C96.7184 118.581 100.421 114.97 103.849 112.363C104.489 111.906 105.175 111.403 105.86 110.992C106.729 110.397 105.999 109.21 105.085 109.576C99.3729 112.001 86.9453 115.391 85.2165 106.257C84.8525 104.338 85.1282 102.237 85.6322 100.364C86.2277 98.1248 87.0061 95.7945 88.4692 93.9662C89.4295 92.7321 90.6636 91.7719 92.217 91.4052C93.7247 91.0843 95.1862 91.3573 96.6476 91.813C100.712 93.1346 104.273 95.964 107.651 98.4281C108.291 98.8844 109.205 97.9701 108.749 97.331C105.692 92.6282 102.681 87.0576 103.142 81.2102C103.373 77.784 105.249 74.8133 108.173 73.258C110.915 71.7941 114.204 71.5175 117.173 72.4745C120.05 73.3402 122.424 75.4397 123.244 78.3626C124.474 82.7926 122.186 87.5451 119.808 91.2013C119.351 91.9326 118.848 92.6181 118.345 93.3037C118.801 93.5775 119.258 93.8512 119.76 94.0792C122.778 89.8743 126.664 85.4404 131.599 83.518C134.478 82.3738 137.493 82.3715 140.004 84.0597C142.013 85.4286 143.29 87.9857 143.379 90.5437C143.514 93.5128 142.187 96.3003 139.947 98.3576C136.016 102.015 130.168 102.842 125.006 102.891C124.047 102.846 124.092 104.445 125.097 104.444C130.259 104.395 135.832 103.568 140.037 100.367C142.825 98.2184 144.792 95.0649 145.023 91.456C145.208 88.441 144.023 85.3357 141.832 83.3274C139.321 81.091 135.85 80.5455 132.606 81.4159C127.443 82.836 123.283 86.9047 120.036 90.9727C119.488 91.704 118.939 92.4354 118.39 93.1667C117.796 94.035 119.166 94.7649 119.806 93.9421C122.87 89.7829 125.843 84.436 125.07 79.092C124.571 75.5751 122.198 72.6534 118.91 71.2855C115.713 69.9175 111.922 69.8748 108.723 71.1563C105.205 72.5751 102.599 75.5463 101.819 79.247C100.627 84.8208 102.998 90.6661 105.735 95.4147C106.237 96.2822 106.784 97.1954 107.378 98.0629C107.743 97.6972 108.109 97.3314 108.475 96.9657C103.316 93.0869 94.0029 85.6939 87.9226 92.0481C86.231 93.8309 85.2699 96.1613 84.4916 98.4916C83.8047 100.73 83.3004 103.061 83.527 105.39C83.8439 109.181 86.0343 112.103 89.6878 113.288C95.031 114.974 101.062 113.051 105.952 110.991C105.678 110.535 105.404 110.078 105.176 109.576C100.88 112.411 96.2634 116.298 94.889 121.506C94.0184 124.933 94.8836 128.45 97.257 131.097C99.4934 133.517 102.827 134.93 106.162 135.065C109.725 135.153 113.06 133.552 115.21 130.672C118.319 126.468 118.415 120.712 117.825 115.733C117.734 114.82 117.552 113.906 117.416 113.038C116.913 113.267 116.456 113.45 115.908 113.633C117.732 117.56 119.785 121.533 122.614 124.82C124.988 127.559 128.275 129.932 132.112 129.289C134.259 128.968 136.133 127.733 137.733 126.316C139.699 124.624 141.482 122.567 142.58 120.191C144.364 116.398 143.865 112.333 140.99 109.274C137.019 105.029 130.716 103.481 125.144 102.846C124.093 102.709 124.092 104.354 125.097 104.444Z" fill="#F8C054"/>
<path d="M133.466 92.2415C128.712 96.265 123.228 99.1927 117.47 101.572C116.876 101.801 117.378 102.669 117.927 102.394C123.73 99.9689 129.305 97.0411 134.15 92.9261C134.653 92.5146 133.968 91.8299 133.466 92.2415Z" fill="#F8C054"/>
<path d="M113.545 97.6471C113.412 92.0286 113.919 86.3182 112.873 80.7917C112.736 80.1979 111.777 80.4271 111.913 81.0208C112.96 86.4559 112.407 92.1207 112.54 97.6479C112.585 98.2417 113.544 98.2866 113.545 97.6471Z" fill="#F8C054"/>
<path d="M109.156 102.675C104.177 102.816 99.1525 101.906 94.4028 100.54C93.8091 100.403 93.5343 101.317 94.1737 101.499C99.0147 102.866 104.13 103.867 109.201 103.726C109.84 103.634 109.795 102.675 109.156 102.675Z" fill="#F8C054"/>
<path d="M128.474 108.644C125.735 106.271 122.264 105.086 118.885 103.81C118.291 103.582 118.062 104.541 118.656 104.769C121.852 105.954 125.186 107.094 127.788 109.33C128.245 109.787 128.93 109.101 128.474 108.644Z" fill="#F8C054"/>
<path d="M125.243 92.0649C122.364 94.3054 119.895 97.0481 117.015 99.2887C116.512 99.7002 117.243 100.339 117.7 99.9733C120.579 97.7328 123.048 94.9901 125.928 92.7495C126.476 92.3837 125.792 91.699 125.243 92.0649Z" fill="#F8C054"/>
<path d="M129.486 99.325C125.739 100.698 121.901 101.615 118.109 102.668C117.515 102.806 117.743 103.765 118.337 103.627C122.129 102.574 126.013 101.612 129.714 100.284C130.308 100.055 130.08 99.0961 129.486 99.325Z" fill="#F8C054"/>
<path d="M115.509 98.0567C116.151 94.4018 117.159 90.838 117.71 87.1832C117.802 86.5436 116.843 86.3159 116.751 86.9555C116.2 90.6103 115.238 94.2198 114.55 97.8291C114.458 98.4687 115.417 98.6963 115.509 98.0567Z" fill="#F8C054"/>
<path d="M111.672 97.6941C110.852 94.4971 110.169 91.163 108.619 88.2407C108.345 87.6927 107.477 88.1959 107.796 88.6981C109.301 91.5748 109.938 94.8633 110.758 97.9689C110.895 98.5626 111.808 98.2878 111.672 97.6941Z" fill="#F8C054"/>
<path d="M109.157 100.483C105.869 99.4801 102.764 98.0207 99.8877 96.1501C99.3855 95.8307 98.8823 96.699 99.4303 96.9726C102.352 98.889 105.549 100.348 108.928 101.351C109.476 101.624 109.751 100.71 109.157 100.483Z" fill="#F8C054"/>
<path d="M109.885 104.685C105.956 105.053 102.118 106.061 98.1894 106.521C97.5498 106.613 97.8232 107.526 98.417 107.48C102.209 106.975 106.001 106.013 109.838 105.644C110.478 105.552 110.479 104.639 109.885 104.685Z" fill="#F8C054"/>
<path d="M109.159 98.1069C107.696 99.5698 106.781 101.763 106.825 103.819C106.824 105.829 107.69 108.158 109.15 109.527C110.657 110.942 112.712 111.991 114.859 111.852C116.96 111.759 119.062 111.027 120.57 109.518C122.033 108.055 122.949 105.862 122.905 103.806C122.906 101.796 122.04 99.4674 120.579 98.0982C119.073 96.6832 117.018 95.6342 114.871 95.7729C112.77 95.8658 110.713 96.5526 109.159 98.1069Z" fill="#F8C054"/>
<path d="M113.406 99.5202C111.623 101.303 114.362 104.042 116.145 102.259C117.882 100.522 115.143 97.7831 113.406 99.5202Z" fill="#F4A100"/>
<path d="M118.063 103.17C116.6 104.633 118.882 106.916 120.345 105.453C121.808 103.99 119.526 101.707 118.063 103.17Z" fill="#F4A100"/>
<path d="M109.293 102.447C108.196 103.544 109.93 105.278 111.027 104.181C112.079 103.038 110.39 101.35 109.293 102.447Z" fill="#F4A100"/>
</g>
</svg>
