<svg width="134" height="300" viewBox="0 0 134 300" fill="none" xmlns="http://www.w3.org/2000/svg">
<g opacity="0.1">
<mask id="mask0_426_4444" style="mask-type:alpha" maskUnits="userSpaceOnUse" x="0" y="0" width="134" height="300">
<rect width="300" height="133.23" transform="matrix(-4.37114e-08 -1 -1 4.37114e-08 133.876 300)" fill="#D9D9D9"/>
</mask>
<g mask="url(#mask0_426_4444)">
<path d="M33.9485 275.288C24.8163 271.961 18.956 283.399 15.6999 289.265C22.3378 286.899 31.8202 282.994 33.9485 275.288Z" fill="white"/>
<path d="M34.0665 274.695C24.6379 271.427 18.8365 282.331 15.1068 289.027C14.87 289.501 15.2855 290.153 15.8189 289.976C23.0495 287.373 32.117 283.645 34.5414 275.525C34.7187 274.754 33.5327 274.398 33.2962 275.228C31.1086 282.874 22.2187 286.305 15.4623 288.79C15.6997 289.146 15.937 289.383 16.1744 289.739C19.6081 283.576 24.9356 273.028 33.7118 275.999C34.4826 276.177 34.8374 274.992 34.0665 274.695Z" fill="#01686F"/>
<path d="M43.8423 266.699C39.5779 271.913 35.5543 281.869 41.6056 287.565C47.2937 283.538 47.7591 271.919 44.1978 266.344" fill="white"/>
<path d="M43.3676 266.224C38.7478 271.912 34.8429 281.987 41.0722 287.979C41.2502 288.157 41.606 288.276 41.843 288.039C45.1017 285.611 46.5214 281.581 46.9334 277.728C47.2861 273.815 46.8085 269.428 44.6716 265.988C44.2562 265.335 43.1895 265.927 43.605 266.58C45.5044 269.664 46.041 273.636 45.6881 277.193C45.3943 280.691 44.2118 284.721 41.19 286.912C41.4271 286.912 41.7236 286.972 41.9607 286.972C36.2653 281.514 39.993 272.209 44.2574 266.995C44.7906 266.462 43.9006 265.572 43.3676 266.224Z" fill="#01686F"/>
<path d="M49.5853 257.041C43.4161 252.175 30.0215 256.67 28.0706 263.842C34.9478 264.203 42.4767 264.031 49.4671 257.515" fill="white"/>
<path d="M50 256.626C46.3222 253.778 41.224 254.011 37.0159 255.371C32.9856 256.672 28.6601 259.455 27.4184 263.782C27.3002 264.138 27.5969 264.553 28.0119 264.613C31.6284 264.793 35.3039 264.796 38.9789 263.969C43.128 263.024 46.7427 260.951 49.8233 258.108C50.4156 257.516 49.5257 256.626 48.9333 257.218C45.912 260.002 42.4158 261.956 38.3259 262.842C34.9473 263.61 31.4495 263.548 27.9517 263.368C28.1298 263.664 28.3671 263.901 28.5451 264.198C29.6686 260.345 33.6387 257.918 37.254 256.676C40.9287 255.493 45.7304 255.082 48.9929 257.633C49.7046 257.99 50.5932 257.101 50 256.626Z" fill="#01686F"/>
<path d="M53.3142 249.751C49.5849 257.04 52.4959 264.927 58.9019 269.319C64.2915 262.624 58.5337 253.075 53.1953 249.277" fill="white"/>
<path d="M52.7214 249.395C50.9456 252.951 50.4744 256.982 51.663 260.777C52.7923 264.513 55.3439 267.657 58.4876 269.852C58.7248 269.971 59.0805 269.971 59.2582 269.794C64.7071 262.921 59.6012 253.195 53.373 248.744C52.6612 248.269 52.1285 249.395 52.781 249.81C58.2974 253.786 63.2248 262.742 58.3683 268.904C58.6054 268.904 58.9018 268.845 59.139 268.845C56.2918 266.827 53.9182 263.98 52.8485 260.541C51.7194 257.042 52.1909 253.367 53.789 250.107C54.2034 249.337 53.0765 248.684 52.7214 249.395Z" fill="#01686F"/>
<path d="M54.7891 240.445C49.2732 237.18 40.0861 239.604 36.3563 246.181C44.8365 249.685 49.3987 246.191 54.7893 240.801" fill="white"/>
<path d="M55.0855 239.912C48.5021 236.172 39.4936 239.603 35.8229 245.884C35.586 246.24 35.8828 246.655 36.2386 246.774C39.6188 248.14 43.4134 248.736 46.9101 247.375C50.1697 246.133 52.7763 243.645 55.205 241.216C55.7974 240.624 54.9075 239.734 54.3151 240.326C52.064 242.577 49.6353 245.006 46.5534 246.189C43.2346 247.491 39.7363 246.836 36.534 245.529C36.7121 245.826 36.7716 246.122 36.9497 246.419C40.2652 240.73 48.5624 237.535 54.4934 240.978C55.1459 241.394 55.7971 240.268 55.0855 239.912Z" fill="#01686F"/>
<path d="M56.6803 232.265C55.5585 238.252 62.2667 250.173 68.2555 251.66C68.8998 241.523 64.6287 237.962 57.4509 232.088" fill="white"/>
<path d="M56.0873 232.146C55.379 236.177 57.2202 240.624 59.2385 244.064C61.1974 247.445 64.1053 251.301 68.1374 252.371C68.5524 252.43 68.9079 252.193 68.9669 251.779C69.2009 247.747 68.6642 243.656 66.5274 240.216C64.3313 236.836 61.0687 234.284 58.0433 231.732C57.3908 231.198 56.5022 232.087 57.1547 232.621C60.0615 235.054 63.2053 237.368 65.342 240.571C67.5381 243.952 68.0153 247.865 67.7812 251.778C68.0775 251.6 68.3145 251.363 68.6107 251.185C64.9938 250.293 62.3231 246.557 60.5422 243.472C58.702 240.329 56.8611 236.237 57.5104 232.503C57.4504 231.613 56.2052 231.316 56.0873 232.146Z" fill="#01686F"/>
<path d="M59.9923 222.189C53.1722 218.924 44.0478 225.793 40.9695 231.482C48.3215 232.674 55.4918 228.707 59.6964 222.841" fill="white"/>
<path d="M60.2882 221.656C56.552 219.934 52.4029 220.879 48.9067 222.833C45.4104 224.787 42.2706 227.689 40.317 231.185C40.1393 231.482 40.3176 232.015 40.7326 232.075C48.3811 233.207 55.7292 229.3 60.1708 223.197C60.7039 222.546 59.5178 221.952 59.1033 222.604C55.017 228.232 48.0837 231.962 41.0282 230.949C41.2063 231.245 41.2658 231.542 41.4439 231.838C43.2199 228.638 46.0042 225.973 49.0856 224.197C52.2262 222.361 56.138 221.178 59.637 222.782C60.4079 223.079 60.9999 222.012 60.2882 221.656Z" fill="#01686F"/>
<path d="M66.3291 213.835C59.6345 219.58 66.3421 230.79 71.7398 234.529C75.2918 228.011 72.4979 218.108 66.3291 213.835Z" fill="white"/>
<path d="M65.9136 213.42C60.2854 218.336 63.7303 226.639 67.6467 231.503C68.7742 232.867 70.0201 234.113 71.4437 235.181C71.7402 235.359 72.1551 235.182 72.2735 234.945C76.0622 227.834 73.1496 217.931 66.625 213.421C65.9726 213.005 65.3805 214.072 66.033 214.487C71.9645 218.642 74.6394 227.833 71.2059 234.351C71.5023 234.292 71.7393 234.174 72.0357 234.115C66.6973 230.316 60.4645 219.937 66.7443 214.369C67.3367 213.777 66.4467 212.887 65.9136 213.42Z" fill="#01686F"/>
<path d="M72.9643 208.149C66.4398 203.876 54.9996 205.823 51.0921 212.697C59.275 214.956 65.4388 212.708 71.779 208.622" fill="white"/>
<path d="M73.2607 207.616C66.3212 203.164 54.8216 205.052 50.5588 212.4C50.322 212.756 50.5595 213.23 50.9745 213.29C54.6508 214.241 58.5045 214.54 62.2387 213.654C65.795 212.827 69.0543 211.11 72.1948 209.156C72.8466 208.742 72.253 207.674 71.6012 208.089C68.6977 209.924 65.6162 211.582 62.1784 212.409C58.5628 213.295 54.887 213.056 51.3293 212.104C51.5074 212.401 51.5669 212.697 51.745 212.994C55.6525 206.238 66.3816 204.646 72.7873 208.682C73.3805 209.157 73.9725 208.09 73.2607 207.616Z" fill="#01686F"/>
<path d="M83.0983 203.592C77.0548 207.975 73.6825 216.924 78.8452 223.508C84.8287 218.118 85.653 210.768 83.3948 203.652" fill="white"/>
<path d="M82.802 203.059C76.3438 207.856 73.0904 217.161 78.4311 223.923C78.6092 224.22 79.0833 224.101 79.3796 223.924C82.164 221.377 84.2364 218.118 84.9449 214.324C85.6535 210.649 85.2356 206.914 84.1065 203.415C83.8095 202.644 82.6834 202.94 82.8618 203.711C83.9315 207.031 84.4085 210.589 83.6997 214.027C82.991 217.583 81.1556 220.605 78.4897 223.034C78.7268 223.034 79.0825 223.034 79.4382 223.034C74.6316 216.925 77.8263 208.39 83.5142 204.126C84.0475 203.712 83.3945 202.585 82.802 203.059Z" fill="#01686F"/>
<path d="M89.9137 200.337C81.7921 200.627 73.4312 198.19 68.7427 191.487C75.1419 187.105 87.18 191.679 88.668 199.328" fill="white"/>
<path d="M89.9132 199.744C82.2065 199.975 73.9644 197.775 69.2167 191.25C69.1576 191.547 69.0392 191.784 68.9802 192.08C75.2017 187.876 86.4095 191.975 87.9567 199.565C88.1351 200.335 89.3798 200.04 89.2014 199.269C87.4758 191.027 75.2599 186.394 68.3865 191.013C68.0903 191.19 67.9127 191.605 68.15 191.843C73.1351 198.723 81.6739 201.22 89.8548 200.989C90.7441 200.93 90.7431 199.745 89.9132 199.744Z" fill="#01686F"/>
<path d="M106.798 186.299C101.882 192.283 95.5422 196.25 88.6085 199.505C82.3267 202.465 75.6888 204.831 70.0006 208.858C63.6608 213.418 59.3973 219.817 57.1503 227.285C55.7902 231.73 55.1417 236.413 54.078 240.918C53.1918 244.889 52.0685 248.86 50.5893 252.713C48.9918 256.802 46.8014 260.772 44.077 264.209C40.8788 268.237 36.9687 271.673 32.7619 274.693C31.6361 275.463 32.7046 277.242 33.7711 276.532C40.9406 271.498 47.042 265.278 50.83 257.337C54.4998 249.751 56.2126 241.394 57.8662 233.214C58.8113 228.709 59.9936 224.323 62.3026 220.353C64.0787 217.153 66.4478 214.309 69.2916 211.94C74.683 207.498 81.2615 204.954 87.4842 202.172C95.3662 198.68 102.714 194.418 108.222 187.723C109.111 186.716 107.628 185.232 106.798 186.299Z" fill="#01686F"/>
<path d="M43.4275 267.707C44.3782 270.434 42.9578 273.635 42.1299 276.242C41.0061 279.621 40.6532 283.296 41.2488 286.853C41.3679 287.565 42.3755 287.269 42.2563 286.558C41.6014 282.941 42.1915 279.266 43.3745 275.828C44.2025 273.22 45.3858 270.139 44.4351 267.411C44.1975 266.818 43.1899 267.113 43.4275 267.707Z" fill="#01686F"/>
<path d="M52.9593 250.581C54.1473 253.664 54.8019 256.925 55.7528 260.009C56.6443 262.914 57.8915 265.82 58.6052 268.785C58.7835 269.437 59.7911 269.142 59.6128 268.489C58.8398 265.465 57.6519 262.619 56.7604 259.713C55.8094 256.511 55.1549 253.369 53.9669 250.285C53.7293 249.692 52.7217 249.988 52.9593 250.581Z" fill="#01686F"/>
<path d="M32.3472 275.346C29.6812 277.537 26.5995 278.957 23.8148 281.03C21.0893 283.044 18.7793 285.71 16.4097 288.079C15.9358 288.553 16.7071 289.324 17.1217 288.791C19.6097 286.303 22.0382 283.519 24.9415 281.446C27.6078 279.61 30.5116 278.13 33.0592 276.058C33.6517 275.702 32.8805 274.931 32.3472 275.346Z" fill="#01686F"/>
<path d="M56.681 233.925C59.2321 236.358 60.7168 239.738 62.6753 242.645C64.4559 245.255 66.4735 247.865 67.543 250.948C67.7806 251.541 68.7883 251.364 68.5506 250.653C67.4218 247.51 65.4634 244.84 63.5642 242.112C61.5463 239.146 60.0615 235.647 57.3918 233.096C56.9172 232.74 56.1471 233.51 56.681 233.925Z" fill="#01686F"/>
<path d="M65.7369 214.902C66.6907 221.661 70.9637 227.711 71.1468 234.529C71.1474 235.24 72.2145 235.241 72.2139 234.53C72.0307 227.593 67.7576 221.425 66.7445 214.606C66.6847 213.954 65.6771 214.25 65.7369 214.902Z" fill="#01686F"/>
<path d="M59.1615 222.07C52.9382 223.903 47.2493 226.981 41.8573 230.593C41.2647 230.949 41.799 231.838 42.3915 231.483C47.7243 227.93 53.3539 224.911 59.4587 223.078C60.1107 222.901 59.8135 221.893 59.1615 222.07Z" fill="#01686F"/>
<path d="M53.8996 240.385C47.7935 240.558 42.2821 243.103 36.7706 245.529C36.1187 245.825 36.6529 246.715 37.3048 246.419C42.6385 244.052 47.9721 241.566 53.8411 241.393C54.5525 241.393 54.5516 240.326 53.8996 240.385Z" fill="#01686F"/>
<path d="M48.34 256.98C41.4631 256.975 34.4695 259.341 28.6625 263.012C28.0699 263.367 28.6042 264.257 29.1967 263.901C34.8259 260.289 41.701 258.042 48.4 257.988C49.0522 258.048 49.0514 256.981 48.34 256.98Z" fill="#01686F"/>
<path d="M82.3278 204.125C80.1387 209.874 78.3056 215.979 78.3103 222.144C78.3109 222.856 79.378 222.857 79.3774 222.145C79.432 216.039 81.2059 209.993 83.3951 204.363C83.6317 203.771 82.6237 203.473 82.3278 204.125Z" fill="#01686F"/>
<path d="M71.1855 207.555C68.1617 207.138 65.0796 207.965 62.1753 208.734C60.575 209.148 59.0339 209.502 57.4929 209.975C55.7741 210.507 54.0554 211.158 52.3366 211.809C51.744 212.046 51.9819 213.113 52.6338 212.817C54.1747 212.225 55.7749 211.574 57.3751 211.042C58.9161 210.569 60.4573 210.215 62.0576 209.801C64.9027 209.092 67.9847 208.145 70.9491 208.503C71.542 208.622 71.8377 207.615 71.1855 207.555Z" fill="#01686F"/>
<path d="M69.5135 192.14C76.2132 193.034 81.7888 196.833 87.6011 200.039C88.1942 200.395 88.6677 199.447 88.1339 199.15C82.3217 195.944 76.5682 192.086 69.8685 191.192C69.0977 191.013 68.802 192.021 69.5135 192.14Z" fill="#01686F"/>
<path d="M19.8812 22.1355C21.6534 13.8371 6.53218 8.78641 0.958516 7.47789C3.21603 13.6451 12.1757 23.908 19.8812 22.1355Z" fill="white"/>
<path d="M20.4739 22.2545C21.4188 17.5126 17.5626 14.0119 13.8854 11.8748C9.97087 9.50049 5.52337 7.89642 1.13557 6.82595C0.720538 6.76634 0.187306 7.18092 0.365475 7.59604C1.91004 11.7471 4.8178 15.4842 8.1992 18.3917C11.4027 21.2397 15.673 23.7329 20.1185 22.7285C20.8891 22.5513 20.5917 21.3061 19.8212 21.4833C15.7313 22.3694 11.698 19.7579 8.73179 17.1471C5.70628 14.477 2.97659 11.0365 1.55087 7.24125C1.31392 7.4782 1.01773 7.77439 0.780779 8.01134C4.81279 8.96298 8.78593 10.4481 12.4037 12.4073C15.8436 14.307 20.1738 17.4523 19.2879 21.8979C19.1107 22.787 20.3559 23.0844 20.4739 22.2545Z" fill="#01686F"/>
<path d="M28.1332 37.6144C34.1177 33.5284 37.7252 22.0895 31.3779 17.0455C28.1199 20.3036 26.1723 31.7438 27.48 36.2504" fill="white"/>
<path d="M28.4893 38.208C34.7701 33.9444 38.7331 22.2686 31.8519 16.6906C31.6146 16.4533 31.1996 16.3937 30.9034 16.6899C28.5932 19.1187 27.6476 22.9122 27.0572 26.113C26.4669 29.4324 25.877 33.2261 26.8281 36.5467C27.0065 37.3176 28.2512 37.0221 28.0728 36.2513C27.2405 33.1679 27.7712 29.552 28.3617 26.4697C28.716 24.6915 29.1297 22.9726 29.7805 21.2539C30.2538 19.95 30.9048 18.587 31.8526 17.6392C31.6155 17.639 31.2598 17.6387 30.9041 17.6384C37.0734 22.623 33.4653 33.232 27.8364 37.1996C27.1845 37.4956 27.8375 38.6224 28.4893 38.208Z" fill="#01686F"/>
<path d="M27.7214 41.7054C24.1597 35.5372 11.4667 27.3463 5.24741 34.5148C12.7224 41.3975 16.9926 43.6535 26.7721 40.7562" fill="white"/>
<path d="M28.2547 41.4096C26.4145 38.2661 23.4484 35.7739 20.4235 33.9338C17.3393 32.0344 13.5441 30.6086 9.86893 31.1987C7.85356 31.5528 6.07578 32.5 4.77272 34.0404C4.53577 34.2773 4.47681 34.6922 4.77345 34.9889C7.79906 37.7775 11.0026 40.6256 14.9163 41.9329C18.83 43.2401 22.9793 42.5319 26.8319 41.4085C27.6024 41.2312 27.305 39.986 26.5345 40.1633C22.8597 41.2276 18.9476 41.936 15.2711 40.7475C11.5352 39.4996 8.50964 36.711 5.66202 34.1003C5.66221 34.3375 5.66248 34.6932 5.66275 35.0489C8.8021 31.5535 13.5452 32.15 17.4 33.8722C21.1955 35.6536 24.9918 38.5022 27.1288 42.0608C27.5443 42.7132 28.6702 42.062 28.2547 41.4096Z" fill="#01686F"/>
<path d="M32.0593 55.8773C28.1413 48.9974 38.39 39.4606 43.9611 37.4493C42.4839 43.7915 40.2394 54.5794 32.5937 57.0041" fill="white"/>
<path d="M32.6524 55.5222C30.6933 51.9044 32.8836 47.8155 35.1342 44.9716C37.5034 42.1278 40.5839 39.2846 44.0807 38.0423C43.8434 37.805 43.5468 37.5084 43.3094 37.2711C42.4823 40.946 41.6551 44.6209 40.1164 48.0582C38.5778 51.614 36.2091 55.0507 32.3567 56.4112C31.5862 56.7071 31.9428 57.893 32.6541 57.6564C40.7145 54.9356 42.8411 44.9776 44.4954 37.6277C44.5544 37.2127 44.1983 36.7382 43.7241 36.8564C39.8125 38.2762 36.2578 41.3562 33.7705 44.6742C31.283 47.8736 29.3301 52.3183 31.4673 56.2327C31.9421 56.9445 33.068 56.2932 32.6524 55.5222Z" fill="#01686F"/>
<path d="M35.859 61.9266C31.6473 58.6628 29.1543 54.6296 23.1075 54.7435C19.9656 54.9189 15.8759 56.0422 13.8028 58.4712C19.6751 62.6848 28.3332 66.1299 34.4949 61.2734" fill="white"/>
<path d="M36.3329 61.4534C33.0703 58.9017 30.3406 55.3426 26.19 54.3909C23.9961 53.8556 21.6249 54.091 19.4912 54.6822C17.2388 55.2733 15.0461 56.2794 13.5061 58.0567C13.2099 58.3529 13.3289 58.8273 13.6254 59.0053C19.6757 63.397 28.5116 66.7829 35.0882 61.7489C35.7399 61.2158 34.7907 60.3851 34.1982 60.8589C28.0956 65.5377 19.7338 61.9149 14.2768 57.998C14.3363 58.2945 14.3365 58.6502 14.396 58.9467C15.8769 57.3471 18.0104 56.4002 20.0849 55.8683C22.1594 55.3363 24.3528 55.1602 26.3689 55.7545C30.0453 56.8245 32.597 60.087 35.5036 62.4013C36.0375 62.8167 36.9854 61.9875 36.3329 61.4534Z" fill="#01686F"/>
<path d="M44.6967 67.8029C42.0825 60.3311 45.5132 50.3741 52.6835 46.4076C53.6971 53.9374 53.943 65.3201 44.8748 68.218" fill="white"/>
<path d="M45.2302 67.6258C42.7346 60.1542 45.988 50.8491 52.9212 47.001C52.6247 46.823 52.3282 46.7635 52.0317 46.5854C52.9858 53.9373 53.2906 64.7864 44.6967 67.6847C43.9262 67.9805 44.2829 69.1664 44.9941 68.9299C54.4178 65.7951 54.3498 54.4719 53.2764 46.2899C53.2168 45.8749 52.6831 45.6966 52.3868 45.8742C44.9203 50.0184 41.4301 59.916 44.1041 67.9214C44.3418 68.7515 45.5272 68.3967 45.2302 67.6258Z" fill="#01686F"/>
<path d="M53.1778 72.3742C47.3083 71.7176 38.1218 74.9712 35.4021 84.573C43.0496 84.401 51.406 81.0283 53.9494 73.5012" fill="white"/>
<path d="M53.1179 71.7216C49.5013 71.3038 45.7672 72.3088 42.6266 74.1442C38.7156 76.3939 36.0507 80.1268 34.7498 84.3942C34.6315 84.7498 34.9875 85.2243 35.3432 85.2246C43.1685 84.9935 51.7027 81.5616 54.483 73.679C54.7788 72.9086 53.5336 72.6112 53.2378 73.3816C50.5756 80.6715 42.4562 83.8073 35.283 83.9796C35.4611 84.2762 35.6984 84.5135 35.8765 84.81C38.0643 77.4013 45.2336 72.2491 53.0597 73.0851C53.9489 73.0265 53.948 71.8408 53.1179 71.7216Z" fill="#01686F"/>
<path d="M63.7329 75.4647C57.8609 71.6068 60.4 58.507 65.6737 55.2505C68.7626 63.1969 70.6048 68.9488 63.9106 75.287" fill="white"/>
<path d="M64.0285 74.9315C61.0035 72.8543 60.7036 68.4078 61.1754 65.0883C61.6471 61.7687 63.0075 57.6792 65.9702 55.7844C65.6736 55.6064 65.3772 55.5468 65.0806 55.3688C66.3281 58.6303 67.8128 62.1292 67.8156 65.6862C67.8776 69.3025 66.0422 72.3246 63.4356 74.8125C62.8432 75.4049 63.7332 76.2948 64.3255 75.7024C67.0506 73.0961 69.0044 69.837 69.0608 65.9836C69.0578 62.1894 67.6322 58.5128 66.266 55.014C66.1472 54.6582 65.732 54.3614 65.3764 54.5983C62.7692 56.2562 61.2895 59.2786 60.521 62.1829C59.6342 65.3242 59.3405 68.9403 60.5286 72.0239C61.1226 73.5658 62.0722 74.9893 63.4958 75.9389C64.1483 76.473 64.7403 75.4063 64.0285 74.9315Z" fill="#01686F"/>
<path d="M74.7031 79.2092C68.0019 76.4177 56.9217 83.9382 54.8516 90.28C62.024 89.0405 71.9832 88.4553 75.5935 80.692" fill="white"/>
<path d="M74.8208 78.616C70.8476 77.0122 66.1655 78.7279 62.6693 80.8001C59.114 82.9316 55.5594 86.1302 54.1397 90.1604C54.0215 90.6345 54.496 90.9906 54.911 90.9316C62.5575 89.574 72.2203 89.0479 76.0083 80.9882C76.3634 80.2771 75.2365 79.6241 74.9407 80.3946C71.3303 88.0394 61.8452 88.3878 54.6136 89.6865C54.8509 89.9238 55.1476 90.2204 55.3849 90.4577C56.6863 86.7832 60.0632 83.8809 63.3223 81.927C66.5814 79.9731 70.7893 78.3757 74.5253 79.8607C75.2962 80.1577 75.5917 78.913 74.8208 78.616Z" fill="#01686F"/>
<path d="M84.963 84.6113C80.8678 78.6205 81.0388 69.6688 87.082 64.9308C89.3381 69.2009 92.4895 81.3565 86.2665 83.6638" fill="white"/>
<path d="M85.4963 84.3155C81.6383 78.4435 81.6911 69.966 87.4973 65.3463C87.2009 65.2868 86.8452 65.2865 86.5487 65.227C88.0923 68.0738 88.9249 71.5129 89.2238 74.7737C89.4631 77.6195 89.3478 81.8878 86.1474 83.0711C85.377 83.3669 85.7336 84.5528 86.4448 84.3162C92.3121 82.0087 90.6455 73.352 89.2192 68.7268C88.8031 67.363 88.3278 65.9398 87.6154 64.635C87.4372 64.2199 86.9037 64.2788 86.6667 64.5157C80.4457 69.4315 80.275 78.7388 84.489 84.9669C84.8451 85.56 85.9118 84.968 85.4963 84.3155Z" fill="#01686F"/>
<path d="M94.3939 90.4877C85.9142 87.8134 80.8178 90.2994 75.1312 96.342C80.7049 97.6505 91.6131 97.7775 94.7506 91.7922" fill="white"/>
<path d="M94.5712 89.8357C91.0134 88.7658 87.2188 88.2886 83.6035 89.5308C80.1067 90.7731 77.263 93.2608 74.7751 95.8674C74.4197 96.2228 74.5387 96.8157 75.0723 96.8754C78.6893 97.7674 82.5428 97.8297 86.218 97.3582C89.7153 96.8274 93.5676 95.3482 95.3436 92.0297C95.6987 91.3186 94.6312 90.7249 94.276 91.4361C92.6184 94.5175 89.0031 95.7597 85.6836 96.2314C82.3047 96.6438 78.7476 96.5225 75.4271 95.69C75.5459 96.0458 75.6648 96.4016 75.7243 96.6981C78.0937 94.21 80.7004 91.8406 84.0194 90.6575C87.3976 89.5337 91.0143 89.9515 94.3942 90.9619C94.9873 91.3181 95.3421 90.1327 94.5712 89.8357Z" fill="#01686F"/>
<path d="M102.364 124.404C104.376 119.9 105.795 115.04 105.613 110C105.432 105.791 104.244 101.759 102.047 98.1409C97.5953 90.6085 89.9437 85.445 82.2339 81.5263C74.7612 77.7264 66.6965 74.9932 58.573 72.7934C52.2283 71.0694 45.7644 68.3966 40.6036 64.3021C35.9173 60.5636 31.4077 55.3432 29.8025 49.3543C27.4837 40.6379 30.2622 30.384 22.9058 23.62C21.8973 22.73 20.8296 21.8992 19.7027 21.2462C18.5164 20.5339 17.51 22.3709 18.6963 23.0832C22.848 25.5763 25.2223 29.3723 26.0559 34.1156C26.83 38.5625 26.5963 43.0678 27.3111 47.4554C28.2047 53.088 31.1725 57.8329 34.9698 61.9857C39.5385 66.9098 45.2917 70.4119 51.459 72.788C55.788 74.5105 60.3536 75.5219 64.801 77.0074C68.774 78.2554 72.7471 79.7405 76.5425 81.4034C84.3706 84.8478 92.2587 89.3002 97.7773 96.0034C100.27 99.0881 102.229 102.706 102.943 106.619C103.836 111.066 103.246 115.571 101.886 119.779C101.413 121.083 100.999 122.328 100.348 123.572C99.9928 124.639 101.831 125.648 102.364 124.404Z" fill="#01686F"/>
<path d="M1.43313 8.54501C4.39922 11.0372 7.42455 13.4701 10.5684 15.7846C13.5935 17.9804 16.2041 20.7095 19.466 22.4312C20.0591 22.7874 20.5327 21.8392 19.9989 21.5424C16.7963 19.88 14.3044 17.2696 11.3978 15.0739C8.25398 12.7594 5.11008 10.3263 2.14389 7.71558C1.66935 7.35952 0.899258 8.12961 1.43313 8.54501Z" fill="#01686F"/>
<path d="M31.0234 18.2306C31.1444 21.432 31.0283 24.6332 30.5565 27.8342C30.0846 30.9166 29.3163 34.058 27.5991 36.7244C27.2439 37.317 28.1335 37.8512 28.4888 37.2587C30.2652 34.533 31.0927 31.3323 31.5645 28.1314C32.0956 24.8712 32.1523 21.6106 32.0312 18.2906C32.0899 17.52 31.0228 17.5192 31.0234 18.2306Z" fill="#01686F"/>
<path d="M42.6578 37.9218C41.2374 41.122 38.8089 43.7879 36.9733 46.6914C35.0192 49.5948 33.2429 52.5576 32.3563 55.936C32.1789 56.588 33.187 56.8852 33.3643 56.2332C34.3102 52.7955 36.0865 49.8327 38.0406 46.9293C39.9355 44.0852 42.2456 41.5377 43.6067 38.3968C43.8435 37.9227 42.9538 37.3884 42.6578 37.9218Z" fill="#01686F"/>
<path d="M51.7354 47.2367C49.1913 53.8152 47.4181 60.6908 44.3996 67.1504C44.1629 67.743 45.0526 68.2772 45.2893 67.6846C48.3078 61.225 50.1402 54.2902 52.6843 47.5932C53.0394 46.882 51.9721 46.6441 51.7354 47.2367Z" fill="#01686F"/>
<path d="M64.785 56.2577C64.019 62.3634 63.3123 68.4097 62.3091 74.5152C62.2503 75.1672 63.2584 75.4644 63.3172 74.8124C64.3203 68.7069 65.0862 62.4827 65.7929 56.3178C65.9109 55.6065 64.8438 55.6057 64.785 56.2577Z" fill="#01686F"/>
<path d="M86.1935 65.8187C84.5971 71.4494 86.4394 77.3199 84.7838 82.8913C84.6064 83.5432 85.6145 83.8404 85.7918 83.1884C87.4475 77.6171 85.6052 71.7466 87.2015 66.1159C87.3789 65.4639 86.4301 65.226 86.1935 65.8187Z" fill="#01686F"/>
<path d="M5.48533 35.1072C12.541 36.3575 19.597 37.9636 26.1204 40.8142C26.7134 41.0518 27.2463 40.163 26.6533 39.9254C19.952 37.0154 12.9552 35.35 5.78097 34.0996C5.06948 33.9805 4.83316 35.0474 5.48533 35.1072Z" fill="#01686F"/>
<path d="M14.574 59.1239C21.0352 58.2396 27.7355 59.8454 33.9615 61.4508C34.6138 61.6292 34.9094 60.6216 34.2572 60.4432C27.8533 58.7784 20.9752 57.2317 14.3361 58.1752C13.6841 58.2339 13.8627 59.2419 14.574 59.1239Z" fill="#01686F"/>
<path d="M53.1188 72.5519C47.3115 75.8673 41.3261 78.7676 36.4685 83.5066C35.9946 83.9805 36.7066 84.6924 37.1805 84.2185C41.8603 79.5387 47.905 76.6978 53.5344 73.4415C54.1863 73.1456 53.7113 72.1967 53.1188 72.5519Z" fill="#01686F"/>
<path d="M75.1775 79.4449C72.4523 81.8141 68.4805 82.1075 65.221 83.4685C63.443 84.1785 61.8431 85.1851 60.1839 86.1324C58.4062 87.1981 56.5693 88.3231 55.0289 89.6262C54.4957 90.0407 55.267 90.812 55.7409 90.3381C57.459 88.9759 59.3552 87.7917 61.2515 86.726C62.9699 85.7195 64.7476 84.6538 66.6442 84.0624C69.8447 82.9978 73.342 82.4669 75.9488 80.2162C76.4227 79.7422 75.6514 78.971 75.1775 79.4449Z" fill="#01686F"/>
<path d="M94.0975 91.0204C87.9329 92.2013 81.8278 93.5602 75.9603 95.6306C75.3677 95.8672 75.5463 96.8752 76.2575 96.6386C82.1249 94.4496 88.23 93.0908 94.3947 92.0284C94.9875 91.9103 94.8088 90.9024 94.0975 91.0204Z" fill="#01686F"/>
<path d="M130.196 160.766C109.98 160.098 84.5557 170.809 75.441 190.365C92.3992 194.291 125.238 188.151 131.561 162.13" fill="white"/>
<path d="M130.136 159.758C121.599 159.514 113.004 161.108 105.003 164.126C96.765 167.261 88.9431 171.879 82.7824 178.159C79.406 181.654 76.5634 185.564 74.4325 189.95C74.1958 190.542 74.3743 191.313 75.0858 191.432C83.3276 193.276 92.2198 192.809 100.399 190.8C109.468 188.613 118.417 184.292 124.695 177.183C128.427 172.977 131.031 167.88 132.45 162.427C132.805 161.124 130.729 160.588 130.375 161.892C128.07 171.198 121.91 178.663 113.673 183.34C106.029 187.781 97.0196 190.026 88.1273 190.375C83.9183 190.55 79.6497 190.309 75.4992 189.358C75.7367 189.832 75.9149 190.366 76.1524 190.84C83.4324 175.373 100.025 166.137 116.266 162.949C120.771 162.004 125.395 161.651 130.019 161.773C131.56 161.893 131.499 159.818 130.136 159.758Z" fill="#01686F"/>
<path d="M125.812 164.557C114.496 173.975 99.7966 177.52 86.6403 183.557C82.966 185.214 79.4697 187.168 76.0924 189.477C75.2036 190.129 76.0347 191.552 76.9234 190.901C89.0701 182.551 103.829 179.42 116.807 172.494C120.422 170.541 123.859 168.291 127.058 165.685C127.887 165.092 126.701 163.906 125.812 164.557Z" fill="#01686F"/>
<path d="M89.6039 183.322C88.8352 185.871 87.5921 188.3 86.0523 190.433C85.6379 191.085 86.7054 191.679 87.1199 191.027C88.6596 188.775 89.9025 186.227 90.7305 183.619C91.0263 182.849 89.7811 182.552 89.6039 183.322Z" fill="#01686F"/>
<path d="M98.2562 179.654C97.0732 183.091 96.661 186.707 95.1815 190.085C94.8264 190.796 95.9532 191.449 96.2491 190.679C97.7878 187.242 98.1999 183.507 99.4422 180.01C99.7972 179.181 98.5521 178.883 98.2562 179.654Z" fill="#01686F"/>
<path d="M108.45 175.274C106.2 179.304 105.907 183.868 104.369 188.136C104.073 188.906 105.318 189.203 105.614 188.433C107.152 184.284 107.386 179.779 109.517 175.868C109.872 175.157 108.805 174.563 108.45 175.274Z" fill="#01686F"/>
<path d="M95.0556 180.599C91.9128 179.589 88.5925 178.994 85.7456 177.332C85.0932 176.916 84.4419 178.042 85.1536 178.398C88.1191 180.179 91.4988 180.834 94.7602 181.844C95.4718 182.082 95.7672 180.837 95.0556 180.599Z" fill="#01686F"/>
<path d="M104.182 176.575C100.446 174.735 96.8281 172.538 92.8553 171.409C92.0844 171.23 91.7296 172.416 92.5598 172.654C96.4734 173.842 99.9728 175.92 103.65 177.701C104.302 178.117 104.953 176.991 104.182 176.575Z" fill="#01686F"/>
<path d="M113.428 172.788C111.529 171.482 109.335 170.71 107.201 169.878C106.133 169.403 105.066 168.928 104.057 168.275C103.108 167.682 102.159 167.088 101.092 166.613C100.321 166.316 100.025 167.561 100.796 167.858C101.923 168.273 102.872 168.986 103.821 169.579C104.77 170.173 105.778 170.588 106.786 171.004C108.803 171.836 110.937 172.549 112.836 173.855C113.488 174.389 114.08 173.322 113.428 172.788Z" fill="#01686F"/>
<path d="M119.946 169.354C117.04 167.159 113.956 165.378 110.99 163.241C110.337 162.826 109.745 163.892 110.398 164.308C113.245 166.326 116.27 168.047 119.117 170.184C119.413 170.362 119.71 170.421 120.065 170.184C120.184 170.066 120.243 169.532 119.946 169.354Z" fill="#01686F"/>
<path d="M120.697 143.447C116.349 117.537 91.7921 99.4962 67.6017 96.0391C69.2791 118.687 97.1627 145.149 119.572 144.929" fill="white"/>
<path d="M121.704 143.152C118.25 122.874 102.41 107.034 83.8479 99.3717C78.6886 97.2928 73.3519 95.7473 67.8379 94.9724C67.245 94.8534 66.4746 95.2678 66.4752 95.9792C67.2536 105.999 72.4184 115.31 78.7084 123.022C85.473 131.208 94.1339 138.329 103.919 142.427C108.841 144.506 114.178 145.933 119.572 145.877C120.877 145.878 120.934 143.804 119.571 143.743C110.026 143.795 100.834 139.342 93.2411 133.763C84.9961 127.769 77.8166 119.761 73.1262 110.687C70.7514 106.061 69.0283 101.02 68.6093 95.8622C68.1353 96.2176 67.7206 96.5137 67.2466 96.869C86.2787 99.67 104.784 110.948 114.223 127.97C116.894 132.774 118.736 138.051 119.689 143.506C119.927 145.048 121.943 144.456 121.704 143.152Z" fill="#01686F"/>
<path d="M67.8997 98.1143C80.6555 110.87 93.7074 123.33 108.062 134.249C112.096 137.335 116.248 140.302 120.459 143.092C121.408 143.685 122.178 142.204 121.288 141.669C106.341 131.817 92.8156 119.95 79.9415 107.55C76.3225 104.049 72.7035 100.549 69.0845 96.9295C68.3132 96.1582 67.1284 97.343 67.8997 98.1143Z" fill="#01686F"/>
<path d="M78.6371 107.43C76.0285 107.191 73.4203 107.545 70.8706 106.891C70.0998 106.712 69.745 107.898 70.5751 108.136C73.2434 108.79 75.9702 108.436 78.6974 108.675C79.0531 108.676 79.3493 108.379 79.349 108.024C79.2302 107.668 78.9929 107.431 78.6371 107.43Z" fill="#01686F"/>
<path d="M86.0532 114.846C82.5561 115.614 78.9988 115.256 75.4417 115.135C74.6117 115.134 74.6719 116.379 75.4427 116.439C79.1183 116.56 82.7942 116.919 86.3506 116.092C87.1804 115.855 86.8237 114.669 86.0532 114.846Z" fill="#01686F"/>
<path d="M93.647 121.967C89.9726 123.505 85.9416 123.858 81.9698 124.033C81.1991 124.091 81.1408 125.336 81.9707 125.337C86.1204 125.103 90.3292 124.691 94.1814 123.094C94.5371 122.975 94.5367 122.501 94.4179 122.264C94.2991 121.908 93.9433 121.789 93.647 121.967Z" fill="#01686F"/>
<path d="M101.715 128.494C98.2183 130.092 94.6029 131.334 90.9878 132.813C90.2173 133.109 90.5739 134.295 91.2851 134.058C94.9596 132.638 98.6934 131.278 102.309 129.68C103.02 129.206 102.426 128.139 101.715 128.494Z" fill="#01686F"/>
<path d="M109.426 134.665C106.404 136.5 102.907 137.268 99.5289 138.511C98.7584 138.807 99.1151 139.993 99.8263 139.756C103.204 138.514 106.879 137.686 109.961 135.792C110.731 135.377 110.078 134.25 109.426 134.665Z" fill="#01686F"/>
<path d="M83.5605 110.932C83.0241 107.316 82.7843 103.758 82.1294 100.142C81.9509 99.3707 80.7655 99.7255 80.8846 100.437C81.5988 103.995 81.7794 107.611 82.3157 111.228C82.3752 111.524 82.7311 111.762 83.0867 111.643C83.5017 111.584 83.62 111.229 83.5605 110.932Z" fill="#01686F"/>
<path d="M90.917 117.933C90.9134 113.309 91.5621 108.744 91.4399 104.12C91.4393 103.29 90.1351 103.289 90.1357 104.119C90.2578 108.743 89.6092 113.308 89.6128 117.932C89.6134 118.762 90.8583 118.703 90.917 117.933Z" fill="#01686F"/>
<path d="M98.7478 124.935C99.3962 120.133 99.9262 115.45 100.812 110.649C100.989 109.878 99.7438 109.581 99.5666 110.352C98.7402 115.094 98.151 119.836 97.5026 124.637C97.4439 125.408 98.6891 125.705 98.7478 124.935Z" fill="#01686F"/>
<path d="M124.366 135.744C135.373 110.379 126.943 93.8913 104.997 79.6464C98.3102 96.0628 106.513 124.17 123.121 135.92" fill="white"/>
<path d="M125.256 136.278C128.866 127.922 131.231 118.794 129.741 109.722C128.431 101.659 123.979 94.4819 118.165 88.7862C114.309 84.9298 109.919 81.7252 105.411 78.7575C104.759 78.342 104.167 78.8158 103.93 79.4085C100.971 86.7574 101.096 95.1757 102.525 102.765C104.132 111.362 107.518 119.724 112.681 126.783C115.47 130.638 118.733 134.02 122.589 136.809C123.716 137.581 124.722 135.744 123.595 134.972C116.952 130.225 112.085 123.225 108.819 115.812C105.493 108.34 103.531 100.098 103.702 91.8579C103.758 87.7673 104.407 83.6773 105.946 79.8843C105.472 80.1211 104.938 80.2985 104.464 80.5353C111.641 85.2242 118.641 90.8022 123.211 98.2162C127.307 104.8 128.795 112.449 127.852 120.036C127.204 125.312 125.548 130.409 123.477 135.209C122.944 136.454 124.724 137.522 125.256 136.278Z" fill="#01686F"/>
<path d="M104.88 81.306C111.173 92.8119 115.925 105.028 118.958 117.776C119.85 121.393 120.505 125.01 121.101 128.686C121.22 129.753 122.88 129.28 122.701 128.272C120.616 115.288 116.812 102.598 111.29 90.5592C109.746 87.1195 108.024 83.739 106.243 80.4178C105.827 79.5282 104.405 80.3571 104.88 81.306Z" fill="#01686F"/>
<path d="M116.683 89.6741C115.143 91.6886 113.722 93.7031 112.479 95.8956C112.064 96.5474 113.191 97.2004 113.547 96.4893C114.79 94.4153 116.093 92.4007 117.573 90.564C117.751 90.2678 117.869 89.9121 117.573 89.6155C117.395 89.4375 116.92 89.4371 116.683 89.6741Z" fill="#01686F"/>
<path d="M122.261 96.7921C120.307 99.5769 118.234 102.243 115.865 104.731C115.272 105.324 116.162 106.214 116.755 105.621C119.243 103.133 121.375 100.289 123.388 97.4451C123.862 96.7341 122.735 96.0811 122.261 96.7921Z" fill="#01686F"/>
<path d="M126.714 104.918C124.226 107.643 121.738 110.368 119.132 112.975C118.54 113.567 119.429 114.457 120.022 113.865C122.628 111.258 125.116 108.533 127.604 105.808C128.196 105.215 127.306 104.326 126.714 104.918Z" fill="#01686F"/>
<path d="M113.903 98.1494C110.522 95.2419 106.785 92.8084 103.226 90.0787C102.574 89.5446 101.982 90.7298 102.634 91.1453C106.075 93.7564 109.752 96.1306 113.074 98.9788C113.667 99.572 114.556 98.6835 113.903 98.1494Z" fill="#01686F"/>
<path d="M117.706 108.468C113.612 104.611 108.334 102.532 103.53 99.7422C102.878 99.3268 102.227 100.453 102.938 100.809C107.565 103.539 112.842 105.618 116.877 109.297C117.411 109.95 118.299 109.061 117.706 108.468Z" fill="#01686F"/>
<path d="M119.253 115.939C116.94 114.929 114.805 113.623 112.492 112.614C111.424 112.139 110.357 111.664 109.23 111.366C108.104 111.069 106.977 110.772 106.028 110.06C105.375 109.525 104.784 110.711 105.436 111.126C106.326 111.779 107.393 112.136 108.46 112.373C109.646 112.73 110.892 113.146 112.018 113.68C114.331 114.69 116.466 115.996 118.779 117.006C119.313 117.302 120.024 116.236 119.253 115.939Z" fill="#01686F"/>
<path d="M131.266 165.509C113.666 173.973 94.2982 197.613 96.9217 217.178C113.874 213.278 138.997 195.987 131.266 165.509Z" fill="white"/>
<path d="M130.791 164.56C122.969 168.348 116.096 174.153 110.351 180.61C104.487 187.305 99.454 195.186 97.0299 203.78C95.7884 208.225 95.3176 212.73 95.914 217.355C95.9737 217.889 96.6853 218.245 97.1595 218.127C105.043 216.295 112.628 212.388 118.79 207.176C125.958 201.194 131.288 193.017 133.059 183.77C134.24 177.605 133.82 171.261 132.274 165.213C131.917 163.909 129.961 164.441 130.2 165.745C132.697 175.588 131.875 185.903 126.665 194.792C122.402 202.139 115.707 207.885 108.241 211.792C104.507 213.745 100.655 215.224 96.5652 216.229C96.9804 216.526 97.3956 216.704 97.8108 217.001C96.7968 208.997 99.5769 200.877 103.425 193.944C107.688 186.24 113.551 179.546 120.305 173.978C123.801 171.076 127.593 168.589 131.682 166.636C133.045 165.866 132.036 164.027 130.791 164.56Z" fill="#01686F"/>
<path d="M127.007 176.888C121.502 188.681 111.253 196.914 103.02 206.571C100.71 209.237 98.6369 212.021 96.7421 214.984C96.15 215.932 97.6327 216.704 98.1656 215.815C104.916 205.031 115.225 197.095 122.805 187.022C124.997 184.119 126.891 181.038 128.43 177.719C128.904 176.652 127.48 175.821 127.007 176.888Z" fill="#01686F"/>
<path d="M103.553 206.631C103.674 209.358 103.261 212.144 103.145 214.871C103.145 215.701 104.39 215.643 104.449 214.872C104.565 212.145 104.978 209.359 104.857 206.632C104.798 205.861 103.553 205.801 103.553 206.631Z" fill="#01686F"/>
<path d="M109.891 200.293C110.131 203.969 110.786 207.704 110.433 211.498C110.374 212.268 111.619 212.329 111.737 211.499C112.031 207.764 111.376 204.029 111.195 200.294C111.135 199.523 109.831 199.522 109.891 200.293Z" fill="#01686F"/>
<path d="M115.518 194.191C116.646 195.793 117.181 197.749 117.657 199.647C118.133 201.544 118.549 203.501 119.025 205.398C119.203 206.169 120.448 205.874 120.269 205.103C119.734 203.146 119.377 201.13 118.842 199.173C118.307 197.217 117.713 195.2 116.585 193.599C116.17 192.947 115.044 193.598 115.518 194.191Z" fill="#01686F"/>
<path d="M120.968 187.911C122.334 191.528 123.997 194.968 124.711 198.762C124.83 199.593 126.016 199.238 125.956 198.467C125.241 194.672 123.638 191.173 122.213 187.615C121.916 186.844 120.671 187.14 120.968 187.911Z" fill="#01686F"/>
<path d="M106.869 202.366C103.965 203.253 101.12 204.318 98.0973 204.73C97.801 204.789 97.5047 204.967 97.4457 205.382C97.446 205.738 97.7426 206.034 98.0983 206.035C101.24 205.622 104.203 204.557 107.167 203.611C107.937 203.315 107.64 202.07 106.869 202.366Z" fill="#01686F"/>
<path d="M112.793 196.323C109.118 196.202 105.383 196.021 101.766 195.366C100.936 195.247 100.64 196.492 101.47 196.611C105.206 197.266 109 197.506 112.794 197.627C113.624 197.628 113.623 196.324 112.793 196.323Z" fill="#01686F"/>
<path d="M118.657 189.866C114.744 189.389 110.593 188.437 107.035 186.656C106.323 186.299 105.672 187.425 106.443 187.722C110.298 189.563 114.508 190.574 118.717 191.111C119.488 191.171 119.428 189.926 118.657 189.866Z" fill="#01686F"/>
<path d="M124.581 183.586C120.904 181.686 116.813 180.912 112.958 179.309C112.187 179.012 111.595 180.078 112.366 180.375C116.161 181.92 120.312 182.753 123.989 184.653C124.76 185.068 125.352 184.002 124.581 183.586Z" fill="#01686F"/>
<path d="M110.326 148.953C97.5227 151.078 85.3146 156.641 74.7085 164.043C71.7459 166.056 68.902 168.307 66.2361 170.736C65.229 171.624 66.7122 173.107 67.7193 172.219C77.1982 163.808 88.5757 157.295 100.667 153.511C103.986 152.446 107.483 151.559 110.98 151.029C112.166 150.792 111.69 148.776 110.326 148.953Z" fill="#01686F"/>
<path d="M75.8949 164.518C75.8977 168.194 75.0113 171.928 74.0062 175.425C73.8289 176.195 75.0148 176.552 75.2513 175.722C76.375 172.107 77.202 168.313 77.2583 164.46C77.1985 163.689 75.8942 163.688 75.8949 164.518Z" fill="#01686F"/>
<path d="M80.1014 161.261C77.9671 161.14 75.7735 160.961 73.6982 160.544C71.6823 160.187 69.4292 159.711 67.7682 158.406C67.1157 157.872 66.5238 159.057 67.1762 159.472C68.9557 160.778 71.3275 161.373 73.462 161.73C75.6558 162.147 77.968 162.326 80.2209 162.446C80.9324 162.566 80.9314 161.261 80.1014 161.261Z" fill="#01686F"/>
<path d="M86.5017 158.658C86.0303 162.333 84.5509 165.829 84.8502 169.564C84.9101 170.335 86.1551 170.395 86.1544 169.565C85.8552 165.949 87.2754 162.512 87.7469 158.955C87.806 158.659 87.6871 158.303 87.3314 158.184C86.9756 158.065 86.5608 158.361 86.5017 158.658Z" fill="#01686F"/>
<path d="M89.76 155.4C86.2618 154.745 83.1184 152.905 80.3304 150.709C80.0338 150.531 79.6189 150.709 79.5006 150.946C79.3229 151.242 79.4418 151.598 79.7383 151.776C82.6449 153.971 85.8477 155.871 89.5238 156.585C90.1761 156.764 90.5309 155.578 89.76 155.4Z" fill="#01686F"/>
<path d="M64.5191 173.877C65.6463 175.004 67.5434 175.005 68.6689 173.88C69.7945 172.754 69.793 170.857 68.6658 169.73C67.5385 168.603 65.6414 168.601 64.5159 169.727C63.3904 170.852 63.3918 172.749 64.5191 173.877Z" fill="#01686F"/>
<path d="M72.9398 177.203C75.2537 179.517 78.8079 175.962 76.4941 173.648C74.2396 171.394 70.6853 174.948 72.9398 177.203Z" fill="#01686F"/>
<path d="M83.9027 171.46C86.2165 173.774 89.7708 170.22 87.457 167.906C85.2025 165.652 81.6482 169.206 83.9027 171.46Z" fill="#01686F"/>
<path d="M65.5757 160.717C67.8895 163.031 71.4438 159.476 69.13 157.163C66.8755 154.908 63.3212 158.462 65.5757 160.717Z" fill="#01686F"/>
<path d="M78.494 153.731C80.8078 156.045 84.3621 152.491 82.0482 150.177C79.7344 147.863 76.1801 151.417 78.494 153.731Z" fill="#01686F"/>
<path d="M111.217 150.911C95.2692 149.891 80.7386 141.877 68.637 131.789C65.315 129.059 62.1707 126.152 59.0856 123.067C58.1364 122.118 56.6554 123.599 57.6047 124.548C68.8772 135.821 82.1644 145.79 97.5817 150.426C102.029 151.793 106.594 152.567 111.159 152.867C112.582 153.106 112.581 150.971 111.217 150.911Z" fill="#01686F"/>
<path d="M65.6066 122.716C66.4988 126.452 66.7984 130.661 68.9352 133.983C69.3507 134.635 70.4173 134.043 70.0018 133.391C67.8652 130.188 67.6842 126.097 66.7921 122.48C66.6729 121.65 65.4282 121.945 65.6066 122.716Z" fill="#01686F"/>
<path d="M73.2643 135.823C70.8338 135.999 68.5212 135.346 66.2087 134.81C63.7777 134.275 61.4062 134.036 58.9761 134.686C58.2055 134.863 58.5029 136.109 59.2734 135.931C64.0151 134.631 68.5228 137.361 73.2653 137.128C74.0359 137.069 74.0349 135.765 73.2643 135.823Z" fill="#01686F"/>
<path d="M77.7059 130.076C77.4701 131.855 77.6494 133.692 77.9471 135.412C78.1857 137.191 78.6613 138.969 79.2554 140.63C79.3742 140.986 79.8485 140.986 80.0855 140.868C80.3818 140.69 80.4408 140.275 80.322 140.038C79.6687 138.437 79.3117 136.776 79.0733 135.116C78.8349 133.456 78.7743 131.737 78.8916 130.077C78.8913 129.721 78.5947 129.425 78.239 129.424C77.9426 129.484 77.7056 129.72 77.7059 130.076Z" fill="#01686F"/>
<path d="M85.1861 143.836C82.8149 144.072 80.5027 143.892 78.1315 144.009C75.7602 144.125 73.5078 144.598 71.4338 145.841C70.782 146.256 71.3757 147.323 72.0275 146.909C75.9976 144.481 80.6818 145.493 85.0684 145.022C85.9576 144.963 85.9567 143.778 85.1861 143.836Z" fill="#01686F"/>
<path d="M88.1463 138.266C88.0299 141.112 89.0991 143.839 89.8126 146.567C89.9911 147.338 91.2358 147.042 91.0574 146.272C90.4032 143.603 89.2748 141.053 89.4506 138.267C89.4499 137.437 88.1457 137.436 88.1463 138.266Z" fill="#01686F"/>
<path d="M55.1747 124.842C56.302 125.97 58.1991 125.971 59.3246 124.846C60.4501 123.72 60.4486 121.823 59.3214 120.696C58.1941 119.568 56.2971 119.567 55.1715 120.692C54.046 121.818 54.0475 123.715 55.1747 124.842Z" fill="#01686F"/>
<path d="M69.8953 148.33C72.2092 150.644 75.7634 147.09 73.4496 144.776C71.1358 142.462 67.5815 146.016 69.8953 148.33Z" fill="#01686F"/>
<path d="M56.9626 137.056C59.2765 139.37 62.8308 135.815 60.5169 133.501C58.2624 131.247 54.7081 134.801 56.9626 137.056Z" fill="#01686F"/>
<path d="M64.7781 124.02C67.0919 126.334 70.6462 122.78 68.3324 120.466C66.0779 118.211 62.5236 121.766 64.7781 124.02Z" fill="#01686F"/>
<path d="M76.2261 132.506C78.54 134.82 82.0943 131.266 79.7804 128.952C77.4666 126.638 73.9123 130.192 76.2261 132.506Z" fill="#01686F"/>
<path d="M86.3106 140.695C88.6244 143.009 92.1787 139.455 89.8649 137.141C87.5511 134.827 83.9968 138.382 86.3106 140.695Z" fill="#01686F"/>
<path d="M134.683 137.649C136.98 117.791 148.592 107.247 162.059 120.715C175.112 133.767 159.468 142.885 147.082 148.744C195.806 139.889 169.414 202.828 143.18 163.088C151.495 182.539 145.221 195.103 127.55 189.161C110.116 183.338 118.761 170.539 126.875 159.815C80.8941 190.133 82.6754 116.563 121.647 145.464C80.8965 116.088 134.649 93.3048 134.683 137.649Z" fill="white"/>
<path d="M135.75 137.65C136.751 128.936 141.718 112.103 153.875 116.321C156.78 117.332 159.213 119.29 161.348 121.426C163.247 123.324 164.968 125.519 165.681 128.128C166.87 132.397 164.324 136.13 161.303 138.914C157.096 142.764 151.763 145.369 146.607 147.795C145.481 148.328 146.253 149.929 147.379 149.752C153.722 148.631 161.25 148.103 167.122 151.368C170.68 153.387 172.995 156.886 173.295 160.858C173.535 164.653 172.233 168.564 169.864 171.29C167.317 174.193 163.761 175.731 159.967 175.254C154.097 174.479 149.41 169.673 146.028 165.224C145.434 164.394 144.781 163.504 144.247 162.615C143.476 161.488 141.935 162.435 142.41 163.621C145.558 171.034 149.957 187.162 138.102 189.406C135.613 189.878 132.885 189.521 130.454 188.867C127.549 188.094 124.524 187.083 122.152 185.185C120.55 183.938 119.304 182.337 118.828 180.321C118.412 178.364 118.766 176.467 119.357 174.571C121.072 169.296 124.744 164.674 127.942 160.29C128.535 159.46 127.348 158.274 126.518 158.866C120.415 162.833 113.186 166.741 105.597 166.142C101.15 165.842 97.2951 163.408 95.2766 159.613C93.3768 156.054 93.0178 151.786 94.2598 147.933C95.3833 144.199 98.108 141.118 101.901 140.054C107.651 138.458 113.818 141.427 118.563 144.513C119.512 145.107 120.402 145.76 121.292 146.412C121.647 145.82 122.002 145.227 122.298 144.575C116.841 140.659 111.087 135.615 108.592 129.211C107.107 125.475 107.104 121.562 109.295 118.303C111.072 115.696 114.39 114.038 117.71 113.922C121.563 113.747 125.181 115.469 127.851 118.376C132.597 123.478 133.67 131.068 133.735 137.767C133.676 139.012 135.751 138.954 135.75 137.65C135.686 130.951 134.613 123.717 130.459 118.26C127.67 114.641 123.578 112.089 118.894 111.789C114.981 111.549 110.951 113.087 108.345 115.931C105.442 119.189 104.734 123.694 105.864 127.904C107.707 134.605 112.987 140.003 118.267 144.217C119.216 144.929 120.165 145.641 121.114 146.353C122.241 147.125 123.188 145.347 122.12 144.516C116.723 140.54 109.783 136.681 102.848 137.684C98.2837 138.332 94.4919 141.412 92.7167 145.679C90.9413 149.828 90.8858 154.748 92.549 158.899C94.3903 163.465 98.2463 166.848 103.049 167.859C110.283 169.406 117.869 166.329 124.032 162.777C125.157 162.126 126.343 161.415 127.468 160.645C126.994 160.171 126.519 159.696 126.044 159.221C121.01 165.917 111.416 178.003 119.662 185.894C121.976 188.089 125 189.337 128.025 190.347C130.93 191.238 133.954 191.893 136.977 191.599C141.898 191.187 145.69 188.345 147.227 183.603C149.416 176.669 146.92 168.841 144.247 162.496C143.654 162.851 143.062 163.206 142.41 163.502C146.09 169.078 151.134 175.069 157.893 176.853C162.34 177.983 166.904 176.86 170.34 173.78C173.48 170.877 175.315 166.551 175.489 162.224C175.604 157.6 173.526 153.27 169.789 150.481C164.332 146.446 156.862 146.321 150.401 147.087C149.215 147.205 148.03 147.441 146.903 147.618C147.2 148.27 147.438 148.863 147.676 149.575C152.772 147.207 157.928 144.544 162.193 140.871C165.748 137.791 168.827 133.525 167.994 128.545C167.576 125.758 165.974 123.326 164.135 121.25C161.939 118.699 159.27 116.385 156.186 114.96C151.263 112.644 145.988 113.292 142.019 117.024C136.509 122.177 134.5 130.357 133.675 137.589C133.499 138.952 135.633 138.954 135.75 137.65Z" fill="#01686F"/>
<path d="M119.913 126.789C125.135 132.959 128.934 140.075 132.023 147.548C132.32 148.318 133.446 147.667 133.09 146.956C129.942 139.424 126.142 132.189 120.802 125.9C120.268 125.248 119.379 126.136 119.913 126.789Z" fill="#01686F"/>
<path d="M126.928 152.642C119.636 152.814 112.226 152.157 105.053 153.515C104.283 153.692 104.58 154.937 105.351 154.76C112.404 153.402 119.756 154.119 126.929 153.946C127.7 153.888 127.758 152.643 126.928 152.642Z" fill="#01686F"/>
<path d="M133.454 158.338C133.637 164.8 132.457 171.321 130.683 177.485C130.506 178.255 131.691 178.612 131.928 177.782C133.702 171.499 135.001 164.861 134.818 158.28C134.699 157.45 133.454 157.508 133.454 158.338Z" fill="#01686F"/>
<path d="M141.201 133.268C138.121 136.822 136.583 141.327 134.927 145.712C134.631 146.483 135.876 146.78 136.172 146.01C137.71 141.861 139.189 137.534 142.091 134.157C142.683 133.565 141.793 132.675 141.201 133.268Z" fill="#01686F"/>
<path d="M119.684 137.46C122.592 141.197 126.152 144.401 129.059 148.138C129.593 148.79 130.423 147.842 129.948 147.249C127.04 143.512 123.481 140.308 120.573 136.571C120.098 135.859 119.21 136.748 119.684 137.46Z" fill="#01686F"/>
<path d="M129.106 131.954C130.888 136.817 132.078 141.798 133.445 146.719C133.623 147.49 134.868 147.194 134.69 146.424C133.322 141.502 132.074 136.462 130.351 131.659C130.054 130.888 128.809 131.183 129.106 131.954Z" fill="#01686F"/>
<path d="M127.46 150.093C122.717 149.259 118.092 147.952 113.348 147.237C112.518 147.117 112.223 148.362 113.053 148.481C117.796 149.196 122.481 150.445 127.165 151.338C127.995 151.457 128.29 150.212 127.46 150.093Z" fill="#01686F"/>
<path d="M126.99 155.073C122.841 156.137 118.514 157.023 114.721 159.035C114.01 159.39 114.663 160.517 115.315 160.103C119.048 158.149 123.316 157.323 127.346 156.259C128.117 156.081 127.76 154.896 126.99 155.073Z" fill="#01686F"/>
<path d="M130.609 158.336C129.308 162.604 127.414 166.634 124.986 170.367C124.571 171.019 125.698 171.672 126.053 170.96C128.54 167.168 130.434 163.02 131.735 158.634C132.09 157.923 130.904 157.566 130.609 158.336Z" fill="#01686F"/>
<path d="M136.062 157.392C136.54 162.49 137.848 167.471 138.445 172.57C138.564 173.4 139.75 173.045 139.69 172.275C139.034 167.354 137.785 162.432 137.307 157.452C137.188 156.622 136.002 156.621 136.062 157.392Z" fill="#01686F"/>
<path d="M127.526 158.333C129.424 160.232 132.271 161.42 134.939 161.362C137.547 161.364 140.57 160.24 142.347 158.345C144.183 156.39 145.545 153.723 145.365 150.937C145.244 148.209 144.293 145.482 142.335 143.524C140.437 141.625 137.59 140.437 134.923 140.495C132.314 140.493 129.292 141.617 127.515 143.512C125.678 145.467 124.317 148.134 124.497 150.92C124.617 153.648 125.509 156.316 127.526 158.333Z" fill="#01686F"/>
<path d="M129.359 152.822C131.673 155.136 135.227 151.581 132.914 149.268C130.659 147.013 127.105 150.567 129.359 152.822Z" fill="white"/>
<path d="M134.097 146.778C135.996 148.677 138.958 145.715 137.059 143.816C135.161 141.918 132.199 144.88 134.097 146.778Z" fill="white"/>
<path d="M133.157 158.16C134.581 159.584 136.832 157.333 135.408 155.909C133.925 154.545 131.733 156.736 133.157 158.16Z" fill="white"/>
</g>
</g>
</svg>
