<svg width="180" height="60" viewBox="0 0 180 60" fill="none" xmlns="http://www.w3.org/2000/svg">
<rect width="180" height="60" rx="8" fill="white"/>
<path d="M44.8008 29.2741C44.766 25.408 47.9672 23.5271 48.1136 23.4396C46.3006 20.797 43.4905 20.4359 42.5031 20.4071C40.143 20.1588 37.8536 21.819 36.6514 21.819C35.4251 21.819 33.5738 20.4311 31.5784 20.4719C29.0107 20.5115 26.6086 21.9977 25.2912 24.3056C22.5723 29.0114 24.6 35.9267 27.2049 39.7305C28.508 41.5945 30.0306 43.6733 32.0235 43.6002C33.9733 43.521 34.7016 42.3587 37.0545 42.3587C39.3858 42.3587 40.0698 43.6002 42.1023 43.5534C44.1949 43.521 45.5123 41.6821 46.7697 39.8024C48.2756 37.6685 48.8803 35.5645 48.9043 35.4565C48.8563 35.4397 44.8416 33.9067 44.8008 29.2741ZM40.9613 17.9049C42.0099 16.5938 42.7274 14.8101 42.5283 13C41.0104 13.0672 39.1123 14.0496 38.0192 15.3319C37.0521 16.4619 36.1882 18.3139 36.4114 20.0557C38.1164 20.1828 39.867 19.1956 40.9613 17.9049Z" fill="#292940"/>
<path d="M73.0419 43.3326H70.317L68.8244 38.6436H63.6362L62.2144 43.3326H59.5615L64.7029 27.3691H67.8777L73.0419 43.3326ZM68.3745 36.6763L67.0246 32.5079C66.8818 32.0821 66.6131 31.0793 66.2195 29.5007H66.1715C66.0131 30.1796 65.76 31.1824 65.4132 32.5079L64.0862 36.6763H68.3745ZM86.2379 37.4356C86.2379 39.3933 85.7063 40.9407 84.6421 42.0766C83.6894 43.0878 82.5051 43.5928 81.0929 43.5928C79.5679 43.5928 78.4712 43.0495 77.8053 41.9603V47.9999H75.2472V35.6051C75.2472 34.3756 75.2148 33.1149 75.1524 31.8218H77.4022L77.5449 33.6463H77.5929C78.446 32.2716 79.7407 31.5843 81.4781 31.5843C82.8363 31.5843 83.9702 32.1205 84.8772 33.1941C85.7831 34.2701 86.2379 35.6831 86.2379 37.4356ZM83.6318 37.5292C83.6318 36.4088 83.3798 35.4852 82.8735 34.7571C82.3204 34.0002 81.5776 33.6211 80.6466 33.6211C80.0154 33.6211 79.4419 33.8322 78.9296 34.2485C78.416 34.6683 78.0801 35.2165 77.9229 35.8954C77.8527 36.1493 77.8129 36.4106 77.8041 36.6739V38.5944C77.8041 39.4305 78.0609 40.137 78.5744 40.7152C79.088 41.2909 79.7551 41.58 80.5758 41.58C81.5393 41.58 82.2892 41.207 82.8255 40.4669C83.363 39.7243 83.6318 38.7455 83.6318 37.5292ZM99.4807 37.4356C99.4807 39.3933 98.9491 40.9407 97.8849 42.0766C96.931 43.0878 95.7479 43.5928 94.3345 43.5928C92.8095 43.5928 91.7128 43.0495 91.0469 41.9603V47.9999H88.4888V35.6051C88.4888 34.3756 88.4564 33.1149 88.394 31.8218H90.6437L90.7865 33.6463H90.8345C91.6864 32.2716 92.9811 31.5843 94.7197 31.5843C96.0767 31.5843 97.2106 32.1205 98.12 33.1941C99.0247 34.2701 99.4807 35.6831 99.4807 37.4356ZM96.8734 37.5292C96.8734 36.4088 96.6202 35.4852 96.1139 34.7571C95.5607 34.0002 94.8204 33.6211 93.8894 33.6211C93.2582 33.6211 92.6847 33.8322 92.17 34.2485C91.6564 34.6683 91.3217 35.2165 91.1645 35.8954C91.0865 36.2121 91.0445 36.47 91.0445 36.6739V38.5944C91.0445 39.4305 91.3025 40.137 91.8136 40.7152C92.3271 41.2897 92.9943 41.58 93.8174 41.58C94.782 41.58 95.532 41.207 96.0671 40.4669C96.6046 39.7243 96.8734 38.7455 96.8734 37.5292ZM114.287 38.8547C114.287 40.2138 113.812 41.3185 112.867 42.1714C111.828 43.1022 110.378 43.5689 108.518 43.5689C106.8 43.5689 105.422 43.2378 104.383 42.5744L104.975 40.4429C106.097 41.1074 107.329 41.4385 108.67 41.4385C109.635 41.4385 110.385 41.2202 110.92 40.7871C111.456 40.3529 111.728 39.7723 111.728 39.0478C111.728 38.3989 111.503 37.8555 111.063 37.4128C110.62 36.9714 109.888 36.56 108.86 36.1821C106.064 35.1397 104.665 33.6151 104.665 31.6095C104.665 30.2996 105.16 29.2272 106.146 28.3887C107.132 27.5514 108.44 27.1328 110.067 27.1328C111.52 27.1328 112.731 27.3859 113.692 27.8909L113.05 29.9757C112.145 29.4863 111.124 29.2416 109.982 29.2416C109.08 29.2416 108.372 29.4635 107.865 29.9049C107.439 30.2996 107.223 30.7806 107.223 31.3516C107.223 31.9813 107.469 32.5043 107.959 32.9146C108.384 33.2924 109.159 33.7039 110.279 34.1453C111.654 34.6995 112.665 35.3448 113.311 36.0862C113.963 36.8275 114.287 37.7523 114.287 38.8547ZM122.766 33.7411H119.947V39.3297C119.947 40.7511 120.443 41.4601 121.439 41.4601C121.896 41.4601 122.276 41.4217 122.575 41.3413L122.646 43.2834C122.142 43.4717 121.479 43.5665 120.657 43.5665C119.647 43.5665 118.857 43.2582 118.287 42.6416C117.72 42.0251 117.434 40.9923 117.434 39.5384V33.7363H115.754V31.817H117.434V29.7094L119.947 28.9513V31.817H122.766V33.7411ZM135.463 37.4824C135.463 39.2517 134.957 40.7044 133.946 41.8403C132.889 43.0099 131.483 43.5928 129.73 43.5928C128.038 43.5928 126.693 43.0327 125.69 41.9135C124.687 40.7919 124.186 39.3789 124.186 37.6743C124.186 35.8906 124.704 34.4296 125.737 33.2936C126.773 32.1565 128.167 31.5879 129.92 31.5879C131.609 31.5879 132.966 32.1493 133.993 33.2696C134.975 34.3564 135.463 35.7599 135.463 37.4824ZM132.811 37.5412C132.811 36.4868 132.583 35.5823 132.126 34.8254C131.59 33.9114 130.822 33.4544 129.827 33.4544C128.803 33.4544 128.017 33.9114 127.482 34.8254C127.023 35.5823 126.795 36.5024 126.795 37.5892C126.795 38.6448 127.023 39.5516 127.482 40.3061C128.035 41.2202 128.806 41.6772 129.806 41.6772C130.784 41.6772 131.55 41.2106 132.105 40.2833C132.575 39.5084 132.811 38.598 132.811 37.5412ZM143.782 34.0709C143.516 34.0229 143.246 33.9992 142.975 34.0002C142.075 34.0002 141.38 34.3384 140.89 35.0198C140.465 35.6195 140.252 36.3776 140.252 37.2929V43.3326H137.694V35.4468C137.696 34.2385 137.671 33.0302 137.619 31.823H139.847L139.941 34.0253H140.012C140.283 33.2684 140.708 32.6579 141.291 32.2009C141.825 31.8015 142.473 31.5852 143.14 31.5843C143.376 31.5843 143.59 31.6011 143.779 31.6311L143.782 34.0709ZM155.222 37.0326C155.229 37.4214 155.197 37.8098 155.129 38.1925H147.454C147.483 39.3297 147.855 40.2006 148.568 40.8003C149.215 41.3353 150.051 41.604 151.078 41.604C152.214 41.604 153.251 41.4241 154.183 41.0606L154.584 42.8347C153.495 43.3098 152.208 43.5461 150.724 43.5461C148.939 43.5461 147.537 43.0207 146.517 41.9723C145.5 40.9227 144.99 39.512 144.99 37.7451C144.99 36.0106 145.464 34.5651 146.413 33.4124C147.406 32.1817 148.749 31.5663 150.438 31.5663C152.098 31.5663 153.354 32.1817 154.207 33.4124C154.883 34.3876 155.222 35.5967 155.222 37.0326ZM152.783 36.3692C152.801 35.6099 152.633 34.9562 152.286 34.4032C151.844 33.6907 151.162 33.3356 150.249 33.3356C149.413 33.3356 148.731 33.6823 148.213 34.378C147.787 34.931 147.534 35.5955 147.456 36.3668L152.783 36.3692Z" fill="#292940"/>
<path d="M62.898 21.7252C62.1865 21.7252 61.5709 21.6904 61.0586 21.6317V13.9138C61.7752 13.8032 62.4993 13.7486 63.2243 13.7507C66.158 13.7507 67.509 15.1937 67.509 17.546C67.509 20.2594 65.9132 21.7252 62.898 21.7252ZM63.3275 14.7403C62.9316 14.7403 62.5944 14.7643 62.3148 14.8219V20.6888C62.466 20.7128 62.7564 20.7236 63.1643 20.7236C65.0865 20.7236 66.1808 19.6296 66.1808 17.5808C66.1808 15.7539 65.1909 14.7403 63.3275 14.7403ZM71.7193 21.784C70.0659 21.784 68.9944 20.5497 68.9944 18.8739C68.9944 17.1274 70.0887 15.8823 71.8129 15.8823C73.4423 15.8823 74.5378 17.0578 74.5378 18.7816C74.5378 20.5497 73.4087 21.784 71.7193 21.784ZM71.7673 16.8011C70.859 16.8011 70.2771 17.6504 70.2771 18.8379C70.2771 20.0027 70.871 20.852 71.7553 20.852C72.6396 20.852 73.2335 19.9439 73.2335 18.8139C73.2335 17.6624 72.6516 16.8011 71.7673 16.8011ZM83.9662 15.9986L82.1964 21.6556H81.0434L80.3102 19.199C80.128 18.5981 79.9762 17.9883 79.8555 17.3721H79.8315C79.7391 17.9887 79.5639 18.6064 79.378 19.199L78.5981 21.6556H77.433L75.7676 15.9986H77.0598L77.7006 18.688C77.8517 19.3285 77.9789 19.9331 78.0845 20.5041H78.1085C78.2009 20.0279 78.3521 19.4329 78.5741 18.7L79.378 15.9998H80.4026L81.1717 18.6424C81.3577 19.283 81.5089 19.9115 81.6265 20.5053H81.6601C81.7417 19.9235 81.8701 19.3058 82.044 18.6424L82.7316 15.9998L83.9662 15.9986ZM90.4814 21.6556H89.224V18.4073C89.224 17.4069 88.84 16.9055 88.0829 16.9055C87.3378 16.9055 86.8255 17.546 86.8255 18.2909V21.6556H85.568V17.6156C85.568 17.1154 85.556 16.5792 85.5212 15.9974H86.6275L86.6863 16.8707H86.7211C87.0594 16.2661 87.7457 15.8823 88.5148 15.8823C89.7027 15.8823 90.4826 16.7903 90.4826 18.2682L90.4814 21.6556ZM93.949 21.6556H92.6903V13.4028H93.949V21.6556ZM98.5336 21.784C96.8814 21.784 95.8088 20.5497 95.8088 18.8739C95.8088 17.1274 96.903 15.8823 98.626 15.8823C100.257 15.8823 101.351 17.0578 101.351 18.7816C101.352 20.5497 100.222 21.784 98.5336 21.784ZM98.5804 16.8011C97.6721 16.8011 97.0902 17.6504 97.0902 18.8379C97.0902 20.0027 97.6853 20.852 98.5672 20.852C99.4527 20.852 100.045 19.9439 100.045 18.8139C100.047 17.6624 99.4659 16.8011 98.5804 16.8011ZM106.309 21.6556L106.217 21.0043H106.184C105.8 21.5285 105.24 21.784 104.529 21.784C103.515 21.784 102.796 21.0739 102.796 20.119C102.796 18.7228 104.006 18.0007 106.102 18.0007V17.8963C106.102 17.1514 105.708 16.7783 104.928 16.7783C104.37 16.7783 103.88 16.9187 103.449 17.1982L103.194 16.3717C103.717 16.0454 104.37 15.8823 105.136 15.8823C106.615 15.8823 107.361 16.662 107.361 18.2226V20.3062C107.361 20.8771 107.386 21.3198 107.443 21.6568L106.309 21.6556ZM106.136 18.8379C104.739 18.8379 104.039 19.1762 104.039 19.9787C104.039 20.5725 104.4 20.8627 104.901 20.8627C105.541 20.8627 106.136 20.3745 106.136 19.7112V18.8379ZM113.467 21.6556L113.408 20.7476H113.373C113.012 21.4337 112.405 21.784 111.557 21.784C110.193 21.784 109.182 20.5845 109.182 18.8967C109.182 17.1274 110.23 15.8811 111.66 15.8811C112.417 15.8811 112.953 16.1366 113.256 16.65H113.281V13.4028H114.54V20.131C114.54 20.678 114.553 21.1902 114.586 21.6556H113.467ZM113.281 18.3269C113.281 17.5352 112.757 16.8599 111.956 16.8599C111.024 16.8599 110.454 17.6864 110.454 18.8499C110.454 19.9907 111.046 20.7716 111.931 20.7716C112.722 20.7716 113.281 20.0843 113.281 19.2698V18.3269ZM122.52 21.784C120.868 21.784 119.796 20.5497 119.796 18.8739C119.796 17.1274 120.891 15.8823 122.614 15.8823C124.244 15.8823 125.338 17.0578 125.338 18.7816C125.34 20.5497 124.211 21.784 122.52 21.784ZM122.567 16.8011C121.66 16.8011 121.078 17.6504 121.078 18.8379C121.078 20.0027 121.672 20.852 122.555 20.852C123.44 20.852 124.033 19.9439 124.033 18.8139C124.035 17.6624 123.453 16.8011 122.567 16.8011ZM132.101 21.6556H130.842V18.4073C130.842 17.4069 130.458 16.9055 129.701 16.9055C128.956 16.9055 128.445 17.546 128.445 18.2909V21.6556H127.186V17.6156C127.186 17.1154 127.174 16.5792 127.139 15.9974H128.246L128.304 16.8707H128.339C128.676 16.2661 129.364 15.8811 130.132 15.8811C131.32 15.8811 132.101 16.7891 132.101 18.267V21.6556ZM140.561 16.9415H139.177V19.6884C139.177 20.3877 139.42 20.7368 139.909 20.7368C140.131 20.7368 140.317 20.7128 140.467 20.678L140.502 21.6329C140.259 21.7264 139.932 21.7732 139.527 21.7732C138.536 21.7732 137.943 21.2262 137.943 19.794V16.9415H137.117V15.9986H137.943V14.9622L139.177 14.5892V15.9974H140.561V16.9415ZM147.218 21.6556H145.961V18.4313C145.961 17.4189 145.579 16.9067 144.82 16.9067C144.169 16.9067 143.562 17.3493 143.562 18.2454V21.6556H142.306V13.4028H143.562V16.8011H143.587C143.983 16.1846 144.556 15.8811 145.288 15.8811C146.486 15.8811 147.218 16.8119 147.218 18.2909V21.6556ZM154.038 19.1294H150.264C150.288 20.2006 150.997 20.8052 152.047 20.8052C152.605 20.8052 153.119 20.7116 153.572 20.5377L153.768 21.4109C153.233 21.6436 152.603 21.76 151.87 21.76C150.1 21.76 149.052 20.642 149.052 18.9087C149.052 17.1742 150.125 15.8703 151.728 15.8703C153.174 15.8703 154.081 16.9415 154.081 18.5596C154.089 18.7506 154.075 18.9419 154.038 19.1294ZM152.885 18.2334C152.885 17.3601 152.444 16.7435 151.64 16.7435C150.918 16.7435 150.347 17.3721 150.265 18.2334H152.885Z" fill="#696969"/>
</svg>
