<svg width="180" height="60" viewBox="0 0 180 60" fill="none" xmlns="http://www.w3.org/2000/svg">
<rect width="180" height="60" rx="8" fill="white"/>
<path fill-rule="evenodd" clip-rule="evenodd" d="M26.5336 13.4624C26.1948 13.8266 26 14.3871 26 15.1155V41.0247C26 41.7531 26.1948 42.3137 26.5463 42.6652L26.6381 42.7428L41.1556 28.2253V27.8991L26.6255 13.3848L26.5336 13.4624Z" fill="url(#paint0_linear_169_18135)"/>
<path fill-rule="evenodd" clip-rule="evenodd" d="M45.9849 33.0833L41.1426 28.2394V27.9006L45.9865 23.0566L46.091 23.1216L51.8201 26.3772C53.4606 27.302 53.4606 28.8253 51.8201 29.7627L46.091 33.0184C46.0894 33.0184 45.9849 33.0833 45.9849 33.0833Z" fill="url(#paint1_linear_169_18135)"/>
<path fill-rule="evenodd" clip-rule="evenodd" d="M46.0894 33.0187L41.1425 28.0703L26.5332 42.6797C27.0668 43.2529 27.9647 43.3178 28.9686 42.7572L46.0894 33.0187Z" fill="url(#paint2_linear_169_18135)"/>
<path fill-rule="evenodd" clip-rule="evenodd" d="M46.0894 23.1233L28.9686 13.3975C27.9663 12.8243 27.0668 12.9018 26.5332 13.4751L41.141 28.0702L46.0894 23.1233Z" fill="url(#paint3_linear_169_18135)"/>
<path opacity="0.2" fill-rule="evenodd" clip-rule="evenodd" d="M45.9849 32.9141L28.9813 42.575C28.0312 43.1213 27.184 43.0833 26.6377 42.5876L26.5459 42.6795L26.6377 42.7571C27.184 43.2511 28.0312 43.2907 28.9813 42.7444L46.1021 33.0186L45.9849 32.9141Z" fill="black"/>
<path opacity="0.12" fill-rule="evenodd" clip-rule="evenodd" d="M51.8189 29.5936L45.9727 32.9142L46.0772 33.0187L51.8063 29.7631C52.6265 29.2944 53.0303 28.6831 53.0303 28.0703C52.978 28.6309 52.5616 29.1645 51.8189 29.5936Z" fill="black"/>
<path opacity="0.25" fill-rule="evenodd" clip-rule="evenodd" d="M28.9691 13.5668L51.8189 26.5483C52.5616 26.9647 52.978 27.511 53.0429 28.0716C53.0429 27.4604 52.6392 26.8475 51.8189 26.3788L28.9691 13.3973C27.3286 12.4599 26 13.2406 26 15.1154V15.2849C26 13.41 27.3286 12.642 28.9691 13.5668Z" fill="white"/>
<path fill-rule="evenodd" clip-rule="evenodd" d="M58.8079 36.1145C58.8079 31.9641 62.2963 28.585 66.4466 28.585C68.7411 28.585 70.3737 29.486 71.6057 30.6593L70.1552 32.1098C69.2748 31.2832 68.0808 30.6419 66.4451 30.6419C63.4142 30.6419 61.0453 33.0821 61.0453 36.1129C61.0453 39.1437 63.4142 41.587 66.4435 41.587C68.4086 41.587 69.5265 40.7985 70.2439 40.0796C70.8313 39.4921 71.2161 38.6481 71.365 37.4905H66.4466V35.4383H73.3697C73.4425 35.8057 73.4805 36.2459 73.4805 36.7225C73.4805 38.2633 73.0577 40.1746 71.6975 41.5348C70.3737 42.9124 68.6857 43.6472 66.4451 43.6472C62.2931 43.6472 58.8047 40.2712 58.8047 36.1177L58.8079 36.1145ZM79.0766 33.9483C76.3957 33.9483 74.2074 35.9878 74.2074 38.7953C74.2074 41.5886 76.3942 43.6424 79.0766 43.6424C81.759 43.6424 83.9427 41.5855 83.9427 38.7938C83.9427 35.9862 81.7575 33.9467 79.0766 33.9483ZM79.0766 41.7359C77.6087 41.7359 76.3403 40.5245 76.3403 38.7969C76.3403 37.0519 77.6071 35.858 79.0766 35.858C80.5445 35.858 81.8113 37.0503 81.8113 38.7969C81.8113 40.5229 80.5461 41.7359 79.0766 41.7359ZM89.6939 33.9483C87.0131 33.9483 84.8279 35.9878 84.8279 38.7953C84.8279 41.5886 87.0131 43.6424 89.6939 43.6424C92.3748 43.6424 94.56 41.5855 94.56 38.7938C94.56 35.9862 92.3764 33.9467 89.6939 33.9483ZM89.6939 41.7359C88.226 41.7359 86.9577 40.5245 86.9577 38.7969C86.9577 37.0519 88.2245 35.858 89.6939 35.858C91.1618 35.858 92.4302 37.0503 92.4302 38.7969C92.4302 40.5229 91.1618 41.7359 89.6939 41.7359ZM102.725 34.2428V35.0314H102.652C102.175 34.4597 101.257 33.9467 100.101 33.9467C97.6764 33.9467 95.4515 36.0781 95.4515 38.8159C95.4515 41.5316 97.6748 43.6456 100.101 43.6456C101.257 43.6456 102.175 43.1325 102.652 42.5451H102.725V43.2418C102.725 45.0961 101.733 46.0889 100.136 46.0889C98.8307 46.0889 98.0231 45.1515 97.6922 44.3645L95.8363 45.1357C96.3684 46.4199 97.784 48.0002 100.134 48.0002C102.63 48.0002 104.742 46.5291 104.742 42.9489V34.2412L102.725 34.2428ZM100.283 41.7359C98.8149 41.7359 97.5813 40.5039 97.5813 38.8159C97.5813 37.1089 98.8133 35.8595 100.283 35.8595C101.733 35.8595 102.872 37.1073 102.872 38.8159C102.873 40.5039 101.735 41.7359 100.283 41.7359ZM106.213 29.0996H108.344V43.3511H106.213V29.0996ZM114.186 41.7359C113.103 41.7359 112.33 41.2387 111.838 40.268L118.32 37.584L118.097 37.0329C117.695 35.9514 116.463 33.9483 113.947 33.9483C111.45 33.9483 109.374 35.9134 109.374 38.7969C109.374 41.5126 111.431 43.644 114.186 43.644C116.409 43.644 117.695 42.287 118.227 41.4952L116.574 40.3947C116.021 41.2038 115.267 41.7375 114.186 41.7359ZM114.02 35.8215C114.864 35.8215 115.579 36.2443 115.818 36.8492L111.483 38.6497C111.429 36.7764 112.935 35.8215 114.02 35.8215Z" fill="#292940"/>
<path fill-rule="evenodd" clip-rule="evenodd" d="M127.484 29.0991H122.389V43.3506H124.515V37.9524H127.486C129.844 37.9524 132.162 36.2454 132.162 33.525C132.162 30.8093 129.845 29.1007 127.489 29.1007L127.484 29.0991ZM127.54 35.9683H124.515V31.0817H127.54C129.13 31.0817 130.035 32.4007 130.035 33.525C130.035 34.6303 129.13 35.9683 127.54 35.9683ZM135.46 43.3506V29.0991H133.334V43.3506H135.46ZM145.014 43.3252V37.8622C145.014 35.3318 143.123 33.9209 140.683 33.9209C139.145 33.9209 137.551 34.6002 136.89 36.1029L138.778 36.8899C139.182 36.1029 139.932 35.8448 140.722 35.8448C141.821 35.8448 142.939 36.5051 142.957 37.6801V37.8274C142.572 37.6072 141.748 37.2763 140.738 37.2763C138.703 37.2763 136.632 38.3942 136.632 40.4845C136.632 42.3926 138.301 43.6198 140.171 43.6198C141.603 43.6198 142.39 42.9785 142.884 42.2279H142.957V43.3284H145.012L145.014 43.3252ZM140.429 41.7323C139.733 41.7323 138.76 41.3839 138.76 40.524C138.76 39.4235 139.972 38.9991 141.017 38.9991C141.953 38.9991 142.391 39.2002 142.961 39.4758C142.798 40.7552 141.717 41.7164 140.429 41.7323ZM152.493 34.2328L150.054 40.41H149.981L147.451 34.2328H145.159L148.953 42.8692L146.789 47.6719H149.007L154.855 34.2328H152.493Z" fill="#292940"/>
<path d="M60.51 23.3756C59.8504 23.3756 59.2797 23.3433 58.8047 23.2888V16.1334C59.469 16.0308 60.1404 15.9803 60.8126 15.9822C63.5325 15.9822 64.785 17.3201 64.785 19.5009C64.785 22.0166 63.3055 23.3756 60.51 23.3756ZM60.9083 16.8997C60.5412 16.8997 60.2286 16.9219 59.9694 16.9753V22.4147C60.1095 22.4369 60.3788 22.4469 60.757 22.4469C62.5391 22.4469 63.5536 21.4327 63.5536 19.5332C63.5536 17.8394 62.6358 16.8997 60.9083 16.8997ZM68.6885 23.4301C67.1556 23.4301 66.1622 22.2857 66.1622 20.7321C66.1622 19.1128 67.1767 17.9584 68.7753 17.9584C70.2859 17.9584 71.3016 19.0483 71.3016 20.6464C71.3016 22.2857 70.2548 23.4301 68.6885 23.4301ZM68.733 18.8103C67.8909 18.8103 67.3514 19.5977 67.3514 20.6987C67.3514 21.7786 67.902 22.5659 68.7219 22.5659C69.5417 22.5659 70.0924 21.7241 70.0924 20.6764C70.0924 19.6088 69.5528 18.8103 68.733 18.8103ZM80.0429 18.0663L78.4021 23.3111H77.3331L76.6534 21.0334C76.4844 20.4763 76.3437 19.911 76.2318 19.3397H76.2095C76.1239 19.9113 75.9615 20.484 75.789 21.0334L75.066 23.3111H73.9858L72.4418 18.0663H73.6399L74.2339 20.5597C74.374 21.1535 74.492 21.7141 74.5899 22.2434H74.6121C74.6978 21.8019 74.8379 21.2503 75.0437 20.5708L75.789 18.0674H76.739L77.4521 20.5174C77.6245 21.1113 77.7647 21.694 77.8737 22.2445H77.9049C77.9805 21.7052 78.0995 21.1324 78.2608 20.5174L78.8982 18.0674L80.0429 18.0663ZM86.0833 23.3111H84.9175V20.2994C84.9175 19.3719 84.5615 18.9071 83.8596 18.9071C83.1688 18.9071 82.6938 19.5009 82.6938 20.1916V23.3111H81.528V19.5654C81.528 19.1017 81.5169 18.6046 81.4846 18.0652H82.5103L82.5648 18.8748H82.597C82.9107 18.3143 83.547 17.9584 84.2601 17.9584C85.3614 17.9584 86.0844 18.8003 86.0844 20.1704L86.0833 23.3111ZM89.2982 23.3111H88.1313V15.6597H89.2982V23.3111ZM93.5487 23.4301C92.017 23.4301 91.0224 22.2857 91.0224 20.7321C91.0224 19.1128 92.037 17.9584 93.6344 17.9584C95.1462 17.9584 96.1607 19.0483 96.1607 20.6464C96.1618 22.2857 95.1139 23.4301 93.5487 23.4301ZM93.5921 18.8103C92.75 18.8103 92.2105 19.5977 92.2105 20.6987C92.2105 21.7786 92.7623 22.5659 93.5799 22.5659C94.4009 22.5659 94.9504 21.7241 94.9504 20.6764C94.9515 19.6088 94.4131 18.8103 93.5921 18.8103ZM100.757 23.3111L100.673 22.7072H100.642C100.286 23.1932 99.766 23.4301 99.1075 23.4301C98.1675 23.4301 97.5 22.7717 97.5 21.8864C97.5 20.5919 98.6225 19.9224 100.566 19.9224V19.8257C100.566 19.135 100.2 18.7892 99.4768 18.7892C98.9595 18.7892 98.5057 18.9193 98.1063 19.1784L97.8694 18.4122C98.3544 18.1097 98.9595 17.9584 99.6704 17.9584C101.041 17.9584 101.733 18.6813 101.733 20.1282V22.0599C101.733 22.5893 101.756 22.9997 101.808 23.3122L100.757 23.3111ZM100.597 20.6987C99.3022 20.6987 98.6525 21.0123 98.6525 21.7563C98.6525 22.3068 98.9873 22.5759 99.4523 22.5759C100.045 22.5759 100.597 22.1233 100.597 21.5083V20.6987ZM107.394 23.3111L107.339 22.4692H107.307C106.972 23.1053 106.409 23.4301 105.623 23.4301C104.358 23.4301 103.421 22.3179 103.421 20.7532C103.421 19.1128 104.393 17.9573 105.719 17.9573C106.42 17.9573 106.918 18.1942 107.198 18.6702H107.221V15.6597H108.388V21.8976C108.388 22.4047 108.401 22.8796 108.432 23.3111H107.394ZM107.221 20.2249C107.221 19.4909 106.735 18.8648 105.993 18.8648C105.129 18.8648 104.601 19.6311 104.601 20.7098C104.601 21.7674 105.149 22.4914 105.97 22.4914C106.703 22.4914 107.221 21.8542 107.221 21.0991V20.2249ZM115.787 23.4301C114.255 23.4301 113.262 22.2857 113.262 20.7321C113.262 19.1128 114.276 17.9584 115.874 17.9584C117.386 17.9584 118.4 19.0483 118.4 20.6464C118.401 22.2857 117.354 23.4301 115.787 23.4301ZM115.83 18.8103C114.989 18.8103 114.45 19.5977 114.45 20.6987C114.45 21.7786 115.001 22.5659 115.819 22.5659C116.64 22.5659 117.19 21.7241 117.19 20.6764C117.192 19.6088 116.652 18.8103 115.83 18.8103ZM124.67 23.3111H123.503V20.2994C123.503 19.3719 123.147 18.9071 122.445 18.9071C121.754 18.9071 121.28 19.5009 121.28 20.1916V23.3111H120.113V19.5654C120.113 19.1017 120.102 18.6046 120.07 18.0652H121.095L121.15 18.8748H121.182C121.495 18.3143 122.132 17.9573 122.844 17.9573C123.945 17.9573 124.67 18.7992 124.67 20.1693V23.3111ZM132.513 18.9404H131.231V21.4872C131.231 22.1355 131.455 22.4592 131.909 22.4592C132.115 22.4592 132.287 22.4369 132.427 22.4047L132.459 23.2899C132.233 23.3767 131.93 23.42 131.554 23.42C130.636 23.42 130.086 22.9129 130.086 21.585V18.9404H129.321V18.0663H130.086V17.1054L131.231 16.7596V18.0652H132.513V18.9404ZM138.685 23.3111H137.52V20.3217C137.52 19.383 137.165 18.9082 136.462 18.9082C135.858 18.9082 135.295 19.3185 135.295 20.1493V23.3111H134.131V15.6597H135.295V18.8103H135.319C135.686 18.2387 136.218 17.9573 136.896 17.9573C138.006 17.9573 138.685 18.8203 138.685 20.1916V23.3111ZM145.008 20.9689H141.509C141.532 21.9621 142.189 22.5226 143.162 22.5226C143.68 22.5226 144.156 22.4358 144.576 22.2746L144.758 23.0842C144.262 23.2999 143.678 23.4078 142.998 23.4078C141.357 23.4078 140.386 22.3713 140.386 20.7643C140.386 19.1562 141.38 17.9473 142.867 17.9473C144.207 17.9473 145.048 18.9404 145.048 20.4407C145.056 20.6177 145.042 20.795 145.008 20.9689ZM143.939 20.1382C143.939 19.3286 143.531 18.7569 142.785 18.7569C142.116 18.7569 141.586 19.3397 141.511 20.1382H143.939Z" fill="#696969"/>
<defs>
<linearGradient id="paint0_linear_169_18135" x1="39.852" y1="14.837" x2="16.5975" y2="21.0332" gradientUnits="userSpaceOnUse">
<stop stop-color="#00A0FF"/>
<stop offset="0.007" stop-color="#00A1FF"/>
<stop offset="0.26" stop-color="#00BEFF"/>
<stop offset="0.512" stop-color="#00D2FF"/>
<stop offset="0.76" stop-color="#00DFFF"/>
<stop offset="1" stop-color="#00E3FF"/>
</linearGradient>
<linearGradient id="paint1_linear_169_18135" x1="53.9548" y1="28.0707" x2="25.6009" y2="28.0707" gradientUnits="userSpaceOnUse">
<stop stop-color="#FFE000"/>
<stop offset="0.409" stop-color="#FFBD00"/>
<stop offset="0.775" stop-color="#FFA500"/>
<stop offset="1" stop-color="#FF9C00"/>
</linearGradient>
<linearGradient id="paint2_linear_169_18135" x1="43.3994" y1="30.7623" x2="24.7306" y2="62.1831" gradientUnits="userSpaceOnUse">
<stop stop-color="#FF3A44"/>
<stop offset="1" stop-color="#C31162"/>
</linearGradient>
<linearGradient id="paint3_linear_169_18135" x1="22.8557" y1="4.84376" x2="31.1844" y2="18.8768" gradientUnits="userSpaceOnUse">
<stop stop-color="#32A071"/>
<stop offset="0.069" stop-color="#2DA771"/>
<stop offset="0.476" stop-color="#15CF74"/>
<stop offset="0.801" stop-color="#06E775"/>
<stop offset="1" stop-color="#00F076"/>
</linearGradient>
</defs>
</svg>
