<svg width="255" height="113" viewBox="0 0 255 113" fill="none" xmlns="http://www.w3.org/2000/svg">
<g opacity="0.16">
<mask id="mask0_408_691" style="mask-type:alpha" maskUnits="userSpaceOnUse" x="0" y="0" width="255" height="113">
<rect width="254.448" height="113" transform="matrix(1 0 0 -1 0.0361328 113)" fill="#D9D9D9"/>
</mask>
<g mask="url(#mask0_408_691)">
<path d="M20.996 28.2457C23.8178 20.5001 14.1172 15.5296 9.14142 12.7679C11.1484 18.398 14.4608 26.4405 20.996 28.2457Z" fill="#002C2F"/>
<path d="M21.4983 28.346C24.2699 20.349 15.0218 15.4285 9.34243 12.2651C8.94033 12.0643 8.38695 12.4167 8.53745 12.8691C10.7451 19.0018 13.907 26.6925 20.794 28.7488C21.4476 28.8991 21.75 27.8933 21.0462 27.6927C14.5613 25.8372 11.6508 18.2972 9.54332 12.5667C9.24147 12.768 9.04019 12.9693 8.73834 13.1707C13.9654 16.083 22.9121 20.6015 20.3923 28.0451C20.241 28.6989 21.2464 28.9998 21.4983 28.346Z" fill="#01686F"/>
<path d="M28.2806 36.6375C23.8585 33.0206 15.4138 29.6079 10.5828 34.7404C13.9983 39.5648 23.8532 39.9595 28.582 36.939" fill="#002C2F"/>
<path d="M28.683 36.2345C23.8589 32.3162 15.3136 29.0042 10.231 34.2877C10.0801 34.4387 9.97927 34.7404 10.1802 34.9414C12.2397 37.7053 15.6579 38.9095 18.926 39.2589C22.2444 39.5581 25.9655 39.153 28.8833 37.3406C29.4366 36.9882 28.9345 36.0835 28.3811 36.4359C25.7652 38.0469 22.396 38.502 19.3793 38.2026C16.4129 37.9535 12.9945 36.9505 11.136 34.3876C11.1359 34.5887 11.0854 34.8401 11.0852 35.0413C15.7149 30.2107 23.6067 33.3724 28.0287 36.9892C28.4809 37.4414 29.2357 36.6866 28.683 36.2345Z" fill="#01686F"/>
<path d="M36.4719 41.5083C40.5991 36.2758 36.7864 24.915 30.7036 23.2604C30.3974 29.0933 30.5433 35.479 36.0698 41.408" fill="#002C2F"/>
<path d="M36.824 41.8597C39.2399 38.7404 39.0421 34.4163 37.8883 30.8472C36.7848 27.4289 34.4243 23.7601 30.7546 22.707C30.453 22.6067 30.1008 22.8584 30.0502 23.2104C29.897 26.2777 29.8946 29.3951 30.5962 32.5121C31.398 36.0312 33.1555 39.097 35.567 41.7098C36.0695 42.2123 36.8243 41.4575 36.3218 40.955C33.9606 38.3925 32.3035 35.4271 31.552 31.9583C30.9005 29.0927 30.9531 26.126 31.1062 23.1593C30.8547 23.3103 30.6534 23.5116 30.4019 23.6626C33.6695 24.6155 35.7284 27.9828 36.782 31.0492C37.7852 34.1659 38.1341 38.2384 35.9698 41.0056C35.6677 41.6092 36.4213 42.3629 36.824 41.8597Z" fill="#01686F"/>
<path d="M42.655 44.6712C36.4728 41.5082 29.7834 43.9771 26.0584 49.4104C31.7367 53.9817 39.8359 49.0981 43.0574 44.5703" fill="#002C2F"/>
<path d="M42.957 44.1681C39.9412 42.6619 36.5224 42.2623 33.3036 43.2704C30.1351 44.2282 27.4685 46.3924 25.606 49.0587C25.5053 49.2599 25.505 49.5616 25.6558 49.7124C31.4849 54.3338 39.7345 50.0032 43.5097 44.7207C43.9124 44.117 42.9574 43.6652 42.605 44.2186C39.2325 48.8974 31.6367 53.0766 26.4106 48.9575C26.4104 49.1587 26.4605 49.41 26.4604 49.6112C28.1718 47.1963 30.5869 45.1832 33.5039 44.2759C36.4713 43.3182 39.5884 43.7181 42.3529 45.0736C43.0063 45.4251 43.5601 44.4693 42.957 44.1681Z" fill="#01686F"/>
<path d="M50.5477 45.922C53.3168 41.2437 51.2613 33.4515 45.6824 30.2881C42.7102 37.4807 45.6739 41.3501 50.246 45.9222" fill="#002C2F"/>
<path d="M51 46.1736C54.1721 40.5899 51.2616 32.9493 45.9341 29.8359C45.6326 29.635 45.2804 29.8867 45.1796 30.1885C44.021 33.0554 43.5157 36.2738 44.6699 39.2396C45.7237 42.0043 47.8338 44.2151 49.8938 46.275C50.3962 46.7775 51.151 46.0227 50.6486 45.5202C48.7393 43.611 46.6794 41.551 45.6757 38.9371C44.5717 36.1222 45.1271 33.1551 46.2354 30.4391C45.9838 30.5901 45.7324 30.6406 45.4809 30.7916C50.3058 33.6037 53.0156 40.6411 50.0954 45.6715C49.743 46.2249 50.6979 46.7772 51 46.1736Z" fill="#01686F"/>
<path d="M57.4856 47.5259C52.4078 46.5744 42.2968 52.264 41.0359 57.3435C49.6336 57.8899 52.6533 54.2673 57.6359 48.1794" fill="#002C2F"/>
<path d="M57.5864 47.0229C54.1677 46.4222 50.3953 47.9838 47.4777 49.6956C44.6103 51.3571 41.3401 53.8234 40.4324 57.2433C40.3819 57.5953 40.5828 57.8969 40.9347 57.9469C44.3537 58.1454 47.8235 57.6902 50.7412 55.8778C53.6087 54.0151 55.773 51.248 57.9371 48.6819C58.39 48.1285 57.6364 47.3749 57.1834 47.9283C55.12 50.3937 53.1569 53.0601 50.4403 54.8724C47.5728 56.735 44.2539 57.1398 40.9355 56.9412C41.0861 57.1925 41.2871 57.3935 41.4377 57.6448C42.1943 54.577 45.3638 52.3119 47.9796 50.8014C50.6458 49.2406 54.1164 47.6793 57.2838 48.2299C58.038 48.1791 58.2902 47.1229 57.5864 47.0229Z" fill="#01686F"/>
<path d="M66.031 50.3352C68.8009 44.5507 62.9742 36.8118 58.1491 34.2008C57.1387 40.4365 60.5029 46.5181 65.4781 50.0843" fill="#002C2F"/>
<path d="M66.4836 50.5862C67.9442 47.4174 67.1424 43.8982 65.4854 40.9329C63.8283 37.9675 61.3666 35.3045 58.4012 33.6475C58.1499 33.4968 57.6973 33.648 57.6467 34C56.6864 40.4871 60.0002 46.7195 65.1763 50.4867C65.7291 50.9388 66.2327 49.9328 65.6798 49.5812C60.9057 46.1154 57.7425 40.2349 58.6019 34.2507C58.3504 34.4017 58.0989 34.4522 57.8474 34.6033C60.5614 36.1096 62.8223 38.4711 64.3288 41.0846C65.8854 43.7484 66.8885 47.0662 65.5286 50.0339C65.2767 50.6877 66.1814 51.1899 66.4836 50.5862Z" fill="#01686F"/>
<path d="M73.1172 55.7098C68.2442 50.0317 58.7366 55.7208 55.5653 60.2989C61.094 63.3115 69.4929 60.9419 73.1172 55.7098Z" fill="#002C2F"/>
<path d="M73.4696 55.3577C69.2999 50.5841 62.2582 53.5058 58.1326 56.8276C56.9753 57.7839 55.9186 58.8406 55.0126 60.048C54.8616 60.2996 55.0121 60.6514 55.2132 60.7518C61.2445 63.9652 69.6435 61.495 73.4692 55.961C73.8216 55.4077 72.9169 54.9055 72.5645 55.4589C69.0409 60.4898 61.2455 62.7585 55.7167 59.8464C55.7668 60.0977 55.8672 60.2988 55.9173 60.5502C59.1388 56.0223 67.9422 50.736 72.6646 56.0622C73.167 56.5646 73.9218 55.8098 73.4696 55.3577Z" fill="#01686F"/>
<path d="M77.9404 61.3377C81.5649 55.8039 79.9131 46.1008 74.0829 42.7867C72.1669 49.727 74.0736 54.9549 77.5389 60.3324" fill="#002C2F"/>
<path d="M78.3924 61.5885C82.168 55.7026 80.5665 45.9492 74.3343 42.3337C74.0328 42.1328 73.6304 42.3342 73.5799 42.6862C72.7729 45.8043 72.519 49.0728 73.2708 52.24C73.9724 55.2564 75.4285 58.0208 77.0857 60.6844C77.4373 61.2373 78.3428 60.7337 77.9912 60.1809C76.4344 57.7183 75.0285 55.1047 74.3268 52.1889C73.5749 49.1223 73.7784 46.0047 74.5853 42.9871C74.3337 43.1382 74.0823 43.1887 73.8308 43.3397C79.5603 46.6539 80.911 55.7539 77.4876 61.1869C77.085 61.6901 77.9897 62.1922 78.3924 61.5885Z" fill="#01686F"/>
<path d="M81.8049 69.9331C78.088 64.8072 70.4976 61.947 64.913 66.3258C69.4847 71.4007 75.7191 72.0999 81.7544 70.1845" fill="#002C2F"/>
<path d="M82.2575 69.6812C78.1889 64.2036 70.2967 61.4442 64.5611 65.974C64.3096 66.125 64.4099 66.5272 64.5605 66.7785C66.7208 69.1401 69.485 70.8978 72.7026 71.4987C75.8196 72.0997 78.9876 71.7453 81.955 70.7877C82.6088 70.5357 82.3581 69.5806 81.7044 69.7319C78.8879 70.6392 75.8707 71.0437 72.9548 70.4426C69.9383 69.8415 67.3751 68.2848 65.3153 66.0237C65.3152 66.2248 65.3149 66.5265 65.3147 66.8282C70.4969 62.7514 77.7354 65.461 81.352 70.2853C81.7036 70.7376 82.6594 70.1837 82.2575 69.6812Z" fill="#01686F"/>
<path d="M84.5656 75.7133C84.3195 68.8249 86.3865 61.7336 92.0714 57.7569C95.7881 63.1845 91.9085 73.3947 85.4212 74.6568" fill="#002C2F"/>
<path d="M85.0687 75.7129C84.8726 69.1764 86.7384 62.1858 92.2725 58.159C92.0211 58.1089 91.82 58.0085 91.5687 57.9584C95.1346 63.2352 91.6579 72.7412 85.2208 74.0534C84.567 74.2048 84.8176 75.2605 85.4714 75.1092C92.4617 73.6456 96.3916 63.2845 92.4741 57.4549C92.3235 57.2036 91.9716 57.053 91.7703 57.2543C85.9344 61.4824 83.817 68.7246 84.0128 75.6634C84.0625 76.4176 85.0681 76.4168 85.0687 75.7129Z" fill="#01686F"/>
<path d="M96.472 90.0343C91.3967 85.8648 88.032 80.4872 85.271 74.6064C82.761 69.2784 80.7541 63.6484 77.3386 58.824C73.471 53.4468 68.0434 49.8307 61.7093 47.9248C57.9391 46.7713 53.9672 46.2212 50.1465 45.3191C46.7782 44.5674 43.4101 43.6147 40.1427 42.3601C36.6743 41.0052 33.3068 39.1473 30.3923 36.8366C26.9752 34.124 24.0614 30.8077 21.4998 27.2396C20.8468 26.2848 19.3377 27.191 19.9404 28.0956C24.2096 34.1764 29.4853 39.3514 36.2206 42.5643C42.6542 45.6768 49.7429 47.1295 56.6807 48.5321C60.5015 49.3337 64.2216 50.3364 67.589 52.2948C70.303 53.8012 72.715 55.8106 74.7244 58.2226C78.492 62.7954 80.6499 68.375 83.0091 73.6528C85.9706 80.338 89.5861 86.5702 95.2643 91.242C96.1185 91.9956 97.3765 90.7376 96.472 90.0343Z" fill="#01686F"/>
<path d="M27.4266 36.2853C25.113 37.0916 22.3987 35.8869 20.1869 35.1847C17.3215 34.2315 14.2043 33.9323 11.187 34.4374C10.5835 34.5384 10.8343 35.393 11.4378 35.292C14.5054 34.7365 17.6225 35.237 20.538 36.2404C22.7499 36.9426 25.3638 37.9462 27.6774 37.1399C28.1804 36.9384 27.9296 36.0838 27.4266 36.2853Z" fill="#01686F"/>
<path d="M41.952 44.37C39.3366 45.3777 36.5707 45.9329 33.9554 46.7394C31.491 47.4956 29.0264 48.5534 26.5118 49.1587C25.9586 49.31 26.2093 50.1646 26.7626 50.0133C29.3274 49.3577 31.7417 48.3502 34.2061 47.594C36.922 46.7874 39.5873 46.2323 42.2028 45.2247C42.7057 45.0231 42.455 44.1685 41.952 44.37Z" fill="#01686F"/>
<path d="M20.9477 26.8881C19.089 24.6269 17.8842 22.0132 16.1262 19.6513C14.4184 17.3396 12.1572 15.3804 10.1474 13.3706C9.7455 12.9687 9.09134 13.6228 9.5436 13.9745C11.6538 16.0847 14.0155 18.1444 15.7735 20.6069C17.3305 22.8684 18.5856 25.3312 20.3438 27.492C20.6451 27.9946 21.2993 27.3404 20.9477 26.8881Z" fill="#01686F"/>
<path d="M56.0782 47.527C54.015 49.6907 51.1479 50.95 48.6828 52.6112C46.4693 54.1213 44.2556 55.8326 41.6402 56.7397C41.1372 56.9412 41.2874 57.7959 41.891 57.5943C44.5566 56.6369 46.8206 54.9759 49.1348 53.3651C51.6502 51.6535 54.6178 50.3942 56.7817 48.1299C57.0837 47.7274 56.4305 47.0742 56.0782 47.527Z" fill="#01686F"/>
<path d="M72.2134 55.2074C66.4806 56.0163 61.3491 59.6405 55.5665 59.7958C54.9632 59.7963 54.9625 60.7014 55.5659 60.7009C61.449 60.5455 66.681 56.9212 72.4641 56.062C73.0173 56.0113 72.7665 55.1567 72.2134 55.2074Z" fill="#01686F"/>
<path d="M66.1327 49.6312C64.578 44.3528 61.967 39.5277 58.9033 34.9544C58.602 34.4519 57.8475 34.905 58.1488 35.4076C61.1622 39.9306 63.7229 44.7054 65.2777 49.8833C65.4281 50.4362 66.2831 50.1842 66.1327 49.6312Z" fill="#01686F"/>
<path d="M50.5999 45.1676C50.453 39.9887 48.2945 35.3142 46.2365 30.6395C45.9855 30.0866 45.2309 30.5397 45.4819 31.0926C47.4897 35.6165 49.5981 40.1402 49.7451 45.118C49.7446 45.7214 50.6497 45.7207 50.5999 45.1676Z" fill="#01686F"/>
<path d="M36.5247 40.452C36.5291 34.6193 34.5224 28.6876 31.4087 23.7623C31.1074 23.2597 30.3529 23.7129 30.6542 24.2154C33.7177 28.9899 35.6239 34.8211 35.6698 40.5029C35.6191 41.0561 36.5242 41.0554 36.5247 40.452Z" fill="#01686F"/>
<path d="M81.3539 69.2796C76.478 67.4229 71.3002 65.8682 66.0709 65.8722C65.4675 65.8727 65.4668 66.7777 66.0702 66.7773C71.2492 66.8236 76.3768 68.3281 81.1521 70.1849C81.6548 70.3856 81.9069 69.5306 81.3539 69.2796Z" fill="#01686F"/>
<path d="M78.4441 59.8285C78.7981 57.2638 78.0961 54.6497 77.4444 52.1864C77.0934 50.8291 76.7927 49.522 76.3915 48.215C75.9401 46.7571 75.3881 45.2994 74.8361 43.8416C74.6354 43.339 73.7302 43.5408 73.9811 44.0937C74.483 45.4006 75.035 46.7578 75.4865 48.1151C75.8878 49.4221 76.1884 50.7292 76.5394 52.0865C77.1409 54.4996 77.9434 57.1136 77.6398 59.628C77.5388 60.1309 78.3934 60.3816 78.4441 59.8285Z" fill="#01686F"/>
<path d="M91.5188 58.4109C90.7602 64.0933 87.5385 68.8223 84.8195 73.752C84.5174 74.255 85.3216 74.6567 85.5734 74.2039C88.2924 69.2742 91.5644 64.3944 92.323 58.7119C92.4744 58.0582 91.6198 57.8074 91.5188 58.4109Z" fill="#01686F"/>
<path d="M235.709 16.3149C242.747 17.8179 247.031 4.99276 248.141 0.26541C242.91 2.18014 234.206 9.77939 235.709 16.3149Z" fill="#002C2F"/>
<path d="M235.609 16.8175C239.63 17.6189 242.6 14.3483 244.412 11.2294C246.426 7.90925 247.787 4.13707 248.694 0.415518C248.745 0.0635058 248.393 -0.38876 248.041 -0.237644C244.521 1.07239 241.351 3.53863 238.885 6.40659C236.469 9.12367 234.355 12.7456 235.207 16.5161C235.357 17.1696 236.413 16.9174 236.263 16.2638C235.511 12.795 237.726 9.37411 239.94 6.85832C242.205 4.29221 245.123 1.977 248.342 0.767761C248.141 0.566788 247.89 0.315572 247.689 0.114599C246.882 3.53438 245.622 6.90424 243.961 9.9727C242.349 12.8903 239.682 16.5629 235.911 15.8116C235.157 15.6613 234.905 16.7174 235.609 16.8175Z" fill="#01686F"/>
<path d="M222.58 23.3139C226.046 28.3897 235.748 31.4494 240.026 26.066C237.263 23.3026 227.559 21.6508 223.737 22.7599" fill="#002C2F"/>
<path d="M222.078 23.616C225.694 28.9431 235.597 32.3044 240.328 26.468C240.529 26.2667 240.58 25.9147 240.328 25.6635C238.268 23.7041 235.051 22.9021 232.336 22.4013C229.521 21.9007 226.303 21.4003 223.487 22.207C222.833 22.3584 223.083 23.4141 223.737 23.2627C226.352 22.5568 229.419 23.007 232.033 23.5078C233.542 23.8083 235 24.1592 236.457 24.7111C237.563 25.1125 238.719 25.6648 239.523 26.4686C239.523 26.2675 239.524 25.9658 239.524 25.6641C235.296 30.8967 226.298 27.8364 222.933 23.0622C222.682 22.5093 221.726 23.0632 222.078 23.616Z" fill="#01686F"/>
<path d="M219.112 22.9646C224.344 19.9436 231.291 9.17799 225.211 3.90307C219.373 10.2431 217.46 13.8648 219.917 22.1594" fill="#002C2F"/>
<path d="M219.363 23.4172C222.029 21.8564 224.143 19.3407 225.703 16.7751C227.314 14.1592 228.524 10.9402 228.023 7.82312C227.723 6.11377 226.919 4.60593 225.613 3.50074C225.412 3.29976 225.06 3.24975 224.808 3.50136C222.443 6.06755 220.028 8.78462 218.919 12.1041C217.81 15.4235 218.411 18.9428 219.364 22.2104C219.514 22.8639 220.57 22.6117 220.42 21.9582C219.517 18.8414 218.916 15.5232 219.924 12.405C220.983 9.23643 223.348 6.67024 225.562 4.25501C225.361 4.25516 225.059 4.25539 224.758 4.25562C227.722 6.91828 227.216 10.9412 225.756 14.2107C224.245 17.4299 221.829 20.6498 218.81 22.4622C218.257 22.8146 218.809 23.7696 219.363 23.4172Z" fill="#01686F"/>
<path d="M207.092 26.6444C212.927 23.3213 221.015 32.0138 222.721 36.739C217.342 35.4861 208.192 33.5824 206.136 27.0976" fill="#002C2F"/>
<path d="M207.393 27.1472C210.462 25.4855 213.93 27.3433 216.342 29.2522C218.754 31.2616 221.165 33.8744 222.219 36.8402C222.42 36.6389 222.672 36.3873 222.873 36.186C219.756 35.4845 216.639 34.7829 213.724 33.4778C210.708 32.1728 207.793 30.1638 206.639 26.8964C206.388 26.2429 205.382 26.5454 205.583 27.1486C207.891 33.9851 216.337 35.7888 222.57 37.1919C222.922 37.2419 223.325 36.9399 223.225 36.5377C222.02 33.2201 219.408 30.2051 216.594 28.0955C213.88 25.9857 210.11 24.3293 206.79 26.142C206.187 26.5447 206.739 27.4997 207.393 27.1472Z" fill="#01686F"/>
<path d="M201.96 29.8664C204.728 26.2943 208.149 24.1798 208.052 19.0511C207.903 16.3863 206.951 12.9176 204.89 11.1593C201.317 16.14 198.395 23.4834 202.514 28.7095" fill="#002C2F"/>
<path d="M202.362 30.2687C204.526 27.5015 207.545 25.1863 208.352 21.6659C208.806 19.8051 208.607 17.794 208.105 15.9842C207.604 14.0739 206.75 12.2141 205.243 10.908C204.992 10.6568 204.589 10.7576 204.438 11.0092C200.714 16.1408 197.842 23.635 202.111 29.213C202.563 29.7657 203.268 28.9607 202.866 28.4582C198.898 23.2822 201.971 16.1901 205.293 11.5616C205.041 11.6121 204.74 11.6123 204.488 11.6628C205.845 12.9188 206.648 14.7283 207.099 16.4878C207.55 18.2474 207.7 20.1077 207.196 21.8176C206.288 24.9358 203.521 27.1001 201.558 29.5654C201.206 30.0182 201.909 30.8222 202.362 30.2687Z" fill="#01686F"/>
<path d="M196.976 37.3622C203.313 35.1449 211.758 38.0548 215.122 44.1363C208.736 44.996 199.082 45.2046 196.624 37.5133" fill="#002C2F"/>
<path d="M197.127 37.8146C203.464 35.6979 211.356 38.4573 214.62 44.3378C214.771 44.0862 214.821 43.8348 214.972 43.5833C208.737 44.3926 199.535 44.6511 197.077 37.3621C196.826 36.7086 195.82 37.0111 196.021 37.6143C198.679 45.6071 208.283 45.5494 215.223 44.639C215.575 44.5884 215.726 44.1358 215.575 43.8845C212.061 37.5517 203.666 34.5915 196.876 36.8594C196.172 37.0611 196.473 38.0665 197.127 37.8146Z" fill="#01686F"/>
<path d="M193.099 44.5556C193.656 39.5772 190.897 31.7857 182.753 29.479C182.899 35.9652 185.759 43.0528 192.143 45.21" fill="#002C2F"/>
<path d="M193.652 44.5049C194.006 41.4375 193.154 38.2704 191.597 35.6066C189.689 32.2895 186.523 30.0292 182.904 28.9258C182.602 28.8255 182.2 29.1275 182.199 29.4292C182.395 36.0662 185.306 43.3046 191.992 45.6627C192.645 45.9136 192.897 44.8575 192.244 44.6066C186.061 42.3486 183.401 35.4621 183.255 29.3781C183.004 29.5291 182.802 29.7304 182.551 29.8814C188.835 31.737 193.205 37.8178 192.496 44.4555C192.545 45.2097 193.551 45.2089 193.652 44.5049Z" fill="#01686F"/>
<path d="M190.478 53.5078C193.75 48.5273 204.86 50.6809 207.622 55.1539C200.883 57.7737 196.004 59.3362 190.628 53.6585" fill="#002C2F"/>
<path d="M190.93 53.7588C192.692 51.1931 196.463 50.9388 199.279 51.3389C202.094 51.739 205.563 52.8928 207.17 55.4057C207.321 55.1541 207.372 54.9027 207.523 54.6512C204.756 55.7092 201.789 56.9685 198.772 56.9709C195.705 57.0235 193.141 55.4667 191.031 53.2559C190.529 52.7535 189.774 53.5083 190.276 54.0107C192.487 56.322 195.251 57.9792 198.52 58.027C201.738 58.0245 204.856 56.8153 207.824 55.6566C208.125 55.5558 208.377 55.2036 208.176 54.9021C206.77 52.6908 204.206 51.4357 201.743 50.7839C199.079 50.0317 196.012 49.7827 193.396 50.7903C192.089 51.2941 190.881 52.0996 190.076 53.307C189.623 53.8604 190.528 54.3625 190.93 53.7588Z" fill="#01686F"/>
<path d="M187.303 62.8121C189.671 57.1284 183.292 47.7306 177.913 45.9749C178.965 52.0582 179.461 60.5051 186.046 63.5673" fill="#002C2F"/>
<path d="M187.806 62.9128C189.166 59.5429 187.711 55.5717 185.953 52.6064C184.145 49.5909 181.432 46.5761 178.014 45.3719C177.612 45.2717 177.31 45.6742 177.36 46.0261C178.511 52.5116 178.958 60.7072 185.793 63.92C186.397 64.2212 186.95 63.2654 186.297 63.0145C179.813 59.9523 179.517 51.9074 178.416 45.7739C178.215 45.9752 177.963 46.2268 177.762 46.4281C180.878 47.5319 183.34 50.396 184.997 53.1603C186.654 55.9245 188.009 59.4935 186.75 62.6622C186.498 63.316 187.554 63.5666 187.806 62.9128Z" fill="#01686F"/>
<path d="M182.721 71.5148C187.802 68.0414 195.394 68.1864 199.413 73.3121C195.791 75.2256 185.481 77.8984 183.524 72.6204" fill="#002C2F"/>
<path d="M182.972 71.9671C187.952 68.6949 195.142 68.7397 199.06 73.6643C199.111 73.4128 199.111 73.1111 199.162 72.8597C196.747 74.1689 193.83 74.8751 191.064 75.1286C188.651 75.3316 185.031 75.2338 184.027 72.5194C183.776 71.8659 182.77 72.1683 182.971 72.7716C184.928 77.748 192.27 76.3344 196.193 75.1247C197.35 74.7718 198.557 74.3686 199.664 73.7644C200.016 73.6133 199.966 73.1608 199.765 72.9598C195.596 67.6834 187.701 67.5386 182.419 71.1127C181.916 71.4148 182.418 72.3195 182.972 71.9671Z" fill="#01686F"/>
<path d="M177.736 79.5135C180.004 72.3215 177.896 67.9989 172.771 63.1758C171.661 67.9031 171.553 77.155 176.63 79.8161" fill="#002C2F"/>
<path d="M178.289 79.6635C179.196 76.6459 179.601 73.4275 178.548 70.3611C177.494 67.3953 175.384 64.9834 173.173 62.8733C172.872 62.5718 172.369 62.6728 172.318 63.1253C171.562 66.1931 171.509 69.4615 171.909 72.5786C172.359 75.5449 173.613 78.8123 176.428 80.3186C177.031 80.6198 177.535 79.7143 176.932 79.4131C174.318 78.0072 173.264 74.9408 172.864 72.1254C172.515 69.2596 172.617 66.2426 173.324 63.4262C173.022 63.527 172.72 63.6278 172.469 63.6783C174.579 65.688 176.588 67.8988 177.592 70.7138C178.545 73.5792 178.191 76.6466 177.334 79.5133C177.032 80.0164 178.037 80.3173 178.289 79.6635Z" fill="#01686F"/>
<path d="M148.97 86.2733C152.79 87.9799 156.913 89.1835 161.187 89.0294C164.757 88.8758 168.177 87.8675 171.245 86.0047C177.634 82.2287 182.014 75.739 185.337 69.1998C188.56 62.8618 190.878 56.0217 192.744 49.1316C194.206 43.7504 196.473 38.2679 199.946 33.8907C203.117 29.916 207.545 26.0912 212.624 24.7297C220.017 22.763 228.714 25.1196 234.451 18.8802C235.206 18.0248 235.91 17.1192 236.464 16.1634C237.068 15.1573 235.51 14.3037 234.906 15.3098C232.792 18.8312 229.572 20.8449 225.549 21.552C221.777 22.2085 217.956 22.0103 214.235 22.6166C209.457 23.3745 205.433 25.8917 201.911 29.1124C197.734 32.9873 194.764 37.8669 192.749 43.0978C191.288 46.7695 190.43 50.6419 189.17 54.414C188.111 57.7837 186.852 61.1535 185.441 64.3726C182.52 71.0121 178.744 77.7025 173.058 82.3831C170.442 84.4969 167.374 86.1586 164.054 86.7645C160.283 87.5216 156.462 87.0217 152.893 85.868C151.787 85.4666 150.731 85.1154 149.676 84.5631C148.771 84.2621 147.915 85.8215 148.97 86.2733Z" fill="#01686F"/>
<path d="M247.237 0.668021C245.123 3.18374 243.059 5.7497 241.096 8.41614C239.234 10.9819 236.919 13.1961 235.459 15.9628C235.157 16.4658 235.961 16.8674 236.213 16.4147C237.623 13.6984 239.837 11.5849 241.699 9.11963C243.662 6.45318 245.726 3.78666 247.94 1.27086C248.242 0.868375 247.589 0.215213 247.237 0.668021Z" fill="#01686F"/>
<path d="M239.022 25.7656C236.306 25.8682 233.591 25.7698 230.876 25.3696C228.262 24.9693 225.598 24.3177 223.336 22.8613C222.833 22.56 222.38 23.3146 222.883 23.6159C225.195 25.1225 227.909 25.8244 230.624 26.2246C233.39 26.675 236.155 26.7231 238.971 26.6204C239.624 26.6702 239.625 25.7651 239.022 25.7656Z" fill="#01686F"/>
<path d="M222.32 35.633C219.606 34.4284 217.345 32.3685 214.882 30.8117C212.42 29.1543 209.907 27.6478 207.041 26.8957C206.489 26.7453 206.236 27.6003 206.789 27.7507C209.705 28.553 212.218 30.0595 214.681 31.7169C217.093 33.3241 219.254 35.2834 221.918 36.4379C222.32 36.6387 222.773 35.8841 222.32 35.633Z" fill="#01686F"/>
<path d="M214.42 43.3325C208.84 41.1747 203.009 39.6707 197.53 37.1106C197.027 36.9098 196.574 37.6644 197.077 37.8652C202.556 40.4253 208.438 41.9795 214.118 44.1373C214.721 44.4385 214.923 43.5333 214.42 43.3325Z" fill="#01686F"/>
<path d="M206.769 54.4006C201.591 53.7509 196.462 53.1515 191.284 52.3007C190.731 52.2508 190.479 53.1058 191.032 53.1557C196.21 54.0065 201.49 54.6561 206.718 55.2555C207.322 55.3556 207.322 54.4505 206.769 54.4006Z" fill="#01686F"/>
<path d="M198.659 72.5586C193.884 71.2047 188.905 72.7672 184.179 71.363C183.626 71.2125 183.374 72.0675 183.927 72.218C188.653 73.6222 193.632 72.0596 198.407 73.4136C198.96 73.564 199.162 72.7593 198.659 72.5586Z" fill="#01686F"/>
<path d="M224.708 4.10436C223.647 10.0887 222.285 16.0733 219.867 21.6062C219.666 22.1091 220.419 22.5611 220.621 22.0581C223.089 16.3744 224.502 10.44 225.562 4.35511C225.663 3.75165 224.758 3.55122 224.708 4.10436Z" fill="#01686F"/>
<path d="M204.337 11.8133C205.087 17.2934 203.725 22.9763 202.364 28.257C202.213 28.8102 203.067 29.0609 203.218 28.5077C204.63 23.0762 205.942 17.2425 205.142 11.6115C205.092 11.0585 204.237 11.21 204.337 11.8133Z" fill="#01686F"/>
<path d="M192.95 44.5054C190.138 39.5799 187.678 34.5033 183.658 30.3833C183.256 29.9814 182.652 30.5852 183.054 30.9872C187.024 34.9564 189.433 40.0833 192.195 44.8579C192.446 45.4108 193.251 45.008 192.95 44.5054Z" fill="#01686F"/>
<path d="M187.102 63.2148C185.092 60.9034 184.843 57.5347 183.689 54.7701C183.087 53.2621 182.233 51.9052 181.43 50.4979C180.526 48.9901 179.572 47.4321 178.466 46.1257C178.115 45.6734 177.461 46.3276 177.862 46.7295C179.018 48.1868 180.022 49.795 180.926 51.4034C181.78 52.8609 182.684 54.3686 183.185 55.9773C184.088 58.6918 184.538 61.6581 186.447 63.869C186.849 64.271 187.504 63.6168 187.102 63.2148Z" fill="#01686F"/>
<path d="M177.285 79.2622C176.283 74.0336 175.131 68.8555 173.375 63.8789C173.174 63.3763 172.319 63.5278 172.52 64.131C174.376 69.1075 175.529 74.2856 176.43 79.5142C176.53 80.017 177.385 79.8655 177.285 79.2622Z" fill="#01686F"/>
<path d="M118.13 109.879C118.696 92.7328 109.612 71.1689 93.025 63.4382C89.6953 77.8214 94.9032 105.674 116.973 111.037" fill="#002C2F"/>
<path d="M118.985 109.828C119.191 102.588 117.839 95.2977 115.28 88.5117C112.62 81.5245 108.704 74.8903 103.378 69.6651C100.413 66.8013 97.0966 64.3903 93.3771 62.5831C92.8744 62.3823 92.2207 62.5337 92.1196 63.1371C90.5555 70.1275 90.952 77.6695 92.6562 84.6071C94.5107 92.2988 98.1755 99.8885 104.205 105.214C107.773 108.379 112.095 110.588 116.72 111.791C117.826 112.092 118.28 110.332 117.174 110.031C109.281 108.076 102.95 102.851 98.9831 95.8653C95.2169 89.3819 93.3121 81.7405 93.0162 74.1984C92.8681 70.6285 93.072 67.0081 93.8792 63.4877C93.4768 63.6892 93.0242 63.8404 92.6218 64.0418C105.741 70.2164 113.574 84.2893 116.278 98.0644C117.08 101.885 117.379 105.807 117.275 109.729C117.173 111.036 118.933 110.985 118.985 109.828Z" fill="#01686F"/>
<path d="M114.915 106.161C106.927 96.5632 103.92 84.0956 98.7999 72.937C97.3944 69.8206 95.7374 66.8552 93.7786 63.9906C93.226 63.2368 92.0187 63.9417 92.5713 64.6955C99.6531 74.9979 102.308 87.516 108.183 98.5232C109.84 101.589 111.748 104.504 113.959 107.218C114.461 107.921 115.467 106.915 114.915 106.161Z" fill="#01686F"/>
<path d="M98.9992 75.4506C96.8376 74.7986 94.7768 73.7443 92.9677 72.4384C92.4148 72.0868 91.9113 72.9923 92.4641 73.3438C94.3739 74.6497 96.5352 75.7039 98.747 76.4062C99.4005 76.6571 99.6527 75.601 98.9992 75.4506Z" fill="#01686F"/>
<path d="M102.111 82.7896C99.1955 81.7862 96.1285 81.4366 93.2634 80.1817C92.6603 79.8805 92.1065 80.8363 92.7599 81.0872C95.6753 82.3923 98.8428 82.7418 101.809 83.7955C102.512 84.0966 102.765 83.0405 102.111 82.7896Z" fill="#01686F"/>
<path d="M105.826 91.4348C102.408 89.5268 98.5366 89.2783 94.9173 87.9738C94.2638 87.7229 94.0116 88.779 94.6651 89.0299C98.1838 90.3345 102.005 90.5327 105.322 92.3403C105.925 92.6415 106.429 91.7361 105.826 91.4348Z" fill="#01686F"/>
<path d="M101.308 80.075C102.165 77.4094 102.67 74.5932 104.08 72.1786C104.432 71.6252 103.477 71.0729 103.175 71.6765C101.665 74.1917 101.11 77.0582 100.253 79.8244C100.051 80.4279 101.107 80.6785 101.308 80.075Z" fill="#01686F"/>
<path d="M104.721 87.8158C106.283 84.6468 108.145 81.5782 109.103 78.2086C109.255 77.5548 108.249 77.2539 108.048 77.958C107.039 81.2773 105.277 84.2453 103.766 87.364C103.414 87.9173 104.369 88.4697 104.721 87.8158Z" fill="#01686F"/>
<path d="M107.934 95.6571C109.042 94.0472 109.697 92.1863 110.402 90.3756C110.805 89.4702 111.208 88.5648 111.762 87.7096C112.265 86.9047 112.769 86.0998 113.172 85.1944C113.424 84.5406 112.368 84.29 112.116 84.9438C111.763 85.8994 111.159 86.7044 110.656 87.5093C110.152 88.3142 109.8 89.1693 109.447 90.0243C108.742 91.7345 108.137 93.5451 107.03 95.1549C106.577 95.7084 107.481 96.2105 107.934 95.6571Z" fill="#01686F"/>
<path d="M110.846 101.186C112.709 98.7208 114.219 96.105 116.031 93.5895C116.384 93.0361 115.479 92.534 115.127 93.0874C113.415 95.5022 111.955 98.0677 110.143 100.483C109.992 100.734 109.942 100.986 110.142 101.287C110.243 101.388 110.695 101.438 110.846 101.186Z" fill="#01686F"/>
<path d="M132.818 101.823C154.794 98.1353 170.096 77.3069 173.028 56.7896C153.819 58.2123 131.375 81.862 131.562 100.868" fill="#002C2F"/>
<path d="M133.068 102.677C150.267 99.7477 163.702 86.3122 170.201 70.5689C171.964 66.1931 173.275 61.6667 173.932 56.99C174.033 56.4871 173.682 55.8337 173.078 55.8342C164.58 56.4943 156.682 60.8749 150.142 66.2098C143.198 71.9473 137.159 79.2931 133.683 87.5923C131.92 91.767 130.71 96.2933 130.757 100.869C130.756 101.975 132.516 102.024 132.567 100.868C132.523 92.7722 136.3 84.9756 141.031 78.5359C146.115 71.5428 152.908 65.4535 160.604 61.4753C164.528 59.461 168.803 57.9996 173.177 57.6442C172.876 57.2422 172.625 56.8904 172.324 56.4884C169.948 72.6307 160.382 88.326 145.945 96.3319C141.871 98.5977 137.394 100.16 132.768 100.968C131.46 101.17 131.962 102.879 133.068 102.677Z" fill="#01686F"/>
<path d="M171.267 57.0424C160.449 67.8613 149.881 78.9314 140.62 91.1067C138.002 94.5279 135.486 98.0496 133.12 101.621C132.616 102.426 133.873 103.079 134.326 102.324C142.682 89.647 152.747 78.175 163.265 67.2558C166.234 64.1863 169.203 61.1168 172.272 58.0473C172.926 57.3931 171.922 56.3882 171.267 57.0424Z" fill="#01686F"/>
<path d="M163.366 66.1497C163.568 63.9372 163.268 61.725 163.823 59.5624C163.975 58.9087 162.969 58.6077 162.767 59.3118C162.213 61.575 162.513 63.8877 162.31 66.2008C162.309 66.5025 162.561 66.7537 162.862 66.7535C163.164 66.6527 163.365 66.4514 163.366 66.1497Z" fill="#01686F"/>
<path d="M157.075 72.4397C156.424 69.4736 156.728 66.4564 156.831 63.4394C156.832 62.7355 155.776 62.7866 155.725 63.4403C155.622 66.5578 155.318 69.6755 156.019 72.6919C156.22 73.3957 157.226 73.0932 157.075 72.4397Z" fill="#01686F"/>
<path d="M151.036 78.8803C149.731 75.7638 149.432 72.3449 149.284 68.9761C149.234 68.3225 148.178 68.273 148.178 68.977C148.376 72.4966 148.726 76.0663 150.081 79.3336C150.181 79.6352 150.583 79.6349 150.784 79.5342C151.086 79.4334 151.187 79.1316 151.036 78.8803Z" fill="#01686F"/>
<path d="M145.501 85.7231C144.145 82.7575 143.092 79.6912 141.837 76.6249C141.586 75.9715 140.58 76.2739 140.781 76.8772C141.985 79.9937 143.139 83.1606 144.495 86.2267C144.896 86.8298 145.802 86.3263 145.501 85.7231Z" fill="#01686F"/>
<path d="M140.266 92.2638C138.709 89.7006 138.058 86.7345 137.004 83.8693C136.753 83.2158 135.747 83.5183 135.948 84.1215C137.002 86.9867 137.703 90.1037 139.31 92.7171C139.662 93.3705 140.617 92.8166 140.266 92.2638Z" fill="#01686F"/>
<path d="M160.395 70.3254C163.463 69.8705 166.48 69.667 169.548 69.1116C170.201 68.9602 169.9 67.9548 169.297 68.0559C166.28 68.6616 163.212 68.8148 160.145 69.2696C159.893 69.3201 159.692 69.622 159.792 69.9236C159.842 70.2755 160.144 70.3759 160.395 70.3254Z" fill="#01686F"/>
<path d="M154.458 76.5652C158.38 76.5622 162.251 77.1124 166.173 77.0088C166.877 77.0082 166.878 75.902 166.174 75.9026C162.252 76.0062 158.381 75.456 154.459 75.459C153.755 75.4596 153.804 76.5155 154.458 76.5652Z" fill="#01686F"/>
<path d="M148.519 83.2068C152.591 83.7568 156.563 84.2062 160.635 84.9573C161.289 85.1077 161.541 84.0516 160.888 83.9012C156.866 83.2004 152.844 82.7006 148.771 82.1507C148.117 82.1009 147.865 83.157 148.519 83.2068Z" fill="#01686F"/>
<path d="M139.352 104.935C160.866 114.271 174.85 107.12 186.932 88.5069C173.008 82.8357 149.169 89.7929 139.202 103.879" fill="#002C2F"/>
<path d="M138.899 105.69C145.987 108.752 153.729 110.757 161.423 109.494C168.262 108.383 174.349 104.607 179.18 99.6756C182.45 96.4048 185.169 92.6819 187.686 88.8585C188.038 88.3051 187.636 87.8026 187.133 87.6019C180.9 85.0926 173.76 85.1986 167.323 86.4103C160.031 87.7735 152.939 90.6451 146.953 95.0242C143.682 97.3899 140.814 100.158 138.448 103.428C137.794 104.384 139.352 105.237 140.007 104.281C144.033 98.6467 149.97 94.519 156.257 91.7487C162.595 88.9281 169.585 87.2634 176.574 87.4089C180.044 87.4565 183.513 88.0069 186.73 89.3118C186.529 88.9097 186.379 88.4573 186.178 88.0552C182.201 94.1423 177.47 100.079 171.182 103.956C165.598 107.429 159.11 108.692 152.675 107.892C148.2 107.342 143.877 105.938 139.805 104.181C138.75 103.729 137.844 105.238 138.899 105.69Z" fill="#01686F"/>
<path d="M185.524 88.4073C175.765 93.7447 165.404 97.7752 154.591 100.348C151.523 101.104 148.456 101.66 145.338 102.165C144.433 102.266 144.834 103.674 145.689 103.522C156.702 101.754 167.465 98.5278 177.676 93.8438C180.593 92.5342 183.46 91.0738 186.277 89.5632C187.032 89.2106 186.329 88.0044 185.524 88.4073Z" fill="#01686F"/>
<path d="M178.426 98.4189C176.718 97.1128 175.009 95.9074 173.149 94.8529C172.596 94.5013 172.043 95.4571 172.646 95.7584C174.405 96.8129 176.114 97.9178 177.671 99.1737C177.923 99.3243 178.224 99.4246 178.476 99.173C178.627 99.0221 178.627 98.6198 178.426 98.4189Z" fill="#01686F"/>
<path d="M172.388 103.15C170.026 101.493 167.765 99.7344 165.655 97.7248C165.152 97.2223 164.398 97.9771 164.9 98.4796C167.01 100.59 169.422 102.398 171.835 104.106C172.438 104.508 172.992 103.552 172.388 103.15Z" fill="#01686F"/>
<path d="M165.497 106.926C163.186 104.816 160.875 102.706 158.664 100.495C158.161 99.9929 157.407 100.748 157.909 101.25C160.12 103.461 162.431 105.571 164.742 107.681C165.245 108.183 166 107.429 165.497 106.926Z" fill="#01686F"/>
<path d="M171.238 96.0608C173.704 93.1929 175.768 90.0236 178.083 87.0049C178.536 86.4514 177.531 85.9494 177.178 86.5027C174.964 89.4208 172.95 92.5398 170.534 95.3574C170.031 95.8606 170.785 96.6143 171.238 96.0608Z" fill="#01686F"/>
<path d="M162.486 99.2857C165.757 95.8138 167.52 91.3373 169.887 87.2627C170.239 86.7093 169.284 86.157 168.982 86.7606C166.666 90.6843 164.903 95.1608 161.783 98.5823C161.229 99.0353 161.983 99.789 162.486 99.2857Z" fill="#01686F"/>
<path d="M156.15 100.598C157.006 98.6361 158.114 96.8251 158.97 94.8635C159.373 93.9581 159.776 93.0527 160.028 92.0972C160.28 91.1416 160.532 90.1861 161.136 89.3811C161.589 88.8277 160.584 88.3256 160.232 88.879C159.678 89.6336 159.376 90.5389 159.174 91.4442C158.871 92.45 158.519 93.5062 158.065 94.4619C157.209 96.4236 156.101 98.2346 155.245 100.196C154.993 100.649 155.898 101.252 156.15 100.598Z" fill="#01686F"/>
<path d="M114.105 110.787C106.926 95.8592 86.8766 79.4324 70.2818 81.6576C73.5894 96.0356 88.2553 117.344 114.105 110.787Z" fill="#002C2F"/>
<path d="M114.911 110.384C111.698 103.75 106.775 97.9208 101.298 93.0477C95.6197 88.0741 88.9355 83.8053 81.6462 81.7494C77.8759 80.6963 74.0547 80.297 70.1324 80.8029C69.6798 80.8535 69.3776 81.4571 69.4779 81.8593C71.0315 88.5456 74.3451 94.9791 78.7659 100.205C83.8397 106.285 90.7751 110.805 98.6179 112.308C103.846 113.309 109.227 112.953 114.357 111.642C115.463 111.339 115.012 109.68 113.905 109.882C105.557 112.001 96.8086 111.303 89.2697 106.884C83.0375 103.269 78.1646 97.5908 74.8508 91.2579C73.194 88.0914 71.9394 84.824 71.0873 81.3552C70.8356 81.7074 70.6845 82.0595 70.4328 82.4116C77.2215 81.5516 84.1083 83.9096 89.9888 87.1734C96.5227 90.7887 102.201 95.7622 106.923 101.491C109.384 104.455 111.494 107.672 113.15 111.14C113.803 112.296 115.362 111.44 114.911 110.384Z" fill="#01686F"/>
<path d="M104.454 107.174C94.4514 102.506 87.4689 93.8123 79.2784 86.8295C77.0172 84.8702 74.6553 83.1121 72.1424 81.5051C71.3383 81.0028 70.6837 82.2604 71.4376 82.7124C80.5845 88.4375 87.3155 97.1813 95.8585 103.611C98.3209 105.469 100.934 107.076 103.749 108.382C104.654 108.783 105.359 107.576 104.454 107.174Z" fill="#01686F"/>
<path d="M79.2274 87.2821C76.9144 87.3845 74.5514 87.0343 72.2385 86.9355C71.5346 86.9361 71.584 87.992 72.2377 88.0417C74.5506 88.1405 76.9135 88.4907 79.2266 88.3883C79.8803 88.3376 79.9314 87.2816 79.2274 87.2821Z" fill="#01686F"/>
<path d="M84.6037 92.6582C81.4861 92.8617 78.3179 93.4173 75.1001 93.118C74.4465 93.0683 74.3954 94.1242 75.0992 94.2242C78.2668 94.4732 81.435 93.9177 84.6029 93.7644C85.2566 93.7136 85.2574 92.6074 84.6037 92.6582Z" fill="#01686F"/>
<path d="M89.7792 97.4308C88.4208 98.3872 86.7612 98.8411 85.1518 99.2446C83.5425 99.648 81.8829 100.001 80.2736 100.405C79.6198 100.556 79.8704 101.612 80.5242 101.461C82.1839 101.007 83.8937 100.704 85.5533 100.25C87.213 99.7961 88.9229 99.2919 90.2813 98.3355C90.8347 97.9831 90.2823 97.0282 89.7792 97.4308Z" fill="#01686F"/>
<path d="M95.1055 102.053C92.0374 103.212 89.12 104.622 85.9015 105.228C85.1974 105.329 85.4983 106.334 86.152 106.283C89.3705 105.678 92.3382 104.318 95.3561 103.109C96.0099 102.857 95.7593 101.801 95.1055 102.053Z" fill="#01686F"/>
<path d="M82.8456 90.0953C82.0933 87.6321 81.1901 85.2192 80.8401 82.6551C80.79 82.4038 80.6393 82.1525 80.2874 82.1025C79.9857 82.1027 79.7341 82.3543 79.7339 82.656C80.0838 85.3207 80.9869 87.8341 81.7895 90.3475C82.0404 91.001 83.0965 90.7488 82.8456 90.0953Z" fill="#01686F"/>
<path d="M87.9703 95.1196C88.0732 92.0021 88.2265 88.8342 88.782 85.7666C88.8831 85.0626 87.8274 84.812 87.7262 85.516C87.1707 88.6842 86.9671 91.9024 86.8641 95.1205C86.8635 95.8244 87.9697 95.8236 87.9703 95.1196Z" fill="#01686F"/>
<path d="M93.4476 100.093C93.8524 96.7741 94.6597 93.2538 96.1704 90.2357C96.4726 89.6321 95.5177 89.0797 95.2657 89.7336C93.7045 93.0031 92.847 96.5737 92.3917 100.144C92.3409 100.798 93.3969 100.747 93.4476 100.093Z" fill="#01686F"/>
<path d="M98.7737 105.117C100.385 101.998 101.041 98.5284 102.402 95.2591C102.653 94.6052 101.749 94.1031 101.497 94.7569C100.187 97.976 99.4804 101.496 97.869 104.615C97.5165 105.269 98.4212 105.771 98.7737 105.117Z" fill="#01686F"/>
<path d="M128.147 93.0266C126.346 82.1671 121.627 71.8126 115.349 62.817C113.641 60.3042 111.732 57.8922 109.672 55.6311C108.919 54.7769 107.661 56.0349 108.414 56.8891C115.548 64.9287 121.072 74.5786 124.282 84.8336C125.185 87.6487 125.937 90.6147 126.387 93.581C126.587 94.5865 128.297 94.1829 128.147 93.0266Z" fill="#01686F"/>
<path d="M114.946 63.8227C111.829 63.8251 108.662 63.0733 105.696 62.2208C105.042 62.0705 104.74 63.0763 105.444 63.2769C108.51 64.2299 111.728 64.9314 114.996 64.9792C115.65 64.9284 115.65 63.8222 114.946 63.8227Z" fill="#01686F"/>
<path d="M117.709 67.391C117.811 65.5808 117.963 63.7202 118.317 61.9601C118.62 60.2503 119.023 58.3393 120.131 56.9305C120.584 56.3771 119.578 55.875 119.226 56.4284C118.119 57.9377 117.614 59.9493 117.311 61.7597C116.958 63.6204 116.805 65.5815 116.703 67.4923C116.602 68.0958 117.708 68.0949 117.709 67.391Z" fill="#01686F"/>
<path d="M119.917 72.8195C116.8 72.4196 113.834 71.1649 110.666 71.4187C110.013 71.4695 109.962 72.5255 110.665 72.5249C113.733 72.2711 116.648 73.4757 119.665 73.8756C119.916 73.9257 120.218 73.8249 120.319 73.5231C120.42 73.2214 120.168 72.8696 119.917 72.8195Z" fill="#01686F"/>
<path d="M122.68 75.5831C123.235 72.616 124.796 69.9499 126.658 67.5852C126.809 67.3337 126.659 66.9818 126.458 66.8814C126.207 66.7308 125.905 66.8316 125.754 67.0831C123.891 69.5483 122.28 72.2648 121.675 75.3827C121.523 75.9359 122.529 76.2369 122.68 75.5831Z" fill="#01686F"/>
<path d="M107.009 54.1749C106.053 55.1309 106.052 56.74 107.006 57.6946C107.961 58.6492 109.57 58.648 110.526 57.6919C111.482 56.7358 111.483 55.1268 110.529 54.1722C109.574 53.2175 107.965 53.2188 107.009 54.1749Z" fill="#01686F"/>
<path d="M104.188 61.3172C102.225 63.2797 105.24 66.2943 107.203 64.3318C109.115 62.4197 106.1 59.4051 104.188 61.3172Z" fill="#01686F"/>
<path d="M109.058 70.6153C107.096 72.5778 110.11 75.5924 112.073 73.6299C113.985 71.7178 110.97 68.7032 109.058 70.6153Z" fill="#01686F"/>
<path d="M118.17 55.0712C116.208 57.0337 119.223 60.0482 121.185 58.0857C123.097 56.1736 120.083 53.159 118.17 55.0712Z" fill="#01686F"/>
<path d="M124.096 66.0283C122.133 67.9908 125.148 71.0054 127.11 69.0429C129.073 67.0804 126.058 64.0658 124.096 66.0283Z" fill="#01686F"/>
<path d="M126.488 93.7824C127.353 80.2559 134.15 67.9317 142.706 57.6676C145.021 54.85 147.487 52.1832 150.104 49.5665C150.909 48.7614 149.653 47.5053 148.848 48.3104C139.287 57.8713 130.831 69.141 126.899 82.2173C125.74 85.9893 125.083 89.8615 124.829 93.7334C124.626 94.9403 126.437 94.9389 126.488 93.7824Z" fill="#01686F"/>
<path d="M150.402 55.0972C147.234 55.8539 143.664 56.1081 140.847 57.9204C140.293 58.2728 140.795 59.1775 141.349 58.8251C144.065 57.0128 147.535 56.8593 150.603 56.1027C151.307 56.0016 151.056 54.9459 150.402 55.0972Z" fill="#01686F"/>
<path d="M139.284 61.5923C139.135 59.5309 139.69 57.5695 140.144 55.6081C140.598 53.5462 140.8 51.5348 140.249 49.4736C140.099 48.8201 139.042 49.0723 139.193 49.7259C140.296 53.7476 137.98 57.5708 138.178 61.5932C138.228 62.2468 139.334 62.2459 139.284 61.5923Z" fill="#01686F"/>
<path d="M144.16 65.3595C142.651 65.1595 141.092 65.3116 139.634 65.5641C138.125 65.7664 136.617 66.1698 135.208 66.6737C134.907 66.7745 134.906 67.1767 135.007 67.3778C135.157 67.6291 135.509 67.6791 135.711 67.5784C137.069 67.0242 138.477 66.7214 139.885 66.5192C141.293 66.317 142.751 66.2656 144.159 66.3651C144.46 66.3649 144.712 66.1133 144.712 65.8116C144.662 65.5602 144.461 65.3592 144.16 65.3595Z" fill="#01686F"/>
<path d="M132.489 71.7038C132.29 69.6926 132.442 67.7315 132.343 65.7203C132.244 63.7091 131.843 61.7987 130.789 60.0397C130.437 59.4868 129.532 59.9904 129.883 60.5432C131.942 63.9105 131.084 67.8834 131.484 71.604C131.533 72.3582 132.539 72.3574 132.489 71.7038Z" fill="#01686F"/>
<path d="M137.213 74.2143C134.8 74.1156 132.486 75.0225 130.173 75.6276C129.519 75.779 129.769 76.8347 130.423 76.6834C132.686 76.1285 134.849 75.1715 137.212 75.3205C137.916 75.32 137.917 74.2138 137.213 74.2143Z" fill="#01686F"/>
<path d="M148.599 46.2491C147.643 47.2052 147.641 48.8142 148.596 49.7688C149.551 50.7234 151.16 50.7222 152.116 49.7661C153.072 48.81 153.073 47.201 152.118 46.2464C151.164 45.2917 149.555 45.293 148.599 46.2491Z" fill="#01686F"/>
<path d="M128.678 58.7344C126.715 60.6969 129.73 63.7115 131.692 61.749C133.655 59.7865 130.64 56.7719 128.678 58.7344Z" fill="#01686F"/>
<path d="M138.24 47.7657C136.277 49.7282 139.292 52.7428 141.254 50.7803C143.167 48.8681 140.152 45.8536 138.24 47.7657Z" fill="#01686F"/>
<path d="M149.296 54.3946C147.334 56.3571 150.348 59.3717 152.311 57.4092C154.223 55.4971 151.209 52.4825 149.296 54.3946Z" fill="#01686F"/>
<path d="M142.098 64.1038C140.136 66.0663 143.151 69.0809 145.113 67.1184C147.076 65.1559 144.061 62.1413 142.098 64.1038Z" fill="#01686F"/>
<path d="M135.153 72.6575C133.191 74.62 136.205 77.6346 138.168 75.6721C140.13 73.7096 137.116 70.695 135.153 72.6575Z" fill="#01686F"/>
<path d="M137.736 113.685C154.579 115.633 163.521 125.482 152.098 136.905C141.028 147.975 133.295 134.707 128.325 124.202C135.835 165.527 82.4532 143.143 116.159 120.892C99.6613 127.944 89.0056 122.623 94.0453 107.635C98.9843 92.8482 109.84 100.181 118.935 107.063C93.2209 68.0637 155.62 69.5745 131.107 102.628C156.023 68.0657 175.346 113.657 137.736 113.685Z" fill="#002C2F"/>
<path d="M137.735 114.591C145.126 115.44 159.402 119.652 155.824 129.963C154.968 132.427 153.307 134.49 151.495 136.302C149.885 137.912 148.024 139.372 145.811 139.977C142.19 140.985 139.023 138.825 136.662 136.263C133.397 132.695 131.188 128.172 129.13 123.799C128.678 122.844 127.32 123.499 127.47 124.454C128.421 129.833 128.869 136.219 126.099 141.199C124.387 144.217 121.419 146.18 118.05 146.434C114.832 146.638 111.514 145.534 109.203 143.525C106.741 141.364 105.436 138.348 105.84 135.13C106.498 130.152 110.574 126.176 114.347 123.307C115.051 122.804 115.806 122.25 116.561 121.797C117.516 121.143 116.713 119.836 115.707 120.239C109.42 122.909 95.7402 126.64 93.8372 116.585C93.4366 114.474 93.7401 112.161 94.2947 110.099C94.9503 107.634 95.8071 105.069 97.4176 103.057C98.4746 101.698 99.833 100.641 101.543 100.238C103.202 99.8846 104.811 100.185 106.42 100.687C110.894 102.141 114.813 105.256 118.532 107.968C119.236 108.47 120.242 107.464 119.74 106.76C116.375 101.584 113.061 95.4522 113.569 89.0157C113.823 85.2444 115.887 81.9745 119.107 80.2624C122.125 78.6511 125.745 78.3466 129.013 79.4C132.18 80.353 134.793 82.6639 135.695 85.8813C137.049 90.7576 134.531 95.9888 131.913 100.013C131.41 100.818 130.856 101.573 130.303 102.328C130.805 102.629 131.308 102.93 131.861 103.181C135.183 98.5527 139.46 93.6721 144.893 91.556C148.061 90.2966 151.38 90.294 154.144 92.1523C156.355 93.6591 157.761 96.4738 157.859 99.2895C158.008 102.558 156.547 105.626 154.082 107.891C149.754 111.916 143.317 112.826 137.636 112.881C136.58 112.832 136.629 114.591 137.735 114.591C143.417 114.536 149.552 113.626 154.18 110.103C157.249 107.737 159.414 104.266 159.669 100.294C159.872 96.975 158.568 93.5568 156.156 91.3463C153.392 88.8846 149.571 88.2841 146 89.2422C140.317 90.8053 135.738 95.2839 132.165 99.7618C131.561 100.567 130.957 101.372 130.353 102.177C129.698 103.133 131.206 103.936 131.911 103.03C135.283 98.452 138.556 92.5665 137.706 86.6842C137.156 82.8129 134.544 79.5969 130.925 78.0912C127.406 76.5855 123.233 76.5384 119.712 77.949C115.839 79.5107 112.97 82.7812 112.112 86.8547C110.8 92.9901 113.41 99.4242 116.423 104.651C116.975 105.606 117.578 106.611 118.231 107.566C118.633 107.164 119.036 106.761 119.439 106.358C113.76 102.089 103.509 93.9511 96.8159 100.945C94.9539 102.908 93.896 105.473 93.0393 108.038C92.2831 110.502 91.7281 113.067 91.9775 115.631C92.3263 119.805 94.7373 123.021 98.7589 124.325C104.64 126.181 111.279 124.064 116.661 121.797C116.36 121.295 116.059 120.792 115.808 120.239C111.079 123.36 105.997 127.638 104.484 133.371C103.526 137.143 104.478 141.014 107.091 143.928C109.552 146.592 113.222 148.147 116.892 148.295C120.814 148.393 124.486 146.63 126.852 143.461C130.274 138.832 130.38 132.497 129.73 127.016C129.631 126.011 129.43 125.005 129.28 124.05C128.727 124.302 128.224 124.503 127.62 124.705C129.628 129.028 131.888 133.401 135.002 137.018C137.615 140.033 141.233 142.645 145.457 141.938C147.821 141.584 149.883 140.225 151.644 138.665C153.808 136.803 155.771 134.539 156.979 131.923C158.944 127.748 158.394 123.274 155.229 119.907C150.858 115.234 143.92 113.53 137.786 112.831C136.63 112.681 136.629 114.491 137.735 114.591Z" fill="#01686F"/>
<path d="M146.946 101.158C141.713 105.587 135.677 108.809 129.339 111.429C128.685 111.681 129.238 112.636 129.841 112.333C136.229 109.664 142.366 106.441 147.699 101.911C148.253 101.458 147.499 100.705 146.946 101.158Z" fill="#01686F"/>
<path d="M125.019 107.108C124.873 100.924 125.431 94.638 124.279 88.5548C124.128 87.9013 123.072 88.1535 123.223 88.807C124.375 94.7897 123.766 101.025 123.913 107.109C123.962 107.763 125.018 107.812 125.019 107.108Z" fill="#01686F"/>
<path d="M120.187 112.643C114.706 112.798 109.176 111.797 103.948 110.292C103.295 110.142 102.992 111.148 103.696 111.348C109.025 112.853 114.655 113.954 120.237 113.799C120.941 113.698 120.891 112.642 120.187 112.643Z" fill="#01686F"/>
<path d="M141.451 119.213C138.436 116.601 134.616 115.297 130.896 113.891C130.243 113.641 129.991 114.697 130.644 114.948C134.163 116.252 137.832 117.506 140.696 119.968C141.199 120.471 141.954 119.716 141.451 119.213Z" fill="#01686F"/>
<path d="M137.896 100.964C134.726 103.43 132.009 106.449 128.839 108.915C128.286 109.368 129.09 110.072 129.593 109.669C132.762 107.203 135.48 104.184 138.65 101.718C139.253 101.315 138.5 100.561 137.896 100.964Z" fill="#01686F"/>
<path d="M142.565 108.955C138.441 110.467 134.217 111.475 130.042 112.635C129.389 112.786 129.639 113.842 130.293 113.691C134.467 112.531 138.742 111.472 142.816 110.011C143.47 109.759 143.219 108.703 142.565 108.955Z" fill="#01686F"/>
<path d="M127.18 107.559C127.887 103.536 128.996 99.6127 129.603 95.5897C129.704 94.8857 128.648 94.6351 128.547 95.3391C127.94 99.3621 126.881 103.335 126.124 107.308C126.023 108.012 127.079 108.263 127.18 107.559Z" fill="#01686F"/>
<path d="M122.957 107.16C122.055 103.641 121.303 99.9707 119.596 96.754C119.295 96.1508 118.339 96.7047 118.691 97.2575C120.347 100.424 121.049 104.044 121.951 107.462C122.101 108.116 123.107 107.813 122.957 107.16Z" fill="#01686F"/>
<path d="M120.189 110.229C116.569 109.126 113.152 107.519 109.985 105.46C109.433 105.109 108.879 106.065 109.482 106.366C112.698 108.475 116.217 110.081 119.937 111.185C120.54 111.486 120.842 110.48 120.189 110.229Z" fill="#01686F"/>
<path d="M120.99 114.855C116.665 115.26 112.441 116.37 108.116 116.876C107.412 116.977 107.713 117.982 108.367 117.932C112.54 117.375 116.715 116.316 120.939 115.911C121.643 115.81 121.643 114.804 120.99 114.855Z" fill="#01686F"/>
<path d="M120.192 107.615C118.582 109.225 117.574 111.639 117.623 113.902C117.621 116.114 118.574 118.678 120.182 120.185C121.84 121.742 124.102 122.897 126.465 122.745C128.778 122.642 131.092 121.836 132.753 120.175C134.363 118.565 135.37 116.151 135.322 113.888C135.324 111.676 134.37 109.112 132.762 107.605C131.104 106.047 128.842 104.893 126.479 105.045C124.166 105.148 121.903 105.904 120.192 107.615Z" fill="#01686F"/>
<path d="M124.867 109.17C122.904 111.133 125.919 114.147 127.881 112.185C129.793 110.272 126.779 107.258 124.867 109.17Z" fill="#002C2F"/>
<path d="M129.992 113.188C128.382 114.798 130.894 117.311 132.504 115.7C134.114 114.09 131.602 111.578 129.992 113.188Z" fill="#002C2F"/>
<path d="M120.338 112.392C119.131 113.599 121.04 115.508 122.248 114.301C123.405 113.043 121.546 111.184 120.338 112.392Z" fill="#002C2F"/>
</g>
</g>
</svg>
