<svg width="316" height="148" viewBox="0 0 316 148" fill="none" xmlns="http://www.w3.org/2000/svg">
<g opacity="0.06">
<mask id="mask0_560_3747" style="mask-type:alpha" maskUnits="userSpaceOnUse" x="-1" y="0" width="317" height="140">
<rect x="315.245" y="140" width="315.245" height="140" transform="rotate(180 315.245 140)" fill="#D9D9D9"/>
</mask>
<g mask="url(#mask0_560_3747)">
<path d="M289.279 34.9977C285.783 25.4014 297.801 19.2433 303.966 15.8217C301.479 22.797 297.375 32.7612 289.279 34.9977Z" fill="#014A4F"/>
<path d="M288.656 35.1213C285.222 25.2136 296.68 19.1174 303.717 15.1981C304.215 14.9493 304.9 15.3859 304.714 15.9464C301.979 23.5444 298.061 33.0727 289.529 35.6203C288.719 35.8066 288.344 34.5604 289.216 34.3119C297.251 32.0131 300.857 22.6715 303.468 15.5717C303.842 15.8212 304.091 16.0705 304.465 16.32C297.989 19.9282 286.905 25.5263 290.026 34.7486C290.214 35.5586 288.968 35.9314 288.656 35.1213Z" fill="white"/>
<path d="M280.254 45.3936C285.733 40.9125 296.195 36.6844 302.181 43.0432C297.949 49.0204 285.74 49.5094 279.881 45.7671" fill="#014A4F"/>
<path d="M279.756 44.8951C285.732 40.0406 296.319 35.9372 302.616 42.4831C302.803 42.6701 302.928 43.044 302.679 43.293C300.128 46.7174 295.893 48.2092 291.844 48.6421C287.733 49.0128 283.122 48.5109 279.507 46.2654C278.822 45.8288 279.444 44.708 280.13 45.1446C283.371 47.1405 287.545 47.7044 291.282 47.3335C294.957 47.0248 299.193 45.7822 301.495 42.6069C301.495 42.856 301.558 43.1676 301.558 43.4167C295.822 37.4319 286.045 41.3491 280.566 45.8302C280.006 46.3904 279.071 45.4552 279.756 44.8951Z" fill="white"/>
<path d="M270.105 51.4283C264.991 44.9456 269.715 30.8703 277.251 28.8203C277.631 36.047 277.45 43.9584 270.603 51.3041" fill="#014A4F"/>
<path d="M269.669 51.8642C266.676 47.9995 266.921 42.6423 268.35 38.2204C269.718 33.9853 272.642 29.4399 277.189 28.1352C277.562 28.0109 277.999 28.3227 278.061 28.7588C278.251 32.559 278.254 36.4214 277.385 40.2831C276.391 44.643 274.214 48.4414 271.226 51.6785C270.604 52.301 269.669 51.3658 270.291 50.7434C273.217 47.5685 275.269 43.8946 276.201 39.5969C277.008 36.0466 276.943 32.3711 276.753 28.6955C277.065 28.8826 277.314 29.132 277.626 29.3191C273.577 30.4996 271.026 34.6715 269.721 38.4706C268.478 42.332 268.046 47.3776 270.727 50.806C271.102 51.5538 270.168 52.4875 269.669 51.8642Z" fill="white"/>
<path d="M262.445 55.3471C270.105 51.4284 278.392 54.4872 283.007 61.2188C275.972 66.8823 265.938 60.8319 261.947 55.2222" fill="#014A4F"/>
<path d="M262.071 54.7242C265.807 52.8582 270.043 52.3631 274.031 53.6121C277.957 54.7987 281.26 57.48 283.568 60.7835C283.693 61.0327 283.693 61.4065 283.506 61.5933C276.284 67.319 266.063 61.9536 261.386 55.409C260.887 54.661 262.07 54.1013 262.507 54.7869C266.685 60.5836 276.096 65.7614 282.571 60.6581C282.571 60.9073 282.509 61.2187 282.509 61.4679C280.389 58.4761 277.397 55.9819 273.783 54.8578C270.106 53.6714 266.244 54.1668 262.819 55.8461C262.01 56.2816 261.324 55.0974 262.071 54.7242Z" fill="white"/>
<path d="M252.666 56.8975C249.235 51.1013 251.782 41.4473 258.694 37.528C262.376 46.4392 258.704 51.2332 253.04 56.8977" fill="#014A4F"/>
<path d="M252.106 57.2087C248.176 50.2908 251.782 40.8245 258.382 36.9673C258.756 36.7184 259.192 37.0302 259.317 37.404C260.752 40.956 261.378 44.9435 259.948 48.6178C258.643 52.0431 256.029 54.7821 253.476 57.3343C252.854 57.9568 251.919 57.0216 252.541 56.3991C254.907 54.0337 257.459 51.4815 258.702 48.2431C260.07 44.7556 259.382 41.0796 258.009 37.7145C258.321 37.9016 258.632 37.9642 258.944 38.1513C252.966 41.6353 249.609 50.3542 253.227 56.5866C253.663 57.2722 252.48 57.9565 252.106 57.2087Z" fill="white"/>
<path d="M244.071 58.8836C250.362 57.7048 262.888 64.7539 264.451 71.047C253.799 71.724 250.057 67.2359 243.884 59.6933" fill="#014A4F"/>
<path d="M243.946 58.261C248.181 57.5167 252.855 59.4514 256.47 61.5723C260.022 63.6308 264.074 66.6864 265.198 70.9234C265.261 71.3595 265.012 71.7331 264.576 71.7951C260.34 72.041 256.041 71.477 252.426 69.2316C248.874 66.9239 246.192 63.4955 243.511 60.3164C242.95 59.6307 243.884 58.697 244.445 59.3827C247.001 62.4371 249.433 65.7407 252.799 67.9859C256.352 70.2936 260.464 70.7952 264.575 70.5491C264.388 70.8605 264.139 71.1095 263.953 71.4208C263.015 67.62 259.089 64.8137 255.848 62.9423C252.545 61.0086 248.245 59.0741 244.321 59.7564C243.386 59.6933 243.074 58.3849 243.946 58.261Z" fill="white"/>
<path d="M233.483 62.3648C230.051 55.1981 237.27 45.6101 243.248 42.3753C244.5 50.1009 240.332 57.6356 234.168 62.0539" fill="#014A4F"/>
<path d="M232.923 62.6759C231.113 58.7498 232.106 54.3898 234.159 50.716C236.212 47.0421 239.262 43.7427 242.936 41.6898C243.248 41.5031 243.808 41.6904 243.871 42.1266C245.061 50.1637 240.955 57.8852 234.542 62.5525C233.857 63.1126 233.234 61.8662 233.918 61.4307C239.833 57.1368 243.752 49.8512 242.688 42.4371C242.999 42.6242 243.311 42.6868 243.622 42.8739C240.26 44.7402 237.459 47.666 235.592 50.9039C233.664 54.2042 232.421 58.3147 234.106 61.9915C234.418 62.8016 233.297 63.4237 232.923 62.6759Z" fill="white"/>
<path d="M224.705 69.0239C230.742 61.9891 242.521 69.0376 246.45 74.7095C239.601 78.4421 229.195 75.5061 224.705 69.0239Z" fill="#014A4F"/>
<path d="M224.268 68.5873C229.434 62.6731 238.158 66.293 243.27 70.4084C244.704 71.5932 246.013 72.9024 247.135 74.3984C247.322 74.71 247.136 75.1459 246.887 75.2703C239.414 79.2515 229.009 76.191 224.269 69.3348C223.832 68.6492 224.953 68.0271 225.39 68.7127C229.755 74.9457 239.413 77.7564 246.263 74.1485C246.201 74.4599 246.077 74.709 246.014 75.0204C242.023 69.4107 231.116 62.8613 225.266 69.4602C224.643 70.0826 223.708 69.1475 224.268 68.5873Z" fill="white"/>
<path d="M218.729 75.9968C214.239 69.1408 216.285 57.1192 223.508 53.0132C225.882 61.6119 223.52 68.0889 219.227 74.7512" fill="#014A4F"/>
<path d="M218.169 76.3075C213.491 69.0153 215.475 56.9314 223.196 52.452C223.57 52.2031 224.069 52.4526 224.131 52.8888C225.131 56.7519 225.445 60.8014 224.514 64.7253C223.645 68.4624 221.841 71.8873 219.788 75.1874C219.352 75.8723 218.23 75.2485 218.666 74.5636C220.595 71.5126 222.336 68.2745 223.206 64.662C224.137 60.8627 223.885 57.0001 222.886 53.2616C223.197 53.4487 223.509 53.5112 223.82 53.6984C216.722 57.8045 215.048 69.0788 219.29 75.81C219.789 76.4333 218.668 77.0554 218.169 76.3075Z" fill="white"/>
<path d="M213.941 86.6448C218.546 80.2941 227.95 76.7504 234.869 82.1755C229.205 88.4631 221.481 89.3293 214.003 86.9563" fill="#014A4F"/>
<path d="M213.38 86.3329C218.421 79.5465 228.198 76.1278 235.304 81.7399C235.616 81.927 235.492 82.4253 235.305 82.7366C232.629 85.6625 229.204 87.8402 225.218 88.5847C221.356 89.3293 217.431 88.8902 213.755 87.7037C212.944 87.3916 213.255 86.2082 214.065 86.3958C217.554 87.5198 221.293 88.021 224.905 87.2762C228.642 86.5316 231.818 84.6028 234.37 81.8014C234.37 82.0506 234.371 82.4244 234.371 82.7982C227.95 77.7473 218.982 81.1044 214.502 87.0814C214.066 87.6417 212.882 86.9555 213.38 86.3329Z" fill="white"/>
<path d="M210.52 93.8066C210.825 85.2722 208.264 76.4865 201.221 71.5597C196.616 78.2841 201.422 90.9339 209.46 92.4975" fill="#014A4F"/>
<path d="M209.897 93.806C210.14 85.7077 207.828 77.0468 200.972 72.0578C201.283 71.9958 201.532 71.8714 201.844 71.8093C197.426 78.347 201.733 90.1243 209.708 91.7501C210.518 91.9376 210.208 93.2456 209.398 93.0581C200.737 91.2448 195.868 78.4081 200.722 71.1855C200.909 70.8742 201.345 70.6876 201.594 70.937C208.824 76.1754 211.448 85.1481 211.205 93.7447C211.144 94.6791 209.898 94.6782 209.897 93.806Z" fill="white"/>
<path d="M195.769 111.55C202.057 106.384 206.226 99.7214 209.647 92.4354C212.756 85.8344 215.243 78.8592 219.475 72.882C224.266 66.22 230.991 61.7398 238.838 59.3786C243.509 57.9494 248.43 57.2679 253.164 56.1502C257.337 55.219 261.51 54.0386 265.558 52.4843C269.855 50.8056 274.027 48.5038 277.638 45.641C281.872 42.2802 285.482 38.1715 288.655 33.7509C289.464 32.5679 291.334 33.6906 290.587 34.8114C285.298 42.3452 278.762 48.7566 270.417 52.7372C262.446 56.5934 253.664 58.3933 245.068 60.1309C240.335 61.124 235.726 62.3664 231.554 64.7928C228.191 66.6591 225.203 69.1486 222.713 72.1369C218.045 77.8023 215.372 84.7151 212.449 91.2539C208.78 99.5365 204.301 107.258 197.266 113.046C196.207 113.98 194.649 112.421 195.769 111.55Z" fill="white"/>
<path d="M281.313 44.9583C284.179 45.9573 287.542 44.4647 290.283 43.5947C293.833 42.4138 297.695 42.043 301.433 42.6688C302.181 42.794 301.87 43.8528 301.122 43.7276C297.322 43.0394 293.46 43.6594 289.848 44.9026C287.107 45.7726 283.869 47.0161 281.002 46.0171C280.379 45.7674 280.69 44.7086 281.313 44.9583Z" fill="white"/>
<path d="M263.317 54.9739C266.558 56.2223 269.985 56.9102 273.225 57.9095C276.278 58.8462 279.332 60.1568 282.447 60.9068C283.132 61.0942 282.822 62.153 282.136 61.9656C278.959 61.1533 275.967 59.905 272.914 58.9683C269.549 57.9689 266.247 57.2811 263.007 56.0327C262.384 55.7831 262.694 54.7243 263.317 54.9739Z" fill="white"/>
<path d="M289.34 33.315C291.643 30.5135 293.136 27.2752 295.314 24.349C297.43 21.485 300.231 19.0576 302.721 16.5677C303.219 16.0697 304.03 16.8802 303.469 17.3158C300.855 19.9302 297.929 22.4821 295.751 25.533C293.822 28.3348 292.267 31.3861 290.088 34.0632C289.715 34.6858 288.905 33.8754 289.34 33.315Z" fill="white"/>
<path d="M245.815 58.8853C248.371 61.566 251.923 63.1262 254.978 65.1843C257.72 67.0553 260.463 69.1754 263.703 70.2993C264.326 70.5489 264.14 71.6078 263.392 71.3581C260.09 70.1719 257.285 68.114 254.418 66.1183C251.301 63.9978 247.625 62.4376 244.944 59.6322C244.569 59.1336 245.379 58.3243 245.815 58.8853Z" fill="white"/>
<path d="M225.826 68.4012C232.928 69.4034 239.286 73.8936 246.45 74.086C247.198 74.0866 247.198 75.2079 246.451 75.2073C239.162 75.0148 232.68 70.5245 225.515 69.46C224.83 69.3972 225.14 68.3384 225.826 68.4012Z" fill="white"/>
<path d="M233.358 61.4923C235.284 54.9527 238.519 48.9747 242.314 43.3087C242.688 42.686 243.623 43.2474 243.249 43.8701C239.516 49.4738 236.343 55.3895 234.417 61.8046C234.231 62.4897 233.171 62.1774 233.358 61.4923Z" fill="white"/>
<path d="M252.603 55.9626C252.785 49.5463 255.46 43.7548 258.009 37.9632C258.32 37.2782 259.255 37.8396 258.944 38.5246C256.457 44.1293 253.845 49.734 253.662 55.9011C253.663 56.6487 252.542 56.6478 252.603 55.9626Z" fill="white"/>
<path d="M270.042 50.1201C270.036 42.8938 272.522 35.5447 276.38 29.4427C276.753 28.82 277.688 29.3814 277.315 30.0041C273.519 35.9193 271.158 43.1438 271.101 50.1832C271.164 50.8685 270.042 50.8677 270.042 50.1201Z" fill="white"/>
<path d="M214.501 85.8356C220.542 83.5353 226.957 81.609 233.436 81.614C234.183 81.6145 234.184 82.7359 233.437 82.7353C227.02 82.7927 220.668 84.6567 214.751 86.9571C214.128 87.2058 213.816 86.1465 214.501 85.8356Z" fill="white"/>
<path d="M218.105 74.1266C217.667 70.9491 218.536 67.7104 219.344 64.6585C219.779 62.9769 220.151 61.3574 220.648 59.7381C221.207 57.932 221.891 56.1259 222.575 54.3198C222.824 53.6971 223.945 53.9471 223.634 54.6321C223.013 56.2514 222.329 57.9328 221.769 59.6144C221.272 61.2337 220.9 62.8531 220.465 64.5348C219.72 67.5244 218.725 70.763 219.102 73.8781C219.227 74.5012 218.168 74.8119 218.105 74.1266Z" fill="white"/>
<path d="M201.907 72.3694C202.847 79.4096 206.838 85.2685 210.207 91.3761C210.581 91.9994 209.585 92.497 209.273 91.9361C205.904 85.8285 201.85 79.7826 200.911 72.7424C200.723 71.9324 201.782 71.6218 201.907 72.3694Z" fill="white"/>
<path d="M23.2606 20.2119C14.5406 22.0741 9.23321 6.18449 7.85819 0.327599C14.3388 2.69983 25.1233 12.1148 23.2606 20.2119Z" fill="#014A4F"/>
<path d="M23.3857 20.8349C18.4028 21.8278 14.7242 17.7757 12.4786 13.9116C9.98355 9.79819 8.29797 5.12468 7.17309 0.51391C7.11046 0.0777891 7.5461 -0.482541 7.98232 -0.295317C12.3443 1.32773 16.2713 4.38326 19.3265 7.93648C22.3193 11.3028 24.9392 15.7901 23.8838 20.4615C23.6975 21.2712 22.3891 20.9587 22.5753 20.149C23.5065 15.8513 20.7622 11.6131 18.0187 8.49614C15.213 5.31689 11.5976 2.44849 7.6095 0.950318C7.8585 0.701325 8.16974 0.390084 8.41873 0.141091C9.41872 4.37799 10.9793 8.55303 13.038 12.3547C15.0343 15.9694 18.3395 20.5195 23.011 19.5887C23.9453 19.4025 24.2577 20.711 23.3857 20.8349Z" fill="white"/>
<path d="M39.5266 28.8836C35.233 35.1722 23.2128 38.963 17.9125 32.2933C21.3362 28.8696 33.3577 26.8231 38.0933 28.1973" fill="#014A4F"/>
<path d="M40.15 29.2581C35.6697 35.858 23.4006 40.0224 17.5392 32.7916C17.2898 32.5422 17.2272 32.1061 17.5384 31.7948C20.0907 29.3672 24.0769 28.3736 27.4404 27.7532C30.9285 27.1329 34.915 26.513 38.4043 27.5124C39.2143 27.6999 38.9038 29.0079 38.0938 28.8204C34.8538 27.9458 31.0541 28.5035 27.8152 29.124C25.9466 29.4963 24.1404 29.931 22.3343 30.6149C20.9642 31.1122 19.5319 31.7964 18.5359 32.7923C18.5357 32.5432 18.5354 32.1694 18.5352 31.7956C23.773 38.2784 34.9211 34.4869 39.0904 28.572C39.4013 27.887 40.5855 28.5731 40.15 29.2581Z" fill="white"/>
<path d="M43.825 28.4511C37.3434 24.7084 28.7363 11.3704 36.2691 4.83511C43.5015 12.69 45.8722 17.1771 42.8275 27.4536" fill="#014A4F"/>
<path d="M43.5141 29.0117C40.2109 27.0779 37.5921 23.9611 35.6584 20.7825C33.6625 17.5416 32.1643 13.5535 32.7843 9.69162C33.1564 7.57384 34.1517 5.70572 35.7704 4.33645C36.0194 4.08746 36.4554 4.0255 36.7671 4.33722C39.6975 7.51657 42.6903 10.8829 44.064 14.9955C45.4376 19.1081 44.6934 23.4682 43.5129 27.5165C43.3267 28.3263 42.0182 28.0138 42.2045 27.2041C43.3228 23.3426 44.0672 19.2316 42.8183 15.3683C41.5071 11.4426 38.5767 8.26326 35.8334 5.27095C36.0826 5.27114 36.4564 5.27142 36.8301 5.27171C33.1572 8.57058 33.784 13.5548 35.5937 17.6054C37.4657 21.5938 40.4589 25.583 44.1984 27.8286C44.884 28.2652 44.1997 29.4483 43.5141 29.0117Z" fill="white"/>
<path d="M58.7173 33.0097C51.4877 28.8926 41.4663 39.6621 39.3528 45.5164C46.0173 43.9641 57.3533 41.6055 59.9013 33.5713" fill="#014A4F"/>
<path d="M58.344 33.6329C54.5424 31.5742 50.2457 33.8759 47.2573 36.2409C44.269 38.7304 41.2813 41.9675 39.9759 45.642C39.7266 45.3926 39.4148 45.0809 39.1655 44.8315C43.0271 43.9623 46.8888 43.0931 50.5008 41.4762C54.2373 39.8594 57.8486 37.3703 59.2783 33.3222C59.5891 32.5126 60.8353 32.8873 60.5867 33.6347C57.7276 42.1047 47.2636 44.3394 39.5402 46.0777C39.1042 46.1397 38.6055 45.7655 38.7297 45.2672C40.2217 41.1568 43.4582 37.4216 46.9448 34.8078C50.3067 32.194 54.9774 30.1418 59.0906 32.3876C59.8386 32.8865 59.1542 34.0696 58.344 33.6329Z" fill="white"/>
<path d="M65.0743 37.0018C61.6446 32.5761 57.4065 29.9564 57.5262 23.6023C57.7105 20.3008 58.8908 16.0033 61.4433 13.8248C65.8711 19.9956 69.4912 29.0936 64.3879 35.5684" fill="#014A4F"/>
<path d="M64.5764 37.4999C61.8951 34.0716 58.1551 31.2031 57.155 26.8416C56.5926 24.5362 56.8398 22.0445 57.4611 19.8024C58.0822 17.4356 59.1395 15.1314 61.0071 13.5132C61.3184 13.2019 61.8168 13.3269 62.004 13.6385C66.6187 19.9963 70.1768 29.2811 64.8869 36.1919C64.3268 36.8768 63.4539 35.8794 63.9517 35.2568C68.8682 28.8441 65.0614 20.0574 60.9454 14.323C61.257 14.3855 61.6308 14.3858 61.9423 14.4483C60.2615 16.0044 59.2665 18.2463 58.7075 20.4263C58.1485 22.6062 57.9634 24.911 58.588 27.0296C59.7123 30.8928 63.1406 33.5742 65.5725 36.6285C66.009 37.1895 65.1376 38.1856 64.5764 37.4999Z" fill="white"/>
<path d="M71.2488 46.2887C63.3974 43.5417 52.9344 47.1468 48.7664 54.6814C56.6788 55.7465 68.6399 56.0049 71.685 46.4759" fill="#014A4F"/>
<path d="M71.0624 46.8493C63.2111 44.2268 53.4332 47.6456 49.3896 54.9311C49.2025 54.6195 49.1399 54.308 48.9528 53.9963C56.6783 54.999 68.0787 55.3192 71.1243 46.2887C71.4351 45.479 72.6813 45.8538 72.4327 46.6011C69.1387 56.5037 57.24 56.4322 48.6423 55.3043C48.2062 55.2417 48.0189 54.6809 48.2055 54.3695C52.5602 46.5236 62.9609 42.8561 71.373 45.6659C72.2453 45.9157 71.8725 47.1614 71.0624 46.8493Z" fill="white"/>
<path d="M76.0522 55.2004C75.3622 49.0326 78.7811 39.3793 88.8709 36.5214C88.6901 44.5575 85.146 53.3385 77.2365 56.0112" fill="#014A4F"/>
<path d="M75.3671 55.1373C74.9281 51.3369 75.9841 47.413 77.9127 44.1128C80.2768 40.0031 84.1993 37.2028 88.6836 35.8357C89.0573 35.7114 89.5559 36.0856 89.5562 36.4593C89.3134 44.6822 85.7071 53.6501 77.424 56.5717C76.6143 56.8825 76.3019 55.5741 77.1115 55.2632C84.7717 52.4658 88.0669 43.9337 88.248 36.396C88.5596 36.5832 88.809 36.8325 89.1206 37.0197C81.3353 39.3186 75.9214 46.8523 76.7998 55.0761C76.7383 56.0105 75.4923 56.0095 75.3671 55.1373Z" fill="white"/>
<path d="M79.3003 66.2911C75.2463 60.1207 61.4809 62.7889 58.0589 68.3306C66.409 71.5764 72.4532 73.5122 79.1135 66.4779" fill="#014A4F"/>
<path d="M78.7399 66.6025C76.5571 63.4237 71.8847 63.1087 68.3965 63.6043C64.9083 64.1 60.6109 65.5295 58.6198 68.6428C58.4327 68.3312 58.3702 68.0197 58.1831 67.708C61.6103 69.0189 65.287 70.5791 69.0248 70.582C72.8249 70.6472 76.0005 68.7185 78.6148 65.9794C79.2373 65.357 80.1725 66.2921 79.55 66.9146C76.8112 69.7781 73.3865 71.8313 69.3373 71.8904C65.3503 71.8874 61.4868 70.3893 57.8102 68.9537C57.4364 68.8288 57.1246 68.3925 57.3734 68.0189C59.1156 65.2792 62.2915 63.7242 65.3434 62.9167C68.6444 61.9848 72.4442 61.6763 75.6846 62.9247C77.3048 63.5489 78.8006 64.5468 79.7985 66.0426C80.3597 66.7283 79.2389 67.3504 78.7399 66.6025Z" fill="white"/>
<path d="M83.2336 77.8195C80.3003 70.7778 88.2029 59.1345 94.8669 56.9593C93.5645 64.4961 92.9496 74.9614 84.7917 78.7552" fill="#014A4F"/>
<path d="M82.6109 77.9437C80.9257 73.7685 82.7285 68.8485 84.9061 65.1747C87.1459 61.4387 90.507 57.7035 94.742 56.2116C95.2402 56.0874 95.6144 56.5861 95.5524 57.0221C94.1258 65.0572 93.5729 75.211 85.1037 79.1915C84.3565 79.5647 83.6703 78.3805 84.4799 78.0697C92.5132 74.2758 92.8793 64.3087 94.244 56.7096C94.4934 56.959 94.8051 57.2707 95.0544 57.5201C91.1931 58.8876 88.1434 62.4362 86.0902 65.8609C84.0371 69.2856 82.3585 73.7073 83.9189 77.6332C84.231 78.4433 82.923 78.7537 82.6109 77.9437Z" fill="white"/>
<path d="M88.9111 88.6009C82.6158 84.2976 73.2093 84.4773 68.2305 90.8276C72.7176 93.1983 85.4908 96.5098 87.9154 89.9706" fill="#014A4F"/>
<path d="M88.6002 89.1615C82.4298 85.1076 73.5215 85.163 68.6671 91.2643C68.6045 90.9528 68.6042 90.579 68.5417 90.2675C71.5332 91.8895 75.147 92.7644 78.5735 93.0785C81.5639 93.33 86.0492 93.2088 87.2925 89.8458C87.6034 89.0362 88.8496 89.4109 88.601 90.1583C86.1762 96.3237 77.0796 94.5724 72.2193 93.0736C70.7862 92.6364 69.2907 92.1369 67.9196 91.3883C67.4834 91.2011 67.5453 90.6405 67.7942 90.3915C72.9598 83.8544 82.7401 83.675 89.2846 88.103C89.9079 88.4773 89.2858 89.5981 88.6002 89.1615Z" fill="white"/>
<path d="M95.0858 98.5108C92.2756 89.6003 94.8879 84.2449 101.238 78.2693C102.613 84.1262 102.746 95.5888 96.4566 98.8857" fill="#014A4F"/>
<path d="M94.4008 98.6971C93.2766 94.9585 92.7752 90.9711 94.0805 87.1721C95.3859 83.4976 98 80.5094 100.739 77.8951C101.113 77.5216 101.736 77.6467 101.798 78.2074C102.736 82.0081 102.801 86.0574 102.306 89.9194C101.748 93.5945 100.194 97.6425 96.7064 99.5087C95.9591 99.8819 95.3353 98.7601 96.0826 98.3869C99.3206 96.6451 100.626 92.846 101.122 89.3578C101.555 85.8073 101.427 82.0694 100.553 78.5802C100.927 78.7051 101.3 78.8299 101.612 78.8925C98.9974 81.3823 96.5077 84.1214 95.2644 87.609C94.0835 91.159 94.5225 94.9594 95.5843 98.5111C95.9585 99.1344 94.7129 99.5072 94.4008 98.6971Z" fill="white"/>
<path d="M130.726 106.886C125.993 109 120.886 110.491 115.59 110.3C111.167 110.11 106.93 108.861 103.128 106.553C95.2131 101.875 89.7872 93.8343 85.6694 85.7327C81.6764 77.8803 78.8043 69.4058 76.4928 60.8695C74.6811 54.2024 71.8725 47.41 67.5699 41.9869C63.6415 37.0625 58.1558 32.3238 51.8626 30.637C42.7032 28.2004 31.9282 31.12 24.8205 23.3898C23.8853 22.3301 23.0123 21.2081 22.3261 20.0239C21.5776 18.7774 23.5079 17.7199 24.2565 18.9664C26.8762 23.3291 30.8651 25.824 35.8495 26.7C40.5223 27.5134 45.2566 27.2679 49.8671 28.019C55.786 28.958 60.772 32.0766 65.1358 36.0669C70.3101 40.8677 73.9902 46.9132 76.487 53.3939C78.2971 57.9429 79.3598 62.7406 80.9208 67.414C82.2323 71.5888 83.7929 75.7639 85.5402 79.7521C89.1597 87.978 93.8383 96.267 100.882 102.066C104.124 104.685 107.925 106.744 112.037 107.494C116.71 108.432 121.444 107.813 125.866 106.384C127.236 105.886 128.544 105.451 129.852 104.767C130.973 104.394 132.034 106.326 130.726 106.886Z" fill="white"/>
<path d="M8.98006 0.826426C11.5989 3.94324 14.1555 7.12231 16.5876 10.4259C18.895 13.6047 21.7627 16.348 23.5719 19.7756C23.9462 20.3989 22.9498 20.8965 22.6379 20.3356C20.891 16.9703 18.148 14.3517 15.8407 11.2974C13.4086 7.99388 10.8519 4.69022 8.10849 1.57331C7.73433 1.07465 8.54355 0.265426 8.98006 0.826426Z" fill="white"/>
<path d="M19.1582 31.9203C22.5223 32.0475 25.8862 31.9255 29.2498 31.4297C32.4888 30.9338 35.7899 30.1265 38.5918 28.3221C39.2145 27.9488 39.7759 28.8836 39.1532 29.2569C36.289 31.1236 32.9257 31.9932 29.5621 32.489C26.1362 33.047 22.71 33.1067 19.2213 32.9794C18.4115 33.0411 18.4107 31.9197 19.1582 31.9203Z" fill="white"/>
<path d="M39.8499 44.1463C43.2128 42.6537 46.0141 40.1017 49.0652 38.1729C52.1161 36.1195 55.2295 34.253 58.7796 33.3213C59.4647 33.1349 59.777 34.1942 59.0919 34.3806C55.4795 35.3745 52.3661 37.241 49.3152 39.2944C46.3265 41.2856 43.6497 43.7131 40.3491 45.1434C39.8509 45.3922 39.2895 44.4573 39.8499 44.1463Z" fill="white"/>
<path d="M49.638 53.6851C56.5508 51.0116 63.7757 49.1483 70.5635 45.9764C71.1863 45.7277 71.7477 46.6626 71.1249 46.9113C64.3371 50.0832 57.0499 52.0088 50.0125 54.6821C49.2652 55.0553 49.0152 53.9338 49.638 53.6851Z" fill="white"/>
<path d="M59.1174 67.3976C65.5333 66.5926 71.8869 65.85 78.3026 64.7959C78.9878 64.7341 79.3001 65.7934 78.6149 65.8551C72.1992 66.9092 65.6587 67.7141 59.1805 68.4566C58.433 68.5807 58.4322 67.4593 59.1174 67.3976Z" fill="white"/>
<path d="M69.164 89.894C75.0808 88.2165 81.2496 90.1525 87.1041 88.4127C87.7892 88.2263 88.1015 89.2856 87.4164 89.4719C81.5619 91.2117 75.3931 89.2758 69.4763 90.9533C68.7911 91.1396 68.5412 90.1427 69.164 89.894Z" fill="white"/>
<path d="M36.8917 5.08391C38.2057 12.4982 39.8934 19.9127 42.8888 26.7676C43.1385 27.3907 42.2045 27.9507 41.9548 27.3275C38.8969 20.2857 37.147 12.9334 35.8329 5.39458C35.7078 4.64693 36.8289 4.39861 36.8917 5.08391Z" fill="white"/>
<path d="M62.1293 14.6347C61.2 21.4242 62.8875 28.465 64.5745 35.0074C64.7619 35.6928 63.7031 36.0035 63.5157 35.3181C61.7662 28.5887 60.141 21.3611 61.1323 14.3847C61.1941 13.6995 62.2533 13.8872 62.1293 14.6347Z" fill="white"/>
<path d="M76.2393 55.1381C79.7232 49.0357 82.7709 42.7462 87.7506 37.6417C88.2486 37.1437 88.9967 37.8918 88.4988 38.3898C83.5811 43.3074 80.5958 49.6593 77.1741 55.5748C76.8631 56.2599 75.866 55.7607 76.2393 55.1381Z" fill="white"/>
<path d="M83.4834 78.3175C85.9731 75.4538 86.2814 71.2802 87.7115 67.855C88.4576 65.9867 89.5154 64.3055 90.5108 62.562C91.6307 60.694 92.8128 58.7637 94.1821 57.1451C94.6177 56.5847 95.4282 57.3952 94.9302 57.8932C93.4988 59.6987 92.2544 61.6912 91.1346 63.6838C90.077 65.4896 88.9571 67.3576 88.3356 69.3506C87.2169 72.7137 86.6591 76.3888 84.2939 79.128C83.7959 79.626 82.9855 78.8155 83.4834 78.3175Z" fill="white"/>
<path d="M95.6463 98.1998C96.8872 91.722 98.3151 85.3066 100.491 79.1409C100.739 78.5182 101.799 78.7059 101.55 79.4532C99.2498 85.6188 97.8219 92.0342 96.7056 98.5121C96.5814 99.135 95.5223 98.9473 95.6463 98.1998Z" fill="white"/>
<path d="M168.936 136.132C168.234 114.889 179.489 88.1722 200.04 78.5944C204.165 96.4142 197.713 130.921 170.37 137.566" fill="#014A4F"/>
<path d="M167.877 136.069C167.621 127.099 169.296 118.067 172.466 109.659C175.762 101.003 180.614 92.7834 187.213 86.3096C190.885 82.7616 194.995 79.7745 199.603 77.5354C200.226 77.2867 201.036 77.4742 201.161 78.2219C203.099 86.8825 202.607 96.2266 200.496 104.822C198.198 114.351 193.658 123.755 186.188 130.352C181.768 134.273 176.412 137.01 170.682 138.501C169.312 138.874 168.75 136.693 170.12 136.32C179.898 133.898 187.743 127.425 192.657 118.77C197.323 110.737 199.683 101.27 200.05 91.9262C200.234 87.5033 199.981 83.0178 198.981 78.6563C199.479 78.9058 200.04 79.0932 200.539 79.3427C184.285 86.9927 174.581 104.428 171.23 121.495C170.237 126.228 169.867 131.087 169.995 135.946C170.121 137.566 167.94 137.502 167.877 136.069Z" fill="white"/>
<path d="M172.919 131.526C182.815 119.635 186.541 104.188 192.885 90.3633C194.626 86.5023 196.679 82.8284 199.106 79.2794C199.79 78.3455 201.286 79.2188 200.602 80.1527C191.828 92.9167 188.538 108.426 181.26 122.063C179.207 125.862 176.842 129.473 174.104 132.835C173.482 133.706 172.235 132.46 172.919 131.526Z" fill="white"/>
<path d="M192.638 93.4775C195.316 92.6697 197.869 91.3634 200.111 89.7454C200.795 89.3099 201.419 90.4317 200.734 90.8672C198.368 92.4851 195.691 93.7913 192.95 94.6613C192.141 94.9722 191.828 93.6637 192.638 93.4775Z" fill="white"/>
<path d="M188.782 102.57C192.395 101.327 196.194 100.894 199.744 99.3392C200.491 98.966 201.177 100.15 200.368 100.461C196.756 102.078 192.831 102.511 189.157 103.816C188.285 104.19 187.973 102.881 188.782 102.57Z" fill="white"/>
<path d="M184.181 113.282C188.415 110.918 193.212 110.61 197.696 108.994C198.505 108.683 198.818 109.991 198.008 110.302C193.649 111.918 188.914 112.164 184.805 114.403C184.057 114.777 183.433 113.655 184.181 113.282Z" fill="white"/>
<path d="M189.776 99.2068C188.715 95.9043 188.089 92.4153 186.343 89.4237C185.906 88.7381 187.089 88.0538 187.463 88.8016C189.335 91.9179 190.023 95.4693 191.084 98.8964C191.334 99.6441 190.026 99.9546 189.776 99.2068Z" fill="white"/>
<path d="M185.547 108.797C183.613 104.871 181.305 101.069 180.119 96.8944C179.931 96.0844 181.177 95.7116 181.427 96.5839C182.676 100.696 184.859 104.374 186.731 108.237C187.167 108.923 185.984 109.607 185.547 108.797Z" fill="white"/>
<path d="M181.568 118.512C180.196 116.518 179.384 114.212 178.511 111.969C178.011 110.847 177.512 109.726 176.826 108.666C176.202 107.669 175.579 106.672 175.079 105.55C174.767 104.74 176.075 104.429 176.387 105.239C176.824 106.423 177.573 107.421 178.196 108.418C178.82 109.415 179.257 110.474 179.694 111.534C180.568 113.653 181.317 115.896 182.689 117.89C183.25 118.576 182.129 119.198 181.568 118.512Z" fill="white"/>
<path d="M177.96 125.362C175.653 122.308 173.782 119.067 171.537 115.95C171.1 115.265 172.221 114.643 172.657 115.328C174.778 118.32 176.587 121.499 178.832 124.491C179.019 124.802 179.082 125.114 178.833 125.487C178.708 125.612 178.147 125.674 177.96 125.362Z" fill="white"/>
<path d="M150.738 126.151C123.511 121.583 104.553 95.7778 100.92 70.3582C124.719 72.1208 152.525 101.421 152.294 124.969" fill="#014A4F"/>
<path d="M150.427 127.21C129.119 123.581 112.473 106.935 104.422 87.4299C102.237 82.0084 100.613 76.4005 99.799 70.6064C99.674 69.9833 100.109 69.1738 100.857 69.1744C111.386 69.9923 121.17 75.4196 129.274 82.0292C137.876 89.1375 145.359 98.2385 149.665 108.521C151.849 113.693 153.349 119.301 153.291 124.97C153.292 126.34 151.112 126.401 151.048 124.968C151.103 114.938 146.423 105.279 140.561 97.3004C134.263 88.6364 125.847 81.0921 116.312 76.1634C111.451 73.6678 106.154 71.8572 100.734 71.4169C101.107 70.9188 101.419 70.483 101.792 69.9849C104.735 89.9842 116.587 109.43 134.473 119.349C139.521 122.156 145.067 124.091 150.799 125.092C152.419 125.343 151.798 127.46 150.427 127.21Z" fill="white"/>
<path d="M103.101 70.6713C116.505 84.0753 129.598 97.7905 141.072 112.875C144.314 117.114 147.433 121.477 150.364 125.902C150.988 126.899 149.431 127.708 148.869 126.773C138.516 111.066 126.046 96.8533 113.016 83.325C109.337 79.5222 105.659 75.7193 101.856 71.9163C101.046 71.1058 102.291 69.8609 103.101 70.6713Z" fill="white"/>
<path d="M112.89 81.954C112.639 79.2127 113.011 76.472 112.323 73.7927C112.136 72.9827 113.381 72.6099 113.631 73.4823C114.319 76.2861 113.947 79.1515 114.198 82.0173C114.199 82.391 113.887 82.7023 113.514 82.702C113.14 82.5771 112.89 82.3277 112.89 81.954Z" fill="white"/>
<path d="M120.683 89.7475C121.49 86.0726 121.113 82.3346 120.986 78.5967C120.985 77.7246 122.294 77.7879 122.357 78.5978C122.484 82.4602 122.861 86.3229 121.992 90.06C121.743 90.9319 120.497 90.5572 120.683 89.7475Z" fill="white"/>
<path d="M128.165 97.7266C129.781 93.8655 130.152 89.6296 130.335 85.4559C130.397 84.6461 131.705 84.5848 131.706 85.457C131.46 89.8175 131.028 94.2402 129.349 98.2882C129.224 98.6619 128.726 98.6615 128.477 98.5367C128.103 98.4118 127.978 98.0379 128.165 97.7266Z" fill="white"/>
<path d="M135.024 106.204C136.703 102.53 138.009 98.7309 139.563 94.932C139.874 94.1224 141.12 94.4971 140.872 95.2445C139.379 99.1057 137.95 103.029 136.27 106.828C135.773 107.575 134.651 106.951 135.024 106.204Z" fill="white"/>
<path d="M141.509 114.308C143.438 111.132 144.245 107.458 145.55 103.908C145.861 103.098 147.107 103.473 146.859 104.22C145.553 107.77 144.684 111.632 142.693 114.87C142.258 115.679 141.073 114.993 141.509 114.308Z" fill="white"/>
<path d="M116.57 87.1274C112.769 86.5638 109.031 86.3118 105.231 85.6236C104.421 85.4361 104.793 84.1905 105.541 84.3156C109.279 85.0661 113.08 85.2559 116.88 85.8194C117.192 85.882 117.441 86.256 117.317 86.6296C117.255 87.0657 116.881 87.19 116.57 87.1274Z" fill="white"/>
<path d="M123.926 94.8582C119.067 94.8544 114.271 95.536 109.412 95.4077C108.54 95.407 108.539 94.0365 109.411 94.0372C114.27 94.1655 119.066 93.4839 123.925 93.4877C124.798 93.4883 124.736 94.7965 123.926 94.8582Z" fill="white"/>
<path d="M131.284 103.087C126.238 103.768 121.317 104.325 116.272 105.256C115.462 105.442 115.15 104.134 115.959 103.947C120.942 103.079 125.926 102.46 130.971 101.779C131.781 101.717 132.093 103.025 131.284 103.087Z" fill="white"/>
<path d="M142.642 130.007C115.988 141.574 98.6631 132.715 83.6943 109.654C100.945 102.627 130.48 111.247 142.828 128.699" fill="#014A4F"/>
<path d="M143.203 130.942C134.423 134.735 124.831 137.22 115.298 135.655C106.825 134.278 99.2837 129.6 93.2986 123.491C89.2462 119.438 85.8787 114.826 82.7602 110.089C82.3236 109.403 82.8215 108.781 83.4443 108.532C91.1666 105.423 100.013 105.554 107.988 107.056C117.022 108.745 125.809 112.302 133.226 117.728C137.277 120.659 140.831 124.088 143.762 128.139C144.573 129.323 142.642 130.381 141.832 129.197C136.843 122.216 129.488 117.102 121.698 113.67C113.846 110.175 105.185 108.113 96.5263 108.293C92.2279 108.352 87.93 109.034 83.9443 110.65C84.1931 110.152 84.3796 109.592 84.6284 109.093C89.5556 116.635 95.417 123.991 103.208 128.793C110.126 133.097 118.163 134.661 126.136 133.67C131.68 132.989 137.036 131.249 142.081 129.072C143.389 128.513 144.511 130.382 143.203 130.942Z" fill="white"/>
<path d="M85.4388 109.53C97.5293 116.143 110.366 121.136 123.762 124.324C127.563 125.261 131.364 125.949 135.226 126.575C136.348 126.701 135.851 128.444 134.792 128.257C121.147 126.066 107.813 122.069 95.1621 116.265C91.5477 114.643 87.9955 112.834 84.5054 110.962C83.5707 110.525 84.4417 109.031 85.4388 109.53Z" fill="white"/>
<path d="M94.2321 121.934C96.3489 120.316 98.4659 118.822 100.77 117.516C101.455 117.08 102.141 118.264 101.394 118.637C99.2143 119.944 97.0973 121.313 95.1673 122.869C94.8559 123.055 94.4823 123.18 94.1705 122.868C93.9835 122.681 93.9831 122.183 94.2321 121.934Z" fill="white"/>
<path d="M101.712 127.795C104.639 125.742 107.44 123.564 110.055 121.074C110.677 120.451 111.612 121.387 110.99 122.009C108.376 124.623 105.387 126.864 102.398 128.98C101.651 129.477 100.965 128.293 101.712 127.795Z" fill="white"/>
<path d="M110.25 132.474C113.114 129.86 115.977 127.246 118.716 124.507C119.339 123.884 120.274 124.819 119.651 125.442C116.912 128.181 114.049 130.795 111.185 133.409C110.563 134.032 109.628 133.097 110.25 132.474Z" fill="white"/>
<path d="M103.138 119.013C100.083 115.459 97.5257 111.533 94.6572 107.793C94.0961 107.107 95.3415 106.485 95.7781 107.171C98.5219 110.786 101.017 114.65 104.01 118.141C104.633 118.764 103.699 119.698 103.138 119.013Z" fill="white"/>
<path d="M113.981 123.008C109.928 118.707 107.744 113.161 104.812 108.113C104.375 107.427 105.558 106.743 105.933 107.49C108.802 112.352 110.987 117.898 114.852 122.137C115.538 122.698 114.604 123.632 113.981 123.008Z" fill="white"/>
<path d="M121.831 124.634C120.77 122.204 119.398 119.96 118.337 117.53C117.838 116.408 117.339 115.286 117.026 114.102C116.714 112.919 116.402 111.735 115.653 110.737C115.092 110.052 116.337 109.43 116.774 110.115C117.46 111.05 117.835 112.172 118.085 113.293C118.459 114.54 118.897 115.848 119.458 117.032C120.519 119.463 121.891 121.706 122.952 124.137C123.264 124.698 122.143 125.444 121.831 124.634Z" fill="white"/>
<path d="M173.921 137.258C182.815 118.762 207.655 98.4107 228.215 101.167C224.117 118.981 205.947 145.381 173.921 137.258Z" fill="#014A4F"/>
<path d="M172.924 136.758C176.904 128.538 183.004 121.317 189.789 115.279C196.824 109.117 205.105 103.828 214.136 101.281C218.807 99.9766 223.542 99.4819 228.401 100.109C228.962 100.171 229.336 100.919 229.212 101.417C227.287 109.701 223.182 117.672 217.705 124.147C211.419 131.68 202.826 137.28 193.109 139.141C186.631 140.382 179.965 139.941 173.61 138.316C172.239 137.941 172.798 135.886 174.169 136.136C184.512 138.761 195.351 137.897 204.691 132.422C212.412 127.943 218.45 120.908 222.555 113.062C224.608 109.139 226.162 105.091 227.218 100.793C227.53 101.229 227.717 101.665 228.029 102.102C219.618 101.036 211.086 103.958 203.8 108.001C195.705 112.48 188.67 118.642 182.82 125.74C179.77 129.413 177.157 133.398 175.105 137.694C174.296 139.127 172.364 138.066 172.924 136.758Z" fill="white"/>
<path d="M185.878 132.781C198.271 126.997 206.922 116.226 217.069 107.575C219.871 105.148 222.797 102.97 225.91 100.978C226.906 100.356 227.717 101.914 226.783 102.474C215.451 109.567 207.112 120.4 196.527 128.366C193.477 130.669 190.239 132.66 186.752 134.277C185.631 134.774 184.757 133.279 185.878 132.781Z" fill="white"/>
<path d="M217.131 108.136C219.997 108.263 222.925 107.829 225.79 107.707C226.662 107.708 226.601 109.016 225.791 109.077C222.926 109.2 219.998 109.634 217.132 109.507C216.323 109.444 216.259 108.136 217.131 108.136Z" fill="white"/>
<path d="M210.471 114.797C214.333 115.049 218.258 115.737 222.245 115.366C223.055 115.305 223.118 116.613 222.246 116.737C218.322 117.045 214.397 116.357 210.472 116.167C209.662 116.104 209.661 114.734 210.471 114.797Z" fill="white"/>
<path d="M204.059 120.71C205.742 121.895 207.798 122.457 209.792 122.957C211.786 123.457 213.842 123.895 215.836 124.395C216.646 124.582 216.335 125.89 215.525 125.703C213.469 125.14 211.351 124.765 209.294 124.203C207.238 123.641 205.12 123.016 203.437 121.831C202.751 121.394 203.435 120.211 204.059 120.71Z" fill="white"/>
<path d="M197.46 126.436C201.261 127.872 204.875 129.619 208.863 130.37C209.735 130.495 209.362 131.74 208.552 131.678C204.565 130.927 200.888 129.242 197.149 127.744C196.339 127.432 196.65 126.124 197.46 126.436Z" fill="white"/>
<path d="M212.649 111.622C213.581 108.57 214.7 105.581 215.133 102.404C215.195 102.092 215.382 101.781 215.818 101.719C216.192 101.719 216.504 102.031 216.504 102.405C216.07 105.706 214.951 108.82 213.957 111.934C213.646 112.744 212.338 112.431 212.649 111.622Z" fill="white"/>
<path d="M206.3 117.846C206.172 113.984 205.982 110.059 205.294 106.258C205.169 105.386 206.477 105.076 206.602 105.948C207.29 109.873 207.542 113.86 207.67 117.847C207.671 118.719 206.3 118.718 206.3 117.846Z" fill="white"/>
<path d="M199.514 124.009C199.012 119.897 198.012 115.535 196.141 111.796C195.766 111.048 196.949 110.364 197.261 111.174C199.196 115.225 200.258 119.649 200.822 124.072C200.885 124.882 199.577 124.819 199.514 124.009Z" fill="white"/>
<path d="M192.915 130.233C190.919 126.369 190.106 122.07 188.42 118.019C188.108 117.209 189.229 116.587 189.541 117.397C191.164 121.385 192.04 125.747 194.036 129.611C194.473 130.421 193.352 131.043 192.915 130.233Z" fill="white"/>
<path d="M156.523 115.254C158.755 101.8 164.601 88.9711 172.379 77.8261C174.495 74.7129 176.86 71.7245 179.412 68.9232C180.346 67.8649 181.904 69.4235 180.971 70.4818C172.132 80.4424 165.289 92.3979 161.312 105.103C160.193 108.591 159.261 112.266 158.704 115.941C158.455 117.187 156.337 116.687 156.523 115.254Z" fill="white"/>
<path d="M172.879 79.0714C176.741 79.0743 180.665 78.1429 184.34 77.0867C185.15 76.9004 185.524 78.1466 184.653 78.3951C180.853 79.5758 176.867 80.4449 172.818 80.5041C172.008 80.4412 172.007 79.0707 172.879 79.0714Z" fill="white"/>
<path d="M169.456 83.493C169.33 81.2502 169.141 78.9451 168.703 76.7644C168.328 74.646 167.828 72.2784 166.456 70.5331C165.895 69.8474 167.14 69.2254 167.577 69.911C168.949 71.7809 169.573 74.2732 169.949 76.5162C170.387 78.8215 170.576 81.2512 170.702 83.6185C170.827 84.3661 169.457 84.3651 169.456 83.493Z" fill="white"/>
<path d="M166.72 90.2186C170.582 89.7232 174.256 88.1686 178.181 88.4831C178.991 88.546 179.054 89.8543 178.182 89.8536C174.382 89.5392 170.77 91.0316 167.033 91.5271C166.721 91.5891 166.347 91.4642 166.222 91.0904C166.097 90.7165 166.409 90.2807 166.72 90.2186Z" fill="white"/>
<path d="M163.297 93.6421C162.608 89.9661 160.675 86.6629 158.368 83.7333C158.18 83.4216 158.367 82.9857 158.616 82.8613C158.927 82.6746 159.301 82.7995 159.488 83.1112C161.796 86.1654 163.792 89.531 164.542 93.3939C164.73 94.0793 163.484 94.4521 163.297 93.6421Z" fill="white"/>
<path d="M182.712 67.1191C183.897 68.3036 183.898 70.2971 182.715 71.4798C181.533 72.6625 179.539 72.661 178.355 71.4765C177.17 70.2919 177.169 68.2985 178.351 67.1157C179.534 65.933 181.527 65.9346 182.712 67.1191Z" fill="white"/>
<path d="M186.207 75.9677C188.639 78.3991 184.904 82.134 182.473 79.7026C180.104 77.3335 183.838 73.5986 186.207 75.9677Z" fill="white"/>
<path d="M180.174 87.4877C182.605 89.9191 178.87 93.654 176.439 91.2226C174.07 88.8535 177.804 85.1186 180.174 87.4877Z" fill="white"/>
<path d="M168.883 68.2294C171.315 70.6608 167.58 74.3957 165.148 71.9643C162.779 69.5952 166.514 65.8603 168.883 68.2294Z" fill="white"/>
<path d="M161.543 81.8045C163.974 84.2359 160.239 87.9708 157.808 85.5394C155.377 83.108 159.111 79.3731 161.543 81.8045Z" fill="white"/>
<path d="M158.579 116.19C157.507 99.4314 149.086 84.1624 138.486 71.4458C135.617 67.9551 132.562 64.651 129.32 61.4091C128.323 60.4116 129.879 58.8554 130.876 59.8529C142.722 71.6983 153.198 85.6607 158.07 101.861C159.506 106.535 160.32 111.332 160.635 116.129C160.885 117.624 158.643 117.623 158.579 116.19Z" fill="white"/>
<path d="M128.952 68.2615C132.877 69.199 137.301 69.5139 140.791 71.7592C141.476 72.1958 140.854 73.3167 140.169 72.8801C136.803 70.6348 132.505 70.4446 128.704 69.5073C127.831 69.382 128.142 68.074 128.952 68.2615Z" fill="white"/>
<path d="M142.726 76.3082C142.91 73.7542 142.223 71.3242 141.661 68.8942C141.098 66.3396 140.847 63.8476 141.53 61.294C141.717 60.4842 143.025 60.7967 142.839 61.6064C141.472 66.5891 144.341 71.3258 144.096 76.3093C144.034 77.1191 142.664 77.118 142.726 76.3082Z" fill="white"/>
<path d="M136.686 80.9756C138.555 80.7278 140.486 80.9162 142.293 81.2291C144.162 81.4797 146.032 81.9795 147.776 82.6038C148.15 82.7287 148.151 83.227 148.026 83.4761C147.84 83.7875 147.404 83.8494 147.154 83.7246C145.472 83.0381 143.727 82.663 141.983 82.4124C140.238 82.1619 138.432 82.0982 136.687 82.2215C136.314 82.2212 136.002 81.9095 136.002 81.5357C136.064 81.2243 136.313 80.9753 136.686 80.9756Z" fill="white"/>
<path d="M151.145 88.8363C151.392 86.3446 151.204 83.9149 151.326 81.4232C151.449 78.9314 151.946 76.5646 153.252 74.3852C153.688 73.7003 154.809 74.3241 154.374 75.009C151.823 79.1809 152.886 84.1031 152.391 88.7127C152.329 89.647 151.083 89.6461 151.145 88.8363Z" fill="white"/>
<path d="M145.292 91.9463C148.282 91.824 151.148 92.9476 154.014 93.6973C154.824 93.8848 154.514 95.1928 153.704 95.0053C150.9 94.3179 148.221 93.1322 145.293 93.3169C144.421 93.3162 144.42 91.9457 145.292 91.9463Z" fill="white"/>
<path d="M131.186 57.2993C132.37 58.4838 132.372 60.4773 131.189 61.66C130.007 62.8427 128.013 62.8412 126.829 61.6566C125.644 60.4721 125.642 58.4786 126.825 57.2959C128.008 56.1132 130.001 56.1147 131.186 57.2993Z" fill="white"/>
<path d="M155.867 72.7674C158.298 75.1988 154.564 78.9337 152.132 76.5023C149.701 74.0709 153.436 70.336 155.867 72.7674Z" fill="white"/>
<path d="M144.02 59.1776C146.452 61.6091 142.717 65.344 140.285 62.9125C137.916 60.5435 141.651 56.8086 144.02 59.1776Z" fill="white"/>
<path d="M130.322 67.3901C132.753 69.8215 129.018 73.5564 126.587 71.1249C124.218 68.7559 127.952 65.021 130.322 67.3901Z" fill="white"/>
<path d="M139.239 79.4202C141.671 81.8516 137.936 85.5865 135.504 83.1551C133.073 80.7237 136.808 76.9888 139.239 79.4202Z" fill="white"/>
<path d="M147.844 90.0174C150.276 92.4488 146.541 96.1837 144.109 93.7523C141.678 91.3209 145.413 87.586 147.844 90.0174Z" fill="white"/>
<path d="M144.647 140.852C123.78 143.265 112.7 155.467 126.852 169.619C140.568 183.335 150.149 166.896 156.306 153.881C147.001 205.081 213.139 177.348 171.379 149.781C191.819 158.518 205.02 151.925 198.777 133.355C192.657 115.036 179.209 124.121 167.939 132.647C199.798 84.3292 122.49 86.201 152.86 127.153C121.99 84.3317 98.0495 140.816 144.647 140.852Z" fill="#014A4F"/>
<path d="M144.648 141.973C135.491 143.025 117.803 148.244 122.236 161.018C123.297 164.072 125.355 166.627 127.599 168.872C129.594 170.867 131.901 172.675 134.642 173.425C139.129 174.674 143.051 171.998 145.977 168.824C150.023 164.404 152.759 158.799 155.309 153.381C155.869 152.198 157.552 153.009 157.366 154.193C156.187 160.858 155.633 168.769 159.064 174.939C161.185 178.678 164.862 181.11 169.036 181.425C173.023 181.677 177.134 180.31 179.997 177.82C183.048 175.144 184.665 171.407 184.163 167.42C183.349 161.252 178.299 156.327 173.624 152.772C172.751 152.149 171.816 151.463 170.881 150.901C169.697 150.091 170.693 148.472 171.939 148.971C179.729 152.279 196.677 156.902 199.034 144.444C199.531 141.828 199.155 138.962 198.467 136.408C197.655 133.355 196.594 130.177 194.598 127.683C193.289 126 191.606 124.691 189.487 124.191C187.431 123.753 185.438 124.125 183.445 124.747C177.902 126.549 173.046 130.408 168.439 133.768C167.567 134.39 166.32 133.144 166.942 132.272C171.111 125.859 175.217 118.262 174.588 110.287C174.273 105.615 171.716 101.564 167.727 99.4425C163.988 97.4461 159.502 97.0689 155.454 98.374C151.53 99.5546 148.293 102.418 147.175 106.404C145.497 112.445 148.617 118.926 151.86 123.913C152.484 124.91 153.17 125.845 153.856 126.78C153.233 127.153 152.611 127.526 151.926 127.837C147.81 122.103 142.51 116.056 135.78 113.435C131.854 111.874 127.742 111.871 124.318 114.173C121.578 116.04 119.837 119.527 119.715 123.016C119.531 127.065 121.341 130.866 124.395 133.672C129.757 138.66 137.731 139.787 144.771 139.855C146.079 139.794 146.018 141.974 144.648 141.973C137.608 141.905 130.007 140.778 124.273 136.413C120.47 133.482 117.788 129.182 117.473 124.26C117.221 120.148 118.837 115.913 121.825 113.175C125.249 110.125 129.983 109.381 134.407 110.568C141.448 112.504 147.121 118.053 151.549 123.601C152.297 124.598 153.045 125.596 153.794 126.593C154.604 127.777 152.736 128.772 151.863 127.65C147.685 121.978 143.63 114.686 144.684 107.399C145.365 102.602 148.602 98.6179 153.085 96.7525C157.445 94.8869 162.615 94.8286 166.977 96.5763C171.776 98.5111 175.33 102.563 176.392 107.61C178.018 115.211 174.785 123.183 171.052 129.659C170.368 130.842 169.621 132.087 168.812 133.27C168.313 132.771 167.815 132.273 167.316 131.774C174.351 126.484 187.052 116.402 195.344 125.067C197.651 127.499 198.961 130.677 200.023 133.855C200.96 136.908 201.647 140.086 201.338 143.262C200.906 148.433 197.919 152.417 192.937 154.033C185.65 156.333 177.425 153.71 170.757 150.901C171.13 150.279 171.503 149.656 171.814 148.971C177.673 152.838 183.969 158.138 185.843 165.241C187.031 169.914 185.851 174.71 182.614 178.321C179.564 181.62 175.018 183.548 170.471 183.731C165.612 183.852 161.062 181.668 158.131 177.741C153.891 172.007 153.76 164.157 154.565 157.368C154.688 156.122 154.937 154.876 155.123 153.693C155.808 154.005 156.431 154.254 157.179 154.504C154.691 159.86 151.892 165.277 148.033 169.76C144.797 173.495 140.314 176.731 135.08 175.855C132.152 175.416 129.597 173.732 127.415 171.8C124.734 169.493 122.303 166.687 120.805 163.447C118.371 158.274 119.052 152.731 122.974 148.56C128.389 142.77 136.984 140.659 144.584 139.793C146.017 139.607 146.018 141.849 144.648 141.973Z" fill="white"/>
<path d="M133.235 125.332C139.718 130.819 147.196 134.811 155.048 138.057C155.858 138.369 155.174 139.552 154.426 139.178C146.512 135.87 138.909 131.877 132.301 126.265C131.615 125.704 132.549 124.77 133.235 125.332Z" fill="white"/>
<path d="M160.402 132.703C160.583 125.041 159.892 117.253 161.319 109.717C161.505 108.907 162.813 109.219 162.627 110.029C161.2 117.441 161.953 125.167 161.772 132.704C161.711 133.514 160.402 133.575 160.402 132.703Z" fill="white"/>
<path d="M166.388 139.56C173.178 139.752 180.03 138.511 186.507 136.648C187.317 136.461 187.691 137.707 186.819 137.956C180.217 139.82 173.241 141.185 166.326 140.993C165.454 140.867 165.515 139.559 166.388 139.56Z" fill="white"/>
<path d="M140.042 147.701C143.778 144.465 148.511 142.849 153.119 141.108C153.929 140.797 154.242 142.105 153.432 142.416C149.072 144.033 144.526 145.586 140.977 148.636C140.355 149.259 139.42 148.324 140.042 147.701Z" fill="white"/>
<path d="M144.448 125.091C148.375 128.146 151.742 131.887 155.669 134.942C156.355 135.503 155.359 136.375 154.735 135.876C150.808 132.82 147.441 129.08 143.514 126.025C142.766 125.526 143.7 124.592 144.448 125.091Z" fill="white"/>
<path d="M138.662 134.991C143.772 136.864 149.006 138.114 154.177 139.551C154.987 139.738 154.677 141.046 153.867 140.859C148.695 139.422 143.399 138.11 138.352 136.299C137.541 135.987 137.852 134.679 138.662 134.991Z" fill="white"/>
<path d="M157.724 133.262C156.848 128.278 155.473 123.417 154.722 118.433C154.597 117.561 155.905 117.25 156.03 118.123C156.781 123.107 158.093 128.029 159.032 132.951C159.157 133.824 157.849 134.134 157.724 133.262Z" fill="white"/>
<path d="M162.956 132.767C164.074 128.408 165.005 123.861 167.12 119.875C167.493 119.128 168.678 119.814 168.242 120.499C166.189 124.422 165.321 128.907 164.202 133.142C164.016 133.952 162.77 133.577 162.956 132.767Z" fill="white"/>
<path d="M166.385 136.57C170.869 135.203 175.104 133.212 179.026 130.661C179.711 130.226 180.398 131.41 179.65 131.783C175.665 134.396 171.306 136.387 166.697 137.754C165.95 138.127 165.575 136.881 166.385 136.57Z" fill="white"/>
<path d="M165.393 142.3C170.751 142.803 175.984 144.177 181.342 144.805C182.215 144.93 181.842 146.175 181.032 146.113C175.861 145.423 170.689 144.111 165.456 143.609C164.584 143.483 164.583 142.238 165.393 142.3Z" fill="white"/>
<path d="M166.383 133.33C168.378 135.325 169.626 138.317 169.566 141.12C169.568 143.861 168.387 147.037 166.395 148.904C164.34 150.834 161.538 152.265 158.61 152.076C155.744 151.949 152.878 150.95 150.821 148.892C148.826 146.897 147.577 143.906 147.638 141.103C147.635 138.362 148.817 135.186 150.809 133.318C152.863 131.389 155.665 129.958 158.593 130.147C161.459 130.274 164.263 131.211 166.383 133.33Z" fill="white"/>
<path d="M160.59 135.257C163.022 137.688 159.287 141.423 156.855 138.992C154.486 136.623 158.221 132.888 160.59 135.257Z" fill="#014A4F"/>
<path d="M154.24 140.236C156.235 142.231 153.123 145.343 151.128 143.348C149.133 141.353 152.245 138.241 154.24 140.236Z" fill="#014A4F"/>
<path d="M166.2 139.248C167.697 140.745 165.331 143.11 163.835 141.614C162.401 140.055 164.704 137.752 166.2 139.248Z" fill="#014A4F"/>
</g>
</g>
</svg>
