<svg width="36" height="36" viewBox="0 0 36 36" fill="none" xmlns="http://www.w3.org/2000/svg">
<path d="M32.7628 35.8199C32.6753 35.8199 32.5878 35.8199 32.5878 35.7299L30.5753 34.1999C30.3128 34.0199 30.0503 33.9299 29.7878 33.9299C29.5253 33.9299 29.1753 34.0199 29.0003 34.1999L26.9878 35.7299C26.9003 35.8199 26.8128 35.8199 26.8128 35.8199C26.6378 35.8199 26.4628 35.6399 26.3753 35.4599C26.3753 35.4599 26.3753 35.3699 26.3753 35.2799L27.1628 32.8499C27.3378 32.2199 27.1628 31.5899 26.6378 31.2299L24.6253 29.6999C24.4503 29.5199 24.4503 29.2499 24.5378 29.2499C24.5378 29.1599 24.6253 28.9799 24.8878 28.9799H27.4253C28.0378 28.9799 28.5628 28.6199 28.7378 28.0799L29.5253 25.6499C29.6128 25.3799 29.7878 25.3799 29.8753 25.3799C29.9628 25.3799 30.1378 25.3799 30.2253 25.6499L31.0128 28.0799C31.1878 28.6199 31.7128 28.9799 32.3253 28.9799H34.8628C35.1253 28.9799 35.2128 29.1599 35.2128 29.2499C35.2128 29.3399 35.3003 29.6099 35.1253 29.6999L33.1128 31.2299C32.5878 31.5899 32.4128 32.2199 32.5878 32.8499L33.3753 35.2799V35.3699C33.2003 35.7299 33.0253 35.8199 32.7628 35.8199ZM9.40033 35.8199C9.31283 35.8199 9.22533 35.8199 9.22533 35.7299L7.12533 34.2899C6.86283 34.1099 6.60033 34.0199 6.33783 34.0199C6.07533 34.0199 5.72533 34.1099 5.55033 34.2899L3.53783 35.8199C3.45033 35.9099 3.36283 35.9099 3.36283 35.9099C3.18783 35.9099 3.01283 35.7299 2.92533 35.5499V35.4599L3.71283 33.0299C3.88783 32.3999 3.71283 31.7699 3.18783 31.4099L1.17533 29.8799C0.912828 29.6999 1.00033 29.4299 1.00033 29.3399C1.00033 29.2499 1.08783 29.0699 1.35033 29.0699H3.88783C4.50033 29.0699 5.02533 28.7099 5.20033 28.1699L5.98783 25.7399C6.07533 25.4699 6.25033 25.4699 6.33783 25.4699C6.42533 25.4699 6.60033 25.4699 6.68783 25.7399L7.47533 28.1699C7.65033 28.7099 8.17533 29.0699 8.78783 29.0699H11.3253C11.5878 29.0699 11.6753 29.2499 11.6753 29.3399C11.6753 29.4299 11.7628 29.6999 11.5878 29.7899L9.57533 31.3199C9.05033 31.6799 8.87533 32.3099 9.05033 32.8499L9.83783 35.2799V35.3699C9.75033 35.7299 9.57533 35.8199 9.40033 35.8199ZM21.1253 30.9599C21.0378 30.9599 20.9503 30.9599 20.9503 30.8699L18.9378 29.3399C18.6753 29.1599 18.4128 29.0699 18.1503 29.0699C17.8878 29.0699 17.5378 29.1599 17.3628 29.3399L15.3503 30.8699C15.2628 30.9599 15.1753 30.9599 15.1753 30.9599C15.0003 30.9599 14.8253 30.7799 14.7378 30.5999V30.5099L15.5253 28.0799C15.7003 27.4499 15.5253 26.8199 15.0003 26.4599L12.9878 24.9299C12.8128 24.7499 12.8128 24.4799 12.9003 24.4799C12.9003 24.3899 12.9878 24.2099 13.2503 24.2099H15.7878C16.4003 24.2099 16.9253 23.8499 17.1003 23.3099L17.8878 20.8799C17.9753 20.6099 18.1503 20.6099 18.2378 20.6099C18.3253 20.6099 18.5003 20.6099 18.5878 20.8799L19.3753 23.3099C19.5503 23.8499 20.0753 24.2099 20.6878 24.2099H23.2253C23.4878 24.2099 23.5753 24.3899 23.5753 24.4799C23.5753 24.5699 23.6628 24.8399 23.4878 24.9299L21.1253 26.4599C20.6003 26.8199 20.4253 27.4499 20.6003 28.0799L21.3878 30.5099V30.5999C21.4753 30.7799 21.3003 30.9599 21.1253 30.9599ZM6.95033 21.9599C6.77533 21.9599 6.60033 21.8699 6.51283 21.7799C6.07533 21.5999 5.98783 20.9699 6.25033 20.6099C8.00033 17.9999 10.3628 16.0199 13.3378 14.9399L14.2128 14.6699L13.5128 14.0399C11.8503 12.5999 10.8878 10.5299 10.8878 8.27994C10.8878 4.13994 14.1253 0.809937 18.1503 0.809937C22.1753 0.809937 25.4128 4.13994 25.4128 8.27994C25.4128 10.5299 24.4503 12.5999 22.7878 14.0399L22.0878 14.5799L22.9628 14.8499C25.8503 15.9299 28.2128 17.8199 29.9628 20.4299C30.0503 20.6099 30.1378 20.8799 30.0503 21.0599C29.9628 21.2399 29.8753 21.5099 29.7003 21.5999C29.5253 21.6899 29.3503 21.7799 29.2628 21.7799C29.0003 21.7799 28.7378 21.5999 28.5628 21.4199C26.2878 17.9099 22.4378 15.7499 18.2378 15.7499C14.1253 15.7499 10.1878 17.9099 7.91283 21.4199C7.47533 21.8699 7.21283 21.9599 6.95033 21.9599ZM18.0628 2.69994C15.0003 2.69994 12.5503 5.21994 12.5503 8.36994C12.5503 11.5199 15.0003 14.0399 18.0628 14.0399C21.1253 14.0399 23.5753 11.5199 23.5753 8.36994C23.5753 5.21994 21.0378 2.69994 18.0628 2.69994Z" fill="#F4A100"/>
</svg>
