<svg width="60" height="58" viewBox="0 0 60 58" fill="none" xmlns="http://www.w3.org/2000/svg">
<path d="M59.9274 32.4471C59.484 29.3754 57.0709 26.9623 53.9992 26.519V24.701C53.9992 19.6851 50.1863 15.6011 45.4993 15.6011C40.9474 15.6011 37.1365 19.5611 36.9995 24.429H37.0575L36.9995 24.439V44.1457C36.9995 50.4456 32.2895 55.5615 26.4996 55.5615C20.7097 55.5615 15.9998 50.4386 15.9998 44.1457V42.4387C17.4497 42.4387 18.9997 41.3878 18.9997 38.4388V35.9238C25.4176 34.2829 29.9996 28.7719 29.9996 22.524V20.4391H27.9996L27.9576 7.42424C27.9431 5.01515 26.2144 2.95818 23.8437 2.52931C23.3323 0.962713 21.6477 0.107225 20.081 0.618718C18.5144 1.13009 17.6589 2.81469 18.1704 4.38141C18.6817 5.94802 20.3663 6.8035 21.9331 6.29201C22.7719 6.01814 23.4465 5.38702 23.7757 4.56829C25.0568 4.93278 25.9442 6.09826 25.9546 7.43024L25.9996 20.4391H23.9997V22.553C23.9199 26.0313 21.5879 29.0541 18.2437 30.0139C16.4544 30.5817 14.5332 30.5817 12.7438 30.0139C9.40349 29.0508 7.07677 26.0286 6.9999 22.553V20.4391H3.99994V7.43924C4.00569 6.08764 4.91468 4.90666 6.21991 4.55529C6.82853 6.10464 8.57787 6.86713 10.1272 6.25851C11.6766 5.64989 12.4391 3.90042 11.8305 2.35119C11.2218 0.801965 9.47236 0.0393511 7.92313 0.647967C7.08365 0.977837 6.43591 1.6662 6.15791 2.52431C3.76132 2.93381 2.0066 5.0079 1.99997 7.43924V20.4391H0V22.519C0 28.7739 4.58493 34.2869 10.9998 35.9238V38.4388C10.9998 41.3878 12.5498 42.4387 13.9998 42.4387V44.1457C13.9998 51.5456 19.6067 57.5615 26.4996 57.5615C33.3925 57.5615 38.9994 51.5386 38.9994 44.1457V24.487C39.0994 20.6921 42.0174 17.6041 45.4993 17.6041C49.0833 17.6041 51.9992 20.788 51.9992 24.704V26.519C48.1729 27.0712 45.5188 30.6208 46.0711 34.4471C46.6233 38.2734 50.1729 40.9275 53.9992 40.3753C57.8255 39.823 60.4796 36.2733 59.9274 32.4471ZM20.9997 4.43929C20.4475 4.43929 19.9997 3.99154 19.9997 3.4393C19.9997 2.88706 20.4475 2.43932 20.9997 2.43932C21.5519 2.43932 21.9997 2.88706 21.9997 3.4393C21.9997 3.99154 21.5519 4.43929 20.9997 4.43929ZM8.99987 2.43932C9.55211 2.43932 9.99985 2.88706 9.99985 3.4393C9.99985 3.99154 9.55211 4.43929 8.99987 4.43929C8.44763 4.43929 7.99988 3.99154 7.99988 3.4393C7.99988 2.88706 8.44763 2.43932 8.99987 2.43932ZM1.99997 22.519V22.439H4.99993V22.553C5.07493 26.8993 7.96651 30.6924 12.1378 31.9159C14.3237 32.608 16.6699 32.608 18.8557 31.9159C23.029 30.694 25.9232 26.9008 25.9996 22.553V22.439H27.9996V22.519C27.9996 28.0819 23.7117 32.9769 17.7997 34.1609C16.4115 34.4389 14.9895 34.5086 13.5808 34.3679C13.1171 34.3229 12.6561 34.2531 12.1998 34.1589C6.28791 32.9769 1.99997 28.0819 1.99997 22.519ZM13.9998 40.4388C13.0998 40.4388 12.9998 39.0388 12.9998 38.4388V36.3168C13.0798 36.3268 13.1618 36.3308 13.2428 36.3388C13.3428 36.3498 13.4428 36.3578 13.5428 36.3668C14.0158 36.4088 14.4928 36.4368 14.9738 36.4378H15.0238C15.5038 36.4378 15.9798 36.4088 16.4498 36.3668C16.5498 36.3578 16.6558 36.3498 16.7588 36.3388C16.8378 36.3298 16.9198 36.3268 16.9988 36.3168V38.4388C16.9988 39.0388 16.8988 40.4388 15.9988 40.4388H13.9998ZM52.9992 38.4388C50.2379 38.4388 47.9993 36.2002 47.9993 33.4389C47.9993 30.6775 50.2379 28.4389 52.9992 28.4389C55.7606 28.4389 57.9992 30.6775 57.9992 33.4389C57.9959 36.199 55.7592 38.4355 52.9992 38.4388Z" fill="white"/>
<path d="M59.9274 32.4471C59.484 29.3754 57.0709 26.9623 53.9992 26.519V24.701C53.9992 19.6851 50.1863 15.6011 45.4993 15.6011C40.9474 15.6011 37.1365 19.5611 36.9995 24.429H37.0575L36.9995 24.439V44.1457C36.9995 50.4456 32.2895 55.5615 26.4996 55.5615C20.7097 55.5615 15.9998 50.4386 15.9998 44.1457V42.4387C17.4497 42.4387 18.9997 41.3878 18.9997 38.4388V35.9238C25.4176 34.2829 29.9996 28.7719 29.9996 22.524V20.4391H27.9996L27.9576 7.42424C27.9431 5.01515 26.2144 2.95818 23.8437 2.52931C23.3323 0.962713 21.6477 0.107225 20.081 0.618718C18.5144 1.13009 17.6589 2.81469 18.1704 4.38141C18.6817 5.94802 20.3663 6.8035 21.9331 6.29201C22.7719 6.01814 23.4465 5.38702 23.7757 4.56829C25.0568 4.93278 25.9442 6.09826 25.9546 7.43024L25.9996 20.4391H23.9997V22.553C23.9199 26.0313 21.5879 29.0541 18.2437 30.0139C16.4544 30.5817 14.5332 30.5817 12.7438 30.0139C9.40349 29.0508 7.07677 26.0286 6.9999 22.553V20.4391H3.99994V7.43924C4.00569 6.08764 4.91468 4.90666 6.21991 4.55529C6.82853 6.10464 8.57787 6.86713 10.1272 6.25851C11.6766 5.64989 12.4391 3.90042 11.8305 2.35119C11.2218 0.801965 9.47236 0.0393511 7.92313 0.647967C7.08365 0.977837 6.43591 1.6662 6.15791 2.52431C3.76132 2.93381 2.0066 5.0079 1.99997 7.43924V20.4391H0V22.519C0 28.7739 4.58493 34.2869 10.9998 35.9238V38.4388C10.9998 41.3878 12.5498 42.4387 13.9998 42.4387V44.1457C13.9998 51.5456 19.6067 57.5615 26.4996 57.5615C33.3925 57.5615 38.9994 51.5386 38.9994 44.1457V24.487C39.0994 20.6921 42.0174 17.6041 45.4993 17.6041C49.0833 17.6041 51.9992 20.788 51.9992 24.704V26.519C48.1729 27.0712 45.5188 30.6208 46.0711 34.4471C46.6233 38.2734 50.1729 40.9275 53.9992 40.3753C57.8255 39.823 60.4796 36.2733 59.9274 32.4471ZM20.9997 4.43929C20.4475 4.43929 19.9997 3.99154 19.9997 3.4393C19.9997 2.88706 20.4475 2.43932 20.9997 2.43932C21.5519 2.43932 21.9997 2.88706 21.9997 3.4393C21.9997 3.99154 21.5519 4.43929 20.9997 4.43929ZM8.99987 2.43932C9.55211 2.43932 9.99985 2.88706 9.99985 3.4393C9.99985 3.99154 9.55211 4.43929 8.99987 4.43929C8.44763 4.43929 7.99988 3.99154 7.99988 3.4393C7.99988 2.88706 8.44763 2.43932 8.99987 2.43932ZM1.99997 22.519V22.439H4.99993V22.553C5.07493 26.8993 7.96651 30.6924 12.1378 31.9159C14.3237 32.608 16.6699 32.608 18.8557 31.9159C23.029 30.694 25.9232 26.9008 25.9996 22.553V22.439H27.9996V22.519C27.9996 28.0819 23.7117 32.9769 17.7997 34.1609C16.4115 34.4389 14.9895 34.5086 13.5808 34.3679C13.1171 34.3229 12.6561 34.2531 12.1998 34.1589C6.28791 32.9769 1.99997 28.0819 1.99997 22.519ZM13.9998 40.4388C13.0998 40.4388 12.9998 39.0388 12.9998 38.4388V36.3168C13.0798 36.3268 13.1618 36.3308 13.2428 36.3388C13.3428 36.3498 13.4428 36.3578 13.5428 36.3668C14.0158 36.4088 14.4928 36.4368 14.9738 36.4378H15.0238C15.5038 36.4378 15.9798 36.4088 16.4498 36.3668C16.5498 36.3578 16.6558 36.3498 16.7588 36.3388C16.8378 36.3298 16.9198 36.3268 16.9988 36.3168V38.4388C16.9988 39.0388 16.8988 40.4388 15.9988 40.4388H13.9998ZM52.9992 38.4388C50.2379 38.4388 47.9993 36.2002 47.9993 33.4389C47.9993 30.6775 50.2379 28.4389 52.9992 28.4389C55.7606 28.4389 57.9992 30.6775 57.9992 33.4389C57.9959 36.199 55.7592 38.4355 52.9992 38.4388Z" fill="white"/>
</svg>
