<svg width="33" height="36" viewBox="0 0 33 36" fill="none" xmlns="http://www.w3.org/2000/svg">
<path d="M24.2619 23.6054C27.6319 22.7193 31.101 24.7869 31.9931 28.1344C32.8851 31.4819 30.8037 34.9279 27.4337 35.814C23.469 36.7985 19.6034 33.7464 19.6034 29.7097C19.5043 26.756 21.4866 24.2946 24.2619 23.6054Z" fill="#F4A100"/>
<path d="M22.7499 30.51H24.9099V32.67C24.9099 33.12 25.2699 33.48 25.7199 33.48C26.1699 33.48 26.5299 33.12 26.5299 32.67V30.51H28.6899C29.1399 30.51 29.4999 30.15 29.4999 29.7C29.4999 29.25 29.1399 28.89 28.6899 28.89H26.5299V26.73C26.5299 26.28 26.1699 25.92 25.7199 25.92C25.2699 25.92 24.9099 26.28 24.9099 26.73V28.89H22.7499C22.2999 28.89 21.9399 29.25 21.9399 29.7C21.9399 30.15 22.2999 30.51 22.7499 30.51Z" fill="#002C2F"/>
<path d="M1.59995 34.2C1.14995 34.2 0.699951 33.75 0.699951 33.3V29.43C0.699951 24.03 4.11995 19.26 9.24995 17.46C7.80995 16.65 6.54995 15.39 5.73995 13.86C3.57995 9.54002 5.28995 4.14002 9.51995 1.89002C10.78 1.26002 12.22 0.900024 13.57 0.900024C16.9 0.900024 19.87 2.70002 21.4 5.67002C22.48 7.74002 22.75 10.17 22.03 12.42C21.31 14.58 19.87 16.38 17.98 17.46C20.68 18.36 23.02 20.16 24.55 22.59L24.64 22.77L22.84 23.31L22.75 23.22C20.68 20.34 17.44 18.63 13.93 18.63H13.3C7.35995 18.63 2.49995 23.49 2.49995 29.43V32.4H19.06L20.05 34.2H1.59995ZM13.57 2.79002C9.69995 2.79002 6.63995 5.94002 6.63995 9.81002C6.63995 13.68 9.78995 16.83 13.57 16.83C17.44 16.83 20.59 13.68 20.59 9.81002C20.59 5.94002 17.53 2.79002 13.57 2.79002Z" fill="#F4A100"/>
</svg>
