<svg width="60" height="60" viewBox="0 0 60 60" fill="none" xmlns="http://www.w3.org/2000/svg">
<path d="M19.7254 19.6149C19.9336 19.4735 20.1111 19.2915 20.2474 19.08C20.3838 18.8684 20.4761 18.6316 20.519 18.3836C20.5618 18.1356 20.5543 17.8815 20.4969 17.6365C20.4395 17.3915 20.3334 17.1605 20.1848 16.9574C20.0362 16.7542 19.8483 16.5831 19.6321 16.4541C19.416 16.3252 19.1761 16.241 18.9268 16.2068C18.6775 16.1725 18.4238 16.1887 18.1809 16.2546C17.938 16.3204 17.7108 16.4345 17.5129 16.5899L19.7254 19.6149ZM10.6254 44.9999L8.77295 45.2949C8.83972 45.7077 9.04256 46.0863 9.34921 46.3706C9.65587 46.6549 10.0488 46.8285 10.4654 46.8638C10.8821 46.8992 11.2986 46.7942 11.6487 46.5657C11.9989 46.3371 12.2626 45.9981 12.3979 45.6024L10.6254 44.9999ZM26.3304 33.5974C26.8019 33.4383 27.1908 33.0984 27.4116 32.6526C27.6324 32.2067 27.6671 31.6914 27.5079 31.2199C27.3488 30.7485 27.0089 30.3596 26.5631 30.1388C26.1172 29.918 25.6019 29.8833 25.1304 30.0424L26.3304 33.5974ZM34.6854 10.4024L35.2929 11.1674L38.2329 8.83994L37.6255 8.07494L34.6854 10.4024ZM40.1105 13.7149L41.0604 13.7724L41.2929 10.0299L40.3429 9.97244L40.1105 13.7149ZM43.403 18.6049L42.8955 19.4299L46.0879 21.3974L46.5979 20.5724L43.403 18.6049ZM42.1029 24.8549L42.3504 25.8049L45.978 24.8574L45.728 23.9049L42.1029 24.8549ZM38.8379 29.5874L37.9179 29.3324L36.9179 32.9474L37.8354 33.2024L38.8379 29.5874ZM32.5555 30.1924L31.7605 30.7224L33.8405 33.8424L34.6354 33.3124L32.5555 30.1924ZM27.2454 28.2274L27.1854 27.2449L23.4404 27.4749L23.5029 28.4574L27.2454 28.2274ZM24.7379 22.3424L23.9979 21.7174L21.5779 24.5799L22.3179 25.2049L24.7379 22.3424ZM24.7204 16.3924L25.6029 16.0399L24.2104 12.5574L23.3279 12.9099L24.7204 16.3924ZM29.3854 12.1174L29.7229 11.1999L26.2029 9.90494L25.8679 10.8199L29.3854 12.1174ZM25.6029 16.0399C26.4204 15.7149 27.3679 15.3749 28.0679 14.6474L25.3629 12.0474C25.3854 12.0274 25.3754 12.0524 25.2054 12.1374C24.879 12.2894 24.5471 12.4295 24.2104 12.5574L25.6029 16.0399ZM25.8679 10.8199C25.7437 11.1715 25.6086 11.5192 25.4629 11.8624C25.3754 12.0499 25.3454 12.0674 25.3629 12.0474L28.0679 14.6474C28.7604 13.9274 29.0729 12.9674 29.3854 12.1174L25.8679 10.8199ZM23.9979 21.7149C22.5204 20.4649 21.5779 19.6649 21.0004 19.0099C20.83 18.8329 20.6867 18.6316 20.5754 18.4124C20.5579 18.3724 20.5554 18.3574 20.5579 18.3624V18.3774L16.8479 17.8374C16.6229 19.3624 17.3729 20.5649 18.1879 21.4924C18.9904 22.3999 20.1929 23.4099 21.5779 24.5799L23.9979 21.7149ZM23.3254 12.9099C21.6804 13.5674 20.2404 14.1349 19.2079 14.7449C18.1454 15.3699 17.0729 16.2949 16.8479 17.8374L20.5579 18.3774C20.5579 18.3774 20.5554 18.3899 20.5479 18.4024L20.5654 18.3799C20.7253 18.2178 20.9091 18.0812 21.1104 17.9749C21.8354 17.5499 22.9554 17.0974 24.7204 16.3924L23.3254 12.9099ZM27.1804 27.2449C27.1254 26.3224 27.0979 25.3249 26.6554 24.4374L23.2979 26.1074L23.3104 26.1449C23.329 26.2103 23.3415 26.2773 23.3479 26.3449C23.3829 26.5849 23.4029 26.9074 23.4379 27.4749L27.1804 27.2449ZM22.3154 25.2049C22.7404 25.5674 22.9804 25.7699 23.1479 25.9374C23.2229 26.0124 23.2604 26.0549 23.2804 26.0799L23.2979 26.1074L26.6554 24.4374C26.2104 23.5424 25.4304 22.9274 24.7354 22.3424L22.3154 25.2049ZM31.7554 30.7224C30.1654 31.7824 29.1554 32.4474 28.3954 32.8049C27.6554 33.1499 27.6654 32.9549 27.8329 33.0424L26.0754 36.3549C27.4804 37.0999 28.8754 36.7174 29.9804 36.2049C31.0629 35.6974 32.3554 34.8299 33.8354 33.8424L31.7554 30.7224ZM23.5004 28.4574C23.6129 30.2974 23.7079 31.8824 23.9529 33.0799C24.2004 34.2799 24.7004 35.6274 26.0754 36.3549L27.8329 33.0424C27.9729 33.1174 27.8029 33.1849 27.6254 32.3224C27.4454 31.4524 27.3679 30.1899 27.2454 28.2274L23.5004 28.4574ZM37.9179 29.3324C37.0729 29.0999 36.1005 28.7874 35.1029 28.9474L35.6979 32.6499C35.6579 32.6574 35.6754 32.6399 35.8654 32.6749C36.0854 32.7199 36.3804 32.7999 36.9154 32.9474L37.9179 29.3324ZM34.6329 33.3124C35.0929 33.0049 35.3479 32.8374 35.5455 32.7274C35.7129 32.6349 35.7354 32.6449 35.6954 32.6524L35.1029 28.9474C34.1054 29.1074 33.2829 29.7049 32.5529 30.1924L34.6329 33.3124ZM42.3479 25.8074C42.8429 27.7074 43.1604 28.9324 43.2605 29.8149C43.3605 30.6899 43.1754 30.6774 43.2854 30.5649L45.9879 33.1649C47.0654 32.0424 47.1255 30.6049 46.9879 29.3899C46.8479 28.1774 46.4404 26.6399 45.9754 24.8574L42.3479 25.8074ZM37.833 33.2049C39.5479 33.6799 41.0479 34.0974 42.2329 34.2399C43.4454 34.3849 44.888 34.3099 45.9879 33.1649L43.2854 30.5649C43.4154 30.4299 43.4854 30.6124 42.6779 30.5149C41.8429 30.4149 40.6779 30.0974 38.8354 29.5899L37.8354 33.2024L37.833 33.2049ZM42.8929 19.4299C42.4179 20.2049 41.8679 21.0299 41.7229 22.0199L45.4329 22.5624C45.4329 22.5624 45.4329 22.5524 45.4429 22.5274C45.4659 22.4675 45.4926 22.409 45.5229 22.3524C45.6998 22.0275 45.8883 21.7089 46.0879 21.3974L42.8929 19.4299ZM45.728 23.9049C45.6265 23.5414 45.5348 23.1745 45.458 22.8049C45.4451 22.7372 45.4368 22.6688 45.4329 22.5999V22.5624L41.7229 22.0199C41.5779 23.0024 41.8655 23.9599 42.0979 24.8524L45.7255 23.9024L45.728 23.9049ZM41.0604 13.7724C42.9579 13.8924 44.1579 13.9724 44.9779 14.1499C45.2019 14.1882 45.4186 14.2608 45.6204 14.3649C45.6504 14.3824 45.6529 14.3899 45.6454 14.3799L45.6305 14.3574L48.9854 12.6874C48.2904 11.2899 46.9804 10.7499 45.7754 10.4874C44.6054 10.2324 43.0604 10.1399 41.2929 10.0299L41.0604 13.7724ZM46.5979 20.5724C47.5479 19.0274 48.3704 17.6924 48.8504 16.5774C49.3379 15.4424 49.6754 14.0699 48.9854 12.6874L45.6279 14.3574L45.6255 14.3449V14.3974C45.5872 14.6404 45.513 14.8763 45.4054 15.0974C45.0605 15.8974 44.4179 16.9574 43.403 18.6049L46.5979 20.5699V20.5724ZM35.2929 11.1674C35.8529 11.8774 36.4504 12.6924 37.3304 13.1624L39.0879 9.84994C39.1129 9.86244 39.0804 9.85494 38.9379 9.70494C38.6923 9.42477 38.4563 9.13627 38.2304 8.83994L35.2929 11.1674ZM40.3429 9.97244C39.9837 9.95625 39.6226 9.92707 39.2654 9.88494C39.0805 9.85744 39.0604 9.83494 39.0879 9.84994L37.3304 13.1624C38.2254 13.6374 39.2304 13.6599 40.1079 13.7124L40.3429 9.97244ZM37.6255 8.07494C36.4954 6.64494 35.5179 5.40244 34.6379 4.57494C33.7554 3.74244 32.5504 2.91994 30.9854 3.16994L31.5779 6.87244C31.3779 6.90494 31.438 6.70994 32.0654 7.30494C32.6979 7.89994 33.4754 8.87494 34.6854 10.4049L37.6255 8.07494ZM29.7254 11.1999C30.4004 9.36994 30.8354 8.19994 31.2504 7.43494C31.6629 6.67494 31.7804 6.83994 31.5779 6.87244L30.9854 3.16994C29.4204 3.41994 28.5329 4.57994 27.9529 5.64494C27.3779 6.70744 26.8354 8.19494 26.2054 9.90494L29.7254 11.1999ZM17.5104 16.5874C10.9929 21.3549 6.37045 30.2874 8.77045 45.2949L12.4729 44.7049C10.2479 30.7899 14.5679 23.3874 19.7254 19.6149L17.5129 16.5899L17.5104 16.5874ZM12.3979 45.6024C14.1879 40.3274 19.7579 35.8124 26.3304 33.5974L25.1279 30.0424C17.9179 32.4749 11.1479 37.6174 8.84545 44.3974L12.3979 45.6024Z" fill="white"/>
<path d="M19.7254 19.6149C19.9336 19.4735 20.1111 19.2915 20.2474 19.08C20.3838 18.8684 20.4761 18.6316 20.519 18.3836C20.5618 18.1356 20.5543 17.8815 20.4969 17.6365C20.4395 17.3915 20.3334 17.1605 20.1848 16.9574C20.0362 16.7542 19.8483 16.5831 19.6321 16.4541C19.416 16.3252 19.1761 16.241 18.9268 16.2068C18.6775 16.1725 18.4238 16.1887 18.1809 16.2546C17.938 16.3204 17.7108 16.4345 17.5129 16.5899L19.7254 19.6149ZM10.6254 44.9999L8.77295 45.2949C8.83972 45.7077 9.04256 46.0863 9.34921 46.3706C9.65587 46.6549 10.0488 46.8285 10.4654 46.8638C10.8821 46.8992 11.2986 46.7942 11.6487 46.5657C11.9989 46.3371 12.2626 45.9981 12.3979 45.6024L10.6254 44.9999ZM26.3304 33.5974C26.8019 33.4383 27.1908 33.0984 27.4116 32.6526C27.6324 32.2067 27.6671 31.6914 27.5079 31.2199C27.3488 30.7485 27.0089 30.3596 26.5631 30.1388C26.1172 29.918 25.6019 29.8833 25.1304 30.0424L26.3304 33.5974ZM34.6854 10.4024L35.2929 11.1674L38.2329 8.83994L37.6255 8.07494L34.6854 10.4024ZM40.1105 13.7149L41.0604 13.7724L41.2929 10.0299L40.3429 9.97244L40.1105 13.7149ZM43.403 18.6049L42.8955 19.4299L46.0879 21.3974L46.5979 20.5724L43.403 18.6049ZM42.1029 24.8549L42.3504 25.8049L45.978 24.8574L45.728 23.9049L42.1029 24.8549ZM38.8379 29.5874L37.9179 29.3324L36.9179 32.9474L37.8354 33.2024L38.8379 29.5874ZM32.5555 30.1924L31.7605 30.7224L33.8405 33.8424L34.6354 33.3124L32.5555 30.1924ZM27.2454 28.2274L27.1854 27.2449L23.4404 27.4749L23.5029 28.4574L27.2454 28.2274ZM24.7379 22.3424L23.9979 21.7174L21.5779 24.5799L22.3179 25.2049L24.7379 22.3424ZM24.7204 16.3924L25.6029 16.0399L24.2104 12.5574L23.3279 12.9099L24.7204 16.3924ZM29.3854 12.1174L29.7229 11.1999L26.2029 9.90494L25.8679 10.8199L29.3854 12.1174ZM25.6029 16.0399C26.4204 15.7149 27.3679 15.3749 28.0679 14.6474L25.3629 12.0474C25.3854 12.0274 25.3754 12.0524 25.2054 12.1374C24.879 12.2894 24.5471 12.4295 24.2104 12.5574L25.6029 16.0399ZM25.8679 10.8199C25.7437 11.1715 25.6086 11.5192 25.4629 11.8624C25.3754 12.0499 25.3454 12.0674 25.3629 12.0474L28.0679 14.6474C28.7604 13.9274 29.0729 12.9674 29.3854 12.1174L25.8679 10.8199ZM23.9979 21.7149C22.5204 20.4649 21.5779 19.6649 21.0004 19.0099C20.83 18.8329 20.6867 18.6316 20.5754 18.4124C20.5579 18.3724 20.5554 18.3574 20.5579 18.3624V18.3774L16.8479 17.8374C16.6229 19.3624 17.3729 20.5649 18.1879 21.4924C18.9904 22.3999 20.1929 23.4099 21.5779 24.5799L23.9979 21.7149ZM23.3254 12.9099C21.6804 13.5674 20.2404 14.1349 19.2079 14.7449C18.1454 15.3699 17.0729 16.2949 16.8479 17.8374L20.5579 18.3774C20.5579 18.3774 20.5554 18.3899 20.5479 18.4024L20.5654 18.3799C20.7253 18.2178 20.9091 18.0812 21.1104 17.9749C21.8354 17.5499 22.9554 17.0974 24.7204 16.3924L23.3254 12.9099ZM27.1804 27.2449C27.1254 26.3224 27.0979 25.3249 26.6554 24.4374L23.2979 26.1074L23.3104 26.1449C23.329 26.2103 23.3415 26.2773 23.3479 26.3449C23.3829 26.5849 23.4029 26.9074 23.4379 27.4749L27.1804 27.2449ZM22.3154 25.2049C22.7404 25.5674 22.9804 25.7699 23.1479 25.9374C23.2229 26.0124 23.2604 26.0549 23.2804 26.0799L23.2979 26.1074L26.6554 24.4374C26.2104 23.5424 25.4304 22.9274 24.7354 22.3424L22.3154 25.2049ZM31.7554 30.7224C30.1654 31.7824 29.1554 32.4474 28.3954 32.8049C27.6554 33.1499 27.6654 32.9549 27.8329 33.0424L26.0754 36.3549C27.4804 37.0999 28.8754 36.7174 29.9804 36.2049C31.0629 35.6974 32.3554 34.8299 33.8354 33.8424L31.7554 30.7224ZM23.5004 28.4574C23.6129 30.2974 23.7079 31.8824 23.9529 33.0799C24.2004 34.2799 24.7004 35.6274 26.0754 36.3549L27.8329 33.0424C27.9729 33.1174 27.8029 33.1849 27.6254 32.3224C27.4454 31.4524 27.3679 30.1899 27.2454 28.2274L23.5004 28.4574ZM37.9179 29.3324C37.0729 29.0999 36.1005 28.7874 35.1029 28.9474L35.6979 32.6499C35.6579 32.6574 35.6754 32.6399 35.8654 32.6749C36.0854 32.7199 36.3804 32.7999 36.9154 32.9474L37.9179 29.3324ZM34.6329 33.3124C35.0929 33.0049 35.3479 32.8374 35.5455 32.7274C35.7129 32.6349 35.7354 32.6449 35.6954 32.6524L35.1029 28.9474C34.1054 29.1074 33.2829 29.7049 32.5529 30.1924L34.6329 33.3124ZM42.3479 25.8074C42.8429 27.7074 43.1604 28.9324 43.2605 29.8149C43.3605 30.6899 43.1754 30.6774 43.2854 30.5649L45.9879 33.1649C47.0654 32.0424 47.1255 30.6049 46.9879 29.3899C46.8479 28.1774 46.4404 26.6399 45.9754 24.8574L42.3479 25.8074ZM37.833 33.2049C39.5479 33.6799 41.0479 34.0974 42.2329 34.2399C43.4454 34.3849 44.888 34.3099 45.9879 33.1649L43.2854 30.5649C43.4154 30.4299 43.4854 30.6124 42.6779 30.5149C41.8429 30.4149 40.6779 30.0974 38.8354 29.5899L37.8354 33.2024L37.833 33.2049ZM42.8929 19.4299C42.4179 20.2049 41.8679 21.0299 41.7229 22.0199L45.4329 22.5624C45.4329 22.5624 45.4329 22.5524 45.4429 22.5274C45.4659 22.4675 45.4926 22.409 45.5229 22.3524C45.6998 22.0275 45.8883 21.7089 46.0879 21.3974L42.8929 19.4299ZM45.728 23.9049C45.6265 23.5414 45.5348 23.1745 45.458 22.8049C45.4451 22.7372 45.4368 22.6688 45.4329 22.5999V22.5624L41.7229 22.0199C41.5779 23.0024 41.8655 23.9599 42.0979 24.8524L45.7255 23.9024L45.728 23.9049ZM41.0604 13.7724C42.9579 13.8924 44.1579 13.9724 44.9779 14.1499C45.2019 14.1882 45.4186 14.2608 45.6204 14.3649C45.6504 14.3824 45.6529 14.3899 45.6454 14.3799L45.6305 14.3574L48.9854 12.6874C48.2904 11.2899 46.9804 10.7499 45.7754 10.4874C44.6054 10.2324 43.0604 10.1399 41.2929 10.0299L41.0604 13.7724ZM46.5979 20.5724C47.5479 19.0274 48.3704 17.6924 48.8504 16.5774C49.3379 15.4424 49.6754 14.0699 48.9854 12.6874L45.6279 14.3574L45.6255 14.3449V14.3974C45.5872 14.6404 45.513 14.8763 45.4054 15.0974C45.0605 15.8974 44.4179 16.9574 43.403 18.6049L46.5979 20.5699V20.5724ZM35.2929 11.1674C35.8529 11.8774 36.4504 12.6924 37.3304 13.1624L39.0879 9.84994C39.1129 9.86244 39.0804 9.85494 38.9379 9.70494C38.6923 9.42477 38.4563 9.13627 38.2304 8.83994L35.2929 11.1674ZM40.3429 9.97244C39.9837 9.95625 39.6226 9.92707 39.2654 9.88494C39.0805 9.85744 39.0604 9.83494 39.0879 9.84994L37.3304 13.1624C38.2254 13.6374 39.2304 13.6599 40.1079 13.7124L40.3429 9.97244ZM37.6255 8.07494C36.4954 6.64494 35.5179 5.40244 34.6379 4.57494C33.7554 3.74244 32.5504 2.91994 30.9854 3.16994L31.5779 6.87244C31.3779 6.90494 31.438 6.70994 32.0654 7.30494C32.6979 7.89994 33.4754 8.87494 34.6854 10.4049L37.6255 8.07494ZM29.7254 11.1999C30.4004 9.36994 30.8354 8.19994 31.2504 7.43494C31.6629 6.67494 31.7804 6.83994 31.5779 6.87244L30.9854 3.16994C29.4204 3.41994 28.5329 4.57994 27.9529 5.64494C27.3779 6.70744 26.8354 8.19494 26.2054 9.90494L29.7254 11.1999ZM17.5104 16.5874C10.9929 21.3549 6.37045 30.2874 8.77045 45.2949L12.4729 44.7049C10.2479 30.7899 14.5679 23.3874 19.7254 19.6149L17.5129 16.5899L17.5104 16.5874ZM12.3979 45.6024C14.1879 40.3274 19.7579 35.8124 26.3304 33.5974L25.1279 30.0424C17.9179 32.4749 11.1479 37.6174 8.84545 44.3974L12.3979 45.6024Z" fill="white"/>
<path d="M25.7 40C25.7 40 27.285 43.475 29.235 44.675C31.185 45.8675 35 45.7 35 45.7C35 45.7 31.525 47.2825 30.325 49.2325C29.13 51.1825 29.3 55 29.3 55C29.3 55 27.715 51.525 25.765 50.325C23.8175 49.135 20 49.3 20 49.3C20 49.3 23.475 47.7175 24.675 45.7675C25.87 43.8175 25.7 40 25.7 40ZM46.2 37.5C46.2 37.5 45.145 39.8175 43.845 40.615C42.545 41.4125 40 41.3 40 41.3C40 41.3 42.3175 42.355 43.115 43.655C43.9125 44.955 43.8 47.5 43.8 47.5C43.8 47.5 44.855 45.1825 46.155 44.385C47.455 43.5875 50 43.7 50 43.7C50 43.7 47.6825 42.645 46.885 41.345C46.0875 40.045 46.2 37.5 46.2 37.5Z" stroke="white" stroke-linejoin="round"/>
<path d="M25.7 40C25.7 40 27.285 43.475 29.235 44.675C31.185 45.8675 35 45.7 35 45.7C35 45.7 31.525 47.2825 30.325 49.2325C29.13 51.1825 29.3 55 29.3 55C29.3 55 27.715 51.525 25.765 50.325C23.8175 49.135 20 49.3 20 49.3C20 49.3 23.475 47.7175 24.675 45.7675C25.87 43.8175 25.7 40 25.7 40ZM46.2 37.5C46.2 37.5 45.145 39.8175 43.845 40.615C42.545 41.4125 40 41.3 40 41.3C40 41.3 42.3175 42.355 43.115 43.655C43.9125 44.955 43.8 47.5 43.8 47.5C43.8 47.5 44.855 45.1825 46.155 44.385C47.455 43.5875 50 43.7 50 43.7C50 43.7 47.6825 42.645 46.885 41.345C46.0875 40.045 46.2 37.5 46.2 37.5Z" stroke="white" stroke-linejoin="round"/>
</svg>
