<svg width="36" height="35" viewBox="0 0 36 35" fill="none" xmlns="http://www.w3.org/2000/svg">
<path d="M19.3846 19.8001H16.6154C16.4077 19.8001 16.2692 19.6565 16.2692 19.4412V13.9142H13.8461C13.6384 13.9142 13.5 13.7706 13.5 13.5553V10.6841C13.5 10.4688 13.6384 10.3252 13.8461 10.3252H16.2692V7.55897C16.2692 7.34363 16.4077 7.20007 16.6154 7.20007H19.3846C19.5923 7.20007 19.7307 7.34363 19.7307 7.55897V10.397H22.1538C22.3615 10.397 22.5 10.5406 22.5 10.7559V13.6271C22.5 13.8424 22.3615 13.986 22.1538 13.986H19.7307V19.513C19.7307 19.6565 19.5923 19.8001 19.3846 19.8001Z" fill="#F4A100"/>
<path d="M0.140137 34.2088C-0.347308 34.2088 -0.672272 33.8026 -0.672272 33.3964C-0.672272 32.9902 -0.266067 32.584 0.140137 32.584H3.63349C4.52714 30.9591 5.90824 29.4156 7.69554 28.197V11.3801C7.69554 5.61199 12.4075 0.900024 18.1756 0.900024C23.9437 0.900024 28.5744 5.61199 28.5744 11.3801V28.2782C30.3617 29.4968 31.7428 30.9591 32.6365 32.6652H36.1298C36.6173 32.6652 36.9422 33.0714 36.9422 33.4776C36.9422 33.8838 36.536 34.29 36.1298 34.29H0.140137V34.2088ZM30.7679 32.584C28.4932 29.0906 23.6187 26.8971 18.1756 26.8971C12.7325 26.8971 7.85802 29.0906 5.58327 32.584H30.7679ZM18.1756 2.52484C13.3012 2.52484 9.4016 6.50564 9.4016 11.2989V27.2221C12.0013 25.9222 15.0072 25.191 18.1756 25.191C21.344 25.191 24.3499 25.9222 26.9496 27.2221V11.3801C26.9496 6.50564 23.0501 2.52484 18.1756 2.52484Z" fill="#F4A100"/>
</svg>
