<svg width="34" height="36" viewBox="0 0 34 36" fill="none" xmlns="http://www.w3.org/2000/svg">
<path d="M34 18.6C33.9978 23.2141 32.206 27.6385 29.0184 30.9012C25.8307 34.1638 21.5079 35.9978 16.9999 36C13.7816 36.0013 10.629 35.0672 7.90914 33.3063C5.18925 31.5454 3.01384 29.0302 1.63603 26.0533C0.258215 23.0764 -0.265335 19.7603 0.126295 16.4907C0.517926 13.2212 1.80863 10.1327 3.84823 7.5846C5.43779 5.58546 7.44342 3.97482 9.71873 2.87025C11.994 1.76567 14.4816 1.19504 16.9999 1.2C17.7055 1.20307 18.4103 1.25076 19.1102 1.3428C18.6012 2.03532 18.2087 2.80997 17.949 3.6348C17.633 3.613 17.3165 3.6014 16.9999 3.6C14.9422 3.59647 12.9072 4.03889 11.0286 4.89816C9.15002 5.75742 7.47047 7.01406 6.10045 8.5854C7.66505 9.7518 10.8611 12.6156 9.92548 15.9684C9.79446 16.3582 9.74359 16.7714 9.77607 17.1823C9.80856 17.5931 9.92369 17.9927 10.1142 18.3558C10.8951 19.7466 12.7569 20.2452 12.7756 20.25C12.921 20.298 15.3468 21.15 15.879 23.1222C16.1903 24.2754 15.7976 25.5156 14.7131 26.8092C13.6694 28.1213 12.289 29.1095 10.7268 29.6628C9.83345 30.0186 9.32696 30.2232 9.0321 31.1832C12.1181 33.2359 15.8466 34.0231 19.4743 33.388C23.1021 32.7528 26.3629 30.7419 28.6069 27.756C28.6772 27.6624 28.7376 27.564 28.8056 27.4692C28.39 25.0092 27.639 24.7092 26.7843 24.3732C26.2378 24.1956 25.7371 23.895 25.3188 23.4936C24.8215 22.9336 24.3904 22.3155 24.0344 21.6522C23.2401 20.3118 22.3397 18.7914 20.2827 17.7384L19.8541 17.52C16.8199 15.9798 14.9886 15.0498 16.7179 9.7524C16.9563 9.00962 17.3239 8.31708 17.803 7.7082C18.3218 9.9612 19.782 12.8496 22.1714 16.3326C22.5138 16.8306 22.9682 17.2371 23.4963 17.5177C24.0244 17.7982 24.6107 17.9447 25.2057 17.9447C25.8007 17.9447 26.3869 17.7982 26.915 17.5177C27.4431 17.2371 27.8975 16.8306 28.2399 16.3326C29.631 14.374 30.8289 12.2789 31.8158 10.0782C33.2475 12.6794 33.9998 15.6144 34 18.6ZM23.6118 15.3C21.876 12.7686 19.3447 8.6286 19.3447 6C19.3447 4.4087 19.9623 2.88258 21.0617 1.75736C22.1611 0.632141 23.6521 0 25.2068 0C26.7616 0 28.2526 0.632141 29.352 1.75736C30.4513 2.88258 31.0689 4.4087 31.0689 6C31.0689 8.6286 28.5377 12.7686 26.8019 15.3C26.6218 15.5617 26.3829 15.7753 26.1053 15.9227C25.8277 16.0701 25.5196 16.1471 25.2068 16.1471C24.8941 16.1471 24.5859 16.0701 24.3083 15.9227C24.0307 15.7753 23.7918 15.5617 23.6118 15.3ZM25.2068 9C25.7865 9 26.3532 8.82405 26.8352 8.49441C27.3172 8.16476 27.6929 7.69623 27.9148 7.14805C28.1366 6.59987 28.1947 5.99667 28.0816 5.41473C27.9685 4.83279 27.6893 4.29824 27.2794 3.87868C26.8695 3.45912 26.3472 3.1734 25.7787 3.05764C25.2101 2.94189 24.6207 3.0013 24.0852 3.22836C23.5496 3.45542 23.0918 3.83994 22.7697 4.33329C22.4477 4.82664 22.2758 5.40666 22.2758 6C22.2758 6.79565 22.5846 7.55871 23.1343 8.12132C23.6839 8.68393 24.4295 9 25.2068 9Z" fill="#F4A100"/>
</svg>
