<svg width="60" height="60" viewBox="0 0 60 60" fill="none" xmlns="http://www.w3.org/2000/svg">
<g clip-path="url(#clip0_1181_981)">
<path d="M49.6263 4.0735H48.4187V2.86587C48.4188 1.28576 47.133 0 45.5527 0H14.7094C14.4809 0 14.2614 0.0890204 14.0974 0.248203L7.77441 6.38792C7.60398 6.55331 7.50793 6.78078 7.50793 7.01821V40.6513C7.50793 41.1366 7.90126 41.5298 8.38642 41.5298C8.87158 41.5298 9.26491 41.1366 9.26491 40.6513V7.89904L13.922 7.91146H13.9265C14.3647 7.91146 14.7769 7.74138 15.0878 7.43227C15.3997 7.1221 15.5721 6.70886 15.5733 6.26903L15.5855 1.75698H36.6613V10.8716C36.6613 12.3371 37.8536 13.5292 39.319 13.5292C40.7845 13.5292 41.9766 12.3369 41.9766 10.8716V6.34481C41.9766 5.85954 41.5833 5.46632 41.0981 5.46632C40.613 5.46632 40.2197 5.85954 40.2197 6.34481V10.8716C40.2197 11.3683 39.8155 11.7722 39.319 11.7722C38.8224 11.7722 38.4183 11.3683 38.4183 10.8716V1.75698H45.5528C46.1643 1.75698 46.6618 2.25444 46.6618 2.86599V15.8774C46.6618 16.3627 47.0551 16.7559 47.5403 16.7559C48.0255 16.7559 48.4188 16.3627 48.4188 15.8774V5.83049H49.6264C50.238 5.83049 50.7355 6.32806 50.7355 6.93961V57.134C50.7355 57.7456 50.238 58.243 49.6264 58.243H14.4475C13.836 58.243 13.3385 57.7456 13.3385 57.134V55.9264H45.5528C47.1331 55.9264 48.4188 54.6406 48.4188 53.0603V19.9393C48.4188 19.454 48.0255 19.0608 47.5403 19.0608C47.0551 19.0608 46.6618 19.454 46.6618 19.9393V53.0605C46.6618 53.6721 46.1642 54.1696 45.5528 54.1696H10.3739C9.76237 54.1696 9.26479 53.6721 9.26479 53.0605V44.741C9.26479 44.2557 8.87146 43.8625 8.3863 43.8625C7.90114 43.8625 7.50781 44.2557 7.50781 44.741V53.0604C7.50781 54.6407 8.79357 55.9265 10.3739 55.9265H11.5816V57.1341C11.5816 58.7144 12.8673 60.0001 14.4475 60.0001H49.6263C51.2066 60.0001 52.4924 58.7144 52.4924 57.1341V6.93961C52.4924 5.35926 51.2066 4.0735 49.6263 4.0735ZM13.8164 6.15412L10.5462 6.14545L12.7198 4.03473L13.8251 2.96157L13.8164 6.15412Z" fill="white"/>
<path d="M49.6263 4.0735H48.4187V2.86587C48.4188 1.28576 47.133 0 45.5527 0H14.7094C14.4809 0 14.2614 0.0890204 14.0974 0.248203L7.77441 6.38792C7.60398 6.55331 7.50793 6.78078 7.50793 7.01821V40.6513C7.50793 41.1366 7.90126 41.5298 8.38642 41.5298C8.87158 41.5298 9.26491 41.1366 9.26491 40.6513V7.89904L13.922 7.91146H13.9265C14.3647 7.91146 14.7769 7.74138 15.0878 7.43227C15.3997 7.1221 15.5721 6.70886 15.5733 6.26903L15.5855 1.75698H36.6613V10.8716C36.6613 12.3371 37.8536 13.5292 39.319 13.5292C40.7845 13.5292 41.9766 12.3369 41.9766 10.8716V6.34481C41.9766 5.85954 41.5833 5.46632 41.0981 5.46632C40.613 5.46632 40.2197 5.85954 40.2197 6.34481V10.8716C40.2197 11.3683 39.8155 11.7722 39.319 11.7722C38.8224 11.7722 38.4183 11.3683 38.4183 10.8716V1.75698H45.5528C46.1643 1.75698 46.6618 2.25444 46.6618 2.86599V15.8774C46.6618 16.3627 47.0551 16.7559 47.5403 16.7559C48.0255 16.7559 48.4188 16.3627 48.4188 15.8774V5.83049H49.6264C50.238 5.83049 50.7355 6.32806 50.7355 6.93961V57.134C50.7355 57.7456 50.238 58.243 49.6264 58.243H14.4475C13.836 58.243 13.3385 57.7456 13.3385 57.134V55.9264H45.5528C47.1331 55.9264 48.4188 54.6406 48.4188 53.0603V19.9393C48.4188 19.454 48.0255 19.0608 47.5403 19.0608C47.0551 19.0608 46.6618 19.454 46.6618 19.9393V53.0605C46.6618 53.6721 46.1642 54.1696 45.5528 54.1696H10.3739C9.76237 54.1696 9.26479 53.6721 9.26479 53.0605V44.741C9.26479 44.2557 8.87146 43.8625 8.3863 43.8625C7.90114 43.8625 7.50781 44.2557 7.50781 44.741V53.0604C7.50781 54.6407 8.79357 55.9265 10.3739 55.9265H11.5816V57.1341C11.5816 58.7144 12.8673 60.0001 14.4475 60.0001H49.6263C51.2066 60.0001 52.4924 58.7144 52.4924 57.1341V6.93961C52.4924 5.35926 51.2066 4.0735 49.6263 4.0735ZM13.8164 6.15412L10.5462 6.14545L12.7198 4.03473L13.8251 2.96157L13.8164 6.15412Z" fill="white"/>
<path d="M29.1427 12.326H26.7848C25.7825 12.326 24.967 13.1415 24.967 14.1438V16.7792C24.967 16.8127 24.9398 16.84 24.9063 16.84H22.2709C21.2686 16.84 20.4531 17.6554 20.4531 18.6577V21.0156C20.4531 22.018 21.2686 22.8335 22.2709 22.8335H24.9063C24.9398 22.8335 24.967 22.8607 24.967 22.8943V25.5297C24.967 26.532 25.7824 27.3474 26.7848 27.3474H29.1427C30.145 27.3474 30.9605 26.532 30.9605 25.5297V22.8943C30.9605 22.8608 30.9878 22.8335 31.0213 22.8335H33.6566C34.6589 22.8335 35.4744 22.018 35.4744 21.0156V18.6577C35.4744 17.6554 34.6589 16.84 33.6566 16.84H31.0213C30.9878 16.84 30.9605 16.8128 30.9605 16.7792V14.1438C30.9605 13.1415 30.145 12.326 29.1427 12.326ZM31.0213 18.597H33.6566C33.6901 18.597 33.7174 18.6241 33.7174 18.6577V21.0156C33.7174 21.0491 33.6901 21.0765 33.6566 21.0765H31.0213C30.019 21.0765 29.2035 21.892 29.2035 22.8943V25.5297C29.2035 25.5632 29.1762 25.5904 29.1427 25.5904H26.7848C26.7513 25.5904 26.724 25.5633 26.724 25.5297V22.8943C26.724 21.892 25.9086 21.0765 24.9063 21.0765H22.2709C22.2374 21.0765 22.2101 21.0492 22.2101 21.0156V18.6577C22.2101 18.6242 22.2374 18.597 22.2709 18.597H24.9063C25.9086 18.597 26.724 17.7815 26.724 16.7792V14.1438C26.724 14.1103 26.7512 14.083 26.7848 14.083H29.1427C29.1762 14.083 29.2035 14.1102 29.2035 14.1438V16.7792C29.2035 17.7815 30.019 18.597 31.0213 18.597Z" fill="white"/>
<path d="M29.1427 12.326H26.7848C25.7825 12.326 24.967 13.1415 24.967 14.1438V16.7792C24.967 16.8127 24.9398 16.84 24.9063 16.84H22.2709C21.2686 16.84 20.4531 17.6554 20.4531 18.6577V21.0156C20.4531 22.018 21.2686 22.8335 22.2709 22.8335H24.9063C24.9398 22.8335 24.967 22.8607 24.967 22.8943V25.5297C24.967 26.532 25.7824 27.3474 26.7848 27.3474H29.1427C30.145 27.3474 30.9605 26.532 30.9605 25.5297V22.8943C30.9605 22.8608 30.9878 22.8335 31.0213 22.8335H33.6566C34.6589 22.8335 35.4744 22.018 35.4744 21.0156V18.6577C35.4744 17.6554 34.6589 16.84 33.6566 16.84H31.0213C30.9878 16.84 30.9605 16.8128 30.9605 16.7792V14.1438C30.9605 13.1415 30.145 12.326 29.1427 12.326ZM31.0213 18.597H33.6566C33.6901 18.597 33.7174 18.6241 33.7174 18.6577V21.0156C33.7174 21.0491 33.6901 21.0765 33.6566 21.0765H31.0213C30.019 21.0765 29.2035 21.892 29.2035 22.8943V25.5297C29.2035 25.5632 29.1762 25.5904 29.1427 25.5904H26.7848C26.7513 25.5904 26.724 25.5633 26.724 25.5297V22.8943C26.724 21.892 25.9086 21.0765 24.9063 21.0765H22.2709C22.2374 21.0765 22.2101 21.0492 22.2101 21.0156V18.6577C22.2101 18.6242 22.2374 18.597 22.2709 18.597H24.9063C25.9086 18.597 26.724 17.7815 26.724 16.7792V14.1438C26.724 14.1103 26.7512 14.083 26.7848 14.083H29.1427C29.1762 14.083 29.2035 14.1102 29.2035 14.1438V16.7792C29.2035 17.7815 30.019 18.597 31.0213 18.597Z" fill="white"/>
<path d="M24.7649 31.2349H14.5953C14.1101 31.2349 13.7168 31.6281 13.7168 32.1134C13.7168 32.5987 14.1101 32.9919 14.5953 32.9919H24.7649C25.2501 32.9919 25.6434 32.5987 25.6434 32.1134C25.6434 31.6281 25.2501 31.2349 24.7649 31.2349Z" fill="white"/>
<path d="M24.7649 31.2349H14.5953C14.1101 31.2349 13.7168 31.6281 13.7168 32.1134C13.7168 32.5987 14.1101 32.9919 14.5953 32.9919H24.7649C25.2501 32.9919 25.6434 32.5987 25.6434 32.1134C25.6434 31.6281 25.2501 31.2349 24.7649 31.2349Z" fill="white"/>
<path d="M29.9996 32.9919H41.3304C41.8155 32.9919 42.2089 32.5987 42.2089 32.1134C42.2089 31.6281 41.8155 31.2349 41.3304 31.2349H29.9996C29.5144 31.2349 29.1211 31.6281 29.1211 32.1134C29.1211 32.5987 29.5144 32.9919 29.9996 32.9919Z" fill="white"/>
<path d="M29.9996 32.9919H41.3304C41.8155 32.9919 42.2089 32.5987 42.2089 32.1134C42.2089 31.6281 41.8155 31.2349 41.3304 31.2349H29.9996C29.5144 31.2349 29.1211 31.6281 29.1211 32.1134C29.1211 32.5987 29.5144 32.9919 29.9996 32.9919Z" fill="white"/>
<path d="M24.7649 35.9774H14.5953C14.1101 35.9774 13.7168 36.3706 13.7168 36.8558C13.7168 37.3411 14.1101 37.7343 14.5953 37.7343H24.7649C25.2501 37.7343 25.6434 37.3411 25.6434 36.8558C25.6434 36.3706 25.2501 35.9774 24.7649 35.9774Z" fill="white"/>
<path d="M24.7649 35.9774H14.5953C14.1101 35.9774 13.7168 36.3706 13.7168 36.8558C13.7168 37.3411 14.1101 37.7343 14.5953 37.7343H24.7649C25.2501 37.7343 25.6434 37.3411 25.6434 36.8558C25.6434 36.3706 25.2501 35.9774 24.7649 35.9774Z" fill="white"/>
<path d="M41.3304 35.9774H29.9996C29.5144 35.9774 29.1211 36.3706 29.1211 36.8558C29.1211 37.3411 29.5144 37.7343 29.9996 37.7343H41.3304C41.8155 37.7343 42.2089 37.3411 42.2089 36.8558C42.2089 36.3706 41.8156 35.9774 41.3304 35.9774Z" fill="white"/>
<path d="M41.3304 35.9774H29.9996C29.5144 35.9774 29.1211 36.3706 29.1211 36.8558C29.1211 37.3411 29.5144 37.7343 29.9996 37.7343H41.3304C41.8155 37.7343 42.2089 37.3411 42.2089 36.8558C42.2089 36.3706 41.8156 35.9774 41.3304 35.9774Z" fill="white"/>
<path d="M24.7649 40.72H14.5953C14.1101 40.72 13.7168 41.1132 13.7168 41.5985C13.7168 42.0838 14.1101 42.477 14.5953 42.477H24.7649C25.2501 42.477 25.6434 42.0838 25.6434 41.5985C25.6434 41.1132 25.2501 40.72 24.7649 40.72Z" fill="white"/>
<path d="M24.7649 40.72H14.5953C14.1101 40.72 13.7168 41.1132 13.7168 41.5985C13.7168 42.0838 14.1101 42.477 14.5953 42.477H24.7649C25.2501 42.477 25.6434 42.0838 25.6434 41.5985C25.6434 41.1132 25.2501 40.72 24.7649 40.72Z" fill="white"/>
<path d="M41.3304 40.72H29.9996C29.5144 40.72 29.1211 41.1132 29.1211 41.5985C29.1211 42.0838 29.5144 42.477 29.9996 42.477H41.3304C41.8155 42.477 42.2089 42.0838 42.2089 41.5985C42.2089 41.1132 41.8156 40.72 41.3304 40.72Z" fill="white"/>
<path d="M41.3304 40.72H29.9996C29.5144 40.72 29.1211 41.1132 29.1211 41.5985C29.1211 42.0838 29.5144 42.477 29.9996 42.477H41.3304C41.8155 42.477 42.2089 42.0838 42.2089 41.5985C42.2089 41.1132 41.8156 40.72 41.3304 40.72Z" fill="white"/>
<path d="M24.7649 45.4625H14.5953C14.1101 45.4625 13.7168 45.8557 13.7168 46.341C13.7168 46.8263 14.1101 47.2195 14.5953 47.2195H24.7649C25.2501 47.2195 25.6434 46.8263 25.6434 46.341C25.6434 45.8557 25.2501 45.4625 24.7649 45.4625Z" fill="white"/>
<path d="M24.7649 45.4625H14.5953C14.1101 45.4625 13.7168 45.8557 13.7168 46.341C13.7168 46.8263 14.1101 47.2195 14.5953 47.2195H24.7649C25.2501 47.2195 25.6434 46.8263 25.6434 46.341C25.6434 45.8557 25.2501 45.4625 24.7649 45.4625Z" fill="white"/>
<path d="M41.3304 45.4625H29.9996C29.5144 45.4625 29.1211 45.8557 29.1211 46.341C29.1211 46.8263 29.5144 47.2195 29.9996 47.2195H41.3304C41.8155 47.2195 42.2089 46.8263 42.2089 46.341C42.2089 45.8557 41.8156 45.4625 41.3304 45.4625Z" fill="white"/>
<path d="M41.3304 45.4625H29.9996C29.5144 45.4625 29.1211 45.8557 29.1211 46.341C29.1211 46.8263 29.5144 47.2195 29.9996 47.2195H41.3304C41.8155 47.2195 42.2089 46.8263 42.2089 46.341C42.2089 45.8557 41.8156 45.4625 41.3304 45.4625Z" fill="white"/>
</g>
<defs>
<clipPath id="clip0_1181_981">
<rect width="60" height="60" fill="white"/>
</clipPath>
</defs>
</svg>
