<svg width="60" height="60" viewBox="0 0 60 60" fill="none" xmlns="http://www.w3.org/2000/svg">
<path d="M30 23.75L28.66 25.06C28.8346 25.2384 29.0431 25.3802 29.2732 25.4769C29.5033 25.5737 29.7504 25.6235 30 25.6235C30.2496 25.6235 30.4967 25.5737 30.7268 25.4769C30.9569 25.3802 31.1654 25.2384 31.34 25.06L30 23.7525V23.75ZM26.285 35.9275C24.8325 34.6925 23.3725 33.2575 22.29 31.7775C21.1875 30.265 20.625 28.905 20.625 27.7725H16.875C16.875 30.0625 17.9625 32.2075 19.2625 33.9875C20.585 35.8 22.2875 37.4475 23.8575 38.785L26.2875 35.9275H26.285ZM20.625 27.7725C20.625 25.005 21.8625 23.55 23.1325 23.0725C24.4275 22.59 26.4875 22.8475 28.66 25.065L31.34 22.4425C28.45 19.4925 24.8875 18.4125 21.82 19.56C18.7325 20.715 16.875 23.85 16.875 27.7725H20.625ZM36.1425 38.7875C37.7125 37.4525 39.415 35.8025 40.7375 33.9925C42.0375 32.21 43.125 30.065 43.125 27.775H39.375C39.375 28.9075 38.8125 30.2675 37.71 31.78C36.6275 33.2625 35.1675 34.695 33.715 35.93L36.1425 38.7875ZM43.125 27.775C43.125 23.85 41.2675 20.715 38.18 19.56C35.1125 18.4125 31.55 19.49 28.66 22.4425L31.34 25.0675C33.5125 22.8475 35.575 22.59 36.865 23.0725C38.14 23.5475 39.375 25.0075 39.375 27.775H43.125ZM23.8575 38.7875C25.8075 40.445 27.3575 41.8625 30 41.8625V38.1125C28.965 38.1125 28.4575 37.775 26.285 35.9275L23.8575 38.7875ZM33.715 35.93C31.5425 37.7775 31.035 38.1125 30 38.1125V41.8625C32.6425 41.8625 34.195 40.445 36.1425 38.7875L33.7125 35.93H33.715Z" fill="white"/>
<path d="M30 23.75L28.66 25.06C28.8346 25.2384 29.0431 25.3802 29.2732 25.4769C29.5033 25.5737 29.7504 25.6235 30 25.6235C30.2496 25.6235 30.4967 25.5737 30.7268 25.4769C30.9569 25.3802 31.1654 25.2384 31.34 25.06L30 23.7525V23.75ZM26.285 35.9275C24.8325 34.6925 23.3725 33.2575 22.29 31.7775C21.1875 30.265 20.625 28.905 20.625 27.7725H16.875C16.875 30.0625 17.9625 32.2075 19.2625 33.9875C20.585 35.8 22.2875 37.4475 23.8575 38.785L26.2875 35.9275H26.285ZM20.625 27.7725C20.625 25.005 21.8625 23.55 23.1325 23.0725C24.4275 22.59 26.4875 22.8475 28.66 25.065L31.34 22.4425C28.45 19.4925 24.8875 18.4125 21.82 19.56C18.7325 20.715 16.875 23.85 16.875 27.7725H20.625ZM36.1425 38.7875C37.7125 37.4525 39.415 35.8025 40.7375 33.9925C42.0375 32.21 43.125 30.065 43.125 27.775H39.375C39.375 28.9075 38.8125 30.2675 37.71 31.78C36.6275 33.2625 35.1675 34.695 33.715 35.93L36.1425 38.7875ZM43.125 27.775C43.125 23.85 41.2675 20.715 38.18 19.56C35.1125 18.4125 31.55 19.49 28.66 22.4425L31.34 25.0675C33.5125 22.8475 35.575 22.59 36.865 23.0725C38.14 23.5475 39.375 25.0075 39.375 27.775H43.125ZM23.8575 38.7875C25.8075 40.445 27.3575 41.8625 30 41.8625V38.1125C28.965 38.1125 28.4575 37.775 26.285 35.9275L23.8575 38.7875ZM33.715 35.93C31.5425 37.7775 31.035 38.1125 30 38.1125V41.8625C32.6425 41.8625 34.195 40.445 36.1425 38.7875L33.7125 35.93H33.715Z" fill="white"/>
<path d="M42.5 8.34503C38.7012 6.14728 34.3887 4.99327 30 5.00003C16.1925 5.00003 5 16.1925 5 30C5 34 5.94 37.78 7.6075 41.1325C8.0525 42.0225 8.2 43.04 7.9425 44.0025L6.455 49.5675C6.30823 50.1181 6.30878 50.6976 6.4566 51.2479C6.60442 51.7981 6.89432 52.2999 7.29723 52.7028C7.70013 53.1057 8.20188 53.3956 8.75217 53.5434C9.30246 53.6913 9.88193 53.6918 10.4325 53.545L15.9975 52.0575C16.9635 51.8144 17.9851 51.9327 18.87 52.39C22.3273 54.1116 26.1378 55.0052 30 55C43.8075 55 55 43.8075 55 30C55 25.4475 53.7825 21.175 51.655 17.5" stroke="white" stroke-width="3" stroke-linecap="round"/>
<path d="M42.5 8.34503C38.7012 6.14728 34.3887 4.99327 30 5.00003C16.1925 5.00003 5 16.1925 5 30C5 34 5.94 37.78 7.6075 41.1325C8.0525 42.0225 8.2 43.04 7.9425 44.0025L6.455 49.5675C6.30823 50.1181 6.30878 50.6976 6.4566 51.2479C6.60442 51.7981 6.89432 52.2999 7.29723 52.7028C7.70013 53.1057 8.20188 53.3956 8.75217 53.5434C9.30246 53.6913 9.88193 53.6918 10.4325 53.545L15.9975 52.0575C16.9635 51.8144 17.9851 51.9327 18.87 52.39C22.3273 54.1116 26.1378 55.0052 30 55C43.8075 55 55 43.8075 55 30C55 25.4475 53.7825 21.175 51.655 17.5" stroke="white" stroke-width="3" stroke-linecap="round"/>
</svg>
