<svg width="116" height="87" viewBox="0 0 116 87" fill="none" xmlns="http://www.w3.org/2000/svg">
<path d="M2 63.712L2.61026 58.6357C2.80095 56.5044 3.49728 54.4493 4.64146 52.641C5.78563 50.8328 7.34463 49.3235 9.18903 48.2386C11.0334 47.1537 13.11 46.5243 15.2464 46.4028C17.3828 46.2813 19.5174 46.6712 21.4729 47.5401C23.4302 48.4081 25.5662 48.7974 27.7039 48.6758C29.8416 48.5541 31.9196 47.9251 33.7658 46.8406C35.6121 45.7562 37.1735 44.2476 38.3208 42.4397C39.468 40.6318 40.1682 38.5767 40.3632 36.4444C40.5539 34.3131 41.2502 32.258 42.3944 30.4497C43.5386 28.6415 45.0976 27.1322 46.942 26.0473C48.7864 24.9623 50.863 24.333 52.9994 24.2115C55.1358 24.09 57.2703 24.4799 59.2258 25.3488C61.1813 26.2176 63.3159 26.6075 65.4523 26.486C67.5887 26.3645 69.6653 25.7352 71.5097 24.6503C73.3541 23.5653 74.9131 22.0561 76.0573 20.2478C77.2014 18.4395 77.8978 16.3844 78.0884 14.2531C78.2835 12.1208 78.9836 10.0657 80.1309 8.25782C81.2782 6.44995 82.8396 4.94135 84.6858 3.85691C86.5321 2.77248 88.6101 2.1434 90.7478 2.02177C92.8855 1.90014 95.0215 2.28945 96.9788 3.15746L101.389 4.98825L101.667 5.12694" stroke="#3C19E8" stroke-width="3" stroke-linecap="round" stroke-linejoin="round"/>
<path d="M14.4844 84.8776L15.0946 79.8013C15.2897 77.669 15.9898 75.6139 17.1371 73.806C18.2844 71.9981 19.8458 70.4895 21.692 69.4051C23.5383 68.3206 25.6163 67.6916 27.754 67.5699C29.8917 67.4483 32.0276 67.8376 33.985 68.7056C35.9405 69.5745 38.075 69.9644 40.2114 69.8429C42.3478 69.7214 44.4244 69.0921 46.2688 68.0071C48.1132 66.9222 49.6722 65.4129 50.8164 63.6047C51.9606 61.7964 52.6569 59.7413 52.8476 57.61C53.0383 55.4786 53.7346 53.4235 54.8788 51.6153C56.023 49.807 57.582 48.2978 59.4264 47.2128C61.2708 46.1279 63.3474 45.4986 65.4838 45.3771C67.6202 45.2556 69.7547 45.6455 71.7102 46.5143C73.6676 47.3823 75.8035 47.7716 77.9412 47.65C80.0789 47.5284 82.1569 46.8993 84.0032 45.8149C85.8494 44.7304 87.4108 43.2218 88.5581 41.414C89.7054 39.6061 90.4055 37.5509 90.6006 35.4187C90.7912 33.2873 91.4876 31.2322 92.6318 29.424C93.7759 27.6157 95.3349 26.1065 97.1793 25.0215C99.0237 23.9366 101.1 23.3072 103.237 23.1858C105.373 23.0643 107.508 23.4541 109.463 24.323L113.901 26.1538L114.179 26.2925" stroke="#3C19E8" stroke-width="3" stroke-linecap="round" stroke-linejoin="round"/>
<path d="M2 63.712L2.61026 58.6357C2.80095 56.5044 3.49728 54.4493 4.64146 52.641C5.78563 50.8328 7.34463 49.3235 9.18903 48.2386C11.0334 47.1537 13.11 46.5243 15.2464 46.4028C17.3828 46.2813 19.5174 46.6712 21.4729 47.5401C23.4302 48.4081 25.5662 48.7974 27.7039 48.6758C29.8416 48.5541 31.9196 47.9251 33.7658 46.8406C35.6121 45.7562 37.1735 44.2476 38.3208 42.4397C39.468 40.6318 40.1682 38.5767 40.3632 36.4444C40.5539 34.3131 41.2502 32.258 42.3944 30.4497C43.5386 28.6415 45.0976 27.1322 46.942 26.0473C48.7864 24.9623 50.863 24.333 52.9994 24.2115C55.1358 24.09 57.2703 24.4799 59.2258 25.3488C61.1813 26.2176 63.3159 26.6075 65.4523 26.486C67.5887 26.3645 69.6653 25.7352 71.5097 24.6503C73.3541 23.5653 74.9131 22.0561 76.0573 20.2478C77.2014 18.4395 77.8978 16.3844 78.0884 14.2531C78.2835 12.1208 78.9836 10.0657 80.1309 8.25782C81.2782 6.44995 82.8396 4.94135 84.6858 3.85691C86.5321 2.77248 88.6101 2.1434 90.7478 2.02177C92.8855 1.90014 95.0215 2.28945 96.9788 3.15746L101.389 4.98825L101.667 5.12694" stroke="#3C19E8" stroke-linecap="round" stroke-linejoin="round"/>
<path d="M14.4844 84.8776L15.0946 79.8013C15.2897 77.669 15.9898 75.6139 17.1371 73.806C18.2844 71.9981 19.8458 70.4895 21.692 69.4051C23.5383 68.3206 25.6163 67.6916 27.754 67.5699C29.8917 67.4483 32.0276 67.8376 33.985 68.7056C35.9405 69.5745 38.075 69.9644 40.2114 69.8429C42.3478 69.7214 44.4244 69.0921 46.2688 68.0071C48.1132 66.9222 49.6722 65.4129 50.8164 63.6047C51.9606 61.7964 52.6569 59.7413 52.8476 57.61C53.0383 55.4786 53.7346 53.4235 54.8788 51.6153C56.023 49.807 57.582 48.2978 59.4264 47.2128C61.2708 46.1279 63.3474 45.4986 65.4838 45.3771C67.6202 45.2556 69.7547 45.6455 71.7102 46.5143C73.6676 47.3823 75.8035 47.7716 77.9412 47.65C80.0789 47.5284 82.1569 46.8993 84.0032 45.8149C85.8494 44.7304 87.4108 43.2218 88.5581 41.414C89.7054 39.6061 90.4055 37.5509 90.6006 35.4187C90.7912 33.2873 91.4876 31.2322 92.6318 29.424C93.7759 27.6157 95.3349 26.1065 97.1793 25.0215C99.0237 23.9366 101.1 23.3072 103.237 23.1858C105.373 23.0643 107.508 23.4541 109.463 24.323L113.901 26.1538L114.179 26.2925" stroke="#3C19E8" stroke-linecap="round" stroke-linejoin="round"/>
</svg>
