<svg width="64" height="72" viewBox="0 0 64 72" fill="none" xmlns="http://www.w3.org/2000/svg">
<g id="Frame" clip-path="url(#clip0_437_186)">
<g id="Group">
<path id="Vector" d="M20.9058 1.92836C4.3607 8.09978 -4.10423 26.6141 1.92383 43.1998C4.10419 48.9855 7.69537 53.7426 12.1843 57.3426C12.9539 59.9141 13.8517 66.3426 7.95188 71.9998C7.95188 71.9998 17.6994 70.4569 20.6493 62.0998C27.5751 64.6712 35.527 64.9284 42.9659 62.2284C59.511 56.0569 67.9759 37.6712 61.9479 21.0855C55.9198 4.37121 37.5791 -4.1145 20.9058 1.92836Z" fill="#01686F"/>
<path id="Vector_2" d="M27.9599 39.0856C27.9599 37.9285 27.9599 36.8999 28.0882 35.9999C28.2164 35.0999 28.3447 34.1999 28.6012 33.4285C28.8577 32.6571 29.2425 31.8856 29.6272 31.2428C30.012 30.5999 30.525 29.9571 31.1663 29.3142C31.6793 28.7999 32.0641 28.2856 32.4489 27.7713C32.8337 27.2571 33.2184 26.7428 33.4749 26.2285C33.7314 25.7142 33.988 25.1999 34.1162 24.6856C34.2445 24.1713 34.3727 23.5285 34.3727 23.0142C34.3727 20.1856 33.4749 18.6428 31.5511 18.6428C31.1663 18.6428 30.9098 18.7713 30.525 18.8999C30.1403 19.0285 29.8838 19.2856 29.6272 19.6713C29.3707 20.0571 29.1142 20.4428 28.986 21.0856C28.8577 21.5999 28.7294 22.2428 28.7294 23.0142H21.4188C21.4188 21.2142 21.6753 19.6713 22.1884 18.2571C22.7014 16.9713 23.4709 15.8142 24.3687 14.9142C25.2665 14.0142 26.4208 13.3713 27.5751 12.9856C28.8577 12.5999 30.1403 12.3428 31.5511 12.3428C33.0902 12.3428 34.501 12.5999 35.7836 12.9856C37.0661 13.3713 38.0922 14.1428 38.99 14.9142C39.8878 15.8142 40.529 16.8428 41.0421 18.1285C41.5551 19.4142 41.6834 20.8285 41.6834 22.4999C41.6834 23.6571 41.5551 24.6856 41.1703 25.5856C40.9138 26.4856 40.4008 27.3856 40.016 28.1571C39.503 28.9285 38.99 29.6999 38.3487 30.4713C37.7074 31.2428 37.0661 32.0142 36.2966 32.7856C35.9118 33.1713 35.6553 33.6856 35.3988 34.0713C35.1423 34.4571 35.014 34.9713 34.7575 35.4856C34.6292 36.2571 34.6292 36.7713 34.501 37.2856C34.3727 37.7999 34.3727 38.4428 34.3727 39.0856H27.9599ZM27.3186 47.0571C27.3186 46.5428 27.4469 46.0285 27.5751 45.5142C27.7034 44.9999 28.0882 44.6142 28.3447 44.2285C28.7294 43.8428 29.1142 43.5856 29.6272 43.3285C30.1403 43.0713 30.6533 43.0713 31.2946 43.0713C31.9359 43.0713 32.4489 43.1999 32.9619 43.3285C33.4749 43.5856 33.8597 43.8428 34.2445 44.2285C34.6292 44.6142 34.8858 44.9999 35.014 45.5142C35.1423 46.0285 35.2705 46.5428 35.2705 47.0571C35.2705 47.5713 35.1423 48.2142 35.014 48.5999C34.8858 49.1142 34.501 49.4999 34.2445 49.8856C33.8597 50.2713 33.4749 50.5285 32.9619 50.7856C32.4489 51.0428 31.9359 51.0428 31.2946 51.0428C30.6533 51.0428 30.1403 50.9142 29.6272 50.7856C29.1142 50.5285 28.7294 50.2713 28.3447 49.8856C27.9599 49.4999 27.7034 49.1142 27.5751 48.5999C27.4469 48.0856 27.3186 47.5713 27.3186 47.0571Z" fill="white"/>
</g>
</g>
<defs>
<clipPath id="clip0_437_186">
<rect width="64" height="72" fill="white"/>
</clipPath>
</defs>
</svg>
