<svg width="68" height="60" viewBox="0 0 68 60" fill="none" xmlns="http://www.w3.org/2000/svg">
<path d="M2.3584 31.1108H20.8212C25.6915 31.1108 29.034 34.7842 29.034 39.2809V49.4777C29.034 53.9743 25.6915 57.6475 20.8212 57.6475H10.5712C6.05102 57.6475 2.3584 53.9743 2.3584 49.4777V31.1108" stroke="#120745" stroke-width="3" stroke-linecap="round" stroke-linejoin="round"/>
<path d="M2.3584 31.1097C2.3584 11.9513 5.95556 8.78485 16.7786 2.38818" stroke="#120745" stroke-width="3" stroke-linecap="round" stroke-linejoin="round"/>
<path d="M39.3857 31.1117H57.8485C62.7189 31.1117 66.0614 34.7851 66.0614 39.2817V49.4785C66.0614 53.9752 62.7189 57.6484 57.8485 57.6484H47.5986C43.0784 57.6484 39.3857 53.9752 39.3857 49.4785V31.1117" stroke="#120745" stroke-width="3" stroke-linecap="round" stroke-linejoin="round"/>
<path d="M39.3857 31.1104C39.3857 11.9521 42.9827 8.78558 53.8057 2.38892" stroke="#120745" stroke-width="3" stroke-linecap="round" stroke-linejoin="round"/>
</svg>
