<svg width="48" height="48" viewBox="0 0 48 48" fill="none" xmlns="http://www.w3.org/2000/svg">
<path fill-rule="evenodd" clip-rule="evenodd" d="M18.8522 9.11595C11.3222 13.9519 7.1392 19.5799 6.3022 26.0029C4.9992 35.9999 13.9392 40.893 18.4692 36.497C22.9992 32.1 20.2842 26.5199 17.0042 24.9939C13.7242 23.4689 11.7182 23.9999 12.0682 21.9609C12.4182 19.9229 17.0842 14.2709 21.1842 11.6389C21.3295 11.5154 21.4222 11.3411 21.4434 11.1515C21.4645 10.962 21.4126 10.7715 21.2982 10.6189L20.2842 9.29995C19.8442 8.72795 19.4222 8.74995 18.8522 9.11495V9.11595ZM38.6782 9.11595C31.1482 13.9519 26.9642 19.5809 26.1282 26.0029C24.8252 35.9999 33.7652 40.893 38.2952 36.497C42.8252 32.1 40.1102 26.5199 36.8292 24.9939C33.5492 23.4689 31.5432 23.9999 31.8932 21.9609C32.2432 19.9229 36.9102 14.2709 41.0102 11.6389C41.1553 11.5153 41.2478 11.3409 41.2688 11.1513C41.2898 10.9618 41.2377 10.7714 41.1232 10.6189L40.1092 9.29995C39.6692 8.72795 39.2472 8.74995 38.6782 9.11495V9.11595Z" fill="#ECE8FD"/>
</svg>
