<svg width="918" height="643" viewBox="0 0 918 643" fill="none" xmlns="http://www.w3.org/2000/svg">
<path opacity="0.02" d="M192.72 638.263C179.609 591.749 215.998 545.32 256.862 525.248C284.419 511.711 314.872 505.886 344.324 500.259C358.484 497.552 373.121 494.757 387.162 491.148C417.382 483.382 470.5 463.417 486.716 417.191C501.692 374.466 479.826 332.588 456.656 288.244C435.201 247.233 413.068 204.824 421.232 160.282C433.843 91.4803 513.092 56.0907 585.036 56.5149C613.505 56.718 642.188 60.6966 669.924 64.5199C708.529 69.8547 748.452 75.3865 787.326 70.4939C828.28 65.3204 868.972 41.7772 891.022 10.5096C905.921 -10.656 911.207 -33.7871 906.273 -56.3984L915.957 -58.5431C921.511 -33.13 915.689 -7.26882 899.121 16.2446C875.551 49.6986 832.148 74.8668 788.548 80.3748C748.393 85.4466 707.808 79.8371 668.565 74.4008C641.151 70.6074 612.789 66.6885 584.964 66.4854C517.258 65.888 442.639 98.6849 431.018 162.068C423.479 203.223 444.826 244.084 465.476 283.596C488.611 327.881 512.556 373.665 496.108 420.489C478.354 471.106 421.78 492.54 389.653 500.814C375.314 504.5 360.516 507.332 346.208 510.062C317.405 515.564 287.619 521.257 261.26 534.203C224.013 552.501 190.694 594.241 202.321 635.55L192.72 638.263Z" fill="#120745"/>
<path opacity="0.02" d="M1.15433 694.57C-5.58199 633.172 17.5095 568.205 61.4114 525.028C105.313 481.851 170.396 460.086 231.261 468.283C280.082 474.852 324.454 498.868 367.365 522.102C383.658 530.929 400.508 540.04 417.333 548.06C453.371 565.235 544.126 600.039 608.457 552.587C662.147 512.979 668.219 437.262 667.059 395.649C666.433 374.357 664.277 352.68 662.153 331.716C658.431 294.97 654.583 256.97 659.233 219.701C673.683 103.808 779.841 6.04227 895.875 1.78638L896 5.29828C781.602 9.49112 676.941 105.876 662.692 220.161C658.092 257.026 661.915 294.825 665.618 331.382C667.742 352.403 669.948 374.149 670.543 395.573C671.721 437.867 665.487 514.883 610.512 555.437C544.715 603.986 452.444 568.678 415.848 551.257C398.929 543.199 382.047 534.057 365.717 525.211C323.106 502.128 278.998 478.263 230.803 471.776C170.985 463.743 107.018 485.098 63.8616 527.537C20.7053 569.976 -1.99764 633.834 4.62588 694.185L1.15433 694.57Z" fill="#3C19E8"/>
</svg>
