<svg width="85" height="54" viewBox="0 0 85 54" fill="none" xmlns="http://www.w3.org/2000/svg">
<g clip-path="url(#clip0_1181_817)">
<path fill-rule="evenodd" clip-rule="evenodd" d="M24.5181 40.1983C26.464 40.3294 27.5857 38.4422 27.1737 35.9521C27.0469 34.6843 26.5736 33.4947 25.8212 32.5533C25.0689 31.6118 24.076 30.9666 22.9843 30.7097C21.0385 30.7097 19.7794 32.4659 20.1914 34.956C20.3683 36.2268 20.8759 37.4069 21.6478 38.3422C22.4197 39.2774 23.42 39.9243 24.5181 40.1983Z" fill="#FF3737"/>
<path fill-rule="evenodd" clip-rule="evenodd" d="M78.0872 42.1118C83.1006 39.3334 88.4117 43.003 82.1392 46.3581C49.2197 63.9461 42.6495 47.092 27.1971 32.4659C18.8184 24.4189 18.9557 34.3531 19.5281 39.4906C19.8028 42.5574 17.2388 43.2913 17.0099 39.9362C16.4376 24.4713 6.38774 26.7518 1.07668 31.863C-0.31977 33.1998 -0.31977 32.597 0.801965 31.1291C24.1066 0.251755 45.5798 74.4832 60.0936 31.863C61.9021 27.3284 65.2445 29.5302 63.4359 33.9338C60.0936 41.7973 54.0958 57.5243 78.0872 42.1118Z" fill="#1272FF"/>
<path fill-rule="evenodd" clip-rule="evenodd" d="M49.9072 43.1341C53.6845 42.2691 54.7833 37.7344 52.1964 33.1998C49.6096 28.6652 44.7564 25.7295 41.208 26.7518C37.6597 27.774 36.3319 32.1776 38.7127 36.7122C41.0936 41.2468 46.2215 44.1825 49.9988 43.1341H49.9072Z" fill="#FF3737"/>
<path d="M13.0721 11.8636C13.3925 11.3655 13.7588 10.7889 14.148 10.1336C14.5372 9.47829 14.9721 8.84921 15.3842 8.1677L16.6433 6.12319L17.7879 4.3408L18.6349 3.03022C18.8639 2.66325 19.0241 2.45356 19.0699 2.34871C19.2764 2.03774 19.5147 1.75615 19.7796 1.50994C20.1019 1.23513 20.5008 1.10463 20.9013 1.14298H22.0001C22.2749 1.14298 22.4122 1.14298 22.458 1.45752C22.4633 1.59322 22.4436 1.72867 22.4002 1.85511C22.3568 1.98154 22.2907 2.09612 22.2062 2.19144L21.7941 2.82052L20.9471 4.18353L19.8025 6.01835L18.4976 8.08907C18.0855 8.79678 17.6506 9.47829 17.2614 10.1336L16.1854 11.8636H17.6506C18.1955 11.8497 18.7381 11.9473 19.253 12.1519C19.5961 12.2919 19.9085 12.5155 20.1687 12.8072L22.3435 9.24238L24.4496 5.83487L26.075 3.2137C26.51 2.50598 26.7618 2.0866 26.8534 1.98175C27.0514 1.65591 27.3195 1.39409 27.6317 1.22161C27.8897 1.02077 28.1902 0.903075 28.5016 0.880859L29.2571 0.880859C29.5089 0.880859 29.6691 0.880859 29.7149 1.1954C29.725 1.33336 29.7098 1.47221 29.6704 1.60309C29.631 1.73397 29.5682 1.85401 29.486 1.95554C29.486 1.95554 29.1884 2.40114 28.7306 3.10885L27.1052 5.73002L24.9762 9.16375C24.1978 10.3957 23.4882 11.5752 22.8014 12.7285L20.97 15.7691C20.4206 16.6341 20.0772 17.2632 19.894 17.5777C19.6274 17.9946 19.4331 18.4662 19.3217 18.9669C19.3217 19.229 19.3217 19.4125 19.482 19.4387C19.6422 19.4649 19.9856 19.4387 20.4206 19.0193C20.9275 18.6122 21.4094 18.1655 21.8628 17.6825C22.3893 17.1321 22.9158 16.5554 23.4424 15.9001C23.9689 15.2449 24.4268 14.6944 24.8159 14.1702C24.9777 13.9027 25.1887 13.679 25.434 13.5149C25.5943 13.5149 25.7316 13.5149 25.8232 13.5149C25.849 13.5854 25.8623 13.6612 25.8623 13.7377C25.8623 13.8142 25.849 13.8899 25.8232 13.9605C25.7817 14.2134 25.696 14.4541 25.5714 14.6682L24.9304 15.6118C24.6328 16.0312 24.2665 16.503 23.8544 17.001C23.4424 17.4991 22.9845 18.0495 22.5038 18.6C22.023 19.1504 21.5194 19.6484 21.0158 20.1202C20.551 20.5585 20.0616 20.9613 19.5506 21.326C19.1745 21.6241 18.7563 21.8457 18.3144 21.9813C17.9152 22.1475 17.4775 22.1475 17.0782 21.9813C16.9413 21.8858 16.8222 21.7602 16.7279 21.6117C16.6336 21.4633 16.5659 21.2949 16.5288 21.1163C16.428 20.6604 16.428 20.1829 16.5288 19.7271C16.6428 19.1374 16.8358 18.5715 17.1011 18.0495L17.9939 16.4768C18.4289 15.6905 18.9783 14.773 19.6193 13.8556H15.0408C14.1938 15.2973 13.3697 16.4768 12.6142 17.6301C11.932 18.5918 11.1649 19.4702 10.3249 20.2513C9.56309 20.9175 8.71292 21.4396 7.80677 21.7978C6.87333 22.1324 5.90043 22.3004 4.92231 22.2958C4.43296 22.2732 3.95489 22.1207 3.52587 21.8502C3.13986 21.6604 2.80146 21.363 2.54149 20.9852C2.44476 20.9072 2.36962 20.7991 2.32498 20.6736C2.28034 20.5482 2.26809 20.4107 2.28967 20.2775C2.28967 20.0678 2.40413 19.9892 2.54149 20.0154C2.68035 20.0313 2.81383 20.0852 2.93066 20.1726L3.48008 20.4348C3.71835 20.5358 3.96333 20.6147 4.21264 20.6707C4.49381 20.7124 4.7785 20.7124 5.05967 20.6707C5.72502 20.6621 6.37804 20.4639 6.95975 20.094C7.59875 19.6838 8.17802 19.162 8.67669 18.5475C9.28363 17.8444 9.83519 17.0813 10.3249 16.2671C10.8744 15.3934 11.4238 14.5197 11.9732 13.6459H11.2635C10.8444 13.6682 10.4271 13.569 10.0502 13.3576C9.76818 13.2251 9.51725 13.0186 9.31768 12.7547C9.25056 12.6764 9.20094 12.5808 9.17304 12.4758C9.14514 12.3708 9.13979 12.2597 9.15743 12.1519C9.15743 11.9422 9.40925 11.8636 9.72974 11.8636H13.0721Z" fill="#1272FF"/>
<path d="M32.0489 13.9867C31.7427 14.5008 31.3635 14.9526 30.9272 15.3235C30.4321 15.7676 29.8945 16.1457 29.3247 16.4506C28.6917 16.7971 28.0328 17.0778 27.3559 17.2894C26.6105 17.5387 25.8422 17.6882 25.0667 17.735C24.9617 18.1813 24.9617 18.6516 25.0667 19.098C25.1078 19.2827 25.1944 19.4501 25.3161 19.5802C25.4378 19.7103 25.5896 19.7977 25.7535 19.8319C26.3337 20.0054 26.9502 19.9113 27.4704 19.5698C28.1981 19.2271 28.8957 18.8058 29.5536 18.3116C30.3542 17.7347 31.1191 17.0954 31.8429 16.3982C32.5813 15.7112 33.2845 14.976 33.949 14.1964C34.1046 13.932 34.3288 13.7302 34.59 13.6197C34.6544 13.5848 34.7247 13.5666 34.796 13.5666C34.8673 13.5666 34.9377 13.5848 35.002 13.6197C35.0337 13.6732 35.0525 13.7353 35.0566 13.7997C35.0606 13.8641 35.0497 13.9286 35.0249 13.9867C34.9674 14.2268 34.866 14.4502 34.7273 14.642C34.1321 15.4021 33.4454 16.1885 32.6212 17.0535C31.8043 17.9003 30.9484 18.6965 30.0573 19.4387C29.2351 20.1294 28.3706 20.7514 27.4704 21.2998C26.7651 21.7345 25.9817 21.9767 25.1811 22.0075C24.8102 22.0533 24.4349 22.0042 24.0826 21.8637C23.7302 21.7231 23.4095 21.4947 23.1437 21.1949C22.9528 20.9207 22.8119 20.6054 22.7293 20.2678C22.6467 19.9301 22.6242 19.5769 22.663 19.229C22.7373 18.3082 22.9791 17.4154 23.3726 16.6079C23.8393 15.6428 24.4253 14.7599 25.1125 13.9867C25.8361 13.14 26.6798 12.4399 27.6078 11.916C28.5361 11.3738 29.5646 11.0952 30.6067 11.1034C30.9832 11.0957 31.3571 11.176 31.7055 11.3393C31.9896 11.4673 32.2358 11.6856 32.4152 11.9684C32.5631 12.2519 32.6198 12.5857 32.5754 12.912C32.4823 13.3155 32.3011 13.6853 32.0489 13.9867ZM28.7524 12.4926C28.4131 12.6222 28.0956 12.8172 27.8138 13.0693C27.4939 13.355 27.1952 13.6706 26.921 14.0129C26.3587 14.7418 25.8956 15.5636 25.5474 16.4506C26.2757 16.3634 26.9912 16.1696 27.6764 15.8739C28.207 15.6368 28.7074 15.3194 29.1644 14.9303C29.5017 14.6343 29.7888 14.2701 30.0115 13.8556C30.1552 13.569 30.2266 13.2423 30.2175 12.912C30.2024 12.7875 30.1551 12.671 30.0817 12.5776C30.0082 12.4841 29.912 12.418 29.8054 12.3878C29.4783 12.2948 29.1338 12.3223 28.8211 12.4664L28.7524 12.4926Z" fill="#1272FF"/>
<path d="M43.9987 1.95554L43.289 3.10885L41.6636 5.73002C41.0226 6.77849 40.2901 7.90559 39.5346 9.16375L37.2454 12.7285L35.414 15.7429C35.036 16.3336 34.6845 16.946 34.3609 17.5777C34.101 17.9933 33.9001 18.4533 33.7657 18.9407C33.7657 19.229 33.7657 19.3863 33.926 19.4387C34.0862 19.4911 34.4067 19.4387 34.8417 19.0193C35.3572 18.6352 35.8401 18.1964 36.2839 17.7088C36.8104 17.1583 37.3369 16.5817 37.8864 15.9526C38.4358 15.3235 38.8478 14.7468 39.2141 14.2226C39.3875 13.967 39.5963 13.7456 39.8322 13.5673C40.0154 13.5673 40.1527 13.5673 40.2214 13.5673C40.2535 13.6358 40.2702 13.7124 40.2702 13.7901C40.2702 13.8678 40.2535 13.9444 40.2214 14.0129C40.188 14.2604 40.1183 14.4997 40.0154 14.7206L39.3744 15.6642L38.2984 17.0535L36.9478 18.6262C36.4741 19.1526 35.9774 19.6513 35.4598 20.1202C34.995 20.5585 34.5056 20.9613 33.9946 21.326C33.5977 21.6498 33.1451 21.8732 32.6669 21.9813C32.2699 22.1622 31.8276 22.1622 31.4307 21.9813C31.2807 21.8982 31.1491 21.7771 31.046 21.6273C30.9429 21.4774 30.8709 21.3027 30.8355 21.1163C30.7476 20.6498 30.7476 20.1673 30.8355 19.7008C30.9726 19.124 31.1726 18.5692 31.4307 18.0495C31.4307 17.8398 31.7512 17.4728 32.0717 16.9224C32.3922 16.372 32.7813 15.6905 33.2392 14.9303L34.7501 12.3091L36.4212 9.68798L38.0924 7.06681C38.6189 6.17562 39.1226 5.38927 39.5346 4.70776C39.9467 4.02626 40.3359 3.4496 40.6106 2.97779L41.1142 2.19144C41.3424 1.88144 41.613 1.61587 41.9155 1.40509C42.2249 1.10321 42.6092 0.91988 43.0143 0.880859L43.8155 0.880859C44.0673 0.880859 44.2276 0.880859 44.2505 1.1954C44.2607 1.33558 44.2433 1.47659 44.1997 1.60811C44.1562 1.73963 44.0875 1.85834 43.9987 1.95554Z" fill="#1272FF"/>
<path d="M38.5294 21.1424C38.3511 20.8702 38.2547 20.5391 38.2547 20.1988C37.4306 21.5618 36.6065 23.0035 35.7365 24.5237L33.1268 29.2418C33.0854 29.3712 33.0049 29.4793 32.9 29.5466C32.795 29.6139 32.6724 29.636 32.5545 29.6088C32.2931 29.5239 32.0561 29.3611 31.8677 29.137C31.6551 28.8632 31.5125 28.5277 31.4556 28.1672C31.3325 27.7956 31.3325 27.3854 31.4556 27.0138C31.4556 26.8828 31.6846 26.5945 31.9593 26.0964L33.0352 24.2616L34.5919 21.8501L36.2173 19.229L37.8427 16.6078L39.2391 14.3012L40.2693 12.6761L40.6813 12.0208C40.8971 11.7414 41.1625 11.518 41.4597 11.3655C41.719 11.1963 42.0088 11.0976 42.3067 11.0771H43.1079C43.3598 11.0771 43.52 11.0771 43.5658 11.3655C43.6116 11.6538 43.5658 11.8111 43.3369 12.1256L42.8561 12.8071C43.6794 12.1311 44.5912 11.6092 45.5574 11.2606C45.8665 11.103 46.2077 11.0466 46.5431 11.0975C46.8785 11.1484 47.195 11.3046 47.4575 11.549C47.599 11.739 47.7046 11.9606 47.7677 12.1997C47.8307 12.4388 47.8498 12.6902 47.8238 12.9382C47.7759 13.6113 47.6207 14.2687 47.366 14.8778C47.0521 15.6634 46.6685 16.41 46.2213 17.1058C45.7255 17.8991 45.1824 18.6523 44.596 19.36C44.0341 20.0145 43.4035 20.5868 42.7188 21.0638C42.1704 21.4473 41.5768 21.7386 40.956 21.9288C40.4742 22.0583 39.9727 22.0583 39.4909 21.9288C39.0956 21.814 38.7524 21.5334 38.5294 21.1424ZM40.9332 15.9001C40.5327 16.4747 40.1656 17.0789 39.8343 17.7087C39.6238 18.1316 39.4548 18.5799 39.3307 19.0455C39.2648 19.3378 39.2648 19.6444 39.3307 19.9367C39.3412 20.0348 39.3689 20.1296 39.4122 20.2151C39.4554 20.3007 39.5134 20.3754 39.5825 20.4347C39.903 20.6968 40.4066 20.6182 41.0705 20.1988C41.8881 19.6551 42.5915 18.9124 43.1308 18.0232C43.4666 17.499 43.7871 16.9748 44.0923 16.4505C44.3646 15.9988 44.5947 15.5156 44.7791 15.0089C44.9318 14.6432 45.0396 14.2551 45.0996 13.8556C45.1366 13.7262 45.1389 13.5871 45.1062 13.4562C45.0735 13.3253 45.0073 13.2086 44.9162 13.1212C44.825 13.0338 44.7131 12.9796 44.5948 12.9657C44.4766 12.9517 44.3573 12.9787 44.2526 13.043C43.9033 13.1348 43.5704 13.2943 43.2682 13.5148C42.8549 13.8081 42.4643 14.1413 42.1007 14.5109C41.6774 14.9253 41.2868 15.3813 40.9332 15.8739V15.9001Z" fill="#1272FF"/>
<path d="M53.3625 11.9946L52.836 12.7285L51.8974 14.1702L50.8443 15.9001L49.8828 17.5515C49.6271 17.9662 49.4337 18.4269 49.3105 18.9145C49.3105 19.2028 49.3105 19.3601 49.4708 19.4125C49.8113 19.4099 50.1383 19.2601 50.3865 18.9931C50.8937 18.5958 51.3756 18.1579 51.8287 17.6825C52.3552 17.1321 52.8818 16.5554 53.4083 15.9264C53.9348 15.2973 54.3927 14.7206 54.7818 14.1964C54.9436 13.9289 55.1546 13.7052 55.3999 13.5411C55.5831 13.5411 55.6975 13.5411 55.7891 13.5411C55.8149 13.6117 55.8282 13.6874 55.8282 13.7639C55.8282 13.8404 55.8149 13.9161 55.7891 13.9867C55.7582 14.243 55.6716 14.4863 55.5373 14.6944L54.9421 15.638C54.6445 16.0574 54.2782 16.503 53.8661 17.0273C53.4541 17.5515 53.0191 18.0495 52.5155 18.6C52.0118 19.1504 51.5311 19.6484 51.0275 20.094C50.5512 20.527 50.0544 20.9295 49.5394 21.2998C49.1618 21.5717 48.7422 21.7585 48.3033 21.8502C47.9068 22.0338 47.4635 22.0338 47.0671 21.8502C46.9232 21.7612 46.7978 21.6379 46.699 21.4887C46.6003 21.3395 46.5307 21.1678 46.4947 20.9852C46.4054 20.5189 46.4054 20.036 46.4947 19.5698C46.6217 18.989 46.8222 18.4327 47.0899 17.9184C47.296 17.4991 47.5707 17.001 47.937 16.372C48.3033 15.7429 48.6466 15.14 49.0129 14.5371L50.0431 12.9382C50.3407 12.4402 50.5696 12.1257 50.6612 11.9946C50.8925 11.7186 51.1738 11.5038 51.4853 11.3655C51.7446 11.1963 52.0344 11.0977 52.3323 11.0772H53.1336C53.3854 11.0772 53.5456 11.0772 53.5914 11.3655C53.6372 11.6539 53.5456 11.6801 53.3625 11.9946ZM56.0409 7.14545C56.0486 7.60181 55.9008 8.04367 55.6289 8.3774C55.341 8.69835 54.9547 8.87717 54.5529 8.87542C54.3572 8.87714 54.1632 8.83395 53.9824 8.74841C53.8015 8.66288 53.6374 8.53672 53.4999 8.3774C53.3548 8.21809 53.2395 8.02681 53.1608 7.81508C53.0821 7.60334 53.0417 7.37555 53.042 7.14545C53.0378 6.91855 53.0766 6.6933 53.1556 6.48517C53.2346 6.27704 53.3521 6.09096 53.4999 5.93971C53.634 5.77526 53.7975 5.6457 53.9792 5.55979C54.1608 5.47387 54.3565 5.4336 54.5529 5.44169C54.7526 5.43485 54.9514 5.47559 55.1366 5.56132C55.3218 5.64705 55.4894 5.7759 55.6289 5.93971C55.766 6.09763 55.8734 6.28615 55.9443 6.49357C56.0152 6.70098 56.0481 6.92287 56.0409 7.14545Z" fill="#1272FF"/>
<path d="M61.8102 10.9987C62.1934 10.8888 62.5944 10.8888 62.9777 10.9987C63.1246 11.0497 63.2532 11.1539 63.344 11.2957C63.4348 11.4375 63.483 11.6092 63.4813 11.785C63.4542 12.3995 63.2885 12.9955 63.0006 13.515C62.5324 14.6056 61.9727 15.6414 61.3294 16.608C60.9879 17.0539 60.6742 17.5269 60.3908 18.0234C60.2429 18.3056 60.1202 18.6042 60.0246 18.9146C60.0246 19.1505 60.0246 19.3078 60.0246 19.3864C60.0397 19.4243 60.0619 19.458 60.0896 19.4852C60.1173 19.5123 60.1497 19.5323 60.1848 19.5437C60.3679 19.5437 60.6655 19.5437 61.1005 19.1243C61.6077 18.727 62.0896 18.289 62.5427 17.8137C63.0464 17.2632 63.5729 16.6866 64.0994 16.0575C64.5776 15.5102 65.0285 14.9327 65.4501 14.3275C65.6375 14.0678 65.862 13.8463 66.114 13.6722C66.2742 13.6722 66.4116 13.6722 66.4803 13.6722C66.5253 13.7334 66.5587 13.8046 66.5784 13.8813C66.5981 13.958 66.6037 14.0385 66.5947 14.1178C66.5532 14.3707 66.4675 14.6114 66.3429 14.8256L65.7019 15.7692L64.626 17.1584L63.2753 18.7311C62.7946 19.2553 62.2909 19.7796 61.8102 20.2252C61.3454 20.6634 60.856 21.0662 60.3451 21.4309C59.9495 21.7405 59.507 21.9627 59.0402 22.0862C58.6037 22.2663 58.126 22.2663 57.6895 22.0862C57.5219 21.9859 57.378 21.8404 57.2704 21.6624C57.1627 21.4843 57.0944 21.2789 57.0714 21.0639C56.9426 20.3709 56.9984 19.6495 57.2317 18.9932C57.5611 18.0505 58.0083 17.1675 58.5594 16.372L60.3222 13.9868C60.6655 13.4888 60.7571 13.1742 60.5511 13.0694C60.3451 12.9645 60.0474 13.0694 59.5209 13.515C58.9001 13.9884 58.3109 14.5141 57.7582 15.0877C57.0604 15.7803 56.3956 16.5153 55.7665 17.2895C55.1588 17.9989 54.6 18.7613 54.0954 19.5699C54.0954 19.5699 54.0954 19.5699 53.9809 19.7271L53.2713 20.9067C53.0477 21.2148 52.776 21.4726 52.47 21.6668C52.2163 21.8506 51.9232 21.9504 51.623 21.9551H50.8218C50.5699 21.9551 50.4326 21.9551 50.3868 21.6406C50.341 21.3261 50.3868 21.195 50.6386 20.9067L56.1557 11.9423C56.3781 11.6913 56.643 11.495 56.9341 11.3656C57.1923 11.1937 57.4827 11.0949 57.7811 11.0773H58.5823C58.8341 11.0773 58.9715 11.0773 59.0173 11.3656C59.032 11.5039 59.0191 11.6442 58.9794 11.7759C58.9398 11.9076 58.8744 12.0273 58.7884 12.1258L57.804 13.7247C58.45 13.0869 59.1389 12.5085 59.8643 11.9947C60.4496 11.5198 61.1108 11.1814 61.8102 10.9987Z" fill="#1272FF"/>
<path d="M65.1071 14.4585C65.8429 13.6172 66.6566 12.8701 67.5337 12.2305C68.1883 11.7375 68.9068 11.3659 69.6627 11.1296C70.2321 10.9219 70.8373 10.8769 71.4254 10.9985C71.8931 11.0843 72.3298 11.3207 72.6845 11.68C72.8819 11.4497 73.1147 11.2631 73.3713 11.1296C73.6011 11.009 73.851 10.9464 74.1038 10.9461H74.8822C75.134 10.9461 75.2942 10.9461 75.34 11.2344C75.3548 11.3727 75.3418 11.5131 75.3022 11.6448C75.2625 11.7765 75.1972 11.8961 75.1111 11.9946L74.5617 12.7809L73.3713 14.6944L71.6543 17.499L69.5711 21.0114C68.8385 22.2696 68.0602 23.6326 67.2819 24.9956C66.5035 26.3586 65.7023 27.8002 64.9926 29.2419C64.9468 29.3733 64.862 29.4821 64.7532 29.5492C64.6444 29.6162 64.5184 29.6374 64.3974 29.6088C64.1403 29.5299 63.9094 29.3657 63.7335 29.137C63.5136 28.8655 63.3631 28.53 63.2985 28.1672C63.2114 27.7797 63.2522 27.3691 63.413 27.0139C63.6132 26.5748 63.8428 26.1541 64.0998 25.7557C64.4661 25.1528 64.9239 24.4451 65.4504 23.6326C65.977 22.82 66.5493 21.9288 67.1674 21.0114L69.0217 18.3902C68.7012 18.7572 68.3349 19.1766 67.9228 19.596C67.5097 20.0279 67.074 20.4306 66.618 20.8017C66.1776 21.1406 65.7188 21.4471 65.2444 21.7191C64.8269 21.9357 64.375 22.0517 63.9166 22.0599C63.6925 22.0785 63.4677 22.0359 63.2608 21.9357C63.0538 21.8354 62.8706 21.6804 62.7262 21.4832C62.4442 21.0072 62.3297 20.4267 62.4057 19.8581C62.5013 19.013 62.7509 18.2004 63.1383 17.4728C63.6679 16.3673 64.3306 15.3526 65.1071 14.4585ZM66.4348 15.7166C66.0225 16.22 65.6825 16.7951 65.4276 17.4204C65.2289 17.8412 65.1118 18.3061 65.0842 18.7834C65.0842 19.1504 65.2444 19.3863 65.5191 19.4387C65.9705 19.4256 66.4054 19.2412 66.7553 18.9145C67.2842 18.5093 67.782 18.0533 68.2433 17.5515C68.7984 16.9637 69.3257 16.3425 69.8229 15.6904C70.3266 15.0351 70.7844 14.4323 71.1965 13.8556L72.1122 12.5188C71.6781 12.25 71.1723 12.1753 70.6928 12.3091C70.1424 12.4415 69.6159 12.6808 69.1361 13.0168C68.6016 13.3831 68.1028 13.8136 67.6481 14.3012C67.1989 14.7373 66.7781 15.2104 66.389 15.7166H66.4348Z" fill="#1272FF"/>
</g>
<defs>
<clipPath id="clip0_1181_817">
<rect width="85" height="53" fill="white" transform="translate(0 0.880859)"/>
</clipPath>
</defs>
</svg>
