<svg width="107" height="52" viewBox="0 0 107 52" fill="none" xmlns="http://www.w3.org/2000/svg">
<path d="M31.3424 14.9092C32.6488 18.4109 33.2735 22.7143 32.8866 28L32.8264 27.943C28.0892 4.96199 7.8371 4.06836 7 4.03983C25.0515 3.24444 31.1871 14.6208 31.3424 14.9092Z" fill="url(#paint0_linear_1181_841)"/>
<path d="M33 28C25.6654 9.41476 7 5 7 5C7.84262 5.02742 28.2283 5.88661 33 28Z" fill="url(#paint1_linear_1181_841)"/>
<path d="M34.1845 27L34.2163 26.9476C49.6372 20.9333 48.0005 6.39039 47.9273 5.78798C47.9288 5.78263 47.9288 5.77695 47.9273 5.77161L47.8445 5.71268C35.3722 8.21726 33.0541 17.2567 33 17.499C33 17.499 33 17.476 33 17.4662C33.0191 17.2992 33.0414 17.1388 33.0637 16.9751C33.0637 16.8671 33.0987 16.759 33.1146 16.6477C33.1306 16.5364 33.1624 16.3858 33.1879 16.2548L33.2356 16.0224C33.2547 15.9471 33.2675 15.8685 33.2866 15.7932C33.3057 15.7179 33.3216 15.6361 33.3407 15.5575L33.398 15.3283L33.4553 15.1155C33.4553 15.0729 33.4776 15.0304 33.4904 14.9911C33.5031 14.9518 33.5318 14.847 33.5509 14.7783C33.6082 14.5982 33.6623 14.4182 33.7228 14.2446C33.7483 14.1726 33.7706 14.1006 33.7992 14.0318C33.8279 13.9631 33.847 13.891 33.8756 13.8223C33.9234 13.6815 33.9807 13.544 34.0348 13.4098C34.0635 13.3443 34.0922 13.2755 34.1176 13.2068C34.1431 13.138 34.1495 13.1413 34.1622 13.1086C34.175 13.0758 34.1909 13.0398 34.2068 13.0071L34.4074 12.5684L34.4997 12.3817C34.5379 12.3032 34.5793 12.2279 34.6175 12.1526C34.6972 12.002 34.7799 11.8546 34.8627 11.7073L34.9869 11.4912C35.0092 11.4519 35.0315 11.4127 35.057 11.3766C35.0824 11.3406 35.057 11.3766 35.057 11.3504C35.2066 11.1049 35.3754 10.8626 35.5218 10.6302C35.5951 10.5221 35.6683 10.4141 35.7479 10.3028C35.8275 10.1915 35.8657 10.1391 35.9262 10.0605C35.9867 9.98193 35.9708 10.0016 35.9899 9.97538L36.216 9.68727C36.2892 9.59233 36.3688 9.50065 36.4452 9.40571V9.38607L36.6936 9.09796C36.7605 9.02266 36.8273 8.94735 36.8974 8.87533C36.9238 8.83953 36.9536 8.80662 36.9866 8.77711C37.0502 8.70835 37.1107 8.6396 37.1776 8.57412L37.2254 8.52501C37.305 8.43989 37.3878 8.35477 37.4674 8.27619L37.6807 8.06993L37.8144 7.94552C37.8909 7.87022 37.9673 7.80147 38.0437 7.73271C38.1201 7.66396 38.2061 7.58538 38.2889 7.51663L38.5341 7.30382L38.6359 7.2187L38.8238 7.06155C39.1422 6.79636 39.4893 6.54099 39.8268 6.30199L40.0147 6.16776C40.5528 5.79453 41.1005 5.45076 41.6481 5.13973C41.7118 5.10045 41.7787 5.06116 41.8488 5.02514C42.0716 4.89746 42.2977 4.77632 42.5206 4.66173L42.7849 4.52423C43.0524 4.38672 43.3198 4.25904 43.5841 4.13463L43.8293 4.02331L44.0172 3.93819L44.2496 3.83669C44.3738 3.78104 44.4948 3.73193 44.6158 3.68282L44.9119 3.56168L45.2048 3.44382L45.4914 3.33578L45.7716 3.23101L46.0486 3.12952H46.09L46.8479 2.87087L47.0994 2.7923C47.2777 2.73337 47.4497 2.68426 47.6184 2.63515L47.819 2.57622L48.666 2.34704L48.7806 2.32085L49.0386 2.25864L49.2073 2.21936C49.3729 2.18007 49.5257 2.14733 49.6563 2.12114L49.7805 2.09494L50.2772 2C50.3027 2.10804 50.3504 2.3274 50.4109 2.63842C50.4109 2.68753 50.43 2.73337 50.4364 2.78248C50.5128 3.17535 50.5988 3.69919 50.6816 4.31797C50.7007 4.47512 50.7198 4.64536 50.7421 4.80251L50.8249 5.0186C50.8408 5.18884 50.8599 5.36891 50.8758 5.55225C50.9427 6.28889 50.9904 7.10739 51 7.98481C51 8.09612 51 8.20416 51 8.3122C51 8.53811 51 8.76401 51 8.99319C51 9.10778 51 9.22237 51 9.34023C50.9809 9.88043 50.9459 10.437 50.8917 11.0001C50.8917 11.0853 50.8758 11.1671 50.8663 11.2522C50.8344 11.5371 50.7994 11.8284 50.7612 12.1166L50.723 12.3556C50.6529 12.8139 50.5701 13.2755 50.4714 13.7404C50.4141 13.9925 50.3568 14.2446 50.2931 14.4967C50.2294 14.7488 50.1658 14.9682 50.0989 15.2039C50.032 15.4396 49.9556 15.6721 49.876 15.9078C49.8569 15.97 49.8346 16.0355 49.8091 16.0977C49.3148 17.5463 48.621 18.9145 47.749 20.1607C47.663 20.2851 47.5707 20.4062 47.4751 20.5306C47.3796 20.6551 47.2905 20.7762 47.1918 20.8973C47.144 20.9595 47.093 21.0152 47.0453 21.0774C46.9434 21.1985 46.8415 21.3164 46.7269 21.4343L46.5677 21.6111L46.4244 21.7649L45.9754 22.22L45.8194 22.3673C45.7653 22.4164 45.7143 22.4688 45.6602 22.5147C45.606 22.5605 45.5551 22.6129 45.4978 22.6587C45.3354 22.806 45.1794 22.9468 44.9947 23.0876C44.81 23.2284 44.6444 23.3626 44.4629 23.4969L44.256 23.6475L44.0904 23.7588C44.0267 23.8013 43.9662 23.8472 43.8993 23.8897L43.7051 24.0174C43.5777 24.0993 43.444 24.1844 43.3103 24.263L43.1097 24.3808C40.8139 25.7264 37.894 26.6693 34.1845 27Z" fill="url(#paint2_linear_1181_841)"/>
<path d="M6.86276 4.31361L6.76871 4.41913C7.32049 21.3887 17.4908 27.1443 19.1399 27.9693H19.1963H19.2245H19.1775C19.2809 28.0204 19.3405 28.0492 19.3625 28.0556C19.3468 28.0574 19.3311 28.0574 19.3154 28.0556L19.0646 27.9757C17.8106 27.9757 9.65928 28.353 4.14776 38.8475L4.17597 38.9402C4.66818 39.1704 15.7445 44.1426 25.316 34.4284C15.1928 49.3355 0.260214 40.3023 0 40.1489C0.0438916 40.0721 0.115999 39.9154 0.231998 39.698C0.247674 39.6628 0.26962 39.6245 0.291566 39.5829C0.354268 39.4646 0.429511 39.3303 0.511023 39.1832C0.53924 39.1352 0.567456 39.0873 0.595672 39.0329L0.727346 38.8027C0.748477 38.7711 0.767337 38.7379 0.783778 38.7036C0.924858 38.4733 1.07221 38.2207 1.2415 37.9553C1.27599 37.8978 1.31675 37.8402 1.35123 37.7795C1.44529 37.6324 1.54248 37.4789 1.64593 37.3254L1.79328 37.108L2.24788 36.4684C2.24788 36.4684 2.24788 36.4461 2.27296 36.4365L2.44539 36.1999L2.62409 35.9568L2.80593 35.7138L2.99717 35.4676L3.19468 35.2214L3.44235 34.9016L3.60538 34.7098C3.64927 34.6586 3.68689 34.6043 3.73706 34.5531L3.90949 34.3485C4.09759 34.131 4.29197 33.9104 4.49575 33.693L4.69953 33.4787C4.86883 33.2997 5.0444 33.1174 5.22623 32.9383L5.38926 32.7784C5.83445 32.3436 6.30471 31.9183 6.80633 31.4994L6.97876 31.3587C7.29227 31.1029 7.63087 30.8535 7.96946 30.6137C8.0353 30.5657 8.10427 30.5242 8.16697 30.4794L8.27356 30.4058L8.54005 30.23L8.80967 30.0509L9.06988 29.891L9.2235 29.7983L9.47431 29.6544L9.78782 29.4913L9.84426 29.4626C9.92577 29.4146 10.0041 29.373 10.0857 29.3347C10.1672 29.2963 10.1609 29.2931 10.2017 29.2771L10.4681 29.146L10.7817 28.9925C10.7899 28.9942 10.7985 28.9942 10.8067 28.9925L11.1202 28.855C11.2268 28.8071 11.3366 28.7623 11.4338 28.7207C11.4651 28.7062 11.4976 28.6944 11.5309 28.6855L11.8068 28.58C11.926 28.5385 12.0451 28.4937 12.1642 28.4585C12.4245 28.3722 12.6909 28.289 12.9606 28.2187H12.9888L13.111 28.1867L13.3462 28.126L13.8227 28.0236L14.0673 27.9725L14.2679 27.9437C14.4184 27.9149 14.5814 27.8925 14.7256 27.8734H14.8322H14.9357L15.1457 27.851C15.2868 27.851 15.4279 27.8254 15.569 27.8158L15.7822 27.7998H15.9985C16.174 27.7998 16.3559 27.7998 16.5377 27.7998H16.7509H16.8732H17.0832H17.309H17.541L17.7667 27.8158L17.9924 27.8382L18.3749 27.8798L18.6884 27.9245L18.8452 27.9501L18.6288 27.883L18.2025 27.7391L17.6914 27.5504L17.3779 27.4289L17.0644 27.3106L16.7509 27.1795L16.4374 27.0484L16.1615 26.9205L16.0048 26.8437L15.7289 26.7062C15.4969 26.5879 15.268 26.4696 15.0454 26.3449L14.7727 26.1946L14.5093 26.038C14.3337 25.9356 14.1582 25.8301 13.9857 25.7182L13.7318 25.5551C13.691 25.5263 13.6503 25.4976 13.6064 25.472L13.4841 25.3888C13.296 25.2609 13.1173 25.133 12.9355 25.0019L12.7003 24.8293C12.6063 24.7621 12.5091 24.6854 12.415 24.6118C12.2311 24.4669 12.0493 24.3198 11.8695 24.1706L11.6062 23.9435C11.5575 23.9064 11.5114 23.8658 11.4682 23.822C11.4566 23.8151 11.4461 23.8065 11.4369 23.7964C11.1234 23.5311 10.8444 23.2561 10.5622 22.9747C10.4337 22.85 10.3051 22.7189 10.1797 22.5878L9.89128 22.268C9.85643 22.2341 9.82396 22.1978 9.79409 22.1593C9.67809 22.0314 9.56523 21.9067 9.45237 21.7756C9.3395 21.6477 9.22664 21.5166 9.12004 21.3887L9.0981 21.3567C8.9821 21.2192 8.87237 21.0817 8.76578 20.9442L8.5087 20.6245C8.46794 20.5733 8.43032 20.5253 8.39583 20.4742C8.31746 20.3686 8.23594 20.2663 8.16384 20.1544L8.1074 20.0713C8.01021 19.9402 7.9193 19.8091 7.82838 19.6716V19.6556C7.75 19.5437 7.67476 19.4286 7.59638 19.3102L7.52427 19.0608C7.44589 18.9393 7.36752 18.8178 7.28914 18.6899C7.21076 18.562 7.12925 18.4309 7.05087 18.2998C6.97249 18.1687 6.89411 18.0376 6.81887 17.9033C6.79066 17.849 6.7593 17.7946 6.72795 17.7402L6.55866 17.4205C6.27023 16.8961 6.00374 16.3621 5.75293 15.8217C5.70591 15.7258 5.66201 15.6266 5.61812 15.5275C5.22937 14.7025 4.89078 13.852 4.58981 13.0078L4.47694 12.6881C4.35781 12.3395 4.24494 11.9942 4.13521 11.652C4.09446 11.5146 4.05057 11.3803 4.01295 11.246C3.88441 10.8367 3.77154 10.4306 3.66495 10.0277C3.63046 9.90297 3.59911 9.77507 3.56776 9.65036C3.53641 9.52566 3.5176 9.4649 3.49565 9.36898C3.47371 9.27305 3.43608 9.13236 3.411 9.01724C3.36711 8.82859 3.32322 8.64313 3.28246 8.46406C3.24171 8.285 3.21663 8.16349 3.18528 8.0132C3.15392 7.86292 3.12257 7.72222 3.09436 7.57514C3.06614 7.42805 3.03479 7.28735 3.00971 7.14666C2.98463 7.00597 2.95641 6.86527 2.93133 6.72458C2.90625 6.58389 2.88117 6.44319 2.85609 6.3057C2.85736 6.28547 2.85736 6.26517 2.85609 6.24494C2.79025 5.85484 2.73068 5.47753 2.68052 5.113C2.68052 4.9851 2.64604 4.86039 2.63036 4.73569C2.59274 4.47349 2.56139 4.21448 2.53317 3.96827C2.53317 3.86595 2.51123 3.76682 2.49869 3.67089C2.45166 3.21684 2.41404 2.79796 2.38269 2.41425C2.38269 2.35989 2.38269 2.30553 2.38269 2.25117C2.38269 2.11687 2.36388 1.99217 2.35447 1.87066C2.34506 1.74915 2.35447 1.70438 2.35447 1.62125C2.35447 1.38143 2.32625 1.1608 2.31998 0.981731C2.31998 0.914582 2.31998 0.857025 2.31998 0.799469C2.31998 0.447735 2.31998 0.198324 2.31998 0.0704211C2.46733 0.0704211 2.77458 0.0384453 3.21349 0.0192598H3.411C3.96278 -0.00312321 4.68699 -0.00951837 5.54288 0.0192598L6.21066 0.0384453L6.56179 0.0544332C6.80006 0.0544332 7.04774 0.0800138 7.29854 0.0991993C8.31119 0.166348 9.42729 0.281461 10.6155 0.460526L11.0669 0.530872C11.3805 0.578836 11.672 0.633195 11.9793 0.690751L12.4464 0.780283C13.1706 0.93057 13.9168 1.10004 14.6692 1.30469C14.7821 1.33346 14.8918 1.36224 15.0015 1.39742C15.3809 1.49974 15.7633 1.61805 16.149 1.73636L16.4625 1.84508C17.0644 2.04013 17.6695 2.26396 18.2746 2.50698C18.5881 2.64127 18.9298 2.78197 19.2527 2.92586C19.5756 3.06975 19.8798 3.21044 20.1682 3.35753C20.4566 3.50462 20.7701 3.67729 21.068 3.83077L21.3125 3.96507C23.1555 4.99344 24.8447 6.28558 26.3287 7.80216C26.4792 7.95565 26.6234 8.12192 26.7707 8.26901C26.9181 8.4161 27.0592 8.58877 27.2002 8.75824L27.4134 9.00445C27.5514 9.17393 27.6893 9.34659 27.8241 9.51926C27.8931 9.6056 27.9589 9.69513 28.0279 9.78466L28.2066 10.0213C28.3822 10.2643 28.5515 10.5073 28.7208 10.7599L28.8838 11.0157C28.9402 11.1021 28.9935 11.1852 29.0468 11.2747C29.1001 11.3643 29.1566 11.4474 29.2099 11.5337C29.3666 11.7991 29.5234 12.0645 29.6707 12.3427C29.8181 12.6209 29.9842 12.9023 30.1065 13.1901L30.2633 13.5098L30.3792 13.772C30.4263 13.868 30.467 13.9703 30.5141 14.0694C30.5611 14.1685 30.5987 14.2677 30.6395 14.3732C30.7241 14.5746 30.8056 14.7825 30.8871 14.9871C30.9248 15.0926 30.9655 15.195 31 15.3069C30.815 14.9903 24.7423 3.51101 6.89725 4.31361H6.86903H6.86276Z" fill="url(#paint3_linear_1181_841)"/>
<path d="M37.8415 38L28.1604 28.5013L28.6453 28.6186L28.6799 37.6147H27V25.134H27.0866L36.6639 34.6662L36.2655 34.5825L36.2309 25.5026H37.8935V38H37.8415Z" fill="#00989F"/>
<path d="M40.2473 37.6147L45.7201 25H45.824L51.2794 37.6147H49.357L45.2698 27.5464L46.4648 26.7925L41.8926 37.6147H40.2473ZM43.4513 33.0245H48.1101L48.6643 34.4317H42.9664L43.4513 33.0245Z" fill="#00989F"/>
<path d="M51.7558 25.5026H60.0688V27.0606H56.7089V37.6147H55.029V27.0606H51.7558V25.5026Z" fill="#00989F"/>
<path d="M64.2435 33.326C64.2435 33.8733 64.3763 34.3647 64.6419 34.8003C64.919 35.2247 65.2827 35.5597 65.733 35.8054C66.1832 36.0511 66.6913 36.174 67.257 36.174C67.8458 36.174 68.3712 36.0511 68.833 35.8054C69.2948 35.5597 69.6585 35.2247 69.9241 34.8003C70.1896 34.3647 70.3224 33.8733 70.3224 33.326V25.5026H71.9677V33.3763C71.9677 34.2586 71.7541 35.0292 71.3269 35.6881C70.9113 36.3471 70.3455 36.8552 69.6297 37.2126C68.9254 37.57 68.1345 37.7487 67.257 37.7487C66.3795 37.7487 65.5886 37.57 64.8843 37.2126C64.18 36.8552 63.6201 36.3471 63.2044 35.6881C62.7888 35.0292 62.5809 34.2586 62.5809 33.3763V25.5026H64.2435V33.326Z" fill="#00989F"/>
<path d="M78.7297 25.5026C79.3647 25.5026 79.9478 25.5863 80.4789 25.7539C81.0216 25.9102 81.4892 26.1503 81.8817 26.4742C82.2858 26.7869 82.5976 27.1778 82.8169 27.6469C83.0479 28.1048 83.1633 28.6409 83.1633 29.2552C83.1633 29.7354 83.0883 30.2045 82.9382 30.6624C82.7996 31.1203 82.5629 31.5391 82.2281 31.9188C81.8933 32.2874 81.4545 32.5889 80.9119 32.8235C80.3808 33.0468 79.7227 33.1585 78.9375 33.1585H77.0844V37.6147H75.4045V25.5026H78.7297ZM78.9029 31.6005C79.3994 31.6005 79.8093 31.5279 80.1325 31.3827C80.4674 31.2375 80.7271 31.0533 80.9119 30.8299C81.0966 30.5954 81.2294 30.3441 81.3102 30.076C81.391 29.808 81.4314 29.5567 81.4314 29.3222C81.4314 29.0765 81.3853 28.8252 81.2929 28.5683C81.2121 28.3003 81.0735 28.0546 80.8772 27.8312C80.6925 27.6078 80.4443 27.4235 80.1325 27.2784C79.8323 27.1332 79.4629 27.0606 79.0241 27.0606H77.0844V31.6005H78.9029ZM80.9638 32.5219L84.2371 37.6147H82.2974L78.9722 32.5722L80.9638 32.5219Z" fill="#00989F"/>
<path d="M85.5737 37.6147L91.0465 25H91.1504L96.6058 37.6147H94.6834L90.5962 27.5464L91.7912 26.7925L87.219 37.6147H85.5737ZM88.7777 33.0245H93.4364L93.9906 34.4317H88.2928L88.7777 33.0245Z" fill="#00989F"/>
<path d="M98.9641 25.5026H100.644V36.0567H107V37.6147H98.9641V25.5026Z" fill="#00989F"/>
<path d="M35.8359 45.4702H36.5624L36.3905 46.9815H37.2811L37.2108 47.5811H36.3202L35.9999 50.3655H35.2734L35.5937 47.5811H35L35.0625 46.9815H35.664L35.8359 45.4702Z" fill="#AAD750"/>
<path d="M39.0964 50.4312C38.8568 50.4312 38.6276 50.3655 38.4089 50.2341C38.1954 50.0972 38.0209 49.9055 37.8855 49.6591C37.7553 49.4127 37.6902 49.1198 37.6902 48.7803C37.6902 48.5503 37.7293 48.3231 37.8074 48.0986C37.8907 47.8686 38.0079 47.6578 38.1589 47.4661C38.3152 47.2745 38.5027 47.1212 38.7214 47.0062C38.9453 46.8857 39.2031 46.8255 39.4948 46.8255C39.7291 46.8255 39.927 46.8611 40.0885 46.9322C40.2499 47.0034 40.3853 47.0965 40.4947 47.2115C40.6041 47.321 40.69 47.447 40.7525 47.5893L40.6822 47.7372L40.8462 46.9651H41.5102L41.1196 50.3655H40.3931L40.4947 49.5031L40.5494 49.7002C40.5181 49.7495 40.4634 49.8179 40.3853 49.9055C40.3072 49.9877 40.2056 50.0698 40.0807 50.152C39.9609 50.2341 39.8177 50.3025 39.651 50.3573C39.4896 50.4066 39.3047 50.4312 39.0964 50.4312ZM39.4948 49.8152C39.651 49.8152 39.7994 49.7823 39.94 49.7166C40.0807 49.6454 40.203 49.5496 40.3072 49.4292C40.4166 49.3032 40.4999 49.1526 40.5572 48.9774L40.6275 48.3121C40.6067 48.1424 40.5494 47.9945 40.4556 47.8686C40.3671 47.7426 40.2499 47.6441 40.1041 47.5729C39.9583 47.4962 39.7968 47.4579 39.6198 47.4579C39.4062 47.4579 39.224 47.499 39.0729 47.5811C38.9271 47.6632 38.8073 47.77 38.7136 47.9014C38.6198 48.0274 38.5521 48.1615 38.5105 48.3039C38.4688 48.4408 38.448 48.5695 38.448 48.6899C38.448 48.909 38.4922 49.1034 38.5808 49.2731C38.6693 49.4428 38.7917 49.577 38.9479 49.6756C39.1094 49.7687 39.2917 49.8152 39.4948 49.8152Z" fill="#AAD750"/>
<path d="M42.3841 50.3655L43.1184 44.0082H43.8528L43.1106 50.3655H42.3841ZM44.1574 48.1068L45.3761 50.3655H44.5246L43.6184 48.5339L44.1574 48.1068ZM43.0091 49.2813L43.0013 48.5503L45.1573 46.8912L45.5792 47.2936L43.0091 49.2813Z" fill="#AAD750"/>
<path d="M47.8477 49.7906C47.9779 49.7906 48.1029 49.7687 48.2227 49.7248C48.3425 49.6756 48.4571 49.6153 48.5664 49.5441L48.832 50.1273C48.6758 50.2259 48.5039 50.3025 48.3165 50.3573C48.1342 50.412 47.9545 50.4394 47.7774 50.4394C47.4389 50.4394 47.1421 50.3737 46.8869 50.2423C46.6317 50.1054 46.4312 49.9083 46.2854 49.6509C46.1448 49.3936 46.0744 49.0842 46.0744 48.7228C46.0744 48.4983 46.1135 48.2765 46.1916 48.0575C46.2697 47.8385 46.3869 47.6386 46.5432 47.4579C46.6994 47.2717 46.8921 47.1239 47.1212 47.0144C47.3556 46.8994 47.6264 46.8419 47.9337 46.8419C48.1264 46.8419 48.3086 46.8693 48.4805 46.924C48.6576 46.9733 48.819 47.0582 48.9648 47.1786C49.1107 47.2991 49.233 47.4606 49.332 47.6632C49.4362 47.8658 49.5091 48.115 49.5507 48.4107L46.7853 49.232L46.6681 48.7639L49.0273 48.0493L48.7695 48.1725C48.7175 47.9589 48.6133 47.7837 48.4571 47.6468C48.306 47.5099 48.1238 47.4415 47.9102 47.4415C47.6811 47.4415 47.4832 47.499 47.3165 47.614C47.1499 47.7235 47.0223 47.8686 46.9338 48.0493C46.8452 48.23 46.8009 48.4244 46.8009 48.6324C46.8009 48.8953 46.8504 49.1116 46.9494 49.2813C47.0483 49.4511 47.1785 49.5797 47.34 49.6674C47.5014 49.7495 47.6707 49.7906 47.8477 49.7906Z" fill="#AAD750"/>
<path d="M55.24 50.1355C55.089 50.2341 54.9172 50.3107 54.7245 50.3655C54.537 50.4257 54.3469 50.4559 54.1542 50.4559C53.9875 50.4559 53.8079 50.4257 53.6152 50.3655C53.4225 50.3053 53.2376 50.2122 53.0605 50.0862C52.8887 49.9603 52.7481 49.7933 52.6387 49.5852C52.5345 49.3717 52.4824 49.1143 52.4824 48.8131C52.4824 48.5832 52.5215 48.3559 52.5996 48.1314C52.683 47.9014 52.8001 47.6934 52.9512 47.5072C53.1074 47.321 53.2949 47.1732 53.5136 47.0637C53.7376 46.9541 53.9927 46.8994 54.2792 46.8994C54.576 46.8994 54.8312 46.9459 55.0447 47.039C55.2583 47.1321 55.4353 47.2553 55.576 47.4086L55.1541 47.8768C55.0708 47.7892 54.9562 47.7098 54.8104 47.6386C54.6698 47.5674 54.5083 47.5318 54.3261 47.5318C54.1334 47.5318 53.9511 47.5866 53.7792 47.6961C53.6126 47.8001 53.4772 47.9452 53.373 48.1314C53.2688 48.3176 53.2168 48.5284 53.2168 48.7639C53.2168 48.961 53.261 49.1417 53.3496 49.306C53.4381 49.4648 53.5605 49.5934 53.7167 49.692C53.8782 49.7851 54.0657 49.8316 54.2792 49.8316C54.399 49.8316 54.5135 49.8152 54.6229 49.7823C54.7323 49.744 54.8312 49.692 54.9198 49.6263L55.24 50.1355Z" fill="#AAD750"/>
<path d="M57.4817 50.4312C57.2422 50.4312 57.013 50.3655 56.7943 50.2341C56.5808 50.0972 56.4063 49.9055 56.2709 49.6591C56.1407 49.4127 56.0756 49.1198 56.0756 48.7803C56.0756 48.5503 56.1147 48.3231 56.1928 48.0986C56.2761 47.8686 56.3933 47.6578 56.5443 47.4661C56.7006 47.2745 56.888 47.1212 57.1068 47.0062C57.3307 46.8857 57.5885 46.8255 57.8802 46.8255C58.1145 46.8255 58.3124 46.8611 58.4739 46.9322C58.6353 47.0034 58.7707 47.0965 58.8801 47.2115C58.9894 47.321 59.0754 47.447 59.1379 47.5893L59.0676 47.7372L59.2316 46.9651H59.8956L59.505 50.3655H58.7785L58.8801 49.5031L58.9348 49.7002C58.9035 49.7495 58.8488 49.8179 58.7707 49.9055C58.6926 49.9877 58.591 50.0698 58.466 50.152C58.3463 50.2341 58.203 50.3025 58.0364 50.3573C57.8749 50.4066 57.6901 50.4312 57.4817 50.4312ZM57.8802 49.8152C58.0364 49.8152 58.1848 49.7823 58.3254 49.7166C58.466 49.6454 58.5884 49.5496 58.6926 49.4292C58.802 49.3032 58.8853 49.1526 58.9426 48.9774L59.0129 48.3121C58.992 48.1424 58.9348 47.9945 58.841 47.8686C58.7525 47.7426 58.6353 47.6441 58.4895 47.5729C58.3437 47.4962 58.1822 47.4579 58.0051 47.4579C57.7916 47.4579 57.6093 47.499 57.4583 47.5811C57.3125 47.6632 57.1927 47.77 57.099 47.9014C57.0052 48.0274 56.9375 48.1615 56.8959 48.3039C56.8542 48.4408 56.8334 48.5695 56.8334 48.6899C56.8334 48.909 56.8776 49.1034 56.9662 49.2731C57.0547 49.4428 57.1771 49.577 57.3333 49.6756C57.4948 49.7687 57.677 49.8152 57.8802 49.8152Z" fill="#AAD750"/>
<path d="M61.8085 46.9651L61.7538 47.7947C61.8632 47.5866 61.9986 47.4114 62.16 47.269C62.3267 47.1266 62.4985 47.0198 62.6756 46.9487C62.8579 46.872 63.0245 46.8337 63.1756 46.8337L63.0584 47.5893C62.8136 47.5729 62.5897 47.6222 62.3866 47.7372C62.1887 47.8522 62.0272 48.0055 61.9022 48.1971C61.7772 48.3888 61.7017 48.5941 61.6757 48.8131L61.4882 50.3655H60.7695L61.1601 46.9651H61.8085Z" fill="#AAD750"/>
<path d="M65.2719 49.7906C65.4021 49.7906 65.5271 49.7687 65.6469 49.7248C65.7667 49.6756 65.8812 49.6153 65.9906 49.5441L66.2562 50.1273C66.1 50.2259 65.9281 50.3025 65.7406 50.3573C65.5583 50.412 65.3787 50.4394 65.2016 50.4394C64.8631 50.4394 64.5662 50.3737 64.311 50.2423C64.0559 50.1054 63.8553 49.9083 63.7095 49.6509C63.5689 49.3936 63.4986 49.0842 63.4986 48.7228C63.4986 48.4983 63.5377 48.2765 63.6158 48.0575C63.6939 47.8385 63.8111 47.6386 63.9673 47.4579C64.1236 47.2717 64.3162 47.1239 64.5454 47.0144C64.7798 46.8994 65.0506 46.8419 65.3578 46.8419C65.5505 46.8419 65.7328 46.8693 65.9047 46.924C66.0817 46.9733 66.2432 47.0582 66.389 47.1786C66.5348 47.2991 66.6572 47.4606 66.7562 47.6632C66.8603 47.8658 66.9332 48.115 66.9749 48.4107L64.2095 49.232L64.0923 48.7639L66.4515 48.0493L66.1937 48.1725C66.1416 47.9589 66.0375 47.7837 65.8812 47.6468C65.7302 47.5099 65.5479 47.4415 65.3344 47.4415C65.1052 47.4415 64.9073 47.499 64.7407 47.614C64.574 47.7235 64.4464 47.8686 64.3579 48.0493C64.2694 48.23 64.2251 48.4244 64.2251 48.6324C64.2251 48.8953 64.2746 49.1116 64.3735 49.2813C64.4725 49.4511 64.6027 49.5797 64.7641 49.6674C64.9256 49.7495 65.0948 49.7906 65.2719 49.7906Z" fill="#AAD750"/>
<path d="M71.6174 50.4476C71.4143 50.4476 71.2112 50.412 71.0081 50.3409C70.805 50.2697 70.6201 50.1656 70.4534 50.0287C70.2868 49.8864 70.154 49.7112 70.055 49.5031C69.9561 49.295 69.9066 49.0541 69.9066 48.7803C69.9066 48.5667 69.9405 48.3477 70.0082 48.1232C70.0811 47.8932 70.1904 47.6824 70.3363 47.4908C70.4821 47.2991 70.6722 47.1431 70.9065 47.0226C71.1461 46.9021 71.4351 46.8419 71.7737 46.8419C72.0705 46.8419 72.3465 46.9076 72.6017 47.039C72.8621 47.1704 73.073 47.3621 73.2345 47.614C73.4011 47.8604 73.4845 48.1588 73.4845 48.5092C73.4845 48.6516 73.4636 48.8131 73.422 48.9938C73.3855 49.1691 73.323 49.3415 73.2345 49.5113C73.1511 49.681 73.0366 49.8371 72.8907 49.9795C72.7501 50.1218 72.5731 50.2368 72.3595 50.3244C72.1512 50.4066 71.9038 50.4476 71.6174 50.4476ZM71.6408 49.8152C71.9064 49.8152 72.12 49.7495 72.2814 49.6181C72.4429 49.4812 72.56 49.3142 72.633 49.117C72.7059 48.9199 72.7423 48.7283 72.7423 48.5421C72.7423 48.3504 72.7111 48.1889 72.6486 48.0575C72.5913 47.9206 72.5106 47.8084 72.4064 47.7207C72.3075 47.6331 72.1981 47.5702 72.0783 47.5318C71.9637 47.488 71.8544 47.4661 71.7502 47.4661C71.4898 47.4661 71.2763 47.5318 71.1096 47.6632C70.9482 47.7947 70.8284 47.9617 70.7503 48.1643C70.6774 48.3614 70.6409 48.553 70.6409 48.7392C70.6409 48.9856 70.6904 49.1882 70.7894 49.347C70.8935 49.5058 71.0237 49.6235 71.1799 49.7002C71.3362 49.7769 71.4898 49.8152 71.6408 49.8152Z" fill="#AAD750"/>
<path d="M74.5148 50.3655L74.8273 47.6468H74.2727L74.3586 46.9651H74.9054L75.0695 45.5277C75.1268 45.0349 75.2778 44.6571 75.5226 44.3943C75.7673 44.1314 76.0954 44 76.5069 44C76.6162 44 76.7334 44.0164 76.8584 44.0493C76.9886 44.0821 77.1006 44.1369 77.1943 44.2136L76.8193 44.7639C76.7777 44.7146 76.7308 44.6817 76.6787 44.6653C76.6266 44.6434 76.5694 44.6324 76.5069 44.6324C76.3194 44.6324 76.1631 44.7009 76.0381 44.8378C75.9184 44.9747 75.8402 45.2074 75.8038 45.5359L75.6319 46.9651H76.6631L76.5772 47.6468H75.5538L75.2413 50.3655H74.5148Z" fill="#AAD750"/>
<path d="M79.7385 52L82.4571 46.9651H83.1445L80.465 52H79.7385ZM80.7385 50.3901L79.5823 46.9651H80.4025L81.3478 50.0041L80.7385 50.3901Z" fill="#AAD750"/>
<path d="M84.9525 50.4476C84.7494 50.4476 84.5463 50.412 84.3432 50.3409C84.1401 50.2697 83.9552 50.1656 83.7886 50.0287C83.6219 49.8864 83.4891 49.7112 83.3902 49.5031C83.2912 49.295 83.2417 49.0541 83.2417 48.7803C83.2417 48.5667 83.2756 48.3477 83.3433 48.1232C83.4162 47.8932 83.5256 47.6824 83.6714 47.4908C83.8172 47.2991 84.0073 47.1431 84.2417 47.0226C84.4812 46.9021 84.7703 46.8419 85.1088 46.8419C85.4056 46.8419 85.6817 46.9076 85.9368 47.039C86.1972 47.1704 86.4082 47.3621 86.5696 47.614C86.7363 47.8604 86.8196 48.1588 86.8196 48.5092C86.8196 48.6516 86.7988 48.8131 86.7571 48.9938C86.7206 49.1691 86.6581 49.3415 86.5696 49.5113C86.4863 49.681 86.3717 49.8371 86.2259 49.9795C86.0853 50.1218 85.9082 50.2368 85.6947 50.3244C85.4864 50.4066 85.239 50.4476 84.9525 50.4476ZM84.976 49.8152C85.2416 49.8152 85.4551 49.7495 85.6166 49.6181C85.778 49.4812 85.8952 49.3142 85.9681 49.117C86.041 48.9199 86.0774 48.7283 86.0774 48.5421C86.0774 48.3504 86.0462 48.1889 85.9837 48.0575C85.9264 47.9206 85.8457 47.8084 85.7415 47.7207C85.6426 47.6331 85.5332 47.5702 85.4134 47.5318C85.2989 47.488 85.1895 47.4661 85.0853 47.4661C84.8249 47.4661 84.6114 47.5318 84.4448 47.6632C84.2833 47.7947 84.1635 47.9617 84.0854 48.1643C84.0125 48.3614 83.9761 48.553 83.9761 48.7392C83.9761 48.9856 84.0255 49.1882 84.1245 49.347C84.2286 49.5058 84.3588 49.6235 84.5151 49.7002C84.6713 49.7769 84.8249 49.8152 84.976 49.8152Z" fill="#AAD750"/>
<path d="M88.6155 50.4969C88.3187 50.4969 88.0843 50.4066 87.9125 50.2259C87.7406 50.0397 87.6703 49.796 87.7015 49.4949L87.9906 46.9651H88.7171L88.4515 49.232C88.4411 49.4018 88.4749 49.5441 88.553 49.6591C88.6364 49.7741 88.7744 49.8344 88.9671 49.8398C89.1493 49.8398 89.3186 49.7851 89.4748 49.6756C89.6363 49.5606 89.7717 49.4073 89.8811 49.2156C89.9904 49.0185 90.0581 48.7967 90.0842 48.5503L90.2716 46.9651H90.9981L90.5997 50.3655H89.9435L89.9826 49.5524L90.0139 49.6674C89.9305 49.8207 89.816 49.9603 89.6701 50.0862C89.5295 50.2122 89.3681 50.3107 89.1858 50.3819C89.0087 50.4586 88.8186 50.4969 88.6155 50.4969Z" fill="#AAD750"/>
<path d="M92.9035 46.9651L92.8488 47.7947C92.9581 47.5866 93.0935 47.4114 93.255 47.269C93.4216 47.1266 93.5935 47.0198 93.7706 46.9487C93.9528 46.872 94.1195 46.8337 94.2705 46.8337L94.1534 47.5893C93.9086 47.5729 93.6846 47.6222 93.4815 47.7372C93.2836 47.8522 93.1222 48.0055 92.9972 48.1971C92.8722 48.3888 92.7967 48.5941 92.7707 48.8131L92.5832 50.3655H91.8645L92.2551 46.9651H92.9035Z" fill="#AAD750"/>
<path d="M95.8167 50.4312C95.7126 50.4312 95.5824 50.4148 95.4261 50.3819C95.2751 50.3546 95.1215 50.2998 94.9652 50.2177C94.8142 50.13 94.6788 50.0041 94.559 49.8398L94.9184 49.4209C95.0225 49.5524 95.1267 49.6537 95.2308 49.7248C95.3402 49.7906 95.4444 49.8344 95.5433 49.8563C95.6423 49.8727 95.7334 49.8809 95.8167 49.8809C96.0042 49.8809 96.1396 49.8316 96.223 49.7331C96.3063 49.629 96.3479 49.5305 96.3479 49.4374C96.3479 49.3224 96.3141 49.232 96.2464 49.1663C96.1787 49.0951 96.0902 49.0376 95.9808 48.9938C95.8766 48.9446 95.7673 48.898 95.6527 48.8542C95.4183 48.7556 95.2387 48.6324 95.1137 48.4846C94.9939 48.3313 94.934 48.1478 94.934 47.9343C94.934 47.8248 94.9548 47.7098 94.9965 47.5893C95.0382 47.4634 95.1033 47.3457 95.1918 47.2361C95.2803 47.1266 95.3975 47.0363 95.5433 46.9651C95.6891 46.8939 95.8714 46.8583 96.0902 46.8583C96.1891 46.8583 96.3037 46.8693 96.4339 46.8912C96.5693 46.9076 96.7073 46.9487 96.8479 47.0144C96.9937 47.0746 97.1265 47.1704 97.2463 47.3018L96.9104 47.7536C96.8062 47.6222 96.6891 47.5318 96.5589 47.4825C96.4287 47.4278 96.3011 47.4004 96.1761 47.4004C96.0615 47.4004 95.9678 47.4223 95.8949 47.4661C95.8219 47.5044 95.7673 47.5565 95.7308 47.6222C95.6996 47.6879 95.6839 47.7536 95.6839 47.8193C95.6839 47.9233 95.7178 48.0082 95.7855 48.0739C95.8532 48.1396 95.9391 48.1944 96.0433 48.2382C96.1474 48.282 96.2516 48.3285 96.3558 48.3778C96.5016 48.4381 96.6318 48.512 96.7463 48.5996C96.8609 48.6817 96.9495 48.7858 97.012 48.9117C97.0745 49.0322 97.1005 49.1855 97.0901 49.3717C97.0797 49.4867 97.0484 49.6071 96.9963 49.7331C96.9443 49.859 96.8687 49.9767 96.7698 50.0862C96.6708 50.1903 96.5432 50.2752 96.387 50.3409C96.2308 50.4011 96.0407 50.4312 95.8167 50.4312Z" fill="#AAD750"/>
<path d="M99.693 49.7906C99.8232 49.7906 99.9482 49.7687 100.068 49.7248C100.188 49.6756 100.302 49.6153 100.412 49.5441L100.677 50.1273C100.521 50.2259 100.349 50.3025 100.162 50.3573C99.9795 50.412 99.7998 50.4394 99.6227 50.4394C99.2842 50.4394 98.9873 50.3737 98.7322 50.2423C98.477 50.1054 98.2765 49.9083 98.1306 49.6509C97.99 49.3936 97.9197 49.0842 97.9197 48.7228C97.9197 48.4983 97.9588 48.2765 98.0369 48.0575C98.115 47.8385 98.2322 47.6386 98.3884 47.4579C98.5447 47.2717 98.7374 47.1239 98.9665 47.0144C99.2009 46.8994 99.4717 46.8419 99.7789 46.8419C99.9716 46.8419 100.154 46.8693 100.326 46.924C100.503 46.9733 100.664 47.0582 100.81 47.1786C100.956 47.2991 101.078 47.4606 101.177 47.6632C101.281 47.8658 101.354 48.115 101.396 48.4107L98.6306 49.232L98.5134 48.7639L100.873 48.0493L100.615 48.1725C100.563 47.9589 100.459 47.7837 100.302 47.6468C100.151 47.5099 99.969 47.4415 99.7555 47.4415C99.5264 47.4415 99.3285 47.499 99.1618 47.614C98.9952 47.7235 98.8676 47.8686 98.779 48.0493C98.6905 48.23 98.6462 48.4244 98.6462 48.6324C98.6462 48.8953 98.6957 49.1116 98.7947 49.2813C98.8936 49.4511 99.0238 49.5797 99.1852 49.6674C99.3467 49.7495 99.5159 49.7906 99.693 49.7906Z" fill="#AAD750"/>
<path d="M102.814 44.0082H103.548L102.806 50.3655H102.079L102.814 44.0082Z" fill="#AAD750"/>
<path d="M104.321 50.3655L104.633 47.6468H104.078L104.164 46.9651H104.711L104.875 45.5277C104.932 45.0349 105.083 44.6571 105.328 44.3943C105.573 44.1314 105.901 44 106.313 44C106.422 44 106.539 44.0164 106.664 44.0493C106.794 44.0821 106.906 44.1369 107 44.2136L106.625 44.7639C106.583 44.7146 106.536 44.6817 106.484 44.6653C106.432 44.6434 106.375 44.6324 106.313 44.6324C106.125 44.6324 105.969 44.7009 105.844 44.8378C105.724 44.9747 105.646 45.2074 105.609 45.5359L105.438 46.9651H106.469L106.383 47.6468H105.36L105.047 50.3655H104.321Z" fill="#AAD750"/>
<defs>
<linearGradient id="paint0_linear_1181_841" x1="42.0439" y1="29.9514" x2="12.9715" y2="3.75749" gradientUnits="userSpaceOnUse">
<stop stop-color="#3E38C9"/>
<stop offset="0.49" stop-color="#00989F"/>
<stop offset="1" stop-color="#D6F1A0"/>
</linearGradient>
<linearGradient id="paint1_linear_1181_841" x1="35.8797" y1="26.1741" x2="7.06807" y2="-0.116935" gradientUnits="userSpaceOnUse">
<stop stop-color="#D6F1A0"/>
<stop offset="0.51" stop-color="#00989F"/>
<stop offset="1" stop-color="#3E38C9"/>
</linearGradient>
<linearGradient id="paint2_linear_1181_841" x1="32.2008" y1="26.7708" x2="51.8855" y2="4.26593" gradientUnits="userSpaceOnUse">
<stop stop-color="#3E38C9"/>
<stop offset="0.49" stop-color="#00989F"/>
<stop offset="1" stop-color="#D6F1A0"/>
</linearGradient>
<linearGradient id="paint3_linear_1181_841" x1="-3.02852" y1="37.5173" x2="24.3312" y2="5.98476" gradientUnits="userSpaceOnUse">
<stop stop-color="#00989F"/>
<stop offset="1" stop-color="#D6F1A0"/>
</linearGradient>
</defs>
</svg>
