<svg width="64" height="54" viewBox="0 0 64 54" fill="none" xmlns="http://www.w3.org/2000/svg">
<g style="mix-blend-mode:multiply">
<path d="M4.59443 36.8342H5.45312C5.5671 36.8335 5.67995 36.8568 5.78432 36.9026C5.88869 36.9484 5.98222 37.0157 6.05881 37.1002C6.13767 37.1775 6.20045 37.2698 6.24355 37.3715C6.28665 37.4732 6.30922 37.5825 6.30996 37.6929V42.6142C6.30996 43.8108 5.96525 44.619 5.27584 45.0389C4.6005 45.4551 3.8218 45.6733 3.02848 45.6686C2.58868 45.6697 2.15177 45.5973 1.73584 45.4543C1.34247 45.3258 0.995652 45.0844 0.738654 44.76C0.246218 44.1371 0 43.2876 0 42.2117C0 41.1357 0.246218 40.285 0.738654 39.6596C0.959354 39.3509 1.25146 39.1001 1.59006 38.9287C1.92866 38.7573 2.30369 38.6704 2.68316 38.6753C3.06763 38.6677 3.44809 38.7546 3.79114 38.9283C4.11879 39.121 4.396 39.3887 4.59997 39.7095L4.59443 36.8342ZM1.71737 42.1359C1.71737 42.8081 1.84048 43.3215 2.0867 43.676C2.20798 43.8487 2.37098 43.9878 2.56052 44.0805C2.75005 44.1731 2.95995 44.2163 3.17067 44.206C3.38047 44.2171 3.58962 44.1743 3.77811 44.0815C3.9666 43.9887 4.12814 43.8491 4.24726 43.676C4.48363 43.3215 4.60182 42.8081 4.60182 42.1359C4.62847 41.6287 4.49613 41.1258 4.22326 40.6974C4.09536 40.5335 3.93046 40.4022 3.74205 40.3142C3.55364 40.2263 3.34708 40.1842 3.13928 40.1914C2.93617 40.1852 2.73478 40.2305 2.55394 40.3232C2.37309 40.4159 2.21869 40.5529 2.10517 40.7214C1.84664 41.06 1.71737 41.5315 1.71737 42.1359Z" fill="#4AC7B3"/>
<path d="M11.5403 43.473H12.8034C12.6563 44.1222 12.2791 44.6962 11.7416 45.0888C11.1666 45.4924 10.475 45.6962 9.77309 45.6687C8.8153 45.6687 8.06679 45.3609 7.52758 44.7453C6.98836 44.1298 6.71875 43.2631 6.71875 42.1453C6.71875 41.0693 6.97974 40.2278 7.50172 39.6209C8.02371 39.014 8.77282 38.7025 9.74908 38.6865C10.7573 38.6865 11.5397 38.9894 12.0962 39.5951C12.6329 40.218 12.9019 41.0847 12.9031 42.1951V42.4721C12.9073 42.5347 12.8992 42.5974 12.8791 42.6568H8.51183C8.52845 43.1794 8.65402 43.5653 8.88116 43.8183C9.00264 43.9574 9.1548 44.0664 9.32562 44.1366C9.49644 44.2067 9.68124 44.2362 9.86542 44.2227C10.1239 44.2296 10.3793 44.1657 10.6041 44.0381C10.6573 44.0203 10.7055 43.9899 10.7444 43.9494L10.8829 43.8109C10.9267 43.7295 10.9902 43.6603 11.0676 43.6097C11.2052 43.5121 11.3718 43.4639 11.5403 43.473ZM8.51183 41.5063H11.0787C11.0773 41.1397 10.9531 40.784 10.726 40.4962C10.604 40.3747 10.4577 40.2804 10.2966 40.2196C10.1355 40.1588 9.96339 40.1329 9.79155 40.1435C9.62407 40.1373 9.45709 40.1654 9.30085 40.226C9.14462 40.2867 9.00242 40.3786 8.88301 40.4962C8.63409 40.7727 8.50118 41.1344 8.51183 41.5063Z" fill="#4AC7B3"/>
<path d="M19.2971 45.5429H18.4126C18.2985 45.5479 18.1847 45.5291 18.0784 45.4876C17.9721 45.4462 17.8755 45.3831 17.7949 45.3024C17.7143 45.2216 17.6514 45.1249 17.6102 45.0185C17.569 44.912 17.5505 44.7982 17.5557 44.6842V41.2513C17.5695 41.0853 17.5431 40.9185 17.4788 40.7648C17.4146 40.6112 17.3143 40.4753 17.1864 40.3686C16.9518 40.187 16.6631 40.0895 16.3665 40.0916C16.0736 40.0882 15.7885 40.186 15.5595 40.3686C15.4353 40.4776 15.3384 40.6143 15.2768 40.7676C15.2152 40.921 15.1906 41.0867 15.2049 41.2513V45.5429H13.4414V41.6058C13.4414 40.4609 13.7399 39.6952 14.337 39.3086C14.9282 38.9227 15.613 38.7044 16.3185 38.6771C17.0411 38.6724 17.7502 38.8735 18.3627 39.2569C18.9856 39.6447 19.2971 40.4277 19.2971 41.6058V45.5429Z" fill="#4AC7B3"/>
<path d="M22.8106 45.543C22.2094 45.5763 21.6065 45.5676 21.0065 45.5171C20.3589 45.4667 20.0352 45.0549 20.0352 44.2817V36.8601H20.9437C21.0525 36.8606 21.16 36.8833 21.2597 36.9268C21.3594 36.9703 21.4492 37.0337 21.5235 37.1131C21.6049 37.1914 21.6693 37.2855 21.7128 37.3897C21.7564 37.4939 21.778 37.6059 21.7765 37.7188V38.8545H22.8106V39.2072C22.8146 39.3223 22.7942 39.437 22.7505 39.5436C22.7069 39.6503 22.6412 39.7465 22.5577 39.8258C22.4776 39.904 22.3829 39.9654 22.2789 40.0066C22.1749 40.0479 22.0638 40.068 21.952 40.0659H21.7765V43.8016C21.7765 44.0878 21.9446 44.23 22.2807 44.23H22.8106V45.543Z" fill="#4AC7B3"/>
<path d="M27.5153 45.266C27.1659 45.4492 26.7849 45.5645 26.3925 45.6057C26.0442 45.6451 25.6941 45.666 25.3436 45.6685C24.7745 45.6806 24.2168 45.5082 23.7537 45.1773C23.2994 44.8486 23.0723 44.3057 23.0723 43.5486C23.0723 42.8407 23.2785 42.336 23.6909 42.0343C24.1605 41.7092 24.7013 41.5014 25.2679 41.4286C25.3698 41.4264 25.4713 41.414 25.5708 41.3917C25.6889 41.3659 25.8238 41.3455 25.9752 41.3271C26.7138 41.2274 27.0832 41.0076 27.0832 40.6715C27.0887 40.5561 27.0523 40.4427 26.9807 40.352C26.9091 40.2614 26.8071 40.1997 26.6935 40.1785C26.4599 40.1074 26.2175 40.0695 25.9733 40.0658C25.7585 40.0621 25.5447 40.0965 25.3418 40.1674C25.2519 40.1987 25.1695 40.2485 25.1002 40.3138C25.0308 40.379 24.976 40.4581 24.9392 40.546H23.2477C23.3047 40.0394 23.5579 39.5753 23.9531 39.2533C24.4092 38.8674 25.0611 38.6735 25.8976 38.6735C26.8394 38.6735 27.546 38.8335 28.0176 39.1536C28.2519 39.3055 28.4431 39.5154 28.5725 39.7629C28.7019 40.0104 28.7652 40.2871 28.7562 40.5663V42.8635C28.7562 43.5375 28.6325 44.0619 28.3869 44.4405C28.1767 44.7897 27.8754 45.0751 27.5153 45.266ZM27.1109 42.1599C26.7957 42.3049 26.4657 42.4151 26.1266 42.4886L25.5468 42.6142C25.3038 42.6676 25.0779 42.7805 24.8894 42.9429C24.7756 43.1058 24.7114 43.2982 24.7047 43.4969C24.6994 43.608 24.7168 43.719 24.7558 43.8231C24.7949 43.9273 24.8548 44.0224 24.9318 44.1026C25.1179 44.2485 25.3515 44.3203 25.5874 44.3039C25.7908 44.3219 25.9957 44.2952 26.1876 44.2255C26.3795 44.1558 26.5538 44.0448 26.6982 43.9004C26.8426 43.7561 26.9536 43.5818 27.0233 43.3898C27.093 43.1979 27.1197 42.993 27.1016 42.7896L27.1109 42.1599Z" fill="#4AC7B3"/>
<path d="M29.3359 36.86H30.2445C30.3563 36.8579 30.4675 36.878 30.5714 36.9192C30.6754 36.9605 30.7702 37.0219 30.8502 37.1001C30.932 37.1753 30.9969 37.267 31.0405 37.3692C31.0841 37.4714 31.1055 37.5818 31.1032 37.6928V45.5429H29.3359V36.86Z" fill="#4AC7B3"/>
<path d="M36.066 40.7214C35.9519 40.553 35.7972 40.4161 35.6161 40.3234C35.435 40.2307 35.2334 40.1853 35.03 40.1914C34.8217 40.1801 34.6138 40.2204 34.4247 40.3086C34.2356 40.3969 34.0712 40.5304 33.9461 40.6974C33.6757 41.1073 33.5461 41.5941 33.5767 42.0842V45.543H31.8594V36.8638H32.7181C32.9453 36.8652 33.1629 36.9562 33.3236 37.1169C33.4844 37.2776 33.5753 37.4952 33.5767 37.7225V39.715C33.7143 39.4746 33.9001 39.2653 34.1226 39.1003C34.3451 38.9353 34.5994 38.8183 34.8694 38.7566C35.3966 38.6196 35.9538 38.6552 36.4593 38.8581C36.9348 39.0631 37.3448 39.3946 37.6449 39.8165C37.9637 40.2536 38.1238 40.8593 38.125 41.6336V45.5467H36.4335V42.0602C36.4357 41.8272 36.4146 41.5947 36.3707 41.3659C36.3143 41.1325 36.2106 40.9131 36.066 40.7214Z" fill="#2DABEB"/>
<path d="M43.3411 43.4728H44.6024C44.4566 44.1221 44.0799 44.6964 43.5424 45.0886C42.9674 45.4923 42.2758 45.696 41.5739 45.6685C40.6161 45.6685 39.8676 45.3607 39.3284 44.7452C38.7891 44.1296 38.5195 43.2629 38.5195 42.1451C38.5195 41.0691 38.7805 40.2277 39.3025 39.6208C39.8245 39.0138 40.5736 38.6993 41.5499 38.6771C42.5581 38.6771 43.3405 38.98 43.8969 39.5857C44.4337 40.2086 44.7027 41.0753 44.7039 42.1857V42.4627C44.7088 42.5254 44.7 42.5884 44.6781 42.6474H40.3126C40.3292 43.17 40.4548 43.5559 40.6819 43.8089C40.8034 43.948 40.9556 44.057 41.1264 44.1272C41.2972 44.1973 41.482 44.2269 41.6662 44.2133C41.9246 44.2202 42.18 44.1563 42.4049 44.0287C42.4573 44.0104 42.5048 43.98 42.5434 43.94L42.6837 43.8015C42.7275 43.7201 42.791 43.6509 42.8684 43.6003C43.0072 43.5059 43.1737 43.4611 43.3411 43.4728ZM40.3126 41.5062H42.8868C42.8855 41.1395 42.7613 40.7839 42.5341 40.4961C42.2808 40.2678 41.9518 40.1415 41.6108 40.1415C41.2698 40.1415 40.9408 40.2678 40.6875 40.4961C40.4372 40.772 40.303 41.1338 40.3126 41.5062Z" fill="#2DABEB"/>
<path d="M49.5309 45.266C49.1815 45.4492 48.8005 45.5645 48.4081 45.6057C48.0605 45.6451 47.711 45.6661 47.3611 45.6685C46.7914 45.6806 46.2331 45.5083 45.7693 45.1773C45.315 44.8486 45.0879 44.3057 45.0879 43.5486C45.0879 42.8407 45.2941 42.336 45.7065 42.0343C46.1768 41.7091 46.7182 41.5014 47.2854 41.4286C47.3873 41.4262 47.4887 41.4138 47.5882 41.3917C47.7046 41.3659 47.8394 41.3455 47.9908 41.3271C48.7295 41.2274 49.0988 41.0076 49.0988 40.6715C49.1039 40.556 49.0671 40.4425 48.9951 40.3519C48.9232 40.2613 48.821 40.1997 48.7073 40.1785C48.4737 40.1073 48.2313 40.0694 47.9871 40.0658C47.7728 40.0621 47.5596 40.0965 47.3574 40.1674C47.2671 40.1983 47.1843 40.2481 47.1146 40.3133C47.0449 40.3786 46.9898 40.4579 46.953 40.546H45.2615C45.3183 40.0389 45.5724 39.5746 45.9687 39.2533C46.423 38.868 47.0706 38.6747 47.9114 38.6735C48.855 38.6735 49.5604 38.8341 50.0332 39.1536C50.2677 39.3054 50.4589 39.5152 50.5884 39.7627C50.7178 40.0103 50.781 40.2871 50.7718 40.5663V42.8635C50.7718 43.5375 50.65 44.0619 50.4025 44.4405C50.1929 44.7901 49.8914 45.0756 49.5309 45.266ZM49.1209 42.1599C48.8059 42.3052 48.4758 42.4154 48.1367 42.4886L47.5568 42.6142C47.3139 42.6676 47.088 42.7805 46.8994 42.9429C46.7898 43.1073 46.7289 43.2993 46.724 43.4969C46.7187 43.608 46.7361 43.719 46.7752 43.8231C46.8142 43.9273 46.8741 44.0224 46.9511 44.1026C47.1372 44.2485 47.3708 44.3203 47.6067 44.3039C47.8093 44.3221 48.0135 44.2957 48.2048 44.2267C48.3962 44.1576 48.5701 44.0475 48.7144 43.9041C48.8587 43.7607 48.9699 43.5874 49.0401 43.3965C49.1103 43.2056 49.1379 43.0016 49.1209 42.7988V42.1599Z" fill="#2DABEB"/>
<path d="M51.3555 36.86H52.2603C52.3721 36.858 52.4832 36.8782 52.5872 36.9194C52.6912 36.9606 52.7859 37.022 52.866 37.1001C52.9476 37.1754 53.0122 37.2672 53.0555 37.3694C53.0988 37.4716 53.1198 37.5819 53.1172 37.6928V45.5429H51.3555V36.86Z" fill="#2DABEB"/>
<path d="M56.6603 45.543C56.059 45.5762 55.4562 45.5676 54.8561 45.5171C54.2085 45.4667 53.8848 45.0549 53.8848 44.2817V36.8601H54.7933C54.9021 36.8606 55.0096 36.8833 55.1093 36.9268C55.209 36.9703 55.2988 37.0337 55.3732 37.1131C55.4545 37.1914 55.5189 37.2855 55.5624 37.3897C55.606 37.4939 55.6276 37.6059 55.6261 37.7188V38.8545H56.6603V39.2072C56.6646 39.3222 56.6445 39.4368 56.6012 39.5435C56.5579 39.6501 56.4924 39.7464 56.4091 39.8258C56.329 39.9039 56.2343 39.9653 56.1303 40.0065C56.0263 40.0477 55.9152 40.0679 55.8034 40.0659H55.6188V43.8016C55.6188 44.0878 55.7868 44.23 56.1229 44.23H56.6529L56.6603 45.543Z" fill="#2DABEB"/>
<path d="M61.2867 40.7214C61.1729 40.5531 61.0185 40.4163 60.8377 40.3236C60.6569 40.231 60.4557 40.1855 60.2526 40.1914C60.044 40.1803 59.8359 40.2206 59.6465 40.3088C59.4572 40.3971 59.2924 40.5305 59.1668 40.6974C58.8964 41.1073 58.7668 41.5941 58.7974 42.0842V45.543H57.0801V36.8638H57.9388C58.1661 36.8652 58.3836 36.9562 58.5443 37.1169C58.7051 37.2776 58.796 37.4952 58.7974 37.7225V39.715C58.935 39.4746 59.1208 39.2653 59.3433 39.1003C59.5658 38.9353 59.8201 38.8183 60.0901 38.7566C60.6173 38.6196 61.1745 38.6552 61.68 38.8581C62.1558 39.0635 62.5663 39.3949 62.8674 39.8165C63.1863 40.2536 63.3457 40.8593 63.3457 41.6336V45.5467H61.6413V42.0602C61.6428 41.8272 61.6212 41.5946 61.5766 41.3659C61.5255 41.1333 61.4268 40.9139 61.2867 40.7214Z" fill="#2DABEB"/>
</g>
<path d="M0.997184 49.5557V52.6156H0.581691V49.5557H0V49.2067H0.581691V48.8927C0.58082 48.7572 0.591943 48.6219 0.61493 48.4883C0.632689 48.375 0.675596 48.2671 0.740501 48.1725C0.804371 48.0827 0.891961 48.0124 0.99349 47.9694C1.12453 47.9156 1.26557 47.8904 1.40714 47.8956C1.46808 47.8956 1.52532 47.8956 1.57887 47.8956C1.63243 47.8956 1.69152 47.9066 1.76354 47.9159V48.2723L1.60473 48.2483C1.55631 48.2424 1.50761 48.2393 1.45884 48.239C1.36763 48.2332 1.27652 48.2517 1.19477 48.2926C1.13626 48.3241 1.08911 48.3732 1.05997 48.4329C1.0292 48.4983 1.01223 48.5694 1.01011 48.6416C1.01011 48.721 1.01011 48.8078 1.01011 48.9001V49.1974H1.68413V49.5464L0.997184 49.5557Z" fill="#909091"/>
<path d="M2.45985 49.2066V50.0007C2.55281 49.7406 2.72532 49.5164 2.9529 49.3599C3.1897 49.206 3.47117 49.1358 3.75249 49.1605V49.576C3.57735 49.5649 3.40184 49.5907 3.23728 49.6517C3.0879 49.7077 2.95199 49.7945 2.83841 49.9065C2.72528 50.0185 2.63607 50.1523 2.57618 50.2998C2.51357 50.4585 2.48222 50.6278 2.48385 50.7984V52.6155H2.06836V49.2066H2.45985Z" fill="#909091"/>
<path d="M4.57359 47.8975V48.5659H4.15625V47.8975H4.57359ZM4.57359 49.2067V52.6156H4.15625V49.2067H4.57359Z" fill="#909091"/>
<path d="M5.67948 51.4891C5.71921 51.6443 5.78747 51.7909 5.88077 51.9212C5.97416 52.0505 6.0937 52.1587 6.23163 52.2388C6.38641 52.3259 6.56193 52.3693 6.73945 52.3644C6.99945 52.3799 7.25542 52.2946 7.4541 52.1262C7.63283 51.9548 7.75684 51.7345 7.8105 51.4928H8.226C8.16356 51.8359 7.99345 52.1503 7.74033 52.3902C7.45856 52.6183 7.10116 52.7317 6.73945 52.7079C6.49965 52.7135 6.26167 52.6649 6.04327 52.5657C5.85407 52.4765 5.68931 52.3428 5.56315 52.176C5.43686 52.0034 5.34415 51.8086 5.28984 51.6017C5.22984 51.3765 5.20003 51.1442 5.20121 50.9111C5.20098 50.6877 5.2308 50.4654 5.28984 50.25C5.34562 50.0425 5.43819 49.8467 5.56315 49.672C5.68944 49.5001 5.85377 49.3598 6.04327 49.262C6.25918 49.1542 6.49821 49.101 6.73945 49.1069C6.9833 49.0998 7.22472 49.1571 7.43933 49.2731C7.62896 49.3776 7.791 49.5257 7.91207 49.7052C8.0376 49.8918 8.12659 50.1004 8.17429 50.3202C8.22629 50.5509 8.24802 50.7874 8.23892 51.0237H5.6167C5.61741 51.1809 5.63852 51.3373 5.67948 51.4891ZM7.74033 50.2167C7.69279 50.0762 7.62022 49.9455 7.52612 49.8308C7.43373 49.7184 7.31937 49.626 7.19003 49.5593C7.05022 49.4897 6.89564 49.4548 6.73945 49.4578C6.58146 49.4545 6.42499 49.4893 6.28333 49.5593C6.154 49.626 6.03964 49.7184 5.94725 49.8308C5.85238 49.9476 5.7775 50.0792 5.72565 50.2204C5.67137 50.3663 5.63479 50.5182 5.6167 50.6729H7.83266C7.82655 50.5169 7.79538 50.3628 7.74033 50.2167Z" fill="#909091"/>
<path d="M9.20846 49.2067V49.7939H9.22139C9.30293 49.5853 9.45175 49.4099 9.64427 49.2954C9.84518 49.1719 10.077 49.1079 10.3127 49.1107C10.5161 49.1054 10.7188 49.1366 10.9111 49.203C11.0588 49.2574 11.1912 49.3468 11.297 49.4634C11.3966 49.5835 11.4668 49.7251 11.502 49.877C11.5434 50.0587 11.5633 50.2447 11.5611 50.431V52.6248H11.1382V50.4883C11.1385 50.3518 11.1249 50.2157 11.0976 50.082C11.0752 49.9645 11.0279 49.853 10.9591 49.7552C10.8905 49.6603 10.7981 49.5851 10.6913 49.5373C10.5592 49.48 10.416 49.4529 10.2721 49.4579C10.1185 49.4551 9.96614 49.4853 9.82524 49.5465C9.69919 49.6028 9.587 49.686 9.49654 49.7903C9.40252 49.8985 9.3304 50.0239 9.28417 50.1596C9.23292 50.3096 9.2049 50.4665 9.20108 50.6249V52.6138H8.79297V49.2067H9.20846Z" fill="#909091"/>
<path d="M14.9659 52.6156V51.9674H14.953C14.9069 52.0801 14.8405 52.1834 14.7572 52.2721C14.6709 52.3638 14.5721 52.4427 14.4636 52.5067C14.3519 52.5702 14.2328 52.6198 14.1091 52.6544C13.9889 52.6889 13.8647 52.7069 13.7397 52.7079C13.5059 52.7133 13.274 52.6646 13.062 52.5658C12.875 52.474 12.7114 52.3408 12.5837 52.1761C12.4532 52.0046 12.3566 51.8096 12.2993 51.6018C12.1763 51.1496 12.1763 50.6727 12.2993 50.2205C12.3566 50.0127 12.4532 49.8178 12.5837 49.6462C12.7112 49.4805 12.8748 49.346 13.062 49.2529C13.391 49.1021 13.7613 49.067 14.1127 49.1532C14.3527 49.2108 14.5696 49.3395 14.7351 49.5225C14.8162 49.6178 14.8788 49.7274 14.9197 49.8457H14.9326V47.8975H15.3481V52.6156H14.9659ZM12.6834 51.4356C12.7206 51.6014 12.7876 51.7591 12.881 51.901C12.9699 52.0373 13.0886 52.1516 13.2282 52.2352C13.382 52.3252 13.558 52.37 13.736 52.3645C13.9288 52.3703 14.1198 52.3258 14.29 52.2352C14.4375 52.1541 14.564 52.0396 14.6593 51.901C14.7559 51.7599 14.8254 51.6021 14.8643 51.4356C14.9481 51.0904 14.9481 50.7301 14.8643 50.3849C14.8251 50.2185 14.7556 50.0608 14.6593 49.9195C14.5632 49.7815 14.4369 49.6672 14.29 49.5853C14.1193 49.4962 13.9285 49.4523 13.736 49.4579C13.5582 49.4527 13.3825 49.4968 13.2282 49.5853C13.089 49.6694 12.9704 49.7836 12.881 49.9195C12.7879 50.0616 12.721 50.2192 12.6834 50.3849C12.5997 50.7301 12.5997 51.0904 12.6834 51.4356Z" fill="#909091"/>
<path d="M16.562 47.8975V52.6156H16.1465V47.8975H16.562Z" fill="#909091"/>
<path d="M17.4177 49.2067L18.5405 52.1133L19.5912 49.2067H20.0067L18.5257 53.14C18.4629 53.2865 18.4056 53.4065 18.3539 53.5001C18.3054 53.585 18.243 53.6611 18.1693 53.7254C18.1035 53.7805 18.0267 53.8208 17.944 53.8436C17.8372 53.8705 17.7272 53.8829 17.6171 53.8805L17.4325 53.8694C17.3903 53.8686 17.3486 53.8611 17.3087 53.8473V53.4964L17.4509 53.5204C17.4981 53.5263 17.5456 53.5294 17.5931 53.5296C17.6713 53.5321 17.7491 53.5189 17.8221 53.4909C17.8802 53.4645 17.9328 53.4276 17.9772 53.3819C18.0237 53.3321 18.0612 53.2746 18.088 53.212C18.1194 53.1455 18.1527 53.0735 18.1877 52.9941L18.3336 52.6119L16.9727 49.2159L17.4177 49.2067Z" fill="#909091"/>
<path d="M24.3466 49.6756C24.1675 49.5208 23.9347 49.4426 23.6984 49.4577C23.5168 49.4532 23.3373 49.4965 23.1777 49.5833C23.0321 49.6646 22.906 49.7768 22.8084 49.912C22.7075 50.0539 22.6313 50.2118 22.5831 50.3792C22.4821 50.7265 22.4821 51.0955 22.5831 51.4428C22.6309 51.6097 22.7071 51.7671 22.8084 51.9082C22.9054 52.0444 23.0316 52.1573 23.1777 52.2387C23.3376 52.3247 23.5169 52.368 23.6984 52.3643C23.8252 52.3659 23.9509 52.3414 24.0678 52.2923C24.181 52.2439 24.2843 52.175 24.3725 52.0892C24.4628 52.0008 24.5366 51.897 24.5904 51.7826C24.6486 51.6601 24.6843 51.5281 24.6956 51.393H25.113C25.0783 51.7588 24.917 52.1011 24.6568 52.3606C24.3968 52.5965 24.0548 52.7211 23.704 52.7078C23.4667 52.7121 23.2314 52.6635 23.0152 52.5656C22.8202 52.4757 22.6475 52.3439 22.5092 52.1796C22.3695 52.0109 22.2641 51.8164 22.199 51.6072C22.0587 51.153 22.0587 50.6671 22.199 50.213C22.2641 50.0043 22.3695 49.8105 22.5092 49.6424C22.6478 49.4775 22.8204 49.3446 23.0152 49.2527C23.2305 49.1518 23.4662 49.1019 23.704 49.1068C24.0356 49.0971 24.3608 49.1992 24.6273 49.3968C24.7589 49.5045 24.867 49.6381 24.9448 49.7893C25.0226 49.9405 25.0686 50.1061 25.0797 50.2758H24.6642C24.6222 50.048 24.5113 49.8385 24.3466 49.6756Z" fill="#909091"/>
<path d="M26.1107 47.8975V52.6156H25.6934V47.8975H26.1107Z" fill="#909091"/>
<path d="M27.3315 47.8975V48.5659H26.916V47.8975H27.3315ZM27.3315 49.2067V52.6156H26.916V49.2067H27.3315Z" fill="#909091"/>
<path d="M28.5426 49.2067V49.7939H28.5555C28.6364 49.5849 28.7854 49.4093 28.9784 49.2953C29.1792 49.1717 29.411 49.1076 29.6468 49.1107C29.8496 49.1055 30.0516 49.1367 30.2433 49.203C30.3916 49.2574 30.5246 49.3467 30.6311 49.4634C30.7307 49.5834 30.8009 49.7251 30.8361 49.877C30.8775 50.0587 30.8974 50.2447 30.8952 50.431V52.6248H30.4778V50.4883C30.4787 50.3519 30.4657 50.2157 30.439 50.082C30.4166 49.9644 30.3694 49.853 30.3005 49.7551C30.232 49.6603 30.1396 49.5851 30.0328 49.5372C29.9006 49.4801 29.7575 49.453 29.6136 49.4578C29.46 49.455 29.3076 49.4853 29.1667 49.5465C29.0404 49.6032 28.9277 49.6863 28.8362 49.7902C28.7428 49.8986 28.6713 50.024 28.6257 50.1595C28.5726 50.3091 28.5445 50.4663 28.5426 50.6249V52.6137H28.1289V49.2067H28.5426Z" fill="#909091"/>
<path d="M32.103 47.8975V48.5659H31.6875V47.8975H32.103ZM32.103 49.2067V52.6156H31.6875V49.2067H32.103Z" fill="#909091"/>
<path d="M34.991 49.6757C34.8119 49.5209 34.5791 49.4427 34.3429 49.4578C34.1613 49.4533 33.9817 49.4966 33.8221 49.5834C33.6765 49.6647 33.5504 49.7769 33.4528 49.9121C33.3511 50.0536 33.2749 50.2117 33.2275 50.3793C33.1265 50.7267 33.1265 51.0956 33.2275 51.443C33.2746 51.6101 33.3509 51.7676 33.4528 51.9083C33.5498 52.0445 33.676 52.1575 33.8221 52.2389C33.982 52.3248 34.1614 52.3681 34.3429 52.3644C34.4696 52.3658 34.5952 52.3413 34.7122 52.2924C34.8254 52.244 34.9287 52.1752 35.0169 52.0893C35.1072 52.0009 35.181 51.8971 35.2348 51.7827C35.293 51.6603 35.3287 51.5283 35.34 51.3931H35.7555C35.7215 51.7587 35.5608 52.101 35.3013 52.3607C35.0412 52.5966 34.6992 52.7212 34.3484 52.7079C34.1105 52.712 33.8747 52.6634 33.6578 52.5657C33.4637 52.4751 33.2917 52.3434 33.1536 52.1798C33.0139 52.011 32.9085 51.8165 32.8434 51.6073C32.7006 51.1535 32.7006 50.6669 32.8434 50.2131C32.9085 50.0045 33.0139 49.8106 33.1536 49.6425C33.2919 49.4781 33.4638 49.3452 33.6578 49.2529C33.8738 49.1522 34.1101 49.1023 34.3484 49.107C34.68 49.0972 35.0052 49.1993 35.2717 49.3969C35.4033 49.5046 35.5114 49.6382 35.5892 49.7894C35.6671 49.9406 35.713 50.1062 35.7241 50.2759H35.3086C35.2666 50.0481 35.1557 49.8386 34.991 49.6757Z" fill="#909091"/>
<path d="M20.7332 1.43412C20.1441 1.61879 17.5237 1.81269 17.2356 1.81269C14.7048 1.78364 12.1818 1.52529 9.69767 1.04079C8.43976 0.787354 7.13972 0.835448 5.90397 1.18113C4.66823 1.52682 3.53193 2.16027 2.58812 3.02962C0.756254 4.69159 -0.0544194 7.02943 0.00282636 9.32296C0.141324 15.0882 2.21879 20.9198 3.88076 27.54C4.36273 29.4753 5.10139 31.2333 6.44205 32.1788C7.51864 32.9377 8.90546 33.1501 10.6099 32.5259C12.7409 31.743 15.4629 29.8594 17.2578 28.4947C19.3648 31.4807 21.3333 32.9267 23.2557 32.8713C26.3414 32.8011 27.4475 29.7948 28.0108 27.54C29.2609 22.5356 31.4197 14.3107 31.8887 9.32296C32.3984 3.93632 26.7883 -0.480837 20.7332 1.43412ZM14.8239 27.6194C14.2385 28.0368 12.5101 29.3276 11.0531 30.0791C9.09936 31.0874 7.74762 30.6811 7.14746 29.8945C6.74305 29.3608 6.32202 28.4781 5.95823 27.0174C5.0146 23.241 3.27876 17.6144 2.51795 13.0938C2.07845 10.4826 2.14862 9.56671 2.14862 9.16414C2.11789 8.31476 2.27074 7.46875 2.59676 6.68383C2.92277 5.8989 3.41428 5.19354 4.03773 4.61588C4.73375 3.97278 5.57217 3.50365 6.48436 3.24688C7.39655 2.9901 8.35658 2.95299 9.28587 3.13857C11.5032 3.56836 13.7493 3.83315 16.0058 3.93078C14.113 5.25482 13.077 6.10611 10.9478 5.56136C10.81 5.52171 10.6655 5.51012 10.5231 5.52728C10.3806 5.54443 10.2431 5.58998 10.1186 5.66123C9.99403 5.73248 9.88506 5.82798 9.79809 5.94208C9.71111 6.05618 9.64791 6.18657 9.61221 6.32553C9.57652 6.46449 9.56905 6.60919 9.59026 6.75109C9.61147 6.89298 9.66092 7.02918 9.73569 7.15162C9.81046 7.27407 9.90903 7.38028 10.0256 7.46396C10.1421 7.54764 10.2742 7.6071 10.4142 7.63882C15.5847 8.96286 16.2108 4.67128 22.8974 3.16812C25.9573 2.85234 28.5869 4.48107 29.4197 6.77829C31.7059 13.0975 20.7276 23.4091 14.8258 27.625L14.8239 27.6194ZM25.9314 27.0137C24.6166 32.2785 22.0535 31.5805 18.9493 27.1559C22.3988 24.325 26.0386 20.6927 28.5666 16.9736C27.7227 20.556 26.6313 24.2216 25.9333 27.0193L25.9314 27.0137Z" fill="url(#paint0_linear_1181_772)"/>
<defs>
<linearGradient id="paint0_linear_1181_772" x1="-15.6437" y1="40.4979" x2="50.8352" y2="-10.8386" gradientUnits="userSpaceOnUse">
<stop stop-color="#4AC7B3"/>
<stop offset="1" stop-color="#0091FC"/>
</linearGradient>
</defs>
</svg>
