<svg width="324" height="336" viewBox="0 0 324 336" fill="none" xmlns="http://www.w3.org/2000/svg">
<mask id="mask0_539_38163" style="mask-type:alpha" maskUnits="userSpaceOnUse" x="0" y="0" width="324" height="336">
<rect width="324" height="336" fill="#D9D9D9"/>
</mask>
<g mask="url(#mask0_539_38163)">
<path d="M169.1 99.5C169.3 99.2 169.6 98.9 169.7 98.7C170.2 95.8 172.1 93.7 173.9 91.6C176 89.2 178.1 86.9 180.3 84.6C182.5 82.3 184.3 79.7 185.9 77C187.7 73.9 189.8 71.1 192.1 68.3C194.7 65 197.5 61.7 200.2 58.5C201.1 57.5 202 56.6 202.9 55.5C207.9 49.3 214.4 44.9 220.8 40.4C222.8 38.9 224.9 37.5 226.8 35.9C227.9 35 228.7 33.9 229.7 32.9C229.8 32.8 230 32.6 230 32.5C230.3 31.9 230.7 31.2 230.1 30.6C229.6 30 228.9 30 228.3 30.3C227.5 30.6 226.7 31 226 31.5C222 34.6 217.5 36.9 213 39.1C210.7 40.2 208.4 41.5 206.2 42.8C202.4 45 199 47.7 196.3 51.2C196 51.6 195.7 51.9 195.2 52.2C195.7 50.5 196.3 48.7 196.8 47C198.3 42.3 199.8 37.6 201.4 33C202.6 29.6 204 26.2 205.1 22.8C206.2 19.7 207.2 16.6 208.1 13.4C208.4 12.2 208.5 10.8 208.5 9.5C208.4 6.4 205.6 4.89999 202.9 6.39999C202 6.89999 201.1 7.60002 200.3 8.30002C197.3 11 193.8 13.1 190.3 15C187.8 16.3 185.3 17.8 182.7 19.4C182.7 19 182.7 18.5 182.7 18.1C182.7 15.3 182.4 12.5 181.1 10C179.7 7.3 177.7 5.10002 175.3 3.30002C173.6 2.00002 171.7 1.1 169.6 0.5C167.1 -0.2 164.9 0.200018 162.9 1.80002C161.8 2.70002 160.8 3.70001 159.7 4.60001C157.5 6.30001 155.2 8.00001 153 9.70001C150.4 11.7 147.8 13.7 145.7 16.2C145.5 16.1 145.3 16.1 145.2 16C141.7 13.4 137.7 12.6 133.4 13.2C132 13.4 130.6 13.7 129.2 14C127.5 14.3 125.8 14.8 124.1 14.9C120.7 15.2 118.1 16.8 115.8 19.2C113.1 22.1 111.8 25.5 111 29.2C110 33.8 110 38.4 110.8 43.1C107.3 46.7 103.4 49.5 98.2001 49.9C96.3001 50.1 94.5001 50.4 92.7001 50.7C91.5001 50.9 90.4001 51.3 89.5001 52.3C88.4001 53.5 88.4001 54.8 89.8001 55.7C91.2001 56.6 92.7001 57.4 94.3001 58.1C100.1 60.5 106 62.8 111.4 66C114.6 67.9 117.7 69.9 120.8 72C123.4 73.8 126 75.6 128.5 77.5C131.3 79.6 134.1 81.9 136.9 84C140.9 87.1 144.7 90.4 149.2 92.8C152.2 94.4 155.4 95.3 158.7 95.5C161 95.6 163.4 95.8 165.6 96.5C167.1 96.9 168.2 97.8 169 99.1C168.8 99.1 168.9 99.2 169.1 99.5ZM143.9 41.9C145.4 42.9 146.8 43.6 148 44.5C150.7 46.4 153.3 48.6 155.5 51C156.9 52.5 158.1 54.1 159.2 55.7C160.1 56.8 160.3 58.1 160.1 59.6C159.4 64.9 159.4 70.2 160.1 75.6C160.8 80.9 162 86.1 165.1 90.7C165.5 91.3 165.5 91.8 165.1 92.4C164.3 93.6 163.1 94.3 161.8 94.5C157.8 95.1 154 94.6 150.3 92.9C146.2 90.9 142.7 88.2 139.1 85.4C136.3 83.2 133.6 81 130.7 78.8C127.8 76.6 125 74.5 122 72.4C119.6 70.7 117.1 69 114.5 67.5C111.8 65.9 109.1 64.4 106.3 63C103.9 61.8 101.4 60.8 99.0001 59.7C96.5001 58.6 94.0001 57.6 91.5001 56.5C90.7001 56.1 90.0001 55.6 89.4001 55.1C88.7001 54.5 88.7001 54 89.1001 53.3C89.5001 52.5 90.2001 52.4 91.0001 52.5C93.1001 52.8 95.1001 53.1 97.2001 53.4C100.4 54 103.7 54 106.9 53.2C110.9 52.3 114.5 50.6 117.9 48.4C120 47 122.1 45.6 124.2 44.3C126.7 42.7 129.3 41.2 132.2 40.3C134.7 39.5 137.2 39.4 139.6 40.2C141.3 40.5 142.7 41.3 143.9 41.9ZM166.6 40C167.2 39 168.2 37.2 169.5 35.6C172.1 32.3 175.3 29.7 179 27.7C183.3 25.3 187.6 22.8 191.7 20.1C195.5 17.7 198.4 14.5 200.6 10.5C201.2 9.4 202 8.49999 202.8 7.39999C203.6 6.19999 204.8 6.1 206.1 6.5C207.3 6.9 207.9 7.90001 207.9 9.10001C207.9 10.3 208 11.6 207.6 12.8C206.8 15.8 205.9 18.7 204.9 21.6C203.4 26 201.6 30.3 200.1 34.8C197 44.3 194 53.9 190.9 63.4C189.9 66.5 188.6 69.5 187.4 72.6C186.7 74.5 185.5 76.2 184.5 77.9C182 82.1 178.8 85.6 174.9 88.5C173.7 89.4 172.3 90.2 170.9 90.8C168.8 91.6 166.1 91.1 164.8 88.4C163.4 85.6 162.3 82.8 161.7 79.7C160.1 72 160.2 64.4 161.3 56.7C161.9 51.2 163.4 45.8 166.6 40ZM160.5 56.3C159.6 55 158.8 53.9 157.9 52.8C154 48 149.1 44.2 143.8 41C142.6 40.3 142 39.4 141.7 38.1C140.7 34 140.9 29.8 141.7 25.7C142.1 23.7 142.7 21.8 143.7 20C145.1 17.2 147.1 14.9 149.5 12.9C154 9.19999 158.9 6.10001 163.2 2.20001C164.8 0.700012 166.9 0.399994 169.1 0.899994C171.5 1.49999 173.5 2.60001 175.4 4.10001C177.6 5.90001 179.5 8.00001 180.6 10.6C181.9 13.6 182.1 16.7 181.8 19.9C170.1 29.4 163.1 41.5 160.5 56.3ZM145 16.9C140.4 23.9 139.7 31.5 141.5 39.6C140.9 39.4 140.4 39.2 139.9 39C138.1 38.3 136.4 37.5 134.6 37C126.4 34.9 118.7 35.7 112.1 41.7C111.8 41.9 111.5 42.1 111.1 42.4C111 42 110.9 41.7 110.9 41.4C110.5 37.9 110.5 34.4 111 30.9C111.4 28.6 111.9 26.4 112.8 24.3C113.8 22 115.3 20.1 117.2 18.4C118.6 17.1 120.2 16.1 122 15.8C125.4 15.1 128.8 14.5 132.2 13.9C135.5 13.3 138.7 13.5 141.8 14.8C143 15.3 144.1 15.7 145 16.9ZM137.6 38.7C137.5 38.7 137.4 38.8 137.2 38.8C133.9 38.5 130.9 39.6 128.1 41.1C125.6 42.5 123.3 44 120.9 45.5C119 46.7 117.1 48 115.2 49.1C109.2 52.4 103 53.8 96.2001 52.3C95.0001 52 93.7001 51.9 92.5001 51.7C92.2001 51.7 92.0001 51.6 91.7001 51.5C92.6001 51.1 93.4001 50.9 94.2001 50.8C95.7001 50.6 97.1001 50.4 98.6001 50.2C102.1 49.8 105.2 48.4 107.8 46.1C109.5 44.6 111.3 43.1 113 41.6C114.7 40.2 116.4 38.9 118.4 38.1C124.9 35.5 131.2 36.2 137.6 38.7ZM188.7 71.7C190.3 66.8 191.9 62 193.4 57.2C194.5 53.8 196.5 51.2 199.6 49.3C203.2 47.1 207.1 45.7 210.9 44.2C215.6 42.4 219.6 39.8 222.6 35.7C223.9 34 225.5 32.5 227.3 31.3C228 30.8 228.7 30.4 229.6 30.9C229.8 31.8 229.3 32.4 228.8 33C227.8 34.1 226.7 35.2 225.5 36.1C223.1 37.9 220.6 39.6 218.1 41.4C213.3 44.9 208.5 48.4 204.4 52.8C200 57.6 195.9 62.5 191.8 67.6C190.8 69 189.8 70.2 188.7 71.7ZM201 8.39999C200.9 8.79999 200.9 8.9 200.8 9C198.6 13.1 195.8 16.6 191.9 19.3C187.8 22.2 183.4 24.7 179 27C176.1 28.5 173.4 30.5 171.1 32.9C170.7 33.4 170.2 33.8 169.7 34.2C169.6 34.1 169.6 34.1 169.5 34C171.1 31.9 172.7 29.8 174.4 27.8C178.8 22.7 184.1 18.6 190.2 15.5C193.7 13.7 197.1 11.7 200.1 9C200.3 8.9 200.6 8.69999 201 8.39999ZM199.7 48.3C199.7 48.3 199.8 48.1 199.9 48.1C200.4 47.6 200.9 47.2 201.5 46.7C205 43.6 209.3 41.9 213.3 39.6C216.1 38 219 36.6 221.8 35.1C222 35 222.2 34.9 222.7 34.8C222.3 35.3 222 35.7 221.7 36C219.3 39 216.4 41.3 212.8 42.8C211.6 43.3 210.4 43.9 209.3 44.4C206.1 45.6 202.9 46.9 199.7 48.3Z" fill="#B0D0D2"/>
<path d="M165.5 92.8001C165.2 92.6001 165 92.4001 164.7 92.3001C158.6 89.9001 153.9 85.6001 149.8 80.7001C147.2 77.7001 144.8 74.5001 142.3 71.4001C140.4 69.0001 138.6 66.6001 136.6 64.3001C137.9 66.2001 139.2 68.2001 140.6 70.1001C143.1 73.3001 145.6 76.5001 148.1 79.7001C150.5 82.7001 153.1 85.6001 156.1 88.0001C158.8 90.1001 161.7 91.9001 165 93.1001C165.1 93.1001 165.2 93.1001 165.4 93.1001C165.5 93.0001 165.5 92.9001 165.5 92.8001Z" fill="#B0D0D2"/>
<path d="M177 34.2001C176.5 35.7001 176 37.2001 175.5 38.7001C174.5 42.1001 173.3 45.4001 172.6 48.9001C171.8 52.3001 171.3 55.8001 171 59.3001C170.6 65.3001 170.4 71.3001 170.2 77.3001C170.2 77.6001 170.2 77.8001 170.4 78.1001C170.4 77.7001 170.5 77.3001 170.5 76.8001C170.9 70.6001 171.1 64.4001 171.6 58.1001C172.1 52.1001 173.5 46.4001 175.4 40.7001C176.1 38.6001 176.6 36.4001 177.3 34.2001C177.2 34.3001 177.1 34.2001 177 34.2001Z" fill="#B0D0D2"/>
<path d="M150.3 88.1003C151.7 89.2003 153.1 90.3003 154.6 91.3003C156.1 92.3003 157.7 93.0003 159.2 94.0003C157 93.7003 155.1 92.7003 153.2 91.7003C148 88.8003 143.4 85.1003 139.1 81.0003C139 80.9003 138.8 80.7003 138.5 80.8003C140.2 82.4003 141.9 84.1003 143.6 85.7003C146.7 88.5003 150.2 90.9003 153.9 92.9003C154.8 93.4003 155.9 93.8003 156.9 94.2003C158 94.6003 159.2 94.9003 160.5 95.3003C160.4 95.0003 160.4 94.8003 160.3 94.6003C160.7 94.7003 161 94.7003 161.3 94.8003C161.3 94.7003 161.4 94.7003 161.4 94.6003C160.2 94.0003 158.9 93.5003 157.7 92.8003C156.4 92.1003 155.2 91.3003 153.9 90.5003C152.7 89.7003 151.5 88.9003 150.3 88.2003C150.4 88.0003 150.4 88.1003 150.3 88.1003Z" fill="#B0D0D2"/>
<path d="M189.3 52.7001C188.6 56.2001 187.9 59.7001 187 63.2001C186.1 67.2001 184.8 71.2001 183.1 75.0001C181 79.7001 178.4 84.1001 174.6 87.6001C174.5 87.7001 174.5 87.8001 174.6 88.1001C176 86.5001 177.6 85.0001 178.9 83.3001C183.1 77.6001 185.5 71.2001 187.2 64.4001C188.1 60.8001 188.6 57.0001 189.3 53.3001C189.3 53.2001 189.3 52.9001 189.3 52.7001Z" fill="#B0D0D2"/>
<path d="M150.5 43.0001C150.4 42.6001 150.3 42.3001 150.2 41.9001C149 37.2001 148.2 32.4001 147.6 27.6001C147.1 23.5001 147.3 19.5001 148.3 15.5001C148.4 14.9001 148.6 14.4001 148.6 13.8001C147.9 14.6001 147.6 15.6001 147.4 16.7001C146.6 20.9001 146.4 25.1001 147.2 29.4001C147.9 33.6001 148.4 37.8001 149.8 41.8001C150 42.2001 150.1 42.7001 150.3 43.1001C150.3 43.0001 150.4 43.0001 150.5 43.0001Z" fill="#B0D0D2"/>
<path d="M166.2 90.6004C166.1 90.4004 166.1 90.1004 166 89.9004C164 85.3004 163.5 80.6004 163.6 75.7004C163.7 71.5004 163.9 67.2004 164.1 63.0004C164.1 62.6004 164.1 62.2004 163.9 61.8004C163.7 63.6004 163.5 65.3004 163.4 67.1004C163.1 71.9004 162.8 76.6004 163.2 81.4004C163.4 84.3004 164.2 87.1004 165.3 89.8004C165.5 90.2004 165.7 90.5004 165.9 90.9004C166 90.6004 166.1 90.6004 166.2 90.6004Z" fill="#B0D0D2"/>
<path d="M93.8 52.7003C94.3 52.9003 94.8 53.0003 95.4 53.2003C97.8 53.9003 100.1 54.7003 102.3 55.9003C104.4 57.0003 106.6 58.0003 108.6 59.2003C111.7 61.0003 114.7 62.9003 117.7 64.7003C118.4 65.1003 119.1 65.5003 119.7 65.8003C114.5 61.9003 108.9 58.6003 103.1 55.7003C100.8 54.5003 98.2 53.7003 95.8 52.8003C95.2 52.6003 94.5 52.6003 93.9 52.5003C93.9 52.5003 93.9 52.6003 93.8 52.7003Z" fill="#B0D0D2"/>
<path d="M122.8 25.7004C124.3 27.5004 125.7 29.3004 127.3 31.0004C128.8 32.7004 130.4 34.3004 131.9 36.0004C129.2 34.6004 127.4 32.2004 124.9 30.1004C126.1 32.0004 127.6 33.3004 129 34.6004C129.5 35.1004 130.2 35.5004 130.7 36.0004C131.2 36.5004 131.8 36.6004 132.5 36.3004C133.3 36.8004 134.1 37.4004 134.9 37.9004C135 37.8004 135.1 37.7004 135.1 37.6004C130.2 34.4004 126.6 29.9004 122.9 25.5004C123 25.6004 122.9 25.7004 122.8 25.7004Z" fill="#B0D0D2"/>
<path d="M183.4 67.3001C180.8 76.5001 176.4 84.8001 168.9 91.1001C169.2 91.0001 169.4 90.8001 169.7 90.7001C171.9 89.1001 173.9 87.1001 175.5 84.8001C177.1 82.4001 178.7 80.0001 180.1 77.4001C181.8 74.3001 182.9 70.9001 183.6 67.4001C183.6 67.3001 183.6 67.2001 183.6 67.2001C183.5 67.3001 183.5 67.3001 183.4 67.3001Z" fill="#B0D0D2"/>
<path d="M166.5 15.7001C166.6 18.3001 166.5 21.0001 166.7 23.6001C167 27.4001 166.2 31.1001 165.5 34.7001C164.9 37.8001 164.1 40.9001 163.5 44.1001C163.6 43.6001 163.8 43.2001 163.9 42.7001C165.3 37.2001 166.9 31.8001 167.2 26.1001C167.4 22.6001 167.2 19.1001 166.5 15.7001Z" fill="#B0D0D2"/>
<path d="M147.7 47.2002C152.5 52.5002 157.4 57.8002 160.1 64.7002C160.2 64.7002 160.3 64.6002 160.4 64.6002C160.4 64.3002 160.4 64.0002 160.3 63.8002C159.4 62.0002 158.6 60.2002 157.6 58.5002C155.1 54.4002 151.8 50.8002 148.3 47.5002C148 47.4002 147.8 47.3002 147.7 47.2002Z" fill="#B0D0D2"/>
<path d="M111.6 51.4003C118 55.3003 123.1 60.8003 128.6 65.8003C128.1 65.2003 127.5 64.6003 127 64.0003C126.4 63.4003 125.9 62.8003 125.3 62.2003C122.3 59.4003 119.3 56.6003 116.2 54.0003C115.1 53.0003 113.7 52.3003 112.4 51.5003C112.2 51.4003 111.9 51.3003 111.6 51.2003C111.7 51.3003 111.7 51.4003 111.6 51.4003Z" fill="#B0D0D2"/>
<path d="M197.3 32.3005C194.9 40.6005 194.3 49.1005 192.7 57.4005C192.8 57.4005 192.9 57.4005 193 57.5005C193.5 54.8005 194 52.0005 194.4 49.3005C194.9 46.4005 195.2 43.6005 195.7 40.7005C196.2 37.9005 196.8 35.1005 197.3 32.3005Z" fill="#B0D0D2"/>
<path d="M160.8 54.1001C161.1 46.8001 161.7 39.5001 162.6 32.2001C162.6 32.1001 162.5 31.9001 162.4 31.8001C161.3 39.2001 160.5 46.6001 160.8 54.1001Z" fill="#B0D0D2"/>
<path d="M192.8 66.7002C195.1 63.5002 197.5 60.3002 199.9 57.1002C202.2 54.0002 204.7 50.9002 207.5 48.2002C201.3 53.4002 197.2 60.1002 192.8 66.7002Z" fill="#B0D0D2"/>
<path d="M172.2 1.50018C172.2 2.60018 172.9 3.3002 173.2 4.2002C173.5 5.1002 173.8 5.9002 174.1 6.8002C174.4 7.7002 174.7 8.60018 174.9 9.50018C175.1 10.4002 175.4 11.2002 175.6 12.1002C175.8 13.0002 175.9 14.0002 176.1 14.9002C176.2 15.8002 176.3 16.7002 176.4 17.7002C177.4 14.9002 174.5 3.40018 172.2 1.50018Z" fill="#B0D0D2"/>
<path d="M150.8 33.9004C150.8 38.4004 152 42.8004 153.4 47.0004C153.9 48.4004 154.5 49.8004 155.7 50.9004C155.8 50.7004 155.9 50.5004 155.8 50.5004C153.4 46.6004 152.5 42.3004 151.4 38.0004C151.2 36.6004 151 35.2004 150.8 33.9004Z" fill="#B0D0D2"/>
<path d="M183.2 39.0005C185.1 33.3005 186.4 27.3005 188.9 21.6005C188.3 22.0005 187.7 22.7005 187.4 23.7005C185.7 28.5005 184.4 33.4005 183.2 38.4005C183.1 38.6005 183.2 38.8005 183.2 39.0005Z" fill="#B0D0D2"/>
<path d="M201 22.9004C202.8 20.1004 205.8 8.5004 205.1 6.0004C204.5 7.6004 204.6 9.10039 204.3 10.4004C204 11.8004 203.7 13.2004 203.3 14.6004C202.9 16.0004 202.6 17.4004 202.2 18.9004C201.8 20.2004 201.4 21.5004 201 22.9004Z" fill="#B0D0D2"/>
<path d="M160.5 76.6001C158.8 70.8001 155.7 65.8001 152.2 61.0001C155.1 66.2001 158.3 71.1001 160.5 76.6001Z" fill="#B0D0D2"/>
<path d="M175.9 70.7002C178.1 64.1002 179.4 56.6002 180.5 49.1002C179 56.5002 177.4 63.9002 175.9 70.7002Z" fill="#B0D0D2"/>
<path d="M199.7 54.1004C195.6 58.8004 193.2 64.6004 190.2 69.9004C191.8 67.3004 193.3 64.6004 194.9 62.0004C196.5 59.4004 198.1 56.7004 199.7 54.1004Z" fill="#B0D0D2"/>
<path d="M163.6 86.8004C162 81.8004 161.9 76.6004 161.6 71.4004C161.6 71.8004 161.5 72.1004 161.5 72.5004C161.4 76.2004 161.6 79.9004 162.2 83.5004C162.3 84.4004 162.6 85.2004 162.8 86.0004C162.9 86.3004 163.1 86.6004 163.3 86.9004C163.5 86.8004 163.6 86.8004 163.6 86.8004Z" fill="#B0D0D2"/>
<path d="M129.3 40.9001C132.7 44.3001 135.9 47.8001 138.9 51.6001C136.3 47.5001 133.2 43.8001 129.3 40.9001Z" fill="#B0D0D2"/>
<path d="M159 17.2002C159.3 13.0002 159.6 8.90018 159.9 4.90018C159 6.00018 158.3 14.1002 159 17.2002Z" fill="#B0D0D2"/>
<path d="M100.6 53.4005C104.3 55.3005 108 57.2005 111.3 59.0005C109 57.1005 102.7 53.6005 100.6 53.4005Z" fill="#B0D0D2"/>
<path d="M168.9 23.6001C168.4 19.0001 168.7 14.4001 167.5 9.90009C167.4 9.60009 167.5 9.30009 167.4 9.00009C167.3 9.00009 167.2 9.1001 167.1 9.1001C167.4 11.5001 167.8 13.9001 168 16.3001C168.2 18.7001 168.4 21.2001 168.5 23.6001C168.7 23.6001 168.8 23.6001 168.9 23.6001Z" fill="#B0D0D2"/>
<path d="M149 70.8003C148.8 70.4003 148.6 70.0003 148.3 69.6003C145 65.3003 141.2 61.4003 137.5 57.4003C137.4 57.3003 137.3 57.3003 137.1 57.2003C138 58.2003 138.9 59.1003 139.6 60.0003C142.6 63.4003 145.9 66.7003 148.5 70.4003C148.7 70.5003 148.9 70.6003 149 70.8003Z" fill="#B0D0D2"/>
<path d="M174.5 12.4004C173.5 8.70039 172.9 4.80042 171.2 1.30042C171 1.40042 170.9 1.40039 170.9 1.40039L170.8 1.5004C170.8 1.6004 170.8 1.70041 170.8 1.70041C172 5.40041 173.2 8.90039 174.5 12.4004Z" fill="#B0D0D2"/>
<path d="M200.8 48.3004C199.4 49.1004 196 54.4004 194.9 57.4004C196.8 54.4004 198.8 51.4004 200.8 48.3004Z" fill="#B0D0D2"/>
<path d="M135.2 13.6004C135.7 14.6004 136.2 15.5004 136.6 16.5004C137.1 17.5004 137.5 18.6004 137.9 19.6004C138.3 20.6004 138.7 21.7004 139.1 22.9004C139.1 20.3004 136.7 14.4004 135.2 13.6004Z" fill="#B0D0D2"/>
<path d="M171.3 50.3002C170.1 54.8002 169.8 59.5002 169.6 64.2002C170.1 59.5002 170.7 54.9002 171.3 50.3002Z" fill="#B0D0D2"/>
<path d="M111.2 28.4003C111.2 29.8003 114.1 33.5003 116.5 34.8003C114.6 32.6003 112.9 30.4003 111.2 28.4003Z" fill="#B0D0D2"/>
<path d="M125.2 15.1005C127 17.4005 128.7 19.7005 130.5 22.0005C129.2 19.4005 127.5 17.1005 125.5 14.9005C125.4 15.0005 125.3 15.1005 125.2 15.1005Z" fill="#B0D0D2"/>
<path d="M192.7 25.1001C193.7 22.4001 194.7 19.7001 195.6 17.0001C194 19.4001 193.3 22.2001 192.7 25.1001Z" fill="#B0D0D2"/>
<path d="M156.5 64.5001C157.7 67.0001 158.9 69.6001 160.1 72.1001C160.2 72.1001 160.3 72.0001 160.4 72.0001C159.5 69.3001 158.1 66.8001 156.5 64.5001Z" fill="#B0D0D2"/>
<path d="M201.8 14.2002C202.7 11.7002 203.5 9.20019 203.6 6.60019C203.5 6.60019 203.4 6.60018 203.3 6.50018C202.8 9.10018 202.3 11.7002 201.8 14.2002Z" fill="#B0D0D2"/>
<path d="M118 37.6001C116.3 36.1001 114.7 34.6001 113 33.1001C113.7 34.5001 114.8 35.5001 115.9 36.5001C116.4 36.9001 116.9 37.3001 117.5 37.6001C117.5 37.7001 117.7 37.6001 118 37.6001Z" fill="#B0D0D2"/>
<path d="M130.5 65.4004C128.6 62.8004 126.5 60.4004 124.1 58.2004C126.2 60.7004 128.3 63.1004 130.5 65.4004Z" fill="#B0D0D2"/>
<path d="M133.1 46.7005C131.6 45.1005 130 43.4005 128.5 41.8005C128.4 41.9005 128.3 42.0005 128.2 42.1005C128.8 43.0005 129.7 43.7005 130.5 44.5005C131.3 45.3005 132.1 46.1005 132.9 47.0005C132.9 46.8005 133 46.8005 133.1 46.7005Z" fill="#B0D0D2"/>
<path d="M185.6 24.2004C184.6 25.8004 184.1 27.6004 183.8 29.4004C184.5 27.7004 185.1 26.0004 185.8 24.2004C185.7 24.3004 185.7 24.2004 185.6 24.2004Z" fill="#B0D0D2"/>
<path d="M133.8 13.4002C134.6 14.8002 135.5 16.3002 136.3 17.7002C135.9 16.0002 135.1 14.6002 134.1 13.2002C134 13.3002 133.9 13.4002 133.8 13.4002Z" fill="#B0D0D2"/>
<path d="M158.1 6.3002C157.7 7.9002 157.6 9.6002 157.6 11.2002C157.7 11.2002 157.8 11.2002 157.8 11.2002C158 9.6002 158.2 7.9002 158.4 6.3002C158.3 6.3002 158.2 6.3002 158.1 6.3002Z" fill="#B0D0D2"/>
<path d="M113.7 37.4005C114.4 37.9005 115 38.5005 115.7 39.0005C115.8 38.9005 115.9 38.8005 115.9 38.7005C115.2 38.2005 114.6 37.6005 113.9 37.1005C113.9 37.2005 113.8 37.3005 113.7 37.4005Z" fill="#B0D0D2"/>
<path d="M149 70.8005C149.7 71.9005 150.3 72.9005 151 74.0005C151.1 73.9005 151.2 73.9005 151.3 73.8005C150.5 72.8005 149.8 71.8005 149 70.8005Z" fill="#B0D0D2"/>
<path d="M136.2 56.0001C135.6 55.4001 135 54.8001 134.4 54.1001L134.3 54.2001C134.9 54.8001 135.5 55.5001 136 56.1001C136.1 56.1001 136.2 56.1001 136.2 56.0001Z" fill="#B0D0D2"/>
<path d="M165.8 172.7C165.7 172.4 165.5 172.1 165.4 171.8C163.8 168.3 162.2 164.9 160.6 161.4C158.8 157.4 156.9 153.5 155.6 149.4C154.4 145.9 153.3 142.5 151.8 139.2C150.4 136 148.8 132.9 147 130C144.7 126.3 141.6 123.5 137.9 121.3C133.3 118.5 128.2 116.9 122.9 116.2C116.2 115.4 109.5 114.4 102.8 113.7C99.5 113.4 96.1 113.2 92.8 113.3C88.4 113.4 83.9 113.9 79.5 114.2C76 114.4 72.8 115.7 69.7 117C69.6 117 69.5 117.2 69.3 117.5C69.8 117.6 70.2 117.8 70.6 117.8C76.6 118 82.6 118.2 88.5 118.4C92.6 118.6 96.6 119 100.7 119C103.7 119 106.6 119.4 109.6 119.9C113.1 120.6 116.4 121.8 119.6 123.5C122.5 125.1 125.5 126.6 128.3 128.4C133.6 131.7 138.5 135.5 142.7 140C148.3 145.9 153.5 152.1 158 158.9C160.6 162.9 162.8 167.2 164.8 171.6C165 172 165.3 172.5 165.5 172.9C165.5 172.8 165.7 172.7 165.8 172.7ZM157.4 155.8C157.3 155.8 157.2 155.9 157.2 155.9C157 155.5 156.8 155.2 156.5 154.8C154.4 151.5 152.4 148.2 150.2 145C149.4 143.8 148.5 142.7 147.6 141.6C142.6 135.1 136.7 129.4 129.8 124.9C126.2 122.5 122.4 120.8 118.3 119.5C117.7 119.3 117 119.1 116.4 118.8C116.7 118.6 117 118.5 117.3 118.5C119.7 118.4 122.1 118.2 124.4 118.2C128.4 118.1 132.2 118.8 135.8 120.8C139.9 123.1 143.5 125.8 146.1 129.7C149.7 135.2 152.2 141.3 154.3 147.5C155.2 150 156.1 152.5 156.9 154.9C157.2 155.2 157.3 155.5 157.4 155.8ZM76.4 117.1C76.4 117 76.4 117 76.3 116.9C76.4 116.9 76.4 116.8 76.5 116.8C77 116.7 77.5 116.6 78 116.6C83.6 116 89.2 116.1 94.9 116.1C97.7 116.1 100.3 116.6 102.9 117.3C105.6 117.9 108.2 118.4 111 118.6C112.5 118.7 114.1 118.9 115.6 119.3C121.4 120.9 126.7 123.4 131.6 126.9C135.8 129.9 139.7 133.4 143.2 137.3C146.3 140.7 149.1 144.4 151.6 148.3C152.2 149.3 152.9 150.2 153.6 151.2C153.8 151.4 153.9 151.7 154 152C153.6 151.8 153.3 151.4 153 151.1C150.8 148.5 148.8 145.7 146.5 143.2C141.8 137.9 136.6 133.2 130.6 129.3C126.5 126.7 122.4 124.1 117.9 122.1C115 120.8 112 119.8 108.9 119.2C105.6 118.6 102.3 118.3 99 118.3C93.6 118.2 88.3 117.8 82.9 117.6C80.8 117.3 78.6 117.2 76.4 117.1ZM126.1 117.2C126.1 117.3 126.1 117.4 126.1 117.5C121.8 117.6 117.5 117.8 113.1 117.9C109.8 117.9 106.5 117.4 103.2 116.6C100.9 116 98.6 115.6 96.2 115.1C95.5 115 94.8 115 94 114.9C92.7 114.7 91.5 114.5 90.2 114.4C91.4 114.1 92.6 113.8 93.8 113.8C96.5 113.8 99.3 113.8 102 114.1C109.4 114.9 116.7 115.9 124.1 116.8C124.8 116.9 125.4 117.1 126.1 117.2ZM91.1 115.4C84.9 115.4 78.7 115.8 72.5 116.7C75.1 114.8 87 114 91.1 115.4Z" fill="#B0D0D2"/>
<path d="M242 81.7999C238.9 82.9999 235.8 84.1999 232.7 85.3999C225.8 87.9999 219.3 91.2999 212.8 94.5999C206 97.9999 199.8 102.3 194.1 107.1C188.7 111.6 183.5 116.3 179.1 121.8C176.9 124.5 174.7 127.3 173 130.3C171 133.7 169 137 167.2 140.4C165.6 143.5 164.3 146.7 163.9 150.2C163.8 150.9 164 151.7 164 152.4C164.1 152.4 164.2 152.4 164.3 152.4C164.4 152 164.5 151.6 164.6 151.2C165 148.4 166.2 145.8 167.7 143.4C172.7 135.3 179.6 129.1 187.5 124.1C191.1 121.8 194.9 119.8 198.7 117.7C200.1 116.9 201.5 116.4 202.9 115.7C208.8 112.3 214.7 109 219.9 104.5C224.1 100.9 227.9 96.7999 231.6 92.6999C234.6 89.3999 237.6 85.9999 240.9 82.9999C241.2 82.6999 241.6 82.1999 242 81.7999ZM237.7 84.8999L237.8 84.9999C237.7 85.0999 237.6 85.2999 237.5 85.3999C234.7 88.3999 231.8 91.4999 229 94.4999C224.9 98.8999 220.7 103.3 215.9 106.8C210.7 110.7 205 113.8 199.2 116.7C194.9 118.9 190.7 121.3 186.7 123.8C181.7 126.9 177.1 130.6 173.1 135C171.9 136.4 170.7 137.8 169.5 139.2C169.5 138.9 169.6 138.6 169.8 138.3C170.5 137.2 171.2 136 172 134.9C174 132.1 176 129.2 178.2 126.6C183.9 119.9 190.6 114.3 197.7 109.2C200.9 107 204.2 105 207.6 103.1C217.4 97.6999 227.2 92.2999 236.2 85.5999C236.7 85.4999 237.2 85.1999 237.7 84.8999ZM236.9 84.4999C236.9 84.5999 237 84.6999 237 84.7999C236.8 84.8999 236.7 85.0999 236.5 85.1999C230.5 89.3999 224.3 93.2999 218 96.8999C214 99.1999 209.9 101.3 205.9 103.6C202.2 105.8 198.5 108.1 195.1 110.7C191.2 113.7 187.4 116.7 183.8 120.1C179.7 124 176.1 128.2 172.8 132.8C171.4 134.7 170.1 136.7 168.8 138.7C168.8 138.4 168.9 138.2 169 138.1C170.7 135.3 172.3 132.5 174.1 129.8C175.9 127.1 177.8 124.5 179.8 121.9C184.1 116.6 189.1 112.1 194.3 107.8C199.9 103.1 205.8 98.8999 212.3 95.5999C217.8 92.7999 223.2 89.9999 228.9 87.5999C231.5 86.5999 234.2 85.4999 236.9 84.4999Z" fill="#B0D0D2"/>
<path d="M141.7 305.6C140.5 307.3 139.3 309 138 310.6C132.7 317.4 127.1 324.1 121.7 330.8C119.4 333.6 116.9 336.4 114.6 339.2C110.2 344.5 106.1 350.1 102.3 355.8C99.5 360 96.7 364.3 94.1 368.6C89 377.1 84.9 386.2 80.6 395.1C78.4 399.7 76.1 404.3 73.8 408.9C73 410.6 72 412.3 71 414.1C70.8 414 70.7 413.9 70.5 413.8C70.7 413.4 71 413 71.2 412.6C72.7 409.7 74.3 406.8 75.8 403.8C78 399.3 80.2 394.7 82.4 390.1C84.1 386.5 85.8 382.8 87.7 379.2C92.1 370.6 97 362.2 102.6 354.3C105.3 350.5 107.9 346.7 110.7 343C115.3 337.2 120 331.6 124.7 325.9C126.7 323.5 128.6 321.2 130.6 318.8C134.2 314.4 137.7 309.9 141 305.3C141.2 305.5 141.5 305.6 141.7 305.6Z" fill="#B0D0D2"/>
<path d="M168.2 239.2C168 239.1 167.9 239 167.7 239C167.9 237.7 168.1 236.3 168.2 235C170.3 218.9 170.7 202.8 167.7 186.7C166.8 181.9 166.2 177 165.4 172.2C165.2 170.7 165 169.1 164.8 167.6C163.7 159.2 163.2 150.7 163.3 142.2C163.4 135.3 163.9 128.5 164.9 121.7C165.8 115.7 166.9 109.8 167.9 103.8C168.4 100.7 168.9 97.6002 169.5 94.5002C169.5 94.3002 169.7 94.1002 169.8 93.9002C170 94.2002 170 94.5002 170 94.7002C169 101.1 168.1 107.5 166.9 113.8C165.1 123.7 163.9 133.6 164 143.6C164 148.1 164.2 152.5 164.5 157C164.9 162.7 165.5 168.5 166.5 174.1C167.1 177.2 167.5 180.4 167.9 183.5C168.7 189.8 169.7 196.1 170.3 202.5C171.1 211.3 170.4 220.2 169.5 229C169.1 232.3 168.7 235.7 168.2 239.2Z" fill="#B0D0D2"/>
<path d="M75.7 212.8C75.7 213.3 75.7 213.7 75.6 214.2C75.5 217.3 75.5 220.4 75.3 223.4C75.2 225.3 75.2 227.3 74.7 229.2C74 232.4 73.8 235.6 73.3 238.8C72.8 242.6 72.5 246.4 72.8 250.2C73 252.2 73 254.2 73.2 256.2C73.4 258.5 73.6 260.9 73.8 263.2C73.9 264.4 74.1 265.7 74.1 266.9C74.1 270 74.9 273 74.7 276.1C74.6 279.6 74.7 283 74.6 286.5C74.6 288 74.8 289.4 74.2 290.9C74.1 291.2 74.2 291.5 74.1 291.8C73.8 295.3 73.6 298.8 73.3 302.3C73.1 305.4 72.8 308.4 72.5 311.5C72.2 314.4 71.8 317.2 71.4 320.1C71.1 322.8 70.7 325.4 70.4 328.1C70.2 329.5 70.1 330.8 70 332.2C69.9 333 70 333.9 70 334.9C70.6 334.5 70.6 334 70.6 333.5C70.9 327.4 71.9 321.5 72.7 315.5C73.2 311.9 73.4 308.4 73.9 304.8C74.1 303.3 74 301.8 74.5 300.3C74.9 299.3 74.8 298.1 74.8 297C75.3 289.4 75.6 281.8 75.3 274.1C75.2 270.3 74.9 266.5 74.6 262.7C74.5 261.6 74.2 260.4 74 259.3C73.4 254.3 73.1 249.2 73.3 244.1C73.4 241.7 73.5 239.3 74.1 237C74.9 233.6 74.9 230.1 75.4 226.6C76 222.2 75.9 217.8 75.9 213.4C75.9 213.2 75.9 213.1 75.8 212.9C76 212.8 75.8 212.8 75.7 212.8Z" fill="#B0D0D2"/>
<path d="M117.5 149C117.6 148.5 117.6 148.1 117.7 147.7C116.9 146.8 115.8 146.6 114.8 146.7C109.9 147.3 105.1 148.4 100.7 150.8C100.5 150.9 100.3 150.9 100.1 151C100.2 149.1 100.3 147.2 100.4 145.4C100.4 142.2 99.1999 139.4 96.8999 137.1C95.6999 136 94.2999 135.1 92.9999 134.1C91.9999 133.3 90.9999 132.6 89.9999 131.9C88.9999 131.2 87.9999 130.4 86.8999 129.8C84.7999 128.5 82.5999 128.7 80.5999 129.8C77.7999 131.3 75.3999 133.2 73.2999 135.5C69.0999 140 66.7999 145.4 65.0999 151.1C64.7999 152.3 64.4999 153.4 64.0999 154.9C63.7999 154.3 63.5999 153.9 63.3999 153.5C60.2999 147.5 55.7999 143.1 49.2999 141C47.8999 140.6 46.5999 140.2 45.1999 140.3C44.1999 141 44.6999 142 44.3999 143.1C43.9999 142.7 43.7999 142.4 43.4999 142.1C41.9999 140.5 40.5999 138.9 39.0999 137.4C38.3999 136.7 37.4999 136.2 36.5999 135.8C35.3999 135.3 34.4999 135.7 33.9999 137C33.4999 138.3 33.5999 139.6 33.6999 141C34.1999 145.8 36.0999 150.3 37.5999 154.8C39.7999 161.2 41.9999 167.6 44.0999 174C45.5999 178.6 47.1999 183.2 49.1999 187.6C50.1999 189.8 51.3999 191.8 52.4999 194C52.2999 193.9 51.9999 193.9 51.7999 193.8C46.9999 191.7 41.8999 191.4 36.7999 192C33.9999 192.3 31.2999 192.9 28.6999 193.9C27.9999 194.2 27.2999 194.4 26.6999 194.8C23.0999 196.6 19.4999 198.3 15.8999 200.2C14.7999 200.8 13.7999 201.5 12.7999 202.3C12.1999 202.8 11.5999 203.4 11.0999 204C8.39986 207.2 10.0999 210.8 12.8999 212.2C13.5999 212.6 14.3999 212.8 15.1999 213.1C18.6999 214.1 22.2999 214.9 25.7999 216C29.2999 217.1 32.6999 217 36.1999 216.1C39.7999 215.2 43.1999 213.6 46.5999 212.2C50.6999 210.4 54.8999 208.6 59.2999 207.7C61.2999 207.3 63.3999 207.1 65.4999 206.8C66.3999 206.7 67.2999 206.9 68.0999 207.4C70.9999 209.1 73.2999 211.3 74.3999 214.5C74.8999 215.8 75.2999 217.1 75.7999 218.6C75.9999 218 76.1999 217.6 76.1999 217.3C76.3999 214.6 77.5999 212.7 79.8999 211.2C82.1999 209.7 84.5999 208.8 87.2999 208.7C91.2999 208.6 95.1999 207.7 99.0999 207C102.8 206.4 106.5 205.9 110.1 205.5C119.8 204.7 129.1 206.5 138.4 209.2C140.8 209.9 143.3 210.7 145.8 211.3C146.8 211.6 148 211.6 149 211.1C150.4 210.5 150.8 209.1 149.8 207.9C149.3 207.3 148.8 206.8 148.1 206.5C143.5 204.1 139.4 201.1 135.2 198.1C133 196.6 130.7 195.4 128.2 194.5C125.6 193.6 123 193.5 120.4 194C120.1 194.1 119.7 194.1 119.2 194.2C119.4 193.9 119.6 193.6 119.7 193.4C124.3 188.1 127.4 182 129.8 175.5C132 169.4 133.3 163.1 134.3 156.7C134.5 155.3 134.6 153.7 134.4 152.3C133.7 147.7 129.9 145.1 125.4 145.9C123 146.3 120.7 147 118.6 148.3C118.2 148.7 117.9 148.8 117.5 149ZM115.7 150.5C115.8 150.6 115.9 150.7 116 150.8C116.5 150.5 117 150.3 117.4 150C119.7 148.5 122.2 147.3 124.9 147C126.5 146.8 128.2 146.6 129.7 147.5C131.5 148.6 132.8 150.1 133.3 152.2C133.8 153.9 133.5 155.5 133.2 157.1C132.2 163.4 130.9 169.7 128.7 175.7C125.8 183.7 121.6 190.9 115.4 196.8C109.8 202.1 103.3 205.6 95.6999 207C92.8999 207.6 89.9999 207.8 87.0999 208.1C84.3999 208.4 81.7999 208.2 79.2999 207.4C77.5999 206.8 76.3999 205.6 76.0999 203.8C75.7999 202.4 75.5999 201.1 75.4999 199.7C75.2999 195.7 75.4999 191.6 76.0999 187.6C76.7999 182.7 78.2999 178 80.2999 173.4C81.8999 169.8 83.8999 166.4 86.3999 163.3C93.5999 154.2 102.8 148.7 114.4 147.3C115.3 147.2 116.1 147.2 116.8 147.8C116.5 148.8 116.1 149.7 115.7 150.5ZM45.1999 141.2C45.4999 141.1 45.6999 141.1 45.8999 141.1C46.1999 141.1 46.3999 141.1 46.6999 141.2C54.7999 142.9 60.0999 147.9 63.2999 155.3C63.5999 156.1 63.6999 157 63.6999 157.8C63.5999 163 63.6999 168.1 64.5999 173.2C65.5999 179.6 67.5999 185.6 70.3999 191.4C72.1999 195.1 73.8999 198.8 74.9999 202.8C75.1999 203.5 75.1999 204.2 75.1999 204.8C75.1999 205.4 74.8999 205.9 74.2999 206.1C73.8999 206.2 73.3999 206.3 72.8999 206.4C71.2999 206.5 69.6999 206.1 68.1999 205.4C60.0999 201.8 53.7999 196.3 50.0999 188.1C48.0999 183.6 46.2999 178.9 44.7999 174.2C42.5999 167.4 40.1999 160.7 37.8999 153.9C36.6999 150.3 35.1999 146.8 34.5999 143C34.3999 141.5 34.1999 139.9 34.1999 138.4C34.2999 136.4 35.3999 135.9 37.0999 137C38.2999 137.8 39.3999 138.8 40.3999 139.9C41.5999 141.2 42.6999 142.7 43.8999 144.1C44.1999 144.4 44.4999 144.7 44.7999 145C44.8999 144.9 44.9999 144.9 45.0999 144.8C45.1999 143.7 45.1999 142.5 45.1999 141.2ZM98.9999 151.7C98.5999 152 98.1999 152.2 97.7999 152.4C93.4999 154.9 89.8999 158.1 86.6999 161.9C83.2999 166.1 80.4999 170.7 78.5999 175.7C75.7999 182.9 74.7999 190.4 74.8999 198.1C74.8999 198.5 74.8999 198.9 74.8999 199.4C74.5999 199.2 74.3999 198.9 74.2999 198.7C72.9999 195.8 71.6999 192.9 70.4999 190C69.4999 187.6 68.3999 185.1 67.5999 182.6C66.2999 178.6 65.2999 174.5 64.8999 170.3C64.5999 167.3 64.2999 164.4 64.2999 161.4C64.2999 157.9 64.6999 154.5 65.7999 151.2C67.3999 146.1 69.2999 141.2 72.7999 137.1C75.1999 134.3 77.8999 131.8 81.2999 130.2C82.9999 129.4 84.6999 129.4 86.3999 130.3C86.8999 130.6 87.3999 130.8 87.7999 131.2C89.8999 133 92.2999 134.5 94.4999 136C97.0999 137.8 98.8999 140.3 99.3999 143.5C99.8999 146.3 99.6999 149 98.9999 151.7ZM66.6999 205.8C66.6999 205.9 66.6999 206 66.6999 206.1C64.9999 206 63.1999 206.1 61.4999 205.8C59.3999 205.5 57.3999 204.9 55.2999 204.5C52.6999 204 50.1999 203.6 47.5999 204.2C45.4999 204.7 43.5999 205.6 41.7999 206.6C39.2999 208.1 36.8999 209.6 34.4999 211.1C32.3999 212.4 30.0999 213.6 27.6999 214.3C27.1999 214.5 26.5999 214.5 25.9999 214.6C24.2999 214.7 22.4999 214.5 20.8999 214C19.6999 213.6 18.4999 213.4 17.2999 213C16.0999 212.7 14.7999 212.4 13.6999 211.9C10.1999 210.5 9.39986 206.9 11.9999 204.2C13.1999 203 14.4999 201.9 15.9999 201.1C19.4999 199.2 22.9999 197.5 26.5999 195.8C27.2999 195.4 28.0999 195.1 28.7999 194.8C33.2999 193.1 37.8999 192.5 42.6999 192.7C45.8999 192.8 48.8999 193.5 51.8999 194.8C53.0999 195.3 54.0999 196 54.9999 196.9C56.8999 199.1 59.1999 201.1 61.5999 202.7C63.1999 203.8 64.9999 204.8 66.6999 205.8ZM104.4 205.5C104.4 205.4 104.3 205.3 104.3 205.3C104.6 205.2 104.8 205 105.1 204.9C108.9 203.2 112.3 200.9 115.3 198.1C115.9 197.6 116.4 196.9 117.1 196.4C119 195.1 121 194.4 123.3 195.2C125.1 195.8 126.7 196.6 128.1 197.9C129.6 199.2 131 200.6 132.6 201.9C134.1 203.2 135.9 204.2 137.9 204.6C139.1 204.9 140.4 205.1 141.6 205.2C144.1 205.5 146.4 206.5 148.3 208C148.8 208.4 149.2 209 149.6 209.5C149.2 210.6 148.4 211.1 147.5 211C146.2 210.9 144.8 210.7 143.6 210.3C136.1 207.9 128.5 205.9 120.6 205.2C116.4 204.8 112.3 204.7 108.2 205.2C106.9 205.3 105.6 205.4 104.4 205.5ZM26.5999 215.5C28.1999 214.9 29.5999 214.5 30.9999 213.8C33.4999 212.5 35.8999 211 38.2999 209.6C40.3999 208.4 42.4999 207.1 44.6999 206C47.2999 204.7 50.0999 204.3 52.8999 204.9C55.1999 205.4 57.4999 205.8 59.7999 206.3C59.9999 206.3 60.0999 206.5 60.2999 206.6C58.5999 207.1 56.9999 207.4 55.4999 208C51.0999 209.7 46.5999 211.5 42.1999 213.3C39.2999 214.5 36.3999 215.6 33.2999 216C31.0999 216.3 28.8999 216.4 26.5999 215.5ZM125.2 195C128.1 195.4 130.7 196.5 133.1 198.1C136 200 138.8 202.1 141.7 204.2C141.7 204.2 141.7 204.3 141.8 204.5C141.1 204.4 140.4 204.3 139.7 204.2C137.4 203.9 135.3 203.1 133.4 201.6C132.5 200.9 131.6 200.2 130.8 199.4C129.1 197.7 127.5 195.9 125.2 195Z" fill="#B0D0D2"/>
<path d="M104.5 204.4C104.7 204.2 104.9 204 105.2 203.8C109.5 201.1 112.9 197.3 115.9 193.3C120.1 187.9 122.9 181.7 125.4 175.4C126.6 172.5 127.4 169.5 128.4 166.6C128.4 166.5 128.4 166.4 128.3 166.2C128.1 166.6 128 167 127.8 167.5C125.5 174.2 122.9 180.7 119.5 186.9C116.4 192.6 112.4 197.5 107.5 201.7C105.2 203.7 102.5 205.1 99.5999 206.2C100.3 206 101 205.7 101.7 205.5C102.1 205.4 102.6 205.2 103.1 205.1C103.5 204.9 104 204.7 104.5 204.4Z" fill="#B0D0D2"/>
<path d="M112.1 178.5C111.2 180.4 110.4 182.2 109.5 184.1C107.5 188.2 105.4 192.2 102.4 195.7C98.4999 200.4 93.8999 204.2 88.0999 206.3C85.5999 207.2 82.9999 207.8 80.1999 207.8C79.8999 207.8 79.6999 207.8 79.3999 207.9C80.2999 208.2 81.1999 208.2 82.0999 208.1C89.4999 207.2 95.4999 203.6 100.6 198.3C104.2 194.6 106.9 190.3 109.1 185.6C110 183.8 110.8 181.9 111.6 180C111.8 179.5 112 179 112.1 178.5Z" fill="#B0D0D2"/>
<path d="M71.8998 203.9C71.2998 203.2 70.5998 202.5 69.9998 201.7C66.7998 197.9 64.1998 193.7 61.9998 189.3C59.6998 184.8 57.5998 180.2 55.9998 175.4C54.8998 172.1 53.7998 168.7 52.7998 165.4C52.6998 165.1 52.5998 164.8 52.2998 164.6C53.0998 167.2 53.8998 169.8 54.6998 172.5C56.8998 179.9 60.0998 186.8 63.7998 193.5C65.7998 197.1 68.1998 200.4 70.9998 203.3C71.2998 203.6 71.4998 203.8 71.7998 204C71.7998 203.9 71.7998 203.9 71.8998 203.9Z" fill="#B0D0D2"/>
<path d="M86.2 200.7C96.3 190.8 103.4 178.4 108.3 164.8C106.3 169 104.4 173.3 102.3 177.5C100.2 181.8 97.7 186 94.9 189.8C92 193.6 88.9 197.2 86.2 200.7Z" fill="#B0D0D2"/>
<path d="M104.5 204.4C104 204.7 103.5 204.9 103 205.2C102.8 205.5 102.6 205.7 102.4 206C105.2 205 108 203.9 110.9 203.4C113.9 202.9 116.8 202.4 119.5 202C116.7 201.9 113.7 202.6 110.3 203C112.5 201.7 116.9 201 125.8 200.5C119.2 200.1 112.8 200.9 106.8 203.7C106 203.9 105.3 204.1 104.5 204.4Z" fill="#B0D0D2"/>
<path d="M78.1998 148.9C77.0998 151.9 76.4998 155 75.8998 158.1C75.2998 161.5 74.7998 164.9 74.3998 168.3C73.7998 173.2 73.5998 178.2 73.8998 183.2C73.9998 185.4 74.3998 187.6 74.7998 189.8C74.6998 188.6 74.5998 187.4 74.4998 186.2C74.1998 183.3 73.9998 180.4 74.1998 177.5C74.4998 174.7 74.4998 171.8 74.7998 169C75.2998 165.1 75.7998 161.2 76.4998 157.3C76.9998 154.5 77.6998 151.7 78.1998 148.9Z" fill="#B0D0D2"/>
<path d="M66.0999 205.1C64.7999 204.6 63.5999 204 62.2999 203.5C57.1999 201.6 52 200.5 46.5 200.9C43.7 201.1 40.8 201.5 38 201.8C36.7 202 35.4 202.2 34.2 202.6C35.2 202.5 36.2999 202.3 37.2999 202.2C40.5999 201.9 43.9 201.4 47.2 201.3C53.1 201 58.7999 202.5 64.1999 204.8C64.6999 205 65.3 205.3 65.8 205.5C66 205.3 65.9999 205.2 66.0999 205.1Z" fill="#B0D0D2"/>
<path d="M66.6999 157C65.0999 171.2 66.9999 181.7 72.3999 192.3C70.1999 186.7 67.9999 181.1 67.1999 175.1C66.3999 169 66.2999 163.1 66.6999 157Z" fill="#B0D0D2"/>
<path d="M71.5999 206.5C62.0999 201.8 56.4999 193.8 52.8999 184.2C54.3999 189 56.4999 193.6 59.6999 197.6C62.7999 201.6 69.0999 206.4 71.5999 206.5Z" fill="#B0D0D2"/>
<path d="M102.3 150.5C96.8999 157.5 93.4999 165.5 91.0999 173.9C93.9999 165.8 97.4999 157.8 102.3 150.5Z" fill="#B0D0D2"/>
<path d="M72.4999 164.3C71.2999 174.7 71.6999 185 74.4999 195.1C72.0999 185 71.7999 174.7 72.4999 164.3Z" fill="#B0D0D2"/>
<path d="M127.8 146.4C127.4 149 127.2 151.6 126.7 154.1C126.2 156.7 125.4 159.3 124.7 161.9C124 164.4 123.1 166.9 122.3 169.4C125.7 162.1 127.9 154.6 128.3 146.6C128.1 146.5 127.9 146.5 127.8 146.4Z" fill="#B0D0D2"/>
<path d="M39.7999 194.6C33.6999 194.4 20.5 197.4 17.2 199.9C17.5 199.8 17.8 199.8 18.1 199.7C22.8 197.7 27.7999 196.5 32.7999 195.6C35.2999 195.2 37.7999 194.9 39.7999 194.6Z" fill="#B0D0D2"/>
<path d="M71.2 154.8C71.8 151.4 72.4 147.7 73 144.1C73.7 140.4 74.5 136.8 76.3 133.2C75.5 133.3 75.3 133.8 75.2 134.3C74.5 136.2 73.8 138.1 73.3 140.1C72.6 143.4 72 146.7 71.5 150C71.3 151.7 71.3 153.4 71.2 154.8Z" fill="#B0D0D2"/>
<path d="M58.0999 154.7C60.9999 162.1 63.3999 169.6 65.2999 177.3C65.2999 177.4 65.4999 177.5 65.5999 177.7C64.0999 169.6 61.4999 162 58.0999 154.7Z" fill="#B0D0D2"/>
<path d="M102.5 165C105.5 159.3 107.8 153.2 111.6 147.8C110.9 147.7 110.7 148.1 110.5 148.4C109.4 150.1 108.3 151.8 107.4 153.6C105.7 157.2 104.2 160.9 102.6 164.5C102.6 164.7 102.6 164.9 102.5 165Z" fill="#B0D0D2"/>
<path d="M78.2998 207.3C76.8998 203.7 77.1998 200 78.0998 196.4C78.5998 194.4 79.1998 192.4 79.8998 190.5C80.3998 189 81.0998 187.5 81.6998 186C81.7998 185.9 81.7998 185.7 81.7998 185.5C81.6998 185.5 81.6998 185.6 81.5998 185.6C79.8998 189.5 78.0998 193.4 77.2998 197.6C76.7998 200.2 76.6998 202.8 77.1998 205.5C77.3998 206.1 77.4998 206.9 78.2998 207.3Z" fill="#B0D0D2"/>
<path d="M82.2 167C84.5 158.5 86.1 149.8 85.9 140.9C85.5 149.7 84.3 158.4 82.2 167Z" fill="#B0D0D2"/>
<path d="M122.6 204C130.4 204.9 138.1 206.4 145.3 209.6C138.1 206 130.5 204.4 122.6 204Z" fill="#B0D0D2"/>
<path d="M89.7 147.4C91.1 141.2 91.3 134.6 90.4 132.9C90.3 133 90.2 133.1 90.2 133.2C90.1 137.1 90.1 141.1 90 145C90 145.7 89.8 146.5 89.7 147.4Z" fill="#B0D0D2"/>
<path d="M44.4998 198.8C50.3998 199.7 56.2998 200.1 61.6998 202.6C61.6998 202.5 61.7998 202.4 61.7998 202.3C61.2998 202.1 60.8998 201.8 60.3998 201.6C57.9998 200.5 55.4998 200 52.8998 199.6C50.3998 199.2 47.7998 199 45.2998 198.8C45.0998 198.8 44.8998 198.8 44.6998 198.8C44.5998 198.8 44.5998 198.8 44.4998 198.8C44.5998 198.8 44.5998 198.8 44.4998 198.8Z" fill="#B0D0D2"/>
<path d="M35.7 136.1C35.7 136.3 35.6 136.5 35.7 136.6C37.5 140.9 39.4 145.1 41.3 149.4C39.9 144.8 38.3 140.3 36 136.1C35.8 136.1 35.7 136.1 35.7 136.1Z" fill="#B0D0D2"/>
<path d="M86.2 171.8C83 177 81.2 182.9 79.2 188.6C79.5 187.9 79.7 187.2 80 186.5C80.3 185.8 80.7 185.1 81 184.4C82.3 181.2 83.6 177.9 84.9 174.7C85.3 173.7 85.8 172.7 86.2 171.8Z" fill="#B0D0D2"/>
<path d="M15.7 213.3C16.4 213.4 17.2 213.7 17.9 213.6C21.4 213.1 24.8 212.5 28.1 211.3C28.1 211.3 28.1 211.2 28.2 211.2C24 211.8 20 213.3 15.8 213C15.8 213.1 15.8 213.2 15.7 213.3Z" fill="#B0D0D2"/>
<path d="M124.9 156.6C125.9 153.3 126.6 150 126.6 146.6C126.5 146.6 126.4 146.6 126.3 146.5C126.1 148.1 125.8 149.8 125.6 151.4C125.4 153.2 125.2 154.9 124.9 156.6Z" fill="#B0D0D2"/>
<path d="M95.6999 136.5C95.4999 139.7 95.2999 142.7 95.0999 145.4C95.8999 143.6 96.3999 138 95.6999 136.5Z" fill="#B0D0D2"/>
<path d="M56.7998 172.5C57.7998 176.6 59.2998 180.5 61.1998 184.3C59.6998 180.4 58.1998 176.4 56.7998 172.5Z" fill="#B0D0D2"/>
<path d="M12.5999 211.7C13.5999 212.4 17.4999 212.2 21.3999 211.2C18.3999 211.4 15.3999 211.6 12.5999 211.7Z" fill="#B0D0D2"/>
<path d="M105.3 155C106.7 152.9 108 150.7 109.3 148.6C108.4 148.8 106.1 152.3 105.3 155Z" fill="#B0D0D2"/>
<path d="M91.8999 134.3C91.7999 136.7 91.6999 139.2 91.5999 141.7C92.1999 139.3 92.2999 136.8 92.1999 134.3C92.0999 134.3 91.9999 134.3 91.8999 134.3Z" fill="#B0D0D2"/>
<path d="M37.4998 136.9C38.4998 139 39.4998 141.1 40.5998 143.3C40.3998 141.8 38.6998 137.9 37.4998 136.9Z" fill="#B0D0D2"/>
<path d="M1.19995 261.2C1.99995 261.1 2.69995 261.1 3.29995 261C6.19995 260.5 9.09995 259.8 12 259.4C15.3 259 18.7 258.5 22.1 258.8C26.8 259.2 31.2999 260.2 35.7999 261.5C41.1999 263.1 46.5 265 51.5 267.7C56.1 270.1 60.8 272.4 64.9 275.6C69.5 279.2 72.7 283.7 74.1 289.4C74.2 289.8 74.3 290.2 74.3 290.7C74.4 291.6 74.5 292.5 74.6 293.4C75.1 292.6 75 291.7 74.9 290.8C74.7 288.9 74.2 287.2 73.4 285.4C71.3 280.7 68.4999 276.3 65.0999 272.4C63.8999 271 62.9 269.4 61.7 268C57.8 263.1 53.7 258.4 47.9 255.6C45 254.2 41.9 253.6 38.7 253.4C35 253.2 31.2 253.3 27.6 253.9C21.5 255 15.4 256.2 9.29995 257.6C6.79995 258.2 4.49995 259.3 2.09995 260.1C1.79995 260.3 1.29995 260.4 1.19995 261.2ZM66.5 274.8C66.4 274.9 66.4 274.9 66.3 275C65.3 274.1 64.2999 273.2 63.2999 272.2C62.1999 271.1 61.1 269.9 60 268.7C58.8 267.3 57.6999 265.8 56.2999 264.5C51.0999 259.8 45.0999 256.6 38.0999 255.3C35.6999 254.9 33.3 254.6 30.9 255C26.7 255.6 22.4999 256.4 18.4 257.2C14.8 257.9 11.3 258.7 7.79995 259.5C6.69995 259.7 5.59995 259.9 4.49995 260.1C4.49995 260 4.49995 259.9 4.39995 259.8C6.29995 259.2 8.19995 258.4 10.2 258C14.8 257 19.4 256.1 24.1 255.2C29.4 254.2 34.8 253.5 40.2 254.1C42.7 254.4 45.1999 254.9 47.5999 256C53.2999 258.7 57.2999 263.2 61.0999 268C62.5999 269.9 64 271.8 65.5 273.6C65.8 274 66.2 274.4 66.5 274.8ZM58.7 270.7C47.7 264.4 36.1 260 23.5 258.2C37.4 256.2 49.1 260.6 58.7 270.7ZM18 258.1C18 258 18 258 18 257.9C18.5 257.8 19.1 257.6 19.6 257.5C22.3 257 25.0999 256.6 27.7999 256C31.7999 255.2 35.6999 255.2 39.5999 256.1C42.4999 256.8 45.3 257.9 48 259.3C52.1 261.4 55.7 264.2 58.7 267.6C60.3 269.5 62.1 271.3 63.7 273.2C63.8 273.3 63.7999 273.4 63.7999 273.6C63.5999 273.5 63.5 273.4 63.4 273.4C61.4 271.6 59.3999 269.8 57.2999 268.1C55.4999 266.6 53.6999 265.1 51.7999 263.8C45.0999 259.4 37.7999 257 29.7999 257C26.9999 257 24.3 257.3 21.5 257.7C20.3 257.9 19.1 258 18 258.1Z" fill="#B0D0D2"/>
<path d="M247.8 336.1C247.9 335.6 248 335.2 248 334.8C248.2 329.9 249.7 302.9 249 298.1C248.8 296.3 248.3 294.5 248.1 292.7C247.7 289.1 247.9 285.5 248.4 282C248.7 279.7 248.9 277.3 249.2 275C249.1 275 249 275 248.8 274.9C248.6 275.5 248.4 276.2 248.3 276.8C247.9 280.8 247.3 284.8 247.2 288.8C247.1 291.4 247.6 294 247.9 296.7C248 298.2 248.1 299.6 248.3 301.1C248.9 305.2 247.5 331.4 247.3 335.6C247.3 335.7 247.3 335.9 247.4 336C247.5 335.9 247.6 335.9 247.8 336.1Z" fill="#B0D0D2"/>
<path d="M214.3 251.2C212.9 251 211.6 251 210.2 250.7C208 250.2 205.8 249.5 203.6 248.9C201.2 248.2 198.8 247.4 196.2 247.7C195.8 247.8 195.3 247.8 194.9 248C192.9 248.6 192.1 250 192.4 252.1C192.7 254 193.4 255.7 194.7 257.1C196.1 258.6 197.5 260.1 199.1 261.3C203.7 265 209.1 267.1 214.8 268.4C215.7 268.6 216.6 268.8 217.7 269.1C217.4 269.4 217.2 269.6 217 269.8C214.1 272 214.3 275.3 216.2 277.9C217.6 279.7 219.4 280.9 221.6 281.4C224.3 282 227 282.5 229.8 282.8C231.6 283 233.3 283.4 234.9 284.1C236.2 284.6 237.5 285 238.9 285.3C239.9 285.6 241 285.4 242 285C245.5 283.8 247.8 281.5 248.9 278C250 274.4 250.4 270.8 250 267.1C250 266.9 250 266.7 250 266.5C250 266.4 250.1 266.4 250.2 266.2C250.3 266.3 250.5 266.3 250.6 266.4C255.8 269.9 261.5 271.8 267.7 272.3C270.2 272.5 272.7 272.4 275.2 272.6C278 272.8 280.9 273.3 283.7 273.6C285.6 273.8 287.4 273.9 289.3 274C290.6 274 291.8 273.8 292.9 273.1C294.1 272.3 294.4 271.3 293.4 270.1C292.8 269.4 292.1 268.8 291.3 268.3C289 267 286.6 265.6 284.2 264.5C282.6 263.7 280.8 263.2 279.1 262.5C278.8 262.4 278.5 262.3 278 262.1C281 261.8 283.7 261.9 286.4 262.2C289.7 262.6 293 263.1 296.3 263.5C297.8 263.7 299.4 263.9 300.9 263.4C301.1 263.3 301.2 263.3 301.4 263.3C302.1 263 302.9 262.7 303 261.8C303.1 260.8 302.4 260.4 301.7 260.1C300.6 259.6 299.5 259.1 298.3 258.9C294.5 258 290.9 256.5 287.5 254.6C284.7 253 281.8 251.7 278.8 250.8C276.8 250.2 274.8 249.8 272.7 249.3C272.7 248.9 273.3 248.7 273.6 248.5C276.2 246.9 278.9 245.5 281.4 243.8C285.9 240.7 290.6 237.8 294.6 234.2C296.5 232.5 298.3 230.5 299.6 228.3C300.5 226.9 301 225.3 301.1 223.6C301.1 223 301.1 222.3 300.9 221.7C300.6 220.4 299.8 219.8 298.4 219.7C296.9 219.7 295.6 220 294.2 220.6C292.8 221.2 291.3 221.8 289.9 222.5C286.8 223.9 283.6 224.5 280.3 225.2C278.7 225.5 277.2 225.8 275.6 226.1C275.3 226.2 275 226.2 274.5 226.2C274.7 225.7 274.7 225.3 274.9 224.9C276.8 221 276.8 216.9 276 212.7C275.5 209.8 275.1 206.8 274.5 203.9C274.3 202.7 274 201.4 273.5 200.3C272.4 197.5 269.9 196.3 267 197.2C262.5 198.5 258.9 201.2 256.1 204.8C255.2 206 254.4 207.2 253.6 208.4C253.4 208.7 253.1 209.1 252.8 209.7C251.9 208.1 251.1 206.6 250.3 205.2C249.7 204.2 249.1 203.2 248.4 202.3C247.7 201.4 246.8 201 245.7 201.1C244.2 201.2 242.9 201.7 241.8 202.6C238.5 205.3 236.2 208.7 234.9 212.8C234.8 213.2 234.6 213.6 234.4 214.2C234.1 213.8 233.8 213.5 233.6 213.2C232.1 210.9 230.3 209 228.2 207.2C226.8 206 225.4 204.8 224 203.5C222.5 202.2 220.9 201.3 219 200.8C216.2 200.2 213.9 201.2 212.7 203.9C211.5 206.4 211.2 209.1 211.2 211.9C211.2 213.9 211.1 216 211.1 218C211.1 219.6 211.1 221.1 211.1 222.7C211.1 223.2 211.1 223.7 211 224.4C208.9 223.9 206.9 223.5 205.1 222.6C203.2 221.7 201.3 220.8 199.2 220.3C195.8 219.6 193 222.8 193.3 225.9C193.5 227.2 193.9 228.3 194.8 229.3C195.8 230.5 196.8 231.7 197.9 232.8C199 233.9 200.1 235 201.2 236.2C203.9 239.2 206.5 242.2 209.2 245.2C210.7 246.9 212.3 248.5 213.8 250.2C214 250.4 214.2 250.7 214.4 250.9C214.4 251 214.3 251.1 214.3 251.2ZM245.8 261.4C245.6 260.4 245.3 259.4 245.2 258.4C245.1 257.3 245.2 256.1 245.3 255C245.5 251.5 247.3 248.5 248.9 245.5C250.1 243.4 251.6 241.4 253.4 239.8C255.6 237.8 258 236.2 260.6 234.8C262.9 233.6 265.3 232.8 267.9 232.5C271 232.2 274.2 232 277.4 231.8C282.1 231.4 286.2 229.6 289.7 226.5C291.1 225.3 292.5 223.9 294 222.7C294.9 222 295.9 221.3 296.9 220.7C298.8 219.8 300.3 220.7 300.4 222.8C300.5 224.5 299.9 226.1 299.1 227.6C297.9 229.7 296.3 231.6 294.5 233.2C290.2 237.2 285.2 240.4 280.3 243.4C274.7 246.9 269.2 250.3 264.1 254.5C262.1 256.2 259.7 257.6 257.4 259C255.5 260.2 253.4 261 251.1 261.5C249.5 262 247.8 262.2 245.8 261.4ZM244.9 261.8C244.9 261.9 244.9 262.1 244.8 262.2C243.5 262.5 242.1 262.9 240.8 263.1C237.9 263.6 235.1 263 232.4 261.9C227.5 260 223.1 257.4 219.2 254C215.7 251 212.5 247.6 209.4 244.1C207.4 241.8 205.3 239.7 203.5 237.3C202.4 235.8 200.9 234.6 199.5 233.2C198.3 231.9 197.1 230.7 196 229.4C195.4 228.6 194.9 227.7 194.5 226.8C193.8 224.9 194.5 222.8 196.3 221.7C197.9 220.6 199.5 220.8 201.2 222.2C201.7 222.6 202.2 223 202.6 223.5C203.7 224.7 204.7 225.9 205.8 227C208.4 229.6 211.6 231 215.1 232C217.3 232.6 219.5 233.1 221.7 233.6C224.9 234.4 228.1 235.5 231 237.3C232.9 238.5 233.9 240.3 234.2 242.4C235.5 249.3 238.9 255 243.3 260.3C243.8 260.8 244.4 261.3 244.9 261.8ZM244.5 259.9C244.3 259.9 244.2 259.9 244.1 259.8C243.8 259.6 243.6 259.3 243.4 259.1C241 256.3 239 253.1 237.7 249.7C237.3 248.6 237.1 247.4 236.9 246.2C236.5 243.5 237.1 240.9 237.7 238.4C239 232.7 239.2 227.1 237.7 221.4C237.2 219.6 236.8 217.7 236.5 215.8C236.2 213.6 236.2 211.5 237.3 209.5C238.6 207 240.4 204.9 242.6 203.2C243.1 202.8 243.7 202.4 244.3 202.2C246.6 201.5 247.5 201.8 248.6 203.8C249.5 205.3 250.4 206.9 251.3 208.4C254.2 213.3 256.4 218.4 256.9 224.2C257.2 227.8 257 231.4 256.1 234.9C256 235.4 255.6 235.9 255.3 236.3C253.3 238.2 251.4 240.2 250 242.6C248.9 244.4 247.6 246.2 246.6 248.1C245 251.4 244.2 255 244.6 258.7C244.6 259.1 244.5 259.5 244.5 259.9ZM253.5 210.7C256.4 205 260.4 200.7 266.3 198.3C267.2 198 268.1 197.8 269.1 197.8C270.9 197.7 272.1 198.8 272.3 200.7C272.4 201.6 272.4 202.6 272.3 203.5C272 205.4 271.6 207.3 271.3 209.1C270.9 211.3 270.6 213.5 271.3 215.7C271.7 217 272.3 218.2 272.9 219.4C273.6 220.9 274.2 222.4 274.1 224.1C274.1 225.8 273.4 226.7 271.8 227.2C270.3 227.7 268.7 228.1 267.2 228.6C263.9 229.8 261 231.6 258.3 233.6C257.9 233.9 257.6 234.1 257 234.5C258.6 226 257.6 218.1 253.5 210.7ZM216.7 226.3C216.5 224.9 216.1 223.4 216 222C215.8 218.8 215.2 215.7 214 212.7C213.4 211.2 213.1 209.6 212.9 208.1C212.6 206.3 213.3 204.7 214.4 203.2C215.4 201.8 216.8 201.3 218.5 201.6C220.4 201.9 221.9 202.8 223.4 204C225.2 205.6 227.1 207.2 228.9 208.8C230.9 210.5 232.5 212.6 233.8 214.8C234.2 215.5 234.3 216.1 234.2 216.9C234 218.5 233.9 220.1 233.8 221.7C233.7 223.7 233.8 225.7 233.7 227.7C233.6 230.9 233.5 234.1 233.4 237.3C233.4 237.5 233.3 237.7 233.3 238.1C228.9 232.3 223.4 228.6 216.7 226.3ZM248.4 263.3C248.5 263.6 248.6 264 248.7 264.3C249.3 267.1 249.4 270 249.1 272.8C248.9 275.1 248.3 277.3 247.3 279.4C246.6 280.8 245.6 281.8 244.1 282.3C241.5 283.2 240.2 283 238.3 280.9C238 280.6 237.8 280.3 237.5 280C236.6 279 235.8 277.9 234.8 277C232.4 274.8 229.7 273.5 226.4 274C224.5 274.3 222.7 274.8 220.8 275.2C219.8 275.4 218.8 275.6 217.9 275.7C216.4 275.9 215.7 275.2 215.7 273.7C215.7 271.4 218.2 269.1 220.6 269.3C223.6 269.5 226.6 269.4 229.7 269C235.3 268.2 240.5 266.4 245.2 263.3C246.2 262.6 247.2 262.5 248.4 263.3ZM242.4 263.7C242.4 263.8 242.4 263.9 242.5 264C242.1 264.2 241.8 264.5 241.4 264.6C239.4 265.4 237.3 266.3 235.3 267.1C234 267.6 232.7 267.7 231.3 267.6C230.3 267.5 229.2 267.4 228.2 267.3C222.8 266.5 217.7 265 213.1 262C210 260 207 258.1 203.5 256.8C202.4 256.4 201.3 256 200.2 255.5C198.2 254.7 196.3 253.7 194.8 252.2C194.5 251.9 194.2 251.7 194 251.3C193.3 250.3 193.5 249.3 194.7 248.9C195.3 248.6 196 248.5 196.7 248.5C199.2 248.3 201.6 249.1 203.9 249.9C207.2 251 210.5 251.9 213.9 252C215.1 252 216 252.4 216.9 253.2C221.4 257.5 226.5 260.7 232.3 262.9C234.8 263.9 237.5 264.3 240.2 264.1C241 264 241.7 263.8 242.4 263.7ZM302.4 261.7C301.8 262.7 300.8 262.9 299.9 262.9C298.1 262.9 296.3 262.7 294.5 262.5C292 262.2 289.4 261.7 286.9 261.5C283.8 261.3 280.6 261.3 277.4 261.2C272.8 261 268.3 261.6 263.8 262.1C260.3 262.5 256.7 262.9 253.2 262.8C252.6 262.8 252 262.7 251.1 262.6C251.4 262.4 251.5 262.3 251.6 262.3C255.1 261.4 258.3 259.8 261.2 257.7C264.2 255.6 267 253.3 269.9 251.1C271.1 250.2 272.4 249.9 273.7 250.5C275.1 251.1 276.4 251.9 277.6 252.8C278.8 253.7 280 254.7 281.1 255.7C284.9 258.8 289.2 260.3 294.2 260.3C296.2 260.3 298.3 260.5 300.3 260.6C301 260.7 301.9 260.8 302.4 261.7ZM249.5 263.6C249.7 263.6 249.8 263.5 249.9 263.5C250.2 263.5 250.6 263.5 250.9 263.6C254.7 264.1 258.5 263.7 262.3 263.3C265.1 263 267.8 262.7 270.6 262.8C272.1 262.9 273.5 263 275 263C277.6 263 280 263.5 282.3 264.6C285.2 266.1 288.1 267.7 291 269.3C291.6 269.6 292.1 270.1 292.5 270.5C292.8 270.8 293 271.3 293.2 271.6C292.5 272.9 291.4 273.1 290.2 272.9C288.3 272.7 286.5 272.1 284.7 271.3C282.6 270.3 280.5 269.3 278.4 268.3C273.9 266.1 269.2 265.8 264.3 266.8C262 267.3 259.6 267.6 257.2 267.8C254.6 268 252.3 267.1 250.2 265.4C249.8 264.9 249.4 264.4 249.5 263.6ZM228.9 268.1C228.9 268.2 228.9 268.3 228.8 268.3C228.6 268.3 228.5 268.4 228.3 268.4C228 268.4 227.6 268.5 227.3 268.5C222.8 268.9 218.3 268.5 213.9 267.3C208.4 265.8 203.2 263.7 198.8 260C197.6 259 196.4 257.9 195.4 256.6C194.6 255.6 194 254.3 193.4 253.1C193.3 252.8 193.3 252.5 193.3 252.2C195.8 254.6 198.9 255.8 202 257C205.3 258.2 208.4 259.7 211.2 261.7C215.3 264.6 220 266.4 224.9 267.4C226.3 267.7 227.6 267.9 228.9 268.1ZM242.9 283.5C242.7 283.7 242.6 283.8 242.6 283.8C242.5 283.9 242.4 283.9 242.3 284C240.4 284.9 238.5 284.4 236.6 283.8C234.3 283.1 232 282.5 229.7 282C227.5 281.5 225.3 281.3 223.2 280.9C221.3 280.5 219.5 279.7 218 278.4C217.5 278 216.9 277.5 216.8 276.8C217.5 276.7 218.2 276.7 218.9 276.5C221.2 276 223.5 275.6 225.8 275.1C227.9 274.6 230 274.8 231.8 276C233 276.7 234.1 277.6 235.1 278.5C236.2 279.5 237.1 280.7 238.1 281.8C239 282.8 240.1 283.4 241.5 283.4C241.8 283.4 242.3 283.5 242.9 283.5ZM293.1 222.1C293.1 222.2 293.2 222.2 293.2 222.3C293.1 222.4 293 222.6 292.9 222.7C291.1 224.2 289.4 225.8 287.6 227.2C284.9 229.3 281.8 230.5 278.4 230.9C275.7 231.2 273 231.4 270.2 231.5C266.1 231.7 262.3 232.7 258.9 234.9C258.6 235.1 258.2 235.3 257.8 235.5C257.8 235.2 258 235 258.1 234.9C260.7 232.9 263.4 231.1 266.4 229.9C270.7 228.2 275.1 227 279.7 226.2C283.9 225.5 288 224.6 291.9 222.6C292.3 222.4 292.7 222.2 293.1 222.1ZM256.5 268.6C256.7 268.5 256.8 268.4 256.9 268.4C259.5 268.4 262 267.9 264.6 267.4C266.6 267.1 268.6 266.9 270.7 266.9C273.4 266.9 275.9 267.8 278.3 268.9C281.3 270.2 284.2 271.6 287.2 272.9C287.3 272.9 287.3 273.1 287.4 273.2C287.2 273.2 287.1 273.3 286.9 273.3C286.2 273.2 285.5 273.2 284.8 273.1C279.9 272.3 275 271.8 270.1 271.7C265.7 271.7 261.4 270.8 257.3 269.1C257 269 256.8 268.8 256.5 268.6ZM203.2 222.5C203.7 222.7 204.1 222.9 204.6 223.1C205.9 223.6 207.1 224.1 208.4 224.5C211.4 225.5 214.4 226.4 217.4 227.4C221.9 229 225.8 231.4 229.3 234.7C229.6 235 229.9 235.3 230.2 235.7C229.9 235.8 229.7 235.7 229.5 235.7C227.6 235 225.8 234.2 223.9 233.6C221.5 232.9 219.1 232.3 216.6 231.7C210.7 230.2 206.7 227.6 203.2 222.5ZM235.3 215.3C235.5 215.5 235.6 215.5 235.6 215.6C236.1 218.1 236.7 220.5 237.2 223C237.9 226.4 238.2 229.8 237.7 233.2C237.3 235.9 236.8 238.6 236.3 241.3C236.1 242.5 236 243.6 235.8 244.9C235.6 244.8 235.6 244.8 235.6 244.8C234.6 241.3 234.1 237.8 234.2 234.2C234.3 230.8 234.4 227.5 234.6 224.1C234.7 221.7 234.8 219.3 235 217C235 216.3 235.2 215.8 235.3 215.3ZM275 222.5C274.3 220.8 273.7 219.3 273 217.9C271.7 215.3 271.4 212.6 271.9 209.8C272.3 207.5 272.6 205.3 273 203C273 202.8 273.2 202.6 273.4 202.1C273.5 202.8 273.6 203.1 273.7 203.5C274.2 206.5 274.7 209.5 275.2 212.5C275.5 214.2 275.7 215.9 275.8 217.7C276 219.2 275.7 220.8 275 222.5ZM296.7 259.4C293.3 259.6 290 259.6 286.8 258.3C282.9 256.7 279.9 253.8 276.6 251.2C276.8 251.1 276.9 251.1 277 251.1C277.4 251.2 277.8 251.3 278.1 251.4C281 252.4 283.9 253.5 286.6 255C289.7 256.7 292.8 258.3 296.2 259.2C296.4 259.2 296.5 259.3 296.7 259.4ZM212.3 211.1C215.1 215.6 215 220.8 215.8 225.9C214.5 225.5 213.4 225.1 212.2 224.7C211.7 220.1 212.4 215.6 212.3 211.1Z" fill="#B0D0D2"/>
<path d="M204.7 234.9C205 235.5 205.2 236.1 205.6 236.6C208.9 241.2 212.3 245.9 215.7 250.5C217.5 252.9 219.7 255 222.1 256.8C222.3 256.9 222.4 257 222.7 257C222.5 256.8 222.4 256.7 222.2 256.5C219.4 254.2 217 251.6 214.8 248.7C212 244.8 209.2 240.9 206.4 237C205.9 236.3 205.5 235.6 205.1 234.9C204.9 234.8 204.8 234.8 204.7 234.9Z" fill="#B0D0D2"/>
<path d="M248.3 238.9C248.8 231.1 249.1 223.3 248.2 215.5C248.2 218.1 247.9 220.8 248.2 223.4C248.6 227.3 248.4 231.2 248.3 235C248.2 236.3 248.3 237.6 248.3 238.9Z" fill="#B0D0D2"/>
<path d="M259.9 227.9C263 221.8 266.3 215.8 268.4 209C265.5 215.4 262.7 221.7 259.9 227.9Z" fill="#B0D0D2"/>
<path d="M218.8 219.2C217.1 213.7 215.3 208.2 214.8 202.4C214.9 208.3 216.6 213.8 218.8 219.2Z" fill="#B0D0D2"/>
<path d="M252.7 226.6C253.7 218.7 253.2 210.5 251.6 208.2C252.4 211.2 252.8 214.3 252.8 217.4C252.8 220.4 252.7 223.5 252.7 226.6Z" fill="#B0D0D2"/>
<path d="M245.2 247.4C244.3 243.9 243.6 240.3 243.5 236.7C243.4 233.1 243.3 229.4 243.2 226C243 233.1 242.8 240.4 245.2 247.4Z" fill="#B0D0D2"/>
<path d="M268.8 242.8C270.1 241.6 271.4 240.3 272.8 239.1C274.2 237.9 275.7 236.8 277.2 235.6C278.6 234.5 280.1 233.4 281.5 232.2C282.1 231.7 282.6 231.2 283.1 230.6C278.1 234.5 272.9 238 268.8 242.8Z" fill="#B0D0D2"/>
<path d="M258.5 210.1C261 205.7 263.6 201.3 267.3 197.6C265.1 198.5 260.8 204.6 258.5 210.1Z" fill="#B0D0D2"/>
<path d="M270 247.6C265.6 251.4 261.3 255.2 256.9 259C261.7 255.7 266 251.9 270 247.6Z" fill="#B0D0D2"/>
<path d="M196.4 221C199.5 224.1 201.8 227.9 204.7 231.2C202.2 227.5 199.9 223.8 196.4 221Z" fill="#B0D0D2"/>
<path d="M300.2 221.7C298 225.9 294.6 229.1 291.3 232.5C293.8 231.4 299.6 224.4 300.2 221.7Z" fill="#B0D0D2"/>
<path d="M224.7 204.5C226.8 208.3 227.9 212.4 229.5 216.4C228.4 212.2 227.3 208.1 224.7 204.5Z" fill="#B0D0D2"/>
<path d="M262.1 240.4C265.6 237.7 269.4 234.8 273.2 231.9C271.8 232 265.7 236.6 262.1 240.4Z" fill="#B0D0D2"/>
<path d="M265.5 225.4C267.9 221.5 270.1 217.4 271 212.8C269.6 217.1 267.6 221.2 265.5 225.4Z" fill="#B0D0D2"/>
<path d="M237.3 238.6C237.4 243 238.8 246.9 241.2 250.5C240.4 248.6 239.5 246.7 238.8 244.7C238.2 242.7 237.8 240.6 237.3 238.6Z" fill="#B0D0D2"/>
<path d="M218.5 241.1C216.3 237.5 214.3 234 212.2 230.5C212.1 231.7 216.9 239.5 218.5 241.1Z" fill="#B0D0D2"/>
<path d="M276.8 264.5C281 265.7 285.2 266.3 289.3 268.4C289 267.7 288.5 267.5 288.1 267.3C286.6 266.8 285.1 266.3 283.5 265.9C281.8 265.4 280.1 265.1 278.3 264.7C277.9 264.5 277.4 264.5 276.8 264.5Z" fill="#B0D0D2"/>
<path d="M272.2 257.8C268.4 259.8 264.6 261.6 260.2 262.7C262.2 263.1 269.3 260.2 272.2 257.8Z" fill="#B0D0D2"/>
<path d="M271.8 261.6C276.3 261.1 280.9 260.6 284.8 258C282.7 258.7 280.6 259.6 278.5 260.2C276.3 260.8 274 261.1 271.8 261.6Z" fill="#B0D0D2"/>
<path d="M227 260.3C224.7 260.3 222.5 260.5 220.4 260.4C218.2 260.4 216.1 260.2 214.8 260.1C217.5 260.9 224.6 261.3 227 260.3Z" fill="#B0D0D2"/>
<path d="M203.8 253.1C200.5 251.8 197.3 250.6 194 249.3C195.3 250.4 198.5 251.7 203.8 253.1Z" fill="#B0D0D2"/>
<path d="M247.9 262.8C247.8 266.7 247.1 270.4 245.6 274C247.3 270.5 248.3 266.8 247.9 262.8Z" fill="#B0D0D2"/>
<path d="M268.9 197.7C266.4 199.6 264.7 202.2 263.2 204.9C265.1 202.5 267 200.1 268.9 197.7Z" fill="#B0D0D2"/>
<path d="M263 265.7C260.2 264.9 257.3 264.1 254.6 263.3C254.9 263.8 255 263.9 257 264.5C258 264.8 259 265.1 260 265.3C261 265.5 262 265.6 263 265.7Z" fill="#B0D0D2"/>
<path d="M240.1 263.4C236.8 263 233.9 261.6 231 259.7C232.3 261.6 236.6 263.3 240.1 263.4Z" fill="#B0D0D2"/>
<path d="M216.9 263.8C220.2 264.9 223.5 265.3 226.9 264.5C223.5 265.1 220.3 264.5 216.9 263.8Z" fill="#B0D0D2"/>
<path d="M239.5 206.2C238.6 209.5 238.4 212.9 238.5 216.2C238.9 212.9 239.2 209.5 239.5 206.2Z" fill="#B0D0D2"/>
<path d="M297.8 260.5C295 261.5 292.1 261.7 289.3 262.3C292.2 262.1 295.2 261.9 297.8 260.5Z" fill="#B0D0D2"/>
<path d="M262.1 219.4C260.8 222.4 259.6 225.3 258.3 228.3C258.4 228.3 258.4 228.4 258.5 228.4C259.8 225.5 261.1 222.5 262.4 219.6C262.2 219.5 262.1 219.5 262.1 219.4Z" fill="#B0D0D2"/>
<path d="M223.9 222.5C222.7 219.4 221.6 216.4 220.6 213.7C220.7 215.3 222.6 220.6 223.9 222.5Z" fill="#B0D0D2"/>
<path d="M230.4 240.7C228.8 238.7 227.8 236.3 226 234.4C225.9 234.4 225.9 234.5 225.8 234.5C227.2 236.6 228.7 238.7 230.1 240.8C230.2 240.9 230.3 240.8 230.4 240.7Z" fill="#B0D0D2"/>
<path d="M240.6 265.1C240.2 265.7 239.7 266.3 239.3 266.9C238.2 268.6 237.2 270.2 236.3 272C237.8 269.7 239.3 267.5 240.8 265.2C240.8 265.2 240.7 265.2 240.6 265.1Z" fill="#B0D0D2"/>
<path d="M235.4 277.9C236.4 275.6 237.4 273.3 238.4 271.1C237.4 272.2 235.4 276.5 235.4 277.9Z" fill="#B0D0D2"/>
<path d="M225.6 270.4C223.8 271.7 221.7 274.3 221.2 275.7L221.3 275.8H221.4C222.8 274 224.1 272.3 225.6 270.4Z" fill="#B0D0D2"/>
<path d="M251.5 263.8C253.4 265.1 255.5 266 257.8 266.4C255.7 265.4 253.7 264.5 251.6 263.5C251.5 263.6 251.5 263.7 251.5 263.8Z" fill="#B0D0D2"/>
<path d="M213.5 231.3C214.7 233.1 215.9 235 217.1 236.8C217.1 236 214.7 232.1 213.7 231.1C213.6 231.2 213.5 231.2 213.5 231.3Z" fill="#B0D0D2"/>
<path d="M253.7 213.3C253.9 215.9 254.1 218.3 254.2 220.5C254.7 219.2 254.5 214.9 253.7 213.3Z" fill="#B0D0D2"/>
<path d="M249.3 253.6C250.5 251.4 251.8 249.1 253 246.8C251.4 248.8 250.2 251.1 249.3 253.6Z" fill="#B0D0D2"/>
<path d="M271.1 255.7C273.2 254.7 275.2 253.7 276.8 251.9C274.9 253.2 273 254.5 271.1 255.7Z" fill="#B0D0D2"/>
<path d="M219.1 259.5C220.8 259.6 222.4 259.7 224.1 259.7C224.6 259.7 225.2 259.5 225.7 259.5C225.7 259.4 225.7 259.3 225.7 259.2C225 259.3 224.3 259.3 223.7 259.4C223 259.4 222.2 259.5 221.5 259.5C220.7 259.5 220 259.4 219.2 259.4C219.1 259.4 219.1 259.4 219.1 259.5Z" fill="#B0D0D2"/>
<path d="M239.6 259.9C237.9 258.8 236.1 257.6 234.4 256.4C235.1 257.4 238.1 259.4 239.6 259.9Z" fill="#B0D0D2"/>
<path d="M229.6 211.4C228.8 209.7 228.1 208.1 227.3 206.4C227.2 206.5 227.1 206.5 227 206.6C227.8 208.3 228.6 209.9 229.4 211.6C229.4 211.5 229.5 211.4 229.6 211.4Z" fill="#B0D0D2"/>
<path d="M299.3 220.5C298.3 222 297.3 223.4 296.3 224.9C297.6 223.7 298.7 222.3 299.3 220.5Z" fill="#B0D0D2"/>
<path d="M199.6 250.7C198.3 249.8 196 248.9 195.1 249.1C196.6 249.7 198.1 250.2 199.6 250.7Z" fill="#B0D0D2"/>
<path d="M227 272C228.1 270.9 229.1 270 230.2 268.9C229.2 269.1 227.9 270.3 227 272Z" fill="#B0D0D2"/>
<path d="M246.8 262.8C246.4 264.2 245.9 265.5 245.4 267.2C246.6 265.7 246.6 264.2 246.8 262.8Z" fill="#B0D0D2"/>
<path d="M244.8 201.6C244.7 203.2 244.6 204.8 244.6 206.4C244.8 204.8 245 203.2 245.2 201.7C245.1 201.6 244.9 201.6 244.8 201.6Z" fill="#B0D0D2"/>
<path d="M275.6 231.5C274.4 232.4 273.2 233.4 272 234.3C272 234.4 272.1 234.4 272.1 234.5C272.7 234.1 273.3 233.6 274 233.2C274.6 232.8 275.2 232.3 275.8 231.9C275.7 231.7 275.7 231.6 275.6 231.5Z" fill="#B0D0D2"/>
<path d="M282.9 256.9C281.7 257.5 280.4 258.1 279.2 258.8C280.6 258.4 281.9 258 283.1 257.2C283 257.1 283 257 282.9 256.9Z" fill="#B0D0D2"/>
<path d="M273 247.6C272 248.4 271.1 249.3 270.1 250.1C270.1 250.2 270.2 250.2 270.2 250.3C271.2 249.5 272.2 248.6 273.1 247.8C273.1 247.7 273 247.7 273 247.6Z" fill="#B0D0D2"/>
<path d="M245.1 249.8C244.6 248.9 244.1 248 243.5 247C243.4 247 243.4 247.1 243.3 247.1C243.8 248 244.3 249 244.9 249.9C245 249.9 245.1 249.9 245.1 249.8Z" fill="#B0D0D2"/>
<path d="M274 247.1C274.6 246.6 275.2 246.1 275.9 245.6C275.8 245.5 275.8 245.5 275.7 245.4C275.1 245.9 274.4 246.4 273.8 247C273.9 247 273.9 247.1 274 247.1Z" fill="#B0D0D2"/>
<path d="M203.1 232.3C203.5 232.9 204 233.6 204.4 234.2C204.5 234.1 204.6 234.1 204.7 234C204.2 233.4 203.8 232.8 203.3 232.2C203.2 232.2 203.2 232.2 203.1 232.3Z" fill="#B0D0D2"/>
<path d="M323.7 254.4C323.2 254.7 322.7 255 322.4 255.2C311.8 263.3 300.2 269.9 288.5 276.2C282.4 279.5 276.3 282.6 270.3 286C264.8 289.1 259.7 292.8 255.8 297.9C253.3 301.2 250.8 304.7 249.3 308.6C249 309.3 248.6 310 248.9 311C249.1 310.5 249.3 310.2 249.5 309.9C250.5 307.4 252.2 305.4 253.9 303.3C256.3 300.5 259.5 298.6 262.8 297.2C267.4 295.2 272.1 293.4 276.7 291.5C279.9 290.2 283 288.9 286.1 287.5C295.3 283.4 303.5 277.6 310.9 270.8C315.5 266.6 319.2 261.6 323 256.7C323.3 256.3 323.6 255.8 323.8 255.3C323.9 255.1 323.8 254.9 323.7 254.4ZM254.8 301.5C254.7 301.4 254.7 301.3 254.6 301.2C255.7 299.8 256.9 298.5 258.2 297.2C262.5 293 267.6 290 273.1 287.7C278.2 285.6 283.4 283.5 288.4 281.1C299.5 275.7 309.8 269 318.8 260.4C319 260.2 319.3 260 319.6 259.8C318 262.4 313 268.2 310.3 270.6C302.1 278 293.1 284.1 282.9 288.5C281.6 289.1 280.3 289.6 278.9 290.1C274.2 292 269.6 293.8 264.9 295.7C261.4 297.1 258 298.8 255.1 301.2C255.1 301.3 254.9 301.4 254.8 301.5ZM320.6 257.5C320.7 257.6 320.8 257.7 320.8 257.7C319.4 259 318 260.4 316.5 261.7C307.5 269.7 297.5 276.3 286.5 281.2C281.4 283.5 276.3 285.6 271.2 287.8C267.4 289.5 263.8 291.5 260.5 294.2C259.9 294.7 259.3 295.2 258.8 295.6C258.8 295.4 258.8 295.3 258.9 295.2C259.2 294.9 259.5 294.6 259.8 294.3C263 291.3 266.5 288.7 270.4 286.6C276.3 283.4 282.1 280.3 288 277.1C299 271.3 309.8 265 319.9 257.7C320.2 257.7 320.4 257.6 320.6 257.5Z" fill="#B0D0D2"/>
<path d="M127.5 306.7C128.5 306.2 129.5 305.6 130.5 305.3C132.2 304.9 133.9 304.6 135.6 304.4C136.2 304.3 136.9 304.5 137.5 304.7C140.4 305.8 143.4 306.6 146.6 306.7C149 306.8 151.4 306.9 153.7 306.9C155.2 306.9 156.8 306.6 158.3 306.3C160.5 305.9 162.6 305.2 164.7 304.7C170.6 303.3 175.6 300.1 180.5 296.7C186 292.9 191.4 288.9 196.9 284.9C197.9 284.2 198.8 283.3 199.6 282.3C200.5 281.3 201 280 201.1 278.6C201.2 277.3 200.6 276.4 199.5 275.9C198 275.2 196.4 275.1 194.8 274.9C193.5 274.7 192.2 274.5 191 274C186.6 272.1 182 271.6 177.3 271.7C173.3 271.7 169.4 272.6 165.6 273.7C165.2 273.8 164.9 273.9 164.5 274C164.4 274 164.3 274 164.1 273.9C164.3 273.6 164.4 273.4 164.6 273.2C168.7 268.8 170.8 263.5 171.9 257.8C172.8 253 172.6 248.2 171.9 243.4C171.8 242.7 171.6 242 171.3 241.3C170.2 238.6 167.5 237.6 165 239C163.8 239.6 162.7 240.5 161.6 241.3C159 243.3 156.5 245.3 153.9 247.3C151.1 249.4 148.5 251.6 146.6 254.8C146.5 254.5 146.4 254.4 146.4 254.3C146.3 249.4 145.9 244.5 146.4 239.6C146.6 237.5 146.7 235.4 146.7 233.2C146.7 230.6 145.2 228.8 143.4 227.1C142.5 226.2 141.2 226.3 140.1 226.7C139.4 227 138.7 227.3 138.1 227.7C131.1 232.9 124.4 238.4 119.7 245.9C118.7 247.6 117.8 249.3 116.8 251C116.6 251.4 116.4 251.8 116.1 252.3C115.9 251.8 115.8 251.6 115.7 251.3C115.1 247.5 113.8 243.9 112.3 240.4C110.7 236.8 109.6 233.1 108.6 229.3C108.2 227.9 107.7 226.5 106.9 225.2C105.4 222.7 103.1 222.6 101 224.6C98.7998 226.8 97.4998 229.5 96.3998 232.4C94.7998 236.7 93.5998 241.1 93.0998 245.7C92.6998 249.3 92.5998 252.9 92.9998 256.6C93.4998 261.8 94.4998 266.8 96.3998 271.6C98.0998 276.1 100.5 280.2 103.3 284.1C107.7 290.3 113.4 294.7 120.3 297.8C121.7 298.4 123 299.2 124.2 300.1C125.2 300.8 126 301.9 126.7 302.8C127.3 303.5 127.6 304.4 127.5 305.4C127.4 306.1 127.5 306.4 127.5 306.7ZM146.1 257.5C145.9 259.4 145.5 261.3 145.5 263.2C145.4 267.2 144.7 271.1 143.8 275C142.8 279.4 141.2 283.5 138.9 287.4C136.6 291.2 133.7 294.7 131 298.2C129.8 299.8 128.5 300.1 126.5 299.6C123.8 298.9 121.6 297.2 119.8 295.1C114.8 289.5 112.7 282.8 112.2 275.5C111.9 271.2 112.4 266.9 113.3 262.7C114.7 256.7 117.1 251.1 120.5 246C125.2 238.9 131.6 233.6 138.4 228.5C139 228.1 139.7 227.8 140.4 227.5C141.5 227 142.4 227.4 143.3 228.1C144.6 229.3 145.4 230.9 145.9 232.5C146.7 235 146.1 237.5 145.8 240C145.7 240.9 145.5 241.8 145.4 242.7C145.4 243.4 145.3 244.2 145.3 244.9C145.3 247.3 145.3 249.8 145.4 252.2C145.5 254 145.8 255.7 146.1 257.5ZM187.7 274.1C188.4 274.3 189.8 274.6 191.2 274.9C192 275.1 192.8 275.3 193.6 275.5C195.3 275.8 197 275.9 198.6 276.4C200.4 276.9 200.9 278 200.3 279.8C200 280.7 199.5 281.6 198.9 282.4C198.3 283.2 197.5 283.8 196.7 284.4C191 288.5 185.4 292.7 179.6 296.7C174 300.5 168.2 303.9 161.4 305.1C158.6 305.6 155.8 306.3 152.9 306.3C150.5 306.3 148.1 306.2 145.6 306C142.7 305.8 139.8 304.9 137.1 304C135.7 303.5 134.4 302.7 133.1 301.9C130.9 300.6 130.8 299.7 132.2 297.6C134.4 294.5 137 291.8 139.8 289.2C141.4 287.7 143.3 286.8 145.3 286C149.1 284.5 153 283.8 157 283.3C162.3 282.6 167.5 281.4 172.5 279.3C175 278.2 177.5 277 179.9 275.9C182.2 274.8 184.5 274.3 187.7 274.1ZM119.8 296.1C119.7 296.2 119.7 296.3 119.6 296.3C119.2 296.1 118.9 295.9 118.5 295.7C117.4 294.8 116.3 294 115.3 293C110.6 288.2 106.4 283.1 103.4 277C101 272.2 98.9998 267.2 97.5998 262C96.4998 257.9 95.6998 253.7 95.4998 249.5C95.2998 245.4 95.4998 241.4 96.2998 237.3C96.8998 234 97.6998 230.8 99.4998 227.9C100.2 226.8 101.1 225.7 102.1 224.9C103.5 223.7 104.8 223.9 105.9 225.3C106.4 226 106.9 226.7 107.2 227.5C107.6 228.3 107.8 229.2 108 230.1C108.9 234 110.2 237.6 111.7 241.3C112.8 244.1 113.7 246.9 114.6 249.8C115.3 252.2 115.3 254.5 114.3 256.9C112.4 261.5 111.7 266.3 111.4 271.2C111.2 274.4 111.6 277.5 112.1 280.6C113.1 286.1 115.3 290.9 118.9 295.1C119.3 295.5 119.6 295.8 119.8 296.1ZM138.5 289.2C138.7 288.8 138.8 288.5 139 288.2C143.2 282.2 144.4 275.2 145.7 268.2C146.3 264.9 146.3 261.6 146.3 258.2C146.3 256 147.2 254.4 149 253.3C150.2 252.6 151.4 252 152.7 251.5C156.9 250.1 160.2 247.6 162.6 243.9C163 243.3 163.4 242.7 163.7 242.2C164.1 241.6 164.6 240.9 165.1 240.3C166 239.2 167.2 239 168.5 239.6C169.5 240.1 170.3 240.8 170.6 241.8C171 243.4 171.5 245.1 171.5 246.7C171.4 249.4 170.9 252 169.9 254.5C168.2 259.1 165.6 263.1 162.6 266.9C160.8 269.2 158.9 271.5 157 273.8C154.8 276.5 152.7 279.1 149.8 281.1C146 283.6 142.2 286 138.8 289.1C138.8 289.1 138.7 289.1 138.5 289.2ZM144.8 285.4C144.8 285.3 144.7 285.3 144.7 285.2C145 285 145.2 284.8 145.5 284.6C145.8 284.4 146.1 284.3 146.4 284.1C151.4 280.6 156.7 277.8 162.4 275.6C166.5 274 170.7 273 175.1 272.5C177.6 272.2 180 272.4 182.5 272.6C184 272.7 185.4 273.1 186.9 273.3C185.6 273.7 184.2 273.8 183 274.1C180.6 274.6 178.4 275.8 176.2 276.9C169.8 280.1 163 281.9 155.9 282.8C152.6 283.2 149.4 283.7 146.3 284.9C145.7 285.2 145.3 285.3 144.8 285.4ZM95.4998 237.9C93.7998 248.8 95.4998 259.3 99.3998 269.5C103.3 279.8 109.2 288.7 117.4 296C116.7 295.7 116 295.4 115.4 295C110.7 292 106.5 288.4 103.4 283.7C101.2 280.4 99.0998 277 97.4998 273.3C94.8998 267.2 93.5998 260.8 93.3998 254.2C93.3998 251.3 93.4998 248.5 93.6998 245.6C93.9998 243 94.5998 240.4 95.4998 237.9ZM154.1 278.7C154.1 278.6 154 278.6 154 278.5C156.6 275.4 159.1 272.2 161.8 269.1C164.4 266 166.8 262.8 168.6 259.2C169.6 257.2 170.3 255.1 171.1 253C171.2 252.7 171.3 252.3 171.5 251.9C171.7 252.3 171.8 252.7 171.7 253C171.5 254.8 171.5 256.7 171.1 258.5C170.1 263.4 168.3 268 165.1 271.9C163.6 273.7 161.9 275.3 159.6 276.1C158.1 276.6 156.8 277.4 155.4 278.1C154.9 278.3 154.5 278.5 154.1 278.7ZM150.1 251.7C150.6 250.9 162.6 241.4 163.8 240.8C160.9 246.5 156.4 250.3 150.1 251.7Z" fill="#B0D0D2"/>
<path d="M126.9 294.2C125.7 276.3 129.2 259.4 136.3 243C136.2 243.3 136 243.5 135.9 243.8C132.8 250.5 130.4 257.4 128.9 264.6C128 268.9 127.3 273.3 126.8 277.6C126.3 282.5 126.3 287.5 126.7 292.5C126.7 293 126.7 293.5 126.7 294.1C126.7 294.2 126.8 294.2 126.9 294.2Z" fill="#B0D0D2"/>
<path d="M171.4 281.1C161.2 291.8 148.8 298.1 134.2 300.2C148.9 298.5 161.4 292.3 171.4 281.1Z" fill="#B0D0D2"/>
<path d="M103.9 266.9C104 264.2 102.9 261.7 102.4 259.2C101.8 255.7 101.2 252.2 100.7 248.7C100 244.1 100.2 239.5 100.2 235C100.2 234.7 100.2 234.4 100 234.1C99.9 234.7 99.8 235.3 99.8 235.9C99.9 239.8 99.7 243.8 100.1 247.7C100.6 253.5 101.8 259.1 103.2 264.7C103.5 265.4 103.7 266.1 103.9 266.9Z" fill="#B0D0D2"/>
<path d="M143.2 264.1C140.9 274.3 139 284.6 134.2 294C134.6 293.4 135 292.8 135.3 292.2C137.3 288.4 138.7 284.3 139.7 280.2C140.8 275.8 141.8 271.4 142.7 266.9C143 265.9 143.1 265 143.2 264.1Z" fill="#B0D0D2"/>
<path d="M122.7 272.401C121.9 276.301 121.3 280.301 121.5 284.301C121.7 287.801 122.2 291.301 123.5 294.501C124.2 296.301 125.2 297.901 126.5 299.301C126.8 299.701 127.2 300.001 127.8 300.101C127.7 300.001 127.6 299.801 127.5 299.701C124.5 296.801 123.2 293.001 122.4 289.001C121.8 285.701 121.8 282.501 121.9 279.201C122 277.501 122.3 275.801 122.5 274.001C122.5 273.501 122.6 273.001 122.7 272.401Z" fill="#B0D0D2"/>
<path d="M132.1 233C130.2 234.4 123.6 247.4 122.1 252.7C123.7 249.4 125.3 246 126.9 242.7C128.6 239.5 130.4 236.3 132.1 233Z" fill="#B0D0D2"/>
<path d="M115.5 266.4C113.7 274.8 113.4 283.2 116.9 291.3C115.4 287.3 114.9 283.1 114.7 278.9C114.4 274.7 115.1 270.6 115.5 266.4Z" fill="#B0D0D2"/>
<path d="M161.4 260.4C165.6 255.7 171.2 244.3 170.8 241.1C170.2 242.8 169.8 244.5 169.1 246.1C168.4 247.8 167.6 249.4 166.8 251C166 252.6 165.1 254.2 164.2 255.8C163.2 257.3 162.3 258.8 161.4 260.4Z" fill="#B0D0D2"/>
<path d="M109.6 247.8C110.5 243.5 108.8 229.1 107.3 227.1C107.8 230.5 108.5 233.9 108.8 237.3C109.3 240.7 109.4 244.2 109.6 247.8Z" fill="#B0D0D2"/>
<path d="M141.4 249.9C142 247.7 142.7 245.5 143.2 243.3C143.9 240 144.6 236.7 145.2 233.4C145.4 232.2 145.4 230.9 145.1 229.6C144.9 233 144.3 236.4 143.6 239.8C142.9 243.2 142.1 246.5 141.3 249.9H141.4Z" fill="#B0D0D2"/>
<path d="M157.4 304.7C159.6 304.6 161.5 303.6 163.5 302.6C168.9 300 173.7 296.5 178.2 292.7C178.3 292.6 178.5 292.5 178.5 292.2C178.3 292.4 178 292.5 177.8 292.7C173.8 295.9 169.8 298.9 165.3 301.3C163.2 302.4 160.9 303.2 158.7 304.2C158.2 304.3 157.8 304.5 157.4 304.7Z" fill="#B0D0D2"/>
<path d="M113.8 285.4C109.8 278.4 108.2 270.6 106.3 262.9C107.9 270.7 109.4 278.6 113.8 285.4Z" fill="#B0D0D2"/>
<path d="M151 292.4C145.4 295.7 139.3 297.7 132.9 298.9C139.5 298.2 145.5 295.9 151 292.4Z" fill="#B0D0D2"/>
<path d="M181.2 283.3C185.7 280.3 190.6 275.8 191.1 274.3C187.7 277.5 184.5 280.4 181.2 283.3Z" fill="#B0D0D2"/>
<path d="M136 267.8C133.2 273.7 131.6 280 130.4 286.5C131.9 280.2 133.5 273.9 136 267.8Z" fill="#B0D0D2"/>
<path d="M143.6 291C148 288.4 152.4 285.8 156.8 283.2C155.2 283.4 145.5 289.2 143.6 291Z" fill="#B0D0D2"/>
<path d="M104 266.9C104.2 267.9 104.2 268.9 104.5 269.8C106.1 274 107.9 278.1 109.6 282.3C109.7 282.6 109.9 282.8 110.1 283C109.1 280.5 108 278 107 275.5C106 272.9 105.1 270.2 104.2 267.6C104.1 267.3 104 267.1 104 266.9Z" fill="#B0D0D2"/>
<path d="M144.6 273.7C146.8 269 149 264.2 151.2 259.5C151.1 259.5 151.1 259.4 151 259.4C150.8 259.8 150.5 260.2 150.3 260.7C148.9 263.6 147.6 266.6 146.3 269.5C145.7 270.7 145.1 271.9 144.5 273.2C144.4 273.3 144.4 273.5 144.3 273.7C144.4 273.6 144.5 273.6 144.6 273.7Z" fill="#B0D0D2"/>
<path d="M121.9 293.9C120.3 289 120 284 120.2 279C119.4 284.1 120 289.1 121.9 293.9Z" fill="#B0D0D2"/>
<path d="M157.4 304.7C156.6 304.8 155.7 304.8 155 305C151.8 305.8 148.5 305.9 145.2 305.8C144.7 305.8 144.2 305.8 143.8 305.9C148.4 306.5 152.9 306.1 157.4 304.7Z" fill="#B0D0D2"/>
<path d="M150.6 304.7C155.5 304.6 159.7 302.6 163.8 300.1C163.6 300.2 163.5 300.2 163.3 300.3C159.5 302.4 155.4 303.7 151.1 304.5C150.9 304.5 150.8 304.6 150.6 304.7Z" fill="#B0D0D2"/>
<path d="M107.5 237.3C107.6 233.3 107.2 229.3 106 225.3C106.5 229.3 107 233.4 107.5 237.3Z" fill="#B0D0D2"/>
<path d="M165.5 249.4C167.3 247.2 169.9 241.4 169.8 239.8C168.3 243.1 166.9 246.2 165.5 249.4Z" fill="#B0D0D2"/>
<path d="M112.6 250.201C112.8 253.801 112.9 257.301 113.1 261.101C113.3 260.801 113.4 260.501 113.4 260.301C113.4 259.201 113.5 258.001 113.4 256.901C113.2 254.601 112.9 252.401 112.7 250.101C112.7 250.201 112.7 250.201 112.6 250.201Z" fill="#B0D0D2"/>
<path d="M149.1 277.1C146.6 279.9 144.1 282.7 141.7 285.6L141.8 285.7C142.5 285 143.1 284.3 143.8 283.7C145.4 281.9 147.2 280.3 148.5 278.2C148.7 277.8 148.9 277.5 149.1 277.1Z" fill="#B0D0D2"/>
<path d="M124.6 243.4C126.1 240.9 127.6 238.4 129.1 235.9C129 235.8 128.9 235.8 128.8 235.7C127.1 238.2 125.7 240.7 124.6 243.4Z" fill="#B0D0D2"/>
<path d="M150.6 304.7C147.6 304.7 144.6 304.7 141.7 304.7C144.6 305.3 147.6 305.3 150.6 304.7Z" fill="#B0D0D2"/>
<path d="M112.3 279.3C111.5 276.6 110.6 273.9 109.8 271.2C109.7 271.2 109.7 271.2 109.6 271.3C110.4 274 111.2 276.7 112 279.4C112.1 279.4 112.2 279.3 112.3 279.3Z" fill="#B0D0D2"/>
<path d="M145.3 269.2C145.5 268.9 145.8 268.7 146 268.3C146.9 266.2 147.8 264.1 148.4 261.9C147.3 264.3 146.3 266.7 145.3 269.2Z" fill="#B0D0D2"/>
<path d="M198.5 276.401C196.8 277.901 195.1 279.401 193.4 281.101C194.9 280.301 197.9 277.601 198.5 276.401Z" fill="#B0D0D2"/>
<path d="M185.2 278.3C186.7 277 188.1 275.7 189.6 274.4C188.7 274.5 185.9 277 185.2 278.3Z" fill="#B0D0D2"/>
<path d="M140.3 304.601C139 304.201 137.8 303.901 136.8 303.601C137.8 304.201 138.9 304.601 140.3 304.601Z" fill="#B0D0D2"/>
<path d="M128 305.7C127.8 305.9 127.6 306 127.5 306.1C124.9 309.8 121.2 311.3 116.9 311.4C113.1 311.5 109.3 311 105.5 310.5C102.5 310.1 99.5 309.7 96.5 309.4C93.2 309.2 89.9 310 86.8 311C83.4 312.1 80.1 313.3 76.8 314.7C72 316.7 67 318.2 61.9 319.3C60.4 319.6 58.9 319.7 57.4 319.7C53.8 319.6 50.2 319.3 46.7 318.8C43.8 318.4 40.9 318.1 37.9 317.9C35.4 317.7 33 317.6 30.5 317.7C26.9 317.8 23.3 318.2 19.9 319.4C14.6 321.2 9.8 324.1 5.6 328C3.7 329.8 1.9 331.7 0 333.6C0.7 333.9 1 333.5 1.4 333.2C2.9 331.7 4.4 330.1 5.9 328.7C10.7 324.2 16.2 321 22.5 319.4C24.9 318.8 27.3 318.4 29.8 318.5C33.3 318.5 36.8 318.6 40.3 318.8C42.7 318.9 45 319.3 47.4 319.6C51.8 320.3 56.2 320.4 60.6 320.2C61.8 320.1 63.1 319.8 64.3 319.5C69 318.4 73.5 316.9 78 315C82.3 313.1 86.8 311.5 91.4 310.5C93.9 310 96.4 309.9 98.9 310.3C103.1 310.8 107.3 311.5 111.5 311.8C114.3 312.1 117.2 312.3 120 311.6C122.8 310.9 125.4 309.6 127.3 307.3C127.7 306.9 128.2 306.5 128 305.7Z" fill="#B0D0D2"/>
<path d="M209.9 374.3C210.3 373.9 210.8 373.5 211.2 373C212.2 371.7 213.2 370.5 214 369.1C216.4 365.1 218.6 361 220.7 356.8C223.5 351.3 224.7 345.3 224.9 339.2C225.1 333.3 223.7 327.7 220.7 322.5C217.9 317.7 214.1 313.8 210 310.3C206.2 307 202.3 303.7 198.6 300.3C196.7 298.6 195 296.6 193.2 294.7C193 294.5 192.7 294.2 192.2 294.1C192.2 294.4 192.2 294.7 192.3 295C193.1 296.9 194 298.8 194.9 300.7C196.4 303.9 198.2 307 200.2 309.9C203.3 314.2 206.3 318.6 209.4 323C211.2 325.6 213.1 328.1 214.7 330.7C218.8 337.2 220.6 344.4 219.4 352.1C218.9 355.1 218.3 358.1 217.4 361C216 365.6 213.3 369.6 210.4 373.3C210.2 373.5 210.1 373.7 209.9 373.9C209.8 374 209.8 374.1 209.8 374.2C209.8 374.2 209.8 374.3 209.9 374.3ZM220.6 355.4L220.5 355.3C220.9 354.1 221.2 352.9 221.6 351.7C223.5 344.9 223.1 338.1 220.5 331.6C218.5 326.8 215.5 322.7 212.1 318.9C210.3 316.9 208.5 315 206.7 313C204.2 310.2 201.8 307.3 199.2 304.6C197.4 302.7 196.1 300.4 194.7 298.2C194.5 297.9 194.5 297.5 194.3 297.2C198.7 301.5 203.3 305.5 208 309.4C212.2 312.9 216.1 316.6 219.2 321.2C220.7 323.4 221.9 325.7 222.7 328.1C225.7 337 224.6 345.8 221.3 354.4C221 354.8 220.8 355.1 220.6 355.4ZM196.2 302.4C196.3 302.4 196.3 302.3 196.4 302.3C197.6 303.7 198.7 305.1 199.9 306.5C202.8 309.8 205.7 313.1 208.7 316.2C211.7 319.4 214.6 322.7 217 326.4C218 327.9 218.9 329.5 219.6 331.2C222.8 338.6 222.9 346.2 220.4 353.8C220.1 354.7 219.7 355.7 219.3 356.6C219.3 355.4 219.7 354.3 219.8 353.1C220.2 349.7 220.4 346.4 219.9 343C219.1 337.8 216.9 333.1 213.9 328.7C209 321.7 203.7 314.9 199.2 307.6C198.2 305.8 197.2 304.1 196.2 302.4Z" fill="#B0D0D2"/>
</g>
</svg>
