<svg width="302" height="423" viewBox="0 0 302 423" fill="none" xmlns="http://www.w3.org/2000/svg">
<g opacity="0.1" clip-path="url(#clip0_169_25939)">
<path d="M39.9001 288.3C39.6001 288.2 39.4001 288 39.2001 288C33.3001 286.6 27.9001 283.9 22.8001 280.6C20.3001 278.9 17.6001 277.4 15.3001 275.4C11.6001 272.2 7.60011 269.5 3.70011 266.6C2.80011 265.9 2.00011 265.1 1.30011 264.3C0.500107 263.3 0.000106826 262.2 -0.0998932 260.9C-0.199893 259.3 0.200107 258.4 1.80011 257.9C3.20011 257.4 4.70011 257.3 6.10011 257C7.40011 256.7 8.90011 256.6 10.1001 256.1C14.4001 254.2 18.9001 253.8 23.4001 253.8C27.4001 253.8 31.3001 254.7 35.1001 255.8C35.5001 255.9 36.0001 256 36.7001 256.2C36.4001 255.7 36.3001 255.5 36.1001 255.3C31.7001 250.4 29.3001 244.6 28.5001 238.1C28.0001 234 28.1001 229.9 28.8001 225.8C29.1001 224.2 29.6001 222.8 30.9001 221.7C32.1001 220.7 33.5001 220.3 34.9001 221C36.3001 221.7 37.6001 222.5 38.9001 223.4C41.8001 225.6 44.6001 227.9 47.5001 230.1C50.1001 232 52.4001 234.2 54.2001 237.2C54.3001 236.6 54.3001 236.3 54.3001 235.9C54.4001 234.2 54.5001 232.5 54.5001 230.8C54.4001 227.5 54.2001 224.1 54.1001 220.8C54.0001 218.5 53.7001 216.2 54.2001 213.9C54.7001 211.9 56.1001 210.6 57.5001 209.4C58.4001 208.7 59.6001 208.8 60.6001 209.2C61.2001 209.4 61.8001 209.7 62.3001 210.1C69.5001 215 76.0001 220.6 80.7001 228C81.9001 229.9 82.9001 231.8 84.0001 233.8C84.1001 234 84.3001 234.2 84.5001 234.7C84.7001 233.8 84.9001 233.1 85.0001 232.4C85.7001 229 86.9001 225.8 88.3001 222.7C89.9001 219.2 91.0001 215.5 92.0001 211.8C92.4001 210.5 92.9001 209.1 93.6001 208C95.2001 205.5 97.7001 205.2 99.8001 207.4C101.9 209.5 103.3 212 104.3 214.7C106 219 107.1 223.5 107.6 228.1C108 231.7 108.1 235.3 107.7 239C107.1 245.2 105.6 251.2 103 256.9C99.9001 263.6 95.5001 269.3 89.9001 274.2C86.8001 276.9 83.4001 278.9 79.7001 280.4C75.8001 282 73.3001 286.1 74.3001 290.4C74.3001 290.6 74.3001 290.7 74.3001 290.9C73.5001 290.9 73.4001 290.3 73.1001 289.9C72.2001 288.3 71.0001 287.1 69.3001 286.3C68.1001 285.8 66.9001 285.7 65.7001 287C61.1001 291.9 58.2001 297.6 56.8001 304.1C56.1001 307.5 56.1001 310.9 56.6001 314.3C57.2001 318.7 58.0001 323.2 58.7001 327.6C59.3001 331.8 59.2001 335.9 57.5001 339.9C56.7001 341.7 55.6001 343.1 54.1001 344.2C52.7001 345.2 51.4001 345.2 50.1001 344C49.5001 343.5 49.1001 342.8 48.6001 342.2C46.9001 339.6 44.9001 337.3 42.4001 335.4C38.6001 332.4 36.2001 328.4 34.5001 324C33.1001 320.3 32.0001 316.4 31.5001 312.5C30.8001 307.6 31.2001 302.7 32.6001 298C33.7001 294.4 35.8001 291.4 38.8001 289.1C39.4001 288.7 39.6001 288.5 39.9001 288.3ZM54.9001 240.6C55.0001 242.5 55.2001 245.4 55.4001 248.3C55.5001 249.8 55.9001 251.2 56.2001 252.7C57.0001 256.8 57.8001 261 59.6001 264.8C62.3001 270.6 66.1001 275.6 70.0001 280.6C71.0001 281.9 72.5001 282.1 74.0001 281.7C75.8001 281.2 77.5001 280.4 78.9001 279.1C82.1001 276.4 84.2001 272.8 85.8001 269C88.5001 262.6 89.0001 255.8 88.1001 249C87.5001 243.9 85.9001 239.1 83.8001 234.5C79.0001 224.2 71.2001 216.7 61.9001 210.6C61.3001 210.2 60.7001 210 60.0001 209.8C59.3001 209.6 58.6001 209.6 58.0001 210.1C56.6001 211.3 55.2001 212.5 54.9001 214.4C54.6001 215.9 54.5001 217.4 54.7001 218.9C55.0001 222.7 55.3001 226.5 55.2001 230.3C55.1001 233.3 55.0001 236.5 54.9001 240.6ZM50.9001 288.6C54.4001 288.7 58.9001 288 63.2001 286.2C65.0001 285.4 66.7001 284.5 68.3001 283.4C69.7001 282.5 69.8001 281.6 69.0001 280.2C68.8001 279.8 68.5001 279.4 68.2001 279C67.1001 277.6 65.9001 276.3 64.8001 274.9C62.6001 272.1 60.1001 269.6 56.7001 268.2C54.9001 267.5 53.1001 266.7 51.2001 266.3C48.5001 265.7 45.8001 265.3 43.0001 264.9C36.0001 263.8 29.3001 261.8 23.1001 258.6C21.5001 257.8 19.9001 257.1 18.2001 256.6C15.7001 255.8 13.2001 255.5 10.7001 256.4C9.00011 257 7.20011 257.3 5.40011 257.5C4.20011 257.6 3.00011 258 1.90011 258.4C0.800107 258.8 0.300107 259.8 0.700107 260.9C1.00011 261.9 1.50011 262.9 2.10011 263.8C2.80011 264.7 3.60011 265.4 4.50011 266.1C8.50011 269.1 12.6001 272 16.5001 275.2C20.0001 278.1 24.0001 280.5 28.0001 282.7C34.8001 286.5 42.0001 288.6 50.9001 288.6ZM62.0001 287.7C62.0001 287.6 61.9001 287.6 61.9001 287.5C61.7001 287.6 61.5001 287.6 61.3001 287.7C58.5001 288.6 55.6001 289.1 52.6001 289.3C49.3001 289.5 45.9001 289.5 42.6001 288.7C41.2001 288.4 40.1001 288.8 39.1001 289.6C37.0001 291.3 35.3001 293.4 34.2001 295.9C32.2001 300.6 31.8001 305.6 32.2001 310.6C32.5001 315.1 33.7001 319.4 35.3001 323.6C37.1001 328.4 39.9001 332.5 44.0001 335.7C45.2001 336.6 46.2001 337.7 47.2001 338.9C48.0001 339.9 48.7001 341 49.5001 342.1C49.9001 342.7 50.4001 343.3 50.9001 343.8C51.9001 344.6 52.6001 344.7 53.6001 343.9C54.4001 343.3 55.3001 342.6 55.9001 341.8C57.7001 339.2 58.5001 336.3 58.1001 333.2C57.7001 330.8 56.6001 328.8 55.3001 326.7C53.5001 324 52.0001 321.1 50.8001 318.1C48.3001 311.4 48.6001 304.8 52.0001 298.4C53.6001 295.5 55.9001 293.3 58.2001 291.1C59.6001 289.8 60.8001 288.8 62.0001 287.7ZM81.0001 278.2C81.1001 278.3 81.1001 278.3 81.2001 278.4C81.6001 278.1 82.0001 277.9 82.4001 277.6C83.9001 276.5 85.1001 275.2 86.4001 273.9C93.6001 266.3 99.1001 257.7 102.3 247.7C104 242.6 105.2 237.4 105.5 232.1C105.8 227.7 105.5 223.4 104.7 219C104.1 216 103.3 213 101.6 210.4C100.9 209.3 100.1 208.2 99.2001 207.4C97.5001 205.9 95.8001 206.1 94.6001 208C93.9001 209.1 93.4001 210.3 93.0001 211.5C91.8001 216 90.3001 220.3 88.5001 224.6C87.5001 226.9 86.8001 229.4 86.1001 231.9C85.4001 234.2 85.5001 236.5 86.4001 238.9C89.0001 245.9 90.0001 253.2 88.9001 260.7C88.0001 267 85.6001 272.7 81.5001 277.6C81.3001 277.8 81.1001 278 81.0001 278.2ZM62.1001 271C62.2001 270.9 62.2001 270.9 62.3001 270.8C62.0001 270.3 61.7001 269.8 61.4001 269.3C60.4001 267.3 59.1001 265.4 58.4001 263.3C57.2001 260 56.3001 256.6 55.5001 253.2C54.5001 248.9 54.4001 244.5 54.4001 240.2C54.4001 238 53.5001 236.4 51.7001 235.3C50.5001 234.6 49.3001 234 48.0001 233.5C43.8001 232.1 40.5001 229.6 38.1001 225.9C37.4001 224.7 36.6001 223.6 35.7001 222.5C34.6001 221 33.1001 220.9 31.6001 221.9C30.4001 222.7 29.9001 223.9 29.6001 225.3C29.0001 227.8 29.2001 230.4 29.7001 232.9C30.7001 237.5 32.7001 241.7 35.5001 245.4C38.3001 249 41.2001 252.5 44.0001 256.1C46.6001 259.5 49.7001 262.3 53.3001 264.5C55.7001 266 57.9001 267.8 60.1001 269.4C60.9001 269.9 61.5001 270.5 62.1001 271ZM65.9001 286.1C65.8001 286 65.7001 285.9 65.7001 285.9C65.1001 286.3 64.5001 286.6 64.0001 287C61.9001 288.8 59.8001 290.5 57.8001 292.4C55.8001 294.3 54.0001 296.2 52.6001 298.7C50.3001 303.1 49.4001 307.7 50.2001 312.6C50.7001 316.1 52.0001 319.4 53.8001 322.4C54.8001 324.2 56.0001 326 57.1001 327.8C57.7001 328.8 58.1001 329.8 58.5001 330.8C58.6001 329.4 58.5001 328.1 58.3001 326.8C57.6001 322.4 56.9001 317.9 56.2001 313.5C55.8001 310.4 55.8001 307.3 56.3001 304.3C57.6001 297.7 60.5001 291.9 65.1001 286.9C65.4001 286.7 65.6001 286.4 65.9001 286.1ZM13.9001 255.1C13.9001 255.2 13.9001 255.3 13.9001 255.3C15.2001 255.5 16.5001 255.5 17.7001 255.9C19.7001 256.6 21.7001 257.3 23.6001 258.2C30.1001 261.5 36.9001 263.5 44.1001 264.4C48.0001 264.9 51.8001 265.5 55.4001 267C55.6001 267.1 55.8001 267 56.2001 267C55.6001 266.6 55.2001 266.4 54.8001 266.1C49.7001 262.5 44.3001 259.6 38.5001 257.3C32.0001 254.8 25.4001 253.4 18.4001 254.2C17.0001 254.6 15.5001 254.9 13.9001 255.1ZM105.7 219.9C105.6 219.9 105.5 219.9 105.4 219.9C105.4 220.1 105.4 220.3 105.4 220.5C105.6 223 106 225.5 106.1 228C106.2 231.6 105.9 235.3 105.2 238.9C103.6 247.3 100.6 255.2 96.1001 262.5C92.6001 268.1 88.4001 273.1 83.5001 277.7C83.4001 277.8 83.4001 277.9 83.2001 278.2C83.7001 278 83.9001 277.9 84.2001 277.7C86.0001 276.7 87.7001 275.5 89.3001 274.1C93.4001 270.7 96.9001 266.9 99.7001 262.4C104.3 255.1 106.9 247.1 107.6 238.6C107.9 234.3 107.9 229.9 107.1 225.6C106.7 223.7 106.2 221.8 105.7 219.9ZM29.3001 234C29.2001 234 29.1001 234 29.1001 234C29.2001 235.6 29.3001 237.2 29.5001 238.7C30.3001 244.3 32.3001 249.3 35.9001 253.7C36.9001 255 38.1001 256.2 39.5001 257C41.8001 258.3 44.3001 259.3 46.7001 260.4C46.8001 260.4 46.9001 260.4 47.0001 260.3C47.0001 260.2 46.9001 260.1 46.9001 260C43.9001 256.4 41.0001 252.9 38.0001 249.3C35.5001 246.3 33.2001 243.2 31.7001 239.7C30.6001 237.8 30.0001 235.9 29.3001 234ZM37.1001 222.8C39.1001 226.2 41.2001 229.5 44.8001 231.4C46.7001 232.4 50.0001 233.7 51.1001 233.6C46.4001 229.7 41.5001 226.6 37.1001 222.8Z" fill="#01686F"/>
<path d="M96.7 233.5C96.4 236.2 96.2 238.8 95.7 241.5C94.8 246.2 93.9 250.9 92.6 255.5C90.8 261.9 88.3 267.9 84.2 273.2C84 273.5 83.8 273.8 83.5 274C83.4 273.9 83.3 273.9 83.3 273.8C83.5 273.4 83.7 273 84 272.6C89.5 264.8 92.4 255.9 94.3 246.6C95.1 242.7 95.7 238.8 96.4 234.9C96.5 234.4 96.5 233.9 96.5 233.3C96.5 233.4 96.6 233.5 96.7 233.5Z" fill="#01686F"/>
<path d="M58.2002 242.5C58.7002 245.2 59.1002 247.9 59.6002 250.6C61.3002 259.1 63.8002 267.3 68.0002 274.9C68.9002 276.5 69.9002 278 70.9002 279.5C71.1002 279.8 71.3002 280.1 71.5002 280.5C70.1002 279.3 68.9002 277.8 68.1002 276.2C66.2002 272.7 64.4002 269 63.1002 265.2C61.1002 259.4 59.4002 253.4 58.6002 247.3C58.4002 245.7 58.2002 244.2 58.0002 242.6C58.1002 242.5 58.1002 242.5 58.2002 242.5Z" fill="#01686F"/>
<path d="M53.4002 287.9C48.1002 288.5 42.8002 286.9 37.6002 284.7C33.1002 282.8 29.0002 280.2 25.0002 277.4C21.9002 275.2 18.8002 272.8 15.8002 270.5C15.7002 270.4 15.5002 270.2 15.5002 269.9C16.8002 270.8 18.1002 271.7 19.4002 272.7C23.8002 275.8 28.0002 279.1 32.7002 281.7C37.6002 284.5 42.7002 286.4 48.2002 287.5C50.0002 287.8 51.9002 287.8 53.4002 287.9Z" fill="#01686F"/>
<path d="M99.0002 249.3C99.4002 247.6 99.8002 245.9 100.2 244.2C101.3 239.7 102.2 235.1 102.6 230.4C102.9 226.9 103.1 223.3 102.7 219.8C102.5 217.7 102.4 215.5 102.3 213.3C102.5 214.7 102.9 216.2 103 217.6C103.2 221.1 103.4 224.7 103.2 228.2C103 233.2 102.1 238.2 100.8 243C100.3 244.8 99.8002 246.7 99.3002 248.5C99.2002 248.8 99.1002 249 99.0002 249.3Z" fill="#01686F"/>
<path d="M56.1001 289.3C55.6001 289.4 55.1001 289.5 54.6001 289.7C50.9001 291.5 48.2001 294.3 46.2001 297.7C44.2001 301 42.8001 304.5 42.3001 308.3C42.0001 310.3 41.9001 312.4 42.0001 314.5C42.1001 317.3 42.4001 320 42.7001 322.8C42.7001 323.1 42.7001 323.3 42.7001 323.6C41.8001 319.6 41.3001 314.8 41.9001 309.2C42.6001 301.5 45.9001 295 52.3001 290.4C54.0001 289.1 55.2001 288.7 56.6001 288.6C56.6001 288.8 56.6001 288.9 56.6001 289.1C56.3001 289.1 56.2001 289.2 56.1001 289.3Z" fill="#01686F"/>
<path d="M62.9001 210.8C67.4001 221.9 69.0001 233.6 70.7001 245.3C69.6001 239.5 68.6001 233.7 67.4001 227.9C66.2001 222.1 64.8001 216.4 62.9001 210.8Z" fill="#01686F"/>
<path d="M67.5001 283.4C65.6001 284.2 63.5001 284.4 61.4001 284.2C54.1001 283.4 47.6001 280.9 41.6001 276.7C39.4001 275.1 37.3001 273.5 35.1001 271.7C35.3001 271.8 35.5001 271.9 35.8001 272.1C37.0001 272.9 38.2001 273.7 39.4001 274.5C41.0001 275.6 42.4001 276.8 44.1001 277.8C48.8001 280.8 54.0001 282.7 59.5001 283.6C62.2001 284 64.9001 284.1 67.5001 283.4Z" fill="#01686F"/>
<path d="M56.1 289.3C56.2 289.2 56.4 289.2 56.5 289.1C57.8 288.6 59.1 288 60.6 287.4C60.4 288.2 59.8 288.2 59.5 288.4C57.9 289.3 56.1 290 54.6 291C51.9 292.8 49.7 295.2 48 297.9C46.3 300.6 45.3 303.7 44.6 306.8C44.3 308.4 44.1 309.9 43.8 311.6C43.9 302.7 47.1 295.4 54.6 290.2C55 289.9 55.6 289.6 56.1 289.3Z" fill="#01686F"/>
<path d="M76.6001 280.5C77.0001 280 77.4001 279.5 77.7001 279C79.2001 276.9 79.7001 274.5 80.5001 272.2C81.3001 269.8 81.5001 267.2 81.6001 264.7C81.7001 260.6 81.3001 256.5 80.6001 252.4C80.5001 252.1 80.6001 251.7 80.7001 251.3C80.9001 252.6 81.1001 253.9 81.2001 255.1C81.4001 256.4 81.6001 257.7 81.7001 259C81.8001 261 81.9001 263.1 82.0001 265.1C82.1001 268.2 81.5001 271.1 80.5001 274C79.9001 275.6 79.3001 277.1 78.6001 278.7C78.2001 279.5 77.6001 280.3 76.8001 280.8C76.7001 280.7 76.6001 280.6 76.6001 280.5Z" fill="#01686F"/>
<path d="M47.3 276.5C46.3 275.9 45.3 275.2 44.3 274.6C37.3 270.4 30.6 265.8 24.4 260.4C23.9 260 23.5 259.6 23.1 259.2C23 259.1 22.9 259 22.8 258.8C26.9 261.9 30.8001 265.1 34.9001 268C39.0001 270.9 43.2001 273.5 47.4001 276.3C47.4001 276.3 47.3 276.4 47.3 276.5Z" fill="#01686F"/>
<path d="M58.3002 264.9C52.2002 258 47.0002 250.5 43.7002 241.8C43.8002 242 43.9002 242.1 44.1002 242.3C44.2002 242.5 44.3002 242.7 44.4002 242.9C47.2002 249.1 50.9002 254.9 55.0002 260.3C56.1002 261.8 57.4002 263.2 58.6002 264.7C58.5002 264.7 58.4002 264.8 58.3002 264.9Z" fill="#01686F"/>
<path d="M64.1001 234C65.6001 244.7 67.8001 255.3 71.4001 265.8C69.0001 261.9 64.5001 242.2 64.1001 234Z" fill="#01686F"/>
<path d="M36.5002 311.5C37.4002 319.1 38.0002 326.7 42.0002 333.8C41.2002 333.6 41.1002 333.2 40.9002 332.8C39.7002 330.6 38.8002 328.2 38.3002 325.8C37.3002 321.6 36.6002 317.3 36.6002 313C36.5002 312.5 36.5002 312 36.5002 311.5Z" fill="#01686F"/>
<path d="M87.1001 254.6C86.6001 248 86.0001 241.4 84.4001 234.9C84.4001 234.9 84.5001 234.8 84.7001 234.6C86.7001 241.2 87.2001 247.8 87.1001 254.6Z" fill="#01686F"/>
<path d="M57.0002 257.5C55.0002 251.2 52.3002 245.2 49.5002 239.3C49.7002 239.5 49.9002 239.8 50.0002 240C52.0002 243.3 53.6002 246.8 55.0002 250.4C55.7002 252.3 56.7002 254 56.9002 256.1C56.9002 256.6 57.0002 257.1 57.0002 257.5Z" fill="#01686F"/>
<path d="M6.90015 257C7.30015 257.2 7.80015 257.3 8.10015 257.6C10.4001 259.4 12.6001 261.4 14.9001 263.2C16.8001 264.7 18.7001 266 20.6001 267.4C21.0001 267.7 21.4001 267.9 21.9001 268.3C19.8001 267.7 15.5001 264.5 6.90015 257Z" fill="#01686F"/>
<path d="M75.2002 220.6C77.9002 226.4 79.4002 232.5 79.9002 238.9C79.5002 236.8 79.1002 234.8 78.6002 232.7C78.1002 230.6 77.6002 228.6 76.9002 226.6C76.3002 224.6 75.5002 222.7 74.7002 220.7C74.9002 220.7 75.0002 220.7 75.2002 220.6Z" fill="#01686F"/>
<path d="M93.1002 242.2C93.1002 246.2 90.8002 257.6 88.5002 261.8C88.6002 261.4 88.6002 261 88.8002 260.6C90.1002 256.8 91.1002 253 91.8002 249.1C92.2002 246.8 92.7002 244.5 93.1002 242.2Z" fill="#01686F"/>
<path d="M51.5001 325.3C52.0001 326.9 52.5001 328.2 52.8001 329.6C53.5001 332.7 54.2001 335.8 54.8001 339C55.0001 340.1 54.9001 341.3 54.9001 342.5C54.9001 343 54.5001 343.5 54.3001 344.2C54.1001 343.8 54.0001 343.7 54.1001 343.6C55.0001 341.7 54.5001 339.7 54.1001 337.7C53.3001 333.7 52.3001 329.8 51.4001 325.8C51.4001 325.7 51.4001 325.6 51.5001 325.3Z" fill="#01686F"/>
<path d="M68.9001 273.6C66.0001 269.1 62.6001 258 62.4001 252.1C62.7001 253.6 63.1001 255.2 63.4001 256.7C64.5001 262.5 66.2001 268 68.8001 273.3C68.9001 273.4 68.9001 273.5 68.9001 273.6Z" fill="#01686F"/>
<path d="M83.8002 260.4C84.0002 262.9 83.8002 265.8 83.4002 268.7C83.1002 271.1 82.6002 273.5 81.7002 275.7C81.3002 276.8 80.6002 277.8 79.7002 278.5C79.9002 278.1 79.9002 277.9 80.0002 277.7C81.7002 275.1 82.4002 272.2 82.8002 269.2C83.2002 266.1 83.5002 263 83.8002 260.4Z" fill="#01686F"/>
<path d="M90.3 232.5C90.5 226.1 90.8 219.6 92 213.3C92.1 213.3 92.2 213.3 92.3 213.3C91.6 219.7 90.9 226.1 90.3 232.5Z" fill="#01686F"/>
<path d="M72.4001 252.8C74.3001 260.3 76.0001 267.9 75.9001 275.1C75.5001 271.9 75.1001 268 74.5001 264.2C74.0001 260.3 73.2001 256.6 72.4001 252.8Z" fill="#01686F"/>
<path d="M35.3 239.5C32.2 235.1 30.4 230.2 29.3 224.9C29.4 224.9 29.5 224.8 29.6 224.8C29.7 225.1 29.9 225.3 29.9 225.6C30.8 229.4 32.1001 233 33.7001 236.6C34.3001 237.5 34.8 238.5 35.3 239.5Z" fill="#01686F"/>
<path d="M55.2001 213.2C56.3001 215.1 56.4001 217.4 56.9001 219.5C57.5001 221.8 57.9 224.1 58.3 226.5C58 225.5 57.6 224.4 57.3 223.4C56.9 221.9 56.6001 220.4 56.2001 218.9C55.8001 217.6 55.4 216.3 55 215C54.9 214.5 54.9 213.9 54.8 213.4C55 213.2 55.1001 213.2 55.2001 213.2Z" fill="#01686F"/>
<path d="M46.1 239.2C43.4 234.6 40.5 229.8 37.8 225.2C39.1 226.1 45 235.9 46.1 239.2Z" fill="#01686F"/>
<path d="M41.5002 271C44.1002 272.4 46.8002 273.7 49.3002 275.3C51.9002 277 54.7002 277.9 57.6002 278.9C57.8002 279 58.1002 279.1 58.3002 279.2C58.4002 279.2 58.4002 279.3 58.5002 279.3C52.0002 278.1 46.9002 274.2 41.5002 271Z" fill="#01686F"/>
<path d="M100.7 220.1C100.3 216 100 211.6 99.5002 206.9C100.5 208.4 101 214.7 100.7 220.1Z" fill="#01686F"/>
<path d="M58.2002 272C54.5002 269.8 50.8002 267.7 47.0002 265.5C48.1002 265.4 56.1002 269.9 58.2002 272Z" fill="#01686F"/>
<path d="M50.4001 289.1C45.9001 290.6 43.1001 293.6 40.6001 297.2C40.6001 297.1 40.7001 297 40.7001 296.9C40.8001 296.8 40.8001 296.7 40.9001 296.6C42.6001 293.8 44.7001 291.3 47.7001 289.7C48.5001 289.3 49.2001 288.9 50.4001 289.1Z" fill="#01686F"/>
<path d="M90.5002 218.6C90.1002 222.1 89.6002 225.6 89.2002 229.2C89.1002 225.6 89.6002 222.1 90.3002 218.6C90.3002 218.6 90.4002 218.6 90.5002 218.6Z" fill="#01686F"/>
<path d="M53.3001 344C53.0001 341.2 52.7001 338.4 52.4001 335.7C53.2001 338.4 53.6001 341.2 53.6001 344C53.5001 343.9 53.4001 344 53.3001 344Z" fill="#01686F"/>
<path d="M32.5002 230.8C31.3002 228.4 30.4002 226 30.0002 223.3C30.1002 223.3 30.2002 223.2 30.3002 223.2C31.0002 225.8 31.8002 228.3 32.5002 230.8Z" fill="#01686F"/>
<path d="M77.1001 223.4C78.5001 225.8 79.0001 228.6 79.5001 231.3C78.7001 228.7 77.9001 226 77.1001 223.4Z" fill="#01686F"/>
<path d="M14.1 260.7C12.3 259.6 10.6 258.2 8.80005 256.6C9.90005 256.9 12.6 259 14.1 260.7Z" fill="#01686F"/>
<path d="M67.0002 218.9C66.3002 216.9 65.7002 215 65.0002 213C65.1002 213 65.2002 212.9 65.4002 212.9C66.3002 214.7 66.9002 216.7 67.0002 218.9Z" fill="#01686F"/>
<path d="M42.3 292.3C43.9 290.9 45.3001 289.3 47.7001 289C47.3001 289.6 46.5 289.6 46 290C45.4 290.4 44.8001 290.8 44.2001 291.2C43.6001 291.6 43.1 292.1 42.5 292.5C42.4 292.4 42.4 292.3 42.3 292.3Z" fill="#01686F"/>
<path d="M57.8002 218.8C57.0002 216.7 56.2002 214.7 56.0002 212.4C56.1002 212.4 56.2002 212.3 56.4002 212.3C56.9002 214.5 57.4002 216.6 57.8002 218.8Z" fill="#01686F"/>
<path d="M87.1001 235.3C87.2001 238.1 87.4001 240.6 87.5001 243.3C86.9001 242.3 86.8001 237.2 87.1001 235.3Z" fill="#01686F"/>
<path d="M48.0002 253.5C49.5002 255.5 51.0002 257.6 52.5002 259.6C51.4002 258.9 48.9002 255.7 48.0002 253.5Z" fill="#01686F"/>
<path d="M33.1002 221.3C33.9002 222.7 34.7002 224.2 35.5002 225.6C35.4002 225.6 35.4002 225.7 35.3002 225.7C34.4002 224.3 33.6002 222.9 32.7002 221.5C32.9002 221.4 33.0002 221.3 33.1002 221.3Z" fill="#01686F"/>
<path d="M154.3 394.5C153.6 394.1 152.9 393.8 152.3 393.4C151.3 392.6 150.3 391.9 149.4 391C145.2 386.6 142.3 381.4 140.8 375.5C139.8 371.6 139.8 367.7 140.7 363.8C142 358.2 143.4 352.7 144.7 347.2C146 341.8 147.1 336.3 147.8 330.8C148 329.4 148.4 328.1 148.6 326.8C148.8 325.4 148.9 324.1 149.1 322.7C149.2 322.2 149.3 321.8 149.4 321.3C149.5 321.3 149.6 321.3 149.7 321.3C149.9 322.2 150.1 323.1 150.3 324C151.2 328.3 152.1 332.5 152.8 336.8C153.6 341.3 153.7 345.7 153.3 350.2C152.6 357.1 150.7 363.8 148.6 370.4C147.3 374.2 146.6 378.1 146.5 382C146.4 385.9 148 388.9 150.8 391.4C151.9 392.4 153.2 393.4 154.3 394.3C154.4 394.3 154.4 394.4 154.3 394.5ZM150.4 326.9C150.3 326.9 150.2 326.9 150.2 326.9C150.2 327.4 150.2 327.9 150.2 328.4C150.2 331.4 150.3 334.4 150.2 337.4C150.2 339.1 150 340.8 149.8 342.6C149.5 345.5 148.9 348.3 148.1 351.2C147 354.8 146.2 358.5 145.4 362.1C144.6 365.6 143.7 369.1 143.4 372.8C143 377.1 143.9 381.1 145.8 384.8C145.9 385 146.1 385.2 146.2 385.4C145.6 382.1 146 378.8 146.6 375.6C147.1 372.9 147.9 370.4 148.7 367.8C150.8 361.4 152.4 354.8 152.9 348.1C153.1 345.4 153 342.8 152.7 340.2C152.4 337.6 151.9 335.1 151.5 332.5C151.2 330.5 150.8 328.7 150.4 326.9ZM143.1 379.6C142.5 376.4 142.5 373.2 143.1 370C143.7 366.6 144.5 363.2 145.3 359.9C146.4 355.3 147.7 350.8 148.7 346.2C149.3 343.2 149.6 340 149.8 336.9C150 333.6 149.8 330.3 149.8 327C149.8 326.6 149.8 326.2 149.7 325.8C149.5 326.3 149.4 326.9 149.3 327.4C148.9 329.6 148.7 331.8 148.2 334C147.3 337.4 146.9 340.9 146.1 344.3C144.7 350.2 143.2 356.1 141.7 362.1C140.8 365.8 140.4 369.6 141 373.4C141.4 375.6 142 377.7 143.1 379.6Z" fill="#01686F"/>
<path d="M48 395.8C48.1 395.5 48.1 395.2 48.2 395C49.8 391.2 51.5 387.5 53.1 383.7C54 381.6 54.9 379.4 55.9 377.3C57.6 373.9 59.5 370.6 62.1 367.7C65.4 364 69.4 361.4 74.1 360C76 359.4 78 359.4 79.9 359.5C82.1 359.5 84.4 359.8 86.6 359.9C88.3 360 90 360.3 91.8 360.3C98.5 360.5 104.5 362.6 110.1 366.1C111.8 367.2 113.3 368.4 114.9 369.6C115.2 369.8 115.5 370.2 115.8 370.4C115.7 370.5 115.7 370.6 115.6 370.6C115.3 370.4 115 370.3 114.8 370.1C112.7 368.7 110.7 367.2 108.6 365.8C105.1 363.6 101.2 362.3 97 362C94.2 361.8 91.4 361.6 88.7 361.8C83.3 362.3 78.3 363.8 73.6 366.6C68.9 369.3 65 372.9 61.6 377.1C58.8 380.5 56.3 384.1 53.8 387.6C52.2 389.9 50.7 392.4 49.1 394.8C48.8 395.2 48.5 395.5 48.2 395.9C48.1 395.9 48 395.9 48 395.8ZM53.4 386.4C53.5 385.9 53.5 385.4 53.8 385C55.3 382.3 56.6 379.6 58.2 377.1C61.9 371.2 66.9 366.7 73 363.4C75.6 362 78.4 361 81.3 360.6C81.6 360.6 81.9 360.4 82.4 360.2C78.9 359.7 74.9 360.1 72.2 361.3C67.5 363.3 63.6 366.3 60.7 370.5C59.6 372.1 58.6 373.8 57.6 375.5C55.2 379.9 53.2 384.6 51.2 389.2C51.1 389.4 51.1 389.6 51.1 389.8C51.5 389.5 51.8 389.1 52 388.7C52.5 388 52.9 387.1 53.4 386.4C53.5 386.5 53.5 386.7 53.5 386.9C53.8 386.5 54 386.3 54.2 386C56.3 383.1 58.3 380.1 60.6 377.4C62.6 375 64.7 372.8 67 370.8C73 365.4 80 362.2 88.1 361.5C89.3 361.4 90.4 361.2 91.6 361.1C90.7 360.9 89.8 361 88.9 360.9C85.5 360.5 82.2 360.8 79 361.7C72.1 363.5 66.8 367.6 62.1 372.8C59.3 375.8 57.4 379.4 55.4 383C54.8 384 54.1 385.2 53.4 386.4Z" fill="#01686F"/>
<path d="M178.6 422.6C178 420.7 177.5 418.9 176.8 417.1C175 412.3 172.2 408.2 168.5 404.7C164.2 400.5 159.4 397.2 154 394.5C147.9 391.5 141.8 388.5 135.8 385.3C131.2 382.9 127 380 122.7 377C113.7 370.8 106.3 363 100 354.2C98.0002 351.3 96.1002 348.4 94.4002 345.3C90.1002 337.2 86.4002 328.8 83.4002 320.1C81.5002 314.6 79.7002 309.1 77.9002 303.6C76.4002 298.8 75.0002 293.9 73.5002 289.1C73.1002 287.8 72.6002 286.6 72.2002 285.2C72.8002 285.4 72.9002 285.9 73.1002 286.3C73.7002 287.8 74.2002 289.4 74.8002 290.9C75.5002 293.1 76.3002 295.2 76.9002 297.5C79.1002 305.7 81.9002 313.7 84.7002 321.7C87.4002 329.4 90.7002 336.7 94.4002 343.9C100.7 356 109.4 366.2 120.1 374.5C127 379.8 134.5 384.3 142.3 388.1C147.9 390.8 153.5 393.5 158.8 396.6C165.1 400.2 170.4 404.9 174.4 411.1C176.7 414.7 178.1 418.6 179.1 422.7C178.9 422.6 178.8 422.6 178.6 422.6Z" fill="#01686F"/>
<path d="M224.2 276.6C224.4 276.5 224.5 276.5 224.5 276.5C227.1 274.2 229.8 272 232.4 269.7C233.4 268.9 234.3 268.1 235.4 267.4C238.3 265.5 241 266.1 242.8 269C243.9 270.7 244.4 272.6 244.9 274.4C245.2 275.6 245.5 276.8 245.9 278C246.9 281.2 246.8 284.4 246.4 287.6C246 290.8 245.2 293.8 243.6 296.8C244.2 296.6 244.5 296.5 244.8 296.3C250.4 293.3 256.4 291 262.3 288.7C264.1 288 265.9 287.6 267.9 287.7C270.1 287.8 271.1 289.2 270.4 291.3C270.1 292.2 269.5 293 269.1 293.8C268.9 294.2 268.5 294.6 268.1 295.3C268.7 295.2 269.1 295.1 269.5 295.1C270.8 295 271.4 295.5 271.4 296.7C271.5 298.7 271.3 300.7 270.5 302.6C269.3 305.4 268.2 308.3 266.4 310.8C266.2 311.1 266 311.5 265.7 312.1C267 311.7 268.2 311.3 269.3 310.9C269.5 310.8 269.7 310.7 269.9 310.7C272.6 310.7 275.2 309.7 277.8 309.2C279.7 308.8 281.6 308.3 283.6 308.8C286 309.3 287.2 311.1 286.7 313.5C286.4 315.1 285.7 316.6 284.7 317.8C283.2 319.7 281.7 321.5 280.1 323.3C278.4 325.3 276.7 327.2 274.9 329.1C272.5 331.8 269.7 334 266.4 335.3C263.6 336.4 260.8 337 257.8 337.4C253.6 337.9 249.4 338.2 245.2 338.8C236.7 339.8 228.5 342 221.3 346.9C219.2 348.3 217.2 350 215.1 351.4C213.1 352.8 211 354.2 208.9 355.4C207.2 356.4 205.3 356.8 203.3 356.9C200.2 357.1 197.8 358.4 195.9 360.7C195.5 361.2 195.1 361.8 194.7 362.4C194.6 362.6 194.3 362.6 193.9 362.8C193.9 362.3 193.8 362 193.9 361.7C194.6 357.2 193.5 353.1 191.1 349.3C189.2 346.4 187.9 343.1 187.4 339.7C187.1 337.7 187 335.7 186.8 333.6C186.6 330.9 186.2 328.3 185.2 325.8C183 320.5 180.5 315.5 177.1 310.9C175.8 309.1 174.3 307.4 172.9 305.6C169.9 301.6 166.6 297.7 164.1 293.4C160.8 287.7 158.7 281.6 157.8 275.1C157.5 273.1 157.4 271.1 157.8 269C158 267.9 158.4 266.8 159.6 266.5C160.8 266.2 162 266.5 162.8 267.5C163.5 268.4 164.2 269.3 164.7 270.3C165.5 271.7 166.1 273.2 166.9 274.6C168.8 278.4 171.5 281.6 175 284.1C177.7 286 180.3 288 182.9 290.1C186.4 292.9 189.4 296.2 191.3 300.4C191.7 301.4 192.1 302.4 192.5 303.6C192.7 303.1 192.7 302.9 192.8 302.7C193.6 298.8 194.6 294.9 195.3 290.9C195.7 288.5 195.9 286 196.2 283.6C197.1 275.9 198.1 268.3 200.6 261C201.8 257.5 203.8 254.6 206.5 252.1C207.7 251 209 250 210.8 250C212.6 250 213.9 250.8 214.5 252.3C215.2 253.8 215.8 255.5 216 257.1C216.4 261 218 264.5 220.2 267.6C221.7 269.8 222.7 272.2 223.6 274.7C223.8 275.5 224 276.1 224.2 276.6ZM215.3 264.7C215.3 262.7 215.4 260.8 215.3 258.8C215.2 257.2 214.9 255.6 214.4 254.1C213.2 250.6 210.8 249.9 207.8 252.1C205.8 253.5 204.3 255.5 203.1 257.5C202.1 259.2 201.3 261 200.7 262.8C198.5 269.6 197.5 276.7 196.8 283.8C196.5 286.3 196.3 288.7 195.9 291.1C195.3 294.8 194.5 298.4 193.7 302C192.6 307.2 191.5 312.3 190.3 317.4C189.4 321.5 188.2 325.6 187.7 329.8C187.1 335.4 187.6 340.8 190 345.9C191.2 348.5 192.7 350.7 194.9 352.5C195.5 353 196.3 353.4 197 353.7C198.9 354.3 200.1 353.3 200 351.4C199.7 346 201.1 340.9 203.4 336.1C206.5 329.7 210.5 323.9 215.8 319.1C217 318 217.9 316.8 218.5 315.3C219.4 312.9 220.3 310.5 220.9 308.1C221.7 305.2 222.2 302.3 222.8 299.4C223.3 297.2 223.4 294.9 223 292.7C222.5 290 221.7 287.4 220.3 284.9C219.1 282.8 218.2 280.5 217.2 278.3C215.9 275.4 215.3 272.4 215.4 269.2C215.3 267.8 215.3 266.2 215.3 264.7ZM266.3 297.3C266.2 297.2 266.1 297.2 266 297.1C266.2 296.8 266.3 296.4 266.5 296.1C267.1 295.3 267.8 294.5 268.4 293.6C268.9 292.9 269.3 292.2 269.6 291.4C270.2 289.7 269.5 288.8 267.7 288.7C266.1 288.6 264.5 288.9 263 289.4C260.7 290.3 258.4 291.1 256.1 292.1C245.9 296.2 236.3 301.2 228.4 309.2C227.8 309.8 227 310.3 226.3 310.9C224.1 312.8 221.9 314.7 219.7 316.6C215 320.6 210.8 325 207.5 330.2C204.8 334.5 202.5 339 201.3 344C200.6 347 200.2 350.1 200.9 353.1C201.6 356.2 202.5 356.5 205.1 356.2C205.4 356.2 205.7 356.1 206 356C208.4 355.4 210.4 354 212.4 352.6C216.2 350 219.3 346.7 222.4 343.4C228.2 337.3 234.5 331.8 241.9 327.7C243.9 326.6 245.8 325.5 247.7 324.3C251.5 322 255.3 319.6 259 317.2C261.3 315.7 263.2 313.8 264.8 311.6C266.8 308.8 268.1 305.8 269.5 302.7C270.2 301.1 270.5 299.4 270.5 297.6C270.5 297.1 270.3 296.5 270.3 296.1C268.6 295.7 267.6 297 266.3 297.3ZM224.5 277.6C224.6 278.1 224.7 278.6 224.8 279C225.2 281.4 225.8 283.8 225.9 286.2C226.2 290.5 225.6 294.7 224.5 298.9C223.6 302.2 222.8 305.4 221.8 308.7C221.4 310.2 220.7 311.7 220.2 313.2C219.9 314.1 219.3 314.9 219.3 316.1C220.2 315.5 220.9 315 221.6 314.4C224.3 312 226.9 309.6 229.5 307.2C233 304 236.8 301.3 240.9 298.9C241.9 298.3 242.5 297.6 242.9 296.6C243.6 294.8 244.1 292.9 243.7 290.9C243.5 289.6 243.3 288.3 242.8 287.1C241.1 282.5 241 277.8 241.5 273C241.6 271.8 241.4 270.5 241.2 269.3C240.9 267.8 239.9 267.1 238.4 267.3C237.6 267.4 236.8 267.7 236.1 268.1C235.3 268.5 234.7 269.1 234 269.6C231.8 271.4 229.6 273.2 227.5 275C226.4 275.7 225.5 276.6 224.5 277.6ZM285.4 311C284 309.5 282.3 309.3 280.5 309.7C277.5 310.2 274.6 310.8 271.7 311.5C270.6 311.8 269.5 311.9 268.4 312.2C266.7 312.7 264.9 313.1 263.6 314.4C261.6 316.4 259.3 318.2 256.9 319.7C251.9 322.8 246.8 325.8 241.7 328.8C236.6 331.8 231.8 335.2 227.6 339.4C227.3 339.7 227 340 226.8 340.3C227.1 340.3 227.3 340.2 227.4 340.1C230.3 337.9 233.5 336.1 236.8 334.5C243.4 331.3 250.4 330.2 257.6 331.7C260.2 332.2 262.8 332.6 265.4 333.2C267.5 333.6 269.4 333.1 271 331.9C272.1 331.1 273.1 330.2 274 329.2C276.9 326 279.7 322.8 282.5 319.5C283.5 318.4 284.3 317.1 285.1 315.8C285.9 314.3 286.2 312.7 285.4 311ZM186.4 327.4C186.7 323.2 186.3 319.1 185.8 315C185 309.2 183.2 303.7 180.6 298.5C178 293.2 174.5 288.5 171.4 283.5C169 279.6 166.3 275.9 164.5 271.6C164.2 270.8 163.7 270.1 163.2 269.4C162.9 269 162.6 268.6 162.2 268.2C160.6 266.7 159 267.2 158.6 269.3C158.1 271.4 158.3 273.4 158.6 275.5C159.6 282.4 161.8 288.8 165.7 294.6C168.3 298.5 171.3 302.2 174.1 306C175.4 307.8 176.9 309.5 178.2 311.3C181.7 316.1 184.3 321.4 186.3 326.9C186.2 327.1 186.3 327.2 186.4 327.4ZM172.6 283.5C172.5 283.6 172.4 283.7 172.3 283.8C172.5 284.2 172.7 284.5 172.9 284.9C174.5 287.3 176.1 289.7 177.6 292.1C180.9 297.4 183.7 302.9 185.2 308.9C186.4 313.4 186.9 318.1 187.1 322.8C187.1 324 187.1 325.2 187.1 326.4C187.4 326.1 187.5 325.9 187.6 325.6C188.9 320 190.2 314.3 191.5 308.7C192 306.7 191.9 304.8 191.1 302.8C190.3 300.7 189.4 298.6 187.9 296.9C186.2 294.9 184.4 292.9 182.4 291.2C179.3 288.4 175.9 286 172.6 283.5ZM267.1 334.4C267.1 334.3 267.1 334.2 267.1 334.1C266 334 264.9 333.8 263.8 333.7C261.2 333.2 258.5 332.7 255.9 332.2C252.3 331.5 248.8 331.7 245.2 332.4C241.4 333.2 237.9 334.7 234.4 336.5C230 338.8 226.1 341.9 222.1 345C221.8 345.2 221.6 345.5 221.3 345.9C221.5 345.9 221.5 345.9 221.6 345.9C221.8 345.8 221.9 345.7 222.1 345.7C228 342 234.5 340 241.3 338.9C245.3 338.3 249.4 338 253.4 337.6C256.9 337.2 260.4 336.7 263.8 335.7C265 335.3 266.1 334.8 267.1 334.4ZM223.9 297.3C224 297.2 224.1 297.1 224.1 297C225.1 292.7 225.5 288.4 225 284C224.3 278.6 222.9 273.5 219.9 268.8C218.6 266.9 217.7 264.7 216.6 262.6C216.5 262.5 216.4 262.3 216.1 262C216.1 264.7 216.1 267 216.1 269.4C216.1 270.3 216.1 271.1 216.2 272C216.5 275 217.6 277.8 218.9 280.5C219.8 282.3 220.8 284 221.5 285.8C223 289.2 224 292.8 223.8 296.6C223.8 296.8 223.9 297 223.9 297.3ZM242.3 269.7C242.2 269.7 242.2 269.7 242.1 269.8C242.1 270.2 242.1 270.6 242.1 270.9C242.1 272.6 242.2 274.3 242 276C241.7 278.5 242 281 242.6 283.4C243.3 286.2 244.7 288.9 244.6 291.9C244.8 291.7 244.9 291.5 245 291.3C245.4 288.8 245.8 286.4 246 283.9C246.2 281.9 245.7 280 245.1 278C244.4 275.8 243.8 273.5 243.2 271.3C242.9 270.8 242.6 270.3 242.3 269.7Z" fill="#01686F"/>
<path d="M214.2 253.2C214.7 254.6 214.4 256 214 257.4C212.3 264.3 210.6 271.2 208.8 278.1C207.6 282.7 206.3 287.3 205 291.8C204.9 292 204.8 292.3 204.6 292.5C204.9 291.3 205.2 290.1 205.5 288.9C208.1 278.6 210.7 268.2 213.3 257.9C213.7 256.3 213.9 254.7 214.2 253.2Z" fill="#01686F"/>
<path d="M196.6 350.1C196.2 346.6 196.2 342.9 196.5 339.2C197.2 330.1 199.9 321.5 203.2 313.1C203.9 311.3 204.6 309.4 205.6 307.6C205 309.2 204.4 310.8 203.9 312.5C202.1 317.4 200.3 322.3 199 327.4C198.1 331.2 197.3 335.1 197 339C196.8 342.8 196.7 346.6 196.6 350.1Z" fill="#01686F"/>
<path d="M231.2 330.7C230.9 331 230.6 331.4 230.3 331.7C228 334.2 225.7 336.6 223.5 339.2C220.4 342.7 217.4 346.3 214.3 349.8C212.6 351.8 210.7 353.6 208.5 355C207.3 355.8 206 356.4 204.3 356.7C204.6 356.5 204.6 356.3 204.8 356.3C208.3 355 211.1 352.7 213.5 350C215.8 347.4 218 344.6 220.3 342C223.7 338.3 227.2 334.6 230.7 330.9C230.8 330.8 230.9 330.7 231.1 330.6C231.1 330.6 231.2 330.6 231.2 330.7Z" fill="#01686F"/>
<path d="M190.2 346.9C189.3 345.8 189.1 344.4 189 343.1C188.2 336.5 189.4 330.1 191.2 323.8C191.9 321.2 192.8 318.6 193.7 316C193.8 315.8 193.9 315.6 194.1 315.5C193.6 317.4 193 319.3 192.5 321.2C191.4 325.1 190.3 328.9 189.8 332.9C189.3 337.5 188.9 342.1 190.3 346.7C190.3 346.7 190.3 346.8 190.2 346.9Z" fill="#01686F"/>
<path d="M234.8 308.3C234.8 308.3 234.8 308.2 234.9 308.2C241.3 302 248.1 296.4 256 292.1C258.3 290.9 260.8 290.2 263.2 289.2C263.3 289.1 263.5 289.2 263.7 289.3C263.5 289.4 263.3 289.6 263.1 289.6C256.1 291.9 250.1 295.9 244.4 300.4C242.8 301.7 241.1 303 239.5 304.3C238.1 305.5 236.8 306.7 235.5 307.9C235.3 308.1 235 308.2 234.8 308.3Z" fill="#01686F"/>
<path d="M221.4 287.3C221.4 288.4 221.5 289.5 221.4 290.6C221 294.9 220.1 299 218.9 303.2C217.5 307.9 216 312.6 214.2 317.2C214 317.6 213.8 318.1 213.6 318.5C215.2 313.4 216.9 308.3 218.4 303.1C219.9 298 220.9 292.7 221.1 287.3C221.2 287.3 221.3 287.3 221.4 287.3Z" fill="#01686F"/>
<path d="M215.4 329.7C209.3 336.8 203.4 343.9 200.8 353.1C200.7 353.1 200.6 353 200.5 353C200.8 352 201 351 201.3 350.1C203.3 344.8 206.2 340.1 209.8 335.8C211.6 333.7 213.3 331.6 215.1 329.5C215.2 329.6 215.3 329.6 215.4 329.7Z" fill="#01686F"/>
<path d="M237.8 294.2C233.8 300.7 230.1 307.4 224.6 312.8C224.5 312.7 224.4 312.6 224.3 312.6C225.9 310.7 227.6 308.8 229.1 306.9C230.7 304.8 232.1 302.7 233.5 300.5C234.9 298.4 236.3 296.3 237.7 294.2C237.7 294.1 237.8 294.1 237.8 294.2Z" fill="#01686F"/>
<path d="M211.1 250.5C209.6 253.8 208.1 256.8 206.8 259.9C205.5 263 204.5 266.3 203.5 269.1C203.8 264.9 208.6 252.4 211.1 250.5Z" fill="#01686F"/>
<path d="M243.8 311.1C235.9 316.7 228 322.4 221.3 329.5C222.6 326.9 234.4 317.2 243.8 311.1Z" fill="#01686F"/>
<path d="M232.9 293C236 286.1 239.5 279.4 241.5 272.1C241.6 272.1 241.7 272.1 241.8 272.1C241.8 272.5 241.8 272.9 241.6 273.3C240.6 276 239.8 278.8 238.7 281.5C237 285.4 235.1 289.2 233.2 293.1C233.1 293.1 233 293.1 232.9 293Z" fill="#01686F"/>
<path d="M215.2 266.7C216.4 268.8 212.9 284.1 211.1 287.8C211.7 285.5 212.3 283.3 212.7 281C213.5 277.3 214.2 273.6 214.9 270C215.2 268.9 215.1 267.8 215.2 266.7Z" fill="#01686F"/>
<path d="M189 319.2C188.9 318.9 188.8 318.5 188.8 318.2C188.7 315.1 187.7 312.2 186.4 309.4C185.2 306.8 183.9 304.2 182.7 301.6C182.6 301.4 182.5 301.2 182.5 301C184.5 303.6 185.7 306.7 187.1 309.7C188.5 312.7 189.5 315.8 189.3 319.2C189.3 319.2 189.2 319.2 189 319.2Z" fill="#01686F"/>
<path d="M177 286.6C182.9 291.1 186.4 297.4 189.3 304.1C187.5 301 185.7 297.9 183.8 294.9C182 291.8 179.5 289.1 177 286.6Z" fill="#01686F"/>
<path d="M274.1 319.7C266.2 324.1 258 327.4 249.7 330.5C257.8 327 265.9 323.4 274.1 319.7Z" fill="#01686F"/>
<path d="M268.2 304.2C266.9 306.9 265 309 262.8 311.1C259.9 313.9 256.6 316.2 253.2 318.4C252.9 318.6 252.5 318.8 252.1 318.9C258.1 314.6 264.1 310.4 268.2 304.2Z" fill="#01686F"/>
<path d="M233.8 335.9C240.8 331 247.9 326.3 256.1 323.6C248.1 326.7 241 331.4 233.8 335.9Z" fill="#01686F"/>
<path d="M255.5 303.9C256 303.5 256.6 303.1 257.1 302.7C260.6 300.5 264.1 298.3 267.6 296.2C268.2 295.8 268.9 295.4 269.8 295.6C265 298.4 260.3 301.2 255.6 304C255.6 304 255.6 303.9 255.5 303.9Z" fill="#01686F"/>
<path d="M192.7 351.7C192.5 351.4 192.3 351 192.1 350.7C191.1 348.5 190.7 346.2 190.7 343.8C190.7 340.6 191 337.5 191.6 334.4C191.7 334.1 191.8 333.8 192 333.2C191.9 334.5 191.8 335.5 191.7 336.5C191.5 338.7 191.3 341 191.2 343.2C191.1 345.8 191.6 348.3 192.6 350.7C192.7 351 192.8 351.3 192.9 351.6C192.9 351.6 192.8 351.7 192.7 351.7Z" fill="#01686F"/>
<path d="M234.7 269.4C234.4 269.7 233.9 270 233.7 270.3C232.7 271.9 231.7 273.5 230.9 275.1C229.7 277.8 228.6 280.5 227.4 283.2C227.3 283.4 227.2 283.7 227 284C227.4 280 232.2 270.2 234.6 268.4C234.6 268.7 234.7 268.9 234.7 269.1C234.7 269.3 234.7 269.4 234.7 269.4Z" fill="#01686F"/>
<path d="M203.6 336.2C205.8 331 207.9 325.8 210.2 320.5C209.9 322.9 205 335 203.6 336.2Z" fill="#01686F"/>
<path d="M267.3 315C269.2 314.2 271 313.5 272.9 312.8C274.4 312.2 275.9 311.4 277.5 311.1C279.9 310.7 282.1 309.6 284.6 309.9C284.6 309.9 284.7 310 284.8 310.1C284.3 310.2 283.9 310.3 283.5 310.4C282.2 310.6 280.9 310.6 279.7 311C277.3 311.7 275 312.6 272.7 313.4C271 314 269.2 314.6 267.5 315.3C267.4 315.2 267.3 315.1 267.3 315Z" fill="#01686F"/>
<path d="M210.8 297.4C208.8 303.4 206.7 309.3 204.1 315.1C206.2 309.2 208.3 303.2 210.5 297.3C210.6 297.4 210.7 297.4 210.8 297.4Z" fill="#01686F"/>
<path d="M265.8 330.5C270.3 328.1 274.8 325.7 279.3 323.3C278.2 325 269.9 329.4 265.8 330.5Z" fill="#01686F"/>
<path d="M234.5 302C237.5 297.2 240.7 292.6 242.6 287.1C242.8 287.7 242.6 288.2 242.4 288.6C241.5 290.5 240.7 292.5 239.7 294.3C238.2 297.1 236.5 299.6 234.5 302Z" fill="#01686F"/>
<path d="M241.3 320C236.5 323.7 231.9 327.4 227.6 332.1C228.5 329.9 236.9 322.6 241.3 320Z" fill="#01686F"/>
<path d="M234.7 269.4C234.7 269.4 234.8 269.3 234.8 269.2C235.2 268.6 235.7 268.1 236.1 267.5C236.2 267.5 236.3 267.6 236.3 267.6C236.1 268 236 268.4 235.7 268.8C234.2 271.4 232.8 274 231.3 276.6C230.9 277.3 230.6 278 230.1 278.6C230.4 277.9 230.6 277.1 231 276.4C232 274.4 233 272.5 234 270.6C234.3 270.2 234.5 269.8 234.7 269.4Z" fill="#01686F"/>
<path d="M285.5 315.1C285.2 315.4 284.9 315.8 284.6 316C281.1 318 277.5 320 274 322C274 322 273.9 322 273.9 321.9C277.8 319.6 281.6 317.3 285.5 315.1Z" fill="#01686F"/>
<path d="M186.9 305.3C188.8 308 190.8 314.9 190.3 317.3C189.8 315 189.5 313 189 311.1C188.4 309.1 187.6 307.2 186.9 305.3Z" fill="#01686F"/>
<path d="M259.8 294.1C262.7 292 265.7 290.2 268.9 288.8C269 288.9 269 289 269.1 289.1C266 290.8 262.9 292.5 259.8 294.1Z" fill="#01686F"/>
<path d="M212.6 251C211.1 253.9 209.6 256.7 208.2 259.6C209 256.4 210.7 253.6 212.2 250.7C212.3 250.9 212.4 251 212.6 251Z" fill="#01686F"/>
<path d="M263.5 300.9C265.4 299.2 269.5 297 270.8 297.1C268.2 298.4 265.9 299.6 263.5 300.9Z" fill="#01686F"/>
<path d="M285.1 311.2C282.3 311.9 279.4 312.7 276.6 313.4C276.6 313.3 276.6 313.3 276.5 313.2C277.8 312.8 279.2 312.4 280.5 311.9C281.5 311.6 282.4 311.2 283.4 311C283.9 310.9 284.5 311 285 311C285.1 311.1 285.1 311.2 285.1 311.2Z" fill="#01686F"/>
<path d="M270.7 329.6C272.5 328.5 274.4 327.5 276.2 326.4C276.3 326.5 276.3 326.6 276.4 326.7C274.7 328 272.7 328.9 270.8 329.8C270.8 329.8 270.7 329.7 270.7 329.6Z" fill="#01686F"/>
<path d="M206.1 338.8C207.4 336.9 208.8 335.1 210.1 333.2C210.2 333.3 210.2 333.3 210.3 333.4C209 335.3 207.6 337.1 206.3 339C206.3 338.9 206.2 338.8 206.1 338.8Z" fill="#01686F"/>
<path d="M269.7 290C268.2 290.7 266.8 291.5 265.3 292.2C266.6 291.1 268 290.2 269.5 289.7C269.6 289.9 269.7 289.9 269.7 290Z" fill="#01686F"/>
<path d="M217.9 327C217.3 327.6 216.7 328.3 216.1 328.9C216.7 328.3 217.4 327.7 218 327.1C217.9 327 217.9 327 217.9 327Z" fill="#01686F"/>
<path d="M234.8 308.3C234.2 309 233.6 309.6 233 310.3C232.9 310.2 232.8 310.1 232.7 310C233.4 309.4 234.1 308.8 234.8 308.3Z" fill="#01686F"/>
<path d="M181.7 422.7C181.7 422.2 181.6 421.8 181.6 421.3C181.5 414.7 181.5 408.1 181.3 401.5C181.1 394.9 181.9 388.5 183.8 382.1C184.7 379 186.3 376.1 188.1 373.4C188.4 372.9 188.9 372.5 189.2 372C191.2 369.2 192.7 366 193.6 362.7C194 361.5 194.6 360.3 195.1 359.1C195.2 358.8 195.5 358.6 195.6 358.3C195.7 358.3 195.8 358.4 195.9 358.4C195.8 358.8 195.8 359.2 195.6 359.5C194.7 361.9 193.6 364.2 192.8 366.6C191.9 369.4 190.3 371.6 188.7 373.9C187.1 376.2 185.8 378.6 184.9 381.2C183.6 384.9 182.8 388.7 182.4 392.6C182 396.4 181.9 400.2 182.1 404C182.3 409.8 182.3 415.6 182.4 421.4C182.5 422.1 182.7 422.7 181.7 422.7Z" fill="#01686F"/>
<path d="M75.7001 156.1C75.3 155.5 75 155.2 74.7001 154.9C71.8001 151.5 69.4001 147.7 67.4001 143.7C65.4001 139.4 63.6001 135.1 62.8001 130.4C62.4001 127.9 62.4001 125.5 62.8001 123C63.4001 119.3 64.0001 115.6 64.9001 111.9C65.4001 109.9 66.2001 108.1 67.0001 106.2C67.4001 105.4 67.9001 104.6 68.5001 104C69.8001 102.5 71.4001 102.3 73.2001 103.2C74.1001 103.7 74.9001 104.3 75.7001 104.9C77.7001 106.6 79.9001 108 82.2001 109.2C82.5 109.4 82.8 109.5 83.2001 109.7C83.4001 108.6 83.6001 107.6 83.8001 106.6C84.9001 102.2 86.8001 98.3002 89.8001 95.0002C92.1001 92.5002 95.1001 91.2002 98.5001 90.8002C100 90.6002 101.5 90.4002 103 90.2002C106.1 89.8002 109.1 89.9002 112.1 90.8002C112.5 90.9002 112.9 91.1002 113.3 91.3002C117.8 93.4002 121 96.7002 123.2 101C123.8 102.2 124.4 103.5 124.8 104.8C125.2 106.1 125.5 107.4 125.8 108.8C126.1 108.4 126.4 108 126.7 107.6C128.1 105.7 129.6 103.9 131.4 102.5C132.8 101.4 134.3 100.6 136.1 100.6C136.9 100.6 137.6 100.8 138 101.8C138.4 101.4 138.7 101 139 100.7C139.8 99.8002 140.7 99.5002 141.9 99.8002C144.4 100.4 146 101.9 147.1 104.1C147.9 105.7 148.2 107.5 148.4 109.2C148.9 114.1 148.7 119.1 148.4 124C148 129.6 146.4 135 144.3 140.2C142 146 139 151.3 134.9 156C133.3 157.8 131.4 159.4 129.7 161.1C129.4 161.4 129.1 161.6 128.6 162.1C129.2 162 129.4 162 129.7 161.9C134.1 160.4 138.3 158.8 142.4 156.6C143.3 156.1 143.9 155.5 144.4 154.6C145.9 151.9 147.3 149.2 149.4 147C150.8 145.5 152.3 143.8 153.9 142.5C156.3 140.6 159.1 140 162.1 140.3C163.4 140.4 164.2 141.3 164.7 142.6C165.3 144.2 165.3 145.8 164.8 147.3C164.4 148.6 164 150 163.3 151.2C159.6 157 155.9 162.8 151.5 168.2C149.7 170.4 147.6 172.2 145.3 173.9C141 177.1 136.1 178.6 130.7 178.8C125.6 179 120.7 178 116.1 175.8C115.8 175.7 115.5 175.5 115.3 175.4C115.2 175.4 115.1 175.4 115 175.4C115 175.6 115 175.8 115 176C115.8 179.5 115.1 182.7 113.2 185.7C111.5 188.5 109.1 190.7 106.4 192.4C104.2 193.8 101.9 195 99.7001 196.3C97.4001 197.6 94.9001 197.6 92.4001 197C90.9001 196.7 89.4001 196.1 88.0001 195.6C86.4001 195 84.8 194.3 83.2001 193.5C82 192.9 80.7001 192.2 79.6001 191.5C77.2001 189.9 76.5 187.8 77.2001 184.5C77.6001 182.7 78.7001 181.2 80.1001 180.1C81.6001 179 83.2001 178 84.7001 177C85 176.8 85.4001 176.6 85.8001 176.1C85.4001 176.1 84.9001 176 84.5001 176C81.5001 176.1 78.6001 175.8 75.8001 174.9C72.3001 173.9 68.7001 172.8 65.2001 171.5C59.9001 169.6 54.4001 168 48.9001 166.7C47.4001 166.3 45.8001 165.8 44.4001 165.2C43.7001 164.9 42.9001 164.4 42.4001 163.9C41.4001 163 41.4001 161.9 42.5001 161.1C43.3001 160.5 44.2001 160 45.2001 159.6C47.8001 158.6 50.4001 157.8 53.0001 156.7C57.3001 154.9 61.7001 154.2 66.3001 154.5C69.0001 154.6 71.6 155 74.2001 155.7C74.6001 155.9 75 155.9 75.7001 156.1ZM107.9 167.6C109 164.9 109.5 162 109.6 159.1C109.8 155.9 109.6 152.7 109.1 149.5C108.6 146.2 108 142.8 106.9 139.6C105.5 135.6 103.4 131.9 101.1 128.3C96.4001 121 90.7001 114.9 83.2001 110.5C80.1001 108.6 77.0001 106.7 74.1001 104.5C71.6001 102.5 70.0001 102.6 68.0001 105.6C67.8001 105.9 67.6001 106.3 67.4001 106.6C66.8001 108.1 66.1001 109.5 65.7001 111.1C64.9001 114.7 64.2001 118.4 63.5001 122C62.9001 125.3 62.9001 128.5 63.7001 131.8C65.4001 138.8 68.5001 145.2 72.6001 151.1C76.7001 156.9 81.8001 161.4 88.3001 164.3C92.9001 166.3 97.7001 167.5 102.7 167.8C104.7 168 106.3 168.2 107.9 167.6ZM137.3 101.6C135.7 101 134 101.5 133.1 102.8C131.6 104.8 130.7 107.1 129.7 109.4C128 113.7 125.7 117.7 122.7 121.2C120.8 123.4 118.6 125.4 116.5 127.5C115.2 128.8 114.1 130.1 113.3 131.7C111.1 136.2 110.1 140.9 109.9 145.9C109.8 148.7 110.2 151.4 110.3 154.2C110.5 158.6 110.2 162.9 108.8 167C108.7 167.3 108.7 167.6 108.7 167.9C110.4 168.5 112 168.3 113.6 168C121.7 166.4 128.3 162.2 133.8 156.2C137.7 152 140.6 147 142.9 141.8C146.3 134.3 148 126.5 148 118.3C148 115.3 148 112.3 147.7 109.3C147.6 107.8 147.2 106.2 146.6 104.8C145.8 102.8 144.4 101.3 142.2 100.6C140.8 100.2 140.2 100.3 139.3 101.5C138.6 102.4 138.1 103.4 137.4 104.3C137.2 104.6 136.9 104.9 136.7 105.2C136.6 105.1 136.5 105.1 136.4 105C136.5 103.8 137.7 102.8 137.3 101.6ZM109 144.5C109.1 144.5 109.2 144.5 109.3 144.5C109.5 142.8 109.7 141.1 110.1 139.4C111.5 131.6 114.8 124.6 119.6 118.3C121.4 115.9 123.1 113.4 124.9 110.9C125.2 110.4 125.4 109.8 125.4 109.2C125.4 108.5 125.2 107.8 125.1 107.2C124 102.1 121.2 97.9002 117.3 94.4002C115.7 92.9002 113.7 92.0002 111.6 91.4002C108.8 90.6002 106 90.5002 103.1 91.0002C101.6 91.2002 100.2 91.4002 98.7001 91.6002C95.6001 92.0002 92.8001 93.0002 90.6001 95.5002C87.5001 99.1002 85.5001 103.2 84.5001 107.8C84.3001 108.6 84.3 109.5 84.2001 110.3C84.7001 110.7 85.1001 110.9 85.5001 111.2C90.2001 114.3 94.4001 117.9 97.8001 122.5C99.5001 124.7 101.1 126.9 102.6 129.2C105.2 133.3 107.2 137.6 108.5 142.3C108.7 142.9 108.8 143.7 109 144.5ZM101.1 191.7C101.5 191.7 101.9 191.6 102.3 191.6C105.3 191.2 107.9 189.8 110.2 188C113.3 185.7 114.7 182.4 114.8 178.7C114.8 174.8 112.8 171.7 109.8 169.3C108.7 168.4 106.6 168.4 105.7 169.2C104.1 170.8 102 171.6 100.1 172.6C97.6001 173.9 94.9001 174.6 92.2001 175.4C91 175.7 89.7001 175.7 88.5001 176.2C85.8001 177.3 83.2001 178.7 80.9001 180.6C79.6001 181.7 78.4001 183.1 78.0001 184.8C77.5001 186.9 77.7001 188.8 79.5001 190.3C81.8001 192.2 84.3001 192.8 87.1001 192.4C88.8001 192.2 90.4001 191.7 92.0001 191.3C93.5001 190.9 95.1001 190.8 96.6001 191.1C98.2001 191.3 99.7001 191.5 101.1 191.7ZM123.4 177.3C123.8 177.4 124.2 177.5 124.6 177.6C126.9 178 129.2 178 131.6 177.9C136.2 177.7 140.4 176.3 144.2 173.7C147.9 171.2 150.9 168.1 153.5 164.5C156 161 158.4 157.5 160.7 154C161.7 152.6 162.7 151.1 163.4 149.6C164.4 147.5 165.1 145.2 164.2 142.8C163.7 141.3 163 140.8 161.4 140.8C158.9 140.8 156.6 141.4 154.6 143C151.4 145.6 148.7 148.6 146.7 152.2C145.2 154.8 143.9 157.5 142.5 160.1C141 163.2 139 166 136.8 168.6C134.5 171.2 132 173.4 129 175.1C127.3 176.3 125.4 176.8 123.4 177.3ZM104.7 168.9C102.1 168.6 99.6001 168.4 97.2001 167.9C90.3 166.5 84.1001 163.7 78.9001 159C77.3001 157.6 75.6001 156.8 73.6001 156.2C72.9001 156 72.2001 155.9 71.6001 155.8C67.7001 155 64.0001 155.4 60.5001 157.2C59.6001 157.6 58.8001 158.2 57.9001 158.6C56.2001 159.3 54.5001 160.1 52.7001 160.6C51.2001 161 49.6001 160.8 48.0001 161C46.8001 161.1 45.5001 161.3 44.3001 161.5C43.5001 161.6 43.0001 162.1 42.6001 162.9C43.4001 164.1 44.5001 164.9 46.1001 165C50.3001 165.2 54.4001 164.3 58.6001 163.5C62.8001 162.7 67.0001 162.8 70.9001 164.6C73.5001 165.7 76.0001 167 78.5001 168.2C81.2001 169.5 83.9001 170.9 86.7001 172.1C89.9001 173.4 93.2001 173.8 96.6001 173C99.3001 172.3 101.7 171 104.1 169.6C104.2 169.4 104.4 169.2 104.7 168.9ZM111.2 169.2C112 170.2 112.8 171.2 113.5 172.3C114.2 173.4 114.6 174.7 116.2 174.7C116.3 174.7 116.4 174.9 116.5 175C118.2 175.9 120 176.6 121.9 176.6C124.7 176.5 127.2 175.6 129.5 174.1C131.1 173 132.6 171.9 134 170.6C137.6 167.2 140.3 163.2 142.4 158.8C142.6 158.4 142.8 157.9 143.1 157.2C142.6 157.4 142.4 157.5 142.1 157.6C139.8 158.6 137.5 159.7 135.2 160.6C132.9 161.5 130.6 162.3 128.3 162.9C127.2 163.2 126.2 163.6 125.2 164.2C122.4 166 119.4 167.3 116.2 168.1C114.7 168.4 112.9 168.8 111.2 169.2ZM48.1001 165.6C48.1001 165.7 48.1001 165.7 48.0001 165.8C48.1001 165.9 48.2001 165.9 48.3001 166C48.6001 166.1 48.9001 166.2 49.2001 166.2C54.9001 167.5 60.6001 169.1 66.1001 171.2C69.1001 172.3 72.1001 173.2 75.1001 174.1C76.2001 174.4 77.4001 174.3 78.4001 174.7C79.4001 175.1 80.5001 175.2 81.5001 175.3C83.4001 175.4 85.2001 175.5 87.1001 175.3C88.9001 175.2 90.7001 174.8 92.5001 174.5C92.8001 174.5 93 174.3 93.2001 174.2C91.7001 174 90.2001 173.8 88.8001 173.5C85.8001 172.9 83.0001 171.4 80.3001 170.1C76.8001 168.4 73.4001 166.6 69.8001 165C66.5001 163.6 63.1001 163.3 59.5001 164C57.1001 164.5 54.7001 164.8 52.3001 165.2C51.0001 165.4 49.5001 165.5 48.1001 165.6ZM85.0001 193.3C86.9001 194.5 90.9001 196 92.8001 196.4C95.7001 197 98.4001 196.6 100.8 194.9C101.3 194.6 101.8 194.4 102.3 194.1C103.8 193.2 105.4 192.2 106.9 191.3C106.7 191.1 106.6 191.1 106.5 191.1C103.7 192.4 100.9 192.6 97.9001 192C96.1001 191.6 94.3001 191.4 92.5001 192C90.2001 192.7 87.8001 193.2 85.0001 193.3ZM114.5 128.4C115.9 127 117.4 125.6 118.8 124.1C123.1 120 126.4 115.2 128.7 109.8C129.5 107.9 130.5 106 131.3 104.2C131.3 104.1 131.3 104 131.4 103.6C130.9 104.1 130.5 104.3 130.2 104.7C128.9 106.3 127.6 107.9 126.4 109.6C124.2 112.7 122.1 115.8 119.9 118.8C119.3 119.6 118.7 120.4 118.2 121.2C116.8 123.5 115.4 125.8 114.5 128.4ZM46.0001 160.2V160.3C47.4001 160.3 48.8001 160.3 50.1001 160.1C51.3001 160 52.7001 159.9 53.8001 159.5C56.8001 158.2 59.7001 156.7 62.6001 155.3C61.8001 155.2 60.9001 155.2 60.2001 155.4C58.3001 155.8 56.3001 156.2 54.4001 156.8C51.9001 157.6 49.6001 158.6 47.1001 159.6C46.8001 159.9 46.4001 160 46.0001 160.2Z" fill="#01686F"/>
<path d="M90.8002 166C86.4002 167.3 82.0002 166.3 77.6002 165.8C81.6002 165.7 85.7002 166.7 90.0002 165.7C89.6002 165.4 89.4002 165.2 89.2002 165.1C85.2002 163.1 82.2002 160.1 79.8002 156.4C76.1002 150.6 73.6002 144.3 71.5002 137.7C71.2002 136.8 71.0002 136 70.7002 135.1C70.7002 135 70.7002 134.9 70.8002 134.7C71.3002 136.1 71.7002 137.4 72.2002 138.7C74.3002 144.6 76.6002 150.4 80.0002 155.8C82.5002 159.7 85.6002 162.9 89.8002 165.1C90.2002 165.3 90.5002 165.5 90.9002 165.8C90.8002 165.8 90.8002 165.9 90.8002 166Z" fill="#01686F"/>
<path d="M72.1001 117.7C73.6001 126.8 76.2001 135.6 79.6001 144.2C80.8001 147.3 82.2001 150.3 83.7001 153.3C85.4001 156.7 87.6001 159.6 90.4001 162.1C90.5001 162.2 90.6001 162.3 90.7001 162.5C89.2001 161.3 87.8001 160 86.6001 158.5C84.0001 155.2 82.0001 151.5 80.4001 147.6C77.2001 139.6 74.4001 131.5 72.8001 123C72.5001 121.3 72.3001 119.5 72.1001 117.7Z" fill="#01686F"/>
<path d="M116.7 167.3C128.2 159 136.1 148.2 139.5 134.3C137.9 141.9 135 148.9 130.2 155C126 160.5 119.2 166.7 116.7 167.3Z" fill="#01686F"/>
<path d="M106.6 148.6C108.6 154.5 109.7 160.6 108.9 167.1C114.1 163.4 117.3 158.3 120.7 153.2C119.3 156.9 112.6 166.1 108.3 167.8C108.7 164.5 108.9 161.3 108.4 158.1C107.8 155 107.2 151.8 106.6 148.6Z" fill="#01686F"/>
<path d="M109.6 168.1C109.8 167.9 110 167.8 110.2 167.7C114.5 165.4 117.8 162.1 120.6 158.2C123.5 154.2 125.8 149.8 127.9 145.4C128.1 145 128.3 144.7 128.6 144.3C125.5 152 121.8 159.2 115.4 164.8C113.9 166.1 112.1 167 110.4 168.1C110.2 168.2 110 168.2 109.8 168.3C109.8 168.2 109.7 168.1 109.6 168.1Z" fill="#01686F"/>
<path d="M90.0002 131.7C94.8002 141.3 98.2002 151.5 101.6 161.6C97.8002 151.6 94.2002 141.5 90.0002 131.7Z" fill="#01686F"/>
<path d="M103.9 130.3C103.4 128.8 103 127.3 102.4 125.8C101 122.5 100.2 119 99.7002 115.5C99.3002 112.6 99.1002 109.8 98.8002 106.9C98.6002 105.3 98.6002 103.6 98.7002 101.9C98.8002 102.1 98.9002 102.4 99.0002 102.6C99.1002 103.8 99.2002 105 99.3002 106.2C99.6002 111.2 100.2 116.1 101.4 120.9C102.1 123.9 103.2 126.8 104.1 129.7C104.1 129.8 104.2 130 104.2 130.2C104 130.2 104 130.2 103.9 130.3Z" fill="#01686F"/>
<path d="M87.7002 113C90.3002 114.8 98.3002 132.3 99.2002 137.5C97.5002 133.4 95.7002 129.2 94.0002 125C92.1002 120.8 90.0002 116.9 87.7002 113Z" fill="#01686F"/>
<path d="M111.4 112.8C112.3 125.4 111.5 136.7 110.1 140.3C109.7 139.1 110.2 138.1 110.3 137.1C110.5 135 110.9 132.9 111 130.8C111.2 124.7 111.3 118.6 111.4 112.8Z" fill="#01686F"/>
<path d="M109.7 159.6C111.2 151.3 113.7 143.3 117 135.6C115.7 139.6 114.4 143.5 113.2 147.6C112 151.6 111 155.7 110 159.8C109.9 159.6 109.8 159.6 109.7 159.6Z" fill="#01686F"/>
<path d="M110.2 152C111.5 143.6 115.1 136.1 118.9 128.6C117.3 132.4 115.5 136.2 114.1 140.1C112.6 144 111.5 148 110.2 152Z" fill="#01686F"/>
<path d="M119.7 144.7C122.9 135.8 126.1 127 129.3 118.1C126.9 127.2 123.4 136 119.7 144.7Z" fill="#01686F"/>
<path d="M65.9 110.3C66.1 110.3 66.2 110.3 66.4 110.4C66.4 110.1 66.4 109.8 66.4 109.5C66.4 109.3 66.5 109 66.5 108.8C66.6 108.8 66.7 108.8 66.8 108.8C67.1 111.3 67.3 113.9 67.6 116.4H67.5C67.2 114.7 66.9 113.1 66.5 111.4C66.3 115.7 67 119.8 67.6 124C66.5 121.5 65.4 112.5 65.9 110.3Z" fill="#01686F"/>
<path d="M114.8 92.2002C115.1 92.7002 115.5 93.2002 115.7 93.8002C116.7 96.3002 117.5 98.8002 117.9 101.5C118.3 103.9 118.6 106.4 118.9 108.8C119 110.3 118.9 111.9 118.9 113.3C118.2 106.3 117.6 99.1002 114.5 92.4002C114.6 92.3002 114.7 92.3002 114.8 92.2002Z" fill="#01686F"/>
<path d="M92.7001 112.3C91.0001 108.8 90.2001 95.4 92.0001 93.8C91.9001 95.4 91.7001 96.9 91.6001 98.4C91.5001 99.9 91.6001 101.4 91.6001 103C91.7001 104.6 91.7001 106.1 91.9001 107.7C92.2001 109.2 92.5001 110.6 92.7001 112.3Z" fill="#01686F"/>
<path d="M67.9002 136.4C66.0002 132.4 63.7002 120.6 64.3002 118C64.8002 121.2 65.3002 124.2 65.8002 127.2C66.5002 130.3 67.2002 133.3 67.9002 136.4Z" fill="#01686F"/>
<path d="M75.6001 104.9C76.4001 107.7 76.6001 110.6 77.3001 113.4C77.9001 116.3 78.5001 119.1 79.1001 121.9C77.7001 119.3 75.1001 106.8 75.6001 104.9Z" fill="#01686F"/>
<path d="M82.2001 161.4C76.0001 160.1 69.6001 160 63.4001 159.2C69.7001 159.3 76.1001 159.6 82.2001 161.4Z" fill="#01686F"/>
<path d="M133.1 118.4C134.2 113.4 135.7 108.4 137 103.4C137.5 104.7 134.4 116.1 133.1 118.4Z" fill="#01686F"/>
<path d="M132.4 169.6C126.8 170.3 121.2 169.9 115.8 168.1C115.8 168 115.8 167.9 115.8 167.8C116.1 167.8 116.4 167.7 116.7 167.8C121.2 169.2 125.9 169.5 130.7 169.7C131.2 169.8 131.8 169.7 132.4 169.6Z" fill="#01686F"/>
<path d="M135.3 130.3C136.8 123.2 138.4 116.1 139.9 109.1C138.8 116.2 137.3 123.4 135.3 130.3Z" fill="#01686F"/>
<path d="M100.7 182C102.5 177.8 104.1 173.5 105.1 168.8C105.6 169.3 105.5 169.8 105.4 170.2C104.6 173.7 103.3 177 101.8 180.3C101.6 181 101.1 181.5 100.7 182Z" fill="#01686F"/>
<path d="M138.4 144C139.8 140.7 141 137.4 141.7 133.9C142.5 130.4 142.9 126.8 142.8 123.2C143.8 127.9 141.5 138.9 138.4 144Z" fill="#01686F"/>
<path d="M109.3 178.8C109.6 183.2 107.9 189.7 106.1 190.7C106.2 190.4 106.3 190.2 106.4 190C106.9 188.8 107.5 187.5 107.8 186.3C108.4 183.7 108.8 181.2 109.3 178.8Z" fill="#01686F"/>
<path d="M112.1 133.4C112.6 128.8 113.1 124.4 113.5 120.4C113.8 124.8 113.1 131.6 112.1 133.4Z" fill="#01686F"/>
<path d="M95.6002 174.1C94.3002 175.5 92.9002 176.9 91.6002 178.4C90.3002 179.9 89.2002 181.5 88.0002 183.1C88.6002 180.9 93.1002 175.4 95.6002 174.1Z" fill="#01686F"/>
<path d="M102.2 99.3001C101.9 97.3001 101.6 95.3001 101.5 93.3001C101.4 92.0001 101.5 92.0001 102.1 90.6001H102.2L102.3 90.7001C102.3 93.6001 102.3 96.4001 102.2 99.3001Z" fill="#01686F"/>
<path d="M92.4002 166.8C88.7002 168.5 84.7002 168.9 80.7002 168.9C84.6002 168.3 88.6002 168.1 92.4002 166.8Z" fill="#01686F"/>
<path d="M112.5 180.7C112.4 178.4 112.4 176.2 111.6 174C110.8 171.9 109.8 169.9 108 168.5C108.8 168.5 109.3 169 109.7 169.5C111.3 171.5 112.2 173.8 112.5 176.3C112.6 177.7 112.5 179.2 112.5 180.7Z" fill="#01686F"/>
<path d="M121.1 172.2C124.5 172.9 128 173.2 131.6 172.9C130 174.1 123.6 173.7 121.1 172.2Z" fill="#01686F"/>
<path d="M83.9002 192C82.7002 190.8 83.7002 185.7 85.8002 182.7C85.3002 184.2 84.8002 185.5 84.5002 186.9C84.1002 188.5 83.6002 190.1 84.0002 191.9C84.0002 191.8 83.9002 191.9 83.9002 192Z" fill="#01686F"/>
<path d="M141 161.9C138.1 163.7 134.9 164.4 131.7 164.8C134.8 163.8 137.9 162.9 141 161.9Z" fill="#01686F"/>
<path d="M93.3002 93.3C93.1002 96.8 92.9002 100.2 92.7002 103.6C92.3002 100.2 92.4002 96.8 93.0002 93.3C93.0002 93.3 93.1002 93.3 93.3002 93.3Z" fill="#01686F"/>
<path d="M92 116.3C93.9 119 95.1 122.1 96.2 125.3C94.7 122.4 93.3 119.4 91.8 116.5C91.9 116.4 92 116.4 92 116.3Z" fill="#01686F"/>
<path d="M88.9001 173C92.7001 172.7 95.8001 171 98.3001 167.7C97.1001 170.8 92.9001 173.1 88.9001 173Z" fill="#01686F"/>
<path d="M78.8001 115.2C77.9001 112.2 77.3001 109.4 76.9001 106.3C77.6001 107.1 78.6001 112 78.8001 115.2Z" fill="#01686F"/>
<path d="M91.8 141.6C93.6 144.8 94.6 148.4 96.1 151.7C96 151.7 95.9 151.8 95.8 151.8C94.5 148.4 93.2 145 91.8 141.6Z" fill="#01686F"/>
<path d="M127 168.5C124.1 168.6 121.2 168.4 118.4 167.7C118.4 167.6 118.4 167.5 118.4 167.4C121.3 167.8 124.1 168.1 127 168.5Z" fill="#01686F"/>
<path d="M108.3 189.5C109.3 187.1 109.8 184.7 110 181.9C110.3 184.8 109.9 187.3 108.3 189.5Z" fill="#01686F"/>
<path d="M101.5 176.7C102.2 174.6 102.9 172.6 103.6 170.5C103.7 170.5 103.8 170.6 103.9 170.6C103.5 172.7 102.7 174.7 101.5 176.7Z" fill="#01686F"/>
<path d="M88.3001 169.9C86.7001 170.7 84.9001 171.2 83.0001 171.1C83.0001 171 83.0001 170.9 82.9001 170.8C84.8001 170.5 86.5001 170.2 88.3001 169.9Z" fill="#01686F"/>
<path d="M82.2003 192C81.4003 190.7 81.6003 189.5 82.2003 188C82.2003 189.5 82.2003 190.8 82.2003 192Z" fill="#01686F"/>
<path d="M139.6 164.2C138.4 164.7 137.2 165 135.8 165C137 164.6 138.3 164.3 139.5 163.9C139.6 164 139.6 164.1 139.6 164.2Z" fill="#01686F"/>
<path d="M117.5 422.6C117.5 419.1 117.4 415.6 117.4 412.1C117.4 407.3 117.4 402.6 117.3 397.8C117.2 392.9 116.9 388.1 116.6 383.3C116.4 379.9 116.2 376.5 116 373C115.8 369.9 115.6 366.9 115.3 363.8C115.1 361.2 114.9 358.6 114.7 356C114.3 352 113.9 348.1 113.5 344.1C113.4 342.9 113.2 341.8 113 340.6C112.3 337 111.4 333.4 110.7 329.7C109.6 324.1 108.5 318.5 107.7 312.8C106.7 305.6 106.3 298.3 106.6 291C106.9 284.3 107.9 277.8 109.2 271.2C110.2 266.2 110.9 261.2 111.8 256.2C112 254.8 112 253.3 112.3 252C113.3 247.4 113.3 242.7 113.6 238C114.3 226.6 114.1 215.1 114 203.7C114 199.5 113.9 195.4 113.8 191.2C113.8 189.1 113.6 187 113.6 185C113.6 184.4 113.8 183.9 113.9 183.3C114 183.3 114.1 183.3 114.2 183.3C114.2 183.4 114.3 183.5 114.3 183.6C114.5 196 114.7 208.5 114.8 220.9C114.8 227.1 114.6 233.2 114.3 239.4C114.1 244.1 113.5 248.7 113.1 253.4C113 254.4 113.1 255.5 112.7 256.5C112 258.4 112 260.5 111.6 262.5C110.5 268.1 109.4 273.6 108.4 279.2C107.9 281.8 107.8 284.4 107.5 287.1C107 292.3 107.1 297.5 107.3 302.7C107.4 305.9 107.9 309.2 108.2 312.4C109 319.9 110.6 327.3 112.2 334.6C112.9 337.5 113.4 340.4 113.8 343.4C114.2 346.1 114.5 348.8 114.7 351.5C115.1 355.2 115.4 358.9 115.7 362.6C115.9 365.5 116.1 368.4 116.3 371.3C116.5 374.9 116.8 378.6 117 382.2C117.2 386 117.5 389.7 117.6 393.5C117.8 402.7 117.8 411.9 117.9 421.1C117.9 421.7 117.9 422.2 118 422.8C117.8 422.6 117.6 422.6 117.5 422.6Z" fill="#01686F"/>
<path d="M200.6 232.5C196.6 226.2 194.3 219.4 192 212.6C189.2 204.5 186.5 196.3 183.7 188.1C182.7 185.1 181.9 182.1 181.6 179C181.5 177.9 181.6 176.7 181.9 175.5C182.3 174.1 183.4 173.6 184.7 174.3C185.5 174.7 186.3 175.2 187 175.8C188.5 177.3 189.9 178.9 191.4 180.4C191.7 180.7 191.9 181 192.3 181.5C192.7 180.5 192.1 179.4 193.1 178.7C194.5 178.6 195.9 178.9 197.2 179.4C203.7 181.5 208.2 185.9 211.3 191.9C211.5 192.3 211.7 192.7 212 193.3C212.2 192.3 212.4 191.6 212.6 191C213.4 188.5 214.2 186 215.1 183.5C217.5 177.5 221.4 172.7 226.8 169.1C228.2 168.1 229.8 167.4 231.6 167.3C232.7 167.3 233.7 167.5 234.6 168C235 168.2 235.5 168.4 235.8 168.7C238.4 170.6 241 172.4 243.6 174.3C246.8 176.8 248.4 180.1 248.3 184.2C248.3 185.9 248.1 187.6 248 189.3C248.4 189.1 248.7 189 249.1 188.8C253.1 186.7 257.3 185.6 261.7 185.1C262.6 185 263.6 184.7 264.5 185.1C264.9 185.3 265.3 185.6 265.7 185.8C265.6 186.3 265.6 186.6 265.5 187.2C266.1 186.9 266.5 186.7 266.9 186.4C269.4 184.9 272.2 184.3 275.1 184.2C278.5 184.2 281.6 186.9 282.2 190.2C282.5 191.8 282.3 193.4 282.1 195C281.2 200.6 280.1 206.2 278.4 211.6C276 218.9 272.7 225.8 267.6 231.7C267.5 231.9 267.3 232 267.2 232.2C267.2 232.2 267.2 232.3 267.1 232.5C267.5 232.5 267.8 232.4 268.2 232.4C271.1 231.8 273.9 232.1 276.6 233.1C280.1 234.4 283.3 236.4 286.2 238.7C288.5 240.5 290.8 242 293.4 243.4C294.6 244 295.7 244.7 296.8 245.5C297.7 246.1 298.4 247 298.1 248.2C297.8 249.2 296.8 249.8 295.4 249.7C294 249.6 292.7 249.3 291.3 249C287 247.9 282.7 246.5 278.4 245.5C274.3 244.5 270.2 244 266 243.7C258.8 243.2 251.8 244.3 244.7 245.7C241.7 246.3 238.7 246.9 235.6 246.9C232.5 247 229.7 248 227.2 249.7C225.4 251 224.3 252.8 224.1 255C224 255.5 223.9 256 223.7 256.8C223.1 255.1 222.6 253.7 222.1 252.3C220.9 249.1 218.5 246.9 215.6 245.4C214.8 245 213.8 245 213 245C209 245.1 205.1 246.1 201.4 247.6C197.5 249.1 193.6 250.8 189.8 252.4C187 253.6 184.2 254.5 181.2 254.9C178.9 255.2 176.6 255.1 174.4 254.4C170.8 253.3 167.1 252.4 163.4 251.3C162.5 251.1 161.6 250.8 160.8 250.4C158.1 249 156.4 245.4 159 242.2C160.2 240.7 161.6 239.5 163.3 238.7C166.8 236.9 170.4 235.2 173.8 233.4C176.9 231.8 180.3 230.9 183.7 230.4C189.3 229.6 194.8 229.9 200.1 232.2C200.1 232.4 200.2 232.4 200.6 232.5ZM264.9 186.3C264.2 185.7 263.4 185.6 262.7 185.7C261 186 259.3 186.2 257.6 186.6C252.2 187.7 247.5 190.2 243.1 193.4C235.3 198.9 230.3 206.5 226.9 215.3C224.3 222.2 223.3 229.5 223.6 236.8C223.7 238.6 223.9 240.4 224.2 242.2C224.5 244 225.7 245.2 227.3 245.7C229.1 246.3 231.1 246.6 233.1 246.5C236.3 246.4 239.5 246.1 242.6 245.5C248.5 244.4 253.9 242.3 258.8 238.8C268.4 231.9 274.1 222.3 277.7 211.3C279.4 206.2 280.5 200.9 281.3 195.5C281.6 193.7 281.9 191.9 281.4 190.1C280.6 187.1 277.9 185 274.8 185C272.2 185 269.8 185.6 267.6 186.9C266.6 187.5 265.7 188.1 264.7 188.6C264.4 188.7 264.1 188.8 263.8 188.9C263.7 188.8 263.7 188.7 263.6 188.7C264.1 187.9 264.5 187.1 264.9 186.3ZM193.1 183.2C193 183.3 192.8 183.3 192.7 183.4C192.4 183.1 192.1 182.7 191.8 182.4C190.3 180.7 188.9 178.9 187.4 177.3C186.6 176.4 185.6 175.7 184.5 175.1C183.5 174.5 182.7 174.8 182.4 175.9C182.2 177 182.1 178.2 182.2 179.4C182.5 182.3 183.3 185.2 184.3 187.9C186.5 194.2 188.8 200.4 190.9 206.8C192.8 212.6 194.7 218.4 196.9 224.1C200 231.7 204.9 237.7 212 241.8C214.1 243 216.2 244.2 218.7 244.6C219.7 244.8 220.7 244.8 221.7 244.6C222.8 244.4 223.2 243.9 223.1 242.8C223.1 242 222.9 241.2 222.7 240.5C221.4 236.4 219.6 232.5 217.8 228.6C214.5 221.8 212.6 214.7 212 207.2C211.7 203.8 211.7 200.3 211.7 196.8C211.7 194.9 211.3 193.3 210.5 191.7C210 190.8 209.5 189.9 208.9 189C205.7 184.5 201.7 181.2 196.3 179.7C195.4 179.5 194.4 179 193.2 179.4C193.1 180.8 193.1 182 193.1 183.2ZM246.9 190C247.6 187.8 247.6 185.7 247.6 183.5C247.5 180.7 246.6 178.2 244.6 176.2C243.4 175 241.8 174 240.4 172.9C239.5 172.2 238.5 171.5 237.6 170.9C236.4 170 235.1 169.2 233.8 168.4C232.7 167.7 231.4 167.7 230.2 168.2C229 168.7 227.9 169.2 226.8 169.9C223.9 171.8 221.6 174.3 219.5 177C216.8 180.6 215.3 184.7 213.9 188.9C212.7 192.4 212.2 196.1 212.3 199.8C212.4 203.5 212.8 207.1 213.2 210.8C213.8 215.4 215 220 216.8 224.3C218.6 228.7 220.6 233 222.5 237.4C222.6 237.5 222.7 237.6 222.8 237.8C222.9 235.3 223 232.9 223.2 230.4C223.4 227.9 223.7 225.4 224.2 223C225 219 226.2 215.2 227.9 211.5C231.8 203.1 237.2 196.2 245.1 191.3C245.6 190.8 246.3 190.4 246.9 190ZM214.7 244.3C214.7 244.2 214.7 244.1 214.7 244.1C214.5 244 214.3 243.8 214 243.7C209.7 241.5 205.8 238.7 202.6 235C202.2 234.5 201.6 234 201 233.7C198.1 232.1 195 231.2 191.7 231C189.1 230.9 186.4 231 183.8 231.3C180.6 231.6 177.6 232.5 174.7 233.9C172.4 235 170.2 236.1 168 237.3C166 238.3 164.1 239.3 162.2 240.6C161.1 241.4 160.1 242.4 159.2 243.5C157.8 245.3 158 247.2 159.5 248.9C160.5 250 161.8 250.5 163.2 250.9C165 251.4 166.9 251.8 168.7 252.3C172.2 253.4 175.5 253.2 178.7 251.4C181.1 250.1 183.3 248.7 185.7 247.3C187.9 246 190.1 244.7 192.4 243.5C195.1 242.2 197.9 241.8 200.9 242.4C203.3 242.9 205.6 243.3 208 243.9C210.2 244.4 212.4 244.4 214.7 244.3ZM297.5 247.9C297.2 246.9 296.5 246.3 295.7 245.8C293.4 244.1 290.7 243.5 287.9 243.2C285.1 242.9 282.5 241.9 280.4 240C279 238.7 277.6 237.5 276.1 236.2C274.7 234.9 273.1 234 271.3 233.5C268.7 232.7 266.4 233.4 264.5 235.2C261.1 238.4 257.3 241.2 253 243.2C252.7 243.3 252.5 243.5 252.2 243.7C253.6 243.8 254.8 243.6 256.1 243.5C258.5 243.3 260.9 243.2 263.2 243.1C265.1 243.1 266.9 243.4 268.8 243.5C272.5 243.8 276.2 244.4 279.8 245.3C283.7 246.3 287.5 247.5 291.4 248.5C292.7 248.8 294 249 295.3 249.2C296.3 249.3 297.1 248.9 297.5 247.9ZM174.5 253.6C176.7 254.6 179 254.6 181.2 254.3C184.4 253.8 187.4 252.7 190.3 251.5C194.4 249.8 198.4 248.1 202.6 246.5C204.4 245.8 206.3 245.4 208.2 244.8C208 244.7 207.8 244.6 207.7 244.5C205.8 244.1 204 243.7 202.1 243.3C199.8 242.8 197.5 242.6 195.3 243.3C193.5 243.9 191.7 244.7 190.1 245.6C187.2 247.3 184.4 249.2 181.4 250.8C179.7 251.8 177.8 252.5 176 253.2C175.6 253.4 175 253.5 174.5 253.6ZM289.7 242.5C288.4 241.5 287.2 240.5 285.9 239.6C284.2 238.4 282.5 237.2 280.7 236.1C278.4 234.7 275.9 233.6 273.1 233.2C273.2 233.3 273.3 233.4 273.4 233.4C275.4 234.2 276.8 235.7 278.4 237.1C279.7 238.3 281.1 239.4 282.5 240.5C284.6 242.1 287.1 242.4 289.7 242.5Z" fill="#01686F"/>
<path d="M223.6 225.8C224.4 224.7 224.6 223.4 224.4 222.1C223.9 220 223.8 217.8 223.7 215.7C223.6 210.4 224 205.2 225 199.9C225.4 197.5 225.9 195.2 226.3 192.8C226.4 192.4 226.5 192.1 226.7 191.8C226.4 193.5 226.1 195.1 225.9 196.8C225.4 199.8 224.9 202.9 224.6 205.9C224.3 208.9 224.2 211.9 224.1 214.8C224.1 216.5 224.2 218.2 224.4 219.9C224.4 220.3 224.6 220.7 224.7 221.1C225.8 218.8 226.7 216.5 227.9 214.4C229.1 212.2 230.5 210.1 232.5 208.5C232.7 208.3 232.9 208.1 233.1 207.8C237.3 203.2 241.9 199.1 246.9 195.4C247.1 195.2 247.4 195 247.6 194.9C247.7 194.9 247.8 194.9 247.9 194.9C245.7 196.8 243.4 198.7 241.2 200.7C238.4 203.3 235.8 206 233.1 208.6C231.5 210.1 230.1 211.7 229 213.6C226.6 217.5 224.8 221.6 224.2 226.2C224.2 226.5 224.2 226.9 224.2 227.2C224 227.3 223.9 227.4 223.9 227.4C223.7 227 223.7 226.4 223.6 225.8Z" fill="#01686F"/>
<path d="M211.4 237.1C209.2 233.5 207.4 229.7 205.9 225.8C204 220.9 202.9 215.8 202 210.6C201.2 206.2 200.6 201.7 199.9 197.3C199.8 196.8 199.7 196.3 199.9 195.7C200.2 197.4 200.6 199 200.9 200.7C201.7 205 202.4 209.3 203.1 213.6C204.5 221.3 207.2 228.5 210.7 235.5C210.9 236 211.2 236.5 211.4 237.1Z" fill="#01686F"/>
<path d="M269.4 204.6C260.3 215.9 250.1 226 239 235.2C249.8 225.7 259.9 215.4 269.4 204.6Z" fill="#01686F"/>
<path d="M209.5 239.9C207.1 238.4 205.4 236.2 203.9 233.9C200 228.1 197.3 221.8 195.4 215.1C194.7 212.6 194.2 210 193.9 207.4C194.1 208.1 194.3 208.9 194.4 209.6C196.2 217.8 199.1 225.5 203.6 232.6C205.2 235.2 207.2 237.6 209.5 239.9Z" fill="#01686F"/>
<path d="M207.2 239.3C208 239.6 208.7 240 209.5 240.3C209.5 240.1 209.4 239.9 209.4 239.8L209.5 239.7C210.4 240.3 211.4 240.8 211.7 242C211.5 241.9 211.3 241.9 211.1 241.7C208.3 240 205.2 239.3 202 238.8C198.1 238.3 194.3 238.9 190.5 239.5C188.1 239.9 185.7 240.4 183.2 240.7C185.1 240.2 187.1 239.6 189 239.3C192.7 238.6 196.3 238 200.1 238.2C202.1 238.3 204 238.7 206 239C206.5 239.2 206.9 239.3 207.2 239.3Z" fill="#01686F"/>
<path d="M219.9 175.9C219.9 176.2 219.9 176.5 219.8 176.7C218.6 180.5 217.9 184.4 217.4 188.4C217.2 189.7 217.1 191.1 217.1 192.4C217 196.2 216.8 200 216.7 203.6C215.6 196.9 217 180.6 219.9 175.9Z" fill="#01686F"/>
<path d="M262.9 229C258.1 234.4 252.9 239.4 246.6 243C244 244.5 241.2 245.6 238.3 246.4C238.1 246.5 237.8 246.4 237.5 246.3C237.7 246.2 237.9 246 238.2 245.9C245.1 243.9 250.9 240 256.1 235.3C258.4 233.2 260.6 231.1 262.9 229Z" fill="#01686F"/>
<path d="M227.6 246.1C231.2 245 234.3 243.2 237.2 241C241.7 237.6 245.7 233.8 249.8 229.9C249.5 230.3 249.2 230.6 248.9 231C248.6 231.4 248.3 231.7 247.9 232.1C243.5 236.6 239 240.9 233.6 244.1C232 245 230.3 245.7 228.5 246.4C228.1 246.5 228.1 246.5 227.6 246.1Z" fill="#01686F"/>
<path d="M224.1 227.2C224.3 226.6 224.6 225.9 224.8 225.3C226 221.9 227.8 218.9 229.7 215.9C230.2 215.1 230.6 214.3 231.1 213.6C233.2 211.2 235.3 208.9 237.5 206.7C238.4 205.8 239.3 205 240.3 204.3C239.6 205 239 205.6 238.3 206.3C236.4 208.4 234.4 210.5 232.6 212.7C229.3 216.6 226.9 221 225.1 225.7C224.1 228.2 223.9 230.8 223.5 233.4C223.7 231.7 223.8 230 224 228.3C224.1 227.8 224.1 227.5 224.1 227.2Z" fill="#01686F"/>
<path d="M278.7 240.9C274 241.2 269.3 241.3 264.6 241.7C259.9 242.1 255.3 243 250.9 244.7C250.9 244.6 250.8 244.5 250.8 244.5C251.1 244.3 251.3 244.1 251.6 244C254.1 243.3 256.6 242.5 259.1 242C262.5 241.3 265.9 241 269.4 240.9C271.3 240.9 273.3 240.7 275.2 240.7C276.4 240.7 277.6 240.9 278.8 241C278.7 241 278.7 240.9 278.7 240.9Z" fill="#01686F"/>
<path d="M258.6 199.5C258.1 199.9 257.7 200.3 257.2 200.8C252.5 204.9 248.1 209.2 243.9 213.8C242.2 215.7 240.5 217.6 238.8 219.5C238.5 219.9 238.1 220.2 237.7 220.5C244 212.8 250.6 205.5 258.4 199.3C258.5 199.4 258.5 199.4 258.6 199.5Z" fill="#01686F"/>
<path d="M201.9 181.9C202.2 182.5 202.5 183 202.7 183.6C204.1 187 204.8 190.5 205.5 194.1C206.1 197.1 206.7 200.1 207.2 203.1C207.4 203.9 207.4 204.8 207.5 205.7C205.5 197.8 204.6 189.7 201.5 182.1C201.7 182 201.8 182 201.9 181.9Z" fill="#01686F"/>
<path d="M269.2 219.1C273 213.2 277.6 207.9 280.5 201.4C280.6 201.5 280.7 201.5 280.8 201.6C280.7 202 280.5 202.4 280.3 202.8C279.1 204.9 278.1 207.1 276.7 209.1C274.8 211.9 272.7 214.6 270.7 217.4C270.2 218 269.7 218.5 269.2 219.1Z" fill="#01686F"/>
<path d="M215.9 244C215.9 243.4 215.9 242.7 215.9 242.1C215.8 239.5 215.1 237 214.4 234.5C213.6 231.5 212.6 228.6 211.6 225.3C211.9 225.8 212 225.9 212.1 226.2C213.9 231.1 215.5 236 216.4 241.2C216.5 242.1 216.7 243.1 216.3 244C216.2 244 216 244 215.9 244Z" fill="#01686F"/>
<path d="M187.6 233.2C181.1 234.1 174.5 234.3 168.4 237.1C168.4 237 168.3 236.9 168.3 236.8C168.6 236.6 168.8 236.4 169.1 236.3C171.3 235.2 173.6 234.6 176 234.3C178.9 233.9 181.7 233.6 184.6 233.3C185.6 233.1 186.6 233.2 187.6 233.2Z" fill="#01686F"/>
<path d="M229.7 246.6C229.8 246.5 229.9 246.4 230 246.4C232.4 245.9 234.4 244.7 236.4 243.4C239.1 241.5 241.7 239.6 244.5 237.8C244.1 238.2 243.8 238.6 243.3 238.9C240.4 241 237.5 243.2 234.6 245.2C233.6 245.9 232.3 246.3 231.1 246.8C230.7 247 230.2 246.9 229.8 247C229.8 246.8 229.8 246.7 229.7 246.6Z" fill="#01686F"/>
<path d="M160.7 245.5C166.7 241.6 173.5 240 180.4 238.7C178.2 239.3 176 239.8 173.8 240.4C171.5 241.1 169.2 241.8 167 242.6C164.9 243.5 162.8 244.5 160.7 245.5Z" fill="#01686F"/>
<path d="M214.2 203.3C215 210.5 216.4 217.6 219.1 224.4C216 217.7 214.6 210.6 214.2 203.3Z" fill="#01686F"/>
<path d="M245.5 176.6C246.1 181.9 244.3 186.6 242.6 191.4C243.6 186.4 245.5 181.7 245.5 176.6Z" fill="#01686F"/>
<path d="M256.3 195.9C259.5 192.3 262.6 189 266.6 186.6C266.8 186.8 266.8 186.8 266.8 186.9V187C263.4 189.9 259.9 192.8 256.3 195.9Z" fill="#01686F"/>
<path d="M165.1 251.8C170.3 251.6 175.2 250.5 180.1 248.9C179.8 249.1 179.6 249.2 179.3 249.3C176.2 250.5 173 251.5 169.7 251.7C168.5 251.8 167.2 251.9 166 251.9C165.7 252 165.4 251.9 165.1 251.8Z" fill="#01686F"/>
<path d="M254 242.4C259.6 239.7 265.6 239.2 271.6 238.8C265.7 239.7 259.7 240.2 254 242.4Z" fill="#01686F"/>
<path d="M195.6 195.3C194.2 192.4 192.3 182.9 192.8 181.1C193.8 185.8 194.7 190.5 195.6 195.3Z" fill="#01686F"/>
<path d="M200.7 211.4C201.8 217.4 203.6 223.2 205.9 228.9C203.3 223.3 201.3 217.6 200.7 211.4Z" fill="#01686F"/>
<path d="M218 228.4C220.1 233.5 221.9 238.6 220.5 244.3C221.4 239.7 220 235.4 218.6 231.1C218.3 230.2 218 229.3 217.7 228.5C217.8 228.5 217.9 228.4 218 228.4Z" fill="#01686F"/>
<path d="M223.8 237.6C224.1 235 230.1 227.6 232.7 226.3C229.7 230 225.9 233.1 223.8 237.6Z" fill="#01686F"/>
<path d="M221.6 174.2C220.3 179 219.9 183.9 219 188.8C219.3 183.9 219.8 178.9 221.6 174.2Z" fill="#01686F"/>
<path d="M245.1 216.2C240.7 220.7 236.3 225.2 232.3 230.1C232.1 230.3 231.8 230.4 231.5 230.6C235.7 225.4 240.2 220.6 245.1 216.2Z" fill="#01686F"/>
<path d="M223.6 225.8C223.1 224.2 222.4 222.7 222.2 221.1C221.7 217.6 221.5 214 221.2 210.4C221.3 210.4 221.4 210.4 221.5 210.3C221.6 210.7 221.6 211 221.7 211.4C221.8 212.9 221.9 214.3 222 215.8C222.2 218.8 222.6 221.8 223.4 224.7C223.5 225.1 223.5 225.5 223.6 225.8Z" fill="#01686F"/>
<path d="M238.9 171.8C239.1 175.9 238.2 179.9 237.1 183.9C237.6 179.9 238.1 175.8 238.6 171.8C238.7 171.8 238.8 171.8 238.9 171.8Z" fill="#01686F"/>
<path d="M272.3 196.9C275.1 193.9 277.9 190.9 280.8 188C280.8 188 280.9 188 280.9 188.1C280.7 188.5 280.6 188.8 280.3 189.1C277.9 192 275.2 194.6 272.3 196.9Z" fill="#01686F"/>
<path d="M188 244.2C183.4 246.2 178.6 248 173.7 249.3C178.4 247.5 183.2 245.8 187.9 244C188 244.1 188 244.2 188 244.2Z" fill="#01686F"/>
<path d="M184.7 174.9C185.6 178.9 186.5 182.8 187.3 186.8C185.9 183 184.8 179 184.2 175C184.4 175 184.5 174.9 184.7 174.9Z" fill="#01686F"/>
<path d="M215.6 231.4C216.6 235.7 217.9 240 217.3 244.5C217.2 240 216.3 235.7 215.6 231.4Z" fill="#01686F"/>
<path d="M297.6 247.2C296.4 247.9 290.2 247 287 245.7C290.5 246.2 294 246.7 297.6 247.2Z" fill="#01686F"/>
<path d="M235.8 199.3C238 196 238.7 192.1 240.1 188.4C239.3 193.6 237.6 198.2 235.8 199.3Z" fill="#01686F"/>
<path d="M207.3 239.4C205.8 238.3 204 238 202.2 237.8C201.1 237.6 199.9 237.6 198.7 237.5C197.5 237.4 196.4 237.3 195.2 237.2C198.5 237 201.8 237.1 204.9 237.9C205.6 238.1 206.4 238.4 207.1 238.7C207.3 238.8 207.5 239 207.3 239.4Z" fill="#01686F"/>
<path d="M274.7 192.7C276.4 190.7 278.2 188.9 280 187C279.7 188.3 276.2 191.9 274.7 192.7Z" fill="#01686F"/>
<path d="M193.3 190.4C192.3 188.2 191.3 183.1 191.6 182C192.4 184.8 192.8 187.6 193.3 190.4Z" fill="#01686F"/>
<path d="M206.6 192.9C205.8 189.9 204.9 187.1 204.1 184.2C204.1 184.1 204.1 184.1 204.2 184C205 185.1 206.5 190.7 206.6 192.9Z" fill="#01686F"/>
<path d="M233.1 175.1C233 172.9 233.5 169.2 234.1 168.5C234 170.8 233.7 173 233.1 175.1Z" fill="#01686F"/>
<path d="M239.9 172.9C240.1 174.6 239.8 176.2 239.2 177.9C239.3 176.2 239.5 174.6 239.6 172.9C239.8 172.9 239.8 172.9 239.9 172.9Z" fill="#01686F"/>
<path d="M226.6 410.4C226.7 409.8 226.7 409.2 226.9 408.6C227.4 407.1 227.8 405.5 228.4 404.1C230.3 399.8 232.3 395.6 234.4 391.4C237.2 385.9 241.3 381.4 246.1 377.7C250.8 374.1 256.1 371.9 262.1 371.3C267.6 370.8 273 371.5 278.3 372.8C283.2 373.9 288.2 375.1 293.1 376.1C295.6 376.6 298.2 376.9 300.8 377.2C301.1 377.2 301.4 377.3 301.9 377.6C301.6 377.7 301.4 377.9 301.1 378C299.1 378.4 297 378.9 295 379.3C291.5 380 288 380.3 284.4 380.4C279.1 380.5 273.7 380.6 268.4 380.7C265.3 380.8 262.2 380.7 259 380.9C251.3 381.4 244.5 384.2 239 389.7C236.9 391.8 234.8 394.1 233 396.5C230.1 400.3 228.5 404.8 227.1 409.4C227 409.6 227 409.9 226.9 410.1C226.9 410.2 226.8 410.3 226.7 410.4H226.6ZM235.6 390.6C235.7 390.6 235.7 390.6 235.8 390.6C236.6 389.6 237.3 388.6 238.1 387.6C242.5 382.1 248.2 378.4 255 376.7C260 375.5 265.1 375.5 270.2 376.1C272.9 376.4 275.5 376.7 278.2 377C281.9 377.4 285.7 377.7 289.4 378.1C292 378.4 294.6 378.2 297.2 378C297.5 378 297.9 377.8 298.2 377.7C292.1 376.7 286.2 375.3 280.3 373.8C275 372.4 269.7 371.5 264.1 371.7C261.5 371.8 258.9 372.2 256.4 373C247.4 375.8 241 381.9 235.9 389.6C235.8 389.9 235.7 390.2 235.6 390.6ZM292.8 379.2C292.8 379.1 292.8 379 292.8 379C291 378.9 289.2 378.8 287.4 378.6C283.1 378.2 278.7 377.8 274.4 377.2C270 376.6 265.7 376.3 261.3 376.5C259.5 376.6 257.7 376.8 255.9 377.1C248 378.8 241.8 383.2 237.1 389.7C236.5 390.5 236 391.4 235.5 392.2C236.5 391.5 237.2 390.5 238 389.8C240.5 387.5 243.1 385.3 246.1 383.8C250.8 381.4 255.9 380.3 261.1 380.2C269.7 380 278.3 380.4 286.8 379.7C288.9 379.5 290.9 379.3 292.8 379.2Z" fill="#01686F"/>
<path d="M226.7 422.6C226.7 420.6 226.8 418.6 226.7 416.6C226.5 412.4 226.3 408.1 225.9 403.9C225.6 399.6 225.1 395.3 224.7 391C224.5 388.1 224.2 385.1 224.2 382.2C224.1 376 224.2 369.9 224.2 363.7C224.2 362.1 224.3 360.5 224.3 358.9C224.5 354.3 224.7 349.6 224.8 345C224.8 344.7 224.8 344.3 225.4 344.3C225.4 344.7 225.4 345 225.4 345.4C225.2 351.7 224.8 358 224.7 364.2C224.6 370.5 224.6 376.8 224.7 383.1C224.8 386.4 225.1 389.7 225.4 392.9C225.7 396.4 226 399.8 226.2 403.3C226.4 406.5 226.7 409.7 226.9 412.9C227.1 415.7 227.1 418.4 227.2 421.2C227.2 421.7 227.3 422.1 227.3 422.6C227.2 422.6 227 422.6 226.7 422.6Z" fill="#01686F"/>
<path d="M224 253.3C224 253.6 224.1 253.9 224.1 254.2C224.1 255.8 224.1 257.3 224.1 258.9C224.1 263.5 224.3 268.1 224.8 272.6C224.9 273.4 225 274.2 225.1 275C225.1 275.5 225.1 276 225.1 276.7C223.6 275.1 223.2 256 224 253.3Z" fill="#01686F"/>
<path d="M201.1 99.8001C201 99.4001 200.9 99.0001 201 98.8001C202 96.0001 201.3 93.3001 200.7 90.6001C200 87.5001 199.3 84.4001 198.5 81.4001C197.7 78.3001 197.3 75.2001 197.3 72.0001C197.2 68.4001 196.7 64.9001 196.1 61.4001C195.4 57.2001 194.6 53.1001 193.8 48.9001C193.5 47.6001 193.1 46.3001 192.9 45.0001C191.5 37.2001 187.9 30.2001 184.6 23.1001C183.5 20.8001 182.4 18.6001 181.5 16.2001C181 14.9001 180.8 13.5001 180.5 12.2001C180.5 12.0001 180.4 11.9001 180.4 11.7001C180.5 11.0001 180.4 10.2001 181.2 9.9001C181.9 9.6001 182.5 10.0001 182.9 10.5001C183.4 11.2001 184 11.9001 184.3 12.6001C186.3 17.3001 189.1 21.4001 191.9 25.6001C193.4 27.7001 194.8 29.9001 196.1 32.2001C198.4 36.0001 200 40.0001 200.7 44.4001C200.8 44.9001 200.9 45.3001 201.2 45.8001C201.6 44.0001 202 42.2001 202.3 40.4001C203.2 35.6001 204.2 30.7001 205.1 25.9001C205.7 22.3001 206.2 18.7001 206.8 15.1001C207.4 11.9001 208 8.6001 208.8 5.4001C209.1 4.2001 209.7 2.9001 210.3 1.8001C211.9 -0.799902 215 -0.799902 216.7 1.8001C217.3 2.7001 217.8 3.7001 218.1 4.7001C219.5 8.5001 221.4 12.0001 223.6 15.4001C225.2 17.8001 226.6 20.3001 228.1 22.9001C228.3 22.5001 228.5 22.2001 228.7 21.8001C230 19.3001 231.7 17.1001 234 15.5001C236.5 13.8001 239.3 12.9001 242.3 12.4001C244.4 12.1001 246.5 12.2001 248.6 12.7001C251.1 13.3001 252.9 14.7001 253.8 17.1001C254.3 18.4001 254.7 19.8001 255.3 21.1001C256.4 23.7001 257.6 26.2001 258.7 28.8001C260 31.8001 261.4 34.8001 262 38.1001C262.3 38.1001 262.4 38.2001 262.6 38.2001C267 37.6001 270.8 38.9001 274.3 41.5001C275.5 42.3001 276.5 43.3001 277.6 44.2001C278.9 45.3001 280.2 46.5001 281.6 47.5001C284.4 49.4001 286 52.1001 286.8 55.3001C287.8 59.1001 287.3 62.8001 286.1 66.4001C284.7 70.9001 282.5 74.9001 279.6 78.6001C280.9 83.4001 283 87.8001 287.3 90.7001C288.8 91.7001 290.3 92.9001 291.8 94.1001C292.7 94.9001 293.5 95.8001 293.9 97.0001C294.3 98.6001 293.6 99.7001 292 99.8001C290.3 99.9001 288.6 99.9001 286.9 99.7001C280.7 99.0001 274.4 98.2001 268.1 98.3001C264.4 98.4001 260.7 98.7001 257 99.0001C253.9 99.3001 250.7 99.6001 247.6 100.1C244.1 100.6 240.6 101.2 237.1 101.8C232.1 102.5 227.1 103.6 222 103.5C218.6 103.4 215.4 102.7 212.4 101.2C210.3 100.2 208.2 99.2001 205.9 98.7001C204.4 98.4001 203 98.6001 201.6 99.3001C201.6 99.6001 201.4 99.7001 201.1 99.8001ZM251.1 61.6001C249.3 61.7001 247.8 61.7001 246.3 61.8001C243 62.2001 239.7 62.8001 236.5 63.9001C234.6 64.5001 232.8 65.3001 231 66.2001C229.7 66.8001 228.9 67.8001 228.3 69.2001C226.3 74.2001 223.7 78.8001 220.6 83.2001C217.4 87.5001 213.8 91.4001 209 94.0001C208.4 94.3001 208.1 94.8001 208.2 95.5001C208.3 96.9001 209 98.1001 210.1 98.9001C213.3 101.4 216.9 102.8 221 103.1C225.5 103.4 230 102.7 234.4 101.9C237.9 101.3 241.4 100.7 244.9 100.2C248.5 99.7001 252 99.2001 255.6 98.8001C258.6 98.5001 261.5 98.2001 264.5 98.1001C267.6 98.0001 270.7 98.0001 273.9 98.1001C276.6 98.2001 279.2 98.5001 281.9 98.8001C284.6 99.1001 287.3 99.4001 290 99.6001C290.8 99.7001 291.7 99.5001 292.6 99.4001C293.5 99.2001 293.7 98.8001 293.7 97.9001C293.7 97.0001 293.1 96.6001 292.4 96.3001C290.5 95.6001 288.5 94.8001 286.6 94.1001C283.5 93.0001 280.7 91.5001 278.2 89.3001C275.2 86.6001 272.8 83.4001 270.9 79.8001C269.7 77.6001 268.6 75.3001 267.4 73.1001C265.9 70.5001 264.4 67.9001 262.4 65.7001C260.6 63.8001 258.5 62.5001 256 62.0001C254.1 61.7001 252.4 61.7001 251.1 61.6001ZM232.1 49.1001C232 47.9001 232 45.9001 231.7 43.9001C231 39.8001 229.4 36.0001 227.2 32.4001C224.6 28.2001 222.1 23.9001 219.7 19.6001C217.5 15.7001 216.5 11.4001 216.6 6.9001C216.6 5.7001 216.3 4.4001 216.2 3.2001C216 1.8001 215.1 1.1001 213.8 0.800098C212.6 0.500098 211.6 1.2001 211 2.2001C210.4 3.3001 209.7 4.4001 209.4 5.6001C208.7 8.6001 208 11.6001 207.5 14.6001C206.7 19.2001 206.2 23.9001 205.3 28.4001C203.4 38.3001 201.4 48.1001 199.5 57.9001C198.9 61.1001 198.6 64.4001 198.1 67.6001C197.8 69.6001 198 71.7001 198.1 73.7001C198.2 78.6001 199.4 83.2001 201.4 87.6001C202 89.0001 202.9 90.4001 203.8 91.6001C205.2 93.4001 207.8 94.1001 210.3 92.4001C212.9 90.7001 215.2 88.7001 217.2 86.3001C222.3 80.4001 225.9 73.6001 228.7 66.4001C230.8 61.1001 232.1 55.6001 232.1 49.1001ZM229.5 66.2001C230.9 65.5001 232.2 64.9001 233.4 64.4001C239.2 62.1001 245.2 61.1001 251.4 60.9001C252.8 60.8001 253.8 60.4001 254.7 59.4001C257.6 56.3001 259.4 52.6001 260.7 48.6001C261.3 46.7001 261.7 44.7001 261.7 42.6001C261.8 39.5001 261.2 36.5001 260 33.6001C257.9 28.2001 255.1 23.1001 253.2 17.6001C252.5 15.5001 250.9 14.2001 248.7 13.6001C246.3 13.0001 244 12.9001 241.6 13.4001C238.8 13.9001 236.1 14.8001 233.9 16.6001C231.3 18.6001 229.6 21.2001 228.4 24.2001C234.2 38.0001 234.5 52.0001 229.5 66.2001ZM262.3 39.2001C262.9 47.6001 259.9 54.5001 254.4 60.7001C255 60.8001 255.5 60.9001 256 61.0001C257.9 61.3001 259.8 61.4001 261.6 61.9001C269.8 64.0001 276.1 68.5001 279 76.9001C279.1 77.2001 279.3 77.6001 279.5 78.0001C279.8 77.7001 280 77.4001 280.2 77.2001C282.2 74.3001 284 71.3001 285.2 68.0001C286 65.8001 286.6 63.6001 286.8 61.3001C287 58.8001 286.7 56.4001 285.9 54.0001C285.3 52.2001 284.4 50.6001 282.9 49.4001C280.2 47.2001 277.6 45.0001 274.9 42.8001C272.3 40.7001 269.4 39.3001 266.1 39.0001C264.8 38.8001 263.5 38.6001 262.3 39.2001ZM258.1 62.0001C258.2 62.1001 258.3 62.2001 258.4 62.2001C261.4 63.6001 263.5 65.9001 265.2 68.6001C266.7 71.0001 268 73.5001 269.4 75.9001C270.5 77.9001 271.5 79.9001 272.7 81.8001C276.3 87.6001 281.1 91.9001 287.8 93.8001C289 94.2001 290.1 94.7001 291.3 95.1001C291.5 95.2001 291.8 95.3001 292.1 95.3001C291.5 94.6001 290.9 94.0001 290.2 93.5001C289 92.6001 287.8 91.8001 286.6 90.9001C283.8 88.8001 281.7 86.1001 280.5 82.8001C279.7 80.6001 278.9 78.5001 278.1 76.3001C277.3 74.3001 276.4 72.3001 275 70.6001C270.8 65.3001 264.9 62.8001 258.1 62.0001ZM197.5 66.0001C198.5 60.9001 199.4 56.0001 200.4 51.1001C201.1 47.6001 200.6 44.3001 198.8 41.2001C196.7 37.6001 194 34.4001 191.4 31.2001C188.2 27.3001 186 23.1001 185.3 18.1001C185 16.0001 184.3 13.9001 183.3 12.0001C182.9 11.3001 182.5 10.6001 181.5 10.6001C180.8 11.3001 181 12.1001 181.2 12.8001C181.6 14.3001 182 15.7001 182.6 17.1001C183.8 19.9001 185.2 22.6001 186.5 25.3001C189 30.7001 191.5 36.1001 193 41.9001C194.6 48.2001 195.7 54.6001 196.8 60.9001C196.9 62.6001 197.2 64.2001 197.5 66.0001ZM217.3 4.6001C217.2 5.0001 217.2 5.1001 217.2 5.2001C217.1 9.9001 217.9 14.3001 220 18.5001C222.2 23.0001 224.8 27.3001 227.5 31.5001C229.3 34.3001 230.7 37.2001 231.6 40.4001C231.8 41.0001 232 41.6001 232.2 42.2001C232.3 42.2001 232.4 42.2001 232.5 42.1001C232.1 39.5001 231.8 36.9001 231.3 34.3001C229.9 27.7001 227.3 21.5001 223.4 15.9001C221.2 12.6001 219.2 9.2001 217.9 5.5001C217.7 5.4001 217.6 5.2001 217.3 4.6001ZM199.1 40.2001C199.1 40.2001 199.1 40.0001 199.1 39.9001C198.9 39.2001 198.6 38.6001 198.4 37.9001C196.8 33.5001 193.9 29.9001 191.6 26.0001C189.9 23.3001 188.1 20.6001 186.4 17.9001C186.3 17.7001 186.1 17.6001 185.8 17.2001C185.9 17.9001 186 18.3001 186.1 18.7001C186.7 22.5001 188.1 25.9001 190.6 28.9001C191.4 29.9001 192.1 31.0001 192.9 32.0001C194.9 34.8001 197 37.5001 199.1 40.2001Z" fill="#01686F"/>
<path d="M207.5 95.7001C207.8 95.7001 208.2 95.6001 208.5 95.7001C215 96.6001 221.1 95.1001 227.1 92.8001C230.8 91.4001 234.5 89.8001 238.2 88.3001C241 87.1001 243.8 85.9001 246.6 84.9001C244.5 85.9001 242.4 87.1001 240.3 88.0001C236.6 89.6001 232.8 91.2001 229.1 92.7001C225.5 94.2001 221.9 95.4001 218.1 96.0001C214.7 96.6001 211.3 96.7001 207.9 96.1001C207.8 96.1001 207.7 96.0001 207.6 96.0001C207.5 95.9001 207.5 95.8001 207.5 95.7001Z" fill="#01686F"/>
<path d="M225.8 38.9002C225.5 40.5002 225.2 42.0002 224.9 43.6002C224.1 47.1002 223.5 50.6002 222.5 53.9002C221.5 57.2002 220.3 60.6002 218.9 63.7002C216.4 69.2002 213.6 74.5002 210.9 79.8002C210.8 80.0002 210.6 80.2002 210.3 80.4002C210.5 80.0002 210.6 79.6002 210.8 79.3002C213.5 73.7002 216.3 68.1002 218.9 62.5002C221.4 57.1002 222.9 51.3002 224 45.4002C224.4 43.2002 225 41.0002 225.5 38.9002C225.6 38.8002 225.7 38.8002 225.8 38.9002Z" fill="#01686F"/>
<path d="M223 99.0002C221.2 99.2002 219.4 99.6002 217.7 99.7002C215.9 99.8002 214.2 99.7002 212.4 99.9002C214.5 100.7 216.6 100.7 218.8 100.7C224.8 100.7 230.6 99.7002 236.3 98.2002C236.5 98.1002 236.7 98.1002 237 98.3002C234.7 98.9002 232.4 99.5002 230.2 100.1C226.1 101 221.9 101.4 217.7 101.4C216.6 101.4 215.5 101.3 214.5 101.1C213.3 100.9 212.2 100.6 210.8 100.3C211 100 211.2 99.9002 211.3 99.7002C211 99.6002 210.6 99.5002 210.3 99.4002C210.3 99.3002 210.3 99.2002 210.3 99.2002C211.7 99.3002 213.1 99.4002 214.4 99.4002C215.9 99.4002 217.3 99.3002 218.8 99.2002C220.2 99.1002 221.6 99.0002 223.1 98.9002C223 98.9002 223 98.9002 223 99.0002Z" fill="#01686F"/>
<path d="M206.1 49.1001C205.1 52.5001 204 55.9001 203 59.4001C201.9 63.4001 201.1 67.5001 200.7 71.6001C200.2 76.7001 200.4 81.8001 202 86.7001C202 86.8001 202 87.0001 201.8 87.1001C201.3 85.0001 200.7 83.0001 200.4 80.9001C199.5 73.9001 200.5 67.1001 202.3 60.4001C203.3 56.8001 204.6 53.3001 205.8 49.7001C205.9 49.5001 206 49.3001 206.1 49.1001Z" fill="#01686F"/>
<path d="M244.8 59.4001C245.1 59.1001 245.3 58.8 245.6 58.6C249 55.1 252 51.3001 254.8 47.4001C257.2 44.1001 259 40.4 260.1 36.5C260.3 35.9 260.4 35.4 260.6 34.8C260.8 35.9 260.6 36.9001 260.3 37.9001C258.9 42.0001 257.1 45.7 254.4 49.1C251.8 52.4 249.3 55.9001 246.1 58.7001C245.7 59 245.4 59.3001 245.1 59.7001C244.9 59.5 244.8 59.5001 244.8 59.4001Z" fill="#01686F"/>
<path d="M208 93.4002C208.2 93.2002 208.3 93.0002 208.5 92.9002C212.4 89.9002 215.2 86.0002 217.5 81.6002C219.5 77.8002 221.3 74.0002 223.2 70.2002C223.4 69.8002 223.6 69.5002 223.9 69.2002C223.2 70.8002 222.6 72.5002 221.8 74.0002C219.8 78.3002 217.7 82.6002 215.1 86.6002C213.5 89.1002 211.5 91.1002 209.2 92.9002C208.9 93.2002 208.5 93.4002 208.1 93.6002C208.1 93.6002 208 93.5002 208 93.4002Z" fill="#01686F"/>
<path d="M289.6 95.3C289.1 95.2 288.5 95.1 288 95C285.6 94.4 283.2 94.1 280.7 94C278.3 93.9 275.9 93.7 273.6 93.8C270.1 93.9 266.5 94.1 263 94.2C262.2 94.2 261.4 94.2 260.7 94.2C267.1 93.3 273.6 93.2 280.1 93.4C282.7 93.5 285.3 94 287.9 94.4C288.5 94.5 289.1 94.8 289.8 95.1C289.7 95.1 289.7 95.2 289.6 95.3Z" fill="#01686F"/>
<path d="M277.3 57.7001C275.1 58.5001 273 59.4001 270.8 60.2001C268.7 60.9001 266.5 61.6 264.3 62.3C267.3 62.4 270.1 61.2 273.2 60.5C271.2 61.5 269.3 62.0001 267.4 62.4001C266.7 62.6001 265.9 62.6 265.2 62.8C264.5 63 263.9 62.8001 263.5 62.2001C262.5 62.3001 261.6 62.3001 260.6 62.4001C260.6 62.3001 260.6 62.1 260.5 62C266.3 61.5 271.7 59.4 277 57.3C277.2 57.5 277.3 57.6001 277.3 57.7001Z" fill="#01686F"/>
<path d="M204.2 64.8001C202 74.1001 201.9 83.5001 205.3 92.7001C205.1 92.4001 205 92.2001 204.8 91.9001C203.6 89.4001 202.9 86.7001 202.6 83.9001C202.4 81.0001 202.1 78.1001 202.1 75.2001C202.1 71.7001 202.8 68.2001 203.9 64.8001C203.9 64.7001 204 64.7001 204 64.6001C204.1 64.6001 204.1 64.7001 204.2 64.8001Z" fill="#01686F"/>
<path d="M244 27.8C242.7 30.1 241.4 32.4 240 34.6C237.9 37.8 236.8 41.4001 235.7 44.9001C234.7 47.9001 233.9 51 232.9 54.1C233 53.6 233.1 53.2001 233.2 52.7001C234.6 47.2001 235.9 41.7 238.4 36.6C239.9 33.4 241.7 30.5 244 27.8Z" fill="#01686F"/>
<path d="M245.2 64.5001C238.4 66.8001 231.6 69.1001 225.9 73.8001C225.8 73.7001 225.8 73.7001 225.7 73.6001C225.9 73.4001 226 73.1001 226.2 73.0001C227.8 71.9001 229.4 70.6001 231.2 69.7001C235.4 67.3001 239.9 65.8001 244.6 64.6001C244.8 64.4001 245 64.5001 245.2 64.5001Z" fill="#01686F"/>
<path d="M274.7 85.6002C267.2 85.9002 260.1 88.2002 252.8 89.9002C253.6 89.6002 254.3 89.4002 255.1 89.1002C255.9 88.8002 256.6 88.6002 257.4 88.4002C261.4 87.4002 265.3 86.4002 269.3 85.6002C270.8 85.3002 272.3 85.3002 273.8 85.2002C274.1 85.2002 274.4 85.3002 274.6 85.3002C274.7 85.5002 274.7 85.6002 274.7 85.6002Z" fill="#01686F"/>
<path d="M209 27.4001C207.1 35.8001 203.4 43.5001 200.8 51.6001C200.7 51.6001 200.6 51.5001 200.5 51.5001C201.4 48.9001 202.3 46.2001 203.2 43.6001C204.2 40.9001 205.2 38.2001 206.2 35.5001C207.3 32.8001 208.1 30.1001 209 27.4001Z" fill="#01686F"/>
<path d="M230.3 64.1C233.6 57.6 236.6 50.9 239.3 44.1C239.4 44 239.5 43.9 239.6 43.8C237.1 50.9 234.3 57.7 230.3 64.1Z" fill="#01686F"/>
<path d="M196.3 59.6C195.8 55.7 195.3 51.7 194.8 47.8C194.3 43.9 193.6 40.1 192.5 36.3C195.2 43.9 195.6 51.8 196.3 59.6Z" fill="#01686F"/>
<path d="M245.9 12.6001C245.4 13.5001 244.4 13.8001 243.7 14.4001C243 15.0001 242.3 15.6001 241.7 16.2001C241 16.8001 240.3 17.5001 239.7 18.2001C239.1 18.8001 238.4 19.5001 237.8 20.2001C237.2 20.9001 236.6 21.7001 236 22.4001C235.5 23.1001 234.9 23.9001 234.4 24.7001C234.8 21.8001 243 13.2001 245.9 12.6001Z" fill="#01686F"/>
<path d="M248.9 51.3C246.7 55.3 243.6 58.5 240.2 61.5C239.1 62.5 237.9 63.4 236.3 63.8C236.3 63.6 236.3 63.4001 236.4 63.4001C240.4 61.2001 243.3 57.8 246.3 54.5C247.2 53.5 248 52.4 248.9 51.3Z" fill="#01686F"/>
<path d="M218.1 40.1001C219.2 34.1001 221 28.3001 221.5 22.1001C221.9 22.8001 222 23.6001 221.8 24.7001C221 29.7001 219.7 34.7001 218.4 39.5001C218.3 39.7001 218.2 39.9001 218.1 40.1001Z" fill="#01686F"/>
<path d="M210.3 17.4001C210.1 14.1001 213.1 2.5001 214.9 0.600098C214.6 2.3001 213.8 3.5001 213.5 4.9001C213.1 6.3001 212.7 7.6001 212.3 9.0001C211.9 10.4001 211.6 11.8001 211.2 13.3001C210.9 14.6001 210.6 16.0001 210.3 17.4001Z" fill="#01686F"/>
<path d="M219.7 84.0001C224 79.8001 229.1 76.9001 234.5 74.4001C229.5 77.5001 224.3 80.3001 219.7 84.0001Z" fill="#01686F"/>
<path d="M209.1 71.3002C210.4 64.4002 212.9 57.3002 215.5 50.2002C213.3 57.5002 211.1 64.7002 209.1 71.3002Z" fill="#01686F"/>
<path d="M196.4 45.3C197.7 51.4 197 57.6 197 63.8C196.9 60.7 196.8 57.7 196.7 54.6C196.6 51.5 196.5 48.4 196.4 45.3Z" fill="#01686F"/>
<path d="M212 91.3C215.8 87.7 218.4 83.2 221.2 78.8C221.1 79.1 220.9 79.5 220.8 79.8C219.1 83.1 217.2 86.2 214.8 89.1C214.3 89.8 213.6 90.4 213 91C212.7 91.2 212.4 91.4 212.1 91.6C212.2 91.5 212.1 91.4 212 91.3Z" fill="#01686F"/>
<path d="M264.3 67.9001C259.7 69.2001 255.2 70.7001 250.8 72.6001C255 70.2001 259.5 68.5001 264.3 67.9001Z" fill="#01686F"/>
<path d="M249.8 32.7C251.6 28.9 253.3 25.2 255 21.5C255.3 22.9 251.9 30.4 249.8 32.7Z" fill="#01686F"/>
<path d="M283.3 92.7001C279.2 92.6001 275 92.5001 271.2 92.4001C274.2 91.8001 281.4 91.9001 283.3 92.7001Z" fill="#01686F"/>
<path d="M238.1 33.5C240.8 29.8 242.7 25.6 245.9 22.2C246.1 22 246.2 21.7 246.4 21.5C246.5 21.6 246.6 21.6 246.6 21.7C245.2 23.7 243.7 25.6 242.3 27.6C240.9 29.6 239.6 31.7 238.3 33.7C238.3 33.6 238.2 33.5 238.1 33.5Z" fill="#01686F"/>
<path d="M232.6 84.5C233 84.3 233.4 84 233.8 83.8C238.8 81.6 244 80.1 249.1 78.3C249.2 78.3 249.3 78.3 249.6 78.4C248.3 78.8 247.2 79.2 246 79.6C241.7 81.1 237.3 82.4 233.2 84.4C233 84.4 232.8 84.4 232.6 84.5Z" fill="#01686F"/>
<path d="M238.6 21.1C241.3 18.3 243.7 15.2 246.9 13C247 13.2 247.1 13.2 247.1 13.3V13.4C247.1 13.5 247 13.6 247 13.6C244.2 16.1 241.4 18.6 238.6 21.1Z" fill="#01686F"/>
<path d="M198.2 39.6001C199 41.0001 199.5 47.2001 199 50.4001C198.7 46.9001 198.4 43.4001 198.2 39.6001Z" fill="#01686F"/>
<path d="M272.4 41.1C271.5 41.7 270.6 42.3 269.7 43C268.8 43.7 267.9 44.4 267.1 45.1C266.2 45.8 265.4 46.6 264.5 47.4C265.7 45 270.7 41 272.4 41.1Z" fill="#01686F"/>
<path d="M223.1 55.7002C221.9 60.2002 220 64.5002 217.9 68.7002C219.6 64.4002 221.3 60.0002 223.1 55.7002Z" fill="#01686F"/>
<path d="M286.3 65.7002C285.6 66.9002 281.3 68.7002 278.6 68.8002C281.2 67.7002 283.8 66.7002 286.3 65.7002Z" fill="#01686F"/>
<path d="M280.4 47.3001C277.8 48.4001 275.1 49.6001 272.5 50.7001C274.9 49.1001 277.5 47.9001 280.3 46.9001C280.3 47.1001 280.4 47.2001 280.4 47.3001Z" fill="#01686F"/>
<path d="M216.5 23.3C217 20.5 217.4 17.6 217.9 14.8C218.1 17.7 217.4 20.5 216.5 23.3Z" fill="#01686F"/>
<path d="M229.1 75.3C226.8 76.9 224.5 78.6 222.2 80.2C222.1 80.1 222.1 80 222 80C224.2 78.1 226.5 76.6 229.1 75.3Z" fill="#01686F"/>
<path d="M213.8 9.40015C214.2 6.70015 214.7 4.20015 215.9 1.90015C216 1.90015 216.1 2.00015 216.2 2.00015C215.4 4.40015 214.6 6.90015 213.8 9.40015Z" fill="#01686F"/>
<path d="M275.8 70.4001C278 69.9001 280.1 69.4001 282.3 68.9001C281 69.8001 279.5 70.1001 278.1 70.5001C277.5 70.7001 276.8 70.7001 276.2 70.7001C276.2 70.8001 276 70.6001 275.8 70.4001Z" fill="#01686F"/>
<path d="M251.4 88.8001C254.3 87.5001 257.3 86.3001 260.5 85.6001C257.5 86.7001 254.4 87.7001 251.4 88.8001Z" fill="#01686F"/>
<path d="M258.2 71.1C260.3 70.4 262.5 69.7 264.6 69C264.6 69.1 264.7 69.2 264.7 69.4C263.7 69.9 262.6 70.1 261.6 70.4C260.5 70.7 259.4 71.1 258.3 71.4C258.3 71.3 258.2 71.2 258.2 71.1Z" fill="#01686F"/>
<path d="M223.2 26.0001C223.3 27.9001 222.9 29.7001 222.2 31.4001C222.4 29.6001 222.7 27.7001 222.9 25.9001C223 26.0001 223.1 26.0001 223.2 26.0001Z" fill="#01686F"/>
<path d="M273.7 41.7001C272.3 42.5001 270.8 43.4001 269.4 44.2001C270.6 42.9001 272 42 273.5 41.3C273.6 41.4 273.6 41.6001 273.7 41.7001Z" fill="#01686F"/>
<path d="M255.9 23.7001C255.5 25.3001 254.7 26.8001 254 28.3001C253.9 28.3001 253.8 28.2001 253.8 28.2001C254.4 26.7001 255.1 25.1001 255.7 23.6001C255.7 23.6001 255.8 23.6001 255.9 23.7001Z" fill="#01686F"/>
<path d="M279.6 72.3001C278.8 72.4001 277.9 72.6001 277.1 72.7001C277.1 72.6001 277.1 72.5001 277 72.3001C277.9 72.2001 278.7 72.0001 279.6 71.9001C279.6 72.1001 279.6 72.2001 279.6 72.3001Z" fill="#01686F"/>
<path d="M232.6 84.4001C231.5 85.0001 230.4 85.6001 229.3 86.2001C229.3 86.1001 229.2 86.0001 229.2 85.9001C230.3 85.4001 231.4 84.9001 232.6 84.4001Z" fill="#01686F"/>
<path d="M250.9 77.7001C251.7 77.4001 252.5 77.2001 253.3 76.9001C253.3 77.0001 253.3 77.0001 253.4 77.1001C252.6 77.4001 251.8 77.6001 251 77.9001C251 77.8001 251 77.8001 250.9 77.7001Z" fill="#01686F"/>
<path d="M168.5 165.4C168.8 165.2 169 165 169.3 164.8C172.4 162.5 175.5 160.3 178.5 158C182 155.4 185.5 152.9 188.7 150C191.4 147.5 194.1 145.1 196.9 142.9C199.6 140.8 202.5 138.8 205.6 137.2C209.4 135.1 213.5 134.1 217.8 134C223.2 133.8 228.4 134.8 233.4 136.8C239.7 139.3 246 141.7 252.2 144.4C255.3 145.7 258.2 147.2 261.1 148.9C264.9 151.2 268.6 153.7 272.3 156.1C275.2 158 277.4 160.7 279.6 163.3C279.7 163.4 279.7 163.5 279.8 163.9C279.3 163.7 278.9 163.7 278.6 163.5C273.3 160.8 268 158 262.6 155.4C259 153.6 255.2 152 251.6 150.1C249 148.7 246.2 147.5 243.4 146.6C240 145.5 236.5 144.9 232.9 144.9C229.6 144.9 226.2 144.8 222.9 144.9C216.7 145.2 210.6 146.2 204.7 148.1C197 150.6 189.4 153.5 182.1 157.2C177.8 159.4 173.9 162.2 170 165C169.6 165.3 169.2 165.5 168.7 165.8C168.7 165.7 168.6 165.5 168.5 165.4ZM184 154.8C184.1 154.9 184.1 154.9 184.2 155C184.6 154.8 184.9 154.6 185.3 154.4C188.7 152.5 192.1 150.7 195.5 148.8C196.8 148.1 198.1 147.6 199.4 147.1C207 143.8 214.8 141.8 223.1 141.1C227.3 140.8 231.6 141.1 235.8 142C236.5 142.1 237.1 142.2 237.8 142.3C237.6 141.9 237.4 141.7 237.2 141.6C235.2 140.3 233.2 139 231.1 137.8C227.6 135.8 224 134.5 219.9 134.5C215.2 134.5 210.7 135.1 206.6 137.4C200.8 140.5 195.6 144.5 190.8 148.9C188.8 150.7 186.9 152.4 184.9 154.1C184.5 154.3 184.3 154.6 184 154.8ZM273.7 160.2C273.7 160.1 273.8 160.1 273.8 160C273.8 159.9 273.7 159.8 273.7 159.8C273.3 159.5 272.9 159.2 272.5 158.9C267.9 155.7 262.9 153 258 150.3C255.6 149 253 148.2 250.4 147.4C247.8 146.7 245.2 145.8 242.7 144.6C241.3 144 239.8 143.4 238.3 143C232.5 141.6 226.6 141.2 220.6 141.9C215.4 142.5 210.4 143.7 205.5 145.3C201.1 146.8 196.9 148.6 192.8 150.9C191.8 151.5 190.7 151.9 189.7 152.5C189.4 152.6 189.2 152.8 189 153C189.5 153 189.9 152.9 190.3 152.7C193.5 151.4 196.6 150 199.8 148.9C206.5 146.6 213.3 144.9 220.4 144.4C225.2 144.1 230.1 143.8 234.9 144.3C238.1 144.6 241.2 145.1 244.2 146.1C247.3 147.2 250.4 148.5 253.3 150.1C258 152.6 262.9 154.9 267.7 157.2C269.7 158.2 271.7 159.2 273.7 160.2ZM230.1 136.2C230.1 136.3 230 136.4 230 136.5C233.7 138.7 237.4 141 241.2 143.1C244.1 144.7 247.2 145.9 250.5 146.8C252.8 147.4 255.1 148.1 257.3 148.9C258 149.1 258.6 149.5 259.3 149.8C260.5 150.3 261.7 150.7 262.9 151.2C262 150.3 261.1 149.5 260.1 148.9C257.7 147.6 255.3 146.2 252.8 145.2C246 142.4 239.1 139.7 232.2 136.9C231.4 136.6 230.8 136.4 230.1 136.2ZM261.6 151.5C267.1 154.5 272.3 157.8 277.2 161.7C275.9 158.8 265.9 152.3 261.6 151.5Z" fill="#01686F"/>
<path d="M145.9 49C148 51.5 150.1 54.1 152.3 56.7C157 62.3 161.1 68.4 165.3 74.4C169.6 80.7 172.9 87.4 175.6 94.4C178.1 100.9 180.4 107.6 181.6 114.5C182.2 118 182.8 121.4 182.8 124.9C182.9 128.8 183.1 132.7 183 136.6C182.9 140.1 182.5 143.5 181.2 146.8C180.9 147.5 180.4 148.1 180 148.7C179.9 148.7 179.8 148.6 179.7 148.6C179.8 148.2 179.9 147.8 180.1 147.4C181.1 144.7 181.3 141.9 181.1 139.1C180.7 129.6 177.6 120.9 173.1 112.6C171 108.9 168.7 105.2 166.4 101.6C165.6 100.3 164.5 99.1 163.7 97.8C160.2 92 156.6 86.2 154.2 79.8C152.3 74.6 150.9 69.2 149.7 63.8C148.7 59.4 147.7 55 146.2 50.8C146.2 50.2 146.1 49.6 145.9 49ZM148.2 53.8C148.1 53.8 148.1 53.8 148 53.9C148 54.1 148 54.2 148.1 54.4C149.1 58.4 150.1 62.4 151.1 66.5C152.5 72.3 154.1 78.2 156.6 83.7C159.3 89.6 162.7 95.1 166.4 100.5C169.1 104.5 171.6 108.6 173.9 112.8C176.8 118 179 123.4 180.4 129.2C180.8 131 181.1 132.8 181.5 134.6C181.7 134.3 181.7 134 181.7 133.7C181.6 132.4 181.6 131 181.4 129.7C181 126.3 180.6 122.8 180 119.4C178.3 110.8 175.1 102.6 171.3 94.7C169.6 91.2 167.6 87.9 165.6 84.5C159.7 75 153.7 65.5 149.1 55.3C148.8 54.9 148.5 54.4 148.2 53.8ZM149.1 53.8C149 53.9 149 53.9 148.9 54C149 54.2 149.1 54.4 149.1 54.6C152.3 61.2 155.8 67.6 159.6 73.9C162 77.8 164.6 81.7 166.9 85.7C169.1 89.4 171.2 93.2 172.9 97.2C174.9 101.7 176.7 106.2 178.2 110.9C179.9 116.3 181 121.8 181.7 127.4C182 129.8 182.1 132.1 182.3 134.5C182.5 134.3 182.5 134.1 182.5 133.9C182.4 130.7 182.4 127.4 182.1 124.2C181.8 121 181.5 117.7 180.9 114.6C179.7 107.9 177.5 101.5 175.1 95.2C172.5 88.4 169.3 81.9 165.2 75.8C161.7 70.7 158.4 65.6 154.5 60.7C152.8 58.3 150.9 56.1 149.1 53.8Z" fill="#01686F"/>
<path d="M134.4 422.6C134.4 420.6 134.4 418.6 134.5 416.6C134.7 411.5 134.9 406.4 135.2 401.3C135.8 391.4 136.6 381.6 136.2 371.7C136 366.6 135.6 361.6 135.2 356.5C134.7 349.6 133.8 342.8 132.5 336C131.8 332.4 131 328.8 130.4 325.2C128.8 316.7 127.2 308.2 125.9 299.6C124.7 292.2 124.3 284.7 124.3 277.2C124.3 272 124.7 266.8 125.2 261.6C126.1 252.7 127.9 244.1 130 235.5C131.9 227.7 134.8 220.2 138 212.9C141.5 204.8 145.2 196.7 150.2 189.4C153.8 184.1 157.7 179.1 161.5 174C163.4 171.5 165.2 168.9 167.2 166.4C170.9 162 174.2 157.2 177.3 152.4C179.7 148.7 182 144.8 184.2 140.9C189.1 132.2 192.9 122.9 196.1 113.4C198.1 107.3 200.5 101.3 202.7 95.2001C202.8 95.0001 202.9 94.8001 203.2 94.6001C203.2 94.8001 203.3 95.0001 203.2 95.2001C202.2 98.2001 201.1 101.1 200.1 104.1C198.1 109.8 196.1 115.6 194.1 121.2C191.7 127.6 188.9 133.9 185.6 139.9C181.5 147.4 177 154.5 172 161.4C171.1 162.7 170.2 163.9 169.2 165.2C166.2 169.1 163.3 173 160.2 176.8C149.8 189.4 142.4 203.7 136.4 218.8C134.3 224.2 132.3 229.6 130.8 235.1C129.7 239.3 128.8 243.5 128 247.8C127.2 252.3 126.5 256.9 126 261.4C125.1 269.5 124.9 277.6 125.3 285.7C125.7 294.1 126.9 302.3 128.5 310.6C129.1 313.6 129.7 316.6 130.2 319.7C131.5 326.9 133 334.1 134.2 341.4C134.9 346 135.4 350.6 135.9 355.2C137 364.8 137.2 374.5 136.9 384.2C136.8 388.2 136.5 392.3 136.2 396.3C135.9 401.4 135.6 406.4 135.3 411.5C135.1 414.8 135.1 418.1 135 421.4C135 421.9 135 422.4 135 422.8C134.8 422.6 134.6 422.6 134.4 422.6Z" fill="#01686F"/>
</g>
<defs>
<clipPath id="clip0_169_25939">
<rect width="301.9" height="422.7" fill="white"/>
</clipPath>
</defs>
</svg>
