<svg width="206" height="463" viewBox="0 0 206 463" fill="none" xmlns="http://www.w3.org/2000/svg">
<g opacity="0.06">
<mask id="mask0_169_26240" style="mask-type:alpha" maskUnits="userSpaceOnUse" x="0" y="0" width="206" height="463">
<rect width="463" height="205.618" transform="matrix(-4.37114e-08 -1 -1 4.37114e-08 206 463)" fill="#D9D9D9"/>
</mask>
<g mask="url(#mask0_169_26240)">
<path d="M51.7789 424.861C37.6849 419.726 28.6405 437.378 23.6152 446.432C33.8598 442.78 48.4943 436.752 51.7789 424.861Z" fill="white"/>
<path d="M51.9611 423.945C37.4096 418.902 28.4561 435.73 22.6999 446.064C22.3345 446.796 22.9757 447.803 23.799 447.529C34.9582 443.512 48.9524 437.759 52.694 425.227C52.9676 424.037 51.1373 423.487 50.7723 424.768C47.3961 436.568 33.676 441.864 23.2486 445.699C23.615 446.248 23.9813 446.614 24.3477 447.164C29.647 437.652 37.869 421.373 51.4137 425.958C52.6033 426.233 53.1509 424.404 51.9611 423.945Z" fill="#01686F"/>
<path d="M67.0484 411.606C60.467 419.652 54.2572 435.018 63.5963 443.809C72.375 437.594 73.0932 419.662 67.5969 411.057" fill="white"/>
<path d="M66.3155 410.872C59.1857 419.65 53.159 435.2 62.773 444.448C63.0477 444.723 63.5968 444.906 63.9625 444.541C68.9918 440.793 71.1829 434.573 71.8188 428.627C72.3631 422.588 71.626 415.817 68.3281 410.508C67.6868 409.501 66.0407 410.415 66.6819 411.422C69.6134 416.182 70.4415 422.312 69.8968 427.802C69.4434 433.199 67.6184 439.42 62.9547 442.801C63.3207 442.802 63.7783 442.893 64.1442 442.894C55.3543 434.47 61.1074 420.109 67.6888 412.063C68.5116 411.24 67.1382 409.867 66.3155 410.872Z" fill="#01686F"/>
<path d="M75.9117 396.7C66.3905 389.19 45.7181 396.128 42.7073 407.196C53.3211 407.753 64.9407 407.488 75.7292 397.432" fill="white"/>
<path d="M76.5516 396.059C70.8756 391.663 63.0074 392.023 56.5129 394.123C50.2928 396.131 43.617 400.426 41.7008 407.103C41.5182 407.652 41.9762 408.293 42.6167 408.385C48.1981 408.664 53.8707 408.668 59.5424 407.392C65.9458 405.933 71.5245 402.735 76.2789 398.346C77.1931 397.432 75.8196 396.059 74.9054 396.973C70.2425 401.27 64.8467 404.285 58.5346 405.652C53.3203 406.838 47.9221 406.742 42.5237 406.464C42.7986 406.921 43.1648 407.287 43.4396 407.745C45.1735 401.799 51.3007 398.053 56.8804 396.136C62.5516 394.31 69.9622 393.675 74.9974 397.614C76.0957 398.163 77.4671 396.792 76.5516 396.059Z" fill="#01686F"/>
<path d="M81.6664 385.449C75.9109 396.698 80.4035 408.87 90.2901 415.649C98.6081 405.316 89.7219 390.579 81.4829 384.717" fill="white"/>
<path d="M80.7515 384.9C78.0109 390.387 77.2837 396.608 79.1181 402.465C80.8609 408.231 84.7989 413.083 89.6507 416.472C90.0168 416.655 90.5658 416.656 90.8401 416.381C99.2494 405.774 91.3693 390.763 81.7572 383.894C80.6587 383.161 79.8366 384.899 80.8435 385.54C89.3572 391.677 96.9618 405.498 89.4666 415.008C89.8326 415.008 90.29 414.917 90.656 414.917C86.2618 411.803 82.5987 407.409 80.9477 402.101C79.2052 396.701 79.9328 391.029 82.3993 385.999C83.0388 384.81 81.2996 383.802 80.7515 384.9Z" fill="#01686F"/>
<path d="M83.9429 371.086C75.4301 366.048 61.2514 369.788 55.495 379.94C68.5829 385.348 75.6238 379.955 83.9434 371.635" fill="white"/>
<path d="M84.4004 370.263C74.2401 364.491 60.337 369.787 54.6718 379.481C54.3063 380.03 54.7642 380.671 55.3133 380.854C60.5301 382.963 66.3865 383.882 71.783 381.782C76.8137 379.864 80.8365 376.025 84.5849 372.276C85.4992 371.362 84.1257 369.989 83.2114 370.903C79.7373 374.377 75.9889 378.125 71.2326 379.952C66.1105 381.961 60.7116 380.95 55.7693 378.933C56.0442 379.391 56.136 379.849 56.4109 380.306C61.5278 371.527 74.3332 366.596 83.4867 371.91C84.4936 372.551 85.4987 370.813 84.4004 370.263Z" fill="#01686F"/>
<path d="M86.8618 358.462C85.1305 367.702 95.4835 386.1 104.726 388.395C105.721 372.75 99.1288 367.255 88.051 358.189" fill="white"/>
<path d="M85.9464 358.279C84.8532 364.499 87.6948 371.364 90.8097 376.673C93.833 381.89 98.3208 387.841 104.544 389.492C105.184 389.584 105.733 389.219 105.824 388.578C106.185 382.357 105.357 376.043 102.059 370.734C98.6696 365.516 93.6344 361.578 88.9652 357.64C87.9581 356.816 86.5867 358.188 87.5938 359.012C92.0799 362.766 96.9319 366.338 100.229 371.282C103.619 376.499 104.355 382.539 103.994 388.577C104.451 388.303 104.817 387.937 105.274 387.663C99.692 386.286 95.5703 380.519 92.8219 375.759C89.9818 370.908 87.1407 364.593 88.1427 358.829C88.0501 357.457 86.1284 356.998 85.9464 358.279Z" fill="#01686F"/>
<path d="M91.9733 342.913C81.4476 337.872 67.3656 348.475 62.6147 357.255C73.9614 359.093 85.0275 352.972 91.5166 343.919" fill="white"/>
<path d="M92.4299 342.089C86.6638 339.431 80.2603 340.89 74.8644 343.906C69.4686 346.921 64.6228 351.4 61.6077 356.796C61.3335 357.253 61.6087 358.077 62.2492 358.169C74.0533 359.916 85.3939 353.886 92.2488 344.468C93.0714 343.462 91.2409 342.546 90.6012 343.552C84.2948 352.239 73.5943 357.995 62.7053 356.431C62.9802 356.889 63.072 357.346 63.3468 357.804C66.0879 352.865 70.3849 348.751 75.1405 346.01C79.9876 343.177 86.0248 341.352 91.4248 343.827C92.6146 344.285 93.5283 342.639 92.4299 342.089Z" fill="#01686F"/>
<path d="M101.753 330.019C91.4209 338.886 101.773 356.186 110.103 361.957C115.585 351.897 111.273 336.614 101.753 330.019Z" fill="white"/>
<path d="M101.112 329.378C92.4257 336.966 97.7422 349.779 103.787 357.286C105.527 359.392 107.45 361.315 109.647 362.963C110.104 363.238 110.745 362.964 110.927 362.598C116.774 351.623 112.279 336.34 102.21 329.379C101.203 328.738 100.289 330.384 101.296 331.025C110.45 337.437 114.579 351.622 109.28 361.682C109.737 361.591 110.103 361.408 110.56 361.317C102.321 355.455 92.7021 339.436 102.394 330.843C103.308 329.929 101.935 328.555 101.112 329.378Z" fill="#01686F"/>
<path d="M111.993 321.243C101.924 314.648 84.2675 317.654 78.237 328.263C90.8659 331.749 100.379 328.28 110.164 321.974" fill="white"/>
<path d="M112.451 320.42C101.74 313.55 83.9928 316.464 77.414 327.804C77.0484 328.353 77.415 329.085 78.0555 329.177C83.7293 330.646 89.6767 331.108 95.4398 329.74C100.928 328.463 105.959 325.814 110.806 322.798C111.811 322.158 110.895 320.511 109.889 321.15C105.408 323.983 100.653 326.541 95.3469 327.818C89.7668 329.186 84.0938 328.816 78.6031 327.348C78.8779 327.806 78.9697 328.263 79.2446 328.721C85.2752 318.295 101.834 315.837 111.72 322.067C112.635 322.799 113.549 321.153 112.451 320.42Z" fill="#01686F"/>
<path d="M127.633 314.211C118.306 320.974 113.102 334.786 121.069 344.948C130.304 336.629 131.576 325.285 128.091 314.303" fill="white"/>
<path d="M127.176 313.387C117.209 320.79 112.188 335.151 120.43 345.588C120.705 346.045 121.437 345.863 121.894 345.589C126.191 341.658 129.39 336.628 130.483 330.773C131.577 325.102 130.932 319.337 129.189 313.937C128.731 312.748 126.993 313.204 127.268 314.393C128.919 319.518 129.655 325.009 128.561 330.314C127.468 335.803 124.635 340.467 120.521 344.215C120.887 344.216 121.435 344.216 121.984 344.217C114.566 334.787 119.497 321.616 128.275 315.035C129.098 314.395 128.09 312.656 127.176 313.387Z" fill="#01686F"/>
<path d="M138.152 309.186C125.617 309.634 112.714 305.873 105.478 295.529C115.354 288.766 133.933 295.825 136.229 307.629" fill="white"/>
<path d="M138.151 308.271C126.257 308.628 113.537 305.233 106.209 295.163C106.118 295.62 105.935 295.986 105.844 296.444C115.446 289.955 132.743 296.281 135.131 307.994C135.407 309.184 137.328 308.728 137.052 307.538C134.389 294.819 115.536 287.668 104.928 294.796C104.471 295.07 104.197 295.71 104.563 296.077C112.257 306.696 125.435 310.549 138.061 310.193C139.433 310.102 139.432 308.272 138.151 308.271Z" fill="#01686F"/>
<path d="M164.21 287.522C156.624 296.757 146.838 302.88 136.137 307.903C126.443 312.471 116.198 316.123 107.419 322.337C97.6348 329.375 91.0548 339.251 87.5869 350.777C85.4878 357.637 84.4869 364.865 82.8454 371.817C81.4777 377.946 79.744 384.075 77.4612 390.02C74.9957 396.331 71.6151 402.459 67.4105 407.762C62.4745 413.98 56.44 419.282 49.9475 423.943C48.21 425.132 49.859 427.878 51.5051 426.781C62.5699 419.012 71.9864 409.413 77.8326 397.157C83.4963 385.45 86.1397 372.551 88.6919 359.927C90.1504 352.975 91.9751 346.206 95.5387 340.078C98.2797 335.14 101.936 330.751 106.325 327.094C114.646 320.239 124.799 316.312 134.402 312.019C146.567 306.631 157.907 300.052 166.408 289.719C167.779 288.165 165.49 285.876 164.21 287.522Z" fill="#01686F"/>
<path d="M66.4082 413.161C67.8753 417.37 65.6832 422.309 64.4054 426.334C62.671 431.548 62.1264 437.22 63.0456 442.711C63.2294 443.809 64.7845 443.352 64.6006 442.254C63.5899 436.672 64.5005 431 66.3263 425.695C67.6041 421.67 69.4304 416.914 67.9632 412.704C67.5965 411.789 66.0415 412.245 66.4082 413.161Z" fill="#01686F"/>
<path d="M81.1186 386.73C82.9521 391.489 83.9624 396.522 85.43 401.281C86.8059 405.765 88.7307 410.25 89.8321 414.825C90.1074 415.832 91.6625 415.375 91.3872 414.369C90.1942 409.702 88.3609 405.309 86.9851 400.824C85.5174 395.882 84.5072 391.032 82.6737 386.273C82.307 385.358 80.7519 385.814 81.1186 386.73Z" fill="#01686F"/>
<path d="M49.3076 424.95C45.1929 428.332 40.4369 430.524 36.1391 433.723C31.9328 436.831 28.3677 440.945 24.7107 444.602C23.9793 445.334 25.1697 446.524 25.8095 445.701C29.6493 441.861 33.3972 437.564 37.878 434.365C41.9931 431.532 46.4745 429.248 50.4063 426.049C51.3208 425.501 50.1305 424.31 49.3076 424.95Z" fill="#01686F"/>
<path d="M86.8624 361.025C90.7996 364.779 93.0909 369.996 96.1137 374.481C98.8616 378.509 101.976 382.537 103.626 387.296C103.993 388.211 105.548 387.938 105.181 386.84C103.439 381.989 100.417 377.87 97.4855 373.659C94.3712 369.082 92.0797 363.682 87.9594 359.744C87.227 359.195 86.0385 360.383 86.8624 361.025Z" fill="#01686F"/>
<path d="M100.839 331.665C102.311 342.097 108.906 351.434 109.188 361.956C109.189 363.054 110.836 363.056 110.835 361.958C110.552 351.253 103.957 341.732 102.394 331.209C102.302 330.203 100.747 330.659 100.839 331.665Z" fill="#01686F"/>
<path d="M90.6909 342.728C81.0862 345.557 72.3064 350.308 63.9847 355.883C63.0702 356.431 63.8947 357.804 64.8092 357.256C73.0395 351.772 81.7279 347.113 91.1496 344.284C92.1558 344.01 91.6972 342.454 90.6909 342.728Z" fill="#01686F"/>
<path d="M82.5701 370.994C73.1464 371.261 64.6404 375.189 56.1343 378.934C55.1283 379.39 55.9528 380.764 56.9588 380.307C65.1905 376.653 73.422 372.817 82.4798 372.549C83.5777 372.55 83.5764 370.903 82.5701 370.994Z" fill="#01686F"/>
<path d="M73.9895 396.606C63.3761 396.598 52.5826 400.249 43.6205 405.915C42.706 406.463 43.5305 407.836 44.445 407.288C53.1327 401.713 63.7434 398.245 74.0821 398.161C75.0887 398.254 75.0874 396.607 73.9895 396.606Z" fill="#01686F"/>
<path d="M126.444 315.033C123.066 323.905 120.237 333.327 120.244 342.842C120.245 343.94 121.892 343.942 121.891 342.844C121.975 333.42 124.713 324.09 128.091 315.4C128.457 314.486 126.901 314.027 126.444 315.033Z" fill="#01686F"/>
<path d="M109.248 320.327C104.581 319.683 99.8243 320.96 95.342 322.146C92.8721 322.785 90.4937 323.332 88.1154 324.062C85.4627 324.883 82.8101 325.888 80.1576 326.892C79.2429 327.257 79.6102 328.904 80.6162 328.448C82.9944 327.535 85.464 326.53 87.9337 325.709C90.312 324.978 92.6904 324.431 95.1603 323.793C99.5511 322.698 104.308 321.238 108.883 321.79C109.798 321.974 110.254 320.419 109.248 320.327Z" fill="#01686F"/>
<path d="M106.667 296.536C117.007 297.916 125.612 303.779 134.582 308.726C135.498 309.276 136.229 307.813 135.405 307.354C126.435 302.407 117.555 296.453 107.215 295.073C106.025 294.797 105.569 296.352 106.667 296.536Z" fill="#01686F"/>
<path d="M30.0683 34.1621C32.8033 21.355 9.46624 13.56 0.864232 11.5406C4.34833 21.0586 18.1761 36.8978 30.0683 34.1621Z" fill="white"/>
<path d="M30.9829 34.346C32.4411 27.0275 26.4899 21.6248 20.8147 18.3266C14.7733 14.6622 7.90928 12.1866 1.13744 10.5345C0.496911 10.4425 -0.326045 11.0824 -0.0510702 11.723C2.3327 18.1295 6.82035 23.897 12.039 28.3843C16.983 32.7798 23.5736 36.6276 30.4345 35.0775C31.6237 34.8039 31.1647 32.8822 29.9755 33.1558C23.6635 34.5233 17.4388 30.4928 12.8609 26.4635C8.19157 22.3427 3.97876 17.0328 1.77839 11.1755C1.4127 11.5412 0.955578 11.9983 0.589882 12.364C6.81262 13.8327 12.9445 16.1247 18.528 19.1483C23.8369 22.0802 30.5197 26.9346 29.1526 33.7956C28.8791 35.1678 30.8009 35.6267 30.9829 34.346Z" fill="#01686F"/>
<path d="M42.8038 58.0515C52.0399 51.7455 57.6075 34.0913 47.8116 26.3068C42.7833 31.3351 39.7775 48.9912 41.7958 55.9463" fill="white"/>
<path d="M43.3535 58.9675C53.0468 52.3874 59.1631 34.3677 48.5431 25.7591C48.1769 25.3928 47.5363 25.3008 47.0792 25.7579C43.5138 29.5065 42.0544 35.361 41.1433 40.301C40.2323 45.424 39.3218 51.2789 40.7897 56.4037C41.065 57.5933 42.9861 57.1373 42.7107 55.9477C41.4261 51.189 42.2453 45.6085 43.1566 40.8515C43.7034 38.1071 44.3418 35.4542 45.3462 32.8017C46.0766 30.7894 47.0815 28.6858 48.5442 27.223C48.1783 27.2227 47.6293 27.2223 47.0803 27.2219C56.6016 34.9147 51.0331 51.2879 42.3458 57.4113C41.3397 57.868 42.3475 59.6072 43.3535 58.9675Z" fill="#01686F"/>
<path d="M42.1682 64.3643C36.6712 54.8447 17.0818 42.2034 7.48337 53.2668C19.0198 63.889 25.6101 67.3709 40.7032 62.8993" fill="white"/>
<path d="M42.9913 63.9075C40.1513 59.0561 35.5736 55.2098 30.9052 52.3699C26.1452 49.4384 20.2879 47.2381 14.616 48.1487C11.5056 48.6952 8.76189 50.157 6.75084 52.5343C6.38514 52.9 6.29414 53.5404 6.75197 53.9983C11.4215 58.3021 16.3655 62.6976 22.4057 64.7151C28.4459 66.7326 34.8496 65.6396 40.7954 63.9058C41.9847 63.6322 41.5257 61.7105 40.3365 61.9841C34.6651 63.6266 28.6273 64.7199 22.9533 62.8857C17.1877 60.9598 12.5181 56.656 8.12333 52.6269C8.12361 52.9929 8.12403 53.5418 8.12445 54.0908C12.9695 48.6964 20.2898 49.6169 26.2389 52.2748C32.0967 55.0242 37.9557 59.4204 41.2537 64.9126C41.8949 65.9195 43.6325 64.9144 42.9913 63.9075Z" fill="#01686F"/>
<path d="M48.8635 86.2368C42.8167 75.6188 58.6339 60.9004 67.232 57.7962C64.9521 67.5843 61.4881 84.2336 49.6882 87.9758" fill="white"/>
<path d="M49.7786 85.6882C46.755 80.1047 50.1355 73.7942 53.6089 69.4052C57.2653 65.0163 62.0196 60.6282 67.4163 58.711C67.05 58.3447 66.5922 57.8869 66.2259 57.5206C64.9494 63.1923 63.6728 68.864 61.298 74.1688C58.9234 79.6566 55.2677 84.9605 49.3222 87.0603C48.1331 87.5168 48.6835 89.3472 49.7811 88.982C62.2211 84.7828 65.5031 69.4143 68.0562 58.071C68.1472 57.4306 67.5977 56.6982 66.8659 56.8807C60.829 59.0719 55.343 63.8254 51.5041 68.9461C47.6652 73.8838 44.6511 80.7436 47.9496 86.7847C48.6824 87.8832 50.42 86.8781 49.7786 85.6882Z" fill="#01686F"/>
<path d="M54.7272 95.5729C48.2272 90.5357 44.3797 84.3111 35.0474 84.487C30.1984 84.7577 23.8866 86.4913 20.6872 90.2401C29.7502 96.7431 43.1124 102.06 52.622 94.5648" fill="white"/>
<path d="M55.4586 94.8423C50.4234 90.9042 46.2104 85.4113 39.8047 83.9425C36.4188 83.1164 32.7593 83.4796 29.4662 84.392C25.9901 85.3043 22.606 86.8571 20.2293 89.6001C19.7722 90.0572 19.9557 90.7893 20.4134 91.0641C29.751 97.8419 43.3877 103.068 53.5376 95.2983C54.5434 94.4757 53.0785 93.1936 52.1641 93.9249C42.7457 101.146 29.8408 95.5546 21.4186 89.5095C21.5105 89.9671 21.5109 90.516 21.6027 90.9736C23.8882 88.505 27.1809 87.0436 30.3825 86.2226C33.5842 85.4016 36.9693 85.1297 40.0808 86.0471C45.7547 87.6983 49.6928 92.7335 54.1788 96.3053C55.0027 96.9464 56.4657 95.6666 55.4586 94.8423Z" fill="#01686F"/>
<path d="M68.3669 104.642C64.3322 93.1102 69.6271 77.7433 80.6932 71.6217C82.2575 83.2426 82.637 100.81 68.6418 105.282" fill="white"/>
<path d="M69.1903 104.368C65.3387 92.8371 70.3598 78.4764 81.0601 72.5374C80.6024 72.2626 80.1449 72.1708 79.6872 71.8959C81.1598 83.2424 81.6301 99.9862 68.3669 104.459C67.1778 104.916 67.7282 106.746 68.8259 106.381C83.3697 101.543 83.2648 84.0674 81.6082 71.4399C81.5162 70.7994 80.6926 70.5243 80.2353 70.7984C68.7119 77.1942 63.3255 92.4696 67.4523 104.824C67.8192 106.106 69.6487 105.558 69.1903 104.368Z" fill="#01686F"/>
<path d="M81.4563 111.697C72.3975 110.684 58.2198 115.705 54.0225 130.524C65.825 130.259 78.7217 125.053 82.647 113.437" fill="white"/>
<path d="M81.3637 110.69C75.782 110.046 70.0191 111.597 65.1721 114.429C59.1361 117.901 55.0233 123.662 53.0155 130.248C52.8329 130.797 53.3825 131.529 53.9314 131.53C66.0084 131.173 79.1795 125.877 83.4704 113.711C83.9269 112.522 82.0052 112.063 81.5487 113.252C77.4401 124.503 64.9091 129.342 53.8385 129.608C54.1133 130.066 54.4796 130.432 54.7544 130.89C58.1309 119.456 69.1956 111.504 81.2738 112.795C82.6462 112.704 82.6448 110.874 81.3637 110.69Z" fill="#01686F"/>
<path d="M97.7459 116.467C88.6834 110.513 92.6022 90.2958 100.741 85.2698C105.508 97.5337 108.352 106.411 98.0202 116.193" fill="white"/>
<path d="M98.2023 115.644C93.5337 112.439 93.0709 105.576 93.7989 100.453C94.527 95.3299 96.6265 89.0185 101.199 86.0942C100.741 85.8193 100.284 85.7275 99.826 85.4526C101.751 90.4863 104.043 95.8862 104.047 101.376C104.143 106.957 101.31 111.621 97.2873 115.461C96.373 116.375 97.7465 117.749 98.6607 116.834C102.866 112.812 105.882 107.782 105.969 101.835C105.964 95.9792 103.764 90.3049 101.655 84.9051C101.472 84.356 100.831 83.898 100.283 84.2636C96.2588 86.8223 93.975 91.4868 92.7891 95.9691C91.4204 100.817 90.9672 106.398 92.8007 111.157C93.7175 113.537 95.1831 115.734 97.3801 117.199C98.3872 118.023 99.3008 116.377 98.2023 115.644Z" fill="#01686F"/>
<path d="M114.677 122.244C104.334 117.936 87.2339 129.542 84.0391 139.33C95.1085 137.417 110.479 136.514 116.051 124.532" fill="white"/>
<path d="M114.858 121.33C108.726 118.854 101.5 121.502 96.1047 124.7C90.6176 127.99 85.1317 132.926 82.9406 139.146C82.7582 139.878 83.4906 140.428 84.131 140.337C95.9321 138.241 110.845 137.429 116.691 124.991C117.239 123.893 115.5 122.885 115.044 124.075C109.471 135.873 94.8328 136.411 83.672 138.415C84.0383 138.781 84.4961 139.239 84.8624 139.605C86.8709 133.934 92.0826 129.455 97.1125 126.44C102.142 123.424 108.637 120.959 114.402 123.251C115.592 123.709 116.048 121.788 114.858 121.33Z" fill="#01686F"/>
<path d="M130.511 130.582C124.191 121.337 124.455 107.521 133.782 100.209C137.264 106.799 142.127 125.559 132.523 129.12" fill="white"/>
<path d="M131.334 130.126C125.38 121.063 125.462 107.979 134.423 100.85C133.965 100.758 133.416 100.757 132.959 100.666C135.341 105.059 136.626 110.367 137.087 115.399C137.456 119.791 137.279 126.379 132.339 128.205C131.15 128.661 131.701 130.492 132.798 130.127C141.853 126.565 139.281 113.205 137.08 106.067C136.438 103.962 135.704 101.766 134.605 99.752C134.33 99.1113 133.506 99.2022 133.141 99.5679C123.54 107.155 123.276 121.519 129.78 131.131C130.329 132.046 131.976 131.132 131.334 130.126Z" fill="#01686F"/>
<path d="M145.066 139.652C131.979 135.525 124.114 139.362 115.337 148.687C123.939 150.707 140.774 150.903 145.616 141.665" fill="white"/>
<path d="M145.34 138.646C139.849 136.995 133.993 136.258 128.413 138.175C123.016 140.093 118.627 143.932 114.788 147.955C114.239 148.503 114.423 149.418 115.246 149.511C120.829 150.887 126.776 150.983 132.448 150.256C137.845 149.436 143.791 147.154 146.532 142.032C147.08 140.935 145.432 140.018 144.884 141.116C142.326 145.872 136.746 147.789 131.623 148.517C126.408 149.153 120.919 148.966 115.794 147.681C115.977 148.23 116.161 148.779 116.253 149.237C119.91 145.397 123.932 141.74 129.055 139.914C134.269 138.18 139.85 138.825 145.067 140.384C145.982 140.934 146.529 139.104 145.34 138.646Z" fill="#01686F"/>
<path d="M157.367 191.996C160.472 185.045 162.662 177.544 162.382 169.767C162.102 163.271 160.268 157.048 156.878 151.464C150.007 139.839 138.198 131.87 126.299 125.822C114.766 119.958 102.32 115.739 89.7826 112.345C79.9907 109.684 70.0146 105.559 62.0498 99.2396C54.8173 93.4699 47.8576 85.413 45.3801 76.1702C41.8015 62.7178 46.0896 46.8926 34.7363 36.4535C33.1798 35.0799 31.5319 33.7977 29.7927 32.7899C27.962 31.6906 26.4088 34.5257 28.2395 35.6251C34.6471 39.4728 38.3114 45.3312 39.5979 52.6517C40.7926 59.5147 40.432 66.468 41.5351 73.2394C42.9142 81.9324 47.4945 89.2555 53.3551 95.6646C60.406 103.264 69.2851 108.669 78.8033 112.336C85.4844 114.995 92.5307 116.555 99.3945 118.848C105.526 120.774 111.658 123.066 117.516 125.633C129.597 130.948 141.771 137.82 150.288 148.165C154.134 152.926 157.158 158.509 158.26 164.549C159.638 171.412 158.729 178.365 156.629 184.859C155.899 186.872 155.26 188.793 154.255 190.713C153.707 192.36 156.545 193.917 157.367 191.996Z" fill="#01686F"/>
<path d="M1.59679 13.1876C6.17445 17.0339 10.8435 20.7888 15.6955 24.3608C20.3643 27.7497 24.3933 31.9615 29.4275 34.6187C30.3429 35.1684 31.0737 33.705 30.2499 33.2469C25.3072 30.6813 21.4614 26.6526 16.9756 23.2638C12.1236 19.6918 7.27154 15.9368 2.69373 11.9076C1.96136 11.358 0.772845 12.5466 1.59679 13.1876Z" fill="#01686F"/>
<path d="M47.2643 28.1361C47.4511 33.0769 47.2719 38.0175 46.5438 42.9576C45.8155 47.7148 44.6298 52.5631 41.9796 56.6783C41.4313 57.5928 42.8044 58.4173 43.3526 57.5028C46.0942 53.2961 47.3714 48.3564 48.0995 43.4163C48.9191 38.3847 49.0067 33.3526 48.8198 28.2288C48.9104 27.0394 47.2635 27.0382 47.2643 28.1361Z" fill="#01686F"/>
<path d="M65.2201 58.5258C63.028 63.4648 59.2799 67.5791 56.447 72.0602C53.4312 76.5411 50.6898 81.1137 49.3214 86.3278C49.0477 87.334 50.6035 87.7927 50.8772 86.7865C52.337 81.4809 55.0783 76.9083 58.0942 72.4274C61.0186 68.038 64.5839 64.1064 66.6845 59.2589C67.05 58.5272 65.6769 57.7027 65.2201 58.5258Z" fill="#01686F"/>
<path d="M79.2299 72.9014C75.3035 83.0543 72.5668 93.6655 67.9083 103.635C67.543 104.549 68.9161 105.374 69.2813 104.459C73.9399 94.49 76.768 83.7873 80.6943 73.4515C81.2424 72.354 79.5952 71.9868 79.2299 72.9014Z" fill="#01686F"/>
<path d="M99.3696 86.8244C98.1875 96.2474 97.0967 105.579 95.5485 115.002C95.4578 116.008 97.0136 116.467 97.1043 115.46C98.6525 106.038 99.8345 96.4317 100.925 86.9171C101.107 85.8193 99.4604 85.8181 99.3696 86.8244Z" fill="#01686F"/>
<path d="M132.41 101.581C129.947 110.271 132.79 119.331 130.235 127.929C129.961 128.936 131.517 129.394 131.79 128.388C134.346 119.79 131.502 110.729 133.966 102.039C134.24 101.033 132.775 100.666 132.41 101.581Z" fill="#01686F"/>
<path d="M7.85068 54.182C18.74 56.1117 29.6297 58.5904 39.6974 62.9899C40.6127 63.3566 41.4351 61.9848 40.5198 61.6181C30.1775 57.127 19.3792 54.5568 8.30695 52.6269C7.20888 52.4431 6.84417 54.0897 7.85068 54.182Z" fill="#01686F"/>
<path d="M21.8776 91.2479C31.8494 89.8832 42.1902 92.3615 51.799 94.8392C52.8056 95.1145 53.2619 93.5594 52.2552 93.2841C42.3719 90.7147 31.7567 88.3277 21.5105 89.7837C20.5041 89.8745 20.7798 91.4301 21.8776 91.2479Z" fill="#01686F"/>
<path d="M81.3648 111.972C72.4023 117.089 63.1649 121.565 55.6679 128.878C54.9366 129.61 56.0353 130.709 56.7667 129.977C63.9892 122.755 73.3183 118.37 82.0063 113.345C83.0124 112.888 82.2794 111.423 81.3648 111.972Z" fill="#01686F"/>
<path d="M115.409 122.61C111.203 126.267 105.073 126.72 100.043 128.82C97.2986 129.916 94.8295 131.469 92.2688 132.931C89.5252 134.576 86.6902 136.312 84.3129 138.323C83.49 138.963 84.6803 140.154 85.4117 139.422C88.0634 137.32 90.9898 135.492 93.9164 133.848C96.5685 132.294 99.3121 130.649 102.239 129.737C107.179 128.094 112.576 127.274 116.599 123.801C117.331 123.069 116.14 121.879 115.409 122.61Z" fill="#01686F"/>
<path d="M144.609 140.474C135.095 142.297 125.672 144.394 116.617 147.589C115.702 147.955 115.978 149.51 117.076 149.145C126.131 145.767 135.553 143.67 145.067 142.03C145.982 141.848 145.707 140.292 144.609 140.474Z" fill="#01686F"/>
<path d="M200.321 248.115C169.121 247.085 129.882 263.615 115.815 293.797C141.987 299.856 192.668 290.38 202.427 250.221" fill="white"/>
<path d="M200.228 246.56C187.052 246.184 173.788 248.644 161.439 253.301C148.725 258.14 136.654 265.267 127.146 274.959C121.935 280.353 117.548 286.388 114.259 293.156C113.894 294.071 114.169 295.26 115.267 295.444C127.987 298.29 141.711 297.569 154.334 294.468C168.331 291.093 182.141 284.425 191.831 273.453C197.59 266.961 201.61 259.096 203.799 250.68C204.347 248.668 201.144 247.842 200.596 249.854C197.039 264.216 187.533 275.737 174.82 282.955C163.023 289.808 149.118 293.274 135.395 293.813C128.899 294.082 122.311 293.711 115.905 292.242C116.272 292.975 116.547 293.798 116.913 294.53C128.149 270.659 153.756 256.406 178.822 251.484C185.774 250.026 192.911 249.482 200.047 249.671C202.426 249.855 202.332 246.653 200.228 246.56Z" fill="#01686F"/>
<path d="M193.555 253.966C176.091 268.5 153.404 273.973 133.1 283.289C127.429 285.847 122.033 288.862 116.821 292.426C115.449 293.432 116.732 295.629 118.103 294.623C136.85 281.737 159.628 276.905 179.657 266.216C185.236 263.201 190.54 259.728 195.478 255.706C196.758 254.792 194.927 252.961 193.555 253.966Z" fill="#01686F"/>
<path d="M137.674 282.927C136.487 286.861 134.569 290.61 132.192 293.902C131.553 294.908 133.2 295.825 133.84 294.819C136.216 291.344 138.135 287.411 139.412 283.386C139.869 282.197 137.947 281.738 137.674 282.927Z" fill="#01686F"/>
<path d="M151.027 277.265C149.201 282.571 148.565 288.151 146.282 293.365C145.734 294.462 147.473 295.47 147.929 294.281C150.304 288.976 150.94 283.212 152.857 277.816C153.405 276.535 151.484 276.076 151.027 277.265Z" fill="#01686F"/>
<path d="M166.759 270.507C163.287 276.725 162.835 283.77 160.461 290.356C160.004 291.545 161.926 292.004 162.383 290.815C164.757 284.412 165.117 277.459 168.406 271.423C168.955 270.325 167.307 269.409 166.759 270.507Z" fill="#01686F"/>
<path d="M146.087 278.725C141.237 277.166 136.113 276.247 131.719 273.682C130.712 273.041 129.707 274.778 130.805 275.328C135.382 278.077 140.598 279.087 145.631 280.646C146.73 281.013 147.186 279.092 146.087 278.725Z" fill="#01686F"/>
<path d="M160.173 272.514C154.407 269.674 148.823 266.284 142.691 264.541C141.502 264.265 140.954 266.095 142.235 266.462C148.275 268.296 153.676 271.503 159.351 274.252C160.358 274.893 161.363 273.156 160.173 272.514Z" fill="#01686F"/>
<path d="M174.441 266.67C171.512 264.654 168.126 263.462 164.831 262.179C163.183 261.446 161.536 260.713 159.98 259.705C158.515 258.789 157.051 257.873 155.403 257.14C154.213 256.681 153.757 258.602 154.947 259.061C156.686 259.702 158.151 260.801 159.615 261.717C161.08 262.634 162.636 263.275 164.192 263.917C167.304 265.2 170.598 266.301 173.528 268.316C174.535 269.14 175.448 267.494 174.441 266.67Z" fill="#01686F"/>
<path d="M184.502 261.37C180.016 257.982 175.256 255.233 170.679 251.936C169.672 251.295 168.758 252.941 169.765 253.582C174.159 256.696 178.828 259.353 183.222 262.65C183.68 262.925 184.137 263.017 184.686 262.651C184.869 262.469 184.96 261.645 184.502 261.37Z" fill="#01686F"/>
<path d="M185.66 221.388C178.95 181.4 141.05 153.556 103.717 148.221C106.305 183.174 149.339 224.013 183.924 223.674" fill="white"/>
<path d="M187.215 220.932C181.885 189.637 157.437 165.189 128.79 153.364C120.828 150.156 112.591 147.771 104.081 146.575C103.166 146.391 101.977 147.031 101.978 148.129C103.18 163.592 111.151 177.963 120.858 189.864C131.298 202.499 144.665 213.488 159.766 219.813C167.363 223.021 175.599 225.223 183.925 225.138C185.938 225.14 186.027 221.938 183.922 221.844C169.192 221.925 155.005 215.052 143.287 206.442C130.562 197.191 119.482 184.831 112.243 170.827C108.578 163.688 105.918 155.909 105.272 147.948C104.54 148.496 103.9 148.953 103.169 149.502C132.542 153.825 161.101 171.231 175.669 197.501C179.792 204.915 182.635 213.06 184.105 221.479C184.473 223.858 187.583 222.945 187.215 220.932Z" fill="#01686F"/>
<path d="M104.177 151.423C123.863 171.11 144.007 190.339 166.161 207.191C172.386 211.953 178.795 216.533 185.294 220.838C186.759 221.754 187.946 219.468 186.573 218.643C163.505 203.438 142.63 185.123 122.761 165.985C117.176 160.583 111.591 155.18 106.005 149.595C104.815 148.404 102.986 150.233 104.177 151.423Z" fill="#01686F"/>
<path d="M120.748 165.801C116.722 165.432 112.697 165.978 108.762 164.968C107.572 164.693 107.025 166.522 108.306 166.889C112.424 167.899 116.632 167.353 120.841 167.722C121.39 167.723 121.847 167.266 121.847 166.717C121.663 166.168 121.297 165.801 120.748 165.801Z" fill="#01686F"/>
<path d="M132.194 177.246C126.796 178.432 121.306 177.878 115.817 177.691C114.536 177.69 114.629 179.612 115.818 179.704C121.491 179.891 127.164 180.445 132.653 179.168C133.933 178.803 133.383 176.973 132.194 177.246Z" fill="#01686F"/>
<path d="M143.913 188.235C138.243 190.61 132.021 191.154 125.891 191.424C124.702 191.514 124.612 193.436 125.893 193.437C132.297 193.076 138.793 192.44 144.738 189.974C145.287 189.792 145.286 189.06 145.103 188.694C144.92 188.145 144.371 187.961 143.913 188.235Z" fill="#01686F"/>
<path d="M156.365 198.309C150.968 200.775 145.389 202.692 139.809 204.975C138.62 205.432 139.171 207.262 140.268 206.897C145.939 204.706 151.702 202.606 157.281 200.14C158.378 199.408 157.462 197.761 156.365 198.309Z" fill="#01686F"/>
<path d="M168.266 207.833C163.602 210.666 158.205 211.851 152.991 213.768C151.802 214.225 152.352 216.055 153.45 215.69C158.664 213.773 164.335 212.496 169.091 209.572C170.28 208.932 169.272 207.193 168.266 207.833Z" fill="#01686F"/>
<path d="M128.347 171.205C127.519 165.624 127.149 160.134 126.138 154.552C125.863 153.362 124.033 153.91 124.217 155.008C125.319 160.498 125.598 166.08 126.426 171.661C126.518 172.119 127.067 172.485 127.616 172.303C128.256 172.212 128.439 171.663 128.347 171.205Z" fill="#01686F"/>
<path d="M139.7 182.01C139.695 174.874 140.696 167.829 140.507 160.693C140.506 159.412 138.493 159.41 138.494 160.691C138.683 167.828 137.682 174.872 137.687 182.009C137.688 183.29 139.61 183.199 139.7 182.01Z" fill="#01686F"/>
<path d="M151.785 192.816C152.786 185.406 153.604 178.178 154.971 170.768C155.244 169.579 153.323 169.12 153.049 170.309C151.774 177.628 150.864 184.947 149.864 192.357C149.773 193.546 151.695 194.005 151.785 192.816Z" fill="#01686F"/>
<path d="M191.323 209.498C208.311 170.352 195.299 144.906 161.43 122.922C151.11 148.258 163.77 191.636 189.402 209.771" fill="white"/>
<path d="M192.697 210.322C198.268 197.426 201.917 183.339 199.619 169.338C197.597 156.893 190.726 145.817 181.753 137.027C175.801 131.075 169.027 126.129 162.07 121.549C161.063 120.908 160.149 121.639 159.783 122.554C155.217 133.896 155.41 146.888 157.615 158.601C160.096 171.87 165.321 184.774 173.289 195.668C177.594 201.619 182.63 206.838 188.58 211.143C190.32 212.333 191.873 209.498 190.134 208.307C179.881 200.98 172.37 190.178 167.329 178.737C162.196 167.205 159.167 154.485 159.432 141.768C159.519 135.454 160.52 129.142 162.895 123.288C162.163 123.654 161.34 123.928 160.608 124.293C171.684 131.53 182.487 140.138 189.541 151.581C195.862 161.741 198.159 173.546 196.704 185.256C195.703 193.398 193.148 201.265 189.951 208.673C189.129 210.594 191.875 212.243 192.697 210.322Z" fill="#01686F"/>
<path d="M161.25 125.483C170.962 143.24 178.296 162.094 182.977 181.769C184.354 187.351 185.365 192.933 186.284 198.606C186.468 200.253 189.029 199.523 188.754 197.967C185.536 177.928 179.665 158.343 171.142 139.764C168.759 134.455 166.102 129.238 163.353 124.112C162.712 122.739 160.517 124.018 161.25 125.483Z" fill="#01686F"/>
<path d="M179.466 138.397C177.09 141.506 174.896 144.615 172.977 147.999C172.338 149.005 174.077 150.013 174.625 148.915C176.544 145.714 178.554 142.605 180.84 139.771C181.114 139.313 181.296 138.765 180.838 138.307C180.564 138.032 179.832 138.031 179.466 138.397Z" fill="#01686F"/>
<path d="M188.075 149.383C185.059 153.681 181.86 157.796 178.203 161.636C177.289 162.55 178.662 163.924 179.576 163.009C183.416 159.17 186.707 154.78 189.814 150.391C190.545 149.294 188.806 148.286 188.075 149.383Z" fill="#01686F"/>
<path d="M194.947 161.923C191.107 166.129 187.268 170.335 183.245 174.357C182.331 175.272 183.704 176.645 184.619 175.731C188.641 171.708 192.481 167.502 196.32 163.297C197.235 162.382 195.861 161.009 194.947 161.923Z" fill="#01686F"/>
<path d="M175.176 151.478C169.957 146.991 164.19 143.235 158.697 139.022C157.69 138.198 156.777 140.027 157.783 140.669C163.093 144.699 168.769 148.363 173.896 152.758C174.811 153.674 176.183 152.303 175.176 151.478Z" fill="#01686F"/>
<path d="M181.044 167.403C174.727 161.451 166.581 158.242 159.167 153.936C158.16 153.295 157.155 155.033 158.253 155.582C165.393 159.797 173.538 163.005 179.764 168.683C180.588 169.69 181.96 168.318 181.044 167.403Z" fill="#01686F"/>
<path d="M183.432 178.932C179.862 177.374 176.567 175.358 172.997 173.8C171.35 173.067 169.702 172.334 167.964 171.875C166.225 171.416 164.486 170.957 163.021 169.858C162.014 169.034 161.101 170.863 162.108 171.505C163.481 172.512 165.128 173.062 166.775 173.43C168.606 173.98 170.528 174.622 172.267 175.447C175.836 177.005 179.131 179.02 182.701 180.578C183.525 181.036 184.621 179.39 183.432 178.932Z" fill="#01686F"/>
<path d="M201.973 255.436C174.809 268.499 144.918 304.982 148.967 335.178C175.13 329.16 213.903 302.473 201.973 255.436Z" fill="white"/>
<path d="M201.239 253.972C189.167 259.818 178.56 268.776 169.693 278.742C160.643 289.074 152.875 301.237 149.134 314.501C147.218 321.361 146.492 328.314 147.412 335.452C147.504 336.275 148.602 336.825 149.334 336.642C161.501 333.815 173.207 327.786 182.717 319.742C193.78 310.509 202.005 297.889 204.739 283.618C206.562 274.104 205.914 264.314 203.528 254.98C202.977 252.966 199.958 253.788 200.326 255.801C204.18 270.992 202.912 286.911 194.871 300.629C188.292 311.969 177.96 320.836 166.436 326.866C160.674 329.881 154.729 332.163 148.417 333.714C149.058 334.172 149.699 334.447 150.339 334.905C148.774 322.552 153.065 310.02 159.004 299.32C165.582 287.431 174.632 277.099 185.056 268.507C190.451 264.028 196.304 260.189 202.614 257.175C204.718 255.987 203.16 253.15 201.239 253.972Z" fill="#01686F"/>
<path d="M195.399 272.998C186.904 291.199 171.085 303.904 158.379 318.808C154.813 322.923 151.614 327.22 148.69 331.793C147.776 333.256 150.065 334.447 150.887 333.075C161.305 316.432 177.215 304.184 188.914 288.639C192.296 284.158 195.22 279.402 197.595 274.281C198.326 272.634 196.129 271.352 195.399 272.998Z" fill="#01686F"/>
<path d="M159.202 318.9C159.388 323.109 158.751 327.409 158.571 331.618C158.572 332.899 160.493 332.808 160.584 331.619C160.764 327.411 161.401 323.111 161.215 318.902C161.122 317.712 159.201 317.619 159.202 318.9Z" fill="#01686F"/>
<path d="M168.983 309.119C169.354 314.792 170.365 320.557 169.82 326.412C169.73 327.601 171.651 327.694 171.833 326.413C172.286 320.65 171.275 314.885 170.996 309.12C170.904 307.931 168.891 307.929 168.983 309.119Z" fill="#01686F"/>
<path d="M177.668 299.701C179.409 302.173 180.234 305.193 180.969 308.121C181.703 311.05 182.346 314.07 183.08 316.998C183.355 318.188 185.276 317.732 185.001 316.542C184.175 313.522 183.624 310.411 182.798 307.391C181.972 304.371 181.055 301.259 179.315 298.788C178.673 297.781 176.936 298.786 177.668 299.701Z" fill="#01686F"/>
<path d="M186.079 290.009C188.187 295.592 190.753 300.9 191.856 306.757C192.04 308.038 193.869 307.49 193.777 306.301C192.674 300.444 190.2 295.044 188 289.553C187.541 288.363 185.62 288.819 186.079 290.009Z" fill="#01686F"/>
<path d="M164.32 312.318C159.838 313.687 155.448 315.33 150.782 315.967C150.324 316.058 149.867 316.332 149.776 316.973C149.777 317.522 150.234 317.98 150.783 317.98C155.632 317.343 160.205 315.7 164.779 314.239C165.968 313.783 165.509 311.861 164.32 312.318Z" fill="#01686F"/>
<path d="M173.462 302.992C167.79 302.804 162.025 302.525 156.443 301.515C155.162 301.331 154.706 303.252 155.987 303.436C161.752 304.447 167.608 304.817 173.464 305.005C174.745 305.006 174.743 302.993 173.462 302.992Z" fill="#01686F"/>
<path d="M182.512 293.026C176.473 292.289 170.068 290.821 164.576 288.072C163.477 287.522 162.472 289.259 163.662 289.718C169.611 292.559 176.109 294.119 182.605 294.947C183.795 295.04 183.702 293.118 182.512 293.026Z" fill="#01686F"/>
<path d="M191.655 283.334C185.98 280.402 179.666 279.208 173.717 276.733C172.527 276.274 171.613 277.921 172.803 278.379C178.66 280.762 185.066 282.048 190.741 284.98C191.931 285.622 192.845 283.976 191.655 283.334Z" fill="#01686F"/>
<path d="M169.655 229.884C149.895 233.163 131.054 241.749 114.685 253.173C110.113 256.28 105.724 259.754 101.609 263.502C100.055 264.873 102.344 267.162 103.898 265.791C118.527 252.81 136.087 242.759 154.747 236.918C159.869 235.275 165.266 233.907 170.664 233.087C172.494 232.723 171.759 229.611 169.655 229.884Z" fill="#01686F"/>
<path d="M116.516 253.907C116.52 259.58 115.152 265.343 113.601 270.74C113.327 271.929 115.158 272.479 115.523 271.199C117.257 265.619 118.533 259.764 118.62 253.817C118.528 252.628 116.515 252.626 116.516 253.907Z" fill="#01686F"/>
<path d="M123.008 248.88C119.714 248.694 116.329 248.417 113.126 247.774C110.015 247.223 106.537 246.488 103.974 244.473C102.967 243.649 102.053 245.478 103.06 246.12C105.806 248.135 109.467 249.052 112.761 249.604C116.147 250.247 119.715 250.524 123.192 250.71C124.29 250.894 124.289 248.881 123.008 248.88Z" fill="#01686F"/>
<path d="M132.886 244.862C132.158 250.534 129.875 255.93 130.337 261.695C130.429 262.884 132.351 262.977 132.35 261.696C131.888 256.115 134.08 250.81 134.808 245.321C134.899 244.863 134.715 244.314 134.166 244.131C133.617 243.947 132.977 244.404 132.886 244.862Z" fill="#01686F"/>
<path d="M137.915 239.834C132.516 238.823 127.664 235.983 123.362 232.595C122.904 232.32 122.264 232.594 122.081 232.96C121.807 233.417 121.99 233.966 122.448 234.241C126.934 237.629 131.877 240.561 137.55 241.663C138.557 241.939 139.104 240.109 137.915 239.834Z" fill="#01686F"/>
<path d="M98.9594 268.349C100.699 270.089 103.627 270.091 105.364 268.354C107.101 266.617 107.099 263.689 105.359 261.95C103.619 260.21 100.692 260.208 98.9545 261.945C97.2174 263.682 97.2197 266.61 98.9594 268.349Z" fill="#01686F"/>
<path d="M111.955 273.483C115.526 277.054 121.012 271.569 117.441 267.998C113.961 264.518 108.476 270.004 111.955 273.483Z" fill="#01686F"/>
<path d="M128.875 264.621C132.446 268.192 137.931 262.706 134.36 259.135C130.881 255.656 125.395 261.141 128.875 264.621Z" fill="#01686F"/>
<path d="M100.59 248.039C104.161 251.61 109.646 246.125 106.075 242.554C102.596 239.074 97.1105 244.56 100.59 248.039Z" fill="#01686F"/>
<path d="M120.527 237.258C124.098 240.829 129.584 235.344 126.013 231.773C122.442 228.202 116.956 233.687 120.527 237.258Z" fill="#01686F"/>
<path d="M171.03 232.905C146.417 231.331 123.991 218.962 105.314 203.394C100.188 199.181 95.3349 194.694 90.5736 189.933C89.1085 188.468 86.8229 190.753 88.288 192.218C105.685 209.615 126.192 225.002 149.986 232.157C156.849 234.267 163.895 235.462 170.941 235.924C173.137 236.292 173.134 232.998 171.03 232.905Z" fill="#01686F"/>
<path d="M100.638 189.391C102.014 195.156 102.477 201.653 105.775 206.779C106.416 207.786 108.062 206.872 107.421 205.865C104.123 200.922 103.844 194.609 102.467 189.026C102.283 187.745 100.362 188.201 100.638 189.391Z" fill="#01686F"/>
<path d="M112.456 209.621C108.705 209.892 105.136 208.883 101.567 208.057C97.8148 207.231 94.1547 206.862 90.4042 207.865C89.215 208.139 89.674 210.061 90.8632 209.787C98.1812 207.78 105.138 211.994 112.457 211.634C113.647 211.543 113.645 209.53 112.456 209.621Z" fill="#01686F"/>
<path d="M119.31 200.751C118.947 203.495 119.223 206.332 119.683 208.986C120.051 211.731 120.785 214.476 121.702 217.039C121.885 217.588 122.617 217.588 122.983 217.406C123.44 217.131 123.531 216.491 123.348 216.125C122.34 213.654 121.789 211.092 121.421 208.529C121.053 205.967 120.959 203.314 121.14 200.752C121.14 200.203 120.682 199.745 120.133 199.745C119.676 199.836 119.31 200.202 119.31 200.751Z" fill="#01686F"/>
<path d="M130.855 221.987C127.196 222.35 123.627 222.073 119.967 222.253C116.308 222.433 112.832 223.163 109.631 225.081C108.625 225.721 109.541 227.369 110.547 226.729C116.674 222.983 123.903 224.543 130.673 223.817C132.046 223.726 132.044 221.896 130.855 221.987Z" fill="#01686F"/>
<path d="M135.424 213.39C135.244 217.781 136.894 221.991 137.995 226.201C138.271 227.391 140.192 226.935 139.916 225.745C138.907 221.627 137.165 217.691 137.436 213.391C137.436 212.11 135.423 212.109 135.424 213.39Z" fill="#01686F"/>
<path d="M84.538 192.673C86.2777 194.413 89.2055 194.415 90.9426 192.678C92.6796 190.941 92.6774 188.013 90.9377 186.274C89.1979 184.534 86.2701 184.532 84.5331 186.269C82.796 188.006 82.7983 190.934 84.538 192.673Z" fill="#01686F"/>
<path d="M107.257 228.922C110.828 232.493 116.313 227.008 112.742 223.437C109.171 219.866 103.686 225.351 107.257 228.922Z" fill="#01686F"/>
<path d="M87.2972 211.523C90.8683 215.094 96.3537 209.608 92.7827 206.037C89.3032 202.558 83.8178 208.043 87.2972 211.523Z" fill="#01686F"/>
<path d="M99.359 191.404C102.93 194.975 108.415 189.489 104.844 185.918C101.365 182.439 95.8796 187.924 99.359 191.404Z" fill="#01686F"/>
<path d="M117.027 204.501C120.598 208.072 126.084 202.586 122.513 199.015C118.942 195.444 113.456 200.93 117.027 204.501Z" fill="#01686F"/>
<path d="M132.591 217.139C136.162 220.71 141.647 215.225 138.076 211.654C134.505 208.083 129.02 213.568 132.591 217.139Z" fill="#01686F"/>
<path d="M207.246 212.438C210.791 181.79 228.711 165.518 249.496 186.303C269.641 206.448 245.497 220.519 226.382 229.562C301.579 215.896 260.847 313.032 220.36 251.699C233.192 281.719 223.509 301.109 196.236 291.938C169.33 282.951 182.673 263.199 195.195 246.648C124.232 293.438 126.981 179.896 187.127 224.5C124.235 179.162 207.193 144.001 207.246 212.438Z" fill="white"/>
<path d="M208.893 212.439C210.438 198.991 218.103 173.012 236.865 179.523C241.349 181.082 245.103 184.104 248.399 187.4C251.329 190.33 253.985 193.718 255.086 197.744C256.921 204.333 252.991 210.094 248.328 214.391C241.837 220.333 233.605 224.353 225.648 228.098C223.911 228.92 225.102 231.391 226.84 231.118C236.629 229.387 248.248 228.573 257.31 233.612C262.802 236.727 266.374 242.128 266.836 248.258C267.207 254.114 265.198 260.151 261.542 264.357C257.611 268.837 252.123 271.212 246.267 270.476C237.208 269.279 229.974 261.863 224.754 254.996C223.838 253.715 222.831 252.342 222.006 250.969C220.815 249.229 218.438 250.691 219.171 252.522C224.029 263.962 230.819 288.854 212.522 292.317C208.68 293.046 204.471 292.493 200.719 291.484C196.235 290.291 191.568 288.732 187.905 285.802C185.434 283.878 183.51 281.407 182.776 278.295C182.133 275.275 182.68 272.348 183.593 269.421C186.24 261.28 191.907 254.148 196.842 247.381C197.756 246.101 195.925 244.269 194.645 245.183C185.226 251.306 174.068 257.336 162.356 256.412C155.494 255.95 149.544 252.194 146.428 246.336C143.496 240.844 142.942 234.256 144.859 228.31C146.593 222.547 150.798 217.793 156.652 216.151C165.525 213.687 175.044 218.269 182.368 223.032C183.832 223.948 185.205 224.956 186.579 225.963C187.127 225.049 187.675 224.134 188.132 223.128C179.71 217.083 170.829 209.299 166.978 199.415C164.687 193.649 164.682 187.611 168.063 182.581C170.805 178.557 175.927 175.999 181.05 175.82C186.997 175.55 192.581 178.208 196.701 182.694C204.027 190.569 205.683 202.281 205.782 212.62C205.692 214.541 208.894 214.452 208.893 212.439C208.793 202.1 207.138 190.937 200.727 182.515C196.422 176.93 190.106 172.991 182.878 172.528C176.839 172.157 170.619 174.531 166.597 178.92C162.117 183.949 161.025 190.901 162.768 197.399C165.612 207.74 173.762 216.072 181.91 222.575C183.375 223.674 184.839 224.773 186.304 225.872C188.043 227.062 189.505 224.319 187.857 223.037C179.527 216.9 168.817 210.945 158.114 212.492C151.069 213.493 145.217 218.246 142.477 224.832C139.738 231.234 139.652 238.828 142.219 245.235C145.06 252.282 151.012 257.502 158.424 259.063C169.588 261.45 181.296 256.701 190.807 251.219C192.544 250.214 194.373 249.117 196.111 247.929C195.378 247.197 194.646 246.464 193.913 245.732C186.144 256.065 171.337 274.718 184.064 286.897C187.634 290.285 192.302 292.21 196.97 293.769C201.454 295.145 206.121 296.155 210.787 295.701C218.38 295.066 224.232 290.679 226.606 283.361C229.983 272.659 226.131 260.579 222.006 250.786C221.091 251.334 220.177 251.882 219.171 252.339C224.85 260.944 232.634 270.191 243.067 272.943C249.93 274.687 256.974 272.954 262.277 268.2C267.123 263.721 269.954 257.044 270.223 250.365C270.401 243.229 267.193 236.547 261.426 232.243C253.003 226.014 241.475 225.823 231.503 227.004C229.673 227.186 227.844 227.551 226.106 227.824C226.564 228.83 226.93 229.746 227.297 230.844C235.163 227.19 243.12 223.079 249.703 217.411C255.189 212.658 259.942 206.074 258.655 198.388C258.011 194.087 255.538 190.334 252.699 187.129C249.311 183.192 245.191 179.621 240.431 177.421C232.835 173.847 224.692 174.847 218.567 180.607C210.064 188.56 206.963 201.184 205.69 212.345C205.418 214.45 208.711 214.452 208.893 212.439Z" fill="#01686F"/>
<path d="M184.451 195.677C192.509 205.199 198.374 216.183 203.14 227.715C203.598 228.904 205.336 227.899 204.786 226.801C199.928 215.177 194.064 204.011 185.822 194.306C184.998 193.299 183.626 194.67 184.451 195.677Z" fill="#01686F"/>
<path d="M195.278 235.578C184.024 235.843 172.586 234.828 161.517 236.924C160.328 237.198 160.787 239.119 161.976 238.846C172.862 236.75 184.208 237.856 195.279 237.59C196.468 237.5 196.558 235.579 195.278 235.578Z" fill="#01686F"/>
<path d="M205.349 244.369C205.632 254.342 203.809 264.405 201.072 273.918C200.798 275.107 202.629 275.658 202.994 274.377C205.731 264.681 207.736 254.435 207.454 244.279C207.27 242.998 205.348 243.088 205.349 244.369Z" fill="#01686F"/>
<path d="M217.305 205.676C212.552 211.162 210.178 218.114 207.621 224.882C207.165 226.071 209.087 226.53 209.543 225.341C211.917 218.938 214.199 212.261 218.679 207.049C219.593 206.135 218.219 204.762 217.305 205.676Z" fill="#01686F"/>
<path d="M184.098 212.146C188.585 217.914 194.079 222.859 198.566 228.626C199.391 229.633 200.67 228.17 199.938 227.255C195.45 221.487 189.957 216.542 185.469 210.775C184.736 209.676 183.365 211.048 184.098 212.146Z" fill="#01686F"/>
<path d="M198.638 203.649C201.389 211.153 203.225 218.84 205.335 226.436C205.61 227.625 207.531 227.169 207.256 225.98C205.146 218.384 203.218 210.606 200.559 203.193C200.101 202.003 198.18 202.459 198.638 203.649Z" fill="#01686F"/>
<path d="M196.098 231.644C188.778 230.357 181.64 228.339 174.319 227.235C173.038 227.051 172.582 228.972 173.863 229.156C181.184 230.26 188.413 232.187 195.642 233.565C196.924 233.749 197.38 231.828 196.098 231.644Z" fill="#01686F"/>
<path d="M195.372 239.328C188.969 240.97 182.291 242.338 176.438 245.444C175.34 245.992 176.348 247.731 177.354 247.091C183.116 244.077 189.703 242.801 195.923 241.159C197.112 240.885 196.562 239.055 195.372 239.328Z" fill="#01686F"/>
<path d="M200.958 244.365C198.95 250.951 196.027 257.171 192.28 262.932C191.64 263.938 193.379 264.946 193.927 263.848C197.766 257.995 200.689 251.593 202.696 244.824C203.244 243.727 201.414 243.176 200.958 244.365Z" fill="#01686F"/>
<path d="M209.374 242.907C210.112 250.776 212.13 258.463 213.051 266.332C213.235 267.614 215.065 267.066 214.972 265.877C213.96 258.282 212.033 250.686 211.295 243C211.111 241.719 209.281 241.718 209.374 242.907Z" fill="#01686F"/>
<path d="M196.2 244.361C199.13 247.291 203.523 249.125 207.64 249.036C211.666 249.039 216.331 247.305 219.073 244.379C221.907 241.362 224.009 237.246 223.731 232.946C223.545 228.737 222.077 224.527 219.056 221.505C216.126 218.575 211.733 216.742 207.615 216.83C203.59 216.827 198.925 218.562 196.182 221.488C193.348 224.505 191.247 228.62 191.525 232.921C191.711 237.13 193.087 241.248 196.2 244.361Z" fill="#01686F"/>
<path d="M199.029 235.854C202.6 239.425 208.086 233.94 204.515 230.369C201.035 226.889 195.55 232.375 199.029 235.854Z" fill="white"/>
<path d="M206.341 226.528C209.272 229.458 213.843 224.887 210.913 221.957C207.983 219.027 203.411 223.598 206.341 226.528Z" fill="white"/>
<path d="M204.89 244.094C207.088 246.291 210.562 242.817 208.364 240.62C206.075 238.513 202.693 241.896 204.89 244.094Z" fill="white"/>
</g>
</g>
</svg>
