<svg width="36" height="50" viewBox="0 0 36 50" fill="none" xmlns="http://www.w3.org/2000/svg">
<path d="M16.8793 35.6762V29.6592H13.0986V28.115H16.8793V24.5474H18.4234V28.115H22.2041V29.6592H18.4234V35.6762H16.8793Z" fill="#B0D0D2"/>
<path d="M0 45.8999V49.4675C0 49.787 0.212993 50 0.532481 50H35.3035C35.623 50 35.836 49.787 35.836 49.4675V45.8999C35.836 45.5804 35.623 45.3674 35.3035 45.3674H33.8126V43.77C33.8126 43.4505 33.5996 43.2375 33.2801 43.2375H29.606V25.6124C29.606 25.4526 29.5527 25.3461 29.4462 25.2396L22.6837 18.5304C22.5772 18.4239 22.4707 18.3706 22.311 18.3706H19.4356V9.47817H25.1331C25.4526 9.47817 25.6656 9.26518 25.6656 8.94569V6.38978C25.6656 6.07029 25.4526 5.8573 25.1331 5.8573H19.4356V0.532481C19.4356 0.212993 19.2226 0 18.9031 0H16.3472C16.0277 0 15.8147 0.212993 15.8147 0.532481V5.8573H10.1171C9.79766 5.8573 9.58466 6.07029 9.58466 6.38978V8.94569C9.58466 9.26518 9.79766 9.47817 10.1171 9.47817H15.8147V18.3706H12.7796C12.6198 18.3706 12.5133 18.4239 12.4068 18.5304L5.69755 25.2396C5.59105 25.3461 5.53781 25.4526 5.53781 25.6124V43.2375H2.50266C2.18317 43.2375 1.97018 43.4505 1.97018 43.77V45.3674H0.532481C0.212993 45.3674 0 45.6337 0 45.8999ZM28.4878 25.8253V43.2375H6.60277V25.8253L12.9925 19.4356H16.3472C16.6667 19.4356 16.8797 19.2226 16.8797 18.9031V8.94569C16.8797 8.6262 16.6667 8.41321 16.3472 8.41321H10.6496V6.92226H16.3472C16.6667 6.92226 16.8797 6.70927 16.8797 6.38978V1.06496H18.3706V6.38978C18.3706 6.70927 18.5836 6.92226 18.9031 6.92226H24.6006V8.41321H18.9031C18.5836 8.41321 18.3706 8.6262 18.3706 8.94569V18.9031C18.3706 19.2226 18.5836 19.4356 18.9031 19.4356H22.098L28.4878 25.8253ZM32.6944 44.3024V45.3674H3.03514V44.3024H6.07029H29.0202H32.6944ZM1.06496 46.4324H2.50266H33.2268H34.7178V48.935H1.06496V46.4324Z" fill="#B0D0D2"/>
</svg>
