<svg width="167" height="39" viewBox="0 0 167 39" fill="none" xmlns="http://www.w3.org/2000/svg">
<g style="mix-blend-mode:multiply">
<path d="M57.1411 0.506136H58.7334C58.9448 0.504748 59.1541 0.547947 59.3476 0.632916C59.5411 0.717885 59.7146 0.842715 59.8566 0.999254C60.0029 1.14275 60.1193 1.31374 60.1992 1.50239C60.2791 1.69103 60.321 1.89362 60.3223 2.0985V11.2246C60.3223 13.4436 59.6831 14.9424 58.4047 15.7208C57.1523 16.4928 55.7083 16.8974 54.2371 16.8886C53.4216 16.8907 52.6114 16.7564 51.8401 16.4913C51.1106 16.2531 50.4674 15.8052 49.9909 15.2038C49.0777 14.0486 48.6211 12.4734 48.6211 10.4781C48.6211 8.48276 49.0777 6.90524 49.9909 5.7455C50.4001 5.17299 50.9418 4.70799 51.5697 4.39016C52.1976 4.07234 52.8931 3.91112 53.5968 3.92029C54.3097 3.90613 55.0153 4.06722 55.6514 4.38943C56.259 4.74672 56.7731 5.24319 57.1513 5.83797L57.1411 0.506136ZM51.8058 10.3377C51.8058 11.5841 52.0341 12.5361 52.4907 13.1936C52.7156 13.5137 53.0179 13.7717 53.3693 13.9436C53.7208 14.1154 54.1101 14.1955 54.5008 14.1764C54.8899 14.1971 55.2777 14.1176 55.6273 13.9455C55.9768 13.7734 56.2764 13.5145 56.4973 13.1936C56.9356 12.5361 57.1548 11.5841 57.1548 10.3377C57.2042 9.39705 56.9588 8.46447 56.4527 7.67003C56.2156 7.36602 55.9098 7.1225 55.5604 6.95941C55.211 6.79633 54.828 6.71831 54.4426 6.73174C54.066 6.72013 53.6925 6.80418 53.3571 6.97605C53.0218 7.14792 52.7355 7.402 52.5249 7.71455C52.0455 8.34236 51.8058 9.21673 51.8058 10.3377Z" fill="#B6B2C5"/>
<path d="M70.0232 12.817H72.3655C72.0927 14.0209 71.3932 15.0853 70.3965 15.8134C69.3302 16.5619 68.0478 16.9397 66.746 16.8887C64.9699 16.8887 63.5819 16.3179 62.5819 15.1764C61.582 14.035 61.082 12.4278 61.082 10.3549C61.082 8.35957 61.566 6.79917 62.534 5.67368C63.502 4.54818 64.8911 3.9706 66.7015 3.94092C68.5712 3.94092 70.0221 4.50252 71.0539 5.62573C72.0493 6.78091 72.5481 8.3881 72.5504 10.4473V10.961C72.5582 11.0769 72.543 11.1933 72.5059 11.3034H64.4071C64.438 12.2725 64.6708 12.9882 65.092 13.4574C65.3173 13.7153 65.5995 13.9174 65.9162 14.0475C66.233 14.1777 66.5757 14.2324 66.9172 14.2073C67.3965 14.22 67.8701 14.1016 68.287 13.8649C68.3858 13.832 68.4751 13.7756 68.5473 13.7005L68.8041 13.4437C68.8853 13.2926 69.003 13.1643 69.1465 13.0704C69.4018 12.8895 69.7108 12.8002 70.0232 12.817ZM64.4071 9.17001H69.1671C69.1646 8.49006 68.9343 7.83055 68.513 7.29685C68.2869 7.07146 68.0155 6.89662 67.7168 6.78387C67.4181 6.67112 67.0989 6.62303 66.7803 6.64279C66.4697 6.63126 66.16 6.68333 65.8703 6.79581C65.5806 6.90828 65.3169 7.07879 65.0955 7.29685C64.6339 7.80961 64.3874 8.48038 64.4071 9.17001Z" fill="#B6B2C5"/>
<path d="M84.4057 16.6557H82.7654C82.554 16.665 82.343 16.6301 82.1458 16.5533C81.9486 16.4765 81.7695 16.3595 81.6201 16.2097C81.4706 16.0599 81.3539 15.8806 81.2776 15.6833C81.2012 15.4859 81.1668 15.2748 81.1765 15.0634V8.69738C81.202 8.38961 81.1531 8.0802 81.0339 7.7953C80.9147 7.5104 80.7287 7.25838 80.4916 7.06051C80.0566 6.72381 79.5212 6.54292 78.9712 6.54684C78.428 6.54045 77.8994 6.7219 77.4747 7.06051C77.2443 7.26258 77.0647 7.51606 76.9505 7.80043C76.8363 8.08481 76.7906 8.39208 76.8172 8.69738V16.6557H73.5469V9.35487C73.5469 7.23173 74.1005 5.81174 75.2077 5.09489C76.3039 4.37913 77.5739 3.97435 78.8821 3.92373C80.2222 3.91499 81.5371 4.28796 82.673 4.99901C83.8281 5.71814 84.4057 7.17009 84.4057 9.35487V16.6557Z" fill="#B6B2C5"/>
<path d="M90.9223 16.6556C89.8073 16.7173 88.6894 16.7013 87.5766 16.6077C86.3758 16.5141 85.7754 15.7504 85.7754 14.3167V0.553955H87.4602C87.6619 0.554901 87.8613 0.596996 88.0462 0.677663C88.2311 0.75833 88.3976 0.875877 88.5355 1.0231C88.6863 1.16829 88.8058 1.34287 88.8865 1.53607C88.9672 1.72926 89.0074 1.93696 89.0046 2.14632V4.25233H90.9223V4.9064C90.9297 5.11992 90.8917 5.33258 90.8108 5.53034C90.73 5.72809 90.6081 5.90643 90.4532 6.05358C90.3048 6.19851 90.1291 6.31251 89.9362 6.38894C89.7434 6.46536 89.5373 6.50269 89.3299 6.49875H89.0046V13.4264C89.0046 13.9571 89.3162 14.2208 89.9395 14.2208H90.9223V16.6556Z" fill="#B6B2C5"/>
<path d="M99.6454 16.1419C98.9975 16.4818 98.291 16.6956 97.5634 16.772C96.9175 16.845 96.2682 16.8839 95.6183 16.8885C94.563 16.9108 93.5287 16.5913 92.6699 15.9776C91.8275 15.368 91.4062 14.3612 91.4062 12.9572C91.4062 11.6445 91.7886 10.7085 92.5534 10.1492C93.4243 9.54619 94.4272 9.161 95.4779 9.02599C95.6669 9.02178 95.855 8.99884 96.0395 8.9575C96.2587 8.90956 96.5086 8.87189 96.7894 8.83764C98.1592 8.65272 98.8441 8.24522 98.8441 7.62197C98.8544 7.40801 98.7869 7.19756 98.6541 7.02949C98.5212 6.86142 98.3321 6.7471 98.1215 6.70765C97.6883 6.57592 97.2388 6.5056 96.786 6.49876C96.3876 6.49194 95.9911 6.55571 95.6149 6.68711C95.4481 6.74511 95.2954 6.83761 95.1668 6.95856C95.0382 7.07952 94.9365 7.22622 94.8683 7.38911H91.7316C91.8372 6.44971 92.3068 5.58913 93.0397 4.99202C93.8855 4.27631 95.0944 3.91675 96.6456 3.91675C98.3921 3.91675 99.7025 4.21353 100.577 4.80709C101.011 5.0888 101.366 5.478 101.606 5.93697C101.846 6.39594 101.963 6.90912 101.947 7.42678V11.6868C101.947 12.9367 101.717 13.9092 101.262 14.6112C100.872 15.2588 100.313 15.788 99.6454 16.1419ZM98.8955 10.3821C98.311 10.6509 97.699 10.8553 97.0702 10.9916L95.995 11.2245C95.5444 11.3235 95.1255 11.533 94.7759 11.834C94.5649 12.1362 94.4459 12.493 94.4334 12.8613C94.4236 13.0674 94.4559 13.2732 94.5283 13.4663C94.6007 13.6595 94.7118 13.8358 94.8546 13.9846C95.1997 14.2552 95.6328 14.3882 96.0703 14.3578C96.4475 14.3914 96.8274 14.3418 97.1833 14.2125C97.5393 14.0832 97.8625 13.8775 98.1303 13.6097C98.398 13.342 98.6038 13.0187 98.733 12.6628C98.8623 12.3069 98.9119 11.927 98.8783 11.5498L98.8955 10.3821Z" fill="#B6B2C5"/>
<path d="M103.021 0.553992H104.706C104.914 0.550059 105.12 0.587392 105.313 0.663817C105.505 0.740241 105.681 0.854233 105.83 0.999168C105.981 1.13861 106.102 1.30875 106.182 1.49828C106.263 1.68781 106.303 1.89239 106.299 2.09841V16.6556H103.021V0.553992Z" fill="#B6B2C5"/>
<path d="M115.5 7.71465C115.289 7.4023 115.002 7.14843 114.666 6.97661C114.33 6.8048 113.956 6.72061 113.579 6.73185C113.193 6.71087 112.807 6.78552 112.456 6.94919C112.106 7.11286 111.801 7.36049 111.569 7.67014C111.067 8.43032 110.827 9.33302 110.884 10.2419V16.6558H107.699V0.561035H109.292C109.713 0.563728 110.117 0.732361 110.415 1.0304C110.713 1.32845 110.881 1.7319 110.884 2.15339V5.84835C111.139 5.40251 111.484 5.01438 111.896 4.70848C112.309 4.40258 112.78 4.18554 113.281 4.07107C114.259 3.81712 115.292 3.88313 116.229 4.25941C117.111 4.63951 117.872 5.25426 118.428 6.03669C119.019 6.84714 119.316 7.97035 119.318 9.40632V16.6627H116.182V10.1974C116.186 9.76537 116.147 9.33404 116.065 8.90978C115.961 8.47693 115.768 8.07016 115.5 7.71465Z" fill="#B6B2C5"/>
<path d="M128.992 12.8168H131.331C131.061 14.0209 130.362 15.0858 129.365 15.8132C128.299 16.5617 127.017 16.9394 125.715 16.8885C123.939 16.8885 122.551 16.3177 121.551 15.1762C120.551 14.0348 120.051 12.4276 120.051 10.3547C120.051 8.35936 120.535 6.79896 121.503 5.67346C122.471 4.54797 123.86 3.96468 125.67 3.92358C127.54 3.92358 128.991 4.48519 130.023 5.6084C131.018 6.76358 131.517 8.37077 131.519 10.43V10.9437C131.528 11.0599 131.512 11.1768 131.471 11.2861H123.376C123.407 12.2552 123.64 12.9709 124.061 13.4401C124.286 13.698 124.568 13.9 124.885 14.0302C125.202 14.1603 125.544 14.2151 125.886 14.19C126.365 14.2027 126.839 14.0843 127.256 13.8476C127.353 13.8137 127.441 13.7574 127.513 13.6832L127.773 13.4264C127.854 13.2753 127.972 13.147 128.115 13.0531C128.373 12.8782 128.681 12.795 128.992 12.8168ZM123.376 9.1698H128.15C128.147 8.48985 127.917 7.83034 127.495 7.29664C127.026 6.87335 126.416 6.63911 125.783 6.63911C125.151 6.63911 124.541 6.87335 124.071 7.29664C123.607 7.80834 123.358 8.47924 123.376 9.1698Z" fill="#B6B2C5"/>
<path d="M140.47 16.1419C139.822 16.4818 139.115 16.6956 138.388 16.772C137.743 16.8451 137.095 16.884 136.446 16.8885C135.39 16.9108 134.354 16.5913 133.494 15.9776C132.652 15.368 132.23 14.3612 132.23 12.9572C132.23 11.6445 132.613 10.7085 133.378 10.1492C134.25 9.54616 135.254 9.16099 136.306 9.02599C136.495 9.02138 136.683 8.99845 136.867 8.9575C137.083 8.90956 137.333 8.87189 137.614 8.83764C138.983 8.65272 139.668 8.24522 139.668 7.62197C139.678 7.40768 139.609 7.1972 139.476 7.02921C139.343 6.86123 139.153 6.74704 138.942 6.70765C138.509 6.57565 138.06 6.50533 137.607 6.49876C137.209 6.49191 136.814 6.55568 136.439 6.68711C136.272 6.74451 136.118 6.83675 135.989 6.95775C135.86 7.07875 135.757 7.22577 135.689 7.38911H132.552C132.658 6.44885 133.129 5.58781 133.864 4.99202C134.706 4.27745 135.907 3.91903 137.466 3.91675C139.216 3.91675 140.524 4.21467 141.401 4.80709C141.836 5.08855 142.191 5.4777 142.431 5.93673C142.671 6.39576 142.788 6.90907 142.771 7.42678V11.6868C142.771 12.9367 142.545 13.9092 142.086 14.6112C141.697 15.2596 141.138 15.789 140.47 16.1419ZM139.709 10.3821C139.125 10.6515 138.513 10.8559 137.884 10.9916L136.809 11.2245C136.358 11.3235 135.939 11.533 135.59 11.834C135.386 12.1388 135.274 12.495 135.265 12.8613C135.255 13.0674 135.287 13.2732 135.359 13.4663C135.432 13.6595 135.543 13.8358 135.686 13.9846C136.031 14.2552 136.464 14.3882 136.901 14.3578C137.277 14.3916 137.656 14.3428 138.011 14.2147C138.365 14.0866 138.688 13.8825 138.956 13.6165C139.223 13.3506 139.429 13.0293 139.56 12.6752C139.69 12.3211 139.741 11.9429 139.709 11.5669V10.3821Z" fill="#B6B2C5"/>
<path d="M143.854 0.553966H145.531C145.739 0.550223 145.945 0.587643 146.138 0.664057C146.33 0.740471 146.506 0.854363 146.655 0.999143C146.806 1.13875 146.926 1.30901 147.006 1.49855C147.086 1.6881 147.125 1.89259 147.12 2.09838V16.6556H143.854V0.553966Z" fill="#B6B2C5"/>
<path d="M153.692 16.6558C152.577 16.7175 151.459 16.7015 150.346 16.6079C149.145 16.5143 148.545 15.7506 148.545 14.317V0.554199H150.23C150.431 0.555146 150.631 0.59724 150.816 0.677907C151.001 0.758574 151.167 0.876122 151.305 1.02335C151.456 1.16853 151.575 1.34312 151.656 1.53631C151.737 1.72951 151.777 1.93721 151.774 2.14656V4.25258H153.692V4.90664C153.7 5.11994 153.663 5.33251 153.582 5.53028C153.502 5.72805 153.381 5.9065 153.226 6.05382C153.078 6.1986 152.902 6.3125 152.709 6.38891C152.516 6.46533 152.31 6.50274 152.103 6.499H151.76V13.4266C151.76 13.9574 152.072 14.2211 152.695 14.2211H153.678L153.692 16.6558Z" fill="#B6B2C5"/>
<path d="M162.272 7.71465C162.061 7.40257 161.774 7.14884 161.439 6.97702C161.104 6.8052 160.73 6.72087 160.354 6.73185C159.967 6.71121 159.581 6.78598 159.23 6.9496C158.879 7.11322 158.573 7.36066 158.34 7.67014C157.839 8.43032 157.599 9.33302 157.655 10.2419V16.6558H154.471V0.561035H156.063C156.485 0.563728 156.888 0.732361 157.186 1.0304C157.484 1.32845 157.653 1.7319 157.655 2.15339V5.84835C157.91 5.40251 158.255 5.01438 158.668 4.70848C159.08 4.40258 159.552 4.18554 160.053 4.07107C161.03 3.81712 162.064 3.88313 163.001 4.25941C163.883 4.64019 164.644 5.25474 165.203 6.03669C165.794 6.84714 166.09 7.97035 166.09 9.40632V16.6627H162.929V10.1974C162.932 9.76525 162.892 9.33393 162.809 8.90978C162.714 8.47857 162.531 8.07165 162.272 7.71465Z" fill="#B6B2C5"/>
</g>
<path d="M50.4703 29.0871V34.7614H49.6998V29.0871H48.6211V28.4399H49.6998V27.8577C49.6982 27.6064 49.7188 27.3555 49.7614 27.1078C49.7944 26.8977 49.8739 26.6976 49.9943 26.5222C50.1127 26.3556 50.2752 26.2252 50.4634 26.1455C50.7064 26.0457 50.968 25.999 51.2305 26.0085C51.3435 26.0085 51.4497 26.0085 51.549 26.0085C51.6483 26.0085 51.7579 26.0291 51.8914 26.0462V26.7071L51.5969 26.6626C51.5071 26.6518 51.4168 26.6461 51.3264 26.6455C51.1572 26.6347 50.9883 26.669 50.8367 26.7448C50.7282 26.8033 50.6408 26.8943 50.5867 27.0051C50.5296 27.1263 50.4982 27.258 50.4943 27.392C50.4943 27.5393 50.4943 27.7002 50.4943 27.8714V28.4228H51.7442V29.07L50.4703 29.0871Z" fill="#B6B2C5"/>
<path d="M53.183 28.4398V29.9123C53.3554 29.43 53.6753 29.0142 54.0973 28.724C54.5364 28.4387 55.0584 28.3085 55.5801 28.3542V29.1247C55.2553 29.1042 54.9299 29.152 54.6247 29.2651C54.3477 29.3689 54.0956 29.5299 53.885 29.7376C53.6752 29.9453 53.5098 30.1935 53.3987 30.467C53.2826 30.7613 53.2245 31.0753 53.2275 31.3916V34.7613H52.457V28.4398H53.183Z" fill="#B6B2C5"/>
<path d="M57.1001 26.0117V27.2514H56.3262V26.0117H57.1001ZM57.1001 28.4396V34.7611H56.3262V28.4396H57.1001Z" fill="#B6B2C5"/>
<path d="M59.1526 32.6723C59.2263 32.9602 59.3529 33.2319 59.5259 33.4736C59.6991 33.7134 59.9207 33.914 60.1765 34.0626C60.4635 34.224 60.789 34.3045 61.1182 34.2954C61.6004 34.3242 62.075 34.166 62.4435 33.8537C62.7749 33.536 63.0049 33.1273 63.1044 32.6791H63.8749C63.7591 33.3155 63.4436 33.8984 62.9743 34.3434C62.4517 34.7663 61.789 34.9766 61.1182 34.9324C60.6735 34.9428 60.2322 34.8526 59.8272 34.6687C59.4764 34.5034 59.1708 34.2555 58.9369 33.9461C58.7027 33.6261 58.5308 33.2648 58.4301 32.8812C58.3188 32.4634 58.2635 32.0327 58.2657 31.6004C58.2653 31.1862 58.3206 30.7739 58.4301 30.3745C58.5335 29.9897 58.7052 29.6267 58.9369 29.3026C59.1711 28.984 59.4758 28.7238 59.8272 28.5424C60.2276 28.3425 60.6709 28.2438 61.1182 28.2548C61.5704 28.2416 62.0181 28.3479 62.4161 28.563C62.7677 28.7567 63.0682 29.0314 63.2927 29.3643C63.5255 29.7102 63.6905 30.0971 63.779 30.5046C63.8754 30.9325 63.9157 31.3711 63.8989 31.8093H59.0362C59.0375 32.1008 59.0766 32.3909 59.1526 32.6723ZM62.9743 30.3128C62.8861 30.0523 62.7515 29.8098 62.577 29.5971C62.4057 29.3887 62.1936 29.2174 61.9538 29.0937C61.6945 28.9646 61.4079 28.8999 61.1182 28.9054C60.8252 28.8992 60.5351 28.9638 60.2724 29.0937C60.0326 29.2174 59.8205 29.3887 59.6492 29.5971C59.4732 29.8136 59.3344 30.0578 59.2382 30.3197C59.1376 30.5903 59.0697 30.8719 59.0362 31.1587H63.1455C63.1342 30.8694 63.0763 30.5838 62.9743 30.3128Z" fill="#B6B2C5"/>
<path d="M65.6982 28.4397V29.5286H65.7222C65.8734 29.1417 66.1494 28.8164 66.5064 28.604C66.879 28.3751 67.3088 28.2563 67.746 28.2616C68.1231 28.2517 68.499 28.3097 68.8555 28.4328C69.1295 28.5337 69.3751 28.6994 69.5712 28.9156C69.7559 29.1383 69.886 29.4009 69.9514 29.6827C70.0282 30.0196 70.065 30.3645 70.0609 30.71V34.7783H69.2767V30.8162C69.2773 30.5632 69.2521 30.3107 69.2014 30.0628C69.1598 29.8448 69.0723 29.6382 68.9446 29.4567C68.8174 29.2808 68.6462 29.1414 68.448 29.0526C68.2031 28.9464 67.9375 28.8961 67.6707 28.9054C67.3859 28.9002 67.1033 28.9563 66.842 29.0697C66.6082 29.1741 66.4002 29.3284 66.2324 29.5218C66.0581 29.7224 65.9244 29.955 65.8386 30.2066C65.7436 30.4848 65.6916 30.7758 65.6845 31.0696V34.7577H64.9277V28.4397H65.6982Z" fill="#B6B2C5"/>
<path d="M76.3719 34.7611V33.5591H76.3479C76.2624 33.7681 76.1394 33.9596 75.985 34.1242C75.8249 34.2941 75.6416 34.4405 75.4405 34.5591C75.2333 34.6768 75.0125 34.7688 74.783 34.833C74.5602 34.897 74.3298 34.9304 74.0981 34.9323C73.6645 34.9422 73.2344 34.852 72.8413 34.6687C72.4945 34.4986 72.1911 34.2514 71.9544 33.9461C71.7123 33.628 71.5333 33.2665 71.4271 32.8811C71.1988 32.0425 71.1988 31.1582 71.4271 30.3196C71.5333 29.9343 71.7123 29.5727 71.9544 29.2546C72.1908 28.9473 72.4941 28.6978 72.8413 28.5252C73.4514 28.2457 74.1381 28.1805 74.7898 28.3403C75.2347 28.4471 75.637 28.6859 75.9439 29.0252C76.0943 29.2019 76.2105 29.4051 76.2863 29.6245H76.3103V26.0117H77.0808V34.7611H76.3719ZM72.1393 32.5729C72.2083 32.8803 72.3324 33.1727 72.5057 33.4359C72.6706 33.6886 72.8907 33.9006 73.1495 34.0557C73.4347 34.2226 73.7611 34.3056 74.0913 34.2954C74.4487 34.3063 74.8028 34.2236 75.1186 34.0557C75.392 33.9053 75.6266 33.693 75.8035 33.4359C75.9825 33.1743 76.1114 32.8816 76.1836 32.5729C76.3389 31.9327 76.3389 31.2646 76.1836 30.6244C76.1108 30.3159 75.9819 30.0234 75.8035 29.7615C75.6252 29.5055 75.391 29.2936 75.1186 29.1416C74.802 28.9763 74.4483 28.895 74.0913 28.9054C73.7616 28.8957 73.4356 28.9775 73.1495 29.1416C72.8914 29.2977 72.6715 29.5095 72.5057 29.7615C72.3331 30.025 72.209 30.3172 72.1393 30.6244C71.9841 31.2646 71.9841 31.9327 72.1393 32.5729Z" fill="#B6B2C5"/>
<path d="M79.3349 26.0117V34.7611H78.5645V26.0117H79.3349Z" fill="#B6B2C5"/>
<path d="M80.919 28.4399L83.0011 33.83L84.9496 28.4399H85.7201L82.9737 35.734C82.8573 36.0056 82.7511 36.2282 82.6552 36.4017C82.5652 36.5591 82.4495 36.7004 82.3128 36.8195C82.1908 36.9217 82.0484 36.9964 81.895 37.0387C81.697 37.0886 81.4931 37.1117 81.2889 37.1072L80.9464 37.0866C80.8683 37.0851 80.7908 37.0712 80.717 37.0455V36.3949L80.9807 36.4394C81.0682 36.4503 81.1562 36.456 81.2444 36.4565C81.3893 36.461 81.5336 36.4366 81.669 36.3846C81.7766 36.3358 81.8742 36.2672 81.9566 36.1826C82.0429 36.0903 82.1124 35.9837 82.1621 35.8675C82.2203 35.7442 82.282 35.6107 82.347 35.4634L82.6176 34.7546L80.0938 28.4571L80.919 28.4399Z" fill="#B6B2C5"/>
<path d="M93.7695 29.3096C93.4373 29.0225 93.0057 28.8774 92.5675 28.9055C92.2308 28.8971 91.8978 28.9774 91.6019 29.1383C91.3318 29.2891 91.0981 29.4972 90.917 29.7479C90.7299 30.0111 90.5886 30.304 90.4992 30.6143C90.312 31.2584 90.312 31.9426 90.4992 32.5867C90.5879 32.8962 90.7292 33.1882 90.917 33.4497C91.0969 33.7023 91.3309 33.9117 91.6019 34.0627C91.8983 34.2221 92.231 34.3023 92.5675 34.2955C92.8026 34.2985 93.0357 34.253 93.2524 34.162C93.4623 34.0722 93.6539 33.9445 93.8175 33.7853C93.985 33.6214 94.1218 33.4289 94.2215 33.2168C94.3296 32.9897 94.3957 32.7449 94.4167 32.4943H95.1907C95.1264 33.1727 94.8272 33.8074 94.3448 34.2887C93.8626 34.7261 93.2283 34.9572 92.5778 34.9325C92.1378 34.9405 91.7014 34.8504 91.3005 34.6688C90.9389 34.5021 90.6186 34.2577 90.3622 33.9531C90.1031 33.6401 89.9076 33.2795 89.7869 32.8915C89.5268 32.0493 89.5268 31.1483 89.7869 30.3061C89.9077 29.9192 90.1032 29.5597 90.3622 29.2479C90.6193 28.9423 90.9393 28.6958 91.3005 28.5254C91.6998 28.3383 92.1369 28.2457 92.5778 28.2549C93.1927 28.2367 93.7958 28.4261 94.29 28.7925C94.5341 28.9922 94.7345 29.2399 94.8789 29.5203C95.0232 29.8007 95.1083 30.1078 95.129 30.4225H94.3585C94.2805 30.0001 94.0749 29.6117 93.7695 29.3096Z" fill="#B6B2C5"/>
<path d="M97.0434 26.0117V34.7611H96.2695V26.0117H97.0434Z" fill="#B6B2C5"/>
<path d="M99.3057 26.0117V27.2514H98.5352V26.0117H99.3057ZM99.3057 28.4396V34.7611H98.5352V28.4396H99.3057Z" fill="#B6B2C5"/>
<path d="M101.55 28.4396V29.5286H101.574C101.724 29.141 102.001 28.8153 102.358 28.604C102.731 28.3747 103.161 28.2559 103.598 28.2615C103.974 28.2519 104.349 28.3099 104.704 28.4327C104.979 28.5337 105.226 28.6993 105.423 28.9156C105.608 29.1382 105.738 29.4009 105.803 29.6827C105.88 30.0196 105.917 30.3644 105.913 30.71V34.7782H105.139V30.8162C105.141 30.5632 105.117 30.3108 105.067 30.0628C105.026 29.8448 104.938 29.6382 104.81 29.4567C104.683 29.2807 104.512 29.1413 104.314 29.0526C104.069 28.9467 103.803 28.8964 103.536 28.9053C103.252 28.9002 102.969 28.9562 102.708 29.0697C102.473 29.1749 102.264 29.329 102.095 29.5217C101.922 29.7227 101.789 29.9552 101.704 30.2066C101.606 30.4838 101.554 30.7754 101.55 31.0696V34.7577H100.783V28.4396H101.55Z" fill="#B6B2C5"/>
<path d="M108.151 26.0117V27.2514H107.381V26.0117H108.151ZM108.151 28.4396V34.7611H107.381V28.4396H108.151Z" fill="#B6B2C5"/>
<path d="M113.507 29.3096C113.175 29.0225 112.743 28.8774 112.305 28.9055C111.969 28.8971 111.636 28.9774 111.34 29.1383C111.07 29.2891 110.836 29.4972 110.655 29.7479C110.466 30.0103 110.325 30.3034 110.237 30.6143C110.05 31.2584 110.05 31.9426 110.237 32.5867C110.324 32.8967 110.466 33.1888 110.655 33.4497C110.835 33.7023 111.069 33.9117 111.34 34.0627C111.636 34.2221 111.969 34.3023 112.305 34.2955C112.54 34.298 112.773 34.2526 112.99 34.162C113.2 34.0722 113.392 33.9445 113.555 33.7853C113.723 33.6214 113.86 33.4289 113.959 33.2168C114.067 32.9897 114.133 32.7449 114.155 32.4943H114.925C114.862 33.1723 114.564 33.807 114.083 34.2887C113.6 34.7261 112.966 34.9572 112.316 34.9325C111.874 34.9401 111.437 34.85 111.035 34.6688C110.675 34.5008 110.356 34.2566 110.1 33.9531C109.841 33.6401 109.645 33.2795 109.525 32.8915C109.26 32.05 109.26 31.1476 109.525 30.3061C109.646 29.9192 109.841 29.5597 110.1 29.2479C110.356 28.943 110.675 28.6967 111.035 28.5254C111.436 28.3387 111.874 28.2461 112.316 28.2549C112.931 28.2367 113.534 28.4261 114.028 28.7925C114.272 28.9922 114.472 29.2399 114.617 29.5203C114.761 29.8007 114.846 30.1078 114.867 30.4225H114.096C114.018 30.0001 113.813 29.6117 113.507 29.3096Z" fill="#B6B2C5"/>
<path d="M24.6743 0.658581C23.9733 0.878347 20.8548 1.1091 20.5119 1.1091C17.5 1.07454 14.4975 0.767072 11.5411 0.190479C10.0441 -0.111134 8.4969 -0.0538981 7.02625 0.3575C5.55561 0.768898 4.20332 1.52276 3.08009 2.55736C0.900009 4.53526 -0.0647639 7.3175 0.00336362 10.047C0.168188 16.9081 2.64056 23.8483 4.61845 31.7269C5.19204 34.0301 6.07111 36.1223 7.66661 37.2475C8.94785 38.1507 10.5983 38.4034 12.6267 37.6606C15.1628 36.7288 18.4022 34.4872 20.5383 32.8631C23.0458 36.4167 25.3885 38.1375 27.6763 38.0716C31.3486 37.9881 32.665 34.4103 33.3353 31.7269C34.8231 25.7713 37.3922 15.9829 37.9504 10.047C38.5569 3.63641 31.8804 -1.6204 24.6743 0.658581ZM17.6418 31.8214C16.9451 32.3181 14.8881 33.8543 13.1542 34.7487C10.829 35.9486 9.22036 35.4652 8.50611 34.5289C8.02483 33.8938 7.52376 32.8433 7.09082 31.105C5.96782 26.6108 3.90202 19.9145 2.99658 14.5346C2.47354 11.4271 2.55705 10.3371 2.55705 9.858C2.52047 8.84716 2.70238 7.84032 3.09037 6.9062C3.47836 5.97207 4.06329 5.13263 4.80525 4.44515C5.63359 3.67981 6.63138 3.1215 7.71696 2.81592C8.80255 2.51034 9.94507 2.46617 11.051 2.68702C13.6898 3.19851 16.3629 3.51364 19.0483 3.62982C16.7957 5.20554 15.5628 6.21867 13.0289 5.57036C12.8648 5.52317 12.6929 5.50938 12.5234 5.5298C12.3539 5.55022 12.1902 5.60442 12.042 5.68921C11.8938 5.77401 11.7641 5.88766 11.6606 6.02345C11.5571 6.15924 11.4819 6.31442 11.4394 6.47979C11.3969 6.64516 11.388 6.81738 11.4133 6.98624C11.4385 7.15511 11.4974 7.3172 11.5863 7.46292C11.6753 7.60864 11.7926 7.73503 11.9313 7.83462C12.07 7.93421 12.2273 8.00498 12.3938 8.04273C18.5472 9.61845 19.2922 4.51108 27.25 2.72219C30.8915 2.34639 34.021 4.28472 35.0121 7.01861C37.7328 14.539 24.6677 26.8108 17.644 31.828L17.6418 31.8214ZM30.8607 31.1006C29.296 37.3661 26.2456 36.5354 22.5514 31.2698C26.6566 27.9008 30.9882 23.578 33.9968 19.1519C32.9925 23.4154 31.6936 27.7777 30.8629 31.1072L30.8607 31.1006Z" fill="#B6B2C5"/>
</svg>
