<svg width="79" height="38" viewBox="0 0 79 38" fill="none" xmlns="http://www.w3.org/2000/svg">
<path d="M23.0763 11.0934C24.0431 13.679 24.5053 16.8566 24.219 20.7596L24.1745 20.7174C20.6688 3.74842 5.68197 3.08856 5.0625 3.0675C18.4209 2.48018 22.9613 10.8805 23.0763 11.0934Z" fill="#B6B2C5"/>
<path d="M24.3029 20.7596C18.8752 6.43965 5.0625 3.03809 5.0625 3.03809C5.68605 3.05921 20.7718 3.72121 24.3029 20.7596Z" fill="#B6B2C5"/>
<path d="M25.171 19.7468L25.1943 19.7086C36.4725 15.3236 35.2755 4.72013 35.2219 4.2809C35.223 4.277 35.223 4.27286 35.2219 4.26897L35.1614 4.226C26.0396 6.05212 24.3443 12.6429 24.3047 12.8195C24.3047 12.8195 24.3047 12.8028 24.3047 12.7956C24.3187 12.6739 24.335 12.5569 24.3513 12.4376C24.3513 12.3588 24.3769 12.28 24.3885 12.1989C24.4002 12.1177 24.4235 12.0079 24.4421 11.9124L24.477 11.7429C24.491 11.688 24.5003 11.6307 24.5143 11.5758C24.5282 11.5209 24.5399 11.4613 24.5539 11.404L24.5958 11.2369L24.6377 11.0817C24.6377 11.0507 24.654 11.0196 24.6633 10.991C24.6726 10.9624 24.6936 10.886 24.7076 10.8358C24.7495 10.7046 24.7891 10.5733 24.8333 10.4467C24.8519 10.3942 24.8682 10.3417 24.8892 10.2916C24.9102 10.2415 24.9241 10.1889 24.9451 10.1388C24.98 10.0362 25.0219 9.93591 25.0615 9.83804C25.0825 9.7903 25.1035 9.74017 25.1221 9.69004C25.1407 9.63991 25.1454 9.6423 25.1547 9.61843C25.164 9.59456 25.1756 9.5683 25.1873 9.54443L25.334 9.22456L25.4015 9.08849C25.4295 9.0312 25.4598 8.9763 25.4877 8.9214C25.5459 8.81159 25.6065 8.70417 25.667 8.59675L25.7578 8.43921C25.7741 8.41056 25.7904 8.38192 25.8091 8.35566C25.8277 8.3294 25.8091 8.35566 25.8091 8.33656C25.9185 8.15753 26.0419 7.98089 26.1491 7.8114C26.2026 7.73263 26.2562 7.65385 26.3144 7.57269C26.3726 7.49153 26.4006 7.45334 26.4448 7.39605C26.4891 7.33876 26.4774 7.35308 26.4914 7.33398L26.6567 7.12392C26.7103 7.0547 26.7685 6.98786 26.8244 6.91863V6.90431L27.0061 6.69425C27.055 6.63934 27.1039 6.58444 27.1551 6.53192C27.1744 6.50582 27.1962 6.48183 27.2203 6.46031C27.2669 6.41018 27.3111 6.36005 27.36 6.31231L27.395 6.27651C27.4532 6.21444 27.5137 6.15238 27.5719 6.09509L27.728 5.9447L27.8258 5.85399C27.8817 5.79909 27.9376 5.74896 27.9935 5.69883C28.0493 5.6487 28.1122 5.59141 28.1728 5.54128L28.3521 5.38612L28.4266 5.32406L28.564 5.20948C28.7969 5.01612 29.0507 4.82993 29.2976 4.65567L29.435 4.5578C29.8285 4.28568 30.2291 4.03503 30.6296 3.80826C30.6762 3.77961 30.7251 3.75097 30.7763 3.72471C30.9393 3.63161 31.1047 3.54329 31.2677 3.45974L31.461 3.35949C31.6566 3.25923 31.8522 3.16613 32.0455 3.07542L32.2248 2.99426L32.3622 2.9322L32.5322 2.8582C32.623 2.81762 32.7115 2.78181 32.8 2.74601L33.0166 2.65768L33.2308 2.57175L33.4404 2.49297L33.6454 2.41659L33.848 2.34259H33.8782L34.4325 2.15401L34.6165 2.09672C34.7469 2.05375 34.8726 2.01794 34.996 1.98214L35.1428 1.93917L35.7622 1.77207L35.846 1.75298L36.0347 1.70762L36.1581 1.67898C36.2792 1.65033 36.391 1.62646 36.4865 1.60737L36.5773 1.58827L36.9406 1.51904C36.9592 1.59782 36.9941 1.75775 37.0384 1.98452C37.0384 2.02033 37.0523 2.05375 37.057 2.08956C37.1129 2.37601 37.1758 2.75794 37.2363 3.2091C37.2503 3.32368 37.2643 3.44781 37.2806 3.56239L37.3411 3.71994C37.3528 3.84406 37.3667 3.97535 37.3784 4.10903C37.4273 4.64613 37.4622 5.2429 37.4692 5.88264C37.4692 5.9638 37.4692 6.04257 37.4692 6.12135C37.4692 6.28605 37.4692 6.45076 37.4692 6.61786C37.4692 6.70141 37.4692 6.78496 37.4692 6.87089C37.4552 7.26476 37.4296 7.67056 37.39 8.08114C37.39 8.14321 37.3784 8.20288 37.3714 8.26495C37.3481 8.47263 37.3225 8.68508 37.2945 8.89514L37.2666 9.0694C37.2154 9.40359 37.1548 9.74017 37.0826 10.0791C37.0407 10.2629 36.9988 10.4467 36.9522 10.6306C36.9056 10.8144 36.8591 10.9743 36.8102 11.1462C36.7613 11.318 36.7054 11.4875 36.6471 11.6594C36.6332 11.7047 36.6169 11.7525 36.5982 11.7978C36.2367 12.854 35.7293 13.8516 35.0915 14.7602C35.0287 14.8509 34.9611 14.9392 34.8913 15.03C34.8214 15.1207 34.7562 15.209 34.684 15.2973C34.6491 15.3427 34.6118 15.3832 34.5769 15.4286C34.5024 15.5169 34.4278 15.6029 34.344 15.6888L34.2276 15.8177L34.1228 15.9299L33.7944 16.2617L33.6803 16.3691C33.6407 16.4049 33.6034 16.4431 33.5639 16.4765C33.5243 16.5099 33.487 16.5481 33.4451 16.5816C33.3263 16.689 33.2122 16.7916 33.0771 16.8943C32.9421 16.9969 32.821 17.0948 32.6882 17.1927L32.5369 17.3025L32.4158 17.3836C32.3692 17.4146 32.325 17.4481 32.2761 17.4791L32.134 17.5722C32.0408 17.6319 31.943 17.6939 31.8452 17.7512L31.6985 17.8372C30.0195 18.8183 27.884 19.5057 25.171 19.7468Z" fill="#B6B2C5"/>
<path d="M5.15616 3.14916L5.0855 3.2262C5.50006 15.6149 13.1413 19.8168 14.3802 20.4191H14.4226H14.4438H14.4085C14.4862 20.4564 14.531 20.4774 14.5475 20.4821C14.5358 20.4834 14.5239 20.4834 14.5122 20.4821L14.3237 20.4237C13.3815 20.4237 7.25726 20.6992 3.11631 28.3607L3.13751 28.4284C3.50732 28.5965 11.8293 32.2265 19.0206 25.1346C11.4147 36.0176 0.195505 29.4229 0 29.3108C0.0329768 29.2548 0.087153 29.1404 0.174306 28.9817C0.186083 28.956 0.202572 28.928 0.21906 28.8976C0.26617 28.8113 0.322702 28.7132 0.383944 28.6058C0.405144 28.5708 0.426343 28.5358 0.447543 28.4961L0.546473 28.328C0.562349 28.305 0.576519 28.2808 0.588872 28.2557C0.694869 28.0876 0.805577 27.9032 0.932773 27.7094C0.958683 27.6674 0.989305 27.6254 1.01522 27.581C1.08588 27.4736 1.1589 27.3616 1.23663 27.2495L1.34734 27.0908L1.68888 26.6239C1.68888 26.6239 1.68888 26.6076 1.70773 26.6006L1.83728 26.4278L1.97154 26.2504L2.10816 26.073L2.25185 25.8933L2.40024 25.7135L2.58632 25.4801L2.70881 25.34C2.74179 25.3027 2.77005 25.263 2.80774 25.2256L2.93729 25.0762C3.07862 24.9175 3.22466 24.7564 3.37777 24.5977L3.53088 24.4413C3.65807 24.3105 3.78998 24.1775 3.9266 24.0467L4.04908 23.93C4.38356 23.6125 4.73689 23.3021 5.11376 22.9963L5.24331 22.8935C5.47886 22.7068 5.73326 22.5247 5.98765 22.3496C6.03711 22.3146 6.08893 22.2843 6.13604 22.2516L6.21613 22.1979L6.41635 22.0695L6.61892 21.9388L6.81442 21.8221L6.92984 21.7544L7.11828 21.6493L7.35383 21.5303L7.39623 21.5092C7.45747 21.4742 7.51636 21.4439 7.5776 21.4159C7.63884 21.3879 7.63413 21.3855 7.66476 21.3739L7.86497 21.2781L8.10052 21.1661C8.10674 21.1673 8.11315 21.1673 8.11936 21.1661L8.35491 21.0657C8.435 21.0307 8.51744 20.998 8.59046 20.9677C8.61402 20.9571 8.63845 20.9485 8.66348 20.942L8.87077 20.865C8.96027 20.8346 9.04978 20.8019 9.13929 20.7762C9.3348 20.7132 9.53501 20.6525 9.73759 20.6012H9.75878L9.85065 20.5778L10.0273 20.5335L10.3853 20.4588L10.5691 20.4214L10.7198 20.4004C10.8329 20.3794 10.9554 20.3631 11.0637 20.349H11.1438H11.2215L11.3794 20.3327C11.4854 20.3327 11.5914 20.314 11.6974 20.307L11.8575 20.2954H12.0201C12.152 20.2954 12.2886 20.2954 12.4252 20.2954H12.5854H12.6772H12.8351H13.0046H13.179L13.3485 20.307L13.5181 20.3234L13.8055 20.3537L14.0411 20.3864L14.1588 20.4051L13.9963 20.3561L13.676 20.251L13.292 20.1133L13.0565 20.0246L12.8209 19.9382L12.5854 19.8425L12.3498 19.7468L12.1425 19.6534L12.0248 19.5974L11.8175 19.497C11.6432 19.4106 11.4712 19.3242 11.304 19.2332L11.0991 19.1235L10.9012 19.0091C10.7693 18.9344 10.6374 18.8574 10.5078 18.7757L10.317 18.6566C10.2864 18.6356 10.2558 18.6146 10.2228 18.5959L10.131 18.5352C9.98962 18.4418 9.85536 18.3485 9.71874 18.2528L9.54208 18.1267C9.47141 18.0777 9.39839 18.0216 9.32773 17.968C9.18954 17.8621 9.05292 17.7547 8.91788 17.6458L8.72001 17.4801C8.68342 17.4529 8.64879 17.4233 8.61637 17.3914C8.60764 17.3863 8.59971 17.38 8.59282 17.3727C8.35727 17.1789 8.14763 16.9782 7.93564 16.7727C7.83906 16.6817 7.74249 16.586 7.64827 16.4903L7.43156 16.2568C7.40538 16.2321 7.38098 16.2056 7.35854 16.1775C7.27139 16.0841 7.18659 15.9931 7.10179 15.8973C7.017 15.804 6.9322 15.7083 6.85211 15.6149L6.83562 15.5915C6.74847 15.4912 6.66603 15.3908 6.58594 15.2904L6.39279 15.057C6.36217 15.0196 6.33391 14.9846 6.308 14.9472C6.24911 14.8702 6.18787 14.7955 6.13369 14.7138L6.09129 14.6531C6.01827 14.5574 5.94996 14.4617 5.88165 14.3613V14.3496C5.82276 14.2679 5.76623 14.1839 5.70735 14.0975L5.65317 13.9154C5.59428 13.8267 5.5354 13.738 5.47651 13.6446C5.41762 13.5513 5.35638 13.4556 5.29749 13.3598C5.2386 13.2641 5.17972 13.1684 5.12319 13.0704C5.10199 13.0307 5.07843 12.991 5.05488 12.9513L4.92768 12.7179C4.71097 12.335 4.51076 11.9452 4.32232 11.5507C4.28699 11.4806 4.25401 11.4083 4.22103 11.3359C3.92895 10.7336 3.67456 10.1127 3.44843 9.49641L3.36364 9.26297C3.27413 9.00852 3.18933 8.7564 3.10689 8.50662C3.07627 8.40624 3.04329 8.3082 3.01502 8.21015C2.91845 7.91135 2.83365 7.61488 2.75356 7.32074C2.72765 7.2297 2.7041 7.13633 2.68054 7.04528C2.65699 6.95424 2.64286 6.90989 2.62637 6.83986C2.60988 6.76982 2.58161 6.66711 2.56277 6.58307C2.52979 6.44534 2.49682 6.30995 2.4662 6.17922C2.43557 6.04849 2.41673 5.95979 2.39318 5.85007C2.36962 5.74035 2.34607 5.63764 2.32487 5.53026C2.30367 5.42287 2.28011 5.32016 2.26127 5.21745C2.24242 5.11473 2.22122 5.01202 2.20238 4.9093C2.18354 4.80659 2.16469 4.70388 2.14585 4.6035C2.14681 4.58873 2.14681 4.57391 2.14585 4.55914C2.09638 4.27435 2.05163 3.99889 2.01394 3.73277C2.01394 3.63939 1.98803 3.54835 1.97625 3.45731C1.94799 3.26588 1.92443 3.0768 1.90323 2.89705C1.90323 2.82235 1.88675 2.74998 1.87732 2.67995C1.84199 2.34846 1.81373 2.04266 1.79017 1.76253C1.79017 1.72284 1.79017 1.68316 1.79017 1.64347C1.79017 1.54543 1.77604 1.45439 1.76897 1.36568C1.7619 1.27697 1.76897 1.24429 1.76897 1.1836C1.76897 1.00852 1.74777 0.847443 1.74306 0.716716C1.74306 0.667694 1.74306 0.625674 1.74306 0.583655C1.74306 0.326871 1.74306 0.144787 1.74306 0.0514112C1.85377 0.0514112 2.08461 0.0280671 2.41437 0.0140607H2.56277C2.97734 -0.00228011 3.52145 -0.00694892 4.1645 0.0140607L4.66622 0.0280671L4.93004 0.0397392C5.10905 0.0397392 5.29514 0.0584144 5.48357 0.0724208C6.2444 0.121443 7.08295 0.205482 7.97568 0.336208L8.31487 0.387565C8.55042 0.422581 8.76948 0.462266 9.00032 0.504285L9.35128 0.569649C9.8954 0.679366 10.456 0.803089 11.0213 0.952491C11.1061 0.9735 11.1886 0.99451 11.271 1.02019C11.556 1.09489 11.8434 1.18126 12.1331 1.26764L12.3687 1.34701C12.8209 1.4894 13.2755 1.65281 13.7301 1.83023C13.9657 1.92827 14.2224 2.03099 14.465 2.13603C14.7077 2.24108 14.9361 2.3438 15.1529 2.45118C15.3696 2.55856 15.6051 2.68462 15.8289 2.79667L16.0126 2.89471C17.3973 3.64548 18.6664 4.58881 19.7814 5.696C19.8944 5.80805 20.0028 5.92944 20.1135 6.03682C20.2242 6.1442 20.3302 6.27026 20.4362 6.39399L20.5964 6.57373C20.7 6.69746 20.8037 6.82352 20.905 6.94957C20.9568 7.0126 21.0062 7.07797 21.0581 7.14333L21.1923 7.31607C21.3242 7.49349 21.4514 7.6709 21.5786 7.85532L21.7011 8.04207C21.7435 8.1051 21.7835 8.1658 21.8236 8.23116C21.8636 8.29652 21.906 8.35722 21.9461 8.42025C22.0639 8.614 22.1816 8.80776 22.2923 9.01085C22.403 9.21394 22.5279 9.41937 22.6197 9.62947L22.7375 9.86291L22.8247 10.0543C22.86 10.1244 22.8906 10.1991 22.926 10.2714C22.9613 10.3438 22.9896 10.4162 23.0202 10.4932C23.0838 10.6403 23.145 10.792 23.2063 10.9414C23.2345 11.0184 23.2651 11.0931 23.2911 11.1748C23.1521 10.9437 18.5895 2.56323 5.18207 3.14916H5.16087H5.15616Z" fill="#B6B2C5"/>
<path d="M28.1449 27.3417L21.0985 20.3124L21.4514 20.3992L21.4766 27.0565H20.2539V17.8206H20.3169L27.2877 24.8746L26.9978 24.8126L26.9726 18.0934H28.1827V27.3417H28.1449Z" fill="#B6B2C5"/>
<path d="M29.8959 27.0565L33.8792 17.7214H33.9549L37.9256 27.0565H36.5264L33.5515 19.6058L34.4213 19.0479L31.0934 27.0565H29.8959ZM32.2279 23.6597H35.6188L36.0221 24.7011H31.875L32.2279 23.6597Z" fill="#B6B2C5"/>
<path d="M38.2723 18.0934H44.3229V19.2463H41.8774V27.0565H40.6547V19.2463H38.2723V18.0934Z" fill="#B6B2C5"/>
<path d="M47.3615 23.8828C47.3615 24.2878 47.4581 24.6515 47.6514 24.9738C47.8531 25.2879 48.1178 25.5358 48.4455 25.7176C48.7733 25.8995 49.143 25.9904 49.5548 25.9904C49.9834 25.9904 50.3657 25.8995 50.7019 25.7176C51.038 25.5358 51.3027 25.2879 51.496 24.9738C51.6893 24.6515 51.7859 24.2878 51.7859 23.8828V18.0934H52.9835V23.92C52.9835 24.573 52.828 25.1432 52.5171 25.6308C52.2145 26.1185 51.8027 26.4945 51.2817 26.759C50.7691 27.0235 50.1935 27.1557 49.5548 27.1557C48.9161 27.1557 48.3405 27.0235 47.8279 26.759C47.3152 26.4945 46.9077 26.1185 46.6051 25.6308C46.3026 25.1432 46.1513 24.573 46.1513 23.92V18.0934H47.3615V23.8828Z" fill="#B6B2C5"/>
<path d="M57.9052 18.0934C58.3674 18.0934 58.7917 18.1553 59.1783 18.2793C59.5733 18.395 59.9136 18.5727 60.1993 18.8124C60.4935 19.0438 60.7204 19.3331 60.88 19.6802C61.0481 20.019 61.1321 20.4158 61.1321 20.8703C61.1321 21.2257 61.0775 21.5728 60.9683 21.9117C60.8674 22.2505 60.6951 22.5605 60.4514 22.8415C60.2077 23.1142 59.8884 23.3374 59.4934 23.5109C59.1069 23.6762 58.6279 23.7589 58.0564 23.7589H56.7076V27.0565H55.4849V18.0934H57.9052ZM58.0312 22.6059C58.3926 22.6059 58.6909 22.5522 58.9262 22.4448C59.1699 22.3373 59.359 22.201 59.4934 22.0357C59.6279 21.8621 59.7245 21.6761 59.7834 21.4778C59.8422 21.2794 59.8716 21.0935 59.8716 20.9199C59.8716 20.7381 59.838 20.5521 59.7708 20.362C59.7119 20.1637 59.6111 19.9819 59.4682 19.8166C59.3338 19.6513 59.1531 19.5149 58.9262 19.4075C58.7077 19.3 58.4388 19.2463 58.1194 19.2463H56.7076V22.6059H58.0312ZM59.5312 23.2878L61.9137 27.0565H60.5019L58.0816 23.325L59.5312 23.2878Z" fill="#B6B2C5"/>
<path d="M62.8865 27.0565L66.8698 17.7214H66.9455L70.9162 27.0565H69.517L66.5421 19.6058L67.4119 19.0479L64.0841 27.0565H62.8865ZM65.2185 23.6597H68.6094L69.0128 24.7011H64.8656L65.2185 23.6597Z" fill="#B6B2C5"/>
<path d="M72.6327 18.0934H73.8554V25.9036H78.4816V27.0565H72.6327V18.0934Z" fill="#B6B2C5"/>
<path d="M26.4336 33.4286H26.9649L26.8392 34.4808H27.4906L27.4391 34.8982H26.7878L26.5536 36.8367H26.0222L26.2565 34.8982H25.8223L25.868 34.4808H26.3079L26.4336 33.4286Z" fill="#B6B2C5"/>
<path d="M28.8182 36.8824C28.643 36.8824 28.4754 36.8367 28.3154 36.7452C28.1592 36.6499 28.0317 36.5165 27.9326 36.3449C27.8374 36.1734 27.7898 35.9694 27.7898 35.7331C27.7898 35.573 27.8184 35.4147 27.8755 35.2585C27.9364 35.0983 28.0221 34.9516 28.1326 34.8181C28.2469 34.6847 28.384 34.578 28.5439 34.4979C28.7077 34.4141 28.8963 34.3721 29.1096 34.3721C29.281 34.3721 29.4257 34.3969 29.5438 34.4465C29.6618 34.496 29.7609 34.5608 29.8409 34.6409C29.9209 34.7171 29.9837 34.8048 30.0294 34.9039L29.978 35.0068L30.098 34.4693H30.5836L30.2979 36.8367H29.7666L29.8409 36.2363L29.8809 36.3735C29.858 36.4078 29.818 36.4555 29.7609 36.5165C29.7037 36.5737 29.6295 36.6308 29.5381 36.688C29.4505 36.7452 29.3457 36.7929 29.2238 36.831C29.1058 36.8653 28.9705 36.8824 28.8182 36.8824ZM29.1096 36.4536C29.2238 36.4536 29.3324 36.4307 29.4352 36.385C29.5381 36.3354 29.6276 36.2687 29.7037 36.1848C29.7837 36.0971 29.8447 35.9923 29.8866 35.8703L29.938 35.4071C29.9228 35.2889 29.8809 35.186 29.8123 35.0983C29.7475 35.0107 29.6619 34.942 29.5552 34.8925C29.4486 34.8391 29.3305 34.8124 29.201 34.8124C29.0448 34.8124 28.9115 34.841 28.801 34.8982C28.6944 34.9554 28.6068 35.0297 28.5382 35.1212C28.4697 35.2089 28.4202 35.3023 28.3897 35.4014C28.3592 35.4967 28.344 35.5863 28.344 35.6702C28.344 35.8227 28.3764 35.958 28.4411 36.0762C28.5059 36.1943 28.5954 36.2877 28.7096 36.3564C28.8277 36.4212 28.961 36.4536 29.1096 36.4536Z" fill="#B6B2C5"/>
<path d="M31.2227 36.8367L31.7598 32.4107H32.2968L31.7541 36.8367H31.2227ZM32.5197 35.2642L33.4109 36.8367H32.7882L32.1254 35.5615L32.5197 35.2642ZM31.6798 36.0819L31.6741 35.573L33.251 34.4179L33.5595 34.6981L31.6798 36.0819Z" fill="#B6B2C5"/>
<path d="M35.2186 36.4364C35.3138 36.4364 35.4052 36.4212 35.4929 36.3907C35.5805 36.3564 35.6643 36.3144 35.7442 36.2649L35.9385 36.6709C35.8242 36.7395 35.6985 36.7929 35.5614 36.831C35.4281 36.8691 35.2967 36.8882 35.1672 36.8882C34.9196 36.8882 34.7025 36.8424 34.5159 36.7509C34.3292 36.6556 34.1826 36.5184 34.0759 36.3392C33.9731 36.16 33.9217 35.9446 33.9217 35.693C33.9217 35.5367 33.9503 35.3823 34.0074 35.2299C34.0645 35.0774 34.1502 34.9382 34.2645 34.8124C34.3788 34.6828 34.5197 34.5799 34.6873 34.5036C34.8587 34.4236 35.0567 34.3836 35.2815 34.3836C35.4224 34.3836 35.5557 34.4026 35.6814 34.4407C35.8109 34.475 35.929 34.5341 36.0356 34.618C36.1423 34.7019 36.2318 34.8143 36.3041 34.9554C36.3803 35.0964 36.4336 35.2699 36.4641 35.4757L34.4416 36.0476L34.3559 35.7216L36.0813 35.2241L35.8928 35.3099C35.8547 35.1612 35.7785 35.0392 35.6643 34.9439C35.5538 34.8486 35.4205 34.801 35.2643 34.801C35.0967 34.801 34.952 34.841 34.8301 34.9211C34.7082 34.9973 34.6149 35.0983 34.5502 35.2241C34.4854 35.3499 34.453 35.4853 34.453 35.6301C34.453 35.8131 34.4892 35.9637 34.5616 36.0819C34.634 36.2001 34.7292 36.2896 34.8472 36.3506C34.9653 36.4078 35.0891 36.4364 35.2186 36.4364Z" fill="#B6B2C5"/>
<path d="M40.6251 36.6766C40.5146 36.7452 40.3889 36.7986 40.248 36.8367C40.1109 36.8786 39.9718 36.8996 39.8309 36.8996C39.709 36.8996 39.5776 36.8786 39.4367 36.8367C39.2958 36.7948 39.1605 36.73 39.031 36.6423C38.9054 36.5546 38.8025 36.4383 38.7225 36.2935C38.6463 36.1448 38.6083 35.9656 38.6083 35.7559C38.6083 35.5958 38.6368 35.4376 38.694 35.2813C38.7549 35.1212 38.8406 34.9763 38.9511 34.8467C39.0653 34.7171 39.2024 34.6142 39.3624 34.5379C39.5262 34.4617 39.7128 34.4236 39.9223 34.4236C40.1394 34.4236 40.3261 34.456 40.4822 34.5208C40.6384 34.5856 40.7679 34.6714 40.8707 34.7781L40.5622 35.1041C40.5013 35.0431 40.4175 34.9878 40.3108 34.9382C40.208 34.8887 40.0899 34.8639 39.9566 34.8639C39.8157 34.8639 39.6824 34.902 39.5567 34.9783C39.4348 35.0507 39.3358 35.1517 39.2596 35.2813C39.1834 35.4109 39.1453 35.5577 39.1453 35.7216C39.1453 35.8589 39.1777 35.9847 39.2424 36.099C39.3072 36.2096 39.3967 36.2992 39.511 36.3678C39.629 36.4326 39.7662 36.465 39.9223 36.465C40.0099 36.465 40.0937 36.4536 40.1737 36.4307C40.2537 36.404 40.3261 36.3678 40.3908 36.322L40.6251 36.6766Z" fill="#B6B2C5"/>
<path d="M42.2646 36.8824C42.0893 36.8824 41.9218 36.8367 41.7618 36.7452C41.6056 36.6499 41.478 36.5165 41.379 36.3449C41.2838 36.1734 41.2362 35.9694 41.2362 35.7331C41.2362 35.573 41.2647 35.4147 41.3219 35.2585C41.3828 35.0983 41.4685 34.9516 41.579 34.8181C41.6932 34.6847 41.8303 34.578 41.9903 34.4979C42.1541 34.4141 42.3426 34.3721 42.5559 34.3721C42.7273 34.3721 42.8721 34.3969 42.9901 34.4465C43.1082 34.496 43.2073 34.5608 43.2872 34.6409C43.3672 34.7171 43.4301 34.8048 43.4758 34.9039L43.4244 35.0068L43.5443 34.4693H44.03L43.7443 36.8367H43.213L43.2872 36.2363L43.3272 36.3735C43.3044 36.4078 43.2644 36.4555 43.2073 36.5165C43.1501 36.5737 43.0758 36.6308 42.9844 36.688C42.8968 36.7452 42.7921 36.7929 42.6702 36.831C42.5521 36.8653 42.4169 36.8824 42.2646 36.8824ZM42.5559 36.4536C42.6702 36.4536 42.7788 36.4307 42.8816 36.385C42.9844 36.3354 43.0739 36.2687 43.1501 36.1848C43.2301 36.0971 43.291 35.9923 43.3329 35.8703L43.3844 35.4071C43.3691 35.2889 43.3272 35.186 43.2587 35.0983C43.1939 35.0107 43.1082 34.942 43.0016 34.8925C42.8949 34.8391 42.7768 34.8124 42.6473 34.8124C42.4912 34.8124 42.3579 34.841 42.2474 34.8982C42.1408 34.9554 42.0532 35.0297 41.9846 35.1212C41.916 35.2089 41.8665 35.3023 41.8361 35.4014C41.8056 35.4967 41.7904 35.5863 41.7904 35.6702C41.7904 35.8227 41.8227 35.958 41.8875 36.0762C41.9522 36.1943 42.0417 36.2877 42.156 36.3564C42.2741 36.4212 42.4074 36.4536 42.5559 36.4536Z" fill="#B6B2C5"/>
<path d="M45.429 34.4693L45.389 35.0469C45.469 34.902 45.568 34.78 45.6861 34.6809C45.808 34.5818 45.9336 34.5074 46.0631 34.4579C46.1965 34.4045 46.3183 34.3778 46.4288 34.3778L46.3431 34.9039C46.1641 34.8925 46.0003 34.9268 45.8518 35.0068C45.707 35.0869 45.5889 35.1936 45.4975 35.3271C45.4061 35.4605 45.3509 35.6035 45.3318 35.7559L45.1947 36.8367H44.6691L44.9548 34.4693H45.429Z" fill="#B6B2C5"/>
<path d="M47.962 36.4364C48.0572 36.4364 48.1486 36.4212 48.2362 36.3907C48.3238 36.3564 48.4076 36.3144 48.4876 36.2649L48.6819 36.6709C48.5676 36.7395 48.4419 36.7929 48.3048 36.831C48.1715 36.8691 48.0401 36.8882 47.9106 36.8882C47.663 36.8882 47.4459 36.8424 47.2592 36.7509C47.0726 36.6556 46.926 36.5184 46.8193 36.3392C46.7165 36.16 46.6651 35.9446 46.6651 35.693C46.6651 35.5367 46.6936 35.3823 46.7508 35.2299C46.8079 35.0774 46.8936 34.9382 47.0079 34.8124C47.1221 34.6828 47.263 34.5799 47.4306 34.5036C47.602 34.4236 47.8001 34.3836 48.0248 34.3836C48.1658 34.3836 48.2991 34.4026 48.4248 34.4407C48.5543 34.475 48.6723 34.5341 48.779 34.618C48.8856 34.7019 48.9751 34.8143 49.0475 34.9554C49.1237 35.0964 49.177 35.2699 49.2075 35.4757L47.185 36.0476L47.0993 35.7216L48.8247 35.2241L48.6361 35.3099C48.5981 35.1612 48.5219 35.0392 48.4076 34.9439C48.2972 34.8486 48.1638 34.801 48.0077 34.801C47.8401 34.801 47.6954 34.841 47.5735 34.9211C47.4516 34.9973 47.3583 35.0983 47.2935 35.2241C47.2288 35.3499 47.1964 35.4853 47.1964 35.6301C47.1964 35.8131 47.2326 35.9637 47.3049 36.0819C47.3773 36.2001 47.4725 36.2896 47.5906 36.3506C47.7087 36.4078 47.8325 36.4364 47.962 36.4364Z" fill="#B6B2C5"/>
<path d="M52.6028 36.8939C52.4543 36.8939 52.3057 36.8691 52.1572 36.8195C52.0087 36.77 51.8734 36.6976 51.7516 36.6022C51.6297 36.5031 51.5325 36.3811 51.4602 36.2363C51.3878 36.0914 51.3516 35.9237 51.3516 35.7331C51.3516 35.5844 51.3764 35.4319 51.4259 35.2756C51.4792 35.1155 51.5592 34.9687 51.6659 34.8353C51.7725 34.7019 51.9115 34.5932 52.0829 34.5094C52.2581 34.4255 52.4695 34.3836 52.7171 34.3836C52.9342 34.3836 53.1361 34.4293 53.3227 34.5208C53.5132 34.6123 53.6674 34.7457 53.7855 34.9211C53.9074 35.0926 53.9683 35.3004 53.9683 35.5444C53.9683 35.6435 53.9531 35.7559 53.9226 35.8817C53.896 36.0037 53.8502 36.1238 53.7855 36.242C53.7246 36.3602 53.6408 36.4688 53.5341 36.5679C53.4313 36.6671 53.3018 36.7471 53.1456 36.8081C52.9932 36.8653 52.8123 36.8939 52.6028 36.8939ZM52.62 36.4536C52.8142 36.4536 52.9704 36.4078 53.0885 36.3163C53.2065 36.221 53.2922 36.1048 53.3456 35.9675C53.3989 35.8303 53.4256 35.6969 53.4256 35.5672C53.4256 35.4338 53.4027 35.3214 53.357 35.2299C53.3151 35.1346 53.2561 35.0564 53.1799 34.9954C53.1075 34.9344 53.0275 34.8906 52.9399 34.8639C52.8561 34.8334 52.7761 34.8181 52.7 34.8181C52.5095 34.8181 52.3534 34.8639 52.2315 34.9554C52.1134 35.0469 52.0258 35.1631 51.9687 35.3042C51.9153 35.4414 51.8887 35.5749 51.8887 35.7045C51.8887 35.876 51.9249 36.0171 51.9972 36.1276C52.0734 36.2382 52.1686 36.3201 52.2829 36.3735C52.3972 36.4269 52.5095 36.4536 52.62 36.4536Z" fill="#B6B2C5"/>
<path d="M54.7219 36.8367L54.9504 34.9439H54.5448L54.6076 34.4693H55.0076L55.1275 33.4686C55.1694 33.1255 55.2799 32.8625 55.4589 32.6795C55.6379 32.4965 55.8779 32.405 56.1788 32.405C56.2588 32.405 56.3445 32.4165 56.4359 32.4393C56.5311 32.4622 56.613 32.5003 56.6816 32.5537L56.4073 32.9368C56.3769 32.9025 56.3426 32.8796 56.3045 32.8682C56.2664 32.853 56.2245 32.8453 56.1788 32.8453C56.0417 32.8453 55.9274 32.893 55.836 32.9883C55.7484 33.0836 55.6913 33.2456 55.6646 33.4743L55.5389 34.4693H56.2931L56.2302 34.9439H55.4818L55.2532 36.8367H54.7219Z" fill="#B6B2C5"/>
<path d="M58.5423 37.9746L60.5306 34.4693H61.0333L59.0737 37.9746H58.5423ZM59.2736 36.8538L58.4281 34.4693H59.028L59.7193 36.5851L59.2736 36.8538Z" fill="#B6B2C5"/>
<path d="M62.3556 36.8939C62.2071 36.8939 62.0586 36.8691 61.91 36.8195C61.7615 36.77 61.6262 36.6976 61.5044 36.6022C61.3825 36.5031 61.2854 36.3811 61.213 36.2363C61.1406 36.0914 61.1044 35.9237 61.1044 35.7331C61.1044 35.5844 61.1292 35.4319 61.1787 35.2756C61.232 35.1155 61.312 34.9687 61.4187 34.8353C61.5253 34.7019 61.6643 34.5932 61.8357 34.5094C62.0109 34.4255 62.2223 34.3836 62.4699 34.3836C62.687 34.3836 62.8889 34.4293 63.0755 34.5208C63.266 34.6123 63.4202 34.7457 63.5383 34.9211C63.6602 35.0926 63.7211 35.3004 63.7211 35.5444C63.7211 35.6435 63.7059 35.7559 63.6754 35.8817C63.6488 36.0037 63.6031 36.1238 63.5383 36.242C63.4774 36.3602 63.3936 36.4688 63.2869 36.5679C63.1841 36.6671 63.0546 36.7471 62.8984 36.8081C62.7461 36.8653 62.5651 36.8939 62.3556 36.8939ZM62.3728 36.4536C62.567 36.4536 62.7232 36.4078 62.8413 36.3163C62.9594 36.221 63.0451 36.1048 63.0984 35.9675C63.1517 35.8303 63.1784 35.6969 63.1784 35.5672C63.1784 35.4338 63.1555 35.3214 63.1098 35.2299C63.0679 35.1346 63.0089 35.0564 62.9327 34.9954C62.8603 34.9344 62.7803 34.8906 62.6927 34.8639C62.6089 34.8334 62.5289 34.8181 62.4528 34.8181C62.2623 34.8181 62.1062 34.8639 61.9843 34.9554C61.8662 35.0469 61.7786 35.1631 61.7215 35.3042C61.6681 35.4414 61.6415 35.5749 61.6415 35.7045C61.6415 35.876 61.6777 36.0171 61.75 36.1276C61.8262 36.2382 61.9214 36.3201 62.0357 36.3735C62.15 36.4269 62.2623 36.4536 62.3728 36.4536Z" fill="#B6B2C5"/>
<path d="M65.0346 36.9282C64.8175 36.9282 64.6461 36.8653 64.5204 36.7395C64.3947 36.6099 64.3433 36.4402 64.3661 36.2306L64.5775 34.4693H65.1089L64.9146 36.0476C64.907 36.1658 64.9318 36.2649 64.9889 36.3449C65.0498 36.425 65.1508 36.4669 65.2917 36.4707C65.425 36.4707 65.5488 36.4326 65.6631 36.3564C65.7812 36.2763 65.8802 36.1696 65.9602 36.0361C66.0402 35.8989 66.0897 35.7445 66.1087 35.573L66.2458 34.4693H66.7772L66.4858 36.8367H66.0059L66.0344 36.2706L66.0573 36.3506C65.9963 36.4574 65.9126 36.5546 65.8059 36.6423C65.7031 36.73 65.585 36.7986 65.4517 36.8481C65.3222 36.9015 65.1832 36.9282 65.0346 36.9282Z" fill="#B6B2C5"/>
<path d="M68.1706 34.4693L68.1306 35.0469C68.2106 34.902 68.3097 34.78 68.4277 34.6809C68.5496 34.5818 68.6753 34.5074 68.8048 34.4579C68.9381 34.4045 69.06 34.3778 69.1705 34.3778L69.0848 34.9039C68.9058 34.8925 68.742 34.9268 68.5934 35.0068C68.4487 35.0869 68.3306 35.1936 68.2392 35.3271C68.1478 35.4605 68.0926 35.6035 68.0735 35.7559L67.9364 36.8367H67.4108L67.6964 34.4693H68.1706Z" fill="#B6B2C5"/>
<path d="M70.3013 36.8824C70.2251 36.8824 70.1299 36.871 70.0156 36.8481C69.9052 36.8291 69.7928 36.7909 69.6786 36.7338C69.5681 36.6728 69.4691 36.5851 69.3815 36.4707L69.6443 36.1791C69.7204 36.2706 69.7966 36.3411 69.8728 36.3907C69.9528 36.4364 70.029 36.4669 70.1013 36.4822C70.1737 36.4936 70.2404 36.4993 70.3013 36.4993C70.4384 36.4993 70.5375 36.465 70.5984 36.3964C70.6593 36.324 70.6898 36.2553 70.6898 36.1905C70.6898 36.1105 70.6651 36.0476 70.6155 36.0018C70.566 35.9523 70.5013 35.9122 70.4213 35.8817C70.3451 35.8474 70.2651 35.815 70.1813 35.7845C70.0099 35.7159 69.8785 35.6301 69.7871 35.5272C69.6995 35.4205 69.6557 35.2928 69.6557 35.1441C69.6557 35.0678 69.6709 34.9878 69.7014 34.9039C69.7319 34.8162 69.7795 34.7343 69.8442 34.658C69.909 34.5818 69.9947 34.5189 70.1013 34.4693C70.208 34.4198 70.3413 34.395 70.5013 34.395C70.5736 34.395 70.6574 34.4026 70.7527 34.4179C70.8517 34.4293 70.9526 34.4579 71.0555 34.5036C71.1621 34.5456 71.2592 34.6123 71.3468 34.7038L71.1012 35.0183C71.025 34.9268 70.9393 34.8639 70.8441 34.8296C70.7488 34.7915 70.6555 34.7724 70.5641 34.7724C70.4803 34.7724 70.4118 34.7876 70.3584 34.8181C70.3051 34.8448 70.2651 34.881 70.2385 34.9268C70.2156 34.9725 70.2042 35.0183 70.2042 35.064C70.2042 35.1365 70.2289 35.1955 70.2785 35.2413C70.328 35.287 70.3908 35.3252 70.467 35.3557C70.5432 35.3862 70.6193 35.4186 70.6955 35.4529C70.8022 35.4948 70.8974 35.5463 70.9812 35.6073C71.065 35.6644 71.1297 35.7369 71.1754 35.8246C71.2211 35.9084 71.2402 36.0152 71.2326 36.1448C71.225 36.2248 71.2021 36.3087 71.164 36.3964C71.1259 36.4841 71.0707 36.566 70.9983 36.6423C70.926 36.7147 70.8326 36.7738 70.7184 36.8195C70.6041 36.8615 70.4651 36.8824 70.3013 36.8824Z" fill="#B6B2C5"/>
<path d="M73.1363 36.4364C73.2315 36.4364 73.3229 36.4212 73.4105 36.3907C73.4981 36.3564 73.5819 36.3144 73.6619 36.2649L73.8561 36.6709C73.7419 36.7395 73.6162 36.7929 73.4791 36.831C73.3458 36.8691 73.2143 36.8882 73.0848 36.8882C72.8373 36.8882 72.6202 36.8424 72.4335 36.7509C72.2469 36.6556 72.1003 36.5184 71.9936 36.3392C71.8908 36.16 71.8393 35.9446 71.8393 35.693C71.8393 35.5367 71.8679 35.3823 71.925 35.2299C71.9822 35.0774 72.0679 34.9382 72.1821 34.8124C72.2964 34.6828 72.4373 34.5799 72.6049 34.5036C72.7763 34.4236 72.9744 34.3836 73.1991 34.3836C73.34 34.3836 73.4733 34.4026 73.599 34.4407C73.7285 34.475 73.8466 34.5341 73.9533 34.618C74.0599 34.7019 74.1494 34.8143 74.2218 34.9554C74.298 35.0964 74.3513 35.2699 74.3818 35.4757L72.3593 36.0476L72.2736 35.7216L73.999 35.2241L73.8104 35.3099C73.7723 35.1612 73.6962 35.0392 73.5819 34.9439C73.4714 34.8486 73.3381 34.801 73.182 34.801C73.0144 34.801 72.8696 34.841 72.7478 34.9211C72.6259 34.9973 72.5326 35.0983 72.4678 35.2241C72.4031 35.3499 72.3707 35.4853 72.3707 35.6301C72.3707 35.8131 72.4069 35.9637 72.4792 36.0819C72.5516 36.2001 72.6468 36.2896 72.7649 36.3506C72.883 36.4078 73.0068 36.4364 73.1363 36.4364Z" fill="#B6B2C5"/>
<path d="M75.4186 32.4107H75.9557L75.4129 36.8367H74.8816L75.4186 32.4107Z" fill="#B6B2C5"/>
<path d="M76.5206 36.8367L76.7492 34.9439H76.3435L76.4064 34.4693H76.8063L76.9263 33.4686C76.9682 33.1255 77.0786 32.8625 77.2577 32.6795C77.4367 32.4965 77.6766 32.405 77.9775 32.405C78.0575 32.405 78.1432 32.4165 78.2346 32.4393C78.3299 32.4622 78.4118 32.5003 78.4803 32.5537L78.2061 32.9368C78.1756 32.9025 78.1413 32.8796 78.1032 32.8682C78.0651 32.853 78.0232 32.8453 77.9775 32.8453C77.8404 32.8453 77.7262 32.893 77.6347 32.9883C77.5471 33.0836 77.49 33.2456 77.4633 33.4743L77.3376 34.4693H78.0918L78.029 34.9439H77.2805L77.052 36.8367H76.5206Z" fill="#B6B2C5"/>
</svg>
