<svg width="159" height="38" viewBox="0 0 159 38" fill="none" xmlns="http://www.w3.org/2000/svg">
<path d="M55.0691 1.87622H58.7552V18.3903H55.0691V11.8944H48.5024V18.3903H44.8164V1.87622H48.5024V8.7748H55.0691V1.87622Z" fill="#B6B2C5"/>
<path d="M72.7656 16.5498C71.4175 17.8635 69.6034 18.5892 67.7211 18.5676C65.9629 18.6269 64.2523 17.9909 62.9598 16.7976C61.6972 15.6176 61.0674 14.0231 61.0703 12.0141C61.0733 10.0052 61.7031 8.41366 62.9598 7.23956C64.1881 6.08025 65.8199 5.44531 67.5087 5.46956C69.1433 5.42654 70.7353 5.99453 71.9735 7.06257C72.5855 7.6038 73.068 8.27578 73.3851 9.02873C73.7022 9.78169 73.8459 10.5963 73.8055 11.4123V13.3018H64.5439C64.5978 13.6411 64.7205 13.9657 64.9047 14.2557C65.0889 14.5457 65.3306 14.7948 65.6148 14.9877C66.2186 15.427 66.9479 15.6598 67.6945 15.6515C68.2655 15.6686 68.8336 15.566 69.3625 15.3503C69.8914 15.1346 70.3693 14.8107 70.7655 14.3992L72.7656 16.5498ZM69.3628 9.02727C68.8651 8.61801 68.2369 8.40128 67.5928 8.41661C66.899 8.4147 66.2235 8.63833 65.6679 9.05382C65.3859 9.25279 65.1496 9.50967 64.9749 9.80728C64.8002 10.1049 64.6909 10.4364 64.6546 10.7796H70.2168C70.2001 10.4424 70.116 10.112 69.9693 9.80797C69.8226 9.50393 69.6163 9.23243 69.3628 9.00956V9.02727Z" fill="#B6B2C5"/>
<path d="M86.4462 18.3903H83.1142V16.8548C82.7261 17.3902 82.2165 17.8259 81.6272 18.1259C81.038 18.4259 80.3859 18.5817 79.7246 18.5806C78.4897 18.6202 77.2834 18.2044 76.3351 17.4124C75.8881 17.0325 75.5327 16.5567 75.2952 16.0204C75.0577 15.4841 74.9442 14.9011 74.9633 14.3149C74.9283 13.7474 75.0401 13.1805 75.2882 12.6689C75.5362 12.1573 75.9121 11.7183 76.3793 11.3944C77.3263 10.7483 78.6184 10.4253 80.2556 10.4253H82.9106V10.3545C82.9106 9.00045 82.1938 8.32343 80.7601 8.32343C80.0934 8.33367 79.4334 8.45788 78.8087 8.6907C78.1867 8.90283 77.6015 9.21036 77.0741 9.60225L75.4899 7.3101C77.1487 6.10142 79.1547 5.46328 81.207 5.49142C82.557 5.42673 83.8886 5.82481 84.9815 6.6198C85.955 7.39418 86.4462 8.61548 86.4462 10.2837V18.3903ZM82.8708 13.5494V12.9343H80.6583C79.2379 12.9343 78.5299 13.3768 78.5299 14.2618C78.5193 14.4653 78.5605 14.6682 78.6495 14.8516C78.7384 15.0349 78.8723 15.1928 79.0388 15.3105C79.4717 15.583 79.9797 15.7115 80.4902 15.6778C81.0972 15.6876 81.6882 15.4823 82.1584 15.0981C82.3907 14.9143 82.5764 14.6782 82.7002 14.4091C82.824 14.1399 82.8824 13.8454 82.8708 13.5494Z" fill="#B6B2C5"/>
<path d="M92.5185 18.3904H88.9785V0.867432H92.5185V18.3904Z" fill="#B6B2C5"/>
<path d="M99.3947 8.23052V13.9255C99.3692 14.3415 99.5038 14.7516 99.7709 15.0716C99.8806 15.1993 100.016 15.302 100.169 15.373C100.322 15.444 100.488 15.4815 100.656 15.4831C100.986 15.4816 101.311 15.4004 101.603 15.2463C101.895 15.0922 102.145 14.8698 102.333 14.5981L103.66 17.0761C102.736 18.0097 101.487 18.5516 100.174 18.5895C99.5846 18.6085 98.9983 18.5043 98.452 18.2835C97.9057 18.0627 97.4116 17.7303 97.0012 17.3074C96.5909 16.8846 96.2734 16.3807 96.0691 15.828C95.8648 15.2754 95.7783 14.6861 95.8149 14.0981V8.23052H94.3281V5.68172H95.8149V1.87622H99.3859V5.68172H102.457V8.23052H99.3947Z" fill="#B6B2C5"/>
<path d="M108.395 11.5405V18.3904H104.855V0.867432H108.395V7.10669C108.851 6.60182 109.407 6.19657 110.026 5.91636C110.646 5.63614 111.317 5.487 111.997 5.47828C112.627 5.4655 113.251 5.58493 113.831 5.82885C114.411 6.07276 114.934 6.43574 115.365 6.89428C115.831 7.40236 116.193 7.99801 116.427 8.64669C116.662 9.29538 116.766 9.98421 116.732 10.6732V18.3904H113.192V11.4432C113.192 9.49323 112.475 8.51678 111.042 8.51383C110.697 8.51099 110.355 8.57771 110.036 8.71C109.718 8.84229 109.429 9.03744 109.188 9.28378C108.907 9.58523 108.692 9.94124 108.556 10.3296C108.42 10.7179 108.365 11.1301 108.395 11.5405Z" fill="#B6B2C5"/>
<path d="M119.6 18.3903V1.87622H123.286V15.107H130.326V18.3903H119.6Z" fill="#B6B2C5"/>
<path d="M132.246 4.06228C131.896 3.72004 131.676 3.26686 131.624 2.78026C131.571 2.29367 131.689 1.80391 131.958 1.3948C132.226 0.985684 132.629 0.682645 133.096 0.537534C133.564 0.392423 134.067 0.414258 134.52 0.599308C134.973 0.784358 135.348 1.12112 135.58 1.55196C135.812 1.98281 135.888 2.48095 135.793 2.96116C135.698 3.44137 135.44 3.87379 135.062 4.18443C134.684 4.49507 134.209 4.66463 133.72 4.66408C133.446 4.66944 133.174 4.61881 132.921 4.51533C132.667 4.41184 132.438 4.25767 132.246 4.06228ZM135.494 18.3904H131.954V5.68183H135.494V18.3904Z" fill="#B6B2C5"/>
<path d="M142.365 4.94733V5.79693H145.463V8.35015H142.365V18.3905H138.799V8.35015H137.299V5.79693H138.786V5.01813C138.749 4.42346 138.838 3.82777 139.046 3.26959C139.255 2.7114 139.578 2.20316 139.995 1.77773C140.412 1.3523 140.914 1.01916 141.468 0.79986C142.022 0.580558 142.615 0.479973 143.211 0.504621C144.491 0.516161 145.716 1.02562 146.627 1.92505L145.348 4.31012C145.144 4.04407 144.883 3.82667 144.585 3.67363C144.286 3.52058 143.957 3.4357 143.622 3.42512C143.455 3.42163 143.289 3.45466 143.137 3.52193C142.984 3.58919 142.847 3.68906 142.737 3.81453C142.476 4.13221 142.343 4.53649 142.365 4.94733Z" fill="#B6B2C5"/>
<path d="M157.936 16.5494C156.59 17.868 154.776 18.5985 152.892 18.5805C151.126 18.6457 149.406 18.0093 148.108 16.8105C146.849 15.6305 146.219 14.036 146.219 12.0271C146.219 10.0181 146.86 8.42657 148.144 7.25247C149.372 6.09275 151.004 5.45775 152.693 5.48247C154.321 5.43994 155.907 6.00281 157.144 7.0622C157.755 7.60159 158.237 8.27122 158.555 9.02174C158.873 9.77226 159.018 10.5845 158.98 11.3987V13.2882H149.714C149.769 13.6307 149.893 13.9584 150.079 14.2508C150.266 14.5431 150.511 14.7939 150.799 14.9874C151.403 15.4261 152.132 15.6588 152.878 15.6511C153.449 15.669 154.018 15.5668 154.547 15.3511C155.076 15.1354 155.554 14.811 155.949 14.3989L157.936 16.5494ZM154.533 9.0269C154.035 8.61799 153.407 8.40131 152.763 8.41625C152.069 8.41369 151.394 8.63739 150.838 9.05345C150.557 9.25301 150.32 9.50996 150.145 9.80739C149.969 10.1048 149.859 10.436 149.821 10.7792H155.396C155.38 10.4431 155.298 10.1136 155.154 9.8097C155.009 9.50581 154.806 9.2337 154.555 9.0092L154.533 9.0269Z" fill="#B6B2C5"/>
<path d="M50.0247 34.7163C49.9456 35.0488 49.7946 35.36 49.5822 35.6278C49.3608 35.885 49.0775 36.0814 48.7591 36.1987C48.3622 36.3418 47.9419 36.4093 47.5201 36.3978C47.2219 36.3984 46.9247 36.3628 46.6351 36.2916C46.3606 36.2262 46.0989 36.1155 45.8607 35.9641C45.6315 35.8176 45.4356 35.6246 45.2855 35.3977C45.1288 35.1522 45.0389 34.87 45.0244 34.5791H45.7634C45.7909 34.7726 45.8628 34.9571 45.9733 35.1183C46.0838 35.2794 46.23 35.4129 46.4006 35.5084C46.5653 35.6048 46.7446 35.6736 46.9316 35.7119C47.1261 35.7565 47.325 35.7788 47.5245 35.7783C47.7994 35.8029 48.0761 35.7628 48.3327 35.6614C48.5894 35.56 48.8187 35.4 49.0025 35.1942C49.3336 34.7005 49.4894 34.1099 49.445 33.5171V32.6985C49.2809 33.0574 49.0205 33.3638 48.6927 33.5835C48.3504 33.8133 47.9456 33.9323 47.5334 33.9242C47.1093 33.9359 46.6879 33.8543 46.2988 33.6853C45.9687 33.5358 45.6789 33.3098 45.4536 33.0259C45.2257 32.7337 45.06 32.3979 44.9669 32.0392C44.866 31.6459 44.8155 31.2415 44.8164 30.8356C44.8149 30.4376 44.8761 30.0418 44.9979 29.6629C45.1098 29.3101 45.2869 28.9814 45.52 28.6939C45.7531 28.4166 46.0448 28.1944 46.374 28.0434C46.7379 27.8785 47.134 27.7969 47.5334 27.8044C47.7478 27.8027 47.9613 27.834 48.1662 27.8974C48.3594 27.9572 48.5428 28.0452 48.7104 28.1584C48.874 28.2687 49.0227 28.3996 49.1529 28.5478C49.2748 28.6884 49.3747 28.8465 49.4494 29.0169V27.977H50.1884V33.5038C50.1884 33.9135 50.1334 34.3213 50.0247 34.7163ZM48.3432 33.1144C48.5803 32.9802 48.7868 32.7978 48.9494 32.579C49.1145 32.3466 49.2387 32.0877 49.3167 31.8135C49.3966 31.5253 49.4368 31.2275 49.4361 30.9285C49.4351 30.6306 49.4009 30.3338 49.3344 30.0435C49.2668 29.7578 49.1516 29.4856 48.9936 29.2381C48.8403 29 48.6344 28.8002 48.3918 28.654C48.1225 28.501 47.8165 28.4245 47.5068 28.4328C47.198 28.4266 46.8929 28.5013 46.6218 28.6496C46.3766 28.7911 46.1652 28.9844 46.0023 29.216C45.8379 29.4583 45.718 29.7281 45.6483 30.0125C45.574 30.3121 45.5369 30.6198 45.5377 30.9285C45.5378 31.2272 45.5765 31.5247 45.6528 31.8135C45.7255 32.0888 45.8485 32.3484 46.0156 32.579C46.1798 32.8012 46.3915 32.9841 46.6351 33.1144C46.9079 33.2566 47.2126 33.3266 47.5201 33.318C47.8085 33.3177 48.092 33.243 48.3432 33.1012V33.1144Z" fill="#B6B2C5"/>
<path d="M52.2454 27.9771V29.4064H52.2675C52.4342 28.9441 52.7443 28.5472 53.1525 28.2736C53.5682 28.0036 54.061 27.8777 54.5552 27.9152V28.6497C54.2468 28.6283 53.9374 28.6735 53.6481 28.7825C53.3851 28.8816 53.1444 29.032 52.9401 29.225C52.7476 29.4246 52.5971 29.6608 52.4976 29.9197C52.3873 30.2016 52.3317 30.502 52.3339 30.8047V34.0128H51.5684V27.9948L52.2454 27.9771Z" fill="#B6B2C5"/>
<path d="M55.5728 32.0038C55.6466 32.2796 55.7712 32.5392 55.9401 32.7694C56.103 32.997 56.3127 33.1871 56.5552 33.3269C56.8246 33.4797 57.1305 33.5562 57.4402 33.5482C57.8982 33.5752 58.3493 33.4264 58.7013 33.1322C59.0143 32.8274 59.2325 32.4386 59.3297 32.0127H60.0642C59.9516 32.6178 59.6512 33.1721 59.2057 33.5968C58.7061 33.9973 58.0747 34.1963 57.4358 34.1544C57.0124 34.1642 56.5921 34.0796 56.2056 33.9066C55.872 33.7485 55.582 33.5116 55.3604 33.2163C55.1361 32.9126 54.9724 32.5686 54.8781 32.203C54.7704 31.8064 54.7169 31.397 54.7188 30.9861C54.7184 30.5913 54.772 30.1982 54.8781 29.8179C54.9753 29.452 55.1388 29.1071 55.3604 28.8001C55.5842 28.4957 55.8768 28.2485 56.2144 28.0789C56.5953 27.8864 57.0181 27.7921 57.4446 27.8045C57.8511 27.7877 58.2552 27.8757 58.6178 28.0602C58.9805 28.2446 59.2896 28.5192 59.5155 28.8577C59.7287 29.1886 59.8787 29.5562 59.958 29.9418C60.0517 30.3493 60.0903 30.7675 60.073 31.1852H55.4622C55.4656 31.4616 55.5028 31.7365 55.5728 32.0038ZM59.2102 29.7604C59.125 29.5132 58.9978 29.2827 58.8341 29.0789C58.6703 28.8798 58.4669 28.7171 58.2367 28.601C57.991 28.4779 57.7194 28.4156 57.4446 28.4196C57.1656 28.4157 56.8896 28.4779 56.6393 28.601C56.4111 28.7183 56.2094 28.8809 56.0463 29.0789C55.879 29.2857 55.7474 29.519 55.6569 29.7692C55.5594 30.0257 55.494 30.2932 55.4622 30.5657H59.3562C59.3483 30.2914 59.2991 30.0199 59.2102 29.7604Z" fill="#B6B2C5"/>
<path d="M61.6231 32.0036C61.6942 32.2788 61.8157 32.5384 61.9815 32.7692C62.1403 32.994 62.3437 33.1837 62.5789 33.3267C62.8485 33.4791 63.1543 33.5556 63.4639 33.548C63.9219 33.575 64.373 33.4262 64.725 33.132C65.0405 32.8291 65.2592 32.4396 65.3534 32.0125H66.1189C66.0063 32.6176 65.7059 33.1719 65.2604 33.5966C64.7608 33.9971 64.1294 34.196 63.4904 34.1542C63.0671 34.164 62.6468 34.0794 62.2603 33.9064C61.9267 33.7483 61.6366 33.5114 61.4151 33.2161C61.1926 32.9113 61.029 32.5676 60.9328 32.2028C60.8251 31.8062 60.7715 31.3968 60.7735 30.9859C60.773 30.591 60.8266 30.198 60.9328 29.8177C61.0317 29.4524 61.195 29.1078 61.4151 28.7999C61.6376 28.496 61.9287 28.2489 62.2647 28.0787C62.6455 27.8862 63.0684 27.7919 63.4949 27.8043C63.9243 27.7923 64.3495 27.8914 64.7294 28.0919C65.0644 28.278 65.3509 28.5402 65.5658 28.8575C65.779 29.1884 65.929 29.556 66.0083 29.9416C66.1019 30.3491 66.1406 30.7673 66.1233 31.185H61.5125C61.5159 31.4614 61.553 31.7363 61.6231 32.0036ZM65.2604 29.7602C65.1771 29.5122 65.0497 29.2814 64.8843 29.0787C64.7206 28.8796 64.5171 28.7168 64.2869 28.6008C64.0415 28.4772 63.7697 28.4149 63.4949 28.4194C63.2159 28.4155 62.9399 28.4777 62.6895 28.6008C62.4614 28.7181 62.2596 28.8807 62.0966 29.0787C61.9292 29.2855 61.7976 29.5188 61.7072 29.769C61.6097 30.0255 61.5443 30.293 61.5125 30.5655H65.4065C65.4007 30.291 65.3514 30.0192 65.2604 29.7602Z" fill="#B6B2C5"/>
<path d="M67.8532 27.977V29.0168H67.8886C68.0304 28.647 68.2921 28.3353 68.632 28.1318C68.9854 27.9128 69.3933 27.7978 69.809 27.8C70.1682 27.7901 70.5263 27.8441 70.8666 27.9593C71.1262 28.0495 71.36 28.2013 71.548 28.4018C71.7266 28.6103 71.8512 28.8595 71.9109 29.1275C71.9813 29.4456 72.0155 29.7707 72.0127 30.0965V33.9684H71.2693V30.2116C71.2708 29.971 71.2486 29.7309 71.2029 29.4947C71.1616 29.2877 71.0771 29.0917 70.9551 28.9195C70.8348 28.7527 70.6731 28.62 70.486 28.5345C70.2514 28.4343 69.9978 28.386 69.7426 28.3929C69.4716 28.3878 69.2027 28.4422 68.955 28.5522C68.7332 28.6579 68.5357 28.8086 68.3753 28.9947C68.2117 29.1887 68.0843 29.4105 67.9992 29.6496C67.9084 29.9148 67.8591 30.1924 67.8532 30.4727V33.9817H67.123V27.9637L67.8532 27.977Z" fill="#B6B2C5"/>
<path d="M81.5709 34.7162C81.4901 35.0482 81.3392 35.359 81.1284 35.6278C80.9053 35.8831 80.6226 36.0792 80.3053 36.1986C79.9068 36.3417 79.4851 36.4092 79.0619 36.3977C78.7637 36.3981 78.4665 36.3625 78.1769 36.2915C77.9026 36.2254 77.641 36.1148 77.4025 35.9641C77.1737 35.8185 76.979 35.6253 76.8317 35.3977C76.675 35.1521 76.5851 34.87 76.5706 34.5791H77.3052C77.3329 34.7719 77.4043 34.9559 77.5139 35.1169C77.6236 35.278 77.7686 35.4119 77.9379 35.5083C78.1026 35.6048 78.282 35.6735 78.4689 35.7119C78.6635 35.7562 78.8624 35.7785 79.0619 35.7782C79.3374 35.8035 79.6151 35.7639 79.8725 35.6624C80.1299 35.561 80.36 35.4006 80.5443 35.1941C80.8753 34.7004 81.0312 34.1099 80.9868 33.5171V32.6984H80.9602C80.7978 33.057 80.5389 33.3634 80.2124 33.5834C79.8687 33.8139 79.4623 33.9329 79.0486 33.9242C78.6246 33.9354 78.2032 33.8538 77.814 33.6852C77.4846 33.5346 77.1951 33.3088 76.9689 33.0259C76.7423 32.7334 76.5781 32.3976 76.4865 32.0391C76.3835 31.6463 76.3329 31.2416 76.3361 30.8355C76.333 30.4378 76.3927 30.042 76.5131 29.6629C76.6265 29.3098 76.8051 28.9811 77.0397 28.6938C77.2721 28.4177 77.5621 28.1957 77.8893 28.0433C78.2533 27.8789 78.6492 27.7973 79.0486 27.8044C79.2645 27.8029 79.4793 27.8343 79.6858 27.8973C79.878 27.9563 80.0601 28.0443 80.2257 28.1584C80.3892 28.2687 80.538 28.3995 80.6682 28.5478C80.7915 28.6872 80.8916 28.8456 80.9646 29.0168H80.9912V27.977H81.7257V33.5038C81.7287 33.913 81.6766 34.3208 81.5709 34.7162ZM79.8849 33.1144C80.123 32.9813 80.3297 32.7987 80.4912 32.579C80.6597 32.3486 80.7842 32.089 80.8584 31.8134C80.942 31.5259 80.9837 31.2278 80.9823 30.9284C80.982 30.6303 80.9463 30.3332 80.8761 30.0434C80.8101 29.758 80.6964 29.4857 80.5398 29.2381C80.3841 29.0019 80.1788 28.8025 79.938 28.654C79.6684 28.5018 79.3626 28.4253 79.053 28.4327C78.7442 28.4265 78.4391 28.5013 78.168 28.6496C77.9219 28.7899 77.7103 28.9834 77.5485 29.216C77.3805 29.4563 77.2603 29.7267 77.1945 30.0125C77.1202 30.3121 77.083 30.6197 77.0839 30.9284C77.0818 31.2273 77.1205 31.525 77.199 31.8134C77.2695 32.0896 77.3927 32.3495 77.5618 32.579C77.7254 32.8001 77.9353 32.9828 78.1769 33.1144C78.4497 33.2565 78.7544 33.3266 79.0619 33.3179C79.3504 33.318 79.6339 33.2433 79.8849 33.1011V33.1144Z" fill="#B6B2C5"/>
<path d="M83.6559 32.0038C83.727 32.279 83.8485 32.5386 84.0143 32.7694C84.1783 32.996 84.3878 33.1859 84.6294 33.3269C84.899 33.4793 85.2048 33.5558 85.5144 33.5482C85.9724 33.5752 86.4235 33.4264 86.7755 33.1322C87.091 32.8293 87.3097 32.4398 87.4039 32.0127H88.1384C88.0258 32.6178 87.7254 33.1721 87.28 33.5968C86.7804 33.9973 86.1489 34.1963 85.51 34.1544C85.0866 34.1642 84.6664 34.0796 84.2798 33.9066C83.9463 33.7485 83.6562 33.5116 83.4346 33.2163C83.2121 32.9115 83.0485 32.5679 82.9523 32.203C82.8447 31.8064 82.7911 31.397 82.793 30.9861C82.7926 30.5913 82.8462 30.1982 82.9523 29.8179C83.0512 29.4526 83.2145 29.108 83.4346 28.8001C83.6559 28.4968 83.9454 28.2497 84.2798 28.0789C84.6606 27.8864 85.0835 27.7921 85.51 27.8045C85.9165 27.7877 86.3205 27.8757 86.6832 28.0602C87.0459 28.2446 87.355 28.5192 87.5809 28.8577C87.7941 29.1886 87.9441 29.5562 88.0234 29.9418C88.117 30.3493 88.1557 30.7675 88.1384 31.1852H83.5453C83.5487 31.4616 83.5858 31.7365 83.6559 32.0038ZM87.2932 29.7604C87.2099 29.5124 87.0825 29.2816 86.9171 29.0789C86.7534 28.8798 86.5499 28.7171 86.3197 28.601C86.0743 28.4774 85.8025 28.4151 85.5277 28.4196C85.2487 28.4157 84.9727 28.4779 84.7223 28.601C84.4942 28.7183 84.2924 28.8809 84.1294 29.0789C83.962 29.2857 83.8304 29.519 83.74 29.7692C83.6425 30.0257 83.5771 30.2932 83.5453 30.5657H87.4393C87.4314 30.2914 87.3822 30.0199 87.2932 29.7604Z" fill="#B6B2C5"/>
<path d="M89.8849 27.977V29.0168H89.9115C90.0505 28.6453 90.313 28.3329 90.6549 28.1318C91.0083 27.9128 91.4162 27.7978 91.8319 27.8C92.1911 27.7901 92.5492 27.8441 92.8895 27.9593C93.1491 28.0495 93.3829 28.2013 93.571 28.4018C93.7479 28.6114 93.8723 28.8602 93.9338 29.1275C94.0042 29.4456 94.0384 29.7707 94.0356 30.0965V33.9684H93.301V30.2116C93.3034 29.9708 93.2796 29.7304 93.2302 29.4947C93.1904 29.288 93.1075 29.092 92.9869 28.9195C92.8659 28.7515 92.7025 28.6186 92.5134 28.5345C92.2806 28.4333 92.0282 28.3849 91.7744 28.3929C91.5034 28.3878 91.2345 28.4422 90.9868 28.5522C90.7649 28.6579 90.5675 28.8086 90.4071 28.9947C90.2434 29.1887 90.116 29.4105 90.031 29.6496C89.9401 29.9148 89.8909 30.1924 89.8849 30.4727V33.9817H89.1504V27.9637L89.8849 27.977Z" fill="#B6B2C5"/>
<path d="M95.9645 32.0038C96.0356 32.279 96.1571 32.5386 96.3229 32.7694C96.4858 32.997 96.6955 33.1871 96.938 33.3269C97.2074 33.4797 97.5134 33.5562 97.823 33.5482C98.281 33.5752 98.7321 33.4264 99.0841 33.1322C99.3971 32.8274 99.6153 32.4386 99.7125 32.0127H100.447C100.334 32.6178 100.034 33.1721 99.5886 33.5968C99.089 33.9973 98.4575 34.1963 97.8186 34.1544C97.3952 34.1642 96.975 34.0796 96.5884 33.9066C96.2548 33.7485 95.9648 33.5116 95.7432 33.2163C95.5189 32.9126 95.3552 32.5686 95.2609 32.203C95.1532 31.8064 95.0997 31.397 95.1016 30.9861C95.1012 30.5913 95.1548 30.1982 95.2609 29.8179C95.3581 29.452 95.5216 29.1071 95.7432 28.8001C95.9695 28.4946 96.2653 28.2474 96.6061 28.0789C96.9869 27.8864 97.4098 27.7921 97.8363 27.8045C98.2428 27.7877 98.6468 27.8757 99.0095 28.0602C99.3722 28.2446 99.6813 28.5192 99.9072 28.8577C100.12 29.1886 100.27 29.5562 100.35 29.9418C100.443 30.3493 100.482 30.7675 100.465 31.1852H95.8539C95.8573 31.4616 95.8944 31.7365 95.9645 32.0038ZM99.6018 29.7604C99.5167 29.5132 99.3895 29.2827 99.2257 29.0789C99.062 28.8798 98.8585 28.7171 98.6283 28.601C98.3827 28.4779 98.111 28.4156 97.8363 28.4196C97.5573 28.4157 97.2813 28.4779 97.0309 28.601C96.8028 28.7183 96.601 28.8809 96.438 29.0789C96.2706 29.2857 96.139 29.519 96.0486 29.7692C95.9511 30.0257 95.8857 30.2932 95.8539 30.5657H99.7479C99.74 30.2914 99.6908 30.0199 99.6018 29.7604Z" fill="#B6B2C5"/>
<path d="M102.152 27.977V29.4063C102.311 28.94 102.621 28.5401 103.033 28.2699C103.445 27.9998 103.935 27.8749 104.426 27.9151V28.6496C104.116 28.6282 103.805 28.6735 103.515 28.7824C103.253 28.8826 103.014 29.0329 102.811 29.2249C102.617 29.4234 102.466 29.6599 102.368 29.9196C102.256 30.2009 102.2 30.5017 102.205 30.8046V34.0127H101.475V27.9947L102.152 27.977Z" fill="#B6B2C5"/>
<path d="M105.297 28.9106C105.412 28.6624 105.587 28.4465 105.806 28.2823C106.029 28.1136 106.283 27.9904 106.554 27.9194C106.866 27.8382 107.187 27.7995 107.51 27.8044C107.777 27.803 108.044 27.8282 108.306 27.8796C108.559 27.9257 108.799 28.022 109.014 28.1628C109.232 28.312 109.409 28.5146 109.527 28.7513C109.672 29.0595 109.74 29.3979 109.726 29.7381V32.9462C109.726 33.2427 109.868 33.3887 110.169 33.3887C110.25 33.3892 110.33 33.3727 110.403 33.34V33.9595L110.178 33.9949C110.094 34.0003 110.01 34.0003 109.926 33.9949C109.774 34.0007 109.623 33.9735 109.483 33.9153C109.375 33.8726 109.283 33.7986 109.218 33.7029C109.153 33.6028 109.112 33.4893 109.098 33.371C109.075 33.2247 109.065 33.0766 109.067 32.9285H109.041C108.917 33.1109 108.783 33.2853 108.638 33.4507C108.509 33.5964 108.36 33.7231 108.195 33.8268C108.018 33.9339 107.826 34.013 107.625 34.0613C107.375 34.1183 107.119 34.145 106.863 34.141C106.598 34.1438 106.333 34.111 106.076 34.0436C105.843 33.9825 105.625 33.8757 105.434 33.7294C105.247 33.5826 105.095 33.395 104.992 33.1807C104.884 32.9325 104.831 32.6638 104.837 32.3931C104.816 32.0435 104.914 31.6971 105.116 31.4107C105.31 31.1675 105.565 30.9797 105.855 30.8665C106.189 30.7354 106.538 30.6477 106.894 30.6054C107.279 30.5523 107.669 30.5036 108.067 30.4594C108.222 30.4594 108.355 30.424 108.474 30.4018C108.579 30.3805 108.678 30.3384 108.766 30.2779C108.846 30.2151 108.909 30.1329 108.948 30.039C108.992 29.9126 109.013 29.7791 109.01 29.6451C109.018 29.4332 108.976 29.2223 108.886 29.0301C108.809 28.8768 108.693 28.7469 108.549 28.654C108.397 28.5572 108.227 28.491 108.049 28.4593C107.846 28.4227 107.64 28.4049 107.434 28.4062C107.028 28.3888 106.627 28.5054 106.293 28.738C106.137 28.8671 106.014 29.0308 105.934 29.216C105.853 29.4012 105.817 29.6027 105.828 29.8044H105.058C105.079 29.4939 105.161 29.1904 105.297 28.9106ZM108.97 30.7072C108.907 30.8014 108.81 30.8679 108.7 30.893C108.586 30.9288 108.469 30.9555 108.35 30.9726C108.041 31.0257 107.717 31.0789 107.39 31.1187C107.09 31.1569 106.794 31.2221 106.505 31.3134C106.257 31.3852 106.027 31.5106 105.832 31.6807C105.743 31.7691 105.673 31.8757 105.628 31.9932C105.583 32.1107 105.564 32.2365 105.571 32.3621C105.568 32.5338 105.606 32.7039 105.682 32.8577C105.757 33.0026 105.861 33.1311 105.986 33.2359C106.111 33.3407 106.256 33.4197 106.412 33.4683C106.573 33.5217 106.742 33.5486 106.912 33.548C107.186 33.5504 107.458 33.507 107.717 33.4197C107.963 33.3416 108.19 33.2152 108.386 33.048C108.571 32.8816 108.721 32.68 108.828 32.455C108.942 32.2068 109 31.9362 108.996 31.663V30.7072H108.97Z" fill="#B6B2C5"/>
<path d="M113.585 27.9771V28.5966H112.359V32.6543C112.351 32.8469 112.386 33.039 112.461 33.2163C112.528 33.3535 112.691 33.4287 112.957 33.4464C113.167 33.4457 113.376 33.4338 113.585 33.411V34.0261C113.475 34.0261 113.368 34.0261 113.258 34.0261C113.147 34.0261 113.041 34.0261 112.93 34.0261C112.748 34.0691 112.558 34.0645 112.378 34.0126C112.198 33.9608 112.035 33.8634 111.904 33.73C111.773 33.5965 111.678 33.4315 111.629 33.2508C111.58 33.0702 111.579 32.88 111.625 32.6986V28.5833H110.576V27.9638H111.625V26.1584H112.359V27.9638L113.585 27.9771Z" fill="#B6B2C5"/>
<path d="M115.391 25.6716V26.8487H114.656V25.6716H115.391ZM115.391 27.9771V33.9951H114.656V27.9771H115.391Z" fill="#B6B2C5"/>
<path d="M120.546 28.0788C120.887 28.2411 121.189 28.475 121.431 28.7647C121.679 29.0615 121.865 29.4044 121.98 29.7736C122.228 30.575 122.228 31.4325 121.98 32.2339C121.865 32.6031 121.679 32.946 121.431 33.2428C121.189 33.5311 120.887 33.7636 120.546 33.9242C120.16 34.0877 119.746 34.1719 119.327 34.1719C118.908 34.1719 118.493 34.0877 118.108 33.9242C117.766 33.7647 117.464 33.532 117.223 33.2428C116.975 32.946 116.789 32.6031 116.674 32.2339C116.426 31.4325 116.426 30.575 116.674 29.7736C116.789 29.4044 116.975 29.0615 117.223 28.7647C117.464 28.474 117.766 28.2399 118.108 28.0788C118.492 27.9095 118.907 27.822 119.327 27.822C119.747 27.822 120.162 27.9095 120.546 28.0788ZM118.404 28.6585C118.146 28.8054 117.922 29.0043 117.745 29.2426C117.567 29.4921 117.434 29.7706 117.351 30.0656C117.174 30.6785 117.174 31.329 117.351 31.9418C117.435 32.2364 117.568 32.5146 117.745 32.7649C117.921 33.0029 118.146 33.2006 118.404 33.3445C118.689 33.4899 119.005 33.5656 119.325 33.5656C119.645 33.5656 119.96 33.4899 120.245 33.3445C120.505 33.203 120.731 33.0049 120.904 32.7649C121.084 32.5156 121.219 32.2371 121.303 31.9418C121.48 31.329 121.48 30.6785 121.303 30.0656C121.22 29.7698 121.085 29.4911 120.904 29.2426C120.73 29.0023 120.505 28.803 120.245 28.6585C119.96 28.5132 119.645 28.4374 119.325 28.4374C119.005 28.4374 118.689 28.5132 118.404 28.6585Z" fill="#B6B2C5"/>
<path d="M124.006 27.977V29.0168H124.028C124.171 28.6463 124.434 28.3346 124.776 28.1318C125.129 27.9128 125.537 27.7978 125.953 27.8C126.311 27.7901 126.667 27.8441 127.006 27.9593C127.267 28.0472 127.501 28.1994 127.688 28.4018C127.866 28.6103 127.991 28.8595 128.05 29.1275C128.125 29.4451 128.16 29.7704 128.157 30.0965V33.9684H127.422V30.2116C127.424 29.9708 127.401 29.7304 127.351 29.4947C127.311 29.288 127.229 29.092 127.108 28.9195C126.986 28.7525 126.823 28.6199 126.634 28.5345C126.401 28.4349 126.149 28.3866 125.896 28.3929C125.624 28.3878 125.356 28.4422 125.108 28.5522C124.884 28.6562 124.685 28.8071 124.524 28.9947C124.36 29.1878 124.234 29.41 124.152 29.6496C124.061 29.9148 124.012 30.1924 124.006 30.4727V33.9817H123.271V27.9637L124.006 27.977Z" fill="#B6B2C5"/>
<path d="M33.2924 9.0822C32.8178 8.33923 32.1541 7.73593 31.3694 7.33425L20.0159 0.775275C19.1313 0.267302 18.1291 0 17.109 0C16.0889 0 15.0866 0.267302 14.202 0.775275L2.83915 7.33425C1.9427 7.84988 0.74113 8.80783 0.646518 10.0118C0.421814 12.8785 4.11168 14.6667 6.57632 15.9841C10.8339 18.2454 13.5729 19.5557 15.6472 21.6798C16.1061 22.1528 16.8299 22.9783 17.1043 23.6288C17.3763 22.9783 18.1024 22.1505 18.5636 21.6798C20.638 19.551 23.3841 18.2454 27.6322 15.9841C30.0614 14.6927 33.6306 13.0512 33.5644 10.0189C33.5441 9.69036 33.4512 9.37044 33.2924 9.0822ZM17.1019 17.032C16.3898 17.0315 15.6938 16.8198 15.102 16.4238C14.5102 16.0277 14.0492 15.465 13.7772 14.8069C13.5052 14.1488 13.4345 13.4248 13.5741 12.7265C13.7136 12.0282 14.0572 11.3869 14.5612 10.8839C15.0652 10.3809 15.7071 10.0386 16.4057 9.90043C17.1043 9.76225 17.8281 9.83435 18.4857 10.1076C19.1433 10.3809 19.7051 10.843 20.1 11.4356C20.4949 12.0282 20.7052 12.7246 20.7042 13.4367C20.703 14.3911 20.3228 15.3059 19.6473 15.9801C18.9718 16.6542 18.0563 17.0326 17.1019 17.032Z" fill="#B6B2C5"/>
<path d="M27.648 17.8765C22.5957 20.5588 19.0525 21.81 17.6759 26.155C17.4297 26.849 17.2368 27.5606 17.0987 28.2838C16.9615 27.5607 16.7693 26.849 16.524 26.155C15.1474 21.8195 11.6018 20.5682 6.55187 17.8765C1.31274 15.1044 0.19632 13.7207 0 13.1223V25.488C0.00177056 26.5073 0.271492 27.5083 0.782119 28.3904C1.29275 29.2726 2.02633 30.0051 2.90932 30.5143L14.2627 37.0638C14.6353 37.2902 15.032 37.4742 15.4454 37.6125C15.3082 37.1253 15.145 36.6097 14.9487 36.0609C11.4007 26.1267 5.1327 23.6857 5.1327 23.6857C5.1327 23.6857 8.0562 23.9222 12.2286 28.2318C14.2533 30.3227 15.8404 32.8228 17.1082 35.427C17.1082 35.427 19.8945 30.3889 21.9925 28.22C26.1673 23.908 29.0884 23.6738 29.0884 23.6738C29.0884 23.6738 22.8157 26.1172 19.2724 36.0491C19.0785 36.6002 18.9153 37.1135 18.7781 37.6031C19.1907 37.4628 19.5872 37.2788 19.9607 37.0543L31.2929 30.5143C32.1741 30.003 32.9058 29.2696 33.4151 28.3873C33.9243 27.5049 34.1933 26.5044 34.1951 25.4857V13.1128C34.0035 13.6994 32.8871 15.0949 27.648 17.8765Z" fill="#B6B2C5"/>
</svg>
