<svg width="186" height="39" viewBox="0 0 186 39" fill="none" xmlns="http://www.w3.org/2000/svg">
<path d="M50.6328 37.9747V28.8608H52.345V32.7191H56.7247V28.8608H58.4414V37.9747H56.7247V34.1031H52.345V37.9747H50.6328Z" fill="#3C19E8"/>
<path d="M62.9028 37.9747V28.8608H69.05V30.2448H64.615V32.7191H68.7316V34.1031H64.615V36.5907H69.0869V37.9747H62.9028Z" fill="#3C19E8"/>
<path d="M74.6097 37.9747H72.7822L76.1096 28.8608H78.2233L81.5553 37.9747H79.7278L77.2034 30.7299H77.1295L74.6097 37.9747ZM74.6697 34.4013H79.654V35.7274H74.6697V34.4013Z" fill="#3C19E8"/>
<path d="M85.3994 37.9747V28.8608H87.1116V36.5907H91.2744V37.9747H85.3994Z" fill="#3C19E8"/>
<path d="M93.7386 30.2448V28.8608H101.28V30.2448H98.3582V37.9747H96.6599V30.2448H93.7386Z" fill="#3C19E8"/>
<path d="M105.332 37.9747V28.8608H107.045V32.7191H111.424V28.8608H113.141V37.9747H111.424V34.1031H107.045V37.9747H105.332Z" fill="#3C19E8"/>
<path d="M123.425 37.9747V28.8608H125.137V36.5907H129.3V37.9747H123.425Z" fill="#3C19E8"/>
<path d="M135.098 28.8608V37.9747H133.385V28.8608H135.098Z" fill="#3C19E8"/>
<path d="M139.551 37.9747V28.8608H145.606V30.2448H141.263V32.7191H145.19V34.1031H141.263V37.9747H139.551Z" fill="#3C19E8"/>
<path d="M149.765 37.9747V28.8608H155.912V30.2448H151.477V32.7191H155.594V34.1031H151.477V36.5907H155.949V37.9747H149.765Z" fill="#3C19E8"/>
<path d="M51.1387 2.21406H54.1303L58.1368 12.2135H58.295L62.3014 2.21406H65.2931V16.0139H62.9472V6.53325H62.822L59.0923 15.9735H57.3395L53.6098 6.51303H53.4846V16.0139H51.1387V2.21406Z" fill="#3C19E8"/>
<path d="M67.9553 16.0139V2.21406H76.7327V4.30964H70.4001V8.05608H76.278V10.1517H70.4001V13.9183H76.7854V16.0139H67.9553Z" fill="#3C19E8"/>
<path d="M83.8 16.0139H79.2268V2.21406H83.8923C85.2321 2.21406 86.3831 2.49033 87.3452 3.04286C88.3117 3.5909 89.0541 4.37927 89.5725 5.40797C90.0909 6.43667 90.3501 7.66751 90.3501 9.1005C90.3501 10.538 90.0887 11.7733 89.5659 12.8065C89.0475 13.8397 88.2985 14.6326 87.3188 15.1851C86.3436 15.7376 85.1706 16.0139 83.8 16.0139ZM81.6716 13.8509H83.6814C84.6215 13.8509 85.4057 13.6757 86.0339 13.3254C86.6621 12.9705 87.1343 12.4426 87.4506 11.7419C87.7669 11.0366 87.9251 10.1562 87.9251 9.1005C87.9251 8.04485 87.7669 7.16888 87.4506 6.4726C87.1343 5.77183 86.6665 5.2485 86.0471 4.9026C85.432 4.55222 84.6676 4.37702 83.7539 4.37702H81.6716V13.8509Z" fill="#3C19E8"/>
<path d="M95.1176 2.21406V16.0139H92.6729V2.21406H95.1176Z" fill="#3C19E8"/>
<path d="M109.317 6.87016H106.852C106.782 6.45688 106.652 6.09077 106.463 5.77183C106.274 5.4484 106.039 5.17438 105.758 4.94977C105.477 4.72516 105.156 4.55671 104.796 4.4444C104.44 4.32761 104.056 4.26921 103.643 4.26921C102.909 4.26921 102.259 4.45788 101.692 4.83522C101.126 5.20807 100.682 5.75611 100.361 6.47934C100.041 7.19808 99.8803 8.07629 99.8803 9.11398C99.8803 10.1696 100.041 11.0591 100.361 11.7823C100.686 12.501 101.13 13.0446 101.692 13.4129C102.259 13.7768 102.907 13.9587 103.636 13.9587C104.04 13.9587 104.418 13.9048 104.77 13.797C105.126 13.6847 105.444 13.5208 105.725 13.3051C106.011 13.0895 106.25 12.8245 106.443 12.51C106.641 12.1956 106.777 11.8362 106.852 11.4319L109.317 11.4454C109.224 12.1012 109.024 12.7167 108.717 13.2917C108.414 13.8667 108.016 14.3743 107.524 14.8145C107.032 15.2502 106.457 15.5916 105.798 15.8387C105.139 16.0813 104.407 16.2026 103.603 16.2026C102.417 16.2026 101.359 15.9218 100.427 15.3603C99.4959 14.7988 98.7622 13.9879 98.2263 12.9278C97.6903 11.8677 97.4223 10.5964 97.4223 9.11398C97.4223 7.62708 97.6925 6.35581 98.2329 5.30016C98.7732 4.24001 99.509 3.42918 100.44 2.86767C101.372 2.30615 102.426 2.02539 103.603 2.02539C104.355 2.02539 105.053 2.1332 105.699 2.34882C106.345 2.56445 106.92 2.88114 107.425 3.29891C107.931 3.71219 108.346 4.2198 108.671 4.82174C109 5.4192 109.216 6.102 109.317 6.87016Z" fill="#3C19E8"/>
<path d="M113.125 16.0139H110.516L115.267 2.21406H118.285L123.043 16.0139H120.433L116.829 5.0441H116.723L113.125 16.0139ZM113.211 10.6031H120.328V12.6111H113.211V10.6031Z" fill="#3C19E8"/>
<path d="M124.82 16.0139V2.21406H127.265V13.9183H133.209V16.0139H124.82Z" fill="#3C19E8"/>
<path d="M139.933 16.0139V2.21406H142.378V13.9183H148.322V16.0139H139.933Z" fill="#3C19E8"/>
<path d="M161.977 9.11398C161.977 10.6009 161.705 11.8744 161.16 12.9345C160.62 13.9902 159.882 14.7988 158.946 15.3603C158.015 15.9218 156.958 16.2026 155.776 16.2026C154.595 16.2026 153.536 15.9218 152.6 15.3603C151.669 14.7943 150.931 13.9834 150.386 12.9278C149.846 11.8677 149.576 10.5964 149.576 9.11398C149.576 7.62708 149.846 6.35581 150.386 5.30016C150.931 4.24001 151.669 3.42918 152.6 2.86767C153.536 2.30615 154.595 2.02539 155.776 2.02539C156.958 2.02539 158.015 2.30615 158.946 2.86767C159.882 3.42918 160.62 4.24001 161.16 5.30016C161.705 6.35581 161.977 7.62708 161.977 9.11398ZM159.519 9.11398C159.519 8.06731 159.359 7.18461 159.038 6.46586C158.722 5.74263 158.283 5.19684 157.72 4.82848C157.158 4.45564 156.51 4.26921 155.776 4.26921C155.043 4.26921 154.395 4.45564 153.833 4.82848C153.27 5.19684 152.829 5.74263 152.508 6.46586C152.192 7.18461 152.034 8.06731 152.034 9.11398C152.034 10.1606 152.192 11.0456 152.508 11.7688C152.829 12.4876 153.27 13.0334 153.833 13.4062C154.395 13.7746 155.043 13.9587 155.776 13.9587C156.51 13.9587 157.158 13.7746 157.72 13.4062C158.283 13.0334 158.722 12.4876 159.038 11.7688C159.359 11.0456 159.519 10.1606 159.519 9.11398Z" fill="#3C19E8"/>
<path d="M165.369 2.21406L168.882 13.076H169.02L172.526 2.21406H175.214L170.456 16.0139H167.438L162.687 2.21406H165.369Z" fill="#3C19E8"/>
<path d="M176.992 16.0139V2.21406H185.769V4.30964H179.436V8.05608H185.314V10.1517H179.436V13.9183H185.822V16.0139H176.992Z" fill="#3C19E8"/>
<path fill-rule="evenodd" clip-rule="evenodd" d="M20.425 8.5251C20.0863 8.75194 19.6858 8.87328 19.2757 8.87328C18.8656 8.87328 18.4651 8.75194 18.1264 8.5251C16.5785 7.49414 14.7099 7.03071 12.8484 7.2161C10.9869 7.40148 9.25141 8.22384 7.94623 9.53894C1.07743 16.4615 10.6458 23.0758 17.1177 29.4244C19.9951 32.247 22.2006 28.6722 30.4461 20.5837C37.3665 13.795 28.3335 3.22677 20.425 8.5251ZM6.78248 13.0124C7.16942 11.6752 7.95454 10.4819 9.03725 9.58526C10.12 8.68863 11.4509 8.12954 12.8596 7.97965C12.8596 12.0715 13.1697 13.0124 6.77422 13.0124H6.78248ZM25.7166 7.98371C27.1231 8.13495 28.4515 8.69421 29.5322 9.58998C30.6129 10.4857 31.3967 11.6773 31.7834 13.0124C27.1636 13.0124 25.7084 13.5254 25.7084 7.98371H25.7166Z" fill="#3C19E8"/>
<path fill-rule="evenodd" clip-rule="evenodd" d="M35.3521 12.9051C35.1785 12.9051 33.6688 5.0345 25.6057 5.07122C25.6057 3.87574 26.0919 0.111826 22.5864 0.111826C17.9144 0.111826 12.9074 -0.893925 12.9074 3.12704C12.9074 5.29155 12.938 5.06918 12.8359 5.06918C10.5736 5.05986 8.37857 5.83656 6.62685 7.26617C4.87514 8.69578 3.67585 10.6893 3.23451 12.9051C1.34896 12.9051 0.110996 14.3331 0.110996 15.9203C0.110996 20.6124 -0.892042 25.6004 3.13237 25.6004C10.9646 25.6004 8.81761 24.7599 12.9013 28.838C12.9013 33.4159 11.9084 38.3691 15.9226 38.3691C20.5946 38.3691 25.5935 39.3749 25.5935 35.3519C25.5935 27.5078 24.76 29.6397 28.813 25.6004C33.3277 25.6004 38.3613 26.6061 38.3613 22.5831C38.3735 17.8849 39.3765 12.9051 35.3521 12.9051ZM31.9651 21.3795C16.8031 36.5208 21.4056 36.2312 6.53166 21.3795C-1.34555 13.511 8.93814 1.27262 17.9389 7.40505C18.3248 7.66712 18.7807 7.80725 19.2474 7.80725C19.714 7.80725 20.1699 7.66712 20.5558 7.40505C29.575 1.26242 39.828 13.5252 31.9651 21.3795Z" fill="#3C19E8"/>
</svg>
