<svg width="152" height="38" viewBox="0 0 152 38" fill="none" xmlns="http://www.w3.org/2000/svg">
<path d="M91.7663 11.1386C91.4626 10.6972 91.0502 10.3385 90.5674 10.0957C90.0846 9.85293 89.5471 9.73404 89.0049 9.75007C88.4492 9.72176 87.8949 9.8276 87.3905 10.0583C86.886 10.2891 86.4468 10.6377 86.1113 11.0736C85.4361 11.9533 85.0985 13.1713 85.0985 14.7276V23.7977H80.5059V1.01294H82.796C83.4024 1.01614 83.983 1.25414 84.4117 1.67527C84.8405 2.09639 85.0828 2.66664 85.0861 3.26218V8.49147C85.4527 7.86364 85.9468 7.31655 86.5377 6.88421C87.1287 6.45188 87.8039 6.14353 88.5213 5.97833C89.929 5.62098 91.4161 5.71341 92.7667 6.24223C94.0361 6.78019 95.1312 7.64935 95.9332 8.75537C96.7902 9.9057 97.2174 11.4945 97.2147 13.5218V23.7814H92.7005V14.6464C92.7047 14.0362 92.6479 13.4269 92.5311 12.8275C92.3965 12.2191 92.1362 11.6443 91.7663 11.1386Z" fill="#B6B2C5"/>
<path d="M111.396 18.429H114.707C114.322 20.169 113.335 21.708 111.928 22.7625C110.55 23.7901 108.822 24.3039 106.745 24.3039C104.232 24.3039 102.268 23.473 100.855 21.811C99.4412 20.1851 98.7344 17.8598 98.7344 14.8351C98.7344 11.9489 99.4114 9.69141 100.765 8.06272C102.179 6.40079 104.144 5.56982 106.66 5.56982C109.308 5.56982 111.361 6.38278 112.818 8.00871C114.231 9.67064 114.937 11.996 114.934 14.9847V15.7284C114.945 15.8892 114.923 16.0505 114.869 16.202H103.434C103.479 17.6022 103.808 18.6409 104.43 19.3181C105.051 19.9954 105.863 20.4026 107.009 20.4026C107.679 20.4233 108.343 20.2597 108.93 19.9289C109.07 19.8804 109.195 19.7977 109.296 19.6879L109.658 19.3181C109.781 19.0909 109.96 18.9004 110.177 18.7656C110.537 18.52 110.965 18.4018 111.396 18.429ZM103.434 13.1441H110.177C110.088 11.9281 109.779 11.0251 109.251 10.4351C108.933 10.1105 108.552 9.8583 108.132 9.69505C107.712 9.53179 107.263 9.46117 106.814 9.48782C106.374 9.47081 105.936 9.54608 105.526 9.70901C105.116 9.87193 104.743 10.119 104.43 10.4351C103.769 11.1733 103.413 12.1437 103.434 13.1441Z" fill="#B6B2C5"/>
<path d="M127.831 23.2196C126.897 23.7139 125.876 24.0238 124.825 24.1324C123.895 24.2376 122.96 24.2944 122.025 24.3025C120.502 24.3332 119.01 23.8704 117.771 22.9831C116.557 22.1036 115.949 20.65 115.949 18.6226C115.949 16.7278 116.501 15.3753 117.606 14.5648C118.862 13.6918 120.31 13.1353 121.826 12.9426C122.105 12.936 122.382 12.9013 122.654 12.8389C122.969 12.7725 123.329 12.7144 123.731 12.6687C125.716 12.3921 126.708 11.8071 126.705 10.9137C126.718 10.6043 126.619 10.3004 126.427 10.0581C126.234 9.81567 125.961 9.65101 125.657 9.59434C125.033 9.40178 124.384 9.29843 123.731 9.28732C123.158 9.27792 122.587 9.37063 122.046 9.56115C121.805 9.64524 121.585 9.77871 121.398 9.95304C121.212 10.1274 121.065 10.3387 120.965 10.5735H116.421C116.576 9.22097 117.254 7.98317 118.31 7.1257C119.528 6.08845 121.261 5.56982 123.512 5.56982C126.03 5.56982 127.92 5.99856 129.181 6.85601C129.805 7.26481 130.312 7.82791 130.655 8.49081C130.997 9.15371 131.163 9.89396 131.136 10.6399V16.8177C131.136 18.6184 130.81 20.0263 130.159 21.0414C129.594 21.9652 128.79 22.718 127.831 23.2196ZM126.75 14.9009C125.911 15.289 125.032 15.584 124.129 15.7805L122.576 16.1207C121.927 16.2614 121.324 16.5639 120.824 17.0003C120.524 17.4381 120.358 17.9545 120.348 18.4856C120.333 18.7834 120.38 19.0809 120.484 19.3599C120.589 19.6389 120.75 19.8935 120.956 20.1079C121.453 20.5024 122.08 20.6963 122.712 20.6514C123.257 20.7011 123.805 20.6303 124.319 20.444C124.833 20.2576 125.3 19.9603 125.686 19.5731C126.073 19.186 126.37 18.7183 126.556 18.2035C126.742 17.6886 126.812 17.139 126.763 16.5937L126.75 14.9009Z" fill="#B6B2C5"/>
<path d="M132.155 23.7854V15.2026C132.111 13.7105 132.376 12.2252 132.933 10.8376C133.394 9.73536 134.124 8.76248 135.057 8.00528C135.949 7.32264 136.971 6.82496 138.063 6.54212C139.216 6.23065 140.406 6.07393 141.602 6.0762H142.277V10.8049H140.725C139.422 10.8049 138.456 11.1155 137.827 11.7368C137.193 12.3621 136.879 13.3348 136.879 14.6672V23.7976L132.155 23.7854Z" fill="#B6B2C5"/>
<path d="M151.39 23.7476C149.854 23.8325 148.314 23.8095 146.781 23.6787C145.129 23.5489 144.303 22.4679 144.303 20.4355V1.01294H146.623C146.901 1.0144 147.176 1.07373 147.43 1.18732C147.685 1.30091 147.915 1.46639 148.105 1.67374C148.312 1.87919 148.476 2.12571 148.587 2.39824C148.698 2.67077 148.753 2.9636 148.75 3.25884V6.22229H151.39V7.1466C151.4 7.4481 151.347 7.74826 151.236 8.02762C151.125 8.30697 150.958 8.55928 150.746 8.76818C150.541 8.97142 150.299 9.13119 150.034 9.23832C149.769 9.34545 149.485 9.39785 149.2 9.3925H148.734V19.195C148.734 19.945 149.161 20.3179 150.023 20.3179H151.374L151.39 23.7476Z" fill="#B6B2C5"/>
<path d="M84.0493 28.8608V36.9621H83.543V28.8608H84.0493Z" fill="#B6B2C5"/>
<path d="M89.0353 31.1265C89.373 31.2837 89.6731 31.509 89.9158 31.7878C90.1541 32.074 90.3343 32.4023 90.4467 32.7549C90.5715 33.1355 90.6341 33.5331 90.6321 33.9328C90.6335 34.3326 90.5709 34.73 90.4467 35.1107C90.3358 35.4628 90.1554 35.79 89.9158 36.0737C89.6745 36.3509 89.3739 36.5724 89.0353 36.7226C88.66 36.8807 88.2558 36.9622 87.8473 36.9622C87.4388 36.9622 87.0346 36.8807 86.6592 36.7226C86.3233 36.5702 86.0256 36.3473 85.7871 36.0696C85.5418 35.7831 85.357 35.4515 85.2437 35.0942C85.0021 34.3268 85.0021 33.5058 85.2437 32.7384C85.3643 32.39 85.5516 32.0674 85.7956 31.7878C86.1966 31.3582 86.7253 31.0631 87.3067 30.9445C87.8881 30.8258 88.4928 30.8895 89.0353 31.1265ZM86.9288 31.6845C86.6735 31.82 86.4531 32.0108 86.2843 32.2424C86.1095 32.4801 85.9784 32.7458 85.8967 33.0277C85.7226 33.6148 85.7226 34.2384 85.8967 34.8256C85.9775 35.1077 86.1088 35.3736 86.2843 35.6108C86.4531 35.8425 86.6735 36.0333 86.9288 36.1688C87.206 36.3101 87.5138 36.3838 87.8262 36.3838C88.1386 36.3838 88.4464 36.3101 88.7236 36.1688C88.9773 36.0311 89.1973 35.8407 89.3682 35.6108C89.5422 35.3733 89.672 35.1075 89.7515 34.8256C89.9313 34.2393 89.9313 33.614 89.7515 33.0277C89.6713 32.7461 89.5416 32.4803 89.3682 32.2424C89.1973 32.0126 88.9773 31.8221 88.7236 31.6845C88.4456 31.5458 88.1381 31.4736 87.8262 31.4736C87.5143 31.4736 87.2069 31.5458 86.9288 31.6845Z" fill="#B6B2C5"/>
<path d="M91.4064 30.8862L93.187 36.2207H93.2115L94.9798 30.8862H95.6961L93.5635 36.9622H92.8309L90.6328 30.8862H91.4064Z" fill="#B6B2C5"/>
<path d="M96.9991 34.9078C97.0648 35.1703 97.1777 35.4182 97.332 35.639C97.4881 35.8548 97.6857 36.0361 97.9127 36.1719C98.1693 36.3216 98.4616 36.3959 98.7573 36.3867C99.1902 36.4105 99.6152 36.2624 99.9429 35.9736C100.241 35.6849 100.447 35.3124 100.536 34.9037H101.226C101.121 35.4841 100.836 36.0152 100.414 36.4198C99.9468 36.8056 99.3536 36.9975 98.7532 36.9568C98.3559 36.9673 97.9615 36.8853 97.6 36.7172C97.28 36.5701 97.001 36.3444 96.7879 36.0604C96.5846 35.7703 96.4372 35.4437 96.3535 35.0978C96.2511 34.7184 96.2005 34.3263 96.2032 33.9329C96.2022 33.5558 96.2527 33.1804 96.3535 32.8175C96.444 32.4652 96.5982 32.1332 96.8082 31.8384C97.0208 31.5457 97.2993 31.3091 97.6203 31.1485C97.9779 30.9668 98.3739 30.8775 98.7735 30.8883C99.1561 30.8718 99.5364 30.9559 99.8778 31.1325C100.219 31.309 100.51 31.5721 100.723 31.8962C100.928 32.2116 101.074 32.5632 101.153 32.9331C101.242 33.3229 101.279 33.7231 101.263 34.1229H96.8935C96.896 34.388 96.9315 34.6517 96.9991 34.9078ZM100.418 32.7596C100.339 32.5226 100.219 32.3017 100.065 32.1069C99.9114 31.9171 99.7205 31.7622 99.5044 31.6525C99.2729 31.5338 99.0165 31.4742 98.7573 31.479C98.4954 31.474 98.2363 31.5336 98.002 31.6525C97.7859 31.7622 97.595 31.9171 97.4417 32.1069C97.2845 32.305 97.161 32.5284 97.0762 32.7679C96.9859 33.013 96.9246 33.2682 96.8935 33.528H100.548C100.544 33.2666 100.5 33.0075 100.418 32.7596Z" fill="#B6B2C5"/>
<path d="M106.329 28.8608V30.008H105.316V28.8608H106.329ZM106.329 31.1088V36.9621H105.316V31.1088H106.329Z" fill="#B6B2C5"/>
<path d="M108.027 31.0438V32.0584H108.051C108.186 31.7038 108.43 31.4064 108.744 31.2129C109.073 30.9953 109.455 30.8822 109.844 30.8874C110.179 30.8775 110.513 30.9305 110.831 31.0438C111.074 31.1345 111.292 31.2895 111.462 31.4939C111.632 31.6982 111.749 31.945 111.802 32.2106C111.869 32.5211 111.902 32.839 111.898 33.1575V36.9622H111.214V33.2886C111.216 33.0529 111.194 32.8177 111.149 32.5868C111.11 32.3835 111.032 32.1908 110.919 32.0203C110.807 31.8571 110.655 31.7274 110.48 31.6441C110.263 31.5465 110.028 31.5003 109.791 31.5088C109.538 31.5036 109.287 31.5555 109.054 31.661C108.846 31.7599 108.661 31.904 108.51 32.0838C108.357 32.2718 108.24 32.4883 108.164 32.7221C108.081 32.9699 108.035 33.2292 108.027 33.4915V36.9241H107.342V31.0438H108.027Z" fill="#B6B2C5"/>
<path d="M117.112 31.0447V32.0409H117.149C117.324 31.7 117.58 31.4085 117.894 31.1931C118.248 30.9775 118.656 30.8714 119.069 30.8879C119.439 30.8827 119.803 30.981 120.121 31.1719C120.434 31.3595 120.661 31.6642 120.752 32.0197C120.909 31.6596 121.18 31.3617 121.522 31.1719C121.857 30.9842 122.233 30.8864 122.616 30.8879C123.908 30.8879 124.556 31.5746 124.556 32.9565V36.9622H123.841V32.9904C123.869 32.5943 123.76 32.2006 123.534 31.8756C123.394 31.7344 123.225 31.6267 123.038 31.5607C122.852 31.4946 122.653 31.4718 122.456 31.4941C122.187 31.4842 121.92 31.5456 121.682 31.6721C121.482 31.7856 121.313 31.9491 121.194 32.1468C121.068 32.3553 120.981 32.5851 120.937 32.8251C120.89 33.088 120.866 33.3547 120.866 33.622V36.9622H120.15V32.9565C120.151 32.7667 120.13 32.5775 120.087 32.3927C120.051 32.2234 119.981 32.0632 119.881 31.9222C119.785 31.7852 119.654 31.6769 119.502 31.6085C119.319 31.5275 119.121 31.4884 118.921 31.4941C118.65 31.4874 118.38 31.544 118.134 31.6594C117.916 31.7625 117.728 31.9201 117.587 32.1172C117.442 32.3246 117.336 32.5575 117.276 32.8039C117.204 33.0806 117.169 33.3656 117.171 33.6516V36.9452H116.455V31.0447H117.112Z" fill="#B6B2C5"/>
<path d="M129.183 31.1302C129.488 31.287 129.759 31.5107 129.979 31.7869C130.197 32.0726 130.363 32.4007 130.466 32.7534C130.577 33.1344 130.633 33.5314 130.632 33.9306C130.632 34.3297 130.577 34.7266 130.466 35.1078C130.364 35.4598 130.198 35.7868 129.979 36.0702C129.761 36.3477 129.49 36.5704 129.183 36.7228C128.841 36.8807 128.472 36.9622 128.1 36.9622C127.728 36.9622 127.359 36.8807 127.017 36.7228C126.71 36.5704 126.439 36.3477 126.221 36.0702C126.003 35.7857 125.838 35.4591 125.734 35.1078C125.623 34.7266 125.568 34.3297 125.568 33.9306C125.567 33.5314 125.623 33.1344 125.734 32.7534C125.838 32.4013 126.004 32.0734 126.221 31.7869C126.588 31.3565 127.072 31.0613 127.604 30.9434C128.135 30.8255 128.688 30.8909 129.183 31.1302ZM127.282 31.6878C127.05 31.8242 126.849 32.0148 126.694 32.2454C126.536 32.4839 126.417 32.7492 126.341 33.0302C126.182 33.6169 126.182 34.2402 126.341 34.8269C126.416 35.1083 126.535 35.3737 126.694 35.6117C126.849 35.8423 127.05 36.0328 127.282 36.1693C127.534 36.3105 127.815 36.3842 128.1 36.3842C128.385 36.3842 128.665 36.3105 128.918 36.1693C129.15 36.0317 129.35 35.8414 129.506 35.6117C129.665 35.3737 129.784 35.1083 129.859 34.8269C130.018 34.2402 130.018 33.6169 129.859 33.0302C129.783 32.7492 129.664 32.4839 129.506 32.2454C129.35 32.0157 129.15 31.8254 128.918 31.6878C128.665 31.5492 128.384 31.477 128.1 31.477C127.816 31.477 127.535 31.5492 127.282 31.6878Z" fill="#B6B2C5"/>
<path d="M134.177 31.1194V31.7146H132.938V35.6102C132.928 35.7969 132.962 35.9832 133.038 36.1555C133.104 36.2845 133.27 36.3594 133.538 36.3719C133.751 36.3733 133.965 36.3621 134.177 36.3386V36.9338H133.844H133.516C133.33 36.9758 133.136 36.971 132.953 36.92C132.769 36.8689 132.603 36.7734 132.471 36.6427C132.338 36.512 132.244 36.3508 132.197 36.1749C132.15 35.9989 132.152 35.8144 132.202 35.6394V31.673H131.139V31.0778H132.202V29.3672H132.947V31.1069L134.177 31.1194Z" fill="#B6B2C5"/>
<path d="M135.696 28.8608V30.008H135.189V28.8608H135.696ZM135.696 31.1088V36.9621H135.189V31.1088H135.696Z" fill="#B6B2C5"/>
<path d="M140.685 31.1302C141.021 31.287 141.319 31.5107 141.56 31.7869C141.799 32.0729 141.98 32.401 142.093 32.7534C142.218 33.1338 142.281 33.5311 142.279 33.9306C142.28 34.3301 142.217 34.7273 142.093 35.1078C141.981 35.4596 141.8 35.7866 141.56 36.0702C141.321 36.3477 141.022 36.5704 140.685 36.7228C140.309 36.8807 139.903 36.9622 139.494 36.9622C139.084 36.9622 138.679 36.8807 138.302 36.7228C137.965 36.5704 137.667 36.3477 137.427 36.0702C137.186 35.7868 137.003 35.4598 136.891 35.1078C136.648 34.3409 136.648 33.5204 136.891 32.7534C137.005 32.4007 137.187 32.0726 137.427 31.7869C137.831 31.3565 138.363 31.0613 138.948 30.9434C139.533 30.8255 140.141 30.8909 140.685 31.1302ZM138.594 31.6878C138.338 31.8232 138.116 32.0139 137.947 32.2454C137.772 32.4829 137.64 32.7485 137.558 33.0302C137.384 33.6169 137.384 34.2402 137.558 34.8269C137.639 35.1089 137.771 35.3746 137.947 35.6117C138.116 35.8432 138.338 36.0339 138.594 36.1693C138.872 36.3105 139.18 36.3842 139.494 36.3842C139.807 36.3842 140.116 36.3105 140.394 36.1693C140.648 36.0317 140.869 35.8414 141.04 35.6117C141.215 35.3743 141.345 35.1086 141.425 34.8269C141.605 34.241 141.605 33.6161 141.425 33.0302C141.344 32.7487 141.214 32.4831 141.04 32.2454C140.869 32.0157 140.648 31.8254 140.394 31.6878C140.115 31.5492 139.807 31.477 139.494 31.477C139.181 31.477 138.873 31.5492 138.594 31.6878Z" fill="#B6B2C5"/>
<path d="M143.996 31.0439V32.0584C144.133 31.7036 144.378 31.4063 144.693 31.2129C145.022 30.9953 145.404 30.8823 145.793 30.8874C146.127 30.8774 146.46 30.9303 146.776 31.0439C147.02 31.1385 147.238 31.2937 147.413 31.4962C147.578 31.7026 147.694 31.9476 147.751 32.2106C147.819 32.5212 147.851 32.839 147.848 33.1575V36.9622H147.163V33.2886C147.163 33.053 147.141 32.818 147.098 32.5868C147.059 32.3836 146.981 32.1908 146.869 32.0204C146.756 31.8571 146.605 31.7275 146.43 31.6441C146.211 31.546 145.974 31.4998 145.737 31.5089C145.485 31.5041 145.235 31.556 145.003 31.6611C144.796 31.76 144.61 31.9041 144.459 32.0838C144.305 32.2708 144.188 32.4877 144.113 32.7221C144.025 32.9815 143.979 33.2543 143.976 33.5295V36.9622H143.291V31.0439H143.996Z" fill="#B6B2C5"/>
<path d="M66.3271 26.8355C66.5275 26.8351 66.7236 26.8942 66.8904 27.0053C67.0573 27.1164 67.1874 27.2745 67.2643 27.4597C67.3411 27.6448 67.3614 27.8486 67.3224 28.0452C67.2833 28.2418 67.1869 28.4224 67.0451 28.5642C66.9034 28.7059 66.7228 28.8024 66.5261 28.8414C66.3295 28.8804 66.1257 28.8602 65.9406 28.7833C65.7555 28.7064 65.5974 28.5763 65.4862 28.4095C65.3751 28.2426 65.316 28.0466 65.3164 27.8461C65.3164 27.5781 65.4229 27.321 65.6124 27.1315C65.802 26.9419 66.059 26.8355 66.3271 26.8355Z" fill="#B6B2C5"/>
<path d="M59.747 22.2783C59.9473 22.2783 60.1431 22.3377 60.3096 22.449C60.4762 22.5603 60.606 22.7184 60.6826 22.9034C60.7592 23.0885 60.7793 23.2921 60.7402 23.4885C60.7012 23.685 60.6047 23.8654 60.4631 24.007C60.3215 24.1487 60.141 24.2451 59.9446 24.2842C59.7482 24.3232 59.5445 24.3032 59.3595 24.2265C59.1745 24.1499 59.0163 24.0201 58.905 23.8536C58.7938 23.687 58.7344 23.4913 58.7344 23.291C58.7344 23.0224 58.8411 22.7648 59.031 22.5749C59.2209 22.385 59.4785 22.2783 59.747 22.2783Z" fill="#B6B2C5"/>
<path d="M54.9357 31.3923C55.1861 31.3923 55.4308 31.4517 55.639 31.563C55.8472 31.6743 56.0094 31.8324 56.1052 32.0175C56.201 32.2025 56.2261 32.4061 56.1772 32.6025C56.1284 32.799 56.0078 32.9794 55.8308 33.121C55.6538 33.2627 55.4282 33.3591 55.1827 33.3982C54.9371 33.4373 54.6826 33.4172 54.4513 33.3406C54.22 33.2639 54.0223 33.1341 53.8832 32.9676C53.7442 32.8011 53.6699 32.6053 53.6699 32.405C53.6699 32.1364 53.8033 31.8788 54.0407 31.6889C54.2781 31.499 54.6 31.3923 54.9357 31.3923Z" fill="#B6B2C5"/>
<path d="M69.6218 17.7214C69.8721 17.7219 70.1165 17.7966 70.3244 17.936C70.5322 18.0754 70.6941 18.2732 70.7895 18.5046C70.8849 18.7359 70.9096 18.9903 70.8605 19.2357C70.8114 19.4811 70.6907 19.7064 70.5135 19.8832C70.3364 20.06 70.1109 20.1803 69.8654 20.2289C69.6199 20.2776 69.3655 20.2524 69.1344 20.1565C68.9032 20.0606 68.7057 19.8984 68.5667 19.6902C68.4277 19.4821 68.3535 19.2375 68.3535 18.9873C68.3535 18.8208 68.3863 18.656 68.4501 18.5023C68.5139 18.3485 68.6073 18.2089 68.7251 18.0913C68.8429 17.9737 68.9828 17.8806 69.1366 17.8171C69.2905 17.7536 69.4554 17.7211 69.6218 17.7214Z" fill="#B6B2C5"/>
<path d="M57.4689 4.55688C57.7193 4.55688 57.964 4.61628 58.1722 4.72755C58.3804 4.83882 58.5426 4.99698 58.6384 5.18201C58.7342 5.36705 58.7593 5.57066 58.7104 5.7671C58.6616 5.96354 58.541 6.14397 58.364 6.28559C58.187 6.42722 57.9614 6.52366 57.7159 6.56274C57.4703 6.60181 57.2158 6.58176 56.9845 6.50511C56.7532 6.42847 56.5555 6.29867 56.4165 6.13214C56.2774 5.96561 56.2031 5.76982 56.2031 5.56954C56.2038 5.30113 56.3374 5.04386 56.5746 4.85406C56.8118 4.66427 57.1334 4.55741 57.4689 4.55688Z" fill="#B6B2C5"/>
<path d="M51.6455 9.11401C51.8458 9.11401 52.0415 9.17341 52.2081 9.28468C52.3746 9.39595 52.5044 9.5541 52.581 9.73914C52.6577 9.92418 52.6777 10.1278 52.6387 10.3242C52.5996 10.5207 52.5031 10.7011 52.3615 10.8427C52.2199 10.9843 52.0395 11.0808 51.843 11.1199C51.6466 11.1589 51.443 11.1389 51.2579 11.0622C51.0729 10.9856 50.9147 10.8558 50.8035 10.6893C50.6922 10.5227 50.6328 10.327 50.6328 10.1267C50.6328 9.8581 50.7395 9.60052 50.9294 9.41061C51.1193 9.2207 51.3769 9.11401 51.6455 9.11401Z" fill="#B6B2C5"/>
<path d="M65.5562 13.1646C65.8071 13.1622 66.053 13.2343 66.2628 13.3719C66.4726 13.5095 66.6367 13.7063 66.7344 13.9374C66.8321 14.1685 66.859 14.4234 66.8115 14.6697C66.7641 14.9161 66.6445 15.1428 66.468 15.321C66.2915 15.4993 66.066 15.6211 65.8201 15.6709C65.5742 15.7208 65.3191 15.6965 65.087 15.601C64.855 15.5056 64.6566 15.3434 64.5169 15.1349C64.3773 14.9265 64.3027 14.6813 64.3027 14.4304C64.3027 14.0968 64.4344 13.7767 64.6691 13.5397C64.9038 13.3027 65.2226 13.1679 65.5562 13.1646Z" fill="#B6B2C5"/>
<path d="M63.7998 35.4429C64 35.4434 64.1956 35.518 64.3618 35.6574C64.5281 35.7968 64.6576 35.9947 64.7339 36.226C64.8103 36.4573 64.8301 36.7118 64.7908 36.9572C64.7515 37.2025 64.6549 37.4279 64.5132 37.6046C64.3715 37.7814 64.191 37.9017 63.9946 37.9504C63.7983 37.999 63.5948 37.9738 63.4098 37.8779C63.2249 37.782 63.0669 37.6198 62.9557 37.4117C62.8445 37.2036 62.7852 36.9589 62.7852 36.7087C62.7852 36.5423 62.8114 36.3775 62.8624 36.2237C62.9134 36.07 62.9882 35.9303 63.0825 35.8127C63.1767 35.6952 63.2886 35.602 63.4117 35.5385C63.5347 35.475 63.6666 35.4425 63.7998 35.4429Z" fill="#B6B2C5"/>
<path d="M66.1841 17.8668H39.807C39.519 17.8541 39.2471 17.7304 39.0478 17.5217C38.8485 17.3129 38.7373 17.0352 38.7373 16.7463C38.7373 16.4573 38.8485 16.1796 39.0478 15.9708C39.2471 15.7621 39.519 15.6385 39.807 15.6257L62.1747 15.6323C62.4698 15.6323 62.7528 15.5148 62.9614 15.3057C63.17 15.0965 63.2872 14.8129 63.2872 14.5172C63.2872 14.2214 63.17 13.9378 62.9614 13.7287C62.7528 13.5196 62.4698 13.4021 62.1747 13.4021L43.4891 13.4174C43.2091 13.4166 42.9397 13.3105 42.734 13.1201C42.5284 12.9296 42.4017 12.6687 42.3789 12.389C42.3561 12.1093 42.439 11.8312 42.6111 11.6099C42.7832 11.3885 43.0319 11.24 43.308 11.1938V11.1675H48.4757C48.7625 11.1548 49.0334 11.0316 49.2319 10.8237C49.4303 10.6158 49.5411 10.3391 49.5411 10.0513C49.5411 9.76356 49.4303 9.48689 49.2319 9.27896C49.0334 9.07103 48.7625 8.94787 48.4757 8.93514H45.4589V8.91984C45.1627 8.91578 44.8802 8.79394 44.6736 8.58113C44.467 8.36832 44.3532 8.08197 44.3573 7.78507C44.3613 7.48816 44.4829 7.20504 44.6952 6.99797C44.9075 6.7909 45.1932 6.67685 45.4894 6.6809L53.8419 6.6984C54.1283 6.6878 54.3996 6.56681 54.5993 6.36063C54.7989 6.15446 54.9114 5.87901 54.9134 5.59172C54.9153 5.30443 54.8066 5.02746 54.6098 4.81856C54.413 4.60965 54.1434 4.48493 53.8572 4.4704L38.8755 4.49445C38.5876 4.48169 38.3156 4.35806 38.1163 4.14931C37.9171 3.94056 37.8059 3.6628 37.8059 3.37389C37.8059 3.08498 37.9171 2.80721 38.1163 2.59846C38.3156 2.38971 38.5876 2.26608 38.8755 2.25333L42.3046 2.23584C42.455 2.24251 42.6052 2.21858 42.7461 2.1655C42.887 2.11242 43.0157 2.03127 43.1245 1.92697C43.2333 1.82266 43.3198 1.69736 43.379 1.55861C43.4381 1.41986 43.4686 1.27053 43.4686 1.11965C43.4686 0.968768 43.4381 0.819448 43.379 0.680697C43.3198 0.541946 43.2333 0.416639 43.1245 0.312334C43.0157 0.20803 42.887 0.126888 42.7461 0.0738037C42.6052 0.0207194 42.455 -0.00320785 42.3046 0.00346521C31.8798 0.00346521 32.6368 0.00346521 32.4077 0.0187704C30.8871 -0.0016411 29.3776 0.281505 27.9671 0.85171C26.5568 1.42191 25.2737 2.26777 24.1927 3.34C23.7368 3.79041 22.8293 4.66936 22.2447 5.28594C22.1851 5.34831 22.1134 5.39794 22.0342 5.43184C21.9549 5.46575 21.8696 5.48322 21.7834 5.48322C21.6972 5.48322 21.6119 5.46575 21.5326 5.43184C21.4533 5.39794 21.3817 5.34831 21.322 5.28594C20.6676 4.61908 19.8801 3.81227 19.4046 3.33344C17.2712 1.19744 14.3787 -0.00163848 11.3633 1.68041e-06C8.34795 0.00164184 5.45672 1.20386 3.32569 3.34219C1.19465 5.48051 -0.00163467 8.37978 1.67651e-06 11.4022C0.00163802 14.4246 1.20106 17.3226 3.33441 19.4586C3.33441 19.4586 20.7461 36.9262 20.9621 37.147C21.2158 37.4116 21.5209 37.6215 21.8585 37.7636C22.1961 37.9058 22.5591 37.9772 22.9253 37.9735H60.482C60.6324 37.9801 60.7826 37.9562 60.9235 37.9031C61.0644 37.8501 61.1931 37.7689 61.3019 37.6646C61.4106 37.5603 61.4972 37.435 61.5563 37.2962C61.6155 37.1575 61.646 37.0082 61.646 36.8573C61.646 36.7064 61.6155 36.5571 61.5563 36.4183C61.4972 36.2796 61.4106 36.1543 61.3019 36.05C61.1931 35.9457 61.0644 35.8645 60.9235 35.8114C60.7826 35.7584 60.6324 35.7344 60.482 35.7411L30.1086 35.693C29.8479 35.6118 29.6258 35.4377 29.4845 35.2036C29.3431 34.9695 29.2922 34.6916 29.3413 34.4224C29.3905 34.1533 29.5363 33.9114 29.7512 33.7427C29.9661 33.5739 30.2353 33.4899 30.5078 33.5065H51.5515C51.8383 33.4938 52.1091 33.3707 52.3076 33.1627C52.5061 32.9548 52.6168 32.6781 52.6168 32.3904C52.6168 32.1026 52.5061 31.8259 52.3076 31.618C52.1091 31.4101 51.8383 31.2869 51.5515 31.2742L37.8437 31.2611C37.562 31.2255 37.3043 31.0838 37.1231 30.8647C36.9419 30.6455 36.8508 30.3654 36.8683 30.0813C36.8858 29.7972 37.0106 29.5305 37.2173 29.3354C37.4241 29.1402 37.6972 29.0313 37.9811 29.0309H62.888C63.0384 29.0375 63.1886 29.0136 63.3295 28.9605C63.4704 28.9074 63.5991 28.8263 63.7079 28.722C63.8167 28.6177 63.9033 28.4924 63.9624 28.3536C64.0215 28.2149 64.052 28.0656 64.052 27.9147C64.052 27.7638 64.0215 27.6145 63.9624 27.4757C63.9033 27.337 63.8167 27.2117 63.7079 27.1074C63.5991 27.0031 63.4704 26.9219 63.3295 26.8688C63.1886 26.8157 63.0384 26.7918 62.888 26.7985H43.2557C42.9595 26.7985 42.6754 26.6806 42.466 26.4706C42.2565 26.2607 42.1388 25.9759 42.1388 25.679C42.1388 25.3821 42.2565 25.0974 42.466 24.8874C42.6754 24.6775 42.9595 24.5596 43.2557 24.5596L56.0669 24.5749C56.213 24.574 56.3575 24.5443 56.4921 24.4875C56.6268 24.4306 56.7489 24.3478 56.8516 24.2436C56.9543 24.1395 57.0356 24.0161 57.0907 23.8804C57.1458 23.7448 57.1737 23.5996 57.1729 23.4532C57.172 23.3068 57.1424 23.1619 57.0857 23.027C57.029 22.892 56.9463 22.7696 56.8424 22.6666C56.7385 22.5637 56.6153 22.4823 56.48 22.4271C56.3447 22.3718 56.1999 22.3438 56.0538 22.3447H47.9827C47.6865 22.3447 47.4024 22.2267 47.193 22.0168C46.9835 21.8069 46.8659 21.5221 46.8659 21.2252C46.8659 20.9283 46.9835 20.6436 47.193 20.4336C47.4024 20.2237 47.6865 20.1057 47.9827 20.1057H66.1776C66.3279 20.1124 66.4781 20.0885 66.619 20.0354C66.7599 19.9823 66.8887 19.9012 66.9974 19.7969C67.1062 19.6926 67.1928 19.5673 67.2519 19.4285C67.311 19.2898 67.3415 19.1404 67.3415 18.9896C67.3415 18.8387 67.311 18.6894 67.2519 18.5506C67.1928 18.4119 67.1062 18.2866 66.9974 18.1822C66.8887 18.0779 66.7599 17.9968 66.619 17.9437C66.4781 17.8906 66.3279 17.8667 66.1776 17.8734L66.1841 17.8668ZM12.3151 5.87847C10.6886 5.88021 9.12903 6.52802 7.97808 7.68002C6.82712 8.83202 6.1786 10.3943 6.17456 12.0246C6.16176 12.3167 6.037 12.5925 5.82629 12.7946C5.61558 12.9968 5.33518 13.1096 5.04352 13.1096C4.75186 13.1096 4.47145 12.9968 4.26074 12.7946C4.05003 12.5925 3.92527 12.3167 3.91248 12.0246C3.91709 9.79312 4.80413 7.65448 6.37918 6.07739C7.95423 4.50031 10.0888 3.61343 12.3151 3.61112C12.4678 3.6044 12.6203 3.62874 12.7634 3.68268C12.9065 3.73662 13.0371 3.81904 13.1476 3.92497C13.258 4.03091 13.3459 4.15816 13.4059 4.29906C13.466 4.43996 13.4969 4.59158 13.4969 4.7448C13.4969 4.89801 13.466 5.04964 13.4059 5.19053C13.3459 5.33143 13.258 5.45868 13.1476 5.56462C13.0371 5.67055 12.9065 5.75297 12.7634 5.80692C12.6203 5.86086 12.4678 5.8852 12.3151 5.87847Z" fill="#B6B2C5"/>
</svg>
