<svg width="211" height="40" viewBox="0 0 211 40" fill="none" xmlns="http://www.w3.org/2000/svg">
<path d="M71.1074 2.09452C71.1074 2.09452 71.6391 2.05553 72.7024 1.97756C74.2974 1.84996 75.5699 1.78616 76.5198 1.78616C77.4697 1.78616 78.2282 1.82515 78.7953 1.90312C79.3624 1.97401 79.8587 2.10161 80.284 2.28592C80.7164 2.46314 81.0815 2.70771 81.3792 3.01962C81.684 3.33153 81.9322 3.72851 82.1236 4.21056C82.4851 5.11085 82.6659 6.45065 82.6659 8.22996V9.87812C82.6659 11.9835 82.5099 13.5821 82.198 14.6738C81.8365 15.9356 81.1878 16.843 80.2521 17.3959C79.288 17.9772 77.8738 18.2678 76.0094 18.2678H71.1074V2.09452ZM80.1351 4.58272C79.8799 4.17866 79.5113 3.87383 79.0293 3.66826C78.5472 3.46268 77.8064 3.35989 76.8069 3.35989C75.8074 3.35989 74.5101 3.42015 72.9151 3.54066V16.7473H76.2965C77.615 16.7473 78.5933 16.531 79.2313 16.0986C79.8551 15.6804 80.2734 14.9609 80.486 13.9401C80.6703 13.1036 80.7625 11.7496 80.7625 9.87812V8.21932C80.7625 6.45419 80.5534 5.24199 80.1351 4.58272Z" fill="#B6B2C5"/>
<path d="M97.191 17.5979C95.7236 18.1863 94.1038 18.4805 92.3316 18.4805C91.3037 18.4805 90.4317 18.3742 89.7158 18.1615C88.5744 17.8354 87.8159 17.162 87.4402 16.1412C87.0929 15.1842 86.9192 13.7664 86.9192 11.8878V11.3455C86.9192 9.09835 87.3871 7.52107 88.3228 6.61369C89.1664 5.80556 90.5735 5.40149 92.5442 5.40149C94.4653 5.40149 95.7768 5.87645 96.4786 6.82636C96.8188 7.28713 97.0421 7.84716 97.1485 8.50642C97.2619 9.1586 97.3186 9.78242 97.3186 10.3779C97.3186 11.3065 97.2973 12.0261 97.2548 12.5365C96.2553 12.579 95.3585 12.6003 94.5646 12.6003C94.5646 12.6003 93.9939 12.6003 92.8526 12.6003C91.0662 12.6003 89.6909 12.5223 88.7269 12.3663C88.7269 13.9968 88.9324 15.1345 89.3436 15.7796C89.8469 16.5665 90.85 16.9599 92.3528 16.9599C93.8557 16.9599 95.2947 16.6657 96.67 16.0774L97.191 17.5979ZM95.5216 11.1222V10.1014C95.5216 8.98847 95.3053 8.19451 94.8729 7.71956C94.3909 7.18789 93.5579 6.92206 92.3741 6.92206C90.9563 6.92206 89.9887 7.23042 89.4712 7.84716C88.975 8.43554 88.7269 9.52722 88.7269 11.1222H95.5216Z" fill="#B6B2C5"/>
<path d="M107.771 7.06029C106.389 7.06029 104.982 7.4679 103.55 8.28312V18.2678H101.785V5.61416H103.337L103.507 6.92206C104.28 6.29115 105.24 5.841 106.389 5.57162C106.857 5.4582 107.406 5.40149 108.037 5.40149C108.668 5.40149 109.224 5.47592 109.706 5.62479C110.188 5.76657 110.571 5.99696 110.855 6.31596C111.372 6.89016 111.631 7.93577 111.631 9.45279V18.2678H109.845V9.78242C109.845 8.76162 109.745 8.1059 109.547 7.81526C109.348 7.51752 109.111 7.31903 108.834 7.21979C108.565 7.11346 108.211 7.06029 107.771 7.06029Z" fill="#B6B2C5"/>
<path d="M122.52 17.6617C121.364 18.2076 120.297 18.4805 119.319 18.4805C117.547 18.4805 116.54 17.722 116.299 16.205C116.242 15.8434 116.214 15.3188 116.214 14.6312V7.09219H114.683V5.78429L116.214 5.61416L116.49 2.72189H117.969V5.61416H121.658V7.09219H117.969V14.5993C117.969 15.4713 118.032 16.0277 118.16 16.2688C118.394 16.7083 118.862 16.928 119.564 16.928C120.265 16.928 121.049 16.7118 121.913 16.2794L122.52 17.6617Z" fill="#B6B2C5"/>
<path d="M135.056 13.7806C135.056 15.1912 135.124 16.6586 135.258 18.1828L133.685 18.3104L133.419 16.8323C132.518 17.5554 131.328 18.0587 129.846 18.3423C129.364 18.4344 128.935 18.4805 128.559 18.4805C128.184 18.4805 127.85 18.4628 127.56 18.4273C127.276 18.3919 127 18.3245 126.73 18.2253C126.468 18.119 126.224 17.9736 125.997 17.7893C125.77 17.605 125.571 17.3604 125.401 17.0556C125.04 16.4105 124.859 15.6378 124.859 14.7376C124.859 13.8302 124.923 13.1284 125.05 12.6322C125.185 12.1288 125.405 11.7106 125.71 11.3774C126.312 10.7182 127.326 10.3885 128.751 10.3885C130.176 10.3885 131.696 10.6579 133.312 11.1967V9.81432C133.312 8.27603 132.678 7.36511 131.409 7.08156C130.998 6.9894 130.526 6.94332 129.995 6.94332C128.783 6.94332 127.524 7.18435 126.22 7.66639L125.827 6.13519C126.188 5.89417 127.11 5.67796 128.591 5.48656C129.059 5.42985 129.619 5.40149 130.271 5.40149C130.931 5.40149 131.576 5.47947 132.207 5.63542C132.837 5.79138 133.362 6.04658 133.78 6.40102C134.631 7.10282 135.056 8.24059 135.056 9.81432V13.7806ZM133.27 12.5258C131.611 12.1076 130.08 11.8985 128.676 11.8985C127.811 11.8985 127.237 12.1466 126.954 12.6428C126.762 12.9901 126.667 13.5041 126.667 14.1846C126.667 14.8652 126.702 15.3578 126.773 15.6627C126.851 15.9675 126.975 16.2191 127.145 16.4176C127.478 16.7933 128.028 16.9812 128.793 16.9812C129.991 16.9812 131.179 16.6728 132.355 16.0561C132.717 15.8718 133.043 15.6662 133.334 15.4394C133.291 14.6738 133.27 13.7026 133.27 12.5258Z" fill="#B6B2C5"/>
<path d="M140.256 0.191156L142.01 0.0422891V18.2678H140.277L140.256 0.191156Z" fill="#B6B2C5"/>
<path d="M158.418 16.9493C159.573 16.9493 160.736 16.726 161.905 16.2794L162.373 17.7468C161.835 18.0162 161.186 18.204 160.427 18.3104C159.669 18.4238 158.999 18.4805 158.418 18.4805H158.269C155.745 18.4805 154.054 17.7574 153.197 16.3113C152.672 15.4323 152.353 14.2484 152.24 12.7598C152.19 12.0438 152.165 11.2605 152.165 10.4098C152.165 9.55912 152.187 8.75099 152.229 7.98539C152.279 7.2127 152.374 6.50736 152.516 5.86936C152.658 5.22427 152.864 4.65007 153.133 4.14676C153.402 3.64345 153.764 3.21811 154.218 2.87076C155.139 2.14769 156.479 1.78616 158.237 1.78616C159.371 1.78616 160.282 1.86059 160.97 2.00946C161.664 2.15123 162.132 2.2682 162.373 2.36036L161.895 4.04042C160.512 3.55838 159.329 3.31736 158.343 3.31736C157.365 3.31736 156.61 3.43787 156.078 3.67889C155.554 3.91282 155.143 4.30271 154.845 4.84856C154.327 5.78429 154.069 7.56715 154.069 10.1971V10.984C154.069 13.1461 154.349 14.656 154.909 15.5138C155.533 16.4708 156.67 16.9493 158.322 16.9493H158.418Z" fill="#B6B2C5"/>
<path d="M165.67 0.191156L167.424 0.0422891V18.2678H165.691L165.67 0.191156Z" fill="#B6B2C5"/>
<path d="M173.825 2.58366C173.35 2.58366 173.046 2.51631 172.911 2.38162C172.698 2.16187 172.592 1.86059 172.592 1.47779C172.592 1.0879 172.613 0.811434 172.656 0.648389C172.705 0.478256 172.776 0.347111 172.868 0.254956C173.039 0.0848226 173.297 -0.000244141 173.645 -0.000244141C173.999 -0.000244141 174.251 0.017478 174.4 0.0529224C174.556 0.0883669 174.683 0.155711 174.782 0.254956C174.953 0.425089 175.038 0.7051 175.038 1.09499C175.038 1.47779 175.016 1.75426 174.974 1.92439C174.938 2.08743 174.875 2.21858 174.782 2.31782C174.605 2.49504 174.286 2.58366 173.825 2.58366ZM172.964 5.61416H174.708V18.2678H172.985L172.964 5.61416Z" fill="#B6B2C5"/>
<path d="M185.82 7.06029C184.437 7.06029 183.03 7.4679 181.598 8.28312V18.2678H179.833V5.61416H181.386L181.556 6.92206C182.329 6.29115 183.289 5.841 184.437 5.57162C184.905 5.4582 185.455 5.40149 186.086 5.40149C186.717 5.40149 187.273 5.47592 187.755 5.62479C188.237 5.76657 188.62 5.99696 188.903 6.31596C189.421 6.89016 189.68 7.93577 189.68 9.45279V18.2678H187.893V9.78242C187.893 8.76162 187.794 8.1059 187.596 7.81526C187.397 7.51752 187.16 7.31903 186.883 7.21979C186.614 7.11346 186.259 7.06029 185.82 7.06029Z" fill="#B6B2C5"/>
<path d="M195.602 2.58366C195.128 2.58366 194.823 2.51631 194.688 2.38162C194.475 2.16187 194.369 1.86059 194.369 1.47779C194.369 1.0879 194.39 0.811434 194.433 0.648389C194.482 0.478256 194.553 0.347111 194.645 0.254956C194.816 0.0848226 195.074 -0.000244141 195.422 -0.000244141C195.776 -0.000244141 196.028 0.017478 196.177 0.0529224C196.333 0.0883669 196.46 0.155711 196.559 0.254956C196.73 0.425089 196.815 0.7051 196.815 1.09499C196.815 1.47779 196.793 1.75426 196.751 1.92439C196.715 2.08743 196.652 2.21858 196.559 2.31782C196.382 2.49504 196.063 2.58366 195.602 2.58366ZM194.741 5.61416H196.485V18.2678H194.762L194.741 5.61416Z" fill="#B6B2C5"/>
<path d="M210.404 17.7043C209.419 18.2217 208.068 18.4805 206.353 18.4805C205.339 18.4805 204.595 18.4025 204.12 18.2466C202.908 17.8354 202.114 17.1371 201.738 16.1518C201.476 15.4642 201.323 14.7234 201.281 13.9294C201.238 13.1355 201.217 12.4656 201.217 11.9197C201.217 11.3739 201.231 10.8422 201.259 10.3247C201.288 9.80015 201.355 9.29683 201.461 8.81479C201.575 8.33275 201.745 7.88615 201.972 7.47499C202.199 7.05675 202.507 6.69167 202.897 6.37976C203.741 5.72758 204.953 5.40149 206.534 5.40149C207.696 5.40149 208.767 5.57162 209.745 5.91189C210.007 5.99696 210.206 6.07848 210.34 6.15646L209.809 7.73019C208.448 7.20561 207.331 6.94332 206.459 6.94332C205.594 6.94332 204.956 7.04257 204.545 7.24106C204.141 7.43955 203.826 7.74082 203.599 8.14489C203.216 8.8396 203.025 10.1156 203.025 11.9729C203.025 12.7172 203.049 13.3978 203.099 14.0145C203.149 14.6241 203.273 15.1487 203.471 15.5882C203.889 16.4956 204.751 16.9493 206.055 16.9493C207.366 16.9493 208.639 16.7224 209.872 16.2688L210.404 17.7043Z" fill="#B6B2C5"/>
<path d="M71.1074 28.8237C71.1074 28.8237 71.4536 28.7983 72.146 28.7475C73.1846 28.6645 74.0131 28.6229 74.6316 28.6229C75.2501 28.6229 75.744 28.6483 76.1133 28.6991C76.4826 28.7452 76.8057 28.8283 77.0826 28.9483C77.3642 29.0637 77.6019 29.223 77.7958 29.4261C77.9943 29.6292 78.1558 29.8877 78.2804 30.2015C78.5158 30.7877 78.6336 31.6601 78.6336 32.8187V33.8919C78.6336 35.2628 78.532 36.3037 78.3289 37.0145C78.0935 37.8361 77.6711 38.427 77.0619 38.787C76.4341 39.1655 75.5132 39.3547 74.2993 39.3547H71.1074V28.8237ZM76.9857 30.4439C76.8195 30.1808 76.5795 29.9823 76.2656 29.8484C75.9517 29.7146 75.4694 29.6476 74.8186 29.6476C74.1677 29.6476 73.323 29.6869 72.2845 29.7653V38.3646H74.4862C75.3448 38.3646 75.9818 38.2239 76.3972 37.9423C76.8034 37.67 77.0757 37.2015 77.2142 36.5368C77.3342 35.9921 77.3942 35.1105 77.3942 33.8919V32.8118C77.3942 31.6624 77.258 30.8731 76.9857 30.4439Z" fill="#B6B2C5"/>
<path d="M84.5949 32.1194C84.0041 32.1194 83.4017 32.4148 82.7878 33.0057V39.3547H81.6385V31.1155H82.6493L82.7601 32.2094C82.9771 31.8725 83.2102 31.6094 83.4594 31.4201C83.7133 31.2309 83.921 31.1155 84.0826 31.0739C84.3133 31.0093 84.5326 30.977 84.7403 30.977C84.948 30.977 85.2088 31.0185 85.5227 31.1016L85.4188 32.2025C85.1834 32.1471 84.9088 32.1194 84.5949 32.1194Z" fill="#B6B2C5"/>
<path d="M87.1636 39.3478C87.0805 39.2509 87.0275 39.1447 87.0044 39.0293C86.9813 38.9093 86.9698 38.7593 86.9698 38.5793C86.9698 38.3947 86.9813 38.2446 87.0044 38.1292C87.0321 38.0138 87.0782 37.9238 87.1429 37.8592C87.249 37.7392 87.4221 37.6792 87.6621 37.6792C87.9022 37.6792 88.0729 37.693 88.1745 37.7207C88.2807 37.7438 88.3637 37.79 88.4238 37.8592C88.5299 37.9746 88.583 38.2123 88.583 38.5724C88.583 38.9324 88.5415 39.1609 88.4584 39.2578C88.3291 39.4101 88.103 39.4863 87.7798 39.4863C87.4567 39.4863 87.2513 39.4401 87.1636 39.3478Z" fill="#B6B2C5"/>
<path d="M98.4355 38.4962C99.1879 38.4962 99.9449 38.3508 100.707 38.06L101.011 39.0155C100.66 39.1909 100.238 39.3132 99.7441 39.3824C99.2502 39.4563 98.814 39.4932 98.4355 39.4932H98.3386C96.6953 39.4932 95.5945 39.0224 95.0359 38.0808C94.6944 37.5084 94.4867 36.7376 94.4128 35.7682C94.3805 35.302 94.3643 34.792 94.3643 34.2381C94.3643 33.6842 94.3782 33.158 94.4059 32.6595C94.4382 32.1563 94.5005 31.6971 94.5928 31.2816C94.6851 30.8616 94.819 30.4877 94.9944 30.16C95.1698 29.8323 95.4052 29.5553 95.7006 29.3291C96.3007 28.8583 97.1731 28.6229 98.3178 28.6229C99.0563 28.6229 99.6495 28.6714 100.097 28.7683C100.55 28.8606 100.854 28.9368 101.011 28.9968L100.7 30.0907C99.7995 29.7769 99.0287 29.6199 98.387 29.6199C97.7501 29.6199 97.2585 29.6984 96.9123 29.8553C96.5707 30.0077 96.303 30.2615 96.1091 30.617C95.7722 31.2262 95.6037 32.3871 95.6037 34.0996V34.612C95.6037 36.0198 95.786 37.003 96.1507 37.5615C96.5569 38.1846 97.2977 38.4962 98.3732 38.4962H98.4355Z" fill="#B6B2C5"/>
<path d="M102.666 35.2559C102.666 34.2081 102.719 33.4765 102.825 33.061C102.931 32.6456 103.061 32.3179 103.213 32.0779C103.37 31.8332 103.58 31.6301 103.843 31.4686C104.369 31.1409 105.147 30.977 106.176 30.977C107.663 30.977 108.618 31.3439 109.043 32.0779C109.297 32.521 109.442 33.1464 109.479 33.9542C109.493 34.3373 109.5 34.7597 109.5 35.2213C109.5 35.6828 109.484 36.1144 109.451 36.516C109.424 36.913 109.366 37.2707 109.278 37.5892C109.19 37.9077 109.068 38.1869 108.911 38.427C108.754 38.6624 108.547 38.8609 108.288 39.0224C107.78 39.3363 107.039 39.4932 106.066 39.4932C104.607 39.4932 103.649 39.1332 103.192 38.4131C102.911 37.9654 102.747 37.3376 102.701 36.5299C102.677 36.1421 102.666 35.7175 102.666 35.2559ZM104.549 38.1431C104.715 38.2677 104.923 38.3623 105.172 38.427C105.426 38.487 105.77 38.517 106.204 38.517C106.642 38.517 107.009 38.4547 107.305 38.33C107.605 38.2054 107.829 38.0069 107.976 37.7346C108.129 37.4576 108.223 37.0999 108.26 36.6614C108.302 36.2229 108.323 35.7128 108.323 35.1312C108.323 34.5497 108.304 34.065 108.267 33.6773C108.235 33.2895 108.15 32.9687 108.011 32.7149C107.734 32.2163 107.118 31.9671 106.162 31.9671C105.152 31.9671 104.494 32.2163 104.189 32.7149C104.037 32.9687 103.94 33.2918 103.898 33.6842C103.857 34.0765 103.836 34.5035 103.836 34.9651C103.836 35.4267 103.841 35.819 103.85 36.1421C103.864 36.4606 103.894 36.7491 103.94 37.0076C103.991 37.2615 104.062 37.483 104.155 37.6723C104.251 37.8615 104.383 38.0185 104.549 38.1431Z" fill="#B6B2C5"/>
<path d="M115.309 32.1194C114.718 32.1194 114.116 32.4148 113.502 33.0057V39.3547H112.352V31.1155H113.363L113.474 32.2094C113.691 31.8725 113.924 31.6094 114.173 31.4201C114.427 31.2309 114.635 31.1155 114.796 31.0739C115.027 31.0093 115.246 30.977 115.454 30.977C115.662 30.977 115.923 31.0185 116.237 31.1016L116.133 32.2025C115.897 32.1471 115.623 32.1194 115.309 32.1194Z" fill="#B6B2C5"/>
<path d="M122.163 32.0571C121.263 32.0571 120.347 32.3225 119.415 32.8533V39.3547H118.265V31.1155H119.276L119.387 31.9671C119.89 31.5563 120.515 31.2632 121.263 31.0878C121.568 31.0139 121.926 30.977 122.336 30.977C122.747 30.977 123.109 31.0255 123.423 31.1224C123.737 31.2147 123.987 31.3647 124.171 31.5724C124.508 31.9463 124.677 32.6272 124.677 33.6149V39.3547H123.513V33.8296C123.513 33.1649 123.449 32.7379 123.32 32.5487C123.19 32.3548 123.036 32.2256 122.856 32.161C122.68 32.0917 122.449 32.0571 122.163 32.0571Z" fill="#B6B2C5"/>
<path d="M134.162 38.9185C133.207 39.3017 132.152 39.4932 130.998 39.4932C130.329 39.4932 129.761 39.424 129.295 39.2855C128.552 39.0732 128.058 38.6347 127.813 37.97C127.587 37.3469 127.474 36.4237 127.474 35.2005V34.8474C127.474 33.3842 127.778 32.3571 128.388 31.7663C128.937 31.2401 129.853 30.977 131.136 30.977C132.387 30.977 133.241 31.2863 133.698 31.9048C133.92 32.2048 134.065 32.5695 134.134 32.9987C134.208 33.4234 134.245 33.8296 134.245 34.2173C134.245 34.822 134.231 35.2905 134.204 35.6228C133.553 35.6505 132.969 35.6644 132.452 35.6644C132.452 35.6644 132.08 35.6644 131.337 35.6644C130.174 35.6644 129.279 35.6136 128.651 35.5121C128.651 36.5737 128.785 37.3145 129.052 37.7346C129.38 38.2469 130.033 38.5031 131.012 38.5031C131.99 38.5031 132.927 38.3116 133.823 37.9285L134.162 38.9185ZM133.075 34.702V34.0373C133.075 33.3126 132.934 32.7956 132.653 32.4864C132.339 32.1402 131.797 31.9671 131.026 31.9671C130.102 31.9671 129.472 32.1679 129.135 32.5695C128.812 32.9526 128.651 33.6634 128.651 34.702H133.075Z" fill="#B6B2C5"/>
<path d="M143.461 36.4329C143.461 37.3515 143.505 38.3069 143.592 39.2994L142.568 39.3824L142.394 38.42C141.808 38.8909 141.033 39.2186 140.068 39.4032C139.754 39.4632 139.475 39.4932 139.23 39.4932C138.986 39.4932 138.769 39.4817 138.579 39.4586C138.395 39.4355 138.215 39.3917 138.039 39.3271C137.869 39.2578 137.709 39.1632 137.562 39.0432C137.414 38.9232 137.285 38.7639 137.174 38.5654C136.939 38.1454 136.821 37.6423 136.821 37.0561C136.821 36.4652 136.862 36.0083 136.945 35.6852C137.033 35.3574 137.176 35.0851 137.375 34.8681C137.767 34.4389 138.427 34.2242 139.355 34.2242C140.283 34.2242 141.273 34.3996 142.325 34.7504V33.8504C142.325 32.8487 141.912 32.2556 141.086 32.0709C140.818 32.0109 140.511 31.9809 140.165 31.9809C139.376 31.9809 138.556 32.1379 137.707 32.4518L137.451 31.4547C137.686 31.2978 138.286 31.157 139.251 31.0324C139.556 30.9955 139.92 30.977 140.345 30.977C140.774 30.977 141.194 31.0278 141.605 31.1293C142.016 31.2309 142.358 31.397 142.63 31.6278C143.184 32.0848 143.461 32.8256 143.461 33.8504V36.4329ZM142.298 35.6159C141.217 35.3436 140.22 35.2074 139.306 35.2074C138.743 35.2074 138.369 35.369 138.185 35.6921C138.06 35.9183 137.998 36.2529 137.998 36.696C137.998 37.1391 138.021 37.4599 138.067 37.6584C138.118 37.8569 138.199 38.0208 138.309 38.15C138.526 38.3947 138.884 38.517 139.383 38.517C140.163 38.517 140.936 38.3162 141.702 37.9146C141.938 37.7946 142.15 37.6607 142.339 37.513C142.311 37.0145 142.298 36.3821 142.298 35.6159Z" fill="#B6B2C5"/>
<path d="M152.829 35.7267C152.829 37.2499 152.872 38.4408 152.96 39.2994L151.929 39.3824L151.762 38.4062C151.222 38.8539 150.592 39.177 149.872 39.3755C149.586 39.454 149.244 39.4932 148.847 39.4932C148.455 39.4932 148.102 39.4471 147.788 39.3547C147.479 39.2578 147.232 39.1055 147.047 38.8978C146.71 38.5239 146.542 37.8431 146.542 36.8553V31.1155H147.705V36.6683C147.705 37.333 147.77 37.7623 147.899 37.9561C148.028 38.1454 148.18 38.2746 148.356 38.3439C148.536 38.4085 148.748 38.4408 148.993 38.4408C149.237 38.4408 149.473 38.4223 149.699 38.3854C149.93 38.3439 150.161 38.2862 150.391 38.2123C150.876 38.0554 151.315 37.8407 151.707 37.5684V37.5615C151.688 37.2107 151.679 36.5275 151.679 35.5121V31.1155H152.829V35.7267Z" fill="#B6B2C5"/>
<path d="M161.393 38.4339C160.419 39.1401 159.429 39.4932 158.423 39.4932C157.311 39.4932 156.57 39.0847 156.2 38.2677C155.988 37.8061 155.868 37.3192 155.84 36.8068C155.817 36.2898 155.806 35.8375 155.806 35.4497C155.806 35.0574 155.808 34.6627 155.813 34.2658C155.822 33.8688 155.852 33.5019 155.903 33.1649C155.954 32.8279 156.032 32.5256 156.138 32.2579C156.249 31.9856 156.406 31.7548 156.609 31.5655C157.029 31.1732 157.721 30.977 158.686 30.977C159.655 30.977 160.53 31.1455 161.31 31.4824V27.5705L162.46 27.4597V35.5674C162.46 37.1599 162.503 38.4039 162.591 39.2994L161.559 39.3824L161.393 38.4339ZM161.31 32.431C160.479 32.154 159.676 32.0156 158.901 32.0156C158.338 32.0156 157.966 32.0617 157.786 32.154C157.606 32.2463 157.468 32.3664 157.371 32.5141C157.278 32.6618 157.202 32.8649 157.142 33.1234C157.036 33.608 156.983 34.4066 156.983 35.519V35.6713C156.983 36.7099 157.096 37.4276 157.322 37.8246C157.567 38.2446 158.021 38.4547 158.686 38.4547H158.79C159.427 38.4547 160.105 38.2516 160.826 37.8454C161.024 37.7346 161.195 37.6238 161.338 37.513V37.4992C161.315 37.0699 161.303 36.4075 161.303 35.5121L161.31 32.431Z" fill="#B6B2C5"/>
<path d="M48.1127 9.41382C48.1127 9.41382 48.0499 9.51342 47.9258 9.69425C47.9637 9.60252 47.997 9.50893 48.0254 9.41382H48.1127Z" fill="#B6B2C5"/>
<path d="M45.3834 2.15966C44.4011 1.46242 43.0649 1.47621 41.9079 1.55743C41.0835 1.61566 40.2652 1.73825 39.456 1.87157C36.5659 2.34355 34.0053 4.0813 31.3266 5.17237C30.778 5.3961 30.1988 5.59378 29.6165 5.78534C29.0342 5.97689 28.4304 6.15005 27.8159 6.27417C27.5131 6.34884 27.206 6.40513 26.8965 6.44274C26.5924 6.49666 26.2854 6.53147 25.977 6.54694C25.3946 6.59379 24.8094 6.59379 24.227 6.54694C23.7098 6.49526 23.1974 6.40303 22.6946 6.27111C22.4632 6.20521 22.2349 6.15005 22.0357 6.08415L21.4656 5.85889C21.1558 5.74555 20.8559 5.60665 20.5691 5.44361C20.4021 5.3532 19.7141 5.08962 19.9056 4.87662C19.9838 4.78927 20.6121 4.88428 20.7193 4.89501C20.9798 4.91953 21.3016 4.91493 21.6587 4.91953L22.2257 4.92719C22.4264 4.91186 22.6318 4.9088 22.8463 4.89807C23.2738 4.89807 23.7305 4.82298 24.204 4.78314C24.4415 4.7387 24.6837 4.70346 24.9288 4.66361C25.174 4.62377 25.4223 4.55481 25.6751 4.51037C25.928 4.46593 26.1839 4.37859 26.4413 4.31116C26.6988 4.24374 26.9608 4.15792 27.2274 4.07824C27.7561 3.925 28.3001 3.72425 28.8457 3.53883C29.2364 3.40551 29.7651 3.28905 30.0839 3.06838C27.111 2.94426 24.2009 2.65616 21.2511 2.24241C19.4229 1.97884 17.0538 1.36588 15.2287 1.95892C14.9999 2.02421 14.7867 2.13525 14.602 2.28532C11.6214 4.89807 12.5409 13.0229 13.183 15.8333C13.825 18.6437 17.5718 25.938 17.7204 27.5899C17.9809 30.5015 17.6576 31.7581 17.9074 33.3717C18.223 35.4083 19.2314 39.486 21.6664 39.486C25.0162 39.486 26.5976 35.6688 27.2259 33.5801C27.8695 31.447 28.2986 30.2425 30.4332 30.2088C32.8008 30.169 32.9694 31.3612 33.639 33.5801C34.2689 35.6688 35.8488 39.486 39.2001 39.486C41.6336 39.486 42.7032 35.4159 42.9591 33.3717C43.215 31.3275 42.8365 28.8511 43.0863 27.5899C43.4081 25.9625 46.6645 18.5181 46.9832 17.3673C47.302 16.2164 50.687 5.93091 45.3834 2.15966Z" fill="#B6B2C5"/>
<path d="M25.6108 6.57608C25.1509 6.59121 24.6905 6.58149 24.2316 6.54696C23.7144 6.49528 23.202 6.40305 22.6992 6.27113C22.4678 6.20524 22.2395 6.15007 22.0403 6.08418L21.4702 5.85891C21.1604 5.74558 20.8605 5.60667 20.5737 5.44363C20.4067 5.35322 19.7187 5.08965 19.9102 4.87664C19.9884 4.7893 20.6167 4.8843 20.7239 4.89503C20.9844 4.91955 21.3062 4.91495 21.6633 4.91955L22.2303 4.92721C22.431 4.91189 22.6364 4.90882 22.8509 4.8981C23.2784 4.8981 23.7351 4.82301 24.2086 4.78317C24.4461 4.73873 24.6883 4.70348 24.9334 4.66364C25.1786 4.6238 25.4269 4.55484 25.6797 4.5104C25.9326 4.46596 26.1885 4.37861 26.4459 4.31118C26.7034 4.24376 26.9654 4.15794 27.232 4.07826C27.7607 3.92502 28.3047 3.72427 28.8503 3.53885C29.241 3.40553 29.7697 3.28907 30.0884 3.0684C27.1156 2.94428 24.2055 2.65619 21.2557 2.24244C19.4229 1.97886 17.0538 1.3659 15.2287 1.95894C14.9999 2.02423 14.7867 2.13527 14.602 2.28534C11.6214 4.8981 12.5409 13.0229 13.183 15.8333C13.4634 17.0685 14.343 19.1648 15.2548 21.2703C16.2922 14.9706 20.2519 9.98262 25.6108 6.57608Z" fill="#B6B2C5"/>
<path d="M20.3843 21.58C24.7164 21.4069 32.1838 24.3154 33.0267 31.6786C32.9538 31.4826 32.8554 31.2971 32.734 31.1269C32.4275 30.6856 31.8038 30.1508 30.4354 30.2075C29.7259 30.2366 28.7834 30.2703 28.0831 31.3782C27.6632 32.0433 27.1637 33.7718 26.6902 35.0943C25.832 37.514 24.5708 39.4877 21.6685 39.4877C17.7394 39.4877 17.793 31.3414 18.0137 28.5586C18.0635 27.9395 17.9729 27.3172 17.7486 26.7381L15.3887 21.5739L20.3843 21.58Z" fill="#B6B2C5"/>
<path d="M29.2029 30.2058C27.0667 30.2425 26.6392 31.447 25.9956 33.5771C25.4133 35.5094 24.0157 38.919 21.1562 39.4186C21.3216 39.4605 21.4914 39.4821 21.6619 39.4829C25.0118 39.4829 26.5932 35.6657 27.2215 33.5771C27.8115 31.6232 28.2206 30.4494 29.9277 30.2379C29.6872 30.2099 29.445 30.1991 29.2029 30.2058Z" fill="#B6B2C5"/>
<path d="M45.3831 2.15963C44.4821 1.51908 43.2776 1.47924 42.1972 1.54667C42.8991 1.59877 43.5887 1.76427 44.1572 2.16729C49.4608 5.93854 46.0742 16.2256 45.754 17.3749C45.4337 18.5242 42.1789 25.9701 41.857 27.5976C41.6073 28.8587 41.9842 31.3351 41.7299 33.3793C41.4923 35.2764 40.5545 38.9128 38.4766 39.4293C38.7144 39.4713 38.9553 39.4928 39.1968 39.4936C41.6303 39.4936 42.6999 35.4236 42.9558 33.3793C43.2117 31.3351 42.8332 28.8587 43.083 27.5976C43.4048 25.9701 46.6611 18.5257 46.9799 17.3749C47.2986 16.224 50.6868 5.93088 45.3831 2.15963Z" fill="#B6B2C5"/>
<path d="M20.3847 21.58H15.3906L16.2871 23.5415H19.0056C22.5868 23.399 28.3073 25.362 30.661 30.2059C31.8732 30.2151 32.4432 30.7147 32.7344 31.1254C32.8558 31.2956 32.9542 31.4811 33.0271 31.677C32.1705 24.3154 24.7092 21.4069 20.3847 21.58Z" fill="#B6B2C5"/>
<path d="M45.3831 2.15963C44.4821 1.51908 43.2776 1.47924 42.1972 1.54667C42.8991 1.59877 43.5887 1.76427 44.1572 2.16729C49.4608 5.93854 46.0742 16.2256 45.754 17.3749C45.4337 18.5242 42.1789 25.9701 41.857 27.5976C41.6073 28.8587 41.9842 31.3351 41.7299 33.3793C41.4923 35.2764 40.5545 38.9128 38.4766 39.4293C38.7144 39.4713 38.9553 39.4928 39.1968 39.4936C41.6303 39.4936 42.6999 35.4236 42.9558 33.3793C43.2117 31.3351 42.8332 28.8587 43.083 27.5976C43.4048 25.9701 46.6611 18.5257 46.9799 17.3749C47.2986 16.224 50.6868 5.93088 45.3831 2.15963Z" fill="#B6B2C5"/>
<path d="M19.9076 4.87512C19.9857 4.78777 20.614 4.88278 20.7213 4.89351C20.9818 4.91803 21.3036 4.91343 21.6607 4.91803L22.2277 4.92569C22.4284 4.91036 22.6337 4.9073 22.8483 4.89657C23.2758 4.89657 23.7325 4.82149 24.206 4.78164C24.4435 4.7372 24.6856 4.70196 24.9308 4.66211C25.176 4.62227 25.4242 4.55331 25.6771 4.50887C25.9299 4.46443 26.1859 4.37709 26.4433 4.30966C26.7007 4.24224 26.9628 4.15642 27.2294 4.07674C27.7581 3.9235 28.3021 3.72275 28.8476 3.53733C29.2384 3.40401 29.7671 3.28755 30.0858 3.06688C27.113 2.94276 24.2029 2.65466 21.253 2.24091C19.8831 2.04783 18.2143 1.65707 16.6972 1.7199C16.2972 3.32279 18.5545 4.47823 19.8769 4.98086C19.872 4.96211 19.8723 4.94237 19.8777 4.92376C19.8831 4.90514 19.8934 4.88833 19.9076 4.87512Z" fill="#B6B2C5"/>
<path d="M16.2338 25.676C15.699 25.6454 15.1305 25.8293 14.5941 25.8661C13.9812 25.9136 13.3805 25.9886 12.7752 26.0515C11.5784 26.1695 10.121 26.2829 8.46452 26.3748C7.63549 26.4147 6.75589 26.4422 5.84411 26.4284C4.93233 26.4147 3.96998 26.3702 3.12562 26.1894C3.04134 26.171 2.96012 26.1496 2.88197 26.1266L2.95246 26.0591C2.17936 26.61 1.4678 27.2424 0.830078 27.9455C1.09169 28.1449 1.38415 28.3002 1.69589 28.4053C2.01547 28.5139 2.34423 28.5934 2.67816 28.6428C3.74528 28.7805 4.82399 28.8046 5.89621 28.7148C6.87848 28.6504 7.79179 28.5478 8.64381 28.4359C10.3494 28.2168 11.8098 27.9302 13.0096 27.6973C14.2095 27.4644 15.1427 27.2376 15.7802 27.0843C16.0867 27.0138 16.4575 27.0383 16.6629 26.7778C16.6818 26.7523 16.6992 26.7257 16.715 26.6982C16.928 26.3135 16.692 25.7036 16.2338 25.676Z" fill="#B6B2C5"/>
<path d="M58.9458 10.9404L58.9335 10.827L58.9258 10.778L58.9105 10.686C58.8454 10.4142 58.7271 10.1579 58.5625 9.93194C58.3978 9.70601 58.1901 9.51492 57.9512 9.36968C57.6424 9.17256 57.3084 9.01793 56.9582 8.90996C55.7246 8.53605 54.5891 8.47323 53.4061 8.43951C52.2231 8.4058 51.0385 8.46097 49.8203 8.54218C47.3853 8.69542 44.8584 9.03715 42.2625 9.46163C39.6666 9.8861 37.0032 10.4071 34.3292 11.0385C31.6552 11.6698 28.9321 12.3318 26.2488 13.1133C23.5656 13.8949 20.8931 14.7254 18.2803 15.6158C15.6676 16.5061 13.1406 17.4991 10.7102 18.5273C8.33845 19.5171 6.0406 20.6755 3.83435 21.9936C3.29954 22.3216 2.77699 22.6694 2.2667 23.051C1.71995 23.4527 1.22074 23.9154 0.778731 24.4302C0.485781 24.7728 0.259675 25.1673 0.112135 25.5933C-0.00135164 25.939 -0.029222 26.3071 0.0309171 26.6659L0.0539031 26.7655C0.0539031 26.7456 0.106005 26.9862 0.0922133 26.9188L0.116732 26.9893C0.133588 27.0353 0.150445 27.0828 0.170366 27.1257C0.246029 27.2946 0.34451 27.4524 0.463055 27.5946C0.573674 27.723 0.696314 27.8405 0.8293 27.9455C1.46702 27.2424 2.17858 26.6099 2.95168 26.0591C3.25005 25.79 3.56815 25.5436 3.9033 25.322C4.33391 25.0309 4.80129 24.7474 5.29473 24.4746C7.27 23.3743 9.55481 22.4242 11.9193 21.4726C14.2838 20.521 16.797 19.6506 19.3591 18.8078C21.9213 17.9649 24.5387 17.142 27.1744 16.3942C29.8101 15.6464 32.4612 14.9078 35.0847 14.2688C37.7082 13.6298 40.2948 13.0429 42.8126 12.5249C45.3303 12.007 47.7684 11.6131 50.0731 11.3174C51.227 11.1764 52.3472 11.0737 53.4122 11.0354C54.4773 10.9971 55.5147 11.0155 56.2901 11.1886C56.4355 11.2196 56.5773 11.2659 56.713 11.3266C56.6502 11.2959 58.1765 11.6668 58.8324 11.892C58.8216 11.9273 58.8094 11.961 58.7986 11.9947C58.8764 11.7863 58.9249 11.5682 58.9427 11.3465C58.949 11.2859 58.952 11.225 58.9519 11.1641C58.958 11.0921 58.9534 11.0201 58.9458 10.9404ZM2.47663 25.9687C2.41381 25.9135 2.42453 25.9335 2.47663 25.9687V25.9687Z" fill="#B6B2C5"/>
<path d="M55.824 14.7409C56.601 14.2949 57.4423 13.8505 58.2575 12.9158C58.4907 12.6423 58.6762 12.3314 58.8061 11.9963C58.8168 11.9626 58.8291 11.9289 58.8398 11.8937C58.1839 11.6684 56.6577 11.2976 56.7205 11.3282C56.683 11.4294 56.6314 11.5249 56.5673 11.6117C56.1842 12.1557 55.4946 12.7089 54.8448 13.1579C53.6599 13.9457 52.4321 14.667 51.1671 15.3186C50.2236 15.8407 49.2516 16.3093 48.2555 16.7223C47.8448 16.8878 47.5736 17.5774 48.1927 17.7061C48.3842 17.7459 48.8363 17.5069 49.0186 17.4517C49.653 17.2571 50.5725 16.9705 51.7157 16.5368C53.1269 16.0386 54.5 15.4384 55.824 14.7409Z" fill="#B6B2C5"/>
<path d="M58.9309 11.5075C58.9318 11.5003 58.9318 11.4931 58.9309 11.486C58.9136 11.4621 58.8878 11.4457 58.8589 11.44C58.1264 11.2086 57.3755 10.9803 56.62 10.8041C55.8589 10.6383 55.082 10.5566 54.303 10.5604C54.0088 10.5604 53.7131 10.5604 53.4188 10.5742C52.3538 10.6125 51.2336 10.7152 50.0797 10.8562C47.7811 11.1519 45.3293 11.5626 42.8192 12.0637C40.3091 12.5648 37.7163 13.1732 35.0943 13.8091C32.4724 14.4451 29.8259 15.1883 27.1841 15.9346C24.5422 16.6809 21.9187 17.49 19.3688 18.3481C16.8189 19.2063 14.3027 20.069 11.929 21.013C9.55528 21.9569 7.27047 22.9147 5.2952 24.0149C4.80176 24.2877 4.33438 24.5712 3.90377 24.8624C3.56862 25.084 3.25052 25.3304 2.95215 25.5995C2.83416 25.6791 2.67019 25.7971 2.46485 25.9596C1.88388 26.4306 1.33746 26.9427 0.829771 27.492L0.615234 27.754L0.837433 27.9456C1.47516 27.2424 2.18672 26.61 2.95981 26.0592C3.25818 25.7901 3.57628 25.5437 3.91144 25.3221C4.34204 25.0309 4.80943 24.7474 5.30286 24.4747C7.27813 23.3744 9.56295 22.4243 11.9274 21.4727C14.2919 20.5211 16.8051 19.6507 19.3673 18.8078C21.9295 17.965 24.5468 17.1421 27.1825 16.3943C29.8183 15.6465 32.4693 14.9079 35.0928 14.2689C37.7163 13.6298 40.303 13.0429 42.8207 12.525C45.3385 12.007 47.7765 11.6132 50.0813 11.3174C51.2352 11.1765 52.3554 11.0738 53.4204 11.0355C54.4854 10.9972 55.5228 11.0156 56.2982 11.1887C56.4437 11.2197 56.5854 11.2659 56.7212 11.3266C56.7819 11.3443 56.8439 11.3571 56.9066 11.3649C57.0874 11.4063 57.2667 11.4508 57.446 11.4967C57.9057 11.6163 58.3762 11.7496 58.839 11.8875C58.8754 11.7775 58.9051 11.6655 58.9278 11.5519C58.9308 11.5373 58.9319 11.5223 58.9309 11.5075Z" fill="#B6B2C5"/>
<path d="M55.824 14.7409C56.601 14.2949 57.4423 13.8505 58.2575 12.9158C58.4907 12.6423 58.6762 12.3314 58.8061 11.9963C58.8168 11.9626 58.8291 11.9289 58.8398 11.8937C58.1839 11.6684 56.6577 11.2976 56.7205 11.3282C56.683 11.4294 56.6314 11.5249 56.5673 11.6117C56.1842 12.1557 55.4946 12.7089 54.8448 13.1579C53.6599 13.9457 52.4321 14.667 51.1671 15.3186C50.2236 15.8407 49.2516 16.3093 48.2555 16.7223C47.8448 16.8878 47.5736 17.5774 48.1927 17.7061C48.3842 17.7459 48.8363 17.5069 49.0186 17.4517C49.653 17.2571 50.5725 16.9705 51.7157 16.5368C53.1269 16.0386 54.5 15.4384 55.824 14.7409Z" fill="#B6B2C5"/>
<path d="M16.2338 25.676C15.699 25.6454 15.1305 25.8293 14.5941 25.8661C13.9812 25.9136 13.3805 25.9886 12.7752 26.0515C11.5784 26.1695 10.121 26.2829 8.46452 26.3748C7.63549 26.4147 6.75589 26.4422 5.84411 26.4284C4.93233 26.4147 3.96998 26.3702 3.12562 26.1894C3.04134 26.171 2.96012 26.1496 2.88197 26.1266L2.95246 26.0591C2.17936 26.61 1.4678 27.2424 0.830078 27.9455C1.09169 28.1449 1.38415 28.3002 1.69589 28.4053C2.01547 28.5139 2.34423 28.5934 2.67816 28.6428C3.74528 28.7805 4.82399 28.8046 5.89621 28.7148C6.87848 28.6504 7.79179 28.5478 8.64381 28.4359C10.3494 28.2168 11.8098 27.9302 13.0096 27.6973C14.2095 27.4644 15.1427 27.2376 15.7802 27.0843C16.0867 27.0138 16.4575 27.0383 16.6629 26.7778C16.6818 26.7523 16.6992 26.7257 16.715 26.6982C16.928 26.3135 16.692 25.7036 16.2338 25.676Z" fill="#B6B2C5"/>
</svg>
