<svg width="20" height="20" viewBox="0 0 20 20" fill="none" xmlns="http://www.w3.org/2000/svg">
<g clip-path="url(#clip0_426_4439)">
<path d="M13.2051 6.25478C13.1279 6.17756 13.1279 6.17756 13.2051 6.25478C12.9734 6.02311 12.819 6.02311 12.5873 5.94589L1.54448 6.02311C1.31281 5.94589 1.00392 6.10033 0.849473 6.25478C0.695027 6.40922 0.386137 6.71811 0.463359 6.94978C0.540583 7.49034 0.926695 7.87645 1.46725 7.95368L9.96174 7.95368L10.3479 8.0309C10.5795 8.10812 10.734 8.10812 10.8884 8.26257L10.9656 8.33979C11.1201 8.49423 11.1973 8.7259 11.1973 9.03479L11.3517 9.34368L11.429 9.42091L11.429 17.9154C11.429 18.3787 11.8923 18.8421 12.4329 18.9193C12.9734 18.9965 13.4368 18.5332 13.4368 17.9154L13.4368 7.25867L13.4368 6.94978C13.4368 6.64089 13.3595 6.40922 13.2051 6.25478Z" fill="#01686F"/>
</g>
<defs>
<clipPath id="clip0_426_4439">
<rect width="9.82883" height="17.5827" fill="white" transform="matrix(0.707107 -0.707107 -0.707107 -0.707107 12.4329 19.3828)"/>
</clipPath>
</defs>
</svg>
