<svg width="41" height="40" viewBox="0 0 41 40" fill="none" xmlns="http://www.w3.org/2000/svg">
<path d="M14.2839 39.9022C13.5993 39.9022 13.1103 39.3154 13.1103 38.7286C13.1103 38.4352 13.2081 38.1419 13.5015 37.8485C14.5773 36.7727 15.0663 35.7947 15.3597 35.0123H2.84137C1.27658 35.0123 0.00518799 33.7409 0.00518799 32.1761V9.3888C0.00518799 7.82401 1.27658 6.55261 2.84137 6.55261H6.94895C7.63355 6.55261 8.12255 7.13941 8.12255 7.72621C8.12255 8.313 7.63355 8.8998 6.94895 8.8998H2.84137C2.64577 8.8998 2.45018 9.0954 2.45018 9.291V27.6773H37.5602V9.3888C37.5602 9.1932 37.3646 8.9976 37.169 8.9976H33.0614C32.3768 8.9976 31.8878 8.4108 31.8878 7.82401C31.8878 7.23721 32.4746 6.65041 33.0614 6.65041H37.169C38.7338 6.65041 40.0052 7.92181 40.0052 9.4866V32.2739C40.0052 33.8387 38.7338 35.1101 37.169 35.1101H24.7485C25.0419 35.8925 25.5309 36.8705 26.6067 37.9463C26.9979 38.3375 27.0957 38.8265 26.9001 39.3154C26.7045 39.8044 26.3133 40.0978 25.8243 40.0978H14.2839V39.9022ZM23.1837 37.4573C22.5969 36.4793 22.3035 35.5991 22.2057 35.0123H17.7069C17.6091 35.5991 17.3157 36.4793 16.7289 37.4573H23.1837ZM23.2815 32.5673H37.0712C37.2668 32.5673 37.4624 32.3717 37.4624 32.1761V30.1223H2.45018V32.1761C2.45018 32.3717 2.64577 32.5673 2.84137 32.5673H23.2815Z" fill="#F4A100"/>
<path d="M19.9563 18.6796C19.6629 18.6796 19.3695 18.5818 19.1739 18.3862C18.0003 17.506 16.9245 17.017 15.8487 17.017C15.0663 17.017 14.3817 17.2126 13.5993 17.7016C13.306 17.8972 12.9148 17.995 12.6214 17.995C11.9368 17.995 11.2522 17.6038 10.861 17.017C10.6654 16.7236 10.5676 16.3324 10.5676 16.039V3.61846C10.5676 2.64046 11.0566 1.76027 11.7412 1.27127C13.1104 0.488875 14.4795 -0.00012207 15.8487 -0.00012207C17.2179 -0.00012207 18.5871 0.488875 19.9563 1.36907C21.3255 0.488875 22.6947 -0.00012207 24.0639 -0.00012207C25.4331 -0.00012207 26.8023 0.488875 28.1715 1.36907C28.8561 1.85807 29.3451 2.73826 29.3451 3.61846V15.9412C29.3451 17.017 28.4649 17.995 27.2913 17.995C26.9001 17.995 26.6067 17.8972 26.3133 17.7016C25.5309 17.3104 24.7485 17.017 24.0639 17.017C22.9881 17.017 21.9123 17.506 20.7387 18.3862C20.5431 18.5818 20.2497 18.6796 19.9563 18.6796ZM15.8487 2.44487C14.9685 2.44487 14.0883 2.73826 13.1104 3.32506C13.0126 3.42286 13.0126 3.52066 13.0126 3.61846V15.2566C13.9905 14.7676 14.9685 14.572 15.8487 14.572C16.8267 14.572 17.7069 14.7676 18.6849 15.2566V3.42286C17.8047 2.73826 16.8267 2.44487 15.8487 2.44487ZM21.2277 15.3544C22.2057 14.9632 23.1837 14.6698 24.0639 14.6698C25.0419 14.6698 26.0199 14.8654 26.9001 15.3544V3.61846C26.9001 3.52066 26.9001 3.32506 26.8023 3.32506C25.9221 2.73826 25.0419 2.44487 24.0639 2.44487C23.0859 2.44487 22.2057 2.73826 21.2277 3.42286V15.3544Z" fill="#F4A100"/>
</svg>
