<svg width="40" height="40" viewBox="0 0 40 40" fill="none" xmlns="http://www.w3.org/2000/svg">
<g clip-path="url(#clip0_420_4403)">
<path d="M14.2787 39.9024C13.5941 39.9024 13.1051 39.3156 13.1051 38.7288C13.1051 38.4354 13.2029 38.142 13.4963 37.8486C14.5721 36.7728 15.0611 35.7948 15.3545 35.0124H2.83619C1.27139 35.0124 0 33.741 0 32.1762V9.38892C0 7.82413 1.27139 6.55273 2.83619 6.55273H6.94377C7.62836 6.55273 8.11736 7.13953 8.11736 7.72633C8.11736 8.31313 7.62836 8.89992 6.94377 8.89992H2.83619C2.64059 8.89992 2.44499 9.09552 2.44499 9.29112V27.6774H37.555V9.38892C37.555 9.19332 37.3594 8.99772 37.1638 8.99772H33.0562C32.3716 8.99772 31.8826 8.41093 31.8826 7.82413C31.8826 7.23733 32.4694 6.65053 33.0562 6.65053H37.1638C38.7286 6.65053 40 7.92193 40 9.48672V32.274C40 33.8388 38.7286 35.1102 37.1638 35.1102H24.7433C25.0367 35.8926 25.5257 36.8706 26.6015 37.9464C26.9927 38.3376 27.0905 38.8266 26.8949 39.3156C26.6993 39.8046 26.3081 40.098 25.8191 40.098H14.2787V39.9024ZM23.1785 37.4574C22.5917 36.4794 22.2983 35.5992 22.2005 35.0124H17.7017C17.6039 35.5992 17.3105 36.4794 16.7237 37.4574H23.1785ZM23.2763 32.5674H37.066C37.2616 32.5674 37.4572 32.3718 37.4572 32.1762V30.1224H2.44499V32.1762C2.44499 32.3718 2.64059 32.5674 2.83619 32.5674H23.2763Z" fill="white"/>
<path d="M19.9511 18.6797C19.6577 18.6797 19.3643 18.5819 19.1687 18.3863C17.9951 17.5061 16.9193 17.0171 15.8436 17.0171C15.0612 17.0171 14.3766 17.2127 13.5942 17.7017C13.3008 17.8973 12.9096 17.9951 12.6162 17.9951C11.9316 17.9951 11.247 17.6039 10.8558 17.0171C10.6602 16.7237 10.5624 16.3325 10.5624 16.0391V3.61858C10.5624 2.64059 11.0514 1.76039 11.736 1.27139C13.1052 0.488997 14.4744 0 15.8436 0C17.2127 0 18.5819 0.488998 19.9511 1.36919C21.3203 0.488998 22.6895 0 24.0587 0C25.4279 0 26.7971 0.488998 28.1663 1.36919C28.8509 1.85819 29.3399 2.73839 29.3399 3.61858V15.9413C29.3399 17.0171 28.4597 17.9951 27.2861 17.9951C26.8949 17.9951 26.6015 17.8973 26.3081 17.7017C25.5257 17.3105 24.7433 17.0171 24.0587 17.0171C22.9829 17.0171 21.9071 17.5061 20.7335 18.3863C20.5379 18.5819 20.2445 18.6797 19.9511 18.6797ZM15.8436 2.44499C14.9634 2.44499 14.0832 2.73839 13.1052 3.32518C13.0074 3.42298 13.0074 3.52078 13.0074 3.61858V15.2567C13.9854 14.7677 14.9634 14.5721 15.8436 14.5721C16.8215 14.5721 17.7017 14.7677 18.6797 15.2567V3.42298C17.7995 2.73839 16.8215 2.44499 15.8436 2.44499ZM21.2225 15.3545C22.2005 14.9633 23.1785 14.6699 24.0587 14.6699C25.0367 14.6699 26.0147 14.8655 26.8949 15.3545V3.61858C26.8949 3.52078 26.8949 3.32518 26.7971 3.32518C25.9169 2.73839 25.0367 2.44499 24.0587 2.44499C23.0807 2.44499 22.2005 2.73839 21.2225 3.42298V15.3545Z" fill="white"/>
</g>
<defs>
<clipPath id="clip0_420_4403">
<rect width="40" height="40" fill="white"/>
</clipPath>
</defs>
</svg>
