<svg width="40" height="40" viewBox="0 0 40 40" fill="none" xmlns="http://www.w3.org/2000/svg">
<g clip-path="url(#clip0_420_4397)">
<path d="M31.6 41C30.9 41 30.3 40.4 30.3 39.7V35.4H26.1C25.3 35.4 24.7 34.8 24.7 34V33.7C24.7 32.9 25.3 32.3 26.1 32.3H30.3V28C30.3 27.2 30.9 26.6 31.7 26.6H31.9C32.7 26.6 33.3 27.2 33.3 28V32.3H37.5C38.3 32.3 38.9 32.9 38.9 33.7V33.9C38.9 34.7 38.3 35.3 37.5 35.3H33.3V39.6C33.3 40.4 32.7 41 31.9 41H31.7H31.6ZM4.5 37.3C3.1 37.3 2 36.1 2 34.7V4.3C2 3 3.1 1.8 4.5 1.8H12.9C13.1 1.8 13.3 1.6 13.3 1.4C13.3 0.6 13.9 0 14.7 0H18.7C19.5 0 20.1 0.6 20.1 1.4C20.1 1.6 20.3 1.8 20.5 1.8H29C30.3 1.8 31.5 2.9 31.5 4.3V20.6C31.5 21.4 30.9 22 30.1 22H29.9C29.1 22 28.5 21.4 28.5 20.6V5.4C28.5 5.2 28.3 5 28 5H5.7H5.5C5.3 5 5.1 5.2 5.1 5.4V33.7C5.1 33.9 5.3 34.1 5.5 34.1H15C15.8 34.1 16.4 34.7 16.4 35.5V35.8C16.4 36.6 15.8 37.2 15 37.2H5L4.5 37.3ZM11 29.7C10.2 29.7 9.6 29 9.6 28.2V28C9.6 27.2 10.2 26.6 11 26.6H15C15.8 26.6 16.4 27.2 16.4 28V28.3C16.4 29.1 15.8 29.7 15 29.7H11ZM10.8 22C10.1 22 9.5 21.4 9.5 20.6V20.3C9.5 19.5 10.1 18.9 10.9 18.9H22.4C23.2 18.9 23.8 19.5 23.8 20.3V20.6C23.8 21.4 23.2 22 22.4 22H11C11 22 10.9 22 10.8 22ZM10.8 14.4C10.1 14.4 9.5 13.8 9.5 13V12.7C9.5 11.9 10.1 11.3 10.9 11.3H22.4C23.2 11.3 23.8 11.9 23.8 12.7V13C23.8 13.8 23.2 14.4 22.4 14.4H11C11 14.4 10.9 14.4 10.8 14.4Z" fill="white"/>
</g>
<defs>
<clipPath id="clip0_420_4397">
<rect width="40" height="40" fill="white"/>
</clipPath>
</defs>
</svg>
