<svg width="40" height="40" viewBox="0 0 40 40" fill="none" xmlns="http://www.w3.org/2000/svg">
<g clip-path="url(#clip0_560_1964)">
<path d="M31.6001 41C30.9001 41 30.3001 40.4 30.3001 39.7V35.4H26.1001C25.3001 35.4 24.7001 34.8 24.7001 34V33.7C24.7001 32.9 25.3001 32.3 26.1001 32.3H30.3001V28C30.3001 27.2 30.9001 26.6 31.7001 26.6H31.9001C32.7001 26.6 33.3001 27.2 33.3001 28V32.3H37.5001C38.3001 32.3 38.9001 32.9 38.9001 33.7V33.9C38.9001 34.7 38.3001 35.3 37.5001 35.3H33.3001V39.6C33.3001 40.4 32.7001 41 31.9001 41H31.7001H31.6001ZM4.50006 37.3C3.10006 37.3 2.00006 36.1 2.00006 34.7V4.3C2.00006 3 3.10006 1.8 4.50006 1.8H12.9001C13.1001 1.8 13.3001 1.6 13.3001 1.4C13.3001 0.6 13.9001 0 14.7001 0H18.7001C19.5001 0 20.1001 0.6 20.1001 1.4C20.1001 1.6 20.3001 1.8 20.5001 1.8H29.0001C30.3001 1.8 31.5001 2.9 31.5001 4.3V20.6C31.5001 21.4 30.9001 22 30.1001 22H29.9001C29.1001 22 28.5001 21.4 28.5001 20.6V5.4C28.5001 5.2 28.3001 5 28.0001 5H5.70006H5.50006C5.30006 5 5.10006 5.2 5.10006 5.4V33.7C5.10006 33.9 5.30006 34.1 5.50006 34.1H15.0001C15.8001 34.1 16.4001 34.7 16.4001 35.5V35.8C16.4001 36.6 15.8001 37.2 15.0001 37.2H5.00006L4.50006 37.3ZM11.0001 29.7C10.2001 29.7 9.60006 29 9.60006 28.2V28C9.60006 27.2 10.2001 26.6 11.0001 26.6H15.0001C15.8001 26.6 16.4001 27.2 16.4001 28V28.3C16.4001 29.1 15.8001 29.7 15.0001 29.7H11.0001ZM10.8001 22C10.1001 22 9.50006 21.4 9.50006 20.6V20.3C9.50006 19.5 10.1001 18.9 10.9001 18.9H22.4001C23.2001 18.9 23.8001 19.5 23.8001 20.3V20.6C23.8001 21.4 23.2001 22 22.4001 22H11.0001C11.0001 22 10.9001 22 10.8001 22ZM10.8001 14.4C10.1001 14.4 9.50006 13.8 9.50006 13V12.7C9.50006 11.9 10.1001 11.3 10.9001 11.3H22.4001C23.2001 11.3 23.8001 11.9 23.8001 12.7V13C23.8001 13.8 23.2001 14.4 22.4001 14.4H11.0001C11.0001 14.4 10.9001 14.4 10.8001 14.4Z" fill="#F4A100"/>
</g>
<defs>
<clipPath id="clip0_560_1964">
<rect width="40" height="40" fill="white"/>
</clipPath>
</defs>
</svg>
