<svg width="40" height="40" viewBox="0 0 40 40" fill="none" xmlns="http://www.w3.org/2000/svg">
<path d="M14.6858 27.4496L13.6741 33.9871L33.9869 37.1002L37.1 16.7873L27.4495 15.3086" stroke="white" stroke-width="2.5" stroke-miterlimit="10" stroke-linecap="round" stroke-linejoin="round"/>
<path d="M26.5933 2H2.77827C2.31131 2 2 2.31131 2 2.77827V26.5933C2 26.9825 2.31131 27.3716 2.77827 27.3716H26.5933C26.9825 27.3716 27.3716 27.0603 27.3716 26.5933V2.77827C27.3716 2.31131 26.9825 2 26.5933 2Z" stroke="white" stroke-width="2.5" stroke-miterlimit="10" stroke-linecap="round" stroke-linejoin="round"/>
<path d="M18.1102 8.3042C16.5537 8.3042 15.2306 9.31595 14.608 10.7947C13.9854 9.31595 12.6623 8.3042 11.1058 8.3042C9.00443 8.3042 7.29224 10.172 7.29224 12.5069C7.29224 17.8769 14.5302 20.7565 14.5302 20.7565C14.5302 20.7565 21.6902 17.7991 21.7681 12.5069C21.9237 10.2499 20.2115 8.3042 18.1102 8.3042Z" stroke="white" stroke-width="2.5" stroke-miterlimit="10" stroke-linecap="round" stroke-linejoin="round"/>
</svg>
