<svg width="259" height="113" viewBox="0 0 259 113" fill="none" xmlns="http://www.w3.org/2000/svg">
<path opacity="0.06" fill-rule="evenodd" clip-rule="evenodd" d="M210.592 112.827H7.43946C-0.716453 91.7864 -4.22295 68.5866 7.75326 49.9233C18.7638 32.765 38.7004 31.5106 59.0888 30.2278C68.9915 29.6047 79.0008 28.975 88.1457 26.513C95.4708 24.5409 102.632 21.5623 109.71 18.618C124.822 12.332 139.558 6.20255 154.712 10.3589C180.717 17.4917 205.455 34.3798 213.951 61.0194C215.67 66.4109 216.549 71.8958 216.753 77.4338V82.6027C216.395 92.6246 214.019 102.778 210.592 112.827Z" fill="url(#paint0_linear_806_175)"/>
<g opacity="0.1">
<mask id="mask0_806_175" style="mask-type:alpha" maskUnits="userSpaceOnUse" x="4" y="0" width="255" height="113">
<rect width="254.448" height="113" transform="matrix(1 0 0 -1 4.03613 113)" fill="#D9D9D9"/>
</mask>
<g mask="url(#mask0_806_175)">
<path d="M24.9968 28.2457C27.8185 20.5001 18.1179 15.5296 13.1421 12.7679C15.1491 18.398 18.4615 26.4405 24.9968 28.2457Z" fill="#002C2F"/>
<path d="M25.4994 28.346C28.271 20.349 19.0229 15.4285 13.3435 12.2651C12.9414 12.0643 12.3881 12.4167 12.5385 12.8691C14.7462 19.0018 17.9081 26.6925 24.7951 28.7488C25.4487 28.8991 25.7511 27.8933 25.0473 27.6927C18.5624 25.8372 15.6519 18.2972 13.5444 12.5667C13.2426 12.768 13.0413 12.9693 12.7394 13.1707C17.9665 16.083 26.9132 20.6015 24.3934 28.0451C24.2421 28.6989 25.2475 28.9998 25.4994 28.346Z" fill="#E6F0F1"/>
<path d="M32.2808 36.6375C27.8588 33.0206 19.4141 29.6079 14.5831 34.7404C17.9985 39.5648 27.8535 39.9595 32.5823 36.939" fill="#002C2F"/>
<path d="M32.6833 36.2345C27.8593 32.3162 19.3139 29.0042 14.2314 34.2877C14.0804 34.4387 13.9796 34.7404 14.1806 34.9414C16.24 37.7053 19.6583 38.9095 22.9263 39.2589C26.2447 39.5581 29.9659 39.153 32.8836 37.3406C33.437 36.9882 32.9349 36.0835 32.3815 36.4359C29.7656 38.0469 26.3964 38.502 23.3797 38.2026C20.4133 37.9535 16.9948 36.9505 15.1364 34.3876C15.1362 34.5887 15.0858 34.8401 15.0856 35.0413C19.7153 30.2107 27.6071 33.3724 32.0291 36.9892C32.4813 37.4414 33.2361 36.6866 32.6833 36.2345Z" fill="#E6F0F1"/>
<path d="M40.473 41.5083C44.6002 36.2758 40.7875 24.915 34.7047 23.2604C34.3985 29.0933 34.5444 35.479 40.0709 41.408" fill="#002C2F"/>
<path d="M40.8247 41.8597C43.2406 38.7404 43.0428 34.4163 41.8891 30.8472C40.7855 27.4289 38.4251 23.7601 34.7553 22.707C34.4537 22.6067 34.1015 22.8584 34.051 23.2104C33.8978 26.2777 33.8954 29.3951 34.5969 32.5121C35.3987 36.0312 37.1562 39.097 39.5678 41.7098C40.0702 42.2123 40.825 41.4575 40.3226 40.955C37.9613 38.3925 36.3043 35.4271 35.5527 31.9583C34.9012 29.0927 34.9538 26.126 35.1069 23.1593C34.8554 23.3103 34.6541 23.5116 34.4026 23.6626C37.6702 24.6155 39.7292 27.9828 40.7827 31.0492C41.786 34.1659 42.1348 38.2384 39.9706 41.0056C39.6684 41.6092 40.422 42.3629 40.8247 41.8597Z" fill="#E6F0F1"/>
<path d="M46.655 44.6712C40.4728 41.5082 33.7834 43.9771 30.0584 49.4104C35.7367 53.9817 43.8359 49.0981 47.0574 44.5703" fill="#002C2F"/>
<path d="M46.9573 44.1681C43.9416 42.6619 40.5227 42.2623 37.3039 43.2704C34.1354 44.2282 31.4688 46.3924 29.6064 49.0587C29.5056 49.2599 29.5054 49.5616 29.6561 49.7124C35.4853 54.3338 43.7348 50.0032 47.51 44.7207C47.9127 44.117 46.9577 43.6652 46.6053 44.2186C43.2329 48.8974 35.6371 53.0766 30.4109 48.9575C30.4108 49.1587 30.4609 49.41 30.4607 49.6112C32.1722 47.1963 34.5872 45.1832 37.5043 44.2759C40.4717 43.3182 43.5888 43.7181 46.3533 45.0736C47.0067 45.4251 47.5605 44.4693 46.9573 44.1681Z" fill="#E6F0F1"/>
<path d="M54.5485 45.922C57.3176 41.2437 55.262 33.4515 49.6831 30.2881C46.711 37.4807 49.6746 41.3501 54.2468 45.9222" fill="#002C2F"/>
<path d="M55.0008 46.1736C58.1728 40.5899 55.2623 32.9493 49.9349 29.8359C49.6333 29.635 49.2812 29.8867 49.1804 30.1885C48.0217 33.0554 47.5164 36.2738 48.6706 39.2396C49.7244 42.0043 51.8345 44.2151 53.8945 46.275C54.3969 46.7775 55.1517 46.0227 54.6493 45.5202C52.7401 43.611 50.6801 41.551 49.6765 38.9371C48.5724 36.1222 49.1278 33.1551 50.2361 30.4391C49.9846 30.5901 49.7331 30.6406 49.4816 30.7916C54.3065 33.6037 57.0163 40.6411 54.0961 45.6715C53.7437 46.2249 54.6986 46.7772 55.0008 46.1736Z" fill="#E6F0F1"/>
<path d="M61.4862 47.5259C56.4085 46.5744 46.2974 52.264 45.0365 57.3435C53.6343 57.8899 56.6539 54.2673 61.6365 48.1794" fill="#002C2F"/>
<path d="M61.5871 47.0229C58.1684 46.4222 54.3961 47.9838 51.4784 49.6956C48.6111 51.3571 45.3409 53.8234 44.4332 57.2433C44.3826 57.5953 44.5835 57.8969 44.9354 57.9469C48.3544 58.1454 51.8242 57.6902 54.742 55.8778C57.6095 54.0151 59.7737 51.248 61.9378 48.6819C62.3908 48.1285 61.6371 47.3749 61.1842 47.9283C59.1207 50.3937 57.1577 53.0601 54.4411 54.8724C51.5736 56.735 48.2546 57.1398 44.9362 56.9412C45.0869 57.1925 45.2878 57.3935 45.4385 57.6448C46.1951 54.577 49.3646 52.3119 51.9804 50.8014C54.6465 49.2406 58.1172 47.6793 61.2845 48.2299C62.0388 48.1791 62.291 47.1229 61.5871 47.0229Z" fill="#E6F0F1"/>
<path d="M70.0321 50.3352C72.802 44.5507 66.9753 36.8118 62.1502 34.2008C61.1398 40.4365 64.504 46.5181 69.4792 50.0843" fill="#002C2F"/>
<path d="M70.4844 50.5862C71.945 47.4174 71.1432 43.8982 69.4862 40.9329C67.8292 37.9675 65.3674 35.3045 62.4021 33.6475C62.1508 33.4968 61.6981 33.648 61.6476 34C60.6872 40.4871 64.001 46.7195 69.1772 50.4867C69.7299 50.9388 70.2335 49.9328 69.6807 49.5812C64.9066 46.1154 61.7433 40.2349 62.6027 34.2507C62.3512 34.4017 62.0998 34.4522 61.8482 34.6033C64.5623 36.1096 66.8232 38.4711 68.3296 41.0846C69.8863 43.7484 70.8894 47.0662 69.5295 50.0339C69.2776 50.6877 70.1823 51.1899 70.4844 50.5862Z" fill="#E6F0F1"/>
<path d="M77.1176 55.7098C72.2446 50.0317 62.737 55.7208 59.5657 60.2989C65.0944 63.3115 73.4933 60.9419 77.1176 55.7098Z" fill="#002C2F"/>
<path d="M77.4699 55.3577C73.3002 50.5841 66.2585 53.5058 62.1328 56.8276C60.9756 57.7839 59.9189 58.8406 59.0128 60.048C58.8618 60.2996 59.0124 60.6514 59.2134 60.7518C65.2448 63.9652 73.6438 61.495 77.4694 55.961C77.8218 55.4077 76.9171 54.9055 76.5647 55.4589C73.0411 60.4898 65.2457 62.7585 59.717 59.8464C59.767 60.0977 59.8674 60.2988 59.9175 60.5502C63.1391 56.0223 71.9424 50.736 76.6648 56.0622C77.1673 56.5646 77.9221 55.8098 77.4699 55.3577Z" fill="#E6F0F1"/>
<path d="M81.9406 61.3377C85.5652 55.8039 83.9133 46.1008 78.0832 42.7867C76.1671 49.727 78.0738 54.9549 81.5391 60.3324" fill="#002C2F"/>
<path d="M82.3927 61.5885C86.1684 55.7026 84.5669 45.9492 78.3347 42.3337C78.0332 42.1328 77.6308 42.3342 77.5802 42.6862C76.7733 45.8043 76.5194 49.0728 77.2712 52.24C77.9728 55.2564 79.4289 58.0208 81.0861 60.6844C81.4377 61.2373 82.3431 60.7337 81.9916 60.1809C80.4347 57.7183 79.0288 55.1047 78.3271 52.1889C77.5753 49.1223 77.7788 46.0047 78.5856 42.9871C78.3341 43.1382 78.0826 43.1887 77.8311 43.3397C83.5607 46.6539 84.9113 55.7539 81.488 61.1869C81.0853 61.6901 81.99 62.1922 82.3927 61.5885Z" fill="#E6F0F1"/>
<path d="M85.8056 69.9331C82.0887 64.8072 74.4984 61.947 68.9137 66.3258C73.4855 71.4007 79.7199 72.0999 85.7552 70.1845" fill="#002C2F"/>
<path d="M86.2581 69.6812C82.1895 64.2036 74.2974 61.4442 68.5617 65.974C68.3102 66.125 68.4105 66.5272 68.5611 66.7785C70.7214 69.1401 73.4856 70.8978 76.7032 71.4987C79.8202 72.0997 82.9882 71.7453 85.9556 70.7877C86.6094 70.5357 86.3588 69.5806 85.705 69.7319C82.8885 70.6392 79.8713 71.0437 76.9554 70.4426C73.9389 69.8415 71.3758 68.2848 69.3159 66.0237C69.3158 66.2248 69.3156 66.5265 69.3153 66.8282C74.4975 62.7514 81.736 65.461 85.3526 70.2853C85.7042 70.7376 86.66 70.1837 86.2581 69.6812Z" fill="#E6F0F1"/>
<path d="M88.5665 75.7133C88.3203 68.8249 90.3873 61.7336 96.0723 57.7569C99.7889 63.1845 95.9094 73.3947 89.4221 74.6568" fill="#002C2F"/>
<path d="M89.0694 75.7129C88.8733 69.1764 90.7391 62.1858 96.2732 58.159C96.0218 58.1089 95.8208 58.0085 95.5694 57.9584C99.1354 63.2352 95.6586 72.7412 89.2215 74.0534C88.5678 74.2048 88.8183 75.2605 89.4721 75.1092C96.4624 73.6456 100.392 63.2845 96.4749 57.4549C96.3242 57.2036 95.9724 57.053 95.7711 57.2543C89.9351 61.4824 87.8177 68.7246 88.0135 75.6634C88.0632 76.4176 89.0689 76.4168 89.0694 75.7129Z" fill="#E6F0F1"/>
<path d="M100.472 90.0343C95.3971 85.8648 92.0324 80.4872 89.2714 74.6064C86.7614 69.2784 84.7544 63.6484 81.339 58.824C77.4714 53.4468 72.0437 49.8307 65.7097 47.9248C61.9394 46.7713 57.9676 46.2212 54.1469 45.3191C50.7786 44.5674 47.4104 43.6147 44.1431 42.3601C40.6747 41.0052 37.3072 39.1473 34.3926 36.8366C30.9756 34.124 28.0618 30.8077 25.5001 27.2396C24.8472 26.2848 23.338 27.191 23.9407 28.0956C28.21 34.1764 33.4856 39.3514 40.2209 42.5643C46.6546 45.6768 53.7432 47.1295 60.681 48.5321C64.5019 49.3337 68.2219 50.3364 71.5893 52.2948C74.3034 53.8012 76.7154 55.8106 78.7248 58.2226C82.4924 62.7954 84.6502 68.375 87.0094 73.6528C89.9709 80.338 93.5864 86.5702 99.2647 91.242C100.119 91.9956 101.377 90.7376 100.472 90.0343Z" fill="#E6F0F1"/>
<path d="M31.4265 36.2853C29.1129 37.0916 26.3986 35.8869 24.1868 35.1847C21.3214 34.2315 18.2042 33.9323 15.1869 34.4374C14.5834 34.5384 14.8342 35.393 15.4376 35.292C18.5053 34.7365 21.6223 35.237 24.5379 36.2404C26.7498 36.9426 29.3637 37.9462 31.6773 37.1399C32.1802 36.9384 31.9295 36.0838 31.4265 36.2853Z" fill="#E6F0F1"/>
<path d="M45.9519 44.37C43.3365 45.3777 40.5705 45.9329 37.9553 46.7394C35.4909 47.4956 33.0262 48.5534 30.5117 49.1587C29.9585 49.31 30.2092 50.1646 30.7624 50.0133C33.3273 49.3577 35.7416 48.3502 38.206 47.594C40.9219 46.7874 43.5872 46.2323 46.2026 45.2247C46.7056 45.0231 46.4549 44.1685 45.9519 44.37Z" fill="#E6F0F1"/>
<path d="M24.9478 26.8881C23.0891 24.6269 21.8843 22.0132 20.1263 19.6513C18.4185 17.3396 16.1573 15.3804 14.1476 13.3706C13.7456 12.9687 13.0915 13.6228 13.5437 13.9745C15.6539 16.0847 18.0156 18.1444 19.7736 20.6069C21.3306 22.8684 22.5857 25.3312 24.3439 27.492C24.6452 27.9946 25.2994 27.3404 24.9478 26.8881Z" fill="#E6F0F1"/>
<path d="M60.0785 47.527C58.0153 49.6907 55.1483 50.95 52.6832 52.6112C50.4696 54.1213 48.2559 55.8326 45.6406 56.7397C45.1376 56.9412 45.2878 57.7959 45.8913 57.5943C48.557 56.6369 50.821 54.9759 53.1352 53.3651C55.6506 51.6535 58.6182 50.3942 60.782 48.1299C61.084 47.7274 60.4309 47.0742 60.0785 47.527Z" fill="#E6F0F1"/>
<path d="M76.2132 55.2074C70.4805 56.0163 65.349 59.6405 59.5664 59.7958C58.963 59.7963 58.9624 60.7014 59.5657 60.7009C65.4488 60.5455 70.6809 56.9212 76.464 56.062C77.0171 56.0113 76.7664 55.1567 76.2132 55.2074Z" fill="#E6F0F1"/>
<path d="M70.1333 49.6312C68.5786 44.3528 65.9676 39.5277 62.904 34.9544C62.6027 34.4519 61.8481 34.905 62.1494 35.4076C65.1628 39.9306 67.7235 44.7054 69.2783 49.8833C69.4287 50.4362 70.2837 50.1842 70.1333 49.6312Z" fill="#E6F0F1"/>
<path d="M54.5996 45.1676C54.4527 39.9887 52.2942 35.3142 50.2363 30.6395C49.9853 30.0866 49.2307 30.5397 49.4817 31.0926C51.4895 35.6165 53.5978 40.1402 53.7449 45.118C53.7444 45.7214 54.6495 45.7207 54.5996 45.1676Z" fill="#E6F0F1"/>
<path d="M40.5245 40.452C40.529 34.6193 38.5223 28.6876 35.4086 23.7623C35.1073 23.2597 34.3527 23.7129 34.654 24.2154C37.7176 28.9899 39.6238 34.8211 39.6697 40.5029C39.619 41.0561 40.5241 41.0554 40.5245 40.452Z" fill="#E6F0F1"/>
<path d="M85.3536 69.2796C80.4777 67.4229 75.2998 65.8682 70.0705 65.8722C69.4671 65.8727 69.4664 66.7777 70.0698 66.7773C75.2488 66.8236 80.3764 68.3281 85.1518 70.1849C85.6544 70.3856 85.9065 69.5306 85.3536 69.2796Z" fill="#E6F0F1"/>
<path d="M82.4445 59.8285C82.7984 57.2638 82.0965 54.6497 81.4447 52.1864C81.0938 50.8291 80.7931 49.522 80.3919 48.215C79.9404 46.7571 79.3885 45.2994 78.8365 43.8416C78.6357 43.339 77.7305 43.5408 77.9815 44.0937C78.4833 45.4006 79.0354 46.7578 79.4869 48.1151C79.8881 49.4221 80.1888 50.7292 80.5397 52.0865C81.1413 54.4996 81.9438 57.1136 81.6401 59.628C81.5392 60.1309 82.3938 60.3816 82.4445 59.8285Z" fill="#E6F0F1"/>
<path d="M95.5189 58.4109C94.7603 64.0933 91.5386 68.8223 88.8196 73.752C88.5175 74.255 89.3217 74.6567 89.5735 74.2039C92.2925 69.2742 95.5646 64.3944 96.3232 58.7119C96.4745 58.0582 95.6199 57.8074 95.5189 58.4109Z" fill="#E6F0F1"/>
<path d="M239.71 16.3149C246.748 17.8179 251.032 4.99276 252.142 0.26541C246.911 2.18014 238.206 9.77939 239.71 16.3149Z" fill="#002C2F"/>
<path d="M239.609 16.8175C243.63 17.6189 246.6 14.3483 248.412 11.2294C250.426 7.90925 251.787 4.13707 252.694 0.415518C252.745 0.0635058 252.393 -0.38876 252.041 -0.237644C248.521 1.07239 245.351 3.53863 242.885 6.40659C240.469 9.12367 238.355 12.7456 239.207 16.5161C239.357 17.1696 240.413 16.9174 240.263 16.2638C239.511 12.795 241.726 9.37411 243.94 6.85832C246.205 4.29221 249.123 1.977 252.342 0.767761C252.141 0.566788 251.89 0.315572 251.689 0.114599C250.882 3.53438 249.622 6.90424 247.961 9.9727C246.349 12.8903 243.682 16.5629 239.911 15.8116C239.157 15.6613 238.905 16.7174 239.609 16.8175Z" fill="#E6F0F1"/>
<path d="M226.58 23.3139C230.046 28.3897 239.748 31.4494 244.026 26.066C241.263 23.3026 231.56 21.6508 227.737 22.7599" fill="#002C2F"/>
<path d="M226.077 23.616C229.694 28.9431 239.597 32.3044 244.328 26.468C244.529 26.2667 244.579 25.9147 244.328 25.6635C242.268 23.7041 239.051 22.9021 236.336 22.4013C233.52 21.9007 230.303 21.4003 227.486 22.207C226.833 22.3584 227.083 23.4141 227.737 23.2627C230.352 22.5568 233.419 23.007 236.033 23.5078C237.542 23.8083 238.999 24.1592 240.457 24.7111C241.563 25.1125 242.719 25.6648 243.523 26.4686C243.523 26.2675 243.523 25.9658 243.524 25.6641C239.296 30.8967 230.298 27.8364 226.933 23.0622C226.682 22.5093 225.726 23.0632 226.077 23.616Z" fill="#E6F0F1"/>
<path d="M223.111 22.9646C228.343 19.9436 235.29 9.17799 229.21 3.90307C223.373 10.2431 221.459 13.8648 223.917 22.1594" fill="#002C2F"/>
<path d="M223.362 23.4172C226.028 21.8564 228.142 19.3407 229.703 16.7751C231.314 14.1592 232.523 10.9402 232.023 7.82312C231.722 6.11377 230.919 4.60593 229.612 3.50074C229.411 3.29976 229.06 3.24975 228.808 3.50136C226.443 6.06755 224.027 8.78462 222.918 12.1041C221.81 15.4235 222.41 18.9428 223.363 22.2104C223.513 22.8639 224.57 22.6117 224.419 21.9582C223.517 18.8414 222.916 15.5232 223.924 12.405C224.982 9.23643 227.347 6.67024 229.562 4.25501C229.36 4.25516 229.059 4.25539 228.757 4.25562C231.722 6.91828 231.216 10.9412 229.755 14.2107C228.244 17.4299 225.828 20.6498 222.81 22.4622C222.256 22.8146 222.809 23.7696 223.362 23.4172Z" fill="#E6F0F1"/>
<path d="M211.091 26.6444C216.926 23.3213 225.015 32.0138 226.721 36.739C221.342 35.4861 212.192 33.5824 210.135 27.0976" fill="#002C2F"/>
<path d="M211.392 27.1472C214.461 25.4855 217.929 27.3433 220.341 29.2522C222.753 31.2616 225.164 33.8744 226.218 36.8402C226.419 36.6389 226.671 36.3873 226.872 36.186C223.755 35.4845 220.638 34.7829 217.723 33.4778C214.707 32.1728 211.792 30.1638 210.638 26.8964C210.387 26.2429 209.381 26.5454 209.582 27.1486C211.89 33.9851 220.336 35.7888 226.57 37.1919C226.922 37.2419 227.324 36.9399 227.224 36.5377C226.02 33.2201 223.407 30.2051 220.593 28.0955C217.88 25.9857 214.11 24.3293 210.79 26.142C210.186 26.5447 210.738 27.4997 211.392 27.1472Z" fill="#E6F0F1"/>
<path d="M205.96 29.8664C208.728 26.2943 212.149 24.1798 212.052 19.0511C211.903 16.3863 210.951 12.9176 208.89 11.1593C205.317 16.14 202.395 23.4834 206.514 28.7095" fill="#002C2F"/>
<path d="M206.362 30.2687C208.526 27.5015 211.545 25.1863 212.352 21.6659C212.806 19.8051 212.606 17.794 212.105 15.9842C211.603 14.0739 210.75 12.2141 209.243 10.908C208.991 10.6568 208.589 10.7576 208.438 11.0092C204.713 16.1408 201.841 23.635 206.111 29.213C206.563 29.7657 207.268 28.9607 206.866 28.4582C202.898 23.2822 205.97 16.1901 209.292 11.5616C209.041 11.6121 208.739 11.6123 208.488 11.6628C209.844 12.9188 210.648 14.7283 211.099 16.4878C211.55 18.2474 211.699 20.1077 211.195 21.8176C210.288 24.9358 207.521 27.1001 205.558 29.5654C205.205 30.0182 205.909 30.8222 206.362 30.2687Z" fill="#E6F0F1"/>
<path d="M200.976 37.3622C207.313 35.1449 215.758 38.0548 219.123 44.1363C212.736 44.996 203.082 45.2046 200.624 37.5133" fill="#002C2F"/>
<path d="M201.127 37.8146C207.464 35.6979 215.356 38.4573 218.62 44.3378C218.771 44.0862 218.821 43.8348 218.972 43.5833C212.737 44.3926 203.535 44.6511 201.077 37.3621C200.826 36.7086 199.82 37.0111 200.021 37.6143C202.679 45.6071 212.283 45.5494 219.223 44.639C219.575 44.5884 219.726 44.1358 219.575 43.8845C216.061 37.5517 207.666 34.5915 200.876 36.8594C200.172 37.0611 200.473 38.0665 201.127 37.8146Z" fill="#E6F0F1"/>
<path d="M197.099 44.5556C197.656 39.5772 194.896 31.7857 186.752 29.479C186.898 35.9652 189.759 43.0528 196.143 45.21" fill="#002C2F"/>
<path d="M197.652 44.5049C198.006 41.4375 197.154 38.2704 195.597 35.6066C193.689 32.2895 190.523 30.0292 186.904 28.9258C186.602 28.8255 186.2 29.1275 186.199 29.4292C186.395 36.0662 189.306 43.3046 195.992 45.6627C196.645 45.9136 196.897 44.8575 196.244 44.6066C190.061 42.3486 187.401 35.4621 187.255 29.3781C187.004 29.5291 186.802 29.7304 186.551 29.8814C192.835 31.737 197.205 37.8178 196.496 44.4555C196.545 45.2097 197.551 45.2089 197.652 44.5049Z" fill="#E6F0F1"/>
<path d="M194.477 53.5078C197.75 48.5273 208.86 50.6809 211.622 55.1539C204.882 57.7737 200.004 59.3362 194.628 53.6585" fill="#002C2F"/>
<path d="M194.93 53.7588C196.692 51.1931 200.463 50.9388 203.278 51.3389C206.094 51.739 209.562 52.8928 211.169 55.4057C211.32 55.1541 211.371 54.9027 211.522 54.6512C208.756 55.7092 205.788 56.9685 202.771 56.9709C199.704 57.0235 197.141 55.4667 195.031 53.2559C194.528 52.7535 193.773 53.5083 194.276 54.0107C196.486 56.322 199.251 57.9792 202.519 58.027C205.737 58.0245 208.855 56.8153 211.823 55.6566C212.125 55.5558 212.376 55.2036 212.175 54.9021C210.769 52.6908 208.206 51.4357 205.743 50.7839C203.078 50.0317 200.011 49.7827 197.396 50.7903C196.088 51.2941 194.881 52.0996 194.075 53.307C193.622 53.8604 194.527 54.3625 194.93 53.7588Z" fill="#E6F0F1"/>
<path d="M191.302 62.8121C193.67 57.1284 187.292 47.7306 181.913 45.9749C182.964 52.0582 183.46 60.5051 190.045 63.5673" fill="#002C2F"/>
<path d="M191.805 62.9128C193.165 59.5429 191.71 55.5717 189.953 52.6064C188.145 49.5909 185.432 46.5761 182.014 45.3719C181.611 45.2717 181.309 45.6742 181.36 46.0261C182.511 52.5116 182.957 60.7072 189.793 63.92C190.396 64.2212 190.95 63.2654 190.297 63.0145C183.813 59.9523 183.517 51.9074 182.416 45.7739C182.214 45.9752 181.963 46.2268 181.761 46.4281C184.878 47.5319 187.34 50.396 188.997 53.1603C190.654 55.9245 192.009 59.4935 190.749 62.6622C190.498 63.316 191.553 63.5666 191.805 62.9128Z" fill="#E6F0F1"/>
<path d="M186.72 71.5148C191.802 68.0414 199.394 68.1864 203.413 73.3121C199.791 75.2256 189.481 77.8984 187.524 72.6204" fill="#002C2F"/>
<path d="M186.971 71.9671C191.952 68.6949 199.142 68.7397 203.06 73.6643C203.111 73.4128 203.111 73.1111 203.161 72.8597C200.747 74.1689 197.83 74.8751 195.064 75.1286C192.651 75.3316 189.03 75.2338 188.027 72.5194C187.776 71.8659 186.77 72.1683 186.971 72.7716C188.928 77.748 196.27 76.3344 200.193 75.1247C201.35 74.7718 202.557 74.3686 203.663 73.7644C204.016 73.6133 203.966 73.1608 203.765 72.9598C199.595 67.6834 191.701 67.5386 186.419 71.1127C185.916 71.4148 186.418 72.3195 186.971 71.9671Z" fill="#E6F0F1"/>
<path d="M181.736 79.5135C184.004 72.3215 181.896 67.9989 176.771 63.1758C175.661 67.9031 175.553 77.155 180.63 79.8161" fill="#002C2F"/>
<path d="M182.289 79.6635C183.196 76.6459 183.601 73.4275 182.548 70.3611C181.494 67.3953 179.384 64.9834 177.173 62.8733C176.872 62.5718 176.369 62.6728 176.318 63.1253C175.562 66.1931 175.509 69.4615 175.909 72.5786C176.359 75.5449 177.613 78.8123 180.428 80.3186C181.031 80.6198 181.535 79.7143 180.932 79.4131C178.318 78.0072 177.264 74.9408 176.864 72.1254C176.515 69.2596 176.617 66.2426 177.324 63.4262C177.022 63.527 176.72 63.6278 176.469 63.6783C178.579 65.688 180.588 67.8988 181.592 70.7138C182.545 73.5792 182.191 76.6466 181.334 79.5133C181.032 80.0164 182.037 80.3173 182.289 79.6635Z" fill="#E6F0F1"/>
<path d="M152.97 86.2733C156.79 87.9799 160.912 89.1835 165.186 89.0294C168.756 88.8758 172.176 87.8675 175.245 86.0047C181.633 82.2287 186.013 75.739 189.337 69.1998C192.56 62.8618 194.878 56.0217 196.743 49.1316C198.206 43.7504 200.473 38.2679 203.945 33.8907C207.116 29.916 211.544 26.0912 216.624 24.7297C224.016 22.763 232.713 25.1196 238.45 18.8802C239.205 18.0248 239.91 17.1192 240.464 16.1634C241.068 15.1573 239.51 14.3037 238.906 15.3098C236.791 18.8312 233.571 20.8449 229.548 21.552C225.777 22.2085 221.955 22.0103 218.234 22.6166C213.457 23.3745 209.432 25.8917 205.91 29.1124C201.734 32.9873 198.763 37.8669 196.748 43.0978C195.287 46.7695 194.429 50.6419 193.169 54.414C192.111 57.7837 190.851 61.1535 189.441 64.3726C186.519 71.0121 182.743 77.7025 177.058 82.3831C174.441 84.4969 171.373 86.1586 168.054 86.7645C164.282 87.5216 160.461 87.0217 156.892 85.868C155.786 85.4666 154.73 85.1154 153.675 84.5631C152.77 84.2621 151.914 85.8215 152.97 86.2733Z" fill="#E6F0F1"/>
<path d="M251.236 0.668021C249.122 3.18374 247.059 5.7497 245.096 8.41614C243.233 10.9819 240.919 13.1961 239.458 15.9628C239.156 16.4658 239.961 16.8674 240.212 16.4147C241.622 13.6984 243.836 11.5849 245.699 9.11963C247.662 6.45318 249.725 3.78666 251.94 1.27086C252.242 0.868375 251.588 0.215213 251.236 0.668021Z" fill="#E6F0F1"/>
<path d="M243.021 25.7656C240.306 25.8682 237.591 25.7698 234.876 25.3696C232.261 24.9693 229.597 24.3177 227.335 22.8613C226.833 22.56 226.38 23.3146 226.882 23.6159C229.194 25.1225 231.909 25.8244 234.624 26.2246C237.389 26.675 240.154 26.7231 242.97 26.6204C243.624 26.6702 243.624 25.7651 243.021 25.7656Z" fill="#E6F0F1"/>
<path d="M226.319 35.633C223.605 34.4284 221.344 32.3685 218.881 30.8117C216.419 29.1543 213.906 27.6478 211.041 26.8957C210.488 26.7453 210.235 27.6003 210.788 27.7507C213.704 28.553 216.217 30.0595 218.68 31.7169C221.092 33.3241 223.253 35.2834 225.917 36.4379C226.319 36.6387 226.772 35.8841 226.319 35.633Z" fill="#E6F0F1"/>
<path d="M218.419 43.3325C212.84 41.1747 207.008 39.6707 201.53 37.1106C201.027 36.9098 200.574 37.6644 201.076 37.8652C206.555 40.4253 212.437 41.9795 218.117 44.1373C218.72 44.4385 218.922 43.5333 218.419 43.3325Z" fill="#E6F0F1"/>
<path d="M210.768 54.4006C205.59 53.7509 200.461 53.1515 195.283 52.3007C194.73 52.2508 194.478 53.1058 195.031 53.1557C200.209 54.0065 205.488 54.6561 210.717 55.2555C211.321 55.3556 211.321 54.4505 210.768 54.4006Z" fill="#E6F0F1"/>
<path d="M202.659 72.5586C197.883 71.2047 192.904 72.7672 188.179 71.363C187.626 71.2125 187.374 72.0675 187.927 72.218C192.652 73.6222 197.631 72.0596 202.407 73.4136C202.96 73.564 203.162 72.7593 202.659 72.5586Z" fill="#E6F0F1"/>
<path d="M228.707 4.10436C227.647 10.0887 226.284 16.0733 223.867 21.6062C223.665 22.1091 224.419 22.5611 224.621 22.0581C227.089 16.3744 228.501 10.44 229.562 4.35511C229.663 3.75165 228.758 3.55122 228.707 4.10436Z" fill="#E6F0F1"/>
<path d="M208.337 11.8133C209.087 17.2934 207.725 22.9763 206.364 28.257C206.212 28.8102 207.067 29.0609 207.218 28.5077C208.63 23.0762 209.942 17.2425 209.142 11.6115C209.092 11.0585 208.237 11.21 208.337 11.8133Z" fill="#E6F0F1"/>
<path d="M196.948 44.5054C194.136 39.5799 191.676 34.5033 187.657 30.3833C187.255 29.9814 186.651 30.5852 187.053 30.9872C191.022 34.9564 193.432 40.0833 196.194 44.8579C196.445 45.4108 197.25 45.008 196.948 44.5054Z" fill="#E6F0F1"/>
<path d="M191.101 63.2148C189.092 60.9034 188.843 57.5347 187.688 54.7701C187.086 53.2621 186.232 51.9052 185.429 50.4979C184.525 48.9901 183.571 47.4321 182.466 46.1257C182.114 45.6734 181.46 46.3276 181.862 46.7295C183.017 48.1868 184.022 49.795 184.925 51.4034C185.779 52.8609 186.683 54.3686 187.185 55.9773C188.088 58.6918 188.538 61.6581 190.447 63.869C190.849 64.271 191.503 63.6168 191.101 63.2148Z" fill="#E6F0F1"/>
<path d="M181.284 79.2622C180.282 74.0336 179.13 68.8555 177.374 63.8789C177.173 63.3763 176.318 63.5278 176.519 64.131C178.375 69.1075 179.528 74.2856 180.429 79.5142C180.529 80.017 181.384 79.8655 181.284 79.2622Z" fill="#E6F0F1"/>
<path d="M122.129 109.879C122.695 92.7328 113.611 71.1689 97.0236 63.4382C93.694 77.8214 98.9019 105.674 120.971 111.037" fill="#002C2F"/>
<path d="M122.984 109.828C123.19 102.588 121.838 95.2977 119.279 88.5117C116.62 81.5245 112.703 74.8903 107.377 69.6651C104.412 66.8013 101.096 64.3903 97.3761 62.5831C96.8735 62.3823 96.2197 62.5337 96.1187 63.1371C94.5545 70.1275 94.951 77.6695 96.6553 84.6071C98.5098 92.2988 102.175 99.8885 108.204 105.214C111.772 108.379 116.094 110.588 120.719 111.791C121.825 112.092 122.279 110.332 121.173 110.031C113.281 108.076 106.949 102.851 102.982 95.8653C99.216 89.3819 97.3111 81.7405 97.0152 74.1984C96.8671 70.6285 97.071 67.0081 97.8783 63.4877C97.4758 63.6892 97.0232 63.8404 96.6208 64.0418C109.74 70.2164 117.573 84.2893 120.277 98.0644C121.079 101.885 121.378 105.807 121.274 109.729C121.172 111.036 122.932 110.985 122.984 109.828Z" fill="#E6F0F1"/>
<path d="M118.914 106.161C110.926 96.5632 107.919 84.0956 102.799 72.937C101.393 69.8206 99.7361 66.8552 97.7773 63.9906C97.2248 63.2368 96.0175 63.9417 96.57 64.6955C103.652 74.9979 106.307 87.516 112.182 98.5232C113.839 101.589 115.747 104.504 117.957 107.218C118.46 107.921 119.466 106.915 118.914 106.161Z" fill="#E6F0F1"/>
<path d="M102.998 75.4506C100.837 74.7986 98.7758 73.7443 96.9667 72.4384C96.4139 72.0868 95.9103 72.9923 96.4632 73.3438C98.3729 74.6497 100.534 75.7039 102.746 76.4062C103.4 76.6571 103.652 75.601 102.998 75.4506Z" fill="#E6F0F1"/>
<path d="M106.11 82.7896C103.194 81.7862 100.128 81.4366 97.2625 80.1817C96.6593 79.8805 96.1055 80.8363 96.759 81.0872C99.6743 82.3923 102.842 82.7418 105.808 83.7955C106.511 84.0966 106.764 83.0405 106.11 82.7896Z" fill="#E6F0F1"/>
<path d="M109.824 91.4348C106.407 89.5268 102.535 89.2783 98.9158 87.9738C98.2624 87.7229 98.0101 88.779 98.6636 89.0299C102.182 90.3345 106.004 90.5327 109.321 92.3403C109.924 92.6415 110.427 91.7361 109.824 91.4348Z" fill="#E6F0F1"/>
<path d="M105.308 80.075C106.165 77.4094 106.67 74.5932 108.079 72.1786C108.432 71.6252 107.477 71.0729 107.175 71.6765C105.664 74.1917 105.109 77.0582 104.252 79.8244C104.05 80.4279 105.106 80.6785 105.308 80.075Z" fill="#E6F0F1"/>
<path d="M108.721 87.8158C110.282 84.6468 112.145 81.5782 113.103 78.2086C113.254 77.5548 112.249 77.2539 112.047 77.958C111.039 81.2773 109.277 84.2453 107.766 87.364C107.413 87.9173 108.368 88.4697 108.721 87.8158Z" fill="#E6F0F1"/>
<path d="M111.933 95.6571C113.04 94.0472 113.695 92.1863 114.401 90.3756C114.804 89.4702 115.207 88.5648 115.76 87.7096C116.264 86.9047 116.767 86.0998 117.17 85.1944C117.422 84.5406 116.366 84.29 116.115 84.9438C115.762 85.8994 115.158 86.7044 114.654 87.5093C114.151 88.3142 113.798 89.1693 113.446 90.0243C112.74 91.7345 112.136 93.5451 111.028 95.1549C110.575 95.7084 111.48 96.2105 111.933 95.6571Z" fill="#E6F0F1"/>
<path d="M114.845 101.186C116.707 98.7208 118.218 96.105 120.03 93.5895C120.382 93.0361 119.478 92.534 119.125 93.0874C117.414 95.5022 115.954 98.0677 114.142 100.483C113.991 100.734 113.94 100.986 114.141 101.287C114.241 101.388 114.694 101.438 114.845 101.186Z" fill="#E6F0F1"/>
<path d="M136.817 101.823C158.793 98.1353 174.095 77.3069 177.027 56.7896C157.818 58.2123 135.374 81.862 135.561 100.868" fill="#002C2F"/>
<path d="M137.068 102.677C154.267 99.7477 167.702 86.3122 174.201 70.5689C175.964 66.1931 177.275 61.6667 177.932 56.99C178.033 56.4871 177.681 55.8337 177.078 55.8342C168.58 56.4943 160.682 60.8749 154.141 66.2098C147.198 71.9473 141.159 79.2931 137.683 87.5923C135.92 91.767 134.71 96.2933 134.756 100.869C134.755 101.975 136.515 102.024 136.566 100.868C136.522 92.7722 140.3 84.9756 145.031 78.5359C150.115 71.5428 156.908 65.4535 164.604 61.4753C168.527 59.461 172.802 57.9996 177.177 57.6442C176.876 57.2422 176.625 56.8904 176.323 56.4884C173.948 72.6307 164.382 88.326 149.945 96.3319C145.87 98.5977 141.394 100.16 136.768 100.968C135.46 101.17 135.962 102.879 137.068 102.677Z" fill="#E6F0F1"/>
<path d="M175.267 57.0424C164.448 67.8613 153.88 78.9314 144.619 91.1067C142.002 94.5279 139.485 98.0496 137.119 101.621C136.615 102.426 137.872 103.079 138.325 102.324C146.682 89.647 156.747 78.175 167.264 67.2558C170.233 64.1863 173.202 61.1168 176.272 58.0473C176.926 57.3931 175.921 56.3882 175.267 57.0424Z" fill="#E6F0F1"/>
<path d="M167.366 66.1497C167.568 63.9372 167.268 61.725 167.823 59.5624C167.975 58.9087 166.969 58.6077 166.767 59.3118C166.213 61.575 166.513 63.8877 166.31 66.2008C166.309 66.5025 166.561 66.7537 166.862 66.7535C167.164 66.6527 167.365 66.4514 167.366 66.1497Z" fill="#E6F0F1"/>
<path d="M161.076 72.4397C160.424 69.4736 160.728 66.4564 160.831 63.4394C160.832 62.7355 159.776 62.7866 159.725 63.4403C159.622 66.5578 159.318 69.6755 160.02 72.6919C160.22 73.3957 161.226 73.0932 161.076 72.4397Z" fill="#E6F0F1"/>
<path d="M155.037 78.8803C153.732 75.7638 153.433 72.3449 153.285 68.9761C153.235 68.3225 152.179 68.273 152.179 68.977C152.377 72.4966 152.726 76.0663 154.081 79.3336C154.182 79.6352 154.584 79.6349 154.785 79.5342C155.087 79.4334 155.188 79.1316 155.037 78.8803Z" fill="#E6F0F1"/>
<path d="M149.5 85.7231C148.145 82.7575 147.091 79.6912 145.837 76.6249C145.586 75.9715 144.58 76.2739 144.781 76.8772C145.985 79.9937 147.139 83.1606 148.494 86.2267C148.896 86.8298 149.802 86.3263 149.5 85.7231Z" fill="#E6F0F1"/>
<path d="M144.266 92.2638C142.71 89.7006 142.058 86.7345 141.004 83.8693C140.754 83.2158 139.748 83.5183 139.948 84.1215C141.002 86.9867 141.704 90.1037 143.311 92.7171C143.662 93.3705 144.618 92.8166 144.266 92.2638Z" fill="#E6F0F1"/>
<path d="M164.396 70.3254C167.463 69.8705 170.481 69.667 173.548 69.1116C174.202 68.9602 173.901 67.9548 173.298 68.0559C170.28 68.6616 167.213 68.8148 164.145 69.2696C163.894 69.3201 163.693 69.622 163.793 69.9236C163.843 70.2755 164.145 70.3759 164.396 70.3254Z" fill="#E6F0F1"/>
<path d="M158.458 76.5652C162.38 76.5622 166.251 77.1124 170.173 77.0088C170.877 77.0082 170.878 75.902 170.174 75.9026C166.252 76.0062 162.381 75.456 158.459 75.459C157.755 75.4596 157.804 76.5155 158.458 76.5652Z" fill="#E6F0F1"/>
<path d="M152.519 83.2068C156.592 83.7568 160.564 84.2062 164.636 84.9573C165.289 85.1077 165.542 84.0516 164.888 83.9012C160.866 83.2004 156.844 82.7006 152.772 82.1507C152.118 82.1009 151.866 83.157 152.519 83.2068Z" fill="#E6F0F1"/>
<path d="M143.352 104.935C164.865 114.271 178.849 107.12 190.931 88.5069C177.007 82.8357 153.168 89.7929 143.201 103.879" fill="#002C2F"/>
<path d="M142.898 105.69C149.986 108.752 157.727 110.757 165.422 109.494C172.261 108.383 178.348 104.607 183.179 99.6756C186.449 96.4048 189.168 92.6819 191.685 88.8585C192.037 88.3051 191.635 87.8026 191.132 87.6019C184.899 85.0926 177.759 85.1986 171.322 86.4103C164.03 87.7735 156.938 90.6451 150.952 95.0242C147.681 97.3899 144.813 100.158 142.447 103.428C141.793 104.384 143.351 105.237 144.006 104.281C148.032 98.6467 153.969 94.519 160.256 91.7487C166.594 88.9281 173.584 87.2634 180.573 87.4089C184.043 87.4565 187.512 88.0069 190.729 89.3118C190.528 88.9097 190.378 88.4573 190.177 88.0552C186.2 94.1423 181.469 100.079 175.18 103.956C169.597 107.429 163.109 108.692 156.674 107.892C152.199 107.342 147.876 105.938 143.804 104.181C142.749 103.729 141.843 105.238 142.898 105.69Z" fill="#E6F0F1"/>
<path d="M189.523 88.4073C179.764 93.7447 169.403 97.7752 158.59 100.348C155.523 101.104 152.455 101.66 149.337 102.165C148.432 102.266 148.833 103.674 149.688 103.522C160.701 101.754 171.464 98.5278 181.675 93.8438C184.592 92.5342 187.459 91.0738 190.276 89.5632C191.031 89.2106 190.328 88.0044 189.523 88.4073Z" fill="#E6F0F1"/>
<path d="M182.425 98.4189C180.717 97.1128 179.008 95.9074 177.148 94.8529C176.596 94.5013 176.042 95.4571 176.645 95.7584C178.404 96.8129 180.113 97.9178 181.671 99.1737C181.922 99.3243 182.223 99.4246 182.475 99.173C182.626 99.0221 182.626 98.6198 182.425 98.4189Z" fill="#E6F0F1"/>
<path d="M176.388 103.15C174.026 101.493 171.765 99.7344 169.654 97.7248C169.152 97.2223 168.397 97.9771 168.899 98.4796C171.01 100.59 173.422 102.398 175.834 104.106C176.437 104.508 176.991 103.552 176.388 103.15Z" fill="#E6F0F1"/>
<path d="M169.496 106.926C167.185 104.816 164.874 102.706 162.663 100.495C162.161 99.9929 161.406 100.748 161.908 101.25C164.119 103.461 166.43 105.571 168.742 107.681C169.244 108.183 169.999 107.429 169.496 106.926Z" fill="#E6F0F1"/>
<path d="M175.237 96.0608C177.703 93.1929 179.767 90.0236 182.082 87.0049C182.535 86.4514 181.53 85.9494 181.178 86.5027C178.963 89.4208 176.949 92.5398 174.534 95.3574C174.03 95.8606 174.784 96.6143 175.237 96.0608Z" fill="#E6F0F1"/>
<path d="M166.485 99.2857C169.756 95.8138 171.519 91.3373 173.886 87.2627C174.238 86.7093 173.283 86.157 172.981 86.7606C170.665 90.6843 168.902 95.1608 165.782 98.5823C165.228 99.0353 165.982 99.789 166.485 99.2857Z" fill="#E6F0F1"/>
<path d="M160.149 100.598C161.005 98.6361 162.113 96.8251 162.969 94.8635C163.372 93.9581 163.775 93.0527 164.027 92.0972C164.279 91.1416 164.531 90.1861 165.135 89.3811C165.588 88.8277 164.583 88.3256 164.231 88.879C163.677 89.6336 163.375 90.5389 163.173 91.4442C162.87 92.45 162.518 93.5062 162.064 94.4619C161.208 96.4236 160.1 98.2346 159.244 100.196C158.992 100.649 159.897 101.252 160.149 100.598Z" fill="#E6F0F1"/>
<path d="M118.105 110.787C110.926 95.8592 90.8766 79.4324 74.2818 81.6576C77.5894 96.0356 92.2553 117.344 118.105 110.787Z" fill="#002C2F"/>
<path d="M118.91 110.384C115.697 103.75 110.774 97.9208 105.297 93.0477C99.6192 88.0741 92.935 83.8053 85.6457 81.7494C81.8754 80.6963 78.0542 80.297 74.1319 80.8029C73.6793 80.8535 73.3771 81.4571 73.4774 81.8593C75.031 88.5456 78.3447 94.9791 82.7654 100.205C87.8392 106.285 94.7746 110.805 102.617 112.308C107.846 113.309 113.226 112.953 118.356 111.642C119.463 111.339 119.011 109.68 117.905 109.882C109.557 112.001 100.808 111.303 93.2692 106.884C87.037 103.269 82.1641 97.5908 78.8503 91.2579C77.1935 88.0914 75.9389 84.824 75.0868 81.3552C74.8351 81.7074 74.684 82.0595 74.4323 82.4116C81.221 81.5516 88.1078 83.9096 93.9883 87.1734C100.522 90.7887 106.2 95.7622 110.922 101.491C113.384 104.455 115.493 107.672 117.15 111.14C117.803 112.296 119.362 111.44 118.91 110.384Z" fill="#E6F0F1"/>
<path d="M108.454 107.174C98.4514 102.506 91.4689 93.8123 83.2784 86.8295C81.0172 84.8702 78.6553 83.1121 76.1424 81.5051C75.3383 81.0028 74.6837 82.2604 75.4376 82.7124C84.5845 88.4375 91.3155 97.1813 99.8585 103.611C102.321 105.469 104.934 107.076 107.749 108.382C108.654 108.783 109.359 107.576 108.454 107.174Z" fill="#E6F0F1"/>
<path d="M83.2279 87.2821C80.9149 87.3845 78.5519 87.0343 76.239 86.9355C75.535 86.9361 75.5845 87.992 76.2382 88.0417C78.551 88.1405 80.914 88.4907 83.2271 88.3883C83.8808 88.3376 83.9319 87.2816 83.2279 87.2821Z" fill="#E6F0F1"/>
<path d="M88.6037 92.6582C85.4861 92.8617 82.3179 93.4173 79.1001 93.118C78.4465 93.0683 78.3954 94.1242 79.0992 94.2242C82.2668 94.4732 85.435 93.9177 88.6029 93.7644C89.2566 93.7136 89.2574 92.6074 88.6037 92.6582Z" fill="#E6F0F1"/>
<path d="M93.7792 97.4308C92.4208 98.3872 90.7612 98.8411 89.1518 99.2446C87.5425 99.648 85.8829 100.001 84.2736 100.405C83.6198 100.556 83.8704 101.612 84.5242 101.461C86.1839 101.007 87.8937 100.704 89.5533 100.25C91.213 99.7961 92.9229 99.2919 94.2813 98.3355C94.8347 97.9831 94.2823 97.0282 93.7792 97.4308Z" fill="#E6F0F1"/>
<path d="M99.1055 102.053C96.0374 103.212 93.12 104.622 89.9015 105.228C89.1974 105.329 89.4983 106.334 90.152 106.283C93.3705 105.678 96.3382 104.318 99.3561 103.109C100.01 102.857 99.7593 101.801 99.1055 102.053Z" fill="#E6F0F1"/>
<path d="M86.8457 90.0953C86.0934 87.6321 85.1902 85.2192 84.8402 82.6551C84.7901 82.4038 84.6394 82.1525 84.2875 82.1025C83.9858 82.1027 83.7342 82.3543 83.734 82.656C84.0839 85.3207 84.9871 87.8341 85.7896 90.3475C86.0405 91.001 87.0966 90.7488 86.8457 90.0953Z" fill="#E6F0F1"/>
<path d="M91.9708 95.1196C92.0737 92.0021 92.227 88.8342 92.7825 85.7666C92.8836 85.0626 91.8278 84.812 91.7267 85.516C91.1712 88.6842 90.9676 91.9024 90.8646 95.1205C90.864 95.8244 91.9702 95.8236 91.9708 95.1196Z" fill="#E6F0F1"/>
<path d="M97.4478 100.093C97.8526 96.7741 98.6598 93.2538 100.171 90.2357C100.473 89.6321 99.5178 89.0797 99.2659 89.7336C97.7046 93.0031 96.8471 96.5737 96.3918 100.144C96.341 100.798 97.397 100.747 97.4478 100.093Z" fill="#E6F0F1"/>
<path d="M102.774 105.117C104.385 101.998 105.041 98.5284 106.402 95.2591C106.653 94.6052 105.749 94.1031 105.497 94.7569C104.187 97.976 103.48 101.496 101.869 104.615C101.517 105.269 102.421 105.771 102.774 105.117Z" fill="#E6F0F1"/>
<path d="M132.148 93.0266C130.346 82.1671 125.627 71.8126 119.349 62.817C117.641 60.3042 115.732 57.8922 113.673 55.6311C112.919 54.7769 111.661 56.0349 112.415 56.8891C119.548 64.9287 125.072 74.5786 128.282 84.8336C129.185 87.6487 129.937 90.6147 130.387 93.581C130.588 94.5865 132.298 94.1829 132.148 93.0266Z" fill="#E6F0F1"/>
<path d="M118.946 63.8227C115.829 63.8251 112.661 63.0733 109.695 62.2208C109.042 62.0705 108.739 63.0763 109.443 63.2769C112.51 64.2299 115.727 64.9314 118.995 64.9792C119.649 64.9284 119.65 63.8222 118.946 63.8227Z" fill="#E6F0F1"/>
<path d="M121.709 67.391C121.81 65.5808 121.963 63.7202 122.316 61.9601C122.619 60.2503 123.023 58.3393 124.13 56.9305C124.583 56.3771 123.578 55.875 123.225 56.4284C122.118 57.9377 121.614 59.9493 121.311 61.7597C120.957 63.6204 120.805 65.5815 120.703 67.4923C120.602 68.0958 121.708 68.0949 121.709 67.391Z" fill="#E6F0F1"/>
<path d="M123.917 72.8195C120.8 72.4196 117.834 71.1649 114.666 71.4187C114.012 71.4695 113.961 72.5255 114.665 72.5249C117.733 72.2711 120.648 73.4757 123.665 73.8756C123.916 73.9257 124.218 73.8249 124.319 73.5231C124.419 73.2214 124.168 72.8696 123.917 72.8195Z" fill="#E6F0F1"/>
<path d="M126.68 75.5831C127.236 72.616 128.797 69.9499 130.659 67.5852C130.81 67.3337 130.659 66.9818 130.458 66.8814C130.207 66.7308 129.905 66.8316 129.754 67.0831C127.892 69.5483 126.281 72.2648 125.675 75.3827C125.524 75.9359 126.529 76.2369 126.68 75.5831Z" fill="#E6F0F1"/>
<path d="M111.009 54.1749C110.053 55.1309 110.051 56.74 111.006 57.6946C111.961 58.6492 113.57 58.648 114.526 57.6919C115.482 56.7358 115.483 55.1268 114.528 54.1722C113.574 53.2175 111.965 53.2188 111.009 54.1749Z" fill="#E6F0F1"/>
<path d="M108.188 61.3172C106.225 63.2797 109.24 66.2943 111.202 64.3318C113.114 62.4197 110.1 59.4051 108.188 61.3172Z" fill="#E6F0F1"/>
<path d="M113.058 70.6153C111.095 72.5778 114.11 75.5924 116.072 73.6299C117.985 71.7178 114.97 68.7032 113.058 70.6153Z" fill="#E6F0F1"/>
<path d="M122.171 55.0712C120.208 57.0337 123.223 60.0482 125.185 58.0857C127.097 56.1736 124.083 53.159 122.171 55.0712Z" fill="#E6F0F1"/>
<path d="M128.096 66.0283C126.133 67.9908 129.148 71.0054 131.11 69.0429C133.073 67.0804 130.058 64.0658 128.096 66.0283Z" fill="#E6F0F1"/>
<path d="M130.488 93.7824C131.353 80.2559 138.15 67.9317 146.706 57.6676C149.021 54.85 151.487 52.1832 154.104 49.5665C154.909 48.7614 153.653 47.5053 152.848 48.3104C143.287 57.8713 134.831 69.141 130.899 82.2173C129.74 85.9893 129.083 89.8615 128.829 93.7334C128.626 94.9403 130.437 94.9389 130.488 93.7824Z" fill="#E6F0F1"/>
<path d="M154.402 55.0972C151.233 55.8539 147.663 56.1081 144.846 57.9204C144.292 58.2728 144.795 59.1775 145.348 58.8251C148.065 57.0128 151.534 56.8593 154.602 56.1027C155.306 56.0016 155.055 54.9459 154.402 55.0972Z" fill="#E6F0F1"/>
<path d="M143.284 61.5923C143.135 59.5309 143.689 57.5695 144.143 55.6081C144.598 53.5462 144.8 51.5348 144.249 49.4736C144.098 48.8201 143.042 49.0723 143.193 49.7259C144.296 53.7476 141.98 57.5708 142.178 61.5932C142.228 62.2468 143.334 62.2459 143.284 61.5923Z" fill="#E6F0F1"/>
<path d="M148.159 65.3595C146.65 65.1595 145.091 65.3116 143.633 65.5641C142.124 65.7664 140.616 66.1698 139.207 66.6737C138.906 66.7745 138.905 67.1767 139.006 67.3778C139.156 67.6291 139.508 67.6791 139.71 67.5784C141.068 67.0242 142.476 66.7214 143.884 66.5192C145.292 66.317 146.75 66.2656 148.158 66.3651C148.46 66.3649 148.711 66.1133 148.711 65.8116C148.661 65.5602 148.46 65.3592 148.159 65.3595Z" fill="#E6F0F1"/>
<path d="M136.489 71.7038C136.289 69.6926 136.441 67.7315 136.342 65.7203C136.243 63.7091 135.843 61.7987 134.788 60.0397C134.436 59.4868 133.531 59.9904 133.882 60.5432C135.941 63.9105 135.084 67.8834 135.483 71.604C135.533 72.3582 136.538 72.3574 136.489 71.7038Z" fill="#E6F0F1"/>
<path d="M141.213 74.2143C138.799 74.1156 136.486 75.0225 134.172 75.6276C133.519 75.779 133.769 76.8347 134.423 76.6834C136.686 76.1285 138.849 75.1715 141.212 75.3205C141.916 75.32 141.917 74.2138 141.213 74.2143Z" fill="#E6F0F1"/>
<path d="M152.598 46.2491C151.642 47.2052 151.641 48.8142 152.595 49.7688C153.55 50.7234 155.159 50.7222 156.115 49.7661C157.071 48.81 157.072 47.201 156.118 46.2464C155.163 45.2917 153.554 45.293 152.598 46.2491Z" fill="#E6F0F1"/>
<path d="M132.677 58.7344C130.714 60.6969 133.729 63.7115 135.692 61.749C137.654 59.7865 134.639 56.7719 132.677 58.7344Z" fill="#E6F0F1"/>
<path d="M142.239 47.7657C140.276 49.7282 143.291 52.7428 145.253 50.7803C147.166 48.8681 144.151 45.8536 142.239 47.7657Z" fill="#E6F0F1"/>
<path d="M153.296 54.3946C151.333 56.3571 154.348 59.3717 156.31 57.4092C158.222 55.4971 155.208 52.4825 153.296 54.3946Z" fill="#E6F0F1"/>
<path d="M146.098 64.1038C144.136 66.0663 147.15 69.0809 149.113 67.1184C151.075 65.1559 148.061 62.1413 146.098 64.1038Z" fill="#E6F0F1"/>
<path d="M139.152 72.6575C137.19 74.62 140.204 77.6346 142.167 75.6721C144.129 73.7096 141.115 70.695 139.152 72.6575Z" fill="#E6F0F1"/>
<path d="M141.735 113.685C158.578 115.633 167.521 125.482 156.098 136.905C145.028 147.975 137.294 134.707 132.325 124.202C139.835 165.527 86.4529 143.143 120.159 120.892C103.661 127.944 93.0054 122.623 98.0451 107.635C102.984 92.8482 113.839 100.181 122.935 107.063C97.2207 68.0637 159.619 69.5745 135.107 102.628C160.023 68.0657 179.346 113.657 141.735 113.685Z" fill="#002C2F"/>
<path d="M141.735 114.591C149.126 115.44 163.402 119.652 159.824 129.963C158.968 132.427 157.307 134.49 155.495 136.302C153.885 137.912 152.023 139.372 149.811 139.977C146.19 140.985 143.023 138.825 140.662 136.263C137.397 132.695 135.188 128.172 133.129 123.799C132.678 122.844 131.32 123.499 131.47 124.454C132.421 129.833 132.869 136.219 130.099 141.199C128.387 144.217 125.419 146.18 122.05 146.434C118.832 146.638 115.514 145.534 113.203 143.525C110.741 141.364 109.436 138.348 109.84 135.13C110.498 130.152 114.574 126.176 118.347 123.307C119.051 122.804 119.806 122.25 120.561 121.797C121.516 121.143 120.713 119.836 119.707 120.239C113.42 122.909 99.7401 126.64 97.8371 116.585C97.4365 114.474 97.74 112.161 98.2947 110.099C98.9502 107.634 99.807 105.069 101.418 103.057C102.475 101.698 103.833 100.641 105.543 100.238C107.202 99.8846 108.811 100.185 110.42 100.687C114.894 102.141 118.813 105.256 122.532 107.968C123.236 108.47 124.242 107.464 123.74 106.76C120.375 101.584 117.061 95.4522 117.569 89.0157C117.823 85.2444 119.887 81.9745 123.107 80.2624C126.125 78.6511 129.745 78.3466 133.013 79.4C136.18 80.353 138.793 82.6639 139.695 85.8813C141.049 90.7576 138.531 95.9888 135.913 100.013C135.41 100.818 134.856 101.573 134.302 102.328C134.805 102.629 135.308 102.93 135.861 103.181C139.183 98.5527 143.46 93.6721 148.892 91.556C152.061 90.2966 155.38 90.294 158.144 92.1523C160.355 93.6591 161.761 96.4738 161.859 99.2895C162.008 102.558 160.547 105.626 158.081 107.891C153.754 111.916 147.317 112.826 141.635 112.881C140.58 112.832 140.629 114.591 141.735 114.591C147.417 114.536 153.552 113.626 158.18 110.103C161.249 107.737 163.414 104.266 163.669 100.294C163.872 96.975 162.568 93.5568 160.156 91.3463C157.392 88.8846 153.571 88.2841 150 89.2422C144.317 90.8053 139.738 95.2839 136.165 99.7618C135.561 100.567 134.957 101.372 134.353 102.177C133.698 103.133 135.206 103.936 135.911 103.03C139.283 98.452 142.556 92.5665 141.706 86.6842C141.156 82.8129 138.544 79.5969 134.924 78.0912C131.406 76.5855 127.233 76.5384 123.712 77.949C119.839 79.5107 116.97 82.7812 116.112 86.8547C114.8 92.9901 117.41 99.4242 120.423 104.651C120.975 105.606 121.578 106.611 122.231 107.566C122.633 107.164 123.036 106.761 123.438 106.358C117.76 102.089 107.509 93.9511 100.816 100.945C98.9539 102.908 97.896 105.473 97.0392 108.038C96.2831 110.502 95.728 113.067 95.9774 115.631C96.3262 119.805 98.7373 123.021 102.759 124.325C108.64 126.181 115.279 124.064 120.661 121.797C120.36 121.295 120.058 120.792 119.808 120.239C115.079 123.36 109.997 127.638 108.484 133.371C107.526 137.143 108.478 141.014 111.091 143.928C113.552 146.592 117.222 148.147 120.892 148.295C124.814 148.393 128.486 146.63 130.852 143.461C134.274 138.832 134.38 132.497 133.73 127.016C133.631 126.011 133.43 125.005 133.28 124.05C132.727 124.302 132.224 124.503 131.62 124.705C133.628 129.028 135.888 133.401 139.002 137.018C141.615 140.033 145.233 142.645 149.457 141.938C151.821 141.584 153.883 140.225 155.644 138.665C157.808 136.803 159.771 134.539 160.979 131.923C162.944 127.748 162.394 123.274 159.229 119.907C154.858 115.234 147.92 113.53 141.786 112.831C140.63 112.681 140.629 114.491 141.735 114.591Z" fill="#E6F0F1"/>
<path d="M150.946 101.158C145.714 105.587 139.677 108.809 133.34 111.429C132.686 111.681 133.238 112.636 133.842 112.333C140.23 109.664 146.367 106.441 151.7 101.911C152.253 101.458 151.5 100.705 150.946 101.158Z" fill="#E6F0F1"/>
<path d="M129.019 107.108C128.873 100.924 129.431 94.638 128.279 88.5548C128.129 87.9013 127.072 88.1535 127.223 88.807C128.375 94.7897 127.767 101.025 127.913 107.109C127.962 107.763 129.018 107.812 129.019 107.108Z" fill="#E6F0F1"/>
<path d="M124.188 112.643C118.707 112.798 113.177 111.797 107.948 110.292C107.295 110.142 106.992 111.148 107.696 111.348C113.025 112.853 118.656 113.954 124.237 113.799C124.941 113.698 124.892 112.642 124.188 112.643Z" fill="#E6F0F1"/>
<path d="M145.452 119.213C142.437 116.601 138.616 115.297 134.897 113.891C134.243 113.641 133.991 114.697 134.644 114.948C138.163 116.252 141.833 117.506 144.697 119.968C145.199 120.471 145.954 119.716 145.452 119.213Z" fill="#E6F0F1"/>
<path d="M141.896 100.964C138.726 103.43 136.009 106.449 132.839 108.915C132.286 109.368 133.089 110.072 133.593 109.669C136.762 107.203 139.48 104.184 142.649 101.718C143.253 101.315 142.5 100.561 141.896 100.964Z" fill="#E6F0F1"/>
<path d="M146.566 108.955C142.442 110.467 138.217 111.475 134.043 112.635C133.389 112.786 133.64 113.842 134.293 113.691C138.468 112.531 142.742 111.472 146.816 110.011C147.47 109.759 147.22 108.703 146.566 108.955Z" fill="#E6F0F1"/>
<path d="M131.181 107.559C131.888 103.536 132.997 99.6127 133.603 95.5897C133.704 94.8857 132.649 94.6351 132.548 95.3391C131.941 99.3621 130.882 103.335 130.125 107.308C130.024 108.012 131.079 108.263 131.181 107.559Z" fill="#E6F0F1"/>
<path d="M126.957 107.16C126.055 103.641 125.303 99.9707 123.596 96.754C123.295 96.1508 122.339 96.7047 122.691 97.2575C124.348 100.424 125.049 104.044 125.951 107.462C126.102 108.116 127.108 107.813 126.957 107.16Z" fill="#E6F0F1"/>
<path d="M124.189 110.229C120.57 109.126 117.152 107.519 113.986 105.46C113.433 105.109 112.879 106.065 113.482 106.366C116.699 108.475 120.217 110.081 123.937 111.185C124.54 111.486 124.843 110.48 124.189 110.229Z" fill="#E6F0F1"/>
<path d="M124.99 114.855C120.666 115.26 116.441 116.37 112.117 116.876C111.413 116.977 111.714 117.982 112.367 117.932C116.541 117.375 120.715 116.316 124.939 115.911C125.643 115.81 125.644 114.804 124.99 114.855Z" fill="#E6F0F1"/>
<path d="M124.192 107.615C122.581 109.225 121.574 111.639 121.622 113.902C121.621 116.114 122.574 118.678 124.182 120.185C125.84 121.742 128.102 122.897 130.465 122.745C132.778 122.642 135.092 121.836 136.753 120.175C138.363 118.565 139.37 116.151 139.322 113.888C139.323 111.676 138.37 109.112 136.762 107.605C135.104 106.047 132.842 104.893 130.479 105.045C128.166 105.148 125.903 105.904 124.192 107.615Z" fill="#E6F0F1"/>
<path d="M128.867 109.17C126.904 111.133 129.919 114.147 131.881 112.185C133.793 110.272 130.779 107.258 128.867 109.17Z" fill="#002C2F"/>
<path d="M133.992 113.188C132.382 114.798 134.894 117.311 136.505 115.7C138.115 114.09 135.603 111.578 133.992 113.188Z" fill="#002C2F"/>
<path d="M124.339 112.392C123.131 113.599 125.04 115.508 126.248 114.301C127.406 113.043 125.547 111.184 124.339 112.392Z" fill="#002C2F"/>
</g>
</g>
<defs>
<linearGradient id="paint0_linear_806_175" x1="108.377" y1="9" x2="108.377" y2="112.827" gradientUnits="userSpaceOnUse">
<stop stop-color="white"/>
<stop offset="1" stop-color="white" stop-opacity="0"/>
</linearGradient>
</defs>
</svg>
